<?xml version="1.0" encoding="UTF-8" standalone="no"?>
<svg
   version="1.1"
   id="ntnulogo"
   width="259.78412670706mm"
   height="82.375mm"
   viewBox="0 0 736.39439899367 233.5034452875"
   sodipodi:docname="phpe1Tb3X"
   xmlns:inkscape="http://www.inkscape.org/namespaces/inkscape"
   xmlns:sodipodi="http://sodipodi.sourceforge.net/DTD/sodipodi-0.dtd"
   xmlns="http://www.w3.org/2000/svg"
   xmlns:svg="http://www.w3.org/2000/svg">
  <sodipodi:namedview
     id="namedview15"
     pagecolor="#ffffff"
     bordercolor="#666666"
     borderopacity="1.0"
     inkscape:pageshadow="2"
     inkscape:pageopacity="0.0"
     inkscape:pagecheckerboard="0"
     inkscape:document-units="mm" />
  <defs
     id="defs" />
  <g
     transform="matrix(2,0,0,2,0,-6.806602)"
     id="g">
    <path
       d="M 33.081001,17.082001 H 11.024 v 22.062 h 22.057001 z m 0,33.084999 H 11.024 C 4.935,50.167 0,45.23 0,39.144001 v -22.062 C 0,10.998 4.935,6.062 11.024,6.062 h 22.057001 c 6.087998,0 11.022,4.936 11.022,11.020001 v 22.062 c 0,6.085999 -4.934002,11.022999 -11.022,11.022999 z"
       stroke="none"
       stroke-width="1"
       stroke-linecap="butt"
       stroke-linejoin="miter"
       stroke-miterlimit="4"
       stroke-opacity="1"
       transform="matrix(1,0,0,-1,0,53.570301)"
       fill="#00509e"
       fill-rule="nonzero"
       fill-opacity="1"
       id="logo-firkant" />
    <path
       d="m 0,0 c -4.997,0 -9.046,-4.054 -9.046,-9.049 0,-4.998 4.049,-9.045999 9.046,-9.045999 4.996,0 9.046,4.047999 9.046,9.045999 C 9.046,-4.054 4.996,0 0,0 Z"
       stroke="none"
       stroke-width="1"
       stroke-linecap="butt"
       stroke-linejoin="miter"
       stroke-miterlimit="4"
       stroke-opacity="1"
       transform="matrix(1,0,0,-1,21.978201,16.333)"
       fill="#00509e"
       fill-rule="nonzero"
       fill-opacity="1"
       id="logo-runding" />
    <path
       d="M 0,0 21.479,-31.225 V -7.2 l -0.062,5.714 H 14.962 V 0 H 28.805 V -1.486 H 23.466 L 23.404,-7.2 V -44.386002 L 22.411,-44.696999 -6.394,-2.792 v -33.649002 l 0.061,-5.896 H 0.308 V -43.827 h -14.337 v 1.489998 h 5.71 l 0.061,5.896 V -7.2 l -0.061,5.714 h -5.71 V 0 Z"
       stroke="none"
       stroke-width="1"
       stroke-linecap="butt"
       stroke-linejoin="miter"
       stroke-miterlimit="4"
       stroke-opacity="1"
       transform="matrix(1,0,0,-1,74.955803,3.4502)"
       fill="#000000"
       fill-rule="nonzero"
       fill-opacity="1"
       id="n1" />
    <path
       d="m 0,0 v -14.027 h -1.863 c -0.187,2.172 -0.436,4.901 -2.36,8.131 -2.234,3.786 -5.277,3.974 -8.256,4.098 h -3.478 l -0.06,-5.588 v -28.616998 l 0.06,-6.334004 H -9.25 V -43.827 h -20.361 v 1.489998 h 6.702 l 0.064,6.334004 V -7.386 l -0.064,5.588 h -2.855999 c -3.600001,-0.062 -6.330002,-0.062 -8.938,-4.221 -2.048,-3.292 -2.235001,-5.899 -2.360001,-8.008 h -1.799 V 0 Z"
       stroke="none"
       stroke-width="1"
       stroke-linecap="butt"
       stroke-linejoin="miter"
       stroke-miterlimit="4"
       stroke-opacity="1"
       transform="matrix(1,0,0,-1,146.5964,3.4502)"
       fill="#000000"
       fill-rule="nonzero"
       fill-opacity="1"
       id="t" />
    <path
       d="M 0,0 21.479,-31.225 V -7.2 l -0.061,5.714 H 14.961 V 0 H 28.804001 V -1.486 H 23.465 L 23.402,-7.2 V -44.386002 L 22.409,-44.696999 -6.396,-2.792 v -33.649002 l 0.063,-5.896 H 0.312 V -43.827 h -14.343 v 1.489998 h 5.714 l 0.058,5.896 V -7.2 l -0.058,5.714 h -5.714 V 0 Z"
       stroke="none"
       stroke-width="1"
       stroke-linecap="butt"
       stroke-linejoin="miter"
       stroke-miterlimit="4"
       stroke-opacity="1"
       transform="matrix(1,0,0,-1,164.2263,3.4502)"
       fill="#000000"
       fill-rule="nonzero"
       fill-opacity="1"
       id="n2" />
    <path
       d="m 0,0 v -1.486 h -6.148 l -0.059,-5.28 V -30.48 c 0.059,-6.145999 0.186,-11.979999 11.732,-11.979999 11.67,0 12.415001,5.09 12.6,10.615 V -6.766 l -0.06,5.28 H 11.797 V 0 H 25.511999 V -1.486 H 20.115 l -0.062,-5.28 v -22.598 c -0.065,-8.131998 -0.126,-15.082999 -16.204,-15.082999 -2.294,0 -7.761,0.246998 -11.235,1.675999 -5.525,2.359001 -5.649,7.200001 -5.712,13.160999 V -6.766 l -0.063,5.28 H -18.5 V 0 Z"
       stroke="none"
       stroke-width="1"
       stroke-linecap="butt"
       stroke-linejoin="miter"
       stroke-miterlimit="4"
       stroke-opacity="1"
       transform="matrix(1,0,0,-1,217.13451,3.4502)"
       fill="#000000"
       fill-rule="nonzero"
       fill-opacity="1"
       id="u" />
    <g
       aria-label="Department of Engineering"
       id="tekst1"
       style="font-size:24.0018px;line-height:125%;font-family:'Open Sans';text-align:left;letter-spacing:0px;word-spacing:0px;display:inline;stroke-width:0.375001px">
      <path
         d="m 76.952142,79.168878 q 0,4.242506 -2.308767,6.492674 -2.297047,2.23845 -6.621591,2.23845 H 63.275335 V 70.765904 h 5.250394 q 3.996393,0 6.211403,2.21501 2.21501,2.21501 2.21501,6.187964 z m -2.109533,0.07032 q 0,-3.351814 -1.687627,-5.051161 -1.675907,-1.699346 -4.992562,-1.699346 h -2.894748 v 13.688527 h 2.425963 q 3.562767,0 5.35587,-1.746225 1.793104,-1.757944 1.793104,-5.191795 z"
         id="path17" />
      <path
         d="m 85.905938,88.134394 q -2.84787,0 -4.500337,-1.734505 -1.640748,-1.734505 -1.640748,-4.816768 0,-3.105701 1.523551,-4.933963 1.535272,-1.828263 4.11359,-1.828263 2.414244,0 3.820599,1.59387 1.406356,1.58215 1.406356,4.183908 v 1.230561 h -8.84832 q 0.0586,2.261888 1.136804,3.433851 1.089925,1.171963 3.058823,1.171963 2.074374,0 4.10187,-0.867253 V 87.3023 q -1.031327,0.445346 -1.957178,0.63286 -0.914131,0.199234 -2.21501,0.199234 z m -0.527383,-11.68447 q -1.546991,0 -2.472842,1.007888 -0.914131,1.007888 -1.078206,2.789272 h 6.715348 q 0,-1.839982 -0.820374,-2.812711 -0.820374,-0.984449 -2.343926,-0.984449 z"
         id="path19" />
      <path
         d="m 99.922615,88.134394 q -1.254,0 -2.297047,-0.457065 -1.031327,-0.468786 -1.734505,-1.429795 h -0.140636 q 0.140636,1.125084 0.140636,2.132972 v 5.285553 H 93.945605 V 75.055288 h 1.58215 l 0.269551,1.757944 h 0.09376 q 0.750056,-1.054766 1.746225,-1.523551 0.996168,-0.468786 2.285327,-0.468786 2.554875,0 3.937795,1.746225 1.39464,1.746225 1.39464,4.898805 0,3.1643 -1.41808,4.922244 -1.40635,1.746225 -3.914355,1.746225 z M 99.641344,76.473363 q -1.968897,0 -2.84787,1.089926 -0.878972,1.089925 -0.902411,3.46901 v 0.433626 q 0,2.707234 0.902411,3.879197 0.902412,1.160244 2.894749,1.160244 1.664187,0 2.601757,-1.347758 0.94929,-1.347757 0.94929,-3.715122 0,-2.402524 -0.94929,-3.679964 -0.93757,-1.289159 -2.648636,-1.289159 z"
         id="path21" />
      <path
         d="m 116.55277,87.900002 -0.38675,-1.828263 h -0.0938 q -0.96101,1.207122 -1.92202,1.640748 -0.94929,0.421907 -2.37908,0.421907 -1.9103,0 -3.00023,-0.984449 -1.0782,-0.984449 -1.0782,-2.800991 0,-3.890917 6.22312,-4.078431 l 2.17985,-0.07032 V 79.40327 q 0,-1.511832 -0.6563,-2.226729 -0.64458,-0.726617 -2.07437,-0.726617 -1.60559,0 -3.63309,0.984449 l -0.5977,-1.488393 q 0.94929,-0.515664 2.07438,-0.808655 1.1368,-0.29299 2.27361,-0.29299 2.29704,0 3.39869,1.019607 1.11336,1.019608 1.11336,3.269777 v 8.766283 z m -4.39486,-1.371197 q 1.81654,0 2.84787,-0.996169 1.04304,-0.996168 1.04304,-2.789271 v -1.160244 l -1.94545,0.08204 q -2.32049,0.08204 -3.35182,0.726617 -1.01961,0.63286 -1.01961,1.980617 0,1.054767 0.63286,1.605589 0.64458,0.550823 1.79311,0.550823 z"
         id="path23" />
      <path
         d="m 127.86221,74.820895 q 0.85553,0 1.53527,0.140636 l -0.26955,1.804823 q -0.79694,-0.175795 -1.40636,-0.175795 -1.55871,0 -2.67207,1.26572 -1.10165,1.26572 -1.10165,3.152581 v 6.891142 h -1.94546 V 75.055288 h 1.60559 l 0.22268,2.379085 h 0.0937 q 0.7149,-1.254001 1.72279,-1.933739 1.00789,-0.679739 2.21501,-0.679739 z"
         id="path25" />
      <path
         d="m 135.94876,86.528805 q 0.51566,0 0.99617,-0.07032 0.4805,-0.08204 0.76177,-0.164075 v 1.488393 q -0.31643,0.152355 -0.93757,0.246112 -0.60942,0.105477 -1.10164,0.105477 -3.72685,0 -3.72685,-3.926076 V 76.56712 h -1.83998 v -0.93757 l 1.83998,-0.808655 0.82038,-2.742393 h 1.12508 v 2.976786 h 3.72685 v 1.511832 h -3.72685 v 7.559161 q 0,1.160243 0.55083,1.781384 0.55082,0.62114 1.51183,0.62114 z"
         id="path27" />
      <path
         d="m 156.64562,87.900002 v -8.356096 q 0,-1.535271 -0.6563,-2.297047 -0.6563,-0.773496 -2.03921,-0.773496 -1.81655,0 -2.6838,1.043047 -0.86725,1.043047 -0.86725,3.211178 v 7.172414 h -1.94546 v -8.356096 q 0,-1.535271 -0.6563,-2.297047 -0.6563,-0.773496 -2.05093,-0.773496 -1.82827,0 -2.6838,1.101645 -0.84381,1.089926 -0.84381,3.586207 v 6.738787 H 140.2733 V 75.055288 h 1.58215 l 0.31643,1.757944 h 0.0938 q 0.55082,-0.93757 1.54699,-1.464953 1.00788,-0.527384 2.25017,-0.527384 3.01194,0 3.93779,2.179851 h 0.0938 q 0.57426,-1.007888 1.66419,-1.593869 1.08992,-0.585982 2.48456,-0.585982 2.17985,0 3.25805,1.125085 1.08993,1.113365 1.08993,3.574487 v 8.379535 z"
         id="path29" />
      <path
         d="m 168.02538,88.134394 q -2.84787,0 -4.50033,-1.734505 -1.64075,-1.734505 -1.64075,-4.816768 0,-3.105701 1.52355,-4.933963 1.53527,-1.828263 4.11359,-1.828263 2.41424,0 3.8206,1.59387 1.40635,1.58215 1.40635,4.183908 v 1.230561 h -8.84832 q 0.0586,2.261888 1.13681,3.433851 1.08992,1.171963 3.05882,1.171963 2.07438,0 4.10187,-0.867253 V 87.3023 q -1.03133,0.445346 -1.95718,0.63286 -0.91413,0.199234 -2.21501,0.199234 z M 167.498,76.449924 q -1.54699,0 -2.47284,1.007888 -0.91413,1.007888 -1.07821,2.789272 h 6.71535 q 0,-1.839982 -0.82037,-2.812711 -0.82038,-0.984449 -2.34393,-0.984449 z"
         id="path31" />
      <path
         d="m 184.85477,87.900002 v -8.309218 q 0,-1.57043 -0.7149,-2.343925 -0.7149,-0.773496 -2.23845,-0.773496 -2.01577,0 -2.95334,1.089926 -0.93758,1.089925 -0.93758,3.597926 v 6.738787 h -1.94545 V 75.055288 h 1.58215 l 0.31643,1.757944 h 0.0937 q 0.5977,-0.94929 1.67591,-1.464953 1.07821,-0.527384 2.40252,-0.527384 2.32049,0 3.49245,1.125085 1.17197,1.113365 1.17197,3.574487 v 8.379535 z"
         id="path33" />
      <path
         d="m 194.94537,86.528805 q 0.51566,0 0.99617,-0.07032 0.4805,-0.08204 0.76177,-0.164075 v 1.488393 q -0.31643,0.152355 -0.93757,0.246112 -0.60942,0.105477 -1.10164,0.105477 -3.72684,0 -3.72684,-3.926076 V 76.56712 h -1.83998 v -0.93757 l 1.83998,-0.808655 0.82037,-2.742393 h 1.12509 v 2.976786 h 3.72684 v 1.511832 h -3.72684 v 7.559161 q 0,1.160243 0.55082,1.781384 0.55082,0.62114 1.51183,0.62114 z"
         id="path35" />
      <path
         d="m 216.59153,81.465925 q 0,3.140861 -1.58215,4.910525 -1.58215,1.757944 -4.37142,1.757944 -1.72279,0 -3.05883,-0.808654 -1.33603,-0.808655 -2.06265,-2.320487 -0.72662,-1.511832 -0.72662,-3.539328 0,-3.140861 1.57043,-4.887085 1.57043,-1.757945 4.3597,-1.757945 2.69552,0 4.27767,1.793104 1.59387,1.793103 1.59387,4.851926 z m -9.78589,0 q 0,2.461122 0.98445,3.750281 0.98445,1.28916 2.89475,1.28916 1.91029,0 2.89474,-1.27744 0.99617,-1.289159 0.99617,-3.762001 0,-2.449402 -0.99617,-3.715122 -0.98445,-1.27744 -2.91818,-1.27744 -1.9103,0 -2.88303,1.254 -0.97273,1.254001 -0.97273,3.738562 z"
         id="path37" />
      <path
         d="m 225.79143,76.56712 h -3.26977 V 87.900002 H 220.5762 V 76.56712 h -2.29705 v -0.878972 l 2.29705,-0.703178 v -0.714897 q 0,-4.73473 4.13703,-4.73473 1.0196,0 2.3908,0.410187 l -0.50394,1.55871 q -1.12509,-0.363308 -1.92202,-0.363308 -1.10165,0 -1.62903,0.738336 -0.52738,0.726617 -0.52738,2.343926 v 0.832094 h 3.26977 z"
         id="path39" />
      <path
         d="m 244.2147,87.900002 h -9.5515 V 70.765904 h 9.5515 v 1.769664 h -7.55917 v 5.519945 h 7.1021 v 1.757944 h -7.1021 v 6.305161 h 7.55917 z"
         id="path41" />
      <path
         d="m 256.50858,87.900002 v -8.309218 q 0,-1.57043 -0.7149,-2.343925 -0.7149,-0.773496 -2.23845,-0.773496 -2.01578,0 -2.95335,1.089926 -0.93757,1.089925 -0.93757,3.597926 v 6.738787 h -1.94545 V 75.055288 h 1.58215 l 0.31643,1.757944 h 0.0937 q 0.5977,-0.94929 1.67591,-1.464953 1.0782,-0.527384 2.40252,-0.527384 2.32049,0 3.49245,1.125085 1.17197,1.113365 1.17197,3.574487 v 8.379535 z"
         id="path43" />
      <path
         d="m 272.96295,75.055288 v 1.230561 l -2.37909,0.281271 q 0.32815,0.410187 0.58598,1.078206 0.25783,0.656299 0.25783,1.488393 0,1.88686 -1.28916,3.011945 -1.28915,1.125084 -3.53932,1.125084 -0.57427,0 -1.07821,-0.09376 -1.24228,0.656299 -1.24228,1.652468 0,0.527383 0.43363,0.785215 0.43362,0.246112 1.48839,0.246112 h 2.27361 q 2.08609,0 3.19946,0.878972 1.12508,0.878972 1.12508,2.554879 0,2.132973 -1.71107,3.246338 -1.71106,1.125084 -4.99256,1.125084 -2.51972,0 -3.89091,-0.93757 -1.35948,-0.937571 -1.35948,-2.648636 0,-1.171963 0.75005,-2.027496 0.75006,-0.855533 2.10954,-1.160244 -0.49223,-0.222673 -0.8321,-0.691458 -0.32815,-0.468785 -0.32815,-1.089925 0,-0.703178 0.37503,-1.230561 0.37503,-0.527384 1.18369,-1.019608 -0.99617,-0.410187 -1.62903,-1.394636 -0.62114,-0.984449 -0.62114,-2.250169 0,-2.109533 1.26572,-3.246337 1.26572,-1.148524 3.5862,-1.148524 1.00789,0 1.81655,0.234393 z m -10.24296,15.001125 q 0,1.043047 0.87897,1.58215 0.87897,0.539103 2.51972,0.539103 2.4494,0 3.62137,-0.738336 1.18368,-0.726617 1.18368,-1.980618 0,-1.043047 -0.64458,-1.453234 -0.64458,-0.398467 -2.42596,-0.398467 h -2.33221 q -1.32432,0 -2.06265,0.63286 -0.73834,0.63286 -0.73834,1.816542 z m 1.05477,-10.887535 q 0,1.347757 0.76177,2.039215 0.76178,0.691458 2.12125,0.691458 2.84787,0 2.84787,-2.765832 0,-2.894748 -2.88302,-2.894748 -1.3712,0 -2.10954,0.738336 -0.73833,0.738337 -0.73833,2.191571 z"
         id="path45" />
      <path
         d="m 277.54531,87.900002 h -1.94546 V 75.055288 h 1.94546 z m -2.10953,-16.325444 q 0,-0.668019 0.32815,-0.972729 0.32815,-0.31643 0.82037,-0.31643 0.46879,0 0.80866,0.31643 0.33986,0.31643 0.33986,0.972729 0,0.656299 -0.33986,0.984449 -0.33987,0.31643 -0.80866,0.31643 -0.49222,0 -0.82037,-0.31643 -0.32815,-0.32815 -0.32815,-0.984449 z"
         id="path47" />
      <path
         d="m 290.46034,87.900002 v -8.309218 q 0,-1.57043 -0.71489,-2.343925 -0.7149,-0.773496 -2.23845,-0.773496 -2.01578,0 -2.95335,1.089926 -0.93757,1.089925 -0.93757,3.597926 v 6.738787 h -1.94546 V 75.055288 h 1.58215 l 0.31643,1.757944 h 0.0938 q 0.5977,-0.94929 1.67591,-1.464953 1.0782,-0.527384 2.40252,-0.527384 2.32049,0 3.49245,1.125085 1.17196,1.113365 1.17196,3.574487 v 8.379535 z"
         id="path49" />
      <path
         d="m 301.82839,88.134394 q -2.84787,0 -4.50033,-1.734505 -1.64075,-1.734505 -1.64075,-4.816768 0,-3.105701 1.52355,-4.933963 1.53527,-1.828263 4.11359,-1.828263 2.41424,0 3.8206,1.59387 1.40635,1.58215 1.40635,4.183908 v 1.230561 h -8.84832 q 0.0586,2.261888 1.13681,3.433851 1.08992,1.171963 3.05882,1.171963 2.07438,0 4.10187,-0.867253 V 87.3023 q -1.03133,0.445346 -1.95718,0.63286 -0.91413,0.199234 -2.21501,0.199234 z m -0.52738,-11.68447 q -1.54699,0 -2.47284,1.007888 -0.91413,1.007888 -1.07821,2.789272 h 6.71535 q 0,-1.839982 -0.82037,-2.812711 -0.82038,-0.984449 -2.34393,-0.984449 z"
         id="path51" />
      <path
         d="m 315.29424,88.134394 q -2.84787,0 -4.50033,-1.734505 -1.64075,-1.734505 -1.64075,-4.816768 0,-3.105701 1.52355,-4.933963 1.53527,-1.828263 4.11359,-1.828263 2.41424,0 3.8206,1.59387 1.40635,1.58215 1.40635,4.183908 v 1.230561 h -8.84832 q 0.0586,2.261888 1.13681,3.433851 1.08992,1.171963 3.05882,1.171963 2.07438,0 4.10187,-0.867253 V 87.3023 q -1.03133,0.445346 -1.95718,0.63286 -0.91413,0.199234 -2.21501,0.199234 z m -0.52738,-11.68447 q -1.54699,0 -2.47284,1.007888 -0.91413,1.007888 -1.07821,2.789272 h 6.71535 q 0,-1.839982 -0.82037,-2.812711 -0.82038,-0.984449 -2.34393,-0.984449 z"
         id="path53" />
      <path
         d="m 329.19372,74.820895 q 0.85553,0 1.53527,0.140636 l -0.26955,1.804823 q -0.79693,-0.175795 -1.40635,-0.175795 -1.55872,0 -2.67208,1.26572 -1.10165,1.26572 -1.10165,3.152581 v 6.891142 h -1.94545 V 75.055288 h 1.60559 l 0.22267,2.379085 h 0.0938 q 0.71489,-1.254001 1.72278,-1.933739 1.00789,-0.679739 2.21501,-0.679739 z"
         id="path55" />
      <path
         d="m 335.07697,87.900002 h -1.94546 V 75.055288 h 1.94546 z m -2.10953,-16.325444 q 0,-0.668019 0.32815,-0.972729 0.32815,-0.31643 0.82037,-0.31643 0.46879,0 0.80866,0.31643 0.33987,0.31643 0.33987,0.972729 0,0.656299 -0.33987,0.984449 -0.33987,0.31643 -0.80866,0.31643 -0.49222,0 -0.82037,-0.31643 -0.32815,-0.32815 -0.32815,-0.984449 z"
         id="path57" />
      <path
         d="m 347.99201,87.900002 v -8.309218 q 0,-1.57043 -0.7149,-2.343925 -0.7149,-0.773496 -2.23845,-0.773496 -2.01578,0 -2.95335,1.089926 -0.93757,1.089925 -0.93757,3.597926 v 6.738787 h -1.94546 V 75.055288 h 1.58215 l 0.31643,1.757944 h 0.0938 q 0.5977,-0.94929 1.67591,-1.464953 1.0782,-0.527384 2.40252,-0.527384 2.32049,0 3.49245,1.125085 1.17196,1.113365 1.17196,3.574487 v 8.379535 z"
         id="path59" />
      <path
         d="m 364.44636,75.055288 v 1.230561 l -2.37909,0.281271 q 0.32815,0.410187 0.58599,1.078206 0.25783,0.656299 0.25783,1.488393 0,1.88686 -1.28916,3.011945 -1.28916,1.125084 -3.53933,1.125084 -0.57426,0 -1.07821,-0.09376 -1.24228,0.656299 -1.24228,1.652468 0,0.527383 0.43363,0.785215 0.43363,0.246112 1.48839,0.246112 h 2.27361 q 2.08609,0 3.19946,0.878972 1.12508,0.878972 1.12508,2.554879 0,2.132973 -1.71106,3.246338 -1.71107,1.125084 -4.99256,1.125084 -2.51972,0 -3.89092,-0.93757 -1.35948,-0.937571 -1.35948,-2.648636 0,-1.171963 0.75006,-2.027496 0.75005,-0.855533 2.10953,-1.160244 -0.49222,-0.222673 -0.83209,-0.691458 -0.32815,-0.468785 -0.32815,-1.089925 0,-0.703178 0.37503,-1.230561 0.37502,-0.527384 1.18368,-1.019608 -0.99617,-0.410187 -1.62903,-1.394636 -0.62114,-0.984449 -0.62114,-2.250169 0,-2.109533 1.26572,-3.246337 1.26572,-1.148524 3.58621,-1.148524 1.00788,0 1.81654,0.234393 z M 354.2034,90.056413 q 0,1.043047 0.87898,1.58215 0.87897,0.539103 2.51972,0.539103 2.4494,0 3.62136,-0.738336 1.18368,-0.726617 1.18368,-1.980618 0,-1.043047 -0.64458,-1.453234 -0.64458,-0.398467 -2.42596,-0.398467 h -2.33221 q -1.32431,0 -2.06265,0.63286 -0.73834,0.63286 -0.73834,1.816542 z m 1.05477,-10.887535 q 0,1.347757 0.76178,2.039215 0.76177,0.691458 2.12125,0.691458 2.84787,0 2.84787,-2.765832 0,-2.894748 -2.88303,-2.894748 -1.3712,0 -2.10953,0.738336 -0.73834,0.738337 -0.73834,2.191571 z"
         id="path61" />
    </g>
    <g
       aria-label="Cybernetics"
       id="tekst2"
       style="font-size:24.0018px;line-height:125%;font-family:'Open Sans';text-align:left;letter-spacing:0px;word-spacing:0px;display:inline;stroke-width:0.375001px">
      <path
         d="m 70.611823,98.801175 q -2.824431,0 -4.465179,1.886865 -1.629029,1.87514 -1.629029,5.14491 0,3.36354 1.570431,5.20352 1.58215,1.82826 4.500337,1.82826 1.793104,0 4.090151,-0.64458 v 1.74623 q -1.781384,0.66801 -4.394861,0.66801 -3.78544,0 -5.848095,-2.29704 -2.050935,-2.29705 -2.050935,-6.52784 0,-2.64863 0.984449,-4.64097 0.996168,-1.992337 2.859589,-3.070543 1.875141,-1.078206 4.406581,-1.078206 2.695514,0 4.711291,0.984449 l -0.843814,1.711066 q -1.945458,-0.914131 -3.890916,-0.914131 z"
         id="path64" />
      <path
         d="m 76.084889,101.55529 h 2.086094 l 2.812711,7.32477 q 0.925851,2.508 1.148524,3.62136 h 0.09376 q 0.152355,-0.5977 0.63286,-2.03921 0.492224,-1.45324 3.187739,-8.90692 h 2.086094 l -5.519945,14.6261 q -0.820374,2.16813 -1.922019,3.07054 -1.089926,0.91413 -2.683796,0.91413 -0.890691,0 -1.757944,-0.19923 v -1.55872 q 0.64458,0.14064 1.441514,0.14064 2.004057,0 2.85959,-2.25017 l 0.714897,-1.82826 z"
         id="path66" />
      <path
         d="m 96.195773,101.34433 q 2.531439,0 3.926077,1.73451 1.40635,1.72279 1.40635,4.88709 0,3.16429 -1.41807,4.92224 -1.406357,1.74622 -3.914357,1.74622 -1.254001,0 -2.297048,-0.45706 -1.031327,-0.46879 -1.734505,-1.4298 H 92.023585 L 91.613398,114.4 H 90.218762 V 96.164259 h 1.945458 v 4.430021 q 0,1.48839 -0.09376,2.67207 h 0.09376 q 1.359477,-1.92202 4.031553,-1.92202 z m -0.281272,1.62903 q -1.992337,0 -2.871309,1.14853 -0.878972,1.1368 -0.878972,3.84404 0,2.70723 0.902412,3.87919 0.902411,1.16025 2.894748,1.16025 1.793103,0 2.672075,-1.30088 0.878973,-1.3126 0.878973,-3.762 0,-2.508 -0.878973,-3.73857 -0.878972,-1.23056 -2.718954,-1.23056 z"
         id="path68" />
      <path
         d="m 110.35309,114.63439 q -2.84787,0 -4.50034,-1.7345 -1.64075,-1.73451 -1.64075,-4.81677 0,-3.1057 1.52355,-4.93396 1.53527,-1.82826 4.11359,-1.82826 2.41425,0 3.8206,1.59386 1.40636,1.58215 1.40636,4.18391 v 1.23056 h -8.84832 q 0.0586,2.26189 1.1368,3.43385 1.08993,1.17197 3.05882,1.17197 2.07438,0 4.10187,-0.86725 v 1.7345 q -1.03132,0.44535 -1.95717,0.63286 -0.91414,0.19923 -2.21501,0.19923 z m -0.52739,-11.68447 q -1.54699,0 -2.47284,1.00789 -0.91413,1.00789 -1.07821,2.78927 H 112.99 q 0,-1.83998 -0.82037,-2.81271 -0.82038,-0.98445 -2.34393,-0.98445 z"
         id="path70" />
      <path
         d="m 124.25257,101.3209 q 0.85553,0 1.53527,0.14063 l -0.26955,1.80482 q -0.79694,-0.17579 -1.40636,-0.17579 -1.55871,0 -2.67207,1.26572 -1.10165,1.26572 -1.10165,3.15258 V 114.4 h -1.94546 v -12.84471 h 1.60559 l 0.22267,2.37908 h 0.0938 q 0.7149,-1.254 1.72279,-1.93374 1.00788,-0.67973 2.21501,-0.67973 z"
         id="path72" />
      <path
         d="m 136.98008,114.4 v -8.30922 q 0,-1.57043 -0.7149,-2.34392 -0.71489,-0.7735 -2.23845,-0.7735 -2.01577,0 -2.95334,1.08993 -0.93757,1.08992 -0.93757,3.59792 V 114.4 h -1.94546 v -12.84471 h 1.58215 l 0.31643,1.75794 h 0.0938 q 0.5977,-0.94929 1.6759,-1.46495 1.07821,-0.52738 2.40253,-0.52738 2.32048,0 3.49245,1.12508 1.17196,1.11336 1.17196,3.57449 V 114.4 Z"
         id="path74" />
      <path
         d="m 148.34812,114.63439 q -2.84787,0 -4.50033,-1.7345 -1.64075,-1.73451 -1.64075,-4.81677 0,-3.1057 1.52355,-4.93396 1.53527,-1.82826 4.11359,-1.82826 2.41424,0 3.8206,1.59386 1.40635,1.58215 1.40635,4.18391 v 1.23056 h -8.84832 q 0.0586,2.26189 1.13681,3.43385 1.08992,1.17197 3.05882,1.17197 2.07437,0 4.10187,-0.86725 v 1.7345 q -1.03133,0.44535 -1.95718,0.63286 -0.91413,0.19923 -2.21501,0.19923 z m -0.52738,-11.68447 q -1.54699,0 -2.47284,1.00789 -0.91413,1.00789 -1.07821,2.78927 h 6.71535 q 0,-1.83998 -0.82037,-2.81271 -0.82038,-0.98445 -2.34393,-0.98445 z"
         id="path76" />
      <path
         d="m 160.53653,113.0288 q 0.51567,0 0.99617,-0.0703 0.48051,-0.082 0.76178,-0.16408 v 1.4884 q -0.31643,0.15235 -0.93757,0.24611 -0.60942,0.10547 -1.10165,0.10547 -3.72684,0 -3.72684,-3.92607 v -7.6412 h -1.83998 v -0.93757 l 1.83998,-0.80865 0.82037,-2.742398 h 1.12509 v 2.976788 h 3.72684 v 1.51183 h -3.72684 v 7.55916 q 0,1.16024 0.55082,1.78138 0.55082,0.62114 1.51183,0.62114 z"
         id="path78" />
      <path
         d="m 166.80654,114.4 h -1.94546 v -12.84471 h 1.94546 z m -2.10953,-16.325442 q 0,-0.668019 0.32815,-0.972729 0.32815,-0.31643 0.82037,-0.31643 0.46879,0 0.80866,0.31643 0.33986,0.31643 0.33986,0.972729 0,0.656299 -0.33986,0.984449 -0.33987,0.31643 -0.80866,0.31643 -0.49222,0 -0.82037,-0.31643 -0.32815,-0.32815 -0.32815,-0.984449 z"
         id="path80" />
      <path
         d="m 176.06504,114.63439 q -2.78927,0 -4.32454,-1.71106 -1.52355,-1.72279 -1.52355,-4.86365 0,-3.2229 1.54699,-4.98084 1.55871,-1.75794 4.43002,-1.75794 0.92585,0 1.8517,0.19923 0.92585,0.19923 1.45323,0.46878 l -0.5977,1.65247 q -0.64458,-0.25783 -1.40635,-0.4219 -0.76178,-0.1758 -1.34776,-0.1758 -3.91436,0 -3.91436,4.99256 0,2.36737 0.94929,3.63309 0.96101,1.26572 2.83615,1.26572 1.60559,0 3.29322,-0.69146 v 1.72279 q -1.28916,0.66801 -3.24634,0.66801 z"
         id="path82" />
      <path
         d="m 190.64427,110.89583 q 0,1.79311 -1.33604,2.76583 -1.33604,0.97273 -3.75028,0.97273 -2.55488,0 -3.98468,-0.80865 v -1.80482 q 0.92585,0.46878 1.98062,0.73833 1.06649,0.26955 2.05094,0.26955 1.52355,0 2.34392,-0.4805 0.82038,-0.49222 0.82038,-1.48839 0,-0.75006 -0.6563,-1.27744 -0.64458,-0.53911 -2.53144,-1.26572 -1.79311,-0.66802 -2.55488,-1.16025 -0.75006,-0.50394 -1.12509,-1.1368 -0.36331,-0.63286 -0.36331,-1.51183 0,-1.57043 1.27744,-2.47284 1.27744,-0.91413 3.50417,-0.91413 2.07438,0 4.05499,0.84381 l -0.69145,1.58215 q -1.93374,-0.79694 -3.50417,-0.79694 -1.38292,0 -2.0861,0.43363 -0.70317,0.43363 -0.70317,1.1954 0,0.51567 0.25783,0.87897 0.26955,0.36331 0.85553,0.69146 0.58598,0.32815 2.25017,0.94929 2.28533,0.8321 3.08226,1.67591 0.80866,0.84381 0.80866,2.12125 z"
         id="path84" />
    </g>
  </g>
</svg>
