<svg class="main-svg" xmlns="http://www.w3.org/2000/svg" xmlns:xlink="http://www.w3.org/1999/xlink" width="1000" height="400" style="" viewBox="0 0 1000 400"><rect x="0" y="0" width="1000" height="400" style="fill: rgb(255, 255, 255); fill-opacity: 1;"/><defs id="defs-3d7ce0"><g class="clips"><clipPath id="clip3d7ce0xyplot" class="plotclip"><rect width="911" height="87.99999999999999"/></clipPath><clipPath id="clip3d7ce0x2y2plot" class="plotclip"><rect width="911" height="87.99999999999999"/></clipPath><clipPath id="clip3d7ce0x3y3plot" class="plotclip"><rect width="911" height="88"/></clipPath><clipPath class="axesclip" id="clip3d7ce0x"><rect x="71" y="0" width="911" height="400"/></clipPath><clipPath class="axesclip" id="clip3d7ce0y"><rect x="0" y="13" width="1000" height="87.99999999999999"/></clipPath><clipPath class="axesclip" id="clip3d7ce0xy"><rect x="71" y="13" width="911" height="87.99999999999999"/></clipPath><clipPath class="axesclip" id="clip3d7ce0y2"><rect x="0" y="134" width="1000" height="87.99999999999999"/></clipPath><clipPath class="axesclip" id="clip3d7ce0xy2"><rect x="71" y="134" width="911" height="87.99999999999999"/></clipPath><clipPath class="axesclip" id="clip3d7ce0y3"><rect x="0" y="255.00000000000003" width="1000" height="88"/></clipPath><clipPath class="axesclip" id="clip3d7ce0xy3"><rect x="71" y="255.00000000000003" width="911" height="88"/></clipPath><clipPath class="axesclip" id="clip3d7ce0x2"><rect x="71" y="0" width="911" height="400"/></clipPath><clipPath class="axesclip" id="clip3d7ce0x2y"><rect x="71" y="13" width="911" height="87.99999999999999"/></clipPath><clipPath class="axesclip" id="clip3d7ce0x2y2"><rect x="71" y="134" width="911" height="87.99999999999999"/></clipPath><clipPath class="axesclip" id="clip3d7ce0x2y3"><rect x="71" y="255.00000000000003" width="911" height="88"/></clipPath><clipPath class="axesclip" id="clip3d7ce0x3"><rect x="71" y="0" width="911" height="400"/></clipPath><clipPath class="axesclip" id="clip3d7ce0x3y"><rect x="71" y="13" width="911" height="87.99999999999999"/></clipPath><clipPath class="axesclip" id="clip3d7ce0x3y2"><rect x="71" y="134" width="911" height="87.99999999999999"/></clipPath><clipPath class="axesclip" id="clip3d7ce0x3y3"><rect x="71" y="255.00000000000003" width="911" height="88"/></clipPath></g><g class="gradients"/><g class="patterns"/></defs><g class="bglayer"/><g class="layer-below"><g class="imagelayer"/><g class="shapelayer"/></g><g class="cartesianlayer"><g class="subplot xy"><g class="layer-subplot"><g class="shapelayer"/><g class="imagelayer"/></g><g class="minor-gridlayer"><g class="x"/><g class="y"/></g><g class="gridlayer"><g class="x"><path class="xgrid crisp" transform="translate(253.8,0)" d="M0,13v87.99999999999999" style="stroke: rgb(200, 200, 200); stroke-opacity: 1; stroke-width: 1px;"/><path class="xgrid crisp" transform="translate(435.6,0)" d="M0,13v87.99999999999999" style="stroke: rgb(200, 200, 200); stroke-opacity: 1; stroke-width: 1px;"/><path class="xgrid crisp" transform="translate(617.4,0)" d="M0,13v87.99999999999999" style="stroke: rgb(200, 200, 200); stroke-opacity: 1; stroke-width: 1px;"/><path class="xgrid crisp" transform="translate(799.2,0)" d="M0,13v87.99999999999999" style="stroke: rgb(200, 200, 200); stroke-opacity: 1; stroke-width: 1px;"/></g><g class="y"><path class="ygrid crisp" transform="translate(0,71.67)" d="M71,0h911" style="stroke: rgb(200, 200, 200); stroke-opacity: 1; stroke-width: 1px;"/><path class="ygrid crisp" transform="translate(0,42.33)" d="M71,0h911" style="stroke: rgb(200, 200, 200); stroke-opacity: 1; stroke-width: 1px;"/></g></g><g class="zerolinelayer"><path class="xzl zl crisp" transform="translate(72,0)" d="M0,13v87.99999999999999" style="stroke: rgb(200, 200, 200); stroke-opacity: 1; stroke-width: 2px;"/></g><g class="layer-between"><g class="shapelayer"/><g class="imagelayer"/></g><path class="xlines-below"/><path class="ylines-below"/><g class="overlines-below"/><g class="xaxislayer-below"/><g class="yaxislayer-below"/><g class="overaxes-below"/><g class="overplot"><g class="xy" transform="translate(71,13)" clip-path="url(#clip3d7ce0xyplot)"><g class="scatterlayer mlayer"><g class="trace scatter trace5a97fe" style="stroke-miterlimit: 2; opacity: 1;"><g class="fills"/><g class="errorbars"/><g class="lines"><path class="js-line" d="M1,0L910,0" style="vector-effect: none; fill: none; stroke: rgb(12, 51, 131); stroke-opacity: 1; stroke-width: 2px; opacity: 1;"/></g><g class="points"/><g class="text"/></g><g class="trace scatter trace0b7c33" style="stroke-miterlimit: 2; opacity: 1;"><g class="fills"/><g class="errorbars"/><g class="lines"><path class="js-line" d="M1,0L910,0" style="vector-effect: none; fill: none; stroke: rgb(11, 94, 158); stroke-opacity: 1; stroke-width: 2px; opacity: 1;"/></g><g class="points"/><g class="text"/></g><g class="trace scatter traceaf52c5" style="stroke-miterlimit: 2; opacity: 1;"><g class="fills"/><g class="errorbars"/><g class="lines"><path class="js-line" d="M1,0L17.37,0.73L17.82,0.78L33.29,2.86L33.74,2.94L49.2,6.36L49.66,6.48L66.48,11.73L66.94,11.89L83.31,18.5L83.76,18.7L96.95,25.52L97.4,25.84L103.77,31.09L104.22,31.52L111.95,40.09L112.41,40.67L121.05,53.01L121.5,53.74L129.69,68.05L130.14,68.92L144.69,100.26L145.15,101.35L226.54,276.79L227,276.79L250.19,258.67L250.65,257.94L273.38,200.34L273.84,198.72L301.57,108.56L302.03,107.28L312.03,80.82L312.49,79.71L321.58,59.12L322.04,58.17L330.68,41.88L331.13,41.11L339.32,28.73L339.77,28.13L347.96,18.83L348.41,18.4L355.23,13.04L355.69,12.76L362.05,9.77L362.51,9.63L372.51,7.49L372.97,7.41L393.88,3.99L394.34,3.93L418.89,1.41L419.35,1.37L444.36,0.45L444.81,0.45L567.14,0.45L567.59,0.44L910,0" style="vector-effect: none; fill: none; stroke: rgb(10, 136, 186); stroke-opacity: 1; stroke-width: 2px; opacity: 1;"/></g><g class="points"/><g class="text"/></g><g class="trace scatter tracea44e90" style="stroke-miterlimit: 2; opacity: 1;"><g class="fills"/><g class="errorbars"/><g class="lines"><path class="js-line" d="M1,0L28.74,0.75L29.19,0.78L51.47,2.49L51.93,2.54L74.67,5.3L75.12,5.36L96.95,9.4L97.4,9.57L103.77,12.64L104.22,12.92L111.04,17.9L111.5,18.29L119.68,26.53L120.14,27.05L128.78,38.35L129.23,39.01L137.87,52.9L138.33,53.7L149.24,74.78L149.7,75.73L222.91,221.78L223.36,221.92L244.73,214.91L245.19,214.48L265.65,181.29L266.11,180.23L289.75,116.12L290.21,114.95L302.03,86.46L302.48,85.44L314.76,60.19L315.22,59.34L324.77,43.05L325.22,42.35L334.77,29.16L335.22,28.61L344.32,19.05L344.77,18.65L352.5,12.89L352.96,12.61L360.23,9.21L360.69,9.06L368.87,7.29L369.33,7.21L394.34,3.52L394.79,3.46L424.81,0.92L425.26,0.89L453.91,0.39L454.36,0.39L509.84,0.85L510.29,0.85L590.78,0.1L591.24,0.09L910,0" style="vector-effect: none; fill: none; stroke: rgb(126, 174, 121); stroke-opacity: 1; stroke-width: 2px; opacity: 1;"/></g><g class="points"/><g class="text"/></g><g class="trace scatter traceccc148" style="stroke-miterlimit: 2; opacity: 1;"><g class="fills"/><g class="errorbars"/><g class="lines"><path class="js-line" d="M1,0L33.74,0.74L34.2,0.76L66.03,2.91L66.48,2.95L94.67,6.11L95.13,6.2L103.77,8.88L104.22,9.07L112.41,13.38L112.86,13.67L121.05,19.69L121.5,20.07L129.69,27.77L130.14,28.24L139.24,38.72L139.69,39.29L149.7,53.08L150.15,53.76L160.15,69.8L160.61,70.58L213.36,155.22L213.81,155.51L233.37,159.52L233.82,159.41L251.1,148.65L251.55,148.18L267.47,125.71L267.92,124.89L282.48,95.49L282.93,94.6L297.48,67.99L297.94,67.23L308.85,50.19L309.31,49.53L319.76,35.74L320.22,35.2L329.77,24.87L330.22,24.44L339.32,16.69L339.77,16.35L348.87,10.69L349.32,10.46L357.51,7.16L357.96,7.03L366.15,5.44L366.6,5.38L394.79,2.44L395.25,2.4L436.63,0.31L437.08,0.3L469.37,0.34L469.82,0.34L910,0" style="vector-effect: none; fill: none; stroke: rgb(242, 211, 56); stroke-opacity: 1; stroke-width: 2px; opacity: 1;"/></g><g class="points"/><g class="text"/></g><g class="trace scatter traced2d76f" style="stroke-miterlimit: 2; opacity: 1;"><g class="fills"/><g class="errorbars"/><g class="lines"><path class="js-line" d="M1,0L46.02,0.75L46.47,0.76L97.4,3.62L97.86,3.69L106.95,5.6L107.41,5.73L118.77,9.77L119.23,9.97L130.6,15.83L131.05,16.1L141.51,23.05L141.97,23.38L155.15,34.23L155.61,34.64L170.16,49.18L170.61,49.68L182.44,63.37L182.89,63.92L191.99,73.88L192.44,74.32L200.63,81.2L201.08,81.53L209.27,86.49L209.72,86.72L218.36,89.93L218.81,90.05L227.91,91.22L228.36,91.22L236.55,90.35L237,90.25L244.28,87.92L244.73,87.73L252.01,83.92L252.46,83.64L260.19,77.94L260.65,77.55L269.29,69.13L269.74,68.63L297.48,38.09L297.94,37.66L309.76,27.34L310.21,26.98L322.95,17.91L323.4,17.62L336.13,10.74L336.59,10.53L347.96,6.28L348.41,6.14L359.78,3.7L360.23,3.64L374.33,2.54L374.79,2.51L413.44,0.67L413.89,0.66L443.9,0.09L444.36,0.09L910,0" style="vector-effect: none; fill: none; stroke: rgb(242, 177, 56); stroke-opacity: 1; stroke-width: 2px; opacity: 1;"/></g><g class="points"/><g class="text"/></g><g class="trace scatter trace62b1dc" style="stroke-miterlimit: 2; opacity: 1;"><g class="fills"/><g class="errorbars"/><g class="lines"><path class="js-line" d="M1,0L95.58,0.75L96.04,0.76L116.05,1.94L116.5,1.98L137.42,4.55L137.87,4.62L159.25,8.63L159.7,8.73L183.8,14.85L184.26,14.97L197.9,18.13L198.35,18.21L212.45,20.21L212.9,20.25L226.54,20.99L227,20.99L240.64,20.56L241.1,20.53L258.83,18.22L259.29,18.13L277.02,13.84L277.47,13.72L304.76,7.35L305.21,7.26L327.49,3.64L327.95,3.58L348.87,1.54L349.32,1.51L372.97,0.71L373.42,0.7L910,0" style="vector-effect: none; fill: none; stroke: rgb(242, 143, 56); stroke-opacity: 1; stroke-width: 2px; opacity: 1;"/></g><g class="points"/><g class="text"/></g><g class="trace scatter trace7be960" style="stroke-miterlimit: 2; opacity: 1;"><g class="fills"/><g class="errorbars"/><g class="lines"><path class="js-line" d="M1,0L910,0" style="vector-effect: none; fill: none; stroke: rgb(229, 86, 43); stroke-opacity: 1; stroke-width: 2px; opacity: 1;"/></g><g class="points"/><g class="text"/></g><g class="trace scatter trace2c453f" style="stroke-miterlimit: 2; opacity: 1;"><g class="fills"/><g class="errorbars"/><g class="lines"><path class="js-line" d="M1,0L910,0" style="vector-effect: none; fill: none; stroke: rgb(217, 30, 30); stroke-opacity: 1; stroke-width: 2px; opacity: 1;"/></g><g class="points"/><g class="text"/></g></g></g></g><path class="xlines-above crisp" d="M0,0" style="fill: none;"/><path class="ylines-above crisp" d="M0,0" style="fill: none;"/><g class="overlines-above"/><g class="xaxislayer-above"/><g class="yaxislayer-above"><g class="ytick"><text text-anchor="end" x="70" y="7" transform="translate(0,101)" style="font-family: 'Open Sans', verdana, arial, sans-serif; font-size: 20px; fill: rgb(42, 63, 95); fill-opacity: 1; white-space: pre; opacity: 1;">5.4</text></g><g class="ytick"><text text-anchor="end" x="70" y="7" style="font-family: 'Open Sans', verdana, arial, sans-serif; font-size: 20px; fill: rgb(42, 63, 95); fill-opacity: 1; white-space: pre; opacity: 1;" transform="translate(0,71.67)">5.6</text></g><g class="ytick"><text text-anchor="end" x="70" y="7" style="font-family: 'Open Sans', verdana, arial, sans-serif; font-size: 20px; fill: rgb(42, 63, 95); fill-opacity: 1; white-space: pre; opacity: 1;" transform="translate(0,42.33)">5.8</text></g><g class="ytick"><text text-anchor="end" x="70" y="7" style="font-family: 'Open Sans', verdana, arial, sans-serif; font-size: 20px; fill: rgb(42, 63, 95); fill-opacity: 1; white-space: pre; opacity: 1;" transform="translate(0,13)">6</text></g></g><g class="overaxes-above"/></g><g class="subplot x2y2"><g class="layer-subplot"><g class="shapelayer"/><g class="imagelayer"/></g><g class="minor-gridlayer"><g class="x2"/><g class="y2"/></g><g class="gridlayer"><g class="x2"><path class="x2grid crisp" transform="translate(253.8,0)" d="M0,134v87.99999999999999" style="stroke: rgb(200, 200, 200); stroke-opacity: 1; stroke-width: 1px;"/><path class="x2grid crisp" transform="translate(435.6,0)" d="M0,134v87.99999999999999" style="stroke: rgb(200, 200, 200); stroke-opacity: 1; stroke-width: 1px;"/><path class="x2grid crisp" transform="translate(617.4,0)" d="M0,134v87.99999999999999" style="stroke: rgb(200, 200, 200); stroke-opacity: 1; stroke-width: 1px;"/><path class="x2grid crisp" transform="translate(799.2,0)" d="M0,134v87.99999999999999" style="stroke: rgb(200, 200, 200); stroke-opacity: 1; stroke-width: 1px;"/></g><g class="y2"><path class="y2grid crisp" transform="translate(0,207.32999999999998)" d="M71,0h911" style="stroke: rgb(200, 200, 200); stroke-opacity: 1; stroke-width: 1px;"/><path class="y2grid crisp" transform="translate(0,148.67)" d="M71,0h911" style="stroke: rgb(200, 200, 200); stroke-opacity: 1; stroke-width: 1px;"/></g></g><g class="zerolinelayer"><path class="x2zl zl crisp" transform="translate(72,0)" d="M0,134v87.99999999999999" style="stroke: rgb(200, 200, 200); stroke-opacity: 1; stroke-width: 2px;"/><path class="y2zl zl crisp" transform="translate(0,178)" d="M71,0h911" style="stroke: rgb(200, 200, 200); stroke-opacity: 1; stroke-width: 2px;"/></g><g class="layer-between"><g class="shapelayer"/><g class="imagelayer"/></g><path class="xlines-below"/><path class="ylines-below"/><g class="overlines-below"/><g class="xaxislayer-below"/><g class="yaxislayer-below"/><g class="overaxes-below"/><g class="overplot"><g class="x2y2" transform="translate(71,134)" clip-path="url(#clip3d7ce0x2y2plot)"><g class="scatterlayer mlayer"><g class="trace scatter trace3ead4d" style="stroke-miterlimit: 2; opacity: 1;"><g class="fills"/><g class="errorbars"/><g class="lines"><path class="js-line" d="M1,44L910,44" style="vector-effect: none; fill: none; stroke: rgb(12, 51, 131); stroke-opacity: 1; stroke-width: 2px; opacity: 1;"/></g><g class="points"/><g class="text"/></g><g class="trace scatter trace15ee33" style="stroke-miterlimit: 2; opacity: 1;"><g class="fills"/><g class="errorbars"/><g class="lines"><path class="js-line" d="M1,44L910,44" style="vector-effect: none; fill: none; stroke: rgb(11, 94, 158); stroke-opacity: 1; stroke-width: 2px; opacity: 1;"/></g><g class="points"/><g class="text"/></g><g class="trace scatter trace8bd2e1" style="stroke-miterlimit: 2; opacity: 1;"><g class="fills"/><g class="errorbars"/><g class="lines"><path class="js-line" d="M1,44.13L55.11,43.38L55.57,43.37L93.76,42.64L94.22,42.6L142.87,36.52L143.33,36.44L162.88,32.66L163.34,32.56L184.26,27.54L184.71,27.64L198.35,31.7L198.81,31.86L213.81,37.96L214.27,38.16L257.01,56.78L257.47,56.94L271.11,60.72L271.56,60.81L274.75,60.86L275.2,60.7L294.75,55.05L295.21,54.95L312.94,51.36L313.4,51.28L337.5,47.73L337.95,47.68L367.51,44.56L367.96,44.56L420.71,44.16L421.17,44.16L465.28,43.92L465.73,43.93L613.97,44.68L614.43,44.69L676.27,44.13L676.72,44.12L748.57,43.3L749.03,43.31L910,44.02" style="vector-effect: none; fill: none; stroke: rgb(10, 136, 186); stroke-opacity: 1; stroke-width: 2px; opacity: 1;"/></g><g class="points"/><g class="text"/></g><g class="trace scatter trace389f2a" style="stroke-miterlimit: 2; opacity: 1;"><g class="fills"/><g class="errorbars"/><g class="lines"><path class="js-line" d="M1,44.11L92.4,43.38L92.85,43.34L157.43,35.91L157.88,35.83L177.89,32.04L178.34,31.93L184.71,31.26L185.16,31.35L201.08,35.2L201.53,35.33L222.45,42.01L222.91,42.17L253.83,52.38L254.28,52.51L272.47,56.9L272.93,56.99L275.2,56.77L275.66,56.66L300.67,51.85L301.12,51.77L331.13,47.85L331.59,47.8L367.96,44.51L368.42,44.5L629.89,44.67L630.34,44.68L684,43.97L684.46,43.96L744.02,43.38L744.48,43.38L910,44.01" style="vector-effect: none; fill: none; stroke: rgb(126, 174, 121); stroke-opacity: 1; stroke-width: 2px; opacity: 1;"/></g><g class="points"/><g class="text"/></g><g class="trace scatter traceaaa17d" style="stroke-miterlimit: 2; opacity: 1;"><g class="fills"/><g class="errorbars"/><g class="lines"><path class="js-line" d="M1,44.08L95.58,43.33L96.04,43.29L156.52,38.52L156.97,38.47L186.07,35.95L186.53,36.02L214.27,41.07L214.72,41.17L273.84,52.51L274.29,52.47L310.21,48.51L310.67,48.47L364.78,44.39L365.24,44.38L700.37,43.78L700.83,43.77L910,44.01" style="vector-effect: none; fill: none; stroke: rgb(242, 211, 56); stroke-opacity: 1; stroke-width: 2px; opacity: 1;"/></g><g class="points"/><g class="text"/></g><g class="trace scatter traceb7d0de" style="stroke-miterlimit: 2; opacity: 1;"><g class="fills"/><g class="errorbars"/><g class="lines"><path class="js-line" d="M1,44.05L101.95,43.3L102.4,43.28L188.35,39.72L188.8,39.77L226.09,43.76L226.54,43.81L276.56,48.63L277.02,48.6L331.59,45.71L332.04,45.69L365.69,44.24L366.15,44.24L910,44.01" style="vector-effect: none; fill: none; stroke: rgb(242, 177, 56); stroke-opacity: 1; stroke-width: 2px; opacity: 1;"/></g><g class="points"/><g class="text"/></g><g class="trace scatter trace805699" style="stroke-miterlimit: 2; opacity: 1;"><g class="fills"/><g class="errorbars"/><g class="lines"><path class="js-line" d="M1,44.02L126.96,43.27L127.41,43.26L191.99,42.58L192.44,42.6L236.55,44.33L237,44.35L282.93,45.6L283.39,45.59L384.79,44.08L385.24,44.08L910,44" style="vector-effect: none; fill: none; stroke: rgb(242, 143, 56); stroke-opacity: 1; stroke-width: 2px; opacity: 1;"/></g><g class="points"/><g class="text"/></g><g class="trace scatter tracef54b34" style="stroke-miterlimit: 2; opacity: 1;"><g class="fills"/><g class="errorbars"/><g class="lines"><path class="js-line" d="M1,44L910,44" style="vector-effect: none; fill: none; stroke: rgb(229, 86, 43); stroke-opacity: 1; stroke-width: 2px; opacity: 1;"/></g><g class="points"/><g class="text"/></g><g class="trace scatter trace6f2c6e" style="stroke-miterlimit: 2; opacity: 1;"><g class="fills"/><g class="errorbars"/><g class="lines"><path class="js-line" d="M1,44L910,44" style="vector-effect: none; fill: none; stroke: rgb(217, 30, 30); stroke-opacity: 1; stroke-width: 2px; opacity: 1;"/></g><g class="points"/><g class="text"/></g></g></g></g><path class="xlines-above crisp" d="M0,0" style="fill: none;"/><path class="ylines-above crisp" d="M0,0" style="fill: none;"/><g class="overlines-above"/><g class="xaxislayer-above"/><g class="yaxislayer-above"><g class="y2tick"><text text-anchor="end" x="70" y="7" transform="translate(0,207.32999999999998)" style="font-family: 'Open Sans', verdana, arial, sans-serif; font-size: 20px; fill: rgb(42, 63, 95); fill-opacity: 1; white-space: pre; opacity: 1;">−1</text></g><g class="y2tick"><text text-anchor="end" x="70" y="7" style="font-family: 'Open Sans', verdana, arial, sans-serif; font-size: 20px; fill: rgb(42, 63, 95); fill-opacity: 1; white-space: pre; opacity: 1;" transform="translate(0,178)">0</text></g><g class="y2tick"><text text-anchor="end" x="70" y="7" style="font-family: 'Open Sans', verdana, arial, sans-serif; font-size: 20px; fill: rgb(42, 63, 95); fill-opacity: 1; white-space: pre; opacity: 1;" transform="translate(0,148.67)">1</text></g></g><g class="overaxes-above"/></g><g class="subplot x3y3"><g class="layer-subplot"><g class="shapelayer"/><g class="imagelayer"/></g><g class="minor-gridlayer"><g class="x3"/><g class="y3"/></g><g class="gridlayer"><g class="x3"><path class="x3grid crisp" transform="translate(253.8,0)" d="M0,255.00000000000003v88" style="stroke: rgb(200, 200, 200); stroke-opacity: 1; stroke-width: 1px;"/><path class="x3grid crisp" transform="translate(435.6,0)" d="M0,255.00000000000003v88" style="stroke: rgb(200, 200, 200); stroke-opacity: 1; stroke-width: 1px;"/><path class="x3grid crisp" transform="translate(617.4,0)" d="M0,255.00000000000003v88" style="stroke: rgb(200, 200, 200); stroke-opacity: 1; stroke-width: 1px;"/><path class="x3grid crisp" transform="translate(799.2,0)" d="M0,255.00000000000003v88" style="stroke: rgb(200, 200, 200); stroke-opacity: 1; stroke-width: 1px;"/></g><g class="y3"><path class="y3grid crisp" transform="translate(0,313.67)" d="M71,0h911" style="stroke: rgb(200, 200, 200); stroke-opacity: 1; stroke-width: 1px;"/><path class="y3grid crisp" transform="translate(0,284.33000000000004)" d="M71,0h911" style="stroke: rgb(200, 200, 200); stroke-opacity: 1; stroke-width: 1px;"/></g></g><g class="zerolinelayer"><path class="x3zl zl crisp" transform="translate(72,0)" d="M0,255.00000000000003v88" style="stroke: rgb(200, 200, 200); stroke-opacity: 1; stroke-width: 2px;"/><path class="y3zl zl crisp" transform="translate(0,343)" d="M71,0h911" style="stroke: rgb(200, 200, 200); stroke-opacity: 1; stroke-width: 2px;"/></g><g class="layer-between"><g class="shapelayer"/><g class="imagelayer"/></g><path class="xlines-below"/><path class="ylines-below"/><g class="overlines-below"/><g class="xaxislayer-below"/><g class="yaxislayer-below"/><g class="overaxes-below"/><g class="overplot"><g class="x3y3" transform="translate(71,255.00000000000003)" clip-path="url(#clip3d7ce0x3y3plot)"><g class="scatterlayer mlayer"><g class="trace scatter trace585f6a" style="stroke-miterlimit: 2; opacity: 1;"><g class="fills"/><g class="errorbars"/><g class="lines"><path class="js-line" d="M1,88L910,88" style="vector-effect: none; fill: none; stroke: rgb(12, 51, 131); stroke-opacity: 1; stroke-width: 2px; opacity: 1;"/></g><g class="points"/><g class="text"/></g><g class="trace scatter tracea013ed" style="stroke-miterlimit: 2; opacity: 1;"><g class="fills"/><g class="errorbars"/><g class="lines"><path class="js-line" d="M1,88L910,88" style="vector-effect: none; fill: none; stroke: rgb(11, 94, 158); stroke-opacity: 1; stroke-width: 2px; opacity: 1;"/></g><g class="points"/><g class="text"/></g><g class="trace scatter trace4e77f5" style="stroke-miterlimit: 2; opacity: 1;"><g class="fills"/><g class="errorbars"/><g class="lines"><path class="js-line" d="M1,88L111.5,87.25L111.95,87.24L155.61,84.71L156.06,84.67L183.8,80.94L184.26,80.86L210.17,75.51L210.63,75.4L275.66,61.21L276.11,61.14L298.85,58.36L299.3,58.32L318.4,56.97L318.85,56.95L358.42,55.95L358.87,55.95L402.52,55.75L402.98,55.75L653.99,56.43L654.44,56.44L692.19,57.19L692.64,57.2L774.95,58.24L775.4,58.24L910,58.34" style="vector-effect: none; fill: none; stroke: rgb(10, 136, 186); stroke-opacity: 1; stroke-width: 2px; opacity: 1;"/></g><g class="points"/><g class="text"/></g><g class="trace scatter trace049cc0" style="stroke-miterlimit: 2; opacity: 1;"><g class="fills"/><g class="errorbars"/><g class="lines"><path class="js-line" d="M1,88L128.32,87.27L128.78,87.25L154.24,85.95L154.7,85.91L177.43,83.66L177.89,83.61L204.72,79.31L205.17,79.22L235.18,73.24L235.64,73.15L272.47,66.53L272.93,66.47L292.48,64.18L292.93,64.14L323.4,62.23L323.86,62.21L391.16,61.37L391.61,61.37L658.99,62.05L659.45,62.06L704.01,62.81L704.46,62.82L768.58,63.47L769.03,63.47L807.23,63.56L807.69,63.56L910,63.58" style="vector-effect: none; fill: none; stroke: rgb(126, 174, 121); stroke-opacity: 1; stroke-width: 2px; opacity: 1;"/></g><g class="points"/><g class="text"/></g><g class="trace scatter trace7d27c4" style="stroke-miterlimit: 2; opacity: 1;"><g class="fills"/><g class="errorbars"/><g class="lines"><path class="js-line" d="M1,88L136.05,87.25L136.51,87.23L163.79,85.9L164.25,85.86L191.08,83.34L191.53,83.29L250.65,74.86L251.1,74.79L285.66,70.92L286.11,70.88L312.03,69.35L312.49,69.34L347.05,68.55L347.5,68.54L674,69.05L674.45,69.06L744.93,69.81L745.39,69.82L910,70" style="vector-effect: none; fill: none; stroke: rgb(242, 211, 56); stroke-opacity: 1; stroke-width: 2px; opacity: 1;"/></g><g class="points"/><g class="text"/></g><g class="trace scatter tracebda60f" style="stroke-miterlimit: 2; opacity: 1;"><g class="fills"/><g class="errorbars"/><g class="lines"><path class="js-line" d="M1,88L147.42,87.25L147.88,87.24L200.17,84.31L200.63,84.27L289.3,76.94L289.75,76.92L334.32,75.72L334.77,75.71L709.47,76.21L709.92,76.22L910,76.53" style="vector-effect: none; fill: none; stroke: rgb(242, 177, 56); stroke-opacity: 1; stroke-width: 2px; opacity: 1;"/></g><g class="points"/><g class="text"/></g><g class="trace scatter tracea46815" style="stroke-miterlimit: 2; opacity: 1;"><g class="fills"/><g class="errorbars"/><g class="lines"><path class="js-line" d="M1,88L173.34,87.25L173.8,87.24L234.28,85.15L234.73,85.13L291.57,83.35L292.03,83.35L348.41,82.84L348.87,82.84L910,83.23" style="vector-effect: none; fill: none; stroke: rgb(242, 143, 56); stroke-opacity: 1; stroke-width: 2px; opacity: 1;"/></g><g class="points"/><g class="text"/></g><g class="trace scatter trace9eeec2" style="stroke-miterlimit: 2; opacity: 1;"><g class="fills"/><g class="errorbars"/><g class="lines"><path class="js-line" d="M1,88L910,88" style="vector-effect: none; fill: none; stroke: rgb(229, 86, 43); stroke-opacity: 1; stroke-width: 2px; opacity: 1;"/></g><g class="points"/><g class="text"/></g><g class="trace scatter trace55b434" style="stroke-miterlimit: 2; opacity: 1;"><g class="fills"/><g class="errorbars"/><g class="lines"><path class="js-line" d="M1,88L910,88" style="vector-effect: none; fill: none; stroke: rgb(217, 30, 30); stroke-opacity: 1; stroke-width: 2px; opacity: 1;"/></g><g class="points"/><g class="text"/></g></g></g></g><path class="xlines-above crisp" d="M0,0" style="fill: none;"/><path class="ylines-above crisp" d="M0,0" style="fill: none;"/><g class="overlines-above"/><g class="xaxislayer-above"><g class="x3tick"><text text-anchor="middle" x="0" y="364" transform="translate(72,0)" style="font-family: 'Open Sans', verdana, arial, sans-serif; font-size: 20px; fill: rgb(42, 63, 95); fill-opacity: 1; white-space: pre; opacity: 1;">0</text></g><g class="x3tick"><text text-anchor="middle" x="0" y="364" style="font-family: 'Open Sans', verdana, arial, sans-serif; font-size: 20px; fill: rgb(42, 63, 95); fill-opacity: 1; white-space: pre; opacity: 1;" transform="translate(253.8,0)">100</text></g><g class="x3tick"><text text-anchor="middle" x="0" y="364" style="font-family: 'Open Sans', verdana, arial, sans-serif; font-size: 20px; fill: rgb(42, 63, 95); fill-opacity: 1; white-space: pre; opacity: 1;" transform="translate(435.6,0)">200</text></g><g class="x3tick"><text text-anchor="middle" x="0" y="364" style="font-family: 'Open Sans', verdana, arial, sans-serif; font-size: 20px; fill: rgb(42, 63, 95); fill-opacity: 1; white-space: pre; opacity: 1;" transform="translate(617.4,0)">300</text></g><g class="x3tick"><text text-anchor="middle" x="0" y="364" style="font-family: 'Open Sans', verdana, arial, sans-serif; font-size: 20px; fill: rgb(42, 63, 95); fill-opacity: 1; white-space: pre; opacity: 1;" transform="translate(799.2,0)">400</text></g><g class="x3tick"><text text-anchor="middle" x="0" y="364" style="font-family: 'Open Sans', verdana, arial, sans-serif; font-size: 20px; fill: rgb(42, 63, 95); fill-opacity: 1; white-space: pre; opacity: 0;" transform="translate(981,0)">500</text></g></g><g class="yaxislayer-above"><g class="y3tick"><text text-anchor="end" x="70" y="7" transform="translate(0,343)" style="font-family: 'Open Sans', verdana, arial, sans-serif; font-size: 20px; fill: rgb(42, 63, 95); fill-opacity: 1; white-space: pre; opacity: 1;">0</text></g><g class="y3tick"><text text-anchor="end" x="70" y="7" style="font-family: 'Open Sans', verdana, arial, sans-serif; font-size: 20px; fill: rgb(42, 63, 95); fill-opacity: 1; white-space: pre; opacity: 1;" transform="translate(0,313.67)">100</text></g><g class="y3tick"><text text-anchor="end" x="70" y="7" style="font-family: 'Open Sans', verdana, arial, sans-serif; font-size: 20px; fill: rgb(42, 63, 95); fill-opacity: 1; white-space: pre; opacity: 1;" transform="translate(0,284.33000000000004)">200</text></g><g class="y3tick"><text text-anchor="end" x="70" y="7" style="font-family: 'Open Sans', verdana, arial, sans-serif; font-size: 20px; fill: rgb(42, 63, 95); fill-opacity: 1; white-space: pre; opacity: 1;" transform="translate(0,255.00000000000003)">300</text></g></g><g class="overaxes-above"/></g></g><g class="polarlayer"/><g class="smithlayer"/><g class="ternarylayer"/><g class="geolayer"/><g class="funnelarealayer"/><g class="pielayer"/><g class="iciclelayer"/><g class="treemaplayer"/><g class="sunburstlayer"/><g class="glimages"/><defs id="topdefs-3d7ce0"><g class="clips"/></defs><g class="layer-above"><g class="imagelayer"/><g class="shapelayer"><g class="shape-group" data-index="0" clip-path="url(#clip3d7ce0x)"><path data-index="0" fill-rule="evenodd" d="M72,100.99999999999999L72,13" style="opacity: 1; stroke: rgb(0, 0, 0); stroke-opacity: 1; fill: rgb(0, 0, 0); fill-opacity: 0; stroke-dasharray: 9px, 9px; stroke-width: 2px;"/></g><g class="shape-group" data-index="1" clip-path="url(#clip3d7ce0x2)"><path data-index="1" fill-rule="evenodd" d="M72,222L72,134" style="opacity: 1; stroke: rgb(0, 0, 0); stroke-opacity: 1; fill: rgb(0, 0, 0); fill-opacity: 0; stroke-dasharray: 9px, 9px; stroke-width: 2px;"/></g><g class="shape-group" data-index="2" clip-path="url(#clip3d7ce0x3)"><path data-index="2" fill-rule="evenodd" d="M72,343L72,255.00000000000003" style="opacity: 1; stroke: rgb(0, 0, 0); stroke-opacity: 1; fill: rgb(0, 0, 0); fill-opacity: 0; stroke-dasharray: 9px, 9px; stroke-width: 2px;"/></g><g class="shape-group" data-index="3" clip-path="url(#clip3d7ce0x)"><path data-index="3" fill-rule="evenodd" d="M162.9,100.99999999999999L162.9,13" style="opacity: 1; stroke: rgb(0, 0, 0); stroke-opacity: 1; fill: rgb(0, 0, 0); fill-opacity: 0; stroke-dasharray: 9px, 9px; stroke-width: 2px;"/></g><g class="shape-group" data-index="4" clip-path="url(#clip3d7ce0x2)"><path data-index="4" fill-rule="evenodd" d="M162.9,222L162.9,134" style="opacity: 1; stroke: rgb(0, 0, 0); stroke-opacity: 1; fill: rgb(0, 0, 0); fill-opacity: 0; stroke-dasharray: 9px, 9px; stroke-width: 2px;"/></g><g class="shape-group" data-index="5" clip-path="url(#clip3d7ce0x3)"><path data-index="5" fill-rule="evenodd" d="M162.9,343L162.9,255.00000000000003" style="opacity: 1; stroke: rgb(0, 0, 0); stroke-opacity: 1; fill: rgb(0, 0, 0); fill-opacity: 0; stroke-dasharray: 9px, 9px; stroke-width: 2px;"/></g><g class="shape-group" data-index="6" clip-path="url(#clip3d7ce0x)"><path data-index="6" fill-rule="evenodd" d="M253.8,100.99999999999999L253.8,13" style="opacity: 1; stroke: rgb(0, 0, 0); stroke-opacity: 1; fill: rgb(0, 0, 0); fill-opacity: 0; stroke-dasharray: 9px, 9px; stroke-width: 2px;"/></g><g class="shape-group" data-index="7" clip-path="url(#clip3d7ce0x2)"><path data-index="7" fill-rule="evenodd" d="M253.8,222L253.8,134" style="opacity: 1; stroke: rgb(0, 0, 0); stroke-opacity: 1; fill: rgb(0, 0, 0); fill-opacity: 0; stroke-dasharray: 9px, 9px; stroke-width: 2px;"/></g><g class="shape-group" data-index="8" clip-path="url(#clip3d7ce0x3)"><path data-index="8" fill-rule="evenodd" d="M253.8,343L253.8,255.00000000000003" style="opacity: 1; stroke: rgb(0, 0, 0); stroke-opacity: 1; fill: rgb(0, 0, 0); fill-opacity: 0; stroke-dasharray: 9px, 9px; stroke-width: 2px;"/></g><g class="shape-group" data-index="9" clip-path="url(#clip3d7ce0x)"><path data-index="9" fill-rule="evenodd" d="M344.7,100.99999999999999L344.7,13" style="opacity: 1; stroke: rgb(0, 0, 0); stroke-opacity: 1; fill: rgb(0, 0, 0); fill-opacity: 0; stroke-dasharray: 9px, 9px; stroke-width: 2px;"/></g><g class="shape-group" data-index="10" clip-path="url(#clip3d7ce0x2)"><path data-index="10" fill-rule="evenodd" d="M344.7,222L344.7,134" style="opacity: 1; stroke: rgb(0, 0, 0); stroke-opacity: 1; fill: rgb(0, 0, 0); fill-opacity: 0; stroke-dasharray: 9px, 9px; stroke-width: 2px;"/></g><g class="shape-group" data-index="11" clip-path="url(#clip3d7ce0x3)"><path data-index="11" fill-rule="evenodd" d="M344.7,343L344.7,255.00000000000003" style="opacity: 1; stroke: rgb(0, 0, 0); stroke-opacity: 1; fill: rgb(0, 0, 0); fill-opacity: 0; stroke-dasharray: 9px, 9px; stroke-width: 2px;"/></g><g class="shape-group" data-index="12" clip-path="url(#clip3d7ce0x)"><path data-index="12" fill-rule="evenodd" d="M435.6,100.99999999999999L435.6,13" style="opacity: 1; stroke: rgb(0, 0, 0); stroke-opacity: 1; fill: rgb(0, 0, 0); fill-opacity: 0; stroke-dasharray: 9px, 9px; stroke-width: 2px;"/></g><g class="shape-group" data-index="13" clip-path="url(#clip3d7ce0x2)"><path data-index="13" fill-rule="evenodd" d="M435.6,222L435.6,134" style="opacity: 1; stroke: rgb(0, 0, 0); stroke-opacity: 1; fill: rgb(0, 0, 0); fill-opacity: 0; stroke-dasharray: 9px, 9px; stroke-width: 2px;"/></g><g class="shape-group" data-index="14" clip-path="url(#clip3d7ce0x3)"><path data-index="14" fill-rule="evenodd" d="M435.6,343L435.6,255.00000000000003" style="opacity: 1; stroke: rgb(0, 0, 0); stroke-opacity: 1; fill: rgb(0, 0, 0); fill-opacity: 0; stroke-dasharray: 9px, 9px; stroke-width: 2px;"/></g><g class="shape-group" data-index="15" clip-path="url(#clip3d7ce0x)"><path data-index="15" fill-rule="evenodd" d="M526.5,100.99999999999999L526.5,13" style="opacity: 1; stroke: rgb(0, 0, 0); stroke-opacity: 1; fill: rgb(0, 0, 0); fill-opacity: 0; stroke-dasharray: 9px, 9px; stroke-width: 2px;"/></g><g class="shape-group" data-index="16" clip-path="url(#clip3d7ce0x2)"><path data-index="16" fill-rule="evenodd" d="M526.5,222L526.5,134" style="opacity: 1; stroke: rgb(0, 0, 0); stroke-opacity: 1; fill: rgb(0, 0, 0); fill-opacity: 0; stroke-dasharray: 9px, 9px; stroke-width: 2px;"/></g><g class="shape-group" data-index="17" clip-path="url(#clip3d7ce0x3)"><path data-index="17" fill-rule="evenodd" d="M526.5,343L526.5,255.00000000000003" style="opacity: 1; stroke: rgb(0, 0, 0); stroke-opacity: 1; fill: rgb(0, 0, 0); fill-opacity: 0; stroke-dasharray: 9px, 9px; stroke-width: 2px;"/></g><g class="shape-group" data-index="18" clip-path="url(#clip3d7ce0x)"><path data-index="18" fill-rule="evenodd" d="M617.4,100.99999999999999L617.4,13" style="opacity: 1; stroke: rgb(0, 0, 0); stroke-opacity: 1; fill: rgb(0, 0, 0); fill-opacity: 0; stroke-dasharray: 9px, 9px; stroke-width: 2px;"/></g><g class="shape-group" data-index="19" clip-path="url(#clip3d7ce0x2)"><path data-index="19" fill-rule="evenodd" d="M617.4,222L617.4,134" style="opacity: 1; stroke: rgb(0, 0, 0); stroke-opacity: 1; fill: rgb(0, 0, 0); fill-opacity: 0; stroke-dasharray: 9px, 9px; stroke-width: 2px;"/></g><g class="shape-group" data-index="20" clip-path="url(#clip3d7ce0x3)"><path data-index="20" fill-rule="evenodd" d="M617.4,343L617.4,255.00000000000003" style="opacity: 1; stroke: rgb(0, 0, 0); stroke-opacity: 1; fill: rgb(0, 0, 0); fill-opacity: 0; stroke-dasharray: 9px, 9px; stroke-width: 2px;"/></g><g class="shape-group" data-index="21" clip-path="url(#clip3d7ce0x)"><path data-index="21" fill-rule="evenodd" d="M708.3,100.99999999999999L708.3,13" style="opacity: 1; stroke: rgb(0, 0, 0); stroke-opacity: 1; fill: rgb(0, 0, 0); fill-opacity: 0; stroke-dasharray: 9px, 9px; stroke-width: 2px;"/></g><g class="shape-group" data-index="22" clip-path="url(#clip3d7ce0x2)"><path data-index="22" fill-rule="evenodd" d="M708.3,222L708.3,134" style="opacity: 1; stroke: rgb(0, 0, 0); stroke-opacity: 1; fill: rgb(0, 0, 0); fill-opacity: 0; stroke-dasharray: 9px, 9px; stroke-width: 2px;"/></g><g class="shape-group" data-index="23" clip-path="url(#clip3d7ce0x3)"><path data-index="23" fill-rule="evenodd" d="M708.3,343L708.3,255.00000000000003" style="opacity: 1; stroke: rgb(0, 0, 0); stroke-opacity: 1; fill: rgb(0, 0, 0); fill-opacity: 0; stroke-dasharray: 9px, 9px; stroke-width: 2px;"/></g><g class="shape-group" data-index="24" clip-path="url(#clip3d7ce0x)"><path data-index="24" fill-rule="evenodd" d="M799.2,100.99999999999999L799.2,13" style="opacity: 1; stroke: rgb(0, 0, 0); stroke-opacity: 1; fill: rgb(0, 0, 0); fill-opacity: 0; stroke-dasharray: 9px, 9px; stroke-width: 2px;"/></g><g class="shape-group" data-index="25" clip-path="url(#clip3d7ce0x2)"><path data-index="25" fill-rule="evenodd" d="M799.2,222L799.2,134" style="opacity: 1; stroke: rgb(0, 0, 0); stroke-opacity: 1; fill: rgb(0, 0, 0); fill-opacity: 0; stroke-dasharray: 9px, 9px; stroke-width: 2px;"/></g><g class="shape-group" data-index="26" clip-path="url(#clip3d7ce0x3)"><path data-index="26" fill-rule="evenodd" d="M799.2,343L799.2,255.00000000000003" style="opacity: 1; stroke: rgb(0, 0, 0); stroke-opacity: 1; fill: rgb(0, 0, 0); fill-opacity: 0; stroke-dasharray: 9px, 9px; stroke-width: 2px;"/></g><g class="shape-group" data-index="27" clip-path="url(#clip3d7ce0x)"><path data-index="27" fill-rule="evenodd" d="M890.1,100.99999999999999L890.1,13" style="opacity: 1; stroke: rgb(0, 0, 0); stroke-opacity: 1; fill: rgb(0, 0, 0); fill-opacity: 0; stroke-dasharray: 9px, 9px; stroke-width: 2px;"/></g><g class="shape-group" data-index="28" clip-path="url(#clip3d7ce0x2)"><path data-index="28" fill-rule="evenodd" d="M890.1,222L890.1,134" style="opacity: 1; stroke: rgb(0, 0, 0); stroke-opacity: 1; fill: rgb(0, 0, 0); fill-opacity: 0; stroke-dasharray: 9px, 9px; stroke-width: 2px;"/></g><g class="shape-group" data-index="29" clip-path="url(#clip3d7ce0x3)"><path data-index="29" fill-rule="evenodd" d="M890.1,343L890.1,255.00000000000003" style="opacity: 1; stroke: rgb(0, 0, 0); stroke-opacity: 1; fill: rgb(0, 0, 0); fill-opacity: 0; stroke-dasharray: 9px, 9px; stroke-width: 2px;"/></g><g class="shape-group" data-index="30" clip-path="url(#clip3d7ce0x)"><path data-index="30" fill-rule="evenodd" d="M981,100.99999999999999L981,13" style="opacity: 1; stroke: rgb(0, 0, 0); stroke-opacity: 1; fill: rgb(0, 0, 0); fill-opacity: 0; stroke-dasharray: 9px, 9px; stroke-width: 2px;"/></g><g class="shape-group" data-index="31" clip-path="url(#clip3d7ce0x2)"><path data-index="31" fill-rule="evenodd" d="M981,222L981,134" style="opacity: 1; stroke: rgb(0, 0, 0); stroke-opacity: 1; fill: rgb(0, 0, 0); fill-opacity: 0; stroke-dasharray: 9px, 9px; stroke-width: 2px;"/></g><g class="shape-group" data-index="32" clip-path="url(#clip3d7ce0x3)"><path data-index="32" fill-rule="evenodd" d="M981,343L981,255.00000000000003" style="opacity: 1; stroke: rgb(0, 0, 0); stroke-opacity: 1; fill: rgb(0, 0, 0); fill-opacity: 0; stroke-dasharray: 9px, 9px; stroke-width: 2px;"/></g></g></g><g class="infolayer"><g class="g-gtitle"/><g class="g-xtitle"/><g class="g-x2title"/><g class="g-x3title" transform="translate(0,-4.300000000000011)"><text class="x3title" x="526.5" y="399.3" text-anchor="middle" style="opacity: 1; font-family: 'Open Sans', verdana, arial, sans-serif; font-size: 24px; fill: rgb(42, 63, 95); fill-opacity: 1; white-space: pre;">Time [s]</text></g><g class="g-ytitle" transform="translate(9.619140625,0)"><text class="ytitle" transform="rotate(-90,14.381250000000001,56.99999999999999)" x="14.381250000000001" y="56.99999999999999" text-anchor="middle" style="opacity: 1; font-family: 'Open Sans', verdana, arial, sans-serif; font-size: 24px; fill: rgb(42, 63, 95); fill-opacity: 1; white-space: pre;">\(v\) [m/s]</text></g><g class="g-y2title" transform="translate(5.994140625,0)"><text class="y2title" transform="rotate(-90,18.00625,178)" x="18.00625" y="178" text-anchor="middle" style="opacity: 1; font-family: 'Open Sans', verdana, arial, sans-serif; font-size: 24px; fill: rgb(42, 63, 95); fill-opacity: 1; white-space: pre;">\(\dot\chi\) [deg/s]</text></g><g class="g-y3title" transform="translate(15.056640625,0)"><text class="y3title" transform="rotate(-90,8.943750000000001,299)" x="8.943750000000001" y="299" text-anchor="middle" style="opacity: 1; font-family: 'Open Sans', verdana, arial, sans-serif; font-size: 24px; fill: rgb(42, 63, 95); fill-opacity: 1; white-space: pre;">XTE [m]</text></g><g class="annotation" data-index="0" style="opacity: 1;"><g class="annotation-text-g" transform="rotate(0,526.5,1.4999999999999982)"><g class="cursor-pointer" transform="translate(500,-10)"><rect class="bg" x="0.5" y="0.5" width="53" height="22" style="stroke-width: 1px; stroke: rgb(0, 0, 0); stroke-opacity: 0; fill: rgb(0, 0, 0); fill-opacity: 0;"/><text class="annotation-text" text-anchor="middle" x="26.96875" y="18" style="font-family: 'Open Sans', verdana, arial, sans-serif; font-size: 16px; fill: rgb(42, 63, 95); fill-opacity: 1; white-space: pre;">Speed</text></g></g></g><g class="annotation" data-index="1" style="opacity: 1;"><g class="annotation-text-g" transform="rotate(0,526.5,122.5)"><g class="cursor-pointer" transform="translate(454,111)"><rect class="bg" x="0.5" y="0.5" width="145" height="22" style="stroke-width: 1px; stroke: rgb(0, 0, 0); stroke-opacity: 0; fill: rgb(0, 0, 0); fill-opacity: 0;"/><text class="annotation-text" text-anchor="middle" x="73" y="18" style="font-family: 'Open Sans', verdana, arial, sans-serif; font-size: 16px; fill: rgb(42, 63, 95); fill-opacity: 1; white-space: pre;">Change in Course</text></g></g></g><g class="annotation" data-index="2" style="opacity: 1;"><g class="annotation-text-g" transform="rotate(0,526.5,243.50000000000003)"><g class="cursor-pointer" transform="translate(456,232)"><rect class="bg" x="0.5" y="0.5" width="141" height="22" style="stroke-width: 1px; stroke: rgb(0, 0, 0); stroke-opacity: 0; fill: rgb(0, 0, 0); fill-opacity: 0;"/><text class="annotation-text" text-anchor="middle" x="71.109375" y="18" style="font-family: 'Open Sans', verdana, arial, sans-serif; font-size: 16px; fill: rgb(42, 63, 95); fill-opacity: 1; white-space: pre;">Cross Track Error</text></g></g></g></g></svg>