<svg class="main-svg" xmlns="http://www.w3.org/2000/svg" xmlns:xlink="http://www.w3.org/1999/xlink" width="1000" height="400" style="" viewBox="0 0 1000 400"><rect x="0" y="0" width="1000" height="400" style="fill: rgb(255, 255, 255); fill-opacity: 1;"/><defs id="defs-5fc38c"><g class="clips"><clipPath id="clip5fc38cxyplot" class="plotclip"><rect width="911" height="87.99999999999999"/></clipPath><clipPath id="clip5fc38cx2y2plot" class="plotclip"><rect width="911" height="87.99999999999999"/></clipPath><clipPath id="clip5fc38cx3y3plot" class="plotclip"><rect width="911" height="88"/></clipPath><clipPath class="axesclip" id="clip5fc38cx"><rect x="71" y="0" width="911" height="400"/></clipPath><clipPath class="axesclip" id="clip5fc38cy"><rect x="0" y="13" width="1000" height="87.99999999999999"/></clipPath><clipPath class="axesclip" id="clip5fc38cxy"><rect x="71" y="13" width="911" height="87.99999999999999"/></clipPath><clipPath class="axesclip" id="clip5fc38cy2"><rect x="0" y="134" width="1000" height="87.99999999999999"/></clipPath><clipPath class="axesclip" id="clip5fc38cxy2"><rect x="71" y="134" width="911" height="87.99999999999999"/></clipPath><clipPath class="axesclip" id="clip5fc38cy3"><rect x="0" y="255.00000000000003" width="1000" height="88"/></clipPath><clipPath class="axesclip" id="clip5fc38cxy3"><rect x="71" y="255.00000000000003" width="911" height="88"/></clipPath><clipPath class="axesclip" id="clip5fc38cx2"><rect x="71" y="0" width="911" height="400"/></clipPath><clipPath class="axesclip" id="clip5fc38cx2y"><rect x="71" y="13" width="911" height="87.99999999999999"/></clipPath><clipPath class="axesclip" id="clip5fc38cx2y2"><rect x="71" y="134" width="911" height="87.99999999999999"/></clipPath><clipPath class="axesclip" id="clip5fc38cx2y3"><rect x="71" y="255.00000000000003" width="911" height="88"/></clipPath><clipPath class="axesclip" id="clip5fc38cx3"><rect x="71" y="0" width="911" height="400"/></clipPath><clipPath class="axesclip" id="clip5fc38cx3y"><rect x="71" y="13" width="911" height="87.99999999999999"/></clipPath><clipPath class="axesclip" id="clip5fc38cx3y2"><rect x="71" y="134" width="911" height="87.99999999999999"/></clipPath><clipPath class="axesclip" id="clip5fc38cx3y3"><rect x="71" y="255.00000000000003" width="911" height="88"/></clipPath></g><g class="gradients"/><g class="patterns"/></defs><g class="bglayer"/><g class="layer-below"><g class="imagelayer"/><g class="shapelayer"/></g><g class="cartesianlayer"><g class="subplot xy"><g class="layer-subplot"><g class="shapelayer"/><g class="imagelayer"/></g><g class="minor-gridlayer"><g class="x"/><g class="y"/></g><g class="gridlayer"><g class="x"><path class="xgrid crisp" transform="translate(253.8,0)" d="M0,13v87.99999999999999" style="stroke: rgb(200, 200, 200); stroke-opacity: 1; stroke-width: 1px;"/><path class="xgrid crisp" transform="translate(435.6,0)" d="M0,13v87.99999999999999" style="stroke: rgb(200, 200, 200); stroke-opacity: 1; stroke-width: 1px;"/><path class="xgrid crisp" transform="translate(617.4,0)" d="M0,13v87.99999999999999" style="stroke: rgb(200, 200, 200); stroke-opacity: 1; stroke-width: 1px;"/><path class="xgrid crisp" transform="translate(799.2,0)" d="M0,13v87.99999999999999" style="stroke: rgb(200, 200, 200); stroke-opacity: 1; stroke-width: 1px;"/></g><g class="y"><path class="ygrid crisp" transform="translate(0,71.67)" d="M71,0h911" style="stroke: rgb(200, 200, 200); stroke-opacity: 1; stroke-width: 1px;"/><path class="ygrid crisp" transform="translate(0,42.33)" d="M71,0h911" style="stroke: rgb(200, 200, 200); stroke-opacity: 1; stroke-width: 1px;"/></g></g><g class="zerolinelayer"><path class="xzl zl crisp" transform="translate(72,0)" d="M0,13v87.99999999999999" style="stroke: rgb(200, 200, 200); stroke-opacity: 1; stroke-width: 2px;"/></g><g class="layer-between"><g class="shapelayer"/><g class="imagelayer"/></g><path class="xlines-below"/><path class="ylines-below"/><g class="overlines-below"/><g class="xaxislayer-below"/><g class="yaxislayer-below"/><g class="overaxes-below"/><g class="overplot"><g class="xy" transform="translate(71,13)" clip-path="url(#clip5fc38cxyplot)"><g class="scatterlayer mlayer"><g class="trace scatter trace8119e4" style="stroke-miterlimit: 2; opacity: 1;"><g class="fills"/><g class="errorbars"/><g class="lines"><path class="js-line" d="M1,0L910,0" style="vector-effect: none; fill: none; stroke: rgb(12, 51, 131); stroke-opacity: 1; stroke-width: 2px; opacity: 1;"/></g><g class="points"/><g class="text"/></g><g class="trace scatter traceb1cefb" style="stroke-miterlimit: 2; opacity: 1;"><g class="fills"/><g class="errorbars"/><g class="lines"><path class="js-line" d="M1,0L910,0" style="vector-effect: none; fill: none; stroke: rgb(11, 94, 158); stroke-opacity: 1; stroke-width: 2px; opacity: 1;"/></g><g class="points"/><g class="text"/></g><g class="trace scatter traced75986" style="stroke-miterlimit: 2; opacity: 1;"><g class="fills"/><g class="errorbars"/><g class="lines"><path class="js-line" d="M1,0L16.92,1.08L17.37,1.13L35.56,3.9L36.01,3.98L57.39,9.32L57.84,9.46L76.03,15.77L76.48,15.95L93.76,23.47L94.22,23.7L103.31,29.17L103.77,29.48L115.14,38.47L115.59,38.87L128.78,51.33L129.23,51.78L150.15,71.37L150.61,71.73L158.79,77.19L159.25,77.43L165.61,79.86L166.07,79.97L171.52,80.33L171.98,80.29L176.98,78.88L177.43,78.67L181.98,75.69L182.44,75.3L189.26,68.25L189.71,67.73L211.54,43.04L211.99,42.64L219.27,37.43L219.72,37.18L225.64,34.84L226.09,34.73L232,34.23L232.46,34.26L237.91,35.38L238.37,35.54L244.73,38.56L245.19,38.83L253.83,45.08L254.28,45.45L271.11,58.3L271.56,58.54L277.02,60.33L277.47,60.38L282.02,60.11L282.48,60.02L288.39,57.68L288.84,57.43L295.21,53.01L295.66,52.64L304.3,44.57L304.76,44.11L334.32,13.76L334.77,13.37L343.86,6.65L344.32,6.37L351.59,2.66L352.05,2.48L358.87,0.52L359.33,0.44L366.6,0L367.06,0L554.4,0.74L554.86,0.83L563.04,3.18L563.5,3.35L573.05,7.93L573.5,8.19L583.51,14.7L583.96,15.03L599.42,27.02L599.88,27.38L613.97,37.74L614.43,38.03L622.61,42.33L623.07,42.51L629.43,44.28L629.89,44.34L635.8,44.27L636.25,44.19L642.17,42.24L642.62,42.03L650.81,37.52L651.26,37.24L667.18,28.15L667.63,27.94L675.36,25.31L675.82,25.2L683.09,24.44L683.55,24.45L690.37,25.35L690.82,25.46L698.55,28.23L699.01,28.44L708.56,33.69L709.01,33.97L724.93,42.86L725.38,43.03L731.29,44.42L731.75,44.45L737.2,44.04L737.66,43.95L744.48,41.6L744.93,41.39L753.12,36.67L753.57,36.37L765.4,27.54L765.85,27.18L788.59,10.24L789.04,9.95L799.5,4.38L799.96,4.18L808.6,1.28L809.05,1.17L817.69,0.02L818.15,0.01L852.25,0L852.7,0L910,0" style="vector-effect: none; fill: none; stroke: rgb(10, 136, 186); stroke-opacity: 1; stroke-width: 2px; opacity: 1;"/></g><g class="points"/><g class="text"/></g><g class="trace scatter trace847f21" style="stroke-miterlimit: 2; opacity: 1;"><g class="fills"/><g class="errorbars"/><g class="lines"><path class="js-line" d="M1,0L100.59,0.75L101.04,0.83L110.59,3.43L111.04,3.6L121.05,8.08L121.5,8.32L132.87,15.08L133.33,15.38L162.88,34.1L163.34,34.32L171.07,37.19L171.52,37.3L177.89,38.15L178.34,38.15L184.26,37.31L184.71,37.19L192.89,33.9L193.35,33.67L216.09,22.96L216.54,22.82L224.27,21.21L224.73,21.17L232,21.2L232.46,21.25L239.73,22.77L240.19,22.91L248.83,26.35L249.28,26.56L272.47,37.43L272.93,37.55L278.84,38.2L279.29,38.19L285.66,37.18L286.11,37.06L294.3,33.82L294.75,33.6L304.76,27.77L305.21,27.48L336.59,7.51L337.04,7.28L347.05,3.04L347.5,2.89L356.6,0.64L357.05,0.57L367.06,0L367.51,0L556.22,0.74L556.68,0.81L566.68,3.08L567.14,3.21L579.41,7.79L579.87,7.99L596.69,16.27L597.15,16.51L613.97,24.65L614.43,24.83L623.07,27.74L623.52,27.85L631.25,29.01L631.71,29.02L638.53,28.45L638.98,28.36L647.62,25.73L648.08,25.56L671.27,17.35L671.72,17.25L680.36,16.07L680.82,16.04L689.91,16.53L690.37,16.6L699.46,18.75L699.92,18.89L716.74,25.28L717.2,25.46L727.2,28.47L727.65,28.56L734.02,28.99L734.48,28.97L741.3,28L741.75,27.89L750.39,25.09L750.85,24.91L765.85,17.79L766.31,17.56L786.77,7.49L787.22,7.3L800.41,2.62L800.87,2.5L811.32,0.46L811.78,0.41L822.24,0L822.69,0L910,0" style="vector-effect: none; fill: none; stroke: rgb(126, 174, 121); stroke-opacity: 1; stroke-width: 2px; opacity: 1;"/></g><g class="points"/><g class="text"/></g><g class="trace scatter trace738439" style="stroke-miterlimit: 2; opacity: 1;"><g class="fills"/><g class="errorbars"/><g class="lines"><path class="js-line" d="M1,0L103.31,0.73L103.77,0.79L116.05,3.16L116.5,3.28L131.51,7.95L131.96,8.11L166.52,19.85L166.98,19.95L176.98,21.19L177.43,21.2L185.62,20.52L186.07,20.44L196.08,17.97L196.53,17.84L217.9,12.52L218.36,12.45L229.27,11.73L229.73,11.74L241.1,12.95L241.55,13.03L254.74,16.34L255.19,16.47L271.56,20.68L272.02,20.75L280.66,21.18L281.11,21.16L290.21,19.83L290.66,19.73L301.12,16.74L301.57,16.59L342.05,2.78L342.5,2.67L353.87,0.65L354.32,0.59L366.6,0L367.06,0L558.95,0.72L559.41,0.77L572.14,2.92L572.59,3.02L588.51,7.22L588.96,7.36L622.16,16.39L622.61,16.46L632.62,17.3L633.07,17.29L641.26,16.57L641.71,16.5L657.63,12.99L658.08,12.89L672.18,10.24L672.63,10.19L683.09,9.56L683.55,9.57L693.55,10.27L694,10.33L706.74,12.72L707.19,12.83L729.93,17.2L730.38,17.23L739.48,16.91L739.93,16.85L750.39,14.96L750.85,14.85L769.03,9.65L769.49,9.51L792.68,3.07L793.14,2.97L806.78,0.69L807.23,0.64L822.69,0L823.15,0L910,0" style="vector-effect: none; fill: none; stroke: rgb(242, 211, 56); stroke-opacity: 1; stroke-width: 2px; opacity: 1;"/></g><g class="points"/><g class="text"/></g><g class="trace scatter trace826496" style="stroke-miterlimit: 2; opacity: 1;"><g class="fills"/><g class="errorbars"/><g class="lines"><path class="js-line" d="M1,0L110.13,0.72L110.59,0.76L135.6,3.71L136.05,3.78L173.8,8.23L174.25,8.25L188.35,7.84L188.8,7.8L228.82,4.61L229.27,4.62L244.28,5.34L244.73,5.38L281.57,8.28L282.02,8.27L299.3,6.81L299.76,6.75L350.69,0.43L351.14,0.4L367.96,0L368.42,0L566.23,0.73L566.68,0.76L598.51,4.24L598.97,4.3L623.52,6.84L623.98,6.86L637.62,7.02L638.07,7L656.72,5.45L657.17,5.4L682.18,3.95L682.64,3.95L700.37,4.69L700.83,4.73L738.11,7.02L738.57,7L757.21,5.44L757.67,5.39L796.77,0.92L797.23,0.88L821.33,0L821.78,0L910,0" style="vector-effect: none; fill: none; stroke: rgb(242, 177, 56); stroke-opacity: 1; stroke-width: 2px; opacity: 1;"/></g><g class="points"/><g class="text"/></g><g class="trace scatter trace8ecba4" style="stroke-miterlimit: 2; opacity: 1;"><g class="fills"/><g class="errorbars"/><g class="lines"><path class="js-line" d="M1,0L156.97,0.75L157.43,0.76L337.95,0.17L338.41,0.16L620.34,0.75L620.79,0.76L803.14,0.06L803.59,0.05L910,0" style="vector-effect: none; fill: none; stroke: rgb(242, 143, 56); stroke-opacity: 1; stroke-width: 2px; opacity: 1;"/></g><g class="points"/><g class="text"/></g><g class="trace scatter tracedced46" style="stroke-miterlimit: 2; opacity: 1;"><g class="fills"/><g class="errorbars"/><g class="lines"><path class="js-line" d="M1,0L910,0" style="vector-effect: none; fill: none; stroke: rgb(229, 86, 43); stroke-opacity: 1; stroke-width: 2px; opacity: 1;"/></g><g class="points"/><g class="text"/></g><g class="trace scatter trace5d6315" style="stroke-miterlimit: 2; opacity: 1;"><g class="fills"/><g class="errorbars"/><g class="lines"><path class="js-line" d="M1,0L910,0" style="vector-effect: none; fill: none; stroke: rgb(217, 30, 30); stroke-opacity: 1; stroke-width: 2px; opacity: 1;"/></g><g class="points"/><g class="text"/></g></g></g></g><path class="xlines-above crisp" d="M0,0" style="fill: none;"/><path class="ylines-above crisp" d="M0,0" style="fill: none;"/><g class="overlines-above"/><g class="xaxislayer-above"/><g class="yaxislayer-above"><g class="ytick"><text text-anchor="end" x="70" y="7" transform="translate(0,101)" style="font-family: 'Open Sans', verdana, arial, sans-serif; font-size: 20px; fill: rgb(42, 63, 95); fill-opacity: 1; white-space: pre; opacity: 1;">5.4</text></g><g class="ytick"><text text-anchor="end" x="70" y="7" style="font-family: 'Open Sans', verdana, arial, sans-serif; font-size: 20px; fill: rgb(42, 63, 95); fill-opacity: 1; white-space: pre; opacity: 1;" transform="translate(0,71.67)">5.6</text></g><g class="ytick"><text text-anchor="end" x="70" y="7" style="font-family: 'Open Sans', verdana, arial, sans-serif; font-size: 20px; fill: rgb(42, 63, 95); fill-opacity: 1; white-space: pre; opacity: 1;" transform="translate(0,42.33)">5.8</text></g><g class="ytick"><text text-anchor="end" x="70" y="7" style="font-family: 'Open Sans', verdana, arial, sans-serif; font-size: 20px; fill: rgb(42, 63, 95); fill-opacity: 1; white-space: pre; opacity: 1;" transform="translate(0,13)">6</text></g></g><g class="overaxes-above"/></g><g class="subplot x2y2"><g class="layer-subplot"><g class="shapelayer"/><g class="imagelayer"/></g><g class="minor-gridlayer"><g class="x2"/><g class="y2"/></g><g class="gridlayer"><g class="x2"><path class="x2grid crisp" transform="translate(253.8,0)" d="M0,134v87.99999999999999" style="stroke: rgb(200, 200, 200); stroke-opacity: 1; stroke-width: 1px;"/><path class="x2grid crisp" transform="translate(435.6,0)" d="M0,134v87.99999999999999" style="stroke: rgb(200, 200, 200); stroke-opacity: 1; stroke-width: 1px;"/><path class="x2grid crisp" transform="translate(617.4,0)" d="M0,134v87.99999999999999" style="stroke: rgb(200, 200, 200); stroke-opacity: 1; stroke-width: 1px;"/><path class="x2grid crisp" transform="translate(799.2,0)" d="M0,134v87.99999999999999" style="stroke: rgb(200, 200, 200); stroke-opacity: 1; stroke-width: 1px;"/></g><g class="y2"><path class="y2grid crisp" transform="translate(0,207.32999999999998)" d="M71,0h911" style="stroke: rgb(200, 200, 200); stroke-opacity: 1; stroke-width: 1px;"/><path class="y2grid crisp" transform="translate(0,148.67)" d="M71,0h911" style="stroke: rgb(200, 200, 200); stroke-opacity: 1; stroke-width: 1px;"/></g></g><g class="zerolinelayer"><path class="x2zl zl crisp" transform="translate(72,0)" d="M0,134v87.99999999999999" style="stroke: rgb(200, 200, 200); stroke-opacity: 1; stroke-width: 2px;"/><path class="y2zl zl crisp" transform="translate(0,178)" d="M71,0h911" style="stroke: rgb(200, 200, 200); stroke-opacity: 1; stroke-width: 2px;"/></g><g class="layer-between"><g class="shapelayer"/><g class="imagelayer"/></g><path class="xlines-below"/><path class="ylines-below"/><g class="overlines-below"/><g class="xaxislayer-below"/><g class="yaxislayer-below"/><g class="overaxes-below"/><g class="overplot"><g class="x2y2" transform="translate(71,134)" clip-path="url(#clip5fc38cx2y2plot)"><g class="scatterlayer mlayer"><g class="trace scatter tracef537fa" style="stroke-miterlimit: 2; opacity: 1;"><g class="fills"/><g class="errorbars"/><g class="lines"><path class="js-line" d="M1,44L910,44" style="vector-effect: none; fill: none; stroke: rgb(12, 51, 131); stroke-opacity: 1; stroke-width: 2px; opacity: 1;"/></g><g class="points"/><g class="text"/></g><g class="trace scatter tracef72b01" style="stroke-miterlimit: 2; opacity: 1;"><g class="fills"/><g class="errorbars"/><g class="lines"><path class="js-line" d="M1,44L910,44" style="vector-effect: none; fill: none; stroke: rgb(11, 94, 158); stroke-opacity: 1; stroke-width: 2px; opacity: 1;"/></g><g class="points"/><g class="text"/></g><g class="trace scatter tracef567ec" style="stroke-miterlimit: 2; opacity: 1;"><g class="fills"/><g class="errorbars"/><g class="lines"><path class="js-line" d="M1,43.95L54.2,43.51L54.66,43.51L94.67,42.42L95.13,42.29L126.96,33.03L127.41,32.89L161.06,21.87L161.52,21.72L182.89,15.73L183.35,15.98L208.36,32.88L208.81,33.16L236.09,49.49L236.55,49.76L264.74,67.51L265.2,67.81L274.29,73.29L274.75,73.16L297.48,65.32L297.94,65.15L337.5,51.83L337.95,51.69L367.06,43.99L367.51,43.99L549.4,44.74L549.86,44.85L596.69,57.05L597.15,57.18L637.62,68.49L638.07,68.24L728.56,19.43L729.02,19.55L767.22,30.5L767.67,30.63L807.69,41.18L808.14,41.29L821.33,43.98L821.78,43.98L910,44" style="vector-effect: none; fill: none; stroke: rgb(10, 136, 186); stroke-opacity: 1; stroke-width: 2px; opacity: 1;"/></g><g class="points"/><g class="text"/></g><g class="trace scatter traceb39add" style="stroke-miterlimit: 2; opacity: 1;"><g class="fills"/><g class="errorbars"/><g class="lines"><path class="js-line" d="M1,44L94.67,43.35L95.13,43.24L138.78,32.78L139.24,32.66L183.35,21.56L183.8,21.8L274.29,66.59L274.75,66.48L318.4,55.05L318.85,54.93L367.06,44.01L367.51,44.01L549.86,44.7L550.31,44.8L598.97,55.08L599.42,55.18L638.07,63.32L638.53,63.12L694.91,38.88L695.37,38.68L729.47,24.61L729.93,24.71L760.85,31.64L761.3,31.75L820.42,43.99L820.87,43.99L910,44" style="vector-effect: none; fill: none; stroke: rgb(126, 174, 121); stroke-opacity: 1; stroke-width: 2px; opacity: 1;"/></g><g class="points"/><g class="text"/></g><g class="trace scatter trace4591fb" style="stroke-miterlimit: 2; opacity: 1;"><g class="fills"/><g class="errorbars"/><g class="lines"><path class="js-line" d="M1,44L96.04,43.26L96.49,43.18L171.98,29.3L172.43,29.21L183.8,27.68L184.26,27.85L250.19,51.96L250.65,52.12L274.75,60.52L275.2,60.43L330.68,50.03L331.13,49.94L368.87,44L369.33,44L550.77,44.7L551.22,44.77L626.25,57.19L626.7,57.27L638.53,58.61L638.98,58.46L729.47,29.19L729.93,29.26L794.5,40.06L794.95,40.14L824.06,43.99L824.51,43.99L910,44" style="vector-effect: none; fill: none; stroke: rgb(242, 211, 56); stroke-opacity: 1; stroke-width: 2px; opacity: 1;"/></g><g class="points"/><g class="text"/></g><g class="trace scatter trace18ca79" style="stroke-miterlimit: 2; opacity: 1;"><g class="fills"/><g class="errorbars"/><g class="lines"><path class="js-line" d="M1,44L98.31,43.27L98.77,43.22L184.71,34.1L185.16,34.2L248.83,48.66L249.28,48.76L274.75,54.23L275.2,54.18L371.15,44L371.6,44L553.49,44.74L553.95,44.78L638.07,53.4L638.53,53.3L701.28,40.12L701.73,40.03L729.93,34.62L730.38,34.67L822.69,44L823.15,44L910,44" style="vector-effect: none; fill: none; stroke: rgb(242, 177, 56); stroke-opacity: 1; stroke-width: 2px; opacity: 1;"/></g><g class="points"/><g class="text"/></g><g class="trace scatter trace97f067" style="stroke-miterlimit: 2; opacity: 1;"><g class="fills"/><g class="errorbars"/><g class="lines"><path class="js-line" d="M1,44L111.5,43.26L111.95,43.24L158.79,41.48L159.25,41.46L190.17,41.13L190.62,41.17L265.2,46.78L265.65,46.82L280.66,47.16L281.11,47.15L370.69,44L371.15,44L567.59,44.75L568.05,44.76L638.07,47.16L638.53,47.12L735.38,41.04L735.84,41.06L818.15,43.97L818.6,43.98L853.16,44L853.61,44L910,44" style="vector-effect: none; fill: none; stroke: rgb(242, 143, 56); stroke-opacity: 1; stroke-width: 2px; opacity: 1;"/></g><g class="points"/><g class="text"/></g><g class="trace scatter trace98f2e6" style="stroke-miterlimit: 2; opacity: 1;"><g class="fills"/><g class="errorbars"/><g class="lines"><path class="js-line" d="M1,44L910,44" style="vector-effect: none; fill: none; stroke: rgb(229, 86, 43); stroke-opacity: 1; stroke-width: 2px; opacity: 1;"/></g><g class="points"/><g class="text"/></g><g class="trace scatter trace96a729" style="stroke-miterlimit: 2; opacity: 1;"><g class="fills"/><g class="errorbars"/><g class="lines"><path class="js-line" d="M1,44L910,44" style="vector-effect: none; fill: none; stroke: rgb(217, 30, 30); stroke-opacity: 1; stroke-width: 2px; opacity: 1;"/></g><g class="points"/><g class="text"/></g></g></g></g><path class="xlines-above crisp" d="M0,0" style="fill: none;"/><path class="ylines-above crisp" d="M0,0" style="fill: none;"/><g class="overlines-above"/><g class="xaxislayer-above"/><g class="yaxislayer-above"><g class="y2tick"><text text-anchor="end" x="70" y="7" transform="translate(0,207.32999999999998)" style="font-family: 'Open Sans', verdana, arial, sans-serif; font-size: 20px; fill: rgb(42, 63, 95); fill-opacity: 1; white-space: pre; opacity: 1;">−1</text></g><g class="y2tick"><text text-anchor="end" x="70" y="7" style="font-family: 'Open Sans', verdana, arial, sans-serif; font-size: 20px; fill: rgb(42, 63, 95); fill-opacity: 1; white-space: pre; opacity: 1;" transform="translate(0,178)">0</text></g><g class="y2tick"><text text-anchor="end" x="70" y="7" style="font-family: 'Open Sans', verdana, arial, sans-serif; font-size: 20px; fill: rgb(42, 63, 95); fill-opacity: 1; white-space: pre; opacity: 1;" transform="translate(0,148.67)">1</text></g></g><g class="overaxes-above"/></g><g class="subplot x3y3"><g class="layer-subplot"><g class="shapelayer"/><g class="imagelayer"/></g><g class="minor-gridlayer"><g class="x3"/><g class="y3"/></g><g class="gridlayer"><g class="x3"><path class="x3grid crisp" transform="translate(253.8,0)" d="M0,255.00000000000003v88" style="stroke: rgb(200, 200, 200); stroke-opacity: 1; stroke-width: 1px;"/><path class="x3grid crisp" transform="translate(435.6,0)" d="M0,255.00000000000003v88" style="stroke: rgb(200, 200, 200); stroke-opacity: 1; stroke-width: 1px;"/><path class="x3grid crisp" transform="translate(617.4,0)" d="M0,255.00000000000003v88" style="stroke: rgb(200, 200, 200); stroke-opacity: 1; stroke-width: 1px;"/><path class="x3grid crisp" transform="translate(799.2,0)" d="M0,255.00000000000003v88" style="stroke: rgb(200, 200, 200); stroke-opacity: 1; stroke-width: 1px;"/></g><g class="y3"><path class="y3grid crisp" transform="translate(0,313.67)" d="M71,0h911" style="stroke: rgb(200, 200, 200); stroke-opacity: 1; stroke-width: 1px;"/><path class="y3grid crisp" transform="translate(0,284.33000000000004)" d="M71,0h911" style="stroke: rgb(200, 200, 200); stroke-opacity: 1; stroke-width: 1px;"/></g></g><g class="zerolinelayer"><path class="x3zl zl crisp" transform="translate(72,0)" d="M0,255.00000000000003v88" style="stroke: rgb(200, 200, 200); stroke-opacity: 1; stroke-width: 2px;"/><path class="y3zl zl crisp" transform="translate(0,343)" d="M71,0h911" style="stroke: rgb(200, 200, 200); stroke-opacity: 1; stroke-width: 2px;"/></g><g class="layer-between"><g class="shapelayer"/><g class="imagelayer"/></g><path class="xlines-below"/><path class="ylines-below"/><g class="overlines-below"/><g class="xaxislayer-below"/><g class="yaxislayer-below"/><g class="overaxes-below"/><g class="overplot"><g class="x3y3" transform="translate(71,255.00000000000003)" clip-path="url(#clip5fc38cx3y3plot)"><g class="scatterlayer mlayer"><g class="trace scatter trace6b7ba9" style="stroke-miterlimit: 2; opacity: 1;"><g class="fills"/><g class="errorbars"/><g class="lines"><path class="js-line" d="M1,88L910,88" style="vector-effect: none; fill: none; stroke: rgb(12, 51, 131); stroke-opacity: 1; stroke-width: 2px; opacity: 1;"/></g><g class="points"/><g class="text"/></g><g class="trace scatter traceac9cbf" style="stroke-miterlimit: 2; opacity: 1;"><g class="fills"/><g class="errorbars"/><g class="lines"><path class="js-line" d="M1,88L910,88" style="vector-effect: none; fill: none; stroke: rgb(11, 94, 158); stroke-opacity: 1; stroke-width: 2px; opacity: 1;"/></g><g class="points"/><g class="text"/></g><g class="trace scatter trace7a7650" style="stroke-miterlimit: 2; opacity: 1;"><g class="fills"/><g class="errorbars"/><g class="lines"><path class="js-line" d="M1,88L110.59,87.26L111.04,87.24L131.96,86.04L132.42,86L155.61,82.74L156.06,82.65L171.07,78.96L171.52,78.83L186.98,73.36L187.44,73.17L204.72,65.1L205.17,64.86L225.64,53.81L226.09,53.55L258.38,36.46L258.83,36.24L276.56,28.93L277.02,28.78L289.75,25.02L290.21,24.91L306.12,21.76L306.58,21.69L323.4,19.82L323.86,19.79L348.87,18.84L349.32,18.84L584.87,19.53L585.32,19.56L607.15,21.7L607.61,21.76L626.25,25.39L626.7,25.5L643.53,30.65L643.98,30.81L662.63,38.49L663.08,38.69L720.83,64.86L721.29,65.02L734.93,69.41L735.38,69.53L753.12,73.41L753.57,73.49L774.95,76.02L775.4,76.05L794.04,76.94L794.5,76.95L837.24,77.15L837.7,77.15L910,77.15" style="vector-effect: none; fill: none; stroke: rgb(10, 136, 186); stroke-opacity: 1; stroke-width: 2px; opacity: 1;"/></g><g class="points"/><g class="text"/></g><g class="trace scatter trace3810cb" style="stroke-miterlimit: 2; opacity: 1;"><g class="fills"/><g class="errorbars"/><g class="lines"><path class="js-line" d="M1,88L131.05,87.25L131.51,87.23L154.7,84.97L155.15,84.91L173.34,81.43L173.8,81.32L189.26,76.8L189.71,76.65L209.27,69.07L209.72,68.88L262.01,46.43L262.47,46.26L280.66,40.58L281.11,40.46L299.76,36.72L300.21,36.65L318.4,34.61L318.85,34.58L338.41,33.63L338.86,33.62L382.97,33.41L383.43,33.41L587.6,34.16L588.05,34.19L606.24,35.71L606.7,35.76L623.98,38.41L624.43,38.5L641.26,42.54L641.71,42.67L658.54,48.19L658.99,48.35L724.47,72.55L724.93,72.68L744.48,77.16L744.93,77.24L764.03,79.82L764.49,79.87L789.04,81.32L789.5,81.34L835.42,81.62L835.88,81.62L910,81.62" style="vector-effect: none; fill: none; stroke: rgb(126, 174, 121); stroke-opacity: 1; stroke-width: 2px; opacity: 1;"/></g><g class="points"/><g class="text"/></g><g class="trace scatter trace8bb8a6" style="stroke-miterlimit: 2; opacity: 1;"><g class="fills"/><g class="errorbars"/><g class="lines"><path class="js-line" d="M1,88L134.69,87.26L135.14,87.23L155.15,85.63L155.61,85.58L174.71,82.72L175.16,82.63L193.35,78.34L193.8,78.21L211.08,72.93L211.54,72.78L267.02,54.86L267.47,54.75L283.84,51.15L284.3,51.07L303.39,48.4L303.85,48.35L323.4,46.92L323.86,46.9L354.32,46.28L354.78,46.28L590.78,47L591.24,47.03L612.61,48.71L613.06,48.76L632.16,51.57L632.62,51.65L654.44,56.73L654.9,56.86L679.91,64.3L680.36,64.44L721.74,76.36L722.2,76.47L743.57,80.49L744.02,80.55L762.21,82.56L762.67,82.6L794.04,83.98L794.5,83.98L834.06,84.11L834.52,84.11L910,84.11" style="vector-effect: none; fill: none; stroke: rgb(242, 211, 56); stroke-opacity: 1; stroke-width: 2px; opacity: 1;"/></g><g class="points"/><g class="text"/></g><g class="trace scatter trace76aae6" style="stroke-miterlimit: 2; opacity: 1;"><g class="fills"/><g class="errorbars"/><g class="lines"><path class="js-line" d="M1,88L141.51,87.26L141.97,87.24L168.79,85.3L169.25,85.25L193.35,81.83L193.8,81.75L220.63,76.34L221.09,76.24L265.65,67.09L266.11,67.01L285.66,64.28L286.11,64.23L310.67,62.3L311.12,62.28L347.96,61.4L348.41,61.4L597.6,62.11L598.06,62.13L625.8,64.11L626.25,64.16L644.44,66.52L644.89,66.59L670.81,71.28L671.27,71.37L725.84,81.57L726.29,81.64L752.66,84.41L753.12,84.44L784.04,85.77L784.5,85.78L828.6,86.01L829.06,86.01L910,86.01" style="vector-effect: none; fill: none; stroke: rgb(242, 177, 56); stroke-opacity: 1; stroke-width: 2px; opacity: 1;"/></g><g class="points"/><g class="text"/></g><g class="trace scatter trace1b4ff6" style="stroke-miterlimit: 2; opacity: 1;"><g class="fills"/><g class="errorbars"/><g class="lines"><path class="js-line" d="M1,88L163.79,87.25L164.25,87.24L195.17,85.81L195.62,85.79L296.12,79.67L296.57,79.66L358.42,79.04L358.87,79.04L619.88,79.77L620.34,79.79L652.62,81.25L653.08,81.27L744.93,86.67L745.39,86.68L810.87,87.43L811.32,87.43L910,87.43" style="vector-effect: none; fill: none; stroke: rgb(242, 143, 56); stroke-opacity: 1; stroke-width: 2px; opacity: 1;"/></g><g class="points"/><g class="text"/></g><g class="trace scatter trace26c334" style="stroke-miterlimit: 2; opacity: 1;"><g class="fills"/><g class="errorbars"/><g class="lines"><path class="js-line" d="M1,88L910,88" style="vector-effect: none; fill: none; stroke: rgb(229, 86, 43); stroke-opacity: 1; stroke-width: 2px; opacity: 1;"/></g><g class="points"/><g class="text"/></g><g class="trace scatter trace37ce5f" style="stroke-miterlimit: 2; opacity: 1;"><g class="fills"/><g class="errorbars"/><g class="lines"><path class="js-line" d="M1,88L910,88" style="vector-effect: none; fill: none; stroke: rgb(217, 30, 30); stroke-opacity: 1; stroke-width: 2px; opacity: 1;"/></g><g class="points"/><g class="text"/></g></g></g></g><path class="xlines-above crisp" d="M0,0" style="fill: none;"/><path class="ylines-above crisp" d="M0,0" style="fill: none;"/><g class="overlines-above"/><g class="xaxislayer-above"><g class="x3tick"><text text-anchor="middle" x="0" y="364" transform="translate(72,0)" style="font-family: 'Open Sans', verdana, arial, sans-serif; font-size: 20px; fill: rgb(42, 63, 95); fill-opacity: 1; white-space: pre; opacity: 1;">0</text></g><g class="x3tick"><text text-anchor="middle" x="0" y="364" style="font-family: 'Open Sans', verdana, arial, sans-serif; font-size: 20px; fill: rgb(42, 63, 95); fill-opacity: 1; white-space: pre; opacity: 1;" transform="translate(253.8,0)">100</text></g><g class="x3tick"><text text-anchor="middle" x="0" y="364" style="font-family: 'Open Sans', verdana, arial, sans-serif; font-size: 20px; fill: rgb(42, 63, 95); fill-opacity: 1; white-space: pre; opacity: 1;" transform="translate(435.6,0)">200</text></g><g class="x3tick"><text text-anchor="middle" x="0" y="364" style="font-family: 'Open Sans', verdana, arial, sans-serif; font-size: 20px; fill: rgb(42, 63, 95); fill-opacity: 1; white-space: pre; opacity: 1;" transform="translate(617.4,0)">300</text></g><g class="x3tick"><text text-anchor="middle" x="0" y="364" style="font-family: 'Open Sans', verdana, arial, sans-serif; font-size: 20px; fill: rgb(42, 63, 95); fill-opacity: 1; white-space: pre; opacity: 1;" transform="translate(799.2,0)">400</text></g><g class="x3tick"><text text-anchor="middle" x="0" y="364" style="font-family: 'Open Sans', verdana, arial, sans-serif; font-size: 20px; fill: rgb(42, 63, 95); fill-opacity: 1; white-space: pre; opacity: 0;" transform="translate(981,0)">500</text></g></g><g class="yaxislayer-above"><g class="y3tick"><text text-anchor="end" x="70" y="7" transform="translate(0,343)" style="font-family: 'Open Sans', verdana, arial, sans-serif; font-size: 20px; fill: rgb(42, 63, 95); fill-opacity: 1; white-space: pre; opacity: 1;">0</text></g><g class="y3tick"><text text-anchor="end" x="70" y="7" style="font-family: 'Open Sans', verdana, arial, sans-serif; font-size: 20px; fill: rgb(42, 63, 95); fill-opacity: 1; white-space: pre; opacity: 1;" transform="translate(0,313.67)">100</text></g><g class="y3tick"><text text-anchor="end" x="70" y="7" style="font-family: 'Open Sans', verdana, arial, sans-serif; font-size: 20px; fill: rgb(42, 63, 95); fill-opacity: 1; white-space: pre; opacity: 1;" transform="translate(0,284.33000000000004)">200</text></g><g class="y3tick"><text text-anchor="end" x="70" y="7" style="font-family: 'Open Sans', verdana, arial, sans-serif; font-size: 20px; fill: rgb(42, 63, 95); fill-opacity: 1; white-space: pre; opacity: 1;" transform="translate(0,255.00000000000003)">300</text></g></g><g class="overaxes-above"/></g></g><g class="polarlayer"/><g class="smithlayer"/><g class="ternarylayer"/><g class="geolayer"/><g class="funnelarealayer"/><g class="pielayer"/><g class="iciclelayer"/><g class="treemaplayer"/><g class="sunburstlayer"/><g class="glimages"/><defs id="topdefs-5fc38c"><g class="clips"/></defs><g class="layer-above"><g class="imagelayer"/><g class="shapelayer"><g class="shape-group" data-index="0" clip-path="url(#clip5fc38cx)"><path data-index="0" fill-rule="evenodd" d="M72,100.99999999999999L72,13" style="opacity: 1; stroke: rgb(0, 0, 0); stroke-opacity: 1; fill: rgb(0, 0, 0); fill-opacity: 0; stroke-dasharray: 9px, 9px; stroke-width: 2px;"/></g><g class="shape-group" data-index="1" clip-path="url(#clip5fc38cx2)"><path data-index="1" fill-rule="evenodd" d="M72,222L72,134" style="opacity: 1; stroke: rgb(0, 0, 0); stroke-opacity: 1; fill: rgb(0, 0, 0); fill-opacity: 0; stroke-dasharray: 9px, 9px; stroke-width: 2px;"/></g><g class="shape-group" data-index="2" clip-path="url(#clip5fc38cx3)"><path data-index="2" fill-rule="evenodd" d="M72,343L72,255.00000000000003" style="opacity: 1; stroke: rgb(0, 0, 0); stroke-opacity: 1; fill: rgb(0, 0, 0); fill-opacity: 0; stroke-dasharray: 9px, 9px; stroke-width: 2px;"/></g><g class="shape-group" data-index="3" clip-path="url(#clip5fc38cx)"><path data-index="3" fill-rule="evenodd" d="M162.9,100.99999999999999L162.9,13" style="opacity: 1; stroke: rgb(0, 0, 0); stroke-opacity: 1; fill: rgb(0, 0, 0); fill-opacity: 0; stroke-dasharray: 9px, 9px; stroke-width: 2px;"/></g><g class="shape-group" data-index="4" clip-path="url(#clip5fc38cx2)"><path data-index="4" fill-rule="evenodd" d="M162.9,222L162.9,134" style="opacity: 1; stroke: rgb(0, 0, 0); stroke-opacity: 1; fill: rgb(0, 0, 0); fill-opacity: 0; stroke-dasharray: 9px, 9px; stroke-width: 2px;"/></g><g class="shape-group" data-index="5" clip-path="url(#clip5fc38cx3)"><path data-index="5" fill-rule="evenodd" d="M162.9,343L162.9,255.00000000000003" style="opacity: 1; stroke: rgb(0, 0, 0); stroke-opacity: 1; fill: rgb(0, 0, 0); fill-opacity: 0; stroke-dasharray: 9px, 9px; stroke-width: 2px;"/></g><g class="shape-group" data-index="6" clip-path="url(#clip5fc38cx)"><path data-index="6" fill-rule="evenodd" d="M253.8,100.99999999999999L253.8,13" style="opacity: 1; stroke: rgb(0, 0, 0); stroke-opacity: 1; fill: rgb(0, 0, 0); fill-opacity: 0; stroke-dasharray: 9px, 9px; stroke-width: 2px;"/></g><g class="shape-group" data-index="7" clip-path="url(#clip5fc38cx2)"><path data-index="7" fill-rule="evenodd" d="M253.8,222L253.8,134" style="opacity: 1; stroke: rgb(0, 0, 0); stroke-opacity: 1; fill: rgb(0, 0, 0); fill-opacity: 0; stroke-dasharray: 9px, 9px; stroke-width: 2px;"/></g><g class="shape-group" data-index="8" clip-path="url(#clip5fc38cx3)"><path data-index="8" fill-rule="evenodd" d="M253.8,343L253.8,255.00000000000003" style="opacity: 1; stroke: rgb(0, 0, 0); stroke-opacity: 1; fill: rgb(0, 0, 0); fill-opacity: 0; stroke-dasharray: 9px, 9px; stroke-width: 2px;"/></g><g class="shape-group" data-index="9" clip-path="url(#clip5fc38cx)"><path data-index="9" fill-rule="evenodd" d="M344.7,100.99999999999999L344.7,13" style="opacity: 1; stroke: rgb(0, 0, 0); stroke-opacity: 1; fill: rgb(0, 0, 0); fill-opacity: 0; stroke-dasharray: 9px, 9px; stroke-width: 2px;"/></g><g class="shape-group" data-index="10" clip-path="url(#clip5fc38cx2)"><path data-index="10" fill-rule="evenodd" d="M344.7,222L344.7,134" style="opacity: 1; stroke: rgb(0, 0, 0); stroke-opacity: 1; fill: rgb(0, 0, 0); fill-opacity: 0; stroke-dasharray: 9px, 9px; stroke-width: 2px;"/></g><g class="shape-group" data-index="11" clip-path="url(#clip5fc38cx3)"><path data-index="11" fill-rule="evenodd" d="M344.7,343L344.7,255.00000000000003" style="opacity: 1; stroke: rgb(0, 0, 0); stroke-opacity: 1; fill: rgb(0, 0, 0); fill-opacity: 0; stroke-dasharray: 9px, 9px; stroke-width: 2px;"/></g><g class="shape-group" data-index="12" clip-path="url(#clip5fc38cx)"><path data-index="12" fill-rule="evenodd" d="M435.6,100.99999999999999L435.6,13" style="opacity: 1; stroke: rgb(0, 0, 0); stroke-opacity: 1; fill: rgb(0, 0, 0); fill-opacity: 0; stroke-dasharray: 9px, 9px; stroke-width: 2px;"/></g><g class="shape-group" data-index="13" clip-path="url(#clip5fc38cx2)"><path data-index="13" fill-rule="evenodd" d="M435.6,222L435.6,134" style="opacity: 1; stroke: rgb(0, 0, 0); stroke-opacity: 1; fill: rgb(0, 0, 0); fill-opacity: 0; stroke-dasharray: 9px, 9px; stroke-width: 2px;"/></g><g class="shape-group" data-index="14" clip-path="url(#clip5fc38cx3)"><path data-index="14" fill-rule="evenodd" d="M435.6,343L435.6,255.00000000000003" style="opacity: 1; stroke: rgb(0, 0, 0); stroke-opacity: 1; fill: rgb(0, 0, 0); fill-opacity: 0; stroke-dasharray: 9px, 9px; stroke-width: 2px;"/></g><g class="shape-group" data-index="15" clip-path="url(#clip5fc38cx)"><path data-index="15" fill-rule="evenodd" d="M526.5,100.99999999999999L526.5,13" style="opacity: 1; stroke: rgb(0, 0, 0); stroke-opacity: 1; fill: rgb(0, 0, 0); fill-opacity: 0; stroke-dasharray: 9px, 9px; stroke-width: 2px;"/></g><g class="shape-group" data-index="16" clip-path="url(#clip5fc38cx2)"><path data-index="16" fill-rule="evenodd" d="M526.5,222L526.5,134" style="opacity: 1; stroke: rgb(0, 0, 0); stroke-opacity: 1; fill: rgb(0, 0, 0); fill-opacity: 0; stroke-dasharray: 9px, 9px; stroke-width: 2px;"/></g><g class="shape-group" data-index="17" clip-path="url(#clip5fc38cx3)"><path data-index="17" fill-rule="evenodd" d="M526.5,343L526.5,255.00000000000003" style="opacity: 1; stroke: rgb(0, 0, 0); stroke-opacity: 1; fill: rgb(0, 0, 0); fill-opacity: 0; stroke-dasharray: 9px, 9px; stroke-width: 2px;"/></g><g class="shape-group" data-index="18" clip-path="url(#clip5fc38cx)"><path data-index="18" fill-rule="evenodd" d="M617.4,100.99999999999999L617.4,13" style="opacity: 1; stroke: rgb(0, 0, 0); stroke-opacity: 1; fill: rgb(0, 0, 0); fill-opacity: 0; stroke-dasharray: 9px, 9px; stroke-width: 2px;"/></g><g class="shape-group" data-index="19" clip-path="url(#clip5fc38cx2)"><path data-index="19" fill-rule="evenodd" d="M617.4,222L617.4,134" style="opacity: 1; stroke: rgb(0, 0, 0); stroke-opacity: 1; fill: rgb(0, 0, 0); fill-opacity: 0; stroke-dasharray: 9px, 9px; stroke-width: 2px;"/></g><g class="shape-group" data-index="20" clip-path="url(#clip5fc38cx3)"><path data-index="20" fill-rule="evenodd" d="M617.4,343L617.4,255.00000000000003" style="opacity: 1; stroke: rgb(0, 0, 0); stroke-opacity: 1; fill: rgb(0, 0, 0); fill-opacity: 0; stroke-dasharray: 9px, 9px; stroke-width: 2px;"/></g><g class="shape-group" data-index="21" clip-path="url(#clip5fc38cx)"><path data-index="21" fill-rule="evenodd" d="M708.3,100.99999999999999L708.3,13" style="opacity: 1; stroke: rgb(0, 0, 0); stroke-opacity: 1; fill: rgb(0, 0, 0); fill-opacity: 0; stroke-dasharray: 9px, 9px; stroke-width: 2px;"/></g><g class="shape-group" data-index="22" clip-path="url(#clip5fc38cx2)"><path data-index="22" fill-rule="evenodd" d="M708.3,222L708.3,134" style="opacity: 1; stroke: rgb(0, 0, 0); stroke-opacity: 1; fill: rgb(0, 0, 0); fill-opacity: 0; stroke-dasharray: 9px, 9px; stroke-width: 2px;"/></g><g class="shape-group" data-index="23" clip-path="url(#clip5fc38cx3)"><path data-index="23" fill-rule="evenodd" d="M708.3,343L708.3,255.00000000000003" style="opacity: 1; stroke: rgb(0, 0, 0); stroke-opacity: 1; fill: rgb(0, 0, 0); fill-opacity: 0; stroke-dasharray: 9px, 9px; stroke-width: 2px;"/></g><g class="shape-group" data-index="24" clip-path="url(#clip5fc38cx)"><path data-index="24" fill-rule="evenodd" d="M799.2,100.99999999999999L799.2,13" style="opacity: 1; stroke: rgb(0, 0, 0); stroke-opacity: 1; fill: rgb(0, 0, 0); fill-opacity: 0; stroke-dasharray: 9px, 9px; stroke-width: 2px;"/></g><g class="shape-group" data-index="25" clip-path="url(#clip5fc38cx2)"><path data-index="25" fill-rule="evenodd" d="M799.2,222L799.2,134" style="opacity: 1; stroke: rgb(0, 0, 0); stroke-opacity: 1; fill: rgb(0, 0, 0); fill-opacity: 0; stroke-dasharray: 9px, 9px; stroke-width: 2px;"/></g><g class="shape-group" data-index="26" clip-path="url(#clip5fc38cx3)"><path data-index="26" fill-rule="evenodd" d="M799.2,343L799.2,255.00000000000003" style="opacity: 1; stroke: rgb(0, 0, 0); stroke-opacity: 1; fill: rgb(0, 0, 0); fill-opacity: 0; stroke-dasharray: 9px, 9px; stroke-width: 2px;"/></g><g class="shape-group" data-index="27" clip-path="url(#clip5fc38cx)"><path data-index="27" fill-rule="evenodd" d="M890.1,100.99999999999999L890.1,13" style="opacity: 1; stroke: rgb(0, 0, 0); stroke-opacity: 1; fill: rgb(0, 0, 0); fill-opacity: 0; stroke-dasharray: 9px, 9px; stroke-width: 2px;"/></g><g class="shape-group" data-index="28" clip-path="url(#clip5fc38cx2)"><path data-index="28" fill-rule="evenodd" d="M890.1,222L890.1,134" style="opacity: 1; stroke: rgb(0, 0, 0); stroke-opacity: 1; fill: rgb(0, 0, 0); fill-opacity: 0; stroke-dasharray: 9px, 9px; stroke-width: 2px;"/></g><g class="shape-group" data-index="29" clip-path="url(#clip5fc38cx3)"><path data-index="29" fill-rule="evenodd" d="M890.1,343L890.1,255.00000000000003" style="opacity: 1; stroke: rgb(0, 0, 0); stroke-opacity: 1; fill: rgb(0, 0, 0); fill-opacity: 0; stroke-dasharray: 9px, 9px; stroke-width: 2px;"/></g><g class="shape-group" data-index="30" clip-path="url(#clip5fc38cx)"><path data-index="30" fill-rule="evenodd" d="M981,100.99999999999999L981,13" style="opacity: 1; stroke: rgb(0, 0, 0); stroke-opacity: 1; fill: rgb(0, 0, 0); fill-opacity: 0; stroke-dasharray: 9px, 9px; stroke-width: 2px;"/></g><g class="shape-group" data-index="31" clip-path="url(#clip5fc38cx2)"><path data-index="31" fill-rule="evenodd" d="M981,222L981,134" style="opacity: 1; stroke: rgb(0, 0, 0); stroke-opacity: 1; fill: rgb(0, 0, 0); fill-opacity: 0; stroke-dasharray: 9px, 9px; stroke-width: 2px;"/></g><g class="shape-group" data-index="32" clip-path="url(#clip5fc38cx3)"><path data-index="32" fill-rule="evenodd" d="M981,343L981,255.00000000000003" style="opacity: 1; stroke: rgb(0, 0, 0); stroke-opacity: 1; fill: rgb(0, 0, 0); fill-opacity: 0; stroke-dasharray: 9px, 9px; stroke-width: 2px;"/></g></g></g><g class="infolayer"><g class="g-gtitle"/><g class="g-xtitle"/><g class="g-x2title"/><g class="g-x3title" transform="translate(0,-4.300000000000011)"><text class="x3title" x="526.5" y="399.3" text-anchor="middle" style="opacity: 1; font-family: 'Open Sans', verdana, arial, sans-serif; font-size: 24px; fill: rgb(42, 63, 95); fill-opacity: 1; white-space: pre;">Time [s]</text></g><g class="g-ytitle" transform="translate(9.619140625,0)"><text class="ytitle" transform="rotate(-90,14.381250000000001,56.99999999999999)" x="14.381250000000001" y="56.99999999999999" text-anchor="middle" style="opacity: 1; font-family: 'Open Sans', verdana, arial, sans-serif; font-size: 24px; fill: rgb(42, 63, 95); fill-opacity: 1; white-space: pre;">\(v\) [m/s]</text></g><g class="g-y2title" transform="translate(5.994140625,0)"><text class="y2title" transform="rotate(-90,18.00625,178)" x="18.00625" y="178" text-anchor="middle" style="opacity: 1; font-family: 'Open Sans', verdana, arial, sans-serif; font-size: 24px; fill: rgb(42, 63, 95); fill-opacity: 1; white-space: pre;">\(\dot\chi\) [deg/s]</text></g><g class="g-y3title" transform="translate(15.056640625,0)"><text class="y3title" transform="rotate(-90,8.943750000000001,299)" x="8.943750000000001" y="299" text-anchor="middle" style="opacity: 1; font-family: 'Open Sans', verdana, arial, sans-serif; font-size: 24px; fill: rgb(42, 63, 95); fill-opacity: 1; white-space: pre;">XTE [m]</text></g><g class="annotation" data-index="0" style="opacity: 1;"><g class="annotation-text-g" transform="rotate(0,526.5,1.4999999999999982)"><g class="cursor-pointer" transform="translate(500,-10)"><rect class="bg" x="0.5" y="0.5" width="53" height="22" style="stroke-width: 1px; stroke: rgb(0, 0, 0); stroke-opacity: 0; fill: rgb(0, 0, 0); fill-opacity: 0;"/><text class="annotation-text" text-anchor="middle" x="26.96875" y="18" style="font-family: 'Open Sans', verdana, arial, sans-serif; font-size: 16px; fill: rgb(42, 63, 95); fill-opacity: 1; white-space: pre;">Speed</text></g></g></g><g class="annotation" data-index="1" style="opacity: 1;"><g class="annotation-text-g" transform="rotate(0,526.5,122.5)"><g class="cursor-pointer" transform="translate(454,111)"><rect class="bg" x="0.5" y="0.5" width="145" height="22" style="stroke-width: 1px; stroke: rgb(0, 0, 0); stroke-opacity: 0; fill: rgb(0, 0, 0); fill-opacity: 0;"/><text class="annotation-text" text-anchor="middle" x="73" y="18" style="font-family: 'Open Sans', verdana, arial, sans-serif; font-size: 16px; fill: rgb(42, 63, 95); fill-opacity: 1; white-space: pre;">Change in Course</text></g></g></g><g class="annotation" data-index="2" style="opacity: 1;"><g class="annotation-text-g" transform="rotate(0,526.5,243.50000000000003)"><g class="cursor-pointer" transform="translate(456,232)"><rect class="bg" x="0.5" y="0.5" width="141" height="22" style="stroke-width: 1px; stroke: rgb(0, 0, 0); stroke-opacity: 0; fill: rgb(0, 0, 0); fill-opacity: 0;"/><text class="annotation-text" text-anchor="middle" x="71.109375" y="18" style="font-family: 'Open Sans', verdana, arial, sans-serif; font-size: 16px; fill: rgb(42, 63, 95); fill-opacity: 1; white-space: pre;">Cross Track Error</text></g></g></g></g></svg>