<svg class="main-svg" xmlns="http://www.w3.org/2000/svg" xmlns:xlink="http://www.w3.org/1999/xlink" width="1000" height="400" style="" viewBox="0 0 1000 400"><rect x="0" y="0" width="1000" height="400" style="fill: rgb(255, 255, 255); fill-opacity: 1;"/><defs id="defs-543cc7"><g class="clips"><clipPath id="clip543cc7xyplot" class="plotclip"><rect width="911" height="87.99999999999999"/></clipPath><clipPath id="clip543cc7x2y2plot" class="plotclip"><rect width="911" height="87.99999999999999"/></clipPath><clipPath id="clip543cc7x3y3plot" class="plotclip"><rect width="911" height="88"/></clipPath><clipPath class="axesclip" id="clip543cc7x"><rect x="71" y="0" width="911" height="400"/></clipPath><clipPath class="axesclip" id="clip543cc7y"><rect x="0" y="13" width="1000" height="87.99999999999999"/></clipPath><clipPath class="axesclip" id="clip543cc7xy"><rect x="71" y="13" width="911" height="87.99999999999999"/></clipPath><clipPath class="axesclip" id="clip543cc7y2"><rect x="0" y="134" width="1000" height="87.99999999999999"/></clipPath><clipPath class="axesclip" id="clip543cc7xy2"><rect x="71" y="134" width="911" height="87.99999999999999"/></clipPath><clipPath class="axesclip" id="clip543cc7y3"><rect x="0" y="255.00000000000003" width="1000" height="88"/></clipPath><clipPath class="axesclip" id="clip543cc7xy3"><rect x="71" y="255.00000000000003" width="911" height="88"/></clipPath><clipPath class="axesclip" id="clip543cc7x2"><rect x="71" y="0" width="911" height="400"/></clipPath><clipPath class="axesclip" id="clip543cc7x2y"><rect x="71" y="13" width="911" height="87.99999999999999"/></clipPath><clipPath class="axesclip" id="clip543cc7x2y2"><rect x="71" y="134" width="911" height="87.99999999999999"/></clipPath><clipPath class="axesclip" id="clip543cc7x2y3"><rect x="71" y="255.00000000000003" width="911" height="88"/></clipPath><clipPath class="axesclip" id="clip543cc7x3"><rect x="71" y="0" width="911" height="400"/></clipPath><clipPath class="axesclip" id="clip543cc7x3y"><rect x="71" y="13" width="911" height="87.99999999999999"/></clipPath><clipPath class="axesclip" id="clip543cc7x3y2"><rect x="71" y="134" width="911" height="87.99999999999999"/></clipPath><clipPath class="axesclip" id="clip543cc7x3y3"><rect x="71" y="255.00000000000003" width="911" height="88"/></clipPath></g><g class="gradients"/><g class="patterns"/></defs><g class="bglayer"/><g class="layer-below"><g class="imagelayer"/><g class="shapelayer"/></g><g class="cartesianlayer"><g class="subplot xy"><g class="layer-subplot"><g class="shapelayer"/><g class="imagelayer"/></g><g class="minor-gridlayer"><g class="x"/><g class="y"/></g><g class="gridlayer"><g class="x"><path class="xgrid crisp" transform="translate(253.8,0)" d="M0,13v87.99999999999999" style="stroke: rgb(200, 200, 200); stroke-opacity: 1; stroke-width: 1px;"/><path class="xgrid crisp" transform="translate(435.6,0)" d="M0,13v87.99999999999999" style="stroke: rgb(200, 200, 200); stroke-opacity: 1; stroke-width: 1px;"/><path class="xgrid crisp" transform="translate(617.4,0)" d="M0,13v87.99999999999999" style="stroke: rgb(200, 200, 200); stroke-opacity: 1; stroke-width: 1px;"/><path class="xgrid crisp" transform="translate(799.2,0)" d="M0,13v87.99999999999999" style="stroke: rgb(200, 200, 200); stroke-opacity: 1; stroke-width: 1px;"/></g><g class="y"><path class="ygrid crisp" transform="translate(0,79)" d="M71,0h911" style="stroke: rgb(200, 200, 200); stroke-opacity: 1; stroke-width: 1px;"/><path class="ygrid crisp" transform="translate(0,57)" d="M71,0h911" style="stroke: rgb(200, 200, 200); stroke-opacity: 1; stroke-width: 1px;"/><path class="ygrid crisp" transform="translate(0,35)" d="M71,0h911" style="stroke: rgb(200, 200, 200); stroke-opacity: 1; stroke-width: 1px;"/></g></g><g class="zerolinelayer"><path class="xzl zl crisp" transform="translate(72,0)" d="M0,13v87.99999999999999" style="stroke: rgb(200, 200, 200); stroke-opacity: 1; stroke-width: 2px;"/></g><g class="layer-between"><g class="shapelayer"/><g class="imagelayer"/></g><path class="xlines-below"/><path class="ylines-below"/><g class="overlines-below"/><g class="xaxislayer-below"/><g class="yaxislayer-below"/><g class="overaxes-below"/><g class="overplot"><g class="xy" transform="translate(71,13)" clip-path="url(#clip543cc7xyplot)"><g class="scatterlayer mlayer"><g class="trace scatter trace0bb811" style="stroke-miterlimit: 2; opacity: 1;"><g class="fills"/><g class="errorbars"/><g class="lines"><path class="js-line" d="M1,0L910,0" style="vector-effect: none; fill: none; stroke: rgb(12, 51, 131); stroke-opacity: 1; stroke-width: 2px; opacity: 1;"/></g><g class="points"/><g class="text"/></g><g class="trace scatter trace96db0f" style="stroke-miterlimit: 2; opacity: 1;"><g class="fills"/><g class="errorbars"/><g class="lines"><path class="js-line" d="M1,0L910,0" style="vector-effect: none; fill: none; stroke: rgb(11, 94, 158); stroke-opacity: 1; stroke-width: 2px; opacity: 1;"/></g><g class="points"/><g class="text"/></g><g class="trace scatter trace5f2519" style="stroke-miterlimit: 2; opacity: 1;"><g class="fills"/><g class="errorbars"/><g class="lines"><path class="js-line" d="M1,0L31.01,0.74L31.47,0.76L71.94,4.13L72.39,4.18L96.04,7.47L96.49,7.56L109.23,11.04L109.68,11.2L121.96,16.34L122.41,16.56L135.6,23.95L136.05,24.24L149.24,33.43L149.7,33.78L166.52,47.8L166.98,48.21L193.8,72.33L194.26,72.64L202.44,77.38L202.9,77.6L211.99,81.02L212.45,81.15L221.54,82.8L222,82.84L230.64,82.88L231.09,82.84L239.73,81.38L240.19,81.26L248.83,78.22L249.28,78.02L257.92,73.27L258.38,72.97L266.56,66.7L267.02,66.3L275.66,57.67L276.11,57.19L292.93,40.3L293.39,39.88L305.67,29.17L306.12,28.8L320.67,18.31L321.13,18.02L333.41,11.21L333.86,11L346.14,6.19L346.59,6.05L357.05,3.59L357.51,3.52L369.33,2.43L369.78,2.41L406.62,0.74L407.07,0.73L437.08,0.17L437.54,0.16L910,0" style="vector-effect: none; fill: none; stroke: rgb(10, 136, 186); stroke-opacity: 1; stroke-width: 2px; opacity: 1;"/></g><g class="points"/><g class="text"/></g><g class="trace scatter trace572426" style="stroke-miterlimit: 2; opacity: 1;"><g class="fills"/><g class="errorbars"/><g class="lines"><path class="js-line" d="M1,0L51.47,0.75L51.93,0.76L91.04,2.37L91.49,2.4L102.86,3.63L103.31,3.71L115.14,6.5L115.59,6.64L126.05,10.35L126.5,10.54L139.24,16.6L139.69,16.84L153.33,25.08L153.79,25.38L171.07,38.15L171.52,38.51L195.17,57.12L195.62,57.39L205.17,62.16L205.63,62.34L214.72,65.21L215.18,65.31L224.73,66.67L225.18,66.7L234.73,66.43L235.18,66.38L243.82,64.72L244.28,64.6L253.83,61.13L254.28,60.93L263.83,55.61L264.29,55.31L273.38,48.37L273.84,47.97L292.48,32.76L292.93,32.42L308.85,21.54L309.31,21.26L322.04,14.22L322.49,14L336.13,8.26L336.59,8.1L347.96,4.81L348.41,4.7L361.14,2.67L361.6,2.63L397.98,0.93L398.43,0.91L463,0.16L463.46,0.16L501.65,0.26L502.11,0.26L910,0" style="vector-effect: none; fill: none; stroke: rgb(126, 174, 121); stroke-opacity: 1; stroke-width: 2px; opacity: 1;"/></g><g class="points"/><g class="text"/></g><g class="trace scatter trace7ed623" style="stroke-miterlimit: 2; opacity: 1;"><g class="fills"/><g class="errorbars"/><g class="lines"><path class="js-line" d="M1,0L61.48,0.75L61.93,0.77L101.04,2.35L101.49,2.4L115.59,4.65L116.05,4.75L128.78,8.05L129.23,8.19L143.78,13.4L144.24,13.59L158.34,20.02L158.79,20.25L174.71,29.02L175.16,29.29L196.53,41.32L196.99,41.52L207.45,45.17L207.9,45.29L217.45,47.26L217.9,47.32L228.82,48.02L229.27,48.02L240.64,47.03L241.1,46.95L252.01,44.31L252.46,44.17L262.92,40.02L263.38,39.8L274.29,33.67L274.75,33.38L294.75,21.8L295.21,21.56L312.49,13.52L312.94,13.34L327.49,8.14L327.95,8L344.77,3.9L345.23,3.81L359.78,1.96L360.23,1.93L386.61,0.95L387.06,0.94L458.46,0.07L458.91,0.08L910,0" style="vector-effect: none; fill: none; stroke: rgb(242, 211, 56); stroke-opacity: 1; stroke-width: 2px; opacity: 1;"/></g><g class="points"/><g class="text"/></g><g class="trace scatter trace0d516e" style="stroke-miterlimit: 2; opacity: 1;"><g class="fills"/><g class="errorbars"/><g class="lines"><path class="js-line" d="M1,0L83.31,0.75L83.76,0.76L111.04,2.05L111.5,2.09L133.33,5.25L133.78,5.33L154.7,10.15L155.15,10.27L172.89,15.66L173.34,15.81L201.08,24.46L201.53,24.56L217,26.87L217.45,26.91L233.37,27.27L233.82,27.25L247.46,25.94L247.92,25.87L261.56,23.03L262.01,22.91L274.75,18.82L275.2,18.66L294.75,12.22L295.21,12.09L311.58,7.77L312.03,7.67L329.77,4.17L330.22,4.1L351.59,1.59L352.05,1.55L375.24,0.74L375.7,0.74L441.18,0.03L441.63,0.03L910,0" style="vector-effect: none; fill: none; stroke: rgb(242, 177, 56); stroke-opacity: 1; stroke-width: 2px; opacity: 1;"/></g><g class="points"/><g class="text"/></g><g class="trace scatter trace862837" style="stroke-miterlimit: 2; opacity: 1;"><g class="fills"/><g class="errorbars"/><g class="lines"><path class="js-line" d="M1,0L121.5,0.74L121.96,0.76L152.88,2.19L153.33,2.22L179.71,4.11L180.16,4.15L209.72,5.98L210.17,5.99L233.82,6.28L234.28,6.27L257.47,5.54L257.92,5.51L282.93,3.69L283.39,3.65L337.04,0.76L337.5,0.75L365.24,0.26L365.69,0.25L910,0" style="vector-effect: none; fill: none; stroke: rgb(242, 143, 56); stroke-opacity: 1; stroke-width: 2px; opacity: 1;"/></g><g class="points"/><g class="text"/></g><g class="trace scatter tracef4560a" style="stroke-miterlimit: 2; opacity: 1;"><g class="fills"/><g class="errorbars"/><g class="lines"><path class="js-line" d="M1,0L910,0" style="vector-effect: none; fill: none; stroke: rgb(229, 86, 43); stroke-opacity: 1; stroke-width: 2px; opacity: 1;"/></g><g class="points"/><g class="text"/></g><g class="trace scatter traceee3a4d" style="stroke-miterlimit: 2; opacity: 1;"><g class="fills"/><g class="errorbars"/><g class="lines"><path class="js-line" d="M1,0L910,0" style="vector-effect: none; fill: none; stroke: rgb(217, 30, 30); stroke-opacity: 1; stroke-width: 2px; opacity: 1;"/></g><g class="points"/><g class="text"/></g></g></g></g><path class="xlines-above crisp" d="M0,0" style="fill: none;"/><path class="ylines-above crisp" d="M0,0" style="fill: none;"/><g class="overlines-above"/><g class="xaxislayer-above"/><g class="yaxislayer-above"><g class="ytick"><text text-anchor="end" x="70" y="7" transform="translate(0,101)" style="font-family: 'Open Sans', verdana, arial, sans-serif; font-size: 20px; fill: rgb(42, 63, 95); fill-opacity: 1; white-space: pre; opacity: 1;">4</text></g><g class="ytick"><text text-anchor="end" x="70" y="7" style="font-family: 'Open Sans', verdana, arial, sans-serif; font-size: 20px; fill: rgb(42, 63, 95); fill-opacity: 1; white-space: pre; opacity: 1;" transform="translate(0,79)">4.5</text></g><g class="ytick"><text text-anchor="end" x="70" y="7" style="font-family: 'Open Sans', verdana, arial, sans-serif; font-size: 20px; fill: rgb(42, 63, 95); fill-opacity: 1; white-space: pre; opacity: 1;" transform="translate(0,57)">5</text></g><g class="ytick"><text text-anchor="end" x="70" y="7" style="font-family: 'Open Sans', verdana, arial, sans-serif; font-size: 20px; fill: rgb(42, 63, 95); fill-opacity: 1; white-space: pre; opacity: 1;" transform="translate(0,35)">5.5</text></g><g class="ytick"><text text-anchor="end" x="70" y="7" style="font-family: 'Open Sans', verdana, arial, sans-serif; font-size: 20px; fill: rgb(42, 63, 95); fill-opacity: 1; white-space: pre; opacity: 1;" transform="translate(0,13)">6</text></g></g><g class="overaxes-above"/></g><g class="subplot x2y2"><g class="layer-subplot"><g class="shapelayer"/><g class="imagelayer"/></g><g class="minor-gridlayer"><g class="x2"/><g class="y2"/></g><g class="gridlayer"><g class="x2"><path class="x2grid crisp" transform="translate(253.8,0)" d="M0,134v87.99999999999999" style="stroke: rgb(200, 200, 200); stroke-opacity: 1; stroke-width: 1px;"/><path class="x2grid crisp" transform="translate(435.6,0)" d="M0,134v87.99999999999999" style="stroke: rgb(200, 200, 200); stroke-opacity: 1; stroke-width: 1px;"/><path class="x2grid crisp" transform="translate(617.4,0)" d="M0,134v87.99999999999999" style="stroke: rgb(200, 200, 200); stroke-opacity: 1; stroke-width: 1px;"/><path class="x2grid crisp" transform="translate(799.2,0)" d="M0,134v87.99999999999999" style="stroke: rgb(200, 200, 200); stroke-opacity: 1; stroke-width: 1px;"/></g><g class="y2"><path class="y2grid crisp" transform="translate(0,207.32999999999998)" d="M71,0h911" style="stroke: rgb(200, 200, 200); stroke-opacity: 1; stroke-width: 1px;"/><path class="y2grid crisp" transform="translate(0,148.67)" d="M71,0h911" style="stroke: rgb(200, 200, 200); stroke-opacity: 1; stroke-width: 1px;"/></g></g><g class="zerolinelayer"><path class="x2zl zl crisp" transform="translate(72,0)" d="M0,134v87.99999999999999" style="stroke: rgb(200, 200, 200); stroke-opacity: 1; stroke-width: 2px;"/><path class="y2zl zl crisp" transform="translate(0,178)" d="M71,0h911" style="stroke: rgb(200, 200, 200); stroke-opacity: 1; stroke-width: 2px;"/></g><g class="layer-between"><g class="shapelayer"/><g class="imagelayer"/></g><path class="xlines-below"/><path class="ylines-below"/><g class="overlines-below"/><g class="xaxislayer-below"/><g class="yaxislayer-below"/><g class="overaxes-below"/><g class="overplot"><g class="x2y2" transform="translate(71,134)" clip-path="url(#clip543cc7x2y2plot)"><g class="scatterlayer mlayer"><g class="trace scatter trace103a7e" style="stroke-miterlimit: 2; opacity: 1;"><g class="fills"/><g class="errorbars"/><g class="lines"><path class="js-line" d="M1,44L910,44" style="vector-effect: none; fill: none; stroke: rgb(12, 51, 131); stroke-opacity: 1; stroke-width: 2px; opacity: 1;"/></g><g class="points"/><g class="text"/></g><g class="trace scatter trace7796ca" style="stroke-miterlimit: 2; opacity: 1;"><g class="fills"/><g class="errorbars"/><g class="lines"><path class="js-line" d="M1,44L910,44" style="vector-effect: none; fill: none; stroke: rgb(11, 94, 158); stroke-opacity: 1; stroke-width: 2px; opacity: 1;"/></g><g class="points"/><g class="text"/></g><g class="trace scatter trace6cb91b" style="stroke-miterlimit: 2; opacity: 1;"><g class="fills"/><g class="errorbars"/><g class="lines"><path class="js-line" d="M1,44.13L55.11,43.38L55.57,43.37L93.76,42.64L94.22,42.6L142.87,36.52L143.33,36.44L162.88,32.66L163.34,32.56L184.26,27.54L184.71,27.64L198.35,31.7L198.81,31.86L213.81,37.96L214.27,38.16L257.01,56.78L257.47,56.94L271.11,60.72L271.56,60.81L274.75,60.86L275.2,60.7L294.75,55.05L295.21,54.95L312.94,51.36L313.4,51.28L337.5,47.73L337.95,47.68L367.51,44.56L367.96,44.56L420.71,44.16L421.17,44.16L465.28,43.92L465.73,43.93L613.97,44.68L614.43,44.69L676.27,44.13L676.72,44.12L748.57,43.3L749.03,43.31L910,44.02" style="vector-effect: none; fill: none; stroke: rgb(10, 136, 186); stroke-opacity: 1; stroke-width: 2px; opacity: 1;"/></g><g class="points"/><g class="text"/></g><g class="trace scatter trace164adf" style="stroke-miterlimit: 2; opacity: 1;"><g class="fills"/><g class="errorbars"/><g class="lines"><path class="js-line" d="M1,44.11L92.4,43.38L92.85,43.34L157.43,35.91L157.88,35.83L177.89,32.04L178.34,31.93L184.71,31.26L185.16,31.35L201.08,35.2L201.53,35.33L222.45,42.01L222.91,42.17L253.83,52.38L254.28,52.51L272.47,56.9L272.93,56.99L275.2,56.77L275.66,56.66L300.67,51.85L301.12,51.77L331.13,47.85L331.59,47.8L367.96,44.51L368.42,44.5L629.89,44.67L630.34,44.68L684,43.97L684.46,43.96L744.02,43.38L744.48,43.38L910,44.01" style="vector-effect: none; fill: none; stroke: rgb(126, 174, 121); stroke-opacity: 1; stroke-width: 2px; opacity: 1;"/></g><g class="points"/><g class="text"/></g><g class="trace scatter tracedbd436" style="stroke-miterlimit: 2; opacity: 1;"><g class="fills"/><g class="errorbars"/><g class="lines"><path class="js-line" d="M1,44.08L95.58,43.33L96.04,43.29L156.52,38.52L156.97,38.47L186.07,35.95L186.53,36.02L214.27,41.07L214.72,41.17L273.84,52.51L274.29,52.47L310.21,48.51L310.67,48.47L364.78,44.39L365.24,44.38L700.37,43.78L700.83,43.77L910,44.01" style="vector-effect: none; fill: none; stroke: rgb(242, 211, 56); stroke-opacity: 1; stroke-width: 2px; opacity: 1;"/></g><g class="points"/><g class="text"/></g><g class="trace scatter tracee2950f" style="stroke-miterlimit: 2; opacity: 1;"><g class="fills"/><g class="errorbars"/><g class="lines"><path class="js-line" d="M1,44.05L101.95,43.3L102.4,43.28L188.35,39.72L188.8,39.77L226.09,43.76L226.54,43.81L276.56,48.63L277.02,48.6L331.59,45.71L332.04,45.69L365.69,44.24L366.15,44.24L910,44.01" style="vector-effect: none; fill: none; stroke: rgb(242, 177, 56); stroke-opacity: 1; stroke-width: 2px; opacity: 1;"/></g><g class="points"/><g class="text"/></g><g class="trace scatter trace6dc312" style="stroke-miterlimit: 2; opacity: 1;"><g class="fills"/><g class="errorbars"/><g class="lines"><path class="js-line" d="M1,44.02L126.96,43.27L127.41,43.26L191.99,42.58L192.44,42.6L236.55,44.33L237,44.35L282.93,45.6L283.39,45.59L384.79,44.08L385.24,44.08L910,44" style="vector-effect: none; fill: none; stroke: rgb(242, 143, 56); stroke-opacity: 1; stroke-width: 2px; opacity: 1;"/></g><g class="points"/><g class="text"/></g><g class="trace scatter trace8864ab" style="stroke-miterlimit: 2; opacity: 1;"><g class="fills"/><g class="errorbars"/><g class="lines"><path class="js-line" d="M1,44L910,44" style="vector-effect: none; fill: none; stroke: rgb(229, 86, 43); stroke-opacity: 1; stroke-width: 2px; opacity: 1;"/></g><g class="points"/><g class="text"/></g><g class="trace scatter tracef2b564" style="stroke-miterlimit: 2; opacity: 1;"><g class="fills"/><g class="errorbars"/><g class="lines"><path class="js-line" d="M1,44L910,44" style="vector-effect: none; fill: none; stroke: rgb(217, 30, 30); stroke-opacity: 1; stroke-width: 2px; opacity: 1;"/></g><g class="points"/><g class="text"/></g></g></g></g><path class="xlines-above crisp" d="M0,0" style="fill: none;"/><path class="ylines-above crisp" d="M0,0" style="fill: none;"/><g class="overlines-above"/><g class="xaxislayer-above"/><g class="yaxislayer-above"><g class="y2tick"><text text-anchor="end" x="70" y="7" transform="translate(0,207.32999999999998)" style="font-family: 'Open Sans', verdana, arial, sans-serif; font-size: 20px; fill: rgb(42, 63, 95); fill-opacity: 1; white-space: pre; opacity: 1;">−1</text></g><g class="y2tick"><text text-anchor="end" x="70" y="7" style="font-family: 'Open Sans', verdana, arial, sans-serif; font-size: 20px; fill: rgb(42, 63, 95); fill-opacity: 1; white-space: pre; opacity: 1;" transform="translate(0,178)">0</text></g><g class="y2tick"><text text-anchor="end" x="70" y="7" style="font-family: 'Open Sans', verdana, arial, sans-serif; font-size: 20px; fill: rgb(42, 63, 95); fill-opacity: 1; white-space: pre; opacity: 1;" transform="translate(0,148.67)">1</text></g></g><g class="overaxes-above"/></g><g class="subplot x3y3"><g class="layer-subplot"><g class="shapelayer"/><g class="imagelayer"/></g><g class="minor-gridlayer"><g class="x3"/><g class="y3"/></g><g class="gridlayer"><g class="x3"><path class="x3grid crisp" transform="translate(253.8,0)" d="M0,255.00000000000003v88" style="stroke: rgb(200, 200, 200); stroke-opacity: 1; stroke-width: 1px;"/><path class="x3grid crisp" transform="translate(435.6,0)" d="M0,255.00000000000003v88" style="stroke: rgb(200, 200, 200); stroke-opacity: 1; stroke-width: 1px;"/><path class="x3grid crisp" transform="translate(617.4,0)" d="M0,255.00000000000003v88" style="stroke: rgb(200, 200, 200); stroke-opacity: 1; stroke-width: 1px;"/><path class="x3grid crisp" transform="translate(799.2,0)" d="M0,255.00000000000003v88" style="stroke: rgb(200, 200, 200); stroke-opacity: 1; stroke-width: 1px;"/></g><g class="y3"><path class="y3grid crisp" transform="translate(0,313.67)" d="M71,0h911" style="stroke: rgb(200, 200, 200); stroke-opacity: 1; stroke-width: 1px;"/><path class="y3grid crisp" transform="translate(0,284.33000000000004)" d="M71,0h911" style="stroke: rgb(200, 200, 200); stroke-opacity: 1; stroke-width: 1px;"/></g></g><g class="zerolinelayer"><path class="x3zl zl crisp" transform="translate(72,0)" d="M0,255.00000000000003v88" style="stroke: rgb(200, 200, 200); stroke-opacity: 1; stroke-width: 2px;"/><path class="y3zl zl crisp" transform="translate(0,343)" d="M71,0h911" style="stroke: rgb(200, 200, 200); stroke-opacity: 1; stroke-width: 2px;"/></g><g class="layer-between"><g class="shapelayer"/><g class="imagelayer"/></g><path class="xlines-below"/><path class="ylines-below"/><g class="overlines-below"/><g class="xaxislayer-below"/><g class="yaxislayer-below"/><g class="overaxes-below"/><g class="overplot"><g class="x3y3" transform="translate(71,255.00000000000003)" clip-path="url(#clip543cc7x3y3plot)"><g class="scatterlayer mlayer"><g class="trace scatter trace944a0d" style="stroke-miterlimit: 2; opacity: 1;"><g class="fills"/><g class="errorbars"/><g class="lines"><path class="js-line" d="M1,88L910,88" style="vector-effect: none; fill: none; stroke: rgb(12, 51, 131); stroke-opacity: 1; stroke-width: 2px; opacity: 1;"/></g><g class="points"/><g class="text"/></g><g class="trace scatter trace44aabc" style="stroke-miterlimit: 2; opacity: 1;"><g class="fills"/><g class="errorbars"/><g class="lines"><path class="js-line" d="M1,88L910,88" style="vector-effect: none; fill: none; stroke: rgb(11, 94, 158); stroke-opacity: 1; stroke-width: 2px; opacity: 1;"/></g><g class="points"/><g class="text"/></g><g class="trace scatter trace5eb041" style="stroke-miterlimit: 2; opacity: 1;"><g class="fills"/><g class="errorbars"/><g class="lines"><path class="js-line" d="M1,88L111.5,87.25L111.95,87.24L155.61,84.71L156.06,84.67L183.8,80.94L184.26,80.86L210.17,75.51L210.63,75.4L275.66,61.21L276.11,61.14L298.85,58.36L299.3,58.32L318.4,56.97L318.85,56.95L358.42,55.95L358.87,55.95L402.52,55.75L402.98,55.75L653.99,56.43L654.44,56.44L692.19,57.19L692.64,57.2L774.95,58.24L775.4,58.24L910,58.34" style="vector-effect: none; fill: none; stroke: rgb(10, 136, 186); stroke-opacity: 1; stroke-width: 2px; opacity: 1;"/></g><g class="points"/><g class="text"/></g><g class="trace scatter tracea169dd" style="stroke-miterlimit: 2; opacity: 1;"><g class="fills"/><g class="errorbars"/><g class="lines"><path class="js-line" d="M1,88L128.32,87.27L128.78,87.25L154.24,85.95L154.7,85.91L177.43,83.66L177.89,83.61L204.72,79.31L205.17,79.22L235.18,73.24L235.64,73.15L272.47,66.53L272.93,66.47L292.48,64.18L292.93,64.14L323.4,62.23L323.86,62.21L391.16,61.37L391.61,61.37L658.99,62.05L659.45,62.06L704.01,62.81L704.46,62.82L768.58,63.47L769.03,63.47L807.23,63.56L807.69,63.56L910,63.58" style="vector-effect: none; fill: none; stroke: rgb(126, 174, 121); stroke-opacity: 1; stroke-width: 2px; opacity: 1;"/></g><g class="points"/><g class="text"/></g><g class="trace scatter trace48415b" style="stroke-miterlimit: 2; opacity: 1;"><g class="fills"/><g class="errorbars"/><g class="lines"><path class="js-line" d="M1,88L136.05,87.25L136.51,87.23L163.79,85.9L164.25,85.86L191.08,83.34L191.53,83.29L250.65,74.86L251.1,74.79L285.66,70.92L286.11,70.88L312.03,69.35L312.49,69.34L347.05,68.55L347.5,68.54L674,69.05L674.45,69.06L744.93,69.81L745.39,69.82L910,70" style="vector-effect: none; fill: none; stroke: rgb(242, 211, 56); stroke-opacity: 1; stroke-width: 2px; opacity: 1;"/></g><g class="points"/><g class="text"/></g><g class="trace scatter trace2a9da7" style="stroke-miterlimit: 2; opacity: 1;"><g class="fills"/><g class="errorbars"/><g class="lines"><path class="js-line" d="M1,88L147.42,87.25L147.88,87.24L200.17,84.31L200.63,84.27L289.3,76.94L289.75,76.92L334.32,75.72L334.77,75.71L709.47,76.21L709.92,76.22L910,76.53" style="vector-effect: none; fill: none; stroke: rgb(242, 177, 56); stroke-opacity: 1; stroke-width: 2px; opacity: 1;"/></g><g class="points"/><g class="text"/></g><g class="trace scatter tracee34b9b" style="stroke-miterlimit: 2; opacity: 1;"><g class="fills"/><g class="errorbars"/><g class="lines"><path class="js-line" d="M1,88L173.34,87.25L173.8,87.24L234.28,85.15L234.73,85.13L291.57,83.35L292.03,83.35L348.41,82.84L348.87,82.84L910,83.23" style="vector-effect: none; fill: none; stroke: rgb(242, 143, 56); stroke-opacity: 1; stroke-width: 2px; opacity: 1;"/></g><g class="points"/><g class="text"/></g><g class="trace scatter trace2fe9a1" style="stroke-miterlimit: 2; opacity: 1;"><g class="fills"/><g class="errorbars"/><g class="lines"><path class="js-line" d="M1,88L910,88" style="vector-effect: none; fill: none; stroke: rgb(229, 86, 43); stroke-opacity: 1; stroke-width: 2px; opacity: 1;"/></g><g class="points"/><g class="text"/></g><g class="trace scatter traced6baf2" style="stroke-miterlimit: 2; opacity: 1;"><g class="fills"/><g class="errorbars"/><g class="lines"><path class="js-line" d="M1,88L910,88" style="vector-effect: none; fill: none; stroke: rgb(217, 30, 30); stroke-opacity: 1; stroke-width: 2px; opacity: 1;"/></g><g class="points"/><g class="text"/></g></g></g></g><path class="xlines-above crisp" d="M0,0" style="fill: none;"/><path class="ylines-above crisp" d="M0,0" style="fill: none;"/><g class="overlines-above"/><g class="xaxislayer-above"><g class="x3tick"><text text-anchor="middle" x="0" y="364" transform="translate(72,0)" style="font-family: 'Open Sans', verdana, arial, sans-serif; font-size: 20px; fill: rgb(42, 63, 95); fill-opacity: 1; white-space: pre; opacity: 1;">0</text></g><g class="x3tick"><text text-anchor="middle" x="0" y="364" style="font-family: 'Open Sans', verdana, arial, sans-serif; font-size: 20px; fill: rgb(42, 63, 95); fill-opacity: 1; white-space: pre; opacity: 1;" transform="translate(253.8,0)">100</text></g><g class="x3tick"><text text-anchor="middle" x="0" y="364" style="font-family: 'Open Sans', verdana, arial, sans-serif; font-size: 20px; fill: rgb(42, 63, 95); fill-opacity: 1; white-space: pre; opacity: 1;" transform="translate(435.6,0)">200</text></g><g class="x3tick"><text text-anchor="middle" x="0" y="364" style="font-family: 'Open Sans', verdana, arial, sans-serif; font-size: 20px; fill: rgb(42, 63, 95); fill-opacity: 1; white-space: pre; opacity: 1;" transform="translate(617.4,0)">300</text></g><g class="x3tick"><text text-anchor="middle" x="0" y="364" style="font-family: 'Open Sans', verdana, arial, sans-serif; font-size: 20px; fill: rgb(42, 63, 95); fill-opacity: 1; white-space: pre; opacity: 1;" transform="translate(799.2,0)">400</text></g><g class="x3tick"><text text-anchor="middle" x="0" y="364" style="font-family: 'Open Sans', verdana, arial, sans-serif; font-size: 20px; fill: rgb(42, 63, 95); fill-opacity: 1; white-space: pre; opacity: 0;" transform="translate(981,0)">500</text></g></g><g class="yaxislayer-above"><g class="y3tick"><text text-anchor="end" x="70" y="7" transform="translate(0,343)" style="font-family: 'Open Sans', verdana, arial, sans-serif; font-size: 20px; fill: rgb(42, 63, 95); fill-opacity: 1; white-space: pre; opacity: 1;">0</text></g><g class="y3tick"><text text-anchor="end" x="70" y="7" style="font-family: 'Open Sans', verdana, arial, sans-serif; font-size: 20px; fill: rgb(42, 63, 95); fill-opacity: 1; white-space: pre; opacity: 1;" transform="translate(0,313.67)">100</text></g><g class="y3tick"><text text-anchor="end" x="70" y="7" style="font-family: 'Open Sans', verdana, arial, sans-serif; font-size: 20px; fill: rgb(42, 63, 95); fill-opacity: 1; white-space: pre; opacity: 1;" transform="translate(0,284.33000000000004)">200</text></g><g class="y3tick"><text text-anchor="end" x="70" y="7" style="font-family: 'Open Sans', verdana, arial, sans-serif; font-size: 20px; fill: rgb(42, 63, 95); fill-opacity: 1; white-space: pre; opacity: 1;" transform="translate(0,255.00000000000003)">300</text></g></g><g class="overaxes-above"/></g></g><g class="polarlayer"/><g class="smithlayer"/><g class="ternarylayer"/><g class="geolayer"/><g class="funnelarealayer"/><g class="pielayer"/><g class="iciclelayer"/><g class="treemaplayer"/><g class="sunburstlayer"/><g class="glimages"/><defs id="topdefs-543cc7"><g class="clips"/></defs><g class="layer-above"><g class="imagelayer"/><g class="shapelayer"><g class="shape-group" data-index="0" clip-path="url(#clip543cc7x)"><path data-index="0" fill-rule="evenodd" d="M72,100.99999999999999L72,13" style="opacity: 1; stroke: rgb(0, 0, 0); stroke-opacity: 1; fill: rgb(0, 0, 0); fill-opacity: 0; stroke-dasharray: 9px, 9px; stroke-width: 2px;"/></g><g class="shape-group" data-index="1" clip-path="url(#clip543cc7x2)"><path data-index="1" fill-rule="evenodd" d="M72,222L72,134" style="opacity: 1; stroke: rgb(0, 0, 0); stroke-opacity: 1; fill: rgb(0, 0, 0); fill-opacity: 0; stroke-dasharray: 9px, 9px; stroke-width: 2px;"/></g><g class="shape-group" data-index="2" clip-path="url(#clip543cc7x3)"><path data-index="2" fill-rule="evenodd" d="M72,343L72,255.00000000000003" style="opacity: 1; stroke: rgb(0, 0, 0); stroke-opacity: 1; fill: rgb(0, 0, 0); fill-opacity: 0; stroke-dasharray: 9px, 9px; stroke-width: 2px;"/></g><g class="shape-group" data-index="3" clip-path="url(#clip543cc7x)"><path data-index="3" fill-rule="evenodd" d="M162.9,100.99999999999999L162.9,13" style="opacity: 1; stroke: rgb(0, 0, 0); stroke-opacity: 1; fill: rgb(0, 0, 0); fill-opacity: 0; stroke-dasharray: 9px, 9px; stroke-width: 2px;"/></g><g class="shape-group" data-index="4" clip-path="url(#clip543cc7x2)"><path data-index="4" fill-rule="evenodd" d="M162.9,222L162.9,134" style="opacity: 1; stroke: rgb(0, 0, 0); stroke-opacity: 1; fill: rgb(0, 0, 0); fill-opacity: 0; stroke-dasharray: 9px, 9px; stroke-width: 2px;"/></g><g class="shape-group" data-index="5" clip-path="url(#clip543cc7x3)"><path data-index="5" fill-rule="evenodd" d="M162.9,343L162.9,255.00000000000003" style="opacity: 1; stroke: rgb(0, 0, 0); stroke-opacity: 1; fill: rgb(0, 0, 0); fill-opacity: 0; stroke-dasharray: 9px, 9px; stroke-width: 2px;"/></g><g class="shape-group" data-index="6" clip-path="url(#clip543cc7x)"><path data-index="6" fill-rule="evenodd" d="M253.8,100.99999999999999L253.8,13" style="opacity: 1; stroke: rgb(0, 0, 0); stroke-opacity: 1; fill: rgb(0, 0, 0); fill-opacity: 0; stroke-dasharray: 9px, 9px; stroke-width: 2px;"/></g><g class="shape-group" data-index="7" clip-path="url(#clip543cc7x2)"><path data-index="7" fill-rule="evenodd" d="M253.8,222L253.8,134" style="opacity: 1; stroke: rgb(0, 0, 0); stroke-opacity: 1; fill: rgb(0, 0, 0); fill-opacity: 0; stroke-dasharray: 9px, 9px; stroke-width: 2px;"/></g><g class="shape-group" data-index="8" clip-path="url(#clip543cc7x3)"><path data-index="8" fill-rule="evenodd" d="M253.8,343L253.8,255.00000000000003" style="opacity: 1; stroke: rgb(0, 0, 0); stroke-opacity: 1; fill: rgb(0, 0, 0); fill-opacity: 0; stroke-dasharray: 9px, 9px; stroke-width: 2px;"/></g><g class="shape-group" data-index="9" clip-path="url(#clip543cc7x)"><path data-index="9" fill-rule="evenodd" d="M344.7,100.99999999999999L344.7,13" style="opacity: 1; stroke: rgb(0, 0, 0); stroke-opacity: 1; fill: rgb(0, 0, 0); fill-opacity: 0; stroke-dasharray: 9px, 9px; stroke-width: 2px;"/></g><g class="shape-group" data-index="10" clip-path="url(#clip543cc7x2)"><path data-index="10" fill-rule="evenodd" d="M344.7,222L344.7,134" style="opacity: 1; stroke: rgb(0, 0, 0); stroke-opacity: 1; fill: rgb(0, 0, 0); fill-opacity: 0; stroke-dasharray: 9px, 9px; stroke-width: 2px;"/></g><g class="shape-group" data-index="11" clip-path="url(#clip543cc7x3)"><path data-index="11" fill-rule="evenodd" d="M344.7,343L344.7,255.00000000000003" style="opacity: 1; stroke: rgb(0, 0, 0); stroke-opacity: 1; fill: rgb(0, 0, 0); fill-opacity: 0; stroke-dasharray: 9px, 9px; stroke-width: 2px;"/></g><g class="shape-group" data-index="12" clip-path="url(#clip543cc7x)"><path data-index="12" fill-rule="evenodd" d="M435.6,100.99999999999999L435.6,13" style="opacity: 1; stroke: rgb(0, 0, 0); stroke-opacity: 1; fill: rgb(0, 0, 0); fill-opacity: 0; stroke-dasharray: 9px, 9px; stroke-width: 2px;"/></g><g class="shape-group" data-index="13" clip-path="url(#clip543cc7x2)"><path data-index="13" fill-rule="evenodd" d="M435.6,222L435.6,134" style="opacity: 1; stroke: rgb(0, 0, 0); stroke-opacity: 1; fill: rgb(0, 0, 0); fill-opacity: 0; stroke-dasharray: 9px, 9px; stroke-width: 2px;"/></g><g class="shape-group" data-index="14" clip-path="url(#clip543cc7x3)"><path data-index="14" fill-rule="evenodd" d="M435.6,343L435.6,255.00000000000003" style="opacity: 1; stroke: rgb(0, 0, 0); stroke-opacity: 1; fill: rgb(0, 0, 0); fill-opacity: 0; stroke-dasharray: 9px, 9px; stroke-width: 2px;"/></g><g class="shape-group" data-index="15" clip-path="url(#clip543cc7x)"><path data-index="15" fill-rule="evenodd" d="M526.5,100.99999999999999L526.5,13" style="opacity: 1; stroke: rgb(0, 0, 0); stroke-opacity: 1; fill: rgb(0, 0, 0); fill-opacity: 0; stroke-dasharray: 9px, 9px; stroke-width: 2px;"/></g><g class="shape-group" data-index="16" clip-path="url(#clip543cc7x2)"><path data-index="16" fill-rule="evenodd" d="M526.5,222L526.5,134" style="opacity: 1; stroke: rgb(0, 0, 0); stroke-opacity: 1; fill: rgb(0, 0, 0); fill-opacity: 0; stroke-dasharray: 9px, 9px; stroke-width: 2px;"/></g><g class="shape-group" data-index="17" clip-path="url(#clip543cc7x3)"><path data-index="17" fill-rule="evenodd" d="M526.5,343L526.5,255.00000000000003" style="opacity: 1; stroke: rgb(0, 0, 0); stroke-opacity: 1; fill: rgb(0, 0, 0); fill-opacity: 0; stroke-dasharray: 9px, 9px; stroke-width: 2px;"/></g><g class="shape-group" data-index="18" clip-path="url(#clip543cc7x)"><path data-index="18" fill-rule="evenodd" d="M617.4,100.99999999999999L617.4,13" style="opacity: 1; stroke: rgb(0, 0, 0); stroke-opacity: 1; fill: rgb(0, 0, 0); fill-opacity: 0; stroke-dasharray: 9px, 9px; stroke-width: 2px;"/></g><g class="shape-group" data-index="19" clip-path="url(#clip543cc7x2)"><path data-index="19" fill-rule="evenodd" d="M617.4,222L617.4,134" style="opacity: 1; stroke: rgb(0, 0, 0); stroke-opacity: 1; fill: rgb(0, 0, 0); fill-opacity: 0; stroke-dasharray: 9px, 9px; stroke-width: 2px;"/></g><g class="shape-group" data-index="20" clip-path="url(#clip543cc7x3)"><path data-index="20" fill-rule="evenodd" d="M617.4,343L617.4,255.00000000000003" style="opacity: 1; stroke: rgb(0, 0, 0); stroke-opacity: 1; fill: rgb(0, 0, 0); fill-opacity: 0; stroke-dasharray: 9px, 9px; stroke-width: 2px;"/></g><g class="shape-group" data-index="21" clip-path="url(#clip543cc7x)"><path data-index="21" fill-rule="evenodd" d="M708.3,100.99999999999999L708.3,13" style="opacity: 1; stroke: rgb(0, 0, 0); stroke-opacity: 1; fill: rgb(0, 0, 0); fill-opacity: 0; stroke-dasharray: 9px, 9px; stroke-width: 2px;"/></g><g class="shape-group" data-index="22" clip-path="url(#clip543cc7x2)"><path data-index="22" fill-rule="evenodd" d="M708.3,222L708.3,134" style="opacity: 1; stroke: rgb(0, 0, 0); stroke-opacity: 1; fill: rgb(0, 0, 0); fill-opacity: 0; stroke-dasharray: 9px, 9px; stroke-width: 2px;"/></g><g class="shape-group" data-index="23" clip-path="url(#clip543cc7x3)"><path data-index="23" fill-rule="evenodd" d="M708.3,343L708.3,255.00000000000003" style="opacity: 1; stroke: rgb(0, 0, 0); stroke-opacity: 1; fill: rgb(0, 0, 0); fill-opacity: 0; stroke-dasharray: 9px, 9px; stroke-width: 2px;"/></g><g class="shape-group" data-index="24" clip-path="url(#clip543cc7x)"><path data-index="24" fill-rule="evenodd" d="M799.2,100.99999999999999L799.2,13" style="opacity: 1; stroke: rgb(0, 0, 0); stroke-opacity: 1; fill: rgb(0, 0, 0); fill-opacity: 0; stroke-dasharray: 9px, 9px; stroke-width: 2px;"/></g><g class="shape-group" data-index="25" clip-path="url(#clip543cc7x2)"><path data-index="25" fill-rule="evenodd" d="M799.2,222L799.2,134" style="opacity: 1; stroke: rgb(0, 0, 0); stroke-opacity: 1; fill: rgb(0, 0, 0); fill-opacity: 0; stroke-dasharray: 9px, 9px; stroke-width: 2px;"/></g><g class="shape-group" data-index="26" clip-path="url(#clip543cc7x3)"><path data-index="26" fill-rule="evenodd" d="M799.2,343L799.2,255.00000000000003" style="opacity: 1; stroke: rgb(0, 0, 0); stroke-opacity: 1; fill: rgb(0, 0, 0); fill-opacity: 0; stroke-dasharray: 9px, 9px; stroke-width: 2px;"/></g><g class="shape-group" data-index="27" clip-path="url(#clip543cc7x)"><path data-index="27" fill-rule="evenodd" d="M890.1,100.99999999999999L890.1,13" style="opacity: 1; stroke: rgb(0, 0, 0); stroke-opacity: 1; fill: rgb(0, 0, 0); fill-opacity: 0; stroke-dasharray: 9px, 9px; stroke-width: 2px;"/></g><g class="shape-group" data-index="28" clip-path="url(#clip543cc7x2)"><path data-index="28" fill-rule="evenodd" d="M890.1,222L890.1,134" style="opacity: 1; stroke: rgb(0, 0, 0); stroke-opacity: 1; fill: rgb(0, 0, 0); fill-opacity: 0; stroke-dasharray: 9px, 9px; stroke-width: 2px;"/></g><g class="shape-group" data-index="29" clip-path="url(#clip543cc7x3)"><path data-index="29" fill-rule="evenodd" d="M890.1,343L890.1,255.00000000000003" style="opacity: 1; stroke: rgb(0, 0, 0); stroke-opacity: 1; fill: rgb(0, 0, 0); fill-opacity: 0; stroke-dasharray: 9px, 9px; stroke-width: 2px;"/></g><g class="shape-group" data-index="30" clip-path="url(#clip543cc7x)"><path data-index="30" fill-rule="evenodd" d="M981,100.99999999999999L981,13" style="opacity: 1; stroke: rgb(0, 0, 0); stroke-opacity: 1; fill: rgb(0, 0, 0); fill-opacity: 0; stroke-dasharray: 9px, 9px; stroke-width: 2px;"/></g><g class="shape-group" data-index="31" clip-path="url(#clip543cc7x2)"><path data-index="31" fill-rule="evenodd" d="M981,222L981,134" style="opacity: 1; stroke: rgb(0, 0, 0); stroke-opacity: 1; fill: rgb(0, 0, 0); fill-opacity: 0; stroke-dasharray: 9px, 9px; stroke-width: 2px;"/></g><g class="shape-group" data-index="32" clip-path="url(#clip543cc7x3)"><path data-index="32" fill-rule="evenodd" d="M981,343L981,255.00000000000003" style="opacity: 1; stroke: rgb(0, 0, 0); stroke-opacity: 1; fill: rgb(0, 0, 0); fill-opacity: 0; stroke-dasharray: 9px, 9px; stroke-width: 2px;"/></g></g></g><g class="infolayer"><g class="g-gtitle"/><g class="g-xtitle"/><g class="g-x2title"/><g class="g-x3title" transform="translate(0,-4.300000000000011)"><text class="x3title" x="526.5" y="399.3" text-anchor="middle" style="opacity: 1; font-family: 'Open Sans', verdana, arial, sans-serif; font-size: 24px; fill: rgb(42, 63, 95); fill-opacity: 1; white-space: pre;">Time [s]</text></g><g class="g-ytitle" transform="translate(9.619140625,0)"><text class="ytitle" transform="rotate(-90,14.381250000000001,56.99999999999999)" x="14.381250000000001" y="56.99999999999999" text-anchor="middle" style="opacity: 1; font-family: 'Open Sans', verdana, arial, sans-serif; font-size: 24px; fill: rgb(42, 63, 95); fill-opacity: 1; white-space: pre;">\(v\) [m/s]</text></g><g class="g-y2title" transform="translate(5.994140625,0)"><text class="y2title" transform="rotate(-90,18.00625,178)" x="18.00625" y="178" text-anchor="middle" style="opacity: 1; font-family: 'Open Sans', verdana, arial, sans-serif; font-size: 24px; fill: rgb(42, 63, 95); fill-opacity: 1; white-space: pre;">\(\dot\chi\) [deg/s]</text></g><g class="g-y3title" transform="translate(15.056640625,0)"><text class="y3title" transform="rotate(-90,8.943750000000001,299)" x="8.943750000000001" y="299" text-anchor="middle" style="opacity: 1; font-family: 'Open Sans', verdana, arial, sans-serif; font-size: 24px; fill: rgb(42, 63, 95); fill-opacity: 1; white-space: pre;">XTE [m]</text></g><g class="annotation" data-index="0" style="opacity: 1;"><g class="annotation-text-g" transform="rotate(0,526.5,1.4999999999999982)"><g class="cursor-pointer" transform="translate(500,-10)"><rect class="bg" x="0.5" y="0.5" width="53" height="22" style="stroke-width: 1px; stroke: rgb(0, 0, 0); stroke-opacity: 0; fill: rgb(0, 0, 0); fill-opacity: 0;"/><text class="annotation-text" text-anchor="middle" x="26.96875" y="18" style="font-family: 'Open Sans', verdana, arial, sans-serif; font-size: 16px; fill: rgb(42, 63, 95); fill-opacity: 1; white-space: pre;">Speed</text></g></g></g><g class="annotation" data-index="1" style="opacity: 1;"><g class="annotation-text-g" transform="rotate(0,526.5,122.5)"><g class="cursor-pointer" transform="translate(454,111)"><rect class="bg" x="0.5" y="0.5" width="145" height="22" style="stroke-width: 1px; stroke: rgb(0, 0, 0); stroke-opacity: 0; fill: rgb(0, 0, 0); fill-opacity: 0;"/><text class="annotation-text" text-anchor="middle" x="73" y="18" style="font-family: 'Open Sans', verdana, arial, sans-serif; font-size: 16px; fill: rgb(42, 63, 95); fill-opacity: 1; white-space: pre;">Change in Course</text></g></g></g><g class="annotation" data-index="2" style="opacity: 1;"><g class="annotation-text-g" transform="rotate(0,526.5,243.50000000000003)"><g class="cursor-pointer" transform="translate(456,232)"><rect class="bg" x="0.5" y="0.5" width="141" height="22" style="stroke-width: 1px; stroke: rgb(0, 0, 0); stroke-opacity: 0; fill: rgb(0, 0, 0); fill-opacity: 0;"/><text class="annotation-text" text-anchor="middle" x="71.109375" y="18" style="font-family: 'Open Sans', verdana, arial, sans-serif; font-size: 16px; fill: rgb(42, 63, 95); fill-opacity: 1; white-space: pre;">Cross Track Error</text></g></g></g></g></svg>