<svg class="main-svg" xmlns="http://www.w3.org/2000/svg" xmlns:xlink="http://www.w3.org/1999/xlink" width="1000" height="500" style="" viewBox="0 0 1000 500"><rect x="0" y="0" width="1000" height="500" style="fill: rgb(255, 255, 255); fill-opacity: 1;"/><defs id="defs-d9f15d"><g class="clips"><clipPath id="clipd9f15dxyplot" class="plotclip"><rect width="911" height="91.73333333333332"/></clipPath><clipPath id="clipd9f15dx2y2plot" class="plotclip"><rect width="911" height="91.73333333333332"/></clipPath><clipPath id="clipd9f15dx3y3plot" class="plotclip"><rect width="911" height="91.73333333333333"/></clipPath><clipPath class="axesclip" id="clipd9f15dx"><rect x="71" y="0" width="911" height="500"/></clipPath><clipPath class="axesclip" id="clipd9f15dy"><rect x="0" y="99" width="1000" height="91.73333333333332"/></clipPath><clipPath class="axesclip" id="clipd9f15dxy"><rect x="71" y="99" width="911" height="91.73333333333332"/></clipPath><clipPath class="axesclip" id="clipd9f15dy2"><rect x="0" y="225.13333333333333" width="1000" height="91.73333333333332"/></clipPath><clipPath class="axesclip" id="clipd9f15dxy2"><rect x="71" y="225.13333333333333" width="911" height="91.73333333333332"/></clipPath><clipPath class="axesclip" id="clipd9f15dy3"><rect x="0" y="351.26666666666665" width="1000" height="91.73333333333333"/></clipPath><clipPath class="axesclip" id="clipd9f15dxy3"><rect x="71" y="351.26666666666665" width="911" height="91.73333333333333"/></clipPath><clipPath class="axesclip" id="clipd9f15dx2"><rect x="71" y="0" width="911" height="500"/></clipPath><clipPath class="axesclip" id="clipd9f15dx2y"><rect x="71" y="99" width="911" height="91.73333333333332"/></clipPath><clipPath class="axesclip" id="clipd9f15dx2y2"><rect x="71" y="225.13333333333333" width="911" height="91.73333333333332"/></clipPath><clipPath class="axesclip" id="clipd9f15dx2y3"><rect x="71" y="351.26666666666665" width="911" height="91.73333333333333"/></clipPath><clipPath class="axesclip" id="clipd9f15dx3"><rect x="71" y="0" width="911" height="500"/></clipPath><clipPath class="axesclip" id="clipd9f15dx3y"><rect x="71" y="99" width="911" height="91.73333333333332"/></clipPath><clipPath class="axesclip" id="clipd9f15dx3y2"><rect x="71" y="225.13333333333333" width="911" height="91.73333333333332"/></clipPath><clipPath class="axesclip" id="clipd9f15dx3y3"><rect x="71" y="351.26666666666665" width="911" height="91.73333333333333"/></clipPath></g><g class="gradients"/><g class="patterns"/></defs><g class="bglayer"/><g class="layer-below"><g class="imagelayer"/><g class="shapelayer"/></g><g class="cartesianlayer"><g class="subplot xy"><g class="layer-subplot"><g class="shapelayer"/><g class="imagelayer"/></g><g class="minor-gridlayer"><g class="x"/><g class="y"/></g><g class="gridlayer"><g class="x"><path class="xgrid crisp" transform="translate(253.8,0)" d="M0,99v91.73333333333332" style="stroke: rgb(200, 200, 200); stroke-opacity: 1; stroke-width: 1px;"/><path class="xgrid crisp" transform="translate(435.6,0)" d="M0,99v91.73333333333332" style="stroke: rgb(200, 200, 200); stroke-opacity: 1; stroke-width: 1px;"/><path class="xgrid crisp" transform="translate(617.4,0)" d="M0,99v91.73333333333332" style="stroke: rgb(200, 200, 200); stroke-opacity: 1; stroke-width: 1px;"/><path class="xgrid crisp" transform="translate(799.2,0)" d="M0,99v91.73333333333332" style="stroke: rgb(200, 200, 200); stroke-opacity: 1; stroke-width: 1px;"/></g><g class="y"><path class="ygrid crisp" transform="translate(0,160.16)" d="M71,0h911" style="stroke: rgb(200, 200, 200); stroke-opacity: 1; stroke-width: 1px;"/><path class="ygrid crisp" transform="translate(0,129.57999999999998)" d="M71,0h911" style="stroke: rgb(200, 200, 200); stroke-opacity: 1; stroke-width: 1px;"/></g></g><g class="zerolinelayer"><path class="xzl zl crisp" transform="translate(72,0)" d="M0,99v91.73333333333332" style="stroke: rgb(200, 200, 200); stroke-opacity: 1; stroke-width: 2px;"/><path class="yzl zl crisp" transform="translate(0,190.73000000000002)" d="M71,0h911" style="stroke: rgb(200, 200, 200); stroke-opacity: 1; stroke-width: 2px;"/></g><g class="layer-between"><g class="shapelayer"/><g class="imagelayer"/></g><path class="xlines-below"/><path class="ylines-below"/><g class="overlines-below"/><g class="xaxislayer-below"/><g class="yaxislayer-below"/><g class="overaxes-below"/><g class="overplot"><g class="xy" transform="translate(71,99)" clip-path="url(#clipd9f15dxyplot)"><g class="scatterlayer mlayer"><g class="trace scatter trace56f3be" style="stroke-miterlimit: 2; opacity: 1;"><g class="fills"/><g class="errorbars"/><g class="lines"><path class="js-line" d="M1,0L910,0" style="vector-effect: none; fill: none; stroke: rgb(12, 51, 131); stroke-opacity: 1; stroke-width: 2px; opacity: 1;"/></g><g class="points"/><g class="text"/></g><g class="trace scatter trace97ff99" style="stroke-miterlimit: 2; opacity: 1;"><g class="fills"/><g class="errorbars"/><g class="lines"><path class="js-line" d="M1,0L910,0" style="vector-effect: none; fill: none; stroke: rgb(11, 94, 158); stroke-opacity: 1; stroke-width: 2px; opacity: 1;"/></g><g class="points"/><g class="text"/></g><g class="trace scatter tracedb2e35" style="stroke-miterlimit: 2; opacity: 1;"><g class="fills"/><g class="errorbars"/><g class="lines"><path class="js-line" d="M1,0L94.67,0.71L95.13,0.78L100.59,2.41L101.04,2.61L106.95,6.09L107.41,6.43L114.23,12.49L114.68,12.96L121.96,21.53L122.41,22.12L132.42,36.57L132.87,37.28L160.15,79.17L160.61,79.73L167.43,86.89L167.88,87.28L173.34,90.72L173.8,90.9L177.89,91.73L178.34,91.73L182.44,90.73L182.89,90.5L186.98,87.65L187.44,87.25L193.8,80.53L194.26,79.99L212.45,58.64L212.9,58.22L219.27,53.47L219.72,53.22L225.18,51.19L225.64,51.11L230.64,51.09L231.09,51.17L235.64,52.69L236.09,52.92L241.1,56.18L241.55,56.54L247.92,62.68L248.37,63.18L258.38,75.35L258.83,75.92L268.83,87.14L269.29,87.54L273.84,90.67L274.29,90.88L278.38,91.73L278.84,91.72L282.93,90.76L283.39,90.56L287.93,87.7L288.39,87.34L294.75,80.88L295.21,80.33L302.94,69.82L303.39,69.14L314.76,51.04L315.22,50.3L329.77,27.49L330.22,26.84L339.77,14.58L340.23,14.07L347.5,7.07L347.96,6.71L353.87,2.82L354.32,2.59L360.23,0.47L360.69,0.38L366.15,0L366.6,0L910,0" style="vector-effect: none; fill: none; stroke: rgb(10, 136, 186); stroke-opacity: 1; stroke-width: 2px; opacity: 1;"/></g><g class="points"/><g class="text"/></g><g class="trace scatter trace58a25a" style="stroke-miterlimit: 2; opacity: 1;"><g class="fills"/><g class="errorbars"/><g class="lines"><path class="js-line" d="M1,0L129.69,0.75L130.14,0.76L179.25,2.15L179.71,2.15L211.54,1.4L211.99,1.39L245.19,1.4L245.64,1.41L279.75,2.15L280.2,2.15L309.31,1.41L309.76,1.39L357.05,0.03L357.51,0.03L588.51,0.74L588.96,0.76L648.99,1.54L649.44,1.53L699.46,1.15L699.92,1.16L749.94,1.55L750.39,1.54L841.79,0L842.25,0L910,0" style="vector-effect: none; fill: none; stroke: rgb(126, 174, 121); stroke-opacity: 1; stroke-width: 2px; opacity: 1;"/></g><g class="points"/><g class="text"/></g><g class="trace scatter tracef866ef" style="stroke-miterlimit: 2; opacity: 1;"><g class="fills"/><g class="errorbars"/><g class="lines"><path class="js-line" d="M1,0L97.4,0.75L97.86,0.87L103.77,3.44L104.22,3.71L110.13,8.02L110.59,8.41L118.32,16.41L118.77,16.95L126.96,27.82L127.41,28.48L137.87,44.73L138.33,45.47L156.97,74.72L157.43,75.35L164.7,84.16L165.16,84.63L170.61,89.18L171.07,89.47L175.62,91.43L176.07,91.53L180.16,91.53L180.62,91.42L184.71,89.48L185.16,89.16L190.17,84.71L190.62,84.24L198.81,74.49L199.26,73.92L211.99,59.19L212.45,58.76L218.81,53.84L219.27,53.57L224.73,51.37L225.18,51.27L230.18,51.09L230.64,51.15L235.64,52.74L236.09,52.96L241.55,56.57L242.01,56.95L248.37,63.19L248.83,63.7L260.65,78.18L261.1,78.74L269.74,87.93L270.2,88.3L274.75,91.06L275.2,91.22L279.29,91.69L279.75,91.64L283.84,90.35L284.3,90.12L289.3,86.56L289.75,86.15L295.66,79.78L296.12,79.22L304.76,67.08L305.21,66.38L319.76,42.89L320.22,42.16L332.04,24.29L332.5,23.67L340.68,13.57L341.14,13.08L348.41,6.35L348.87,6.01L354.78,2.36L355.23,2.15L361.14,0.29L361.6,0.22L368.87,0L369.33,0L910,0" style="vector-effect: none; fill: none; stroke: rgb(242, 211, 56); stroke-opacity: 1; stroke-width: 2px; opacity: 1;"/></g><g class="points"/><g class="text"/></g><g class="trace scatter trace035843" style="stroke-miterlimit: 2; opacity: 1;"><g class="fills"/><g class="errorbars"/><g class="lines"><path class="js-line" d="M1,0L910,0" style="vector-effect: none; fill: none; stroke: rgb(242, 177, 56); stroke-opacity: 1; stroke-width: 2px; opacity: 1;"/></g><g class="points"/><g class="text"/></g><g class="trace scatter tracef6a20f" style="stroke-miterlimit: 2; opacity: 1;"><g class="fills"/><g class="errorbars"/><g class="lines"><path class="js-line" d="M1,0L910,0" style="vector-effect: none; fill: none; stroke: rgb(242, 143, 56); stroke-opacity: 1; stroke-width: 2px; opacity: 1;"/></g><g class="points"/><g class="text"/></g><g class="trace scatter tracee017de" style="stroke-miterlimit: 2; opacity: 1;"><g class="fills"/><g class="errorbars"/><g class="lines"><path class="js-line" d="M1,0L910,0" style="vector-effect: none; fill: none; stroke: rgb(229, 86, 43); stroke-opacity: 1; stroke-width: 2px; opacity: 1;"/></g><g class="points"/><g class="text"/></g><g class="trace scatter trace1b67ec" style="stroke-miterlimit: 2; opacity: 1;"><g class="fills"/><g class="errorbars"/><g class="lines"><path class="js-line" d="M1,0L910,0" style="vector-effect: none; fill: none; stroke: rgb(217, 30, 30); stroke-opacity: 1; stroke-width: 2px; opacity: 1;"/></g><g class="points"/><g class="text"/></g></g></g></g><path class="xlines-above crisp" d="M0,0" style="fill: none;"/><path class="ylines-above crisp" d="M0,0" style="fill: none;"/><g class="overlines-above"/><g class="xaxislayer-above"/><g class="yaxislayer-above"><g class="ytick"><text text-anchor="end" x="70" y="7" transform="translate(0,190.73000000000002)" style="font-family: 'Open Sans', verdana, arial, sans-serif; font-size: 20px; fill: rgb(42, 63, 95); fill-opacity: 1; white-space: pre; opacity: 1;">0</text></g><g class="ytick"><text text-anchor="end" x="70" y="7" style="font-family: 'Open Sans', verdana, arial, sans-serif; font-size: 20px; fill: rgb(42, 63, 95); fill-opacity: 1; white-space: pre; opacity: 1;" transform="translate(0,160.16)">2</text></g><g class="ytick"><text text-anchor="end" x="70" y="7" style="font-family: 'Open Sans', verdana, arial, sans-serif; font-size: 20px; fill: rgb(42, 63, 95); fill-opacity: 1; white-space: pre; opacity: 1;" transform="translate(0,129.57999999999998)">4</text></g><g class="ytick"><text text-anchor="end" x="70" y="7" style="font-family: 'Open Sans', verdana, arial, sans-serif; font-size: 20px; fill: rgb(42, 63, 95); fill-opacity: 1; white-space: pre; opacity: 1;" transform="translate(0,99)">6</text></g></g><g class="overaxes-above"/></g><g class="subplot x2y2"><g class="layer-subplot"><g class="shapelayer"/><g class="imagelayer"/></g><g class="minor-gridlayer"><g class="x2"/><g class="y2"/></g><g class="gridlayer"><g class="x2"><path class="x2grid crisp" transform="translate(253.8,0)" d="M0,225.13333333333333v91.73333333333332" style="stroke: rgb(200, 200, 200); stroke-opacity: 1; stroke-width: 1px;"/><path class="x2grid crisp" transform="translate(435.6,0)" d="M0,225.13333333333333v91.73333333333332" style="stroke: rgb(200, 200, 200); stroke-opacity: 1; stroke-width: 1px;"/><path class="x2grid crisp" transform="translate(617.4,0)" d="M0,225.13333333333333v91.73333333333332" style="stroke: rgb(200, 200, 200); stroke-opacity: 1; stroke-width: 1px;"/><path class="x2grid crisp" transform="translate(799.2,0)" d="M0,225.13333333333333v91.73333333333332" style="stroke: rgb(200, 200, 200); stroke-opacity: 1; stroke-width: 1px;"/></g><g class="y2"><path class="y2grid crisp" transform="translate(0,301.5733333333333)" d="M71,0h911" style="stroke: rgb(200, 200, 200); stroke-opacity: 1; stroke-width: 1px;"/><path class="y2grid crisp" transform="translate(0,240.42333333333332)" d="M71,0h911" style="stroke: rgb(200, 200, 200); stroke-opacity: 1; stroke-width: 1px;"/></g></g><g class="zerolinelayer"><path class="x2zl zl crisp" transform="translate(72,0)" d="M0,225.13333333333333v91.73333333333332" style="stroke: rgb(200, 200, 200); stroke-opacity: 1; stroke-width: 2px;"/><path class="y2zl zl crisp" transform="translate(0,271.00333333333333)" d="M71,0h911" style="stroke: rgb(200, 200, 200); stroke-opacity: 1; stroke-width: 2px;"/></g><g class="layer-between"><g class="shapelayer"/><g class="imagelayer"/></g><path class="xlines-below"/><path class="ylines-below"/><g class="overlines-below"/><g class="xaxislayer-below"/><g class="yaxislayer-below"/><g class="overaxes-below"/><g class="overplot"><g class="x2y2" transform="translate(71,225.13333333333333)" clip-path="url(#clipd9f15dx2y2plot)"><g class="scatterlayer mlayer"><g class="trace scatter trace8b021d" style="stroke-miterlimit: 2; opacity: 1;"><g class="fills"/><g class="errorbars"/><g class="lines"><path class="js-line" d="M1,45.87L910,45.87" style="vector-effect: none; fill: none; stroke: rgb(12, 51, 131); stroke-opacity: 1; stroke-width: 2px; opacity: 1;"/></g><g class="points"/><g class="text"/></g><g class="trace scatter trace61d21b" style="stroke-miterlimit: 2; opacity: 1;"><g class="fills"/><g class="errorbars"/><g class="lines"><path class="js-line" d="M1,45.87L910,45.87" style="vector-effect: none; fill: none; stroke: rgb(11, 94, 158); stroke-opacity: 1; stroke-width: 2px; opacity: 1;"/></g><g class="points"/><g class="text"/></g><g class="trace scatter trace8f7193" style="stroke-miterlimit: 2; opacity: 1;"><g class="fills"/><g class="errorbars"/><g class="lines"><path class="js-line" d="M1,45.84L157.43,45.1L157.88,45.07L166.07,43.67L166.52,43.5L169.7,41.36L170.16,40.83L171.98,37.34L172.43,35.89L173.8,28.33L174.25,23.78L176.98,-307.35L177.3514251359151,-1834.6666666666665L177.48690508723445,-1834.6666666666665L178.14930564049763,1926.3999999999996L0,1926.3999999999996L178.98963786390803,1926.3999999999999L180.16,-24.24L180.62,-1.18L181.98,25.97L182.44,29.89L184.26,38.16L184.71,39.23L186.98,42.27L187.44,42.62L190.62,44.09L191.08,44.21L197.9,45.16L198.35,45.19L217,45.67L217.45,45.68L269.74,45.04L270.2,44.94L272.93,43.73L273.38,43.29L274.75,40.91L275.2,39.35L276.11,32.75L276.56,24.77L277.02,5.92L277.47,-63.51L277.7366336345259,1926.3999999999994L0,1926.3999999999996L278.14546173013184,1926.3999999999996L278.38,355.52L278.66961728778347,-1834.6666666666665L279.0287558149755,-1834.6666666666665L279.29,-51.35L280.66,33.22L281.11,37.17L282.93,42.77L283.39,43.31L286.11,44.8L286.57,44.92L293.39,45.59L293.84,45.6L316.13,45.83L316.58,45.83L910,45.87" style="vector-effect: none; fill: none; stroke: rgb(10, 136, 186); stroke-opacity: 1; stroke-width: 2px; opacity: 1;"/></g><g class="points"/><g class="text"/></g><g class="trace scatter trace09c2f7" style="stroke-miterlimit: 2; opacity: 1;"><g class="fills"/><g class="errorbars"/><g class="lines"><path class="js-line" d="M1,45.87L94.67,45.14L95.13,45.03L183.35,22.03L183.8,22.28L274.75,69.72L275.2,69.6L367.06,45.87L367.51,45.87L549.4,46.58L549.86,46.68L637.62,67.57L638.07,67.35L729.02,24.2L729.47,24.31L821.78,45.86L822.24,45.86L910,45.87" style="vector-effect: none; fill: none; stroke: rgb(126, 174, 121); stroke-opacity: 1; stroke-width: 2px; opacity: 1;"/></g><g class="points"/><g class="text"/></g><g class="trace scatter trace751906" style="stroke-miterlimit: 2; opacity: 1;"><g class="fills"/><g class="errorbars"/><g class="lines"><path class="js-line" d="M1,45.87L910,45.87" style="vector-effect: none; fill: none; stroke: rgb(242, 211, 56); stroke-opacity: 1; stroke-width: 2px; opacity: 1;"/></g><g class="points"/><g class="text"/></g><g class="trace scatter trace1dffcb" style="stroke-miterlimit: 2; opacity: 1;"><g class="fills"/><g class="errorbars"/><g class="lines"><path class="js-line" d="M1,45.87L97.86,45.15L98.31,45.09L158.34,37.82L158.79,37.76L184.71,35.31L185.16,35.42L275.66,56.65L276.11,56.6L339.32,48.92L339.77,48.87L368.42,45.87L368.87,45.87L553.04,46.62L553.49,46.67L639.44,55.71L639.89,55.61L704.92,40.83L705.37,40.73L730.38,35.79L730.84,35.84L825.88,45.87L826.33,45.87L910,45.87" style="vector-effect: none; fill: none; stroke: rgb(242, 177, 56); stroke-opacity: 1; stroke-width: 2px; opacity: 1;"/></g><g class="points"/><g class="text"/></g><g class="trace scatter tracee7b004" style="stroke-miterlimit: 2; opacity: 1;"><g class="fills"/><g class="errorbars"/><g class="lines"><path class="js-line" d="M1,45.87L110.59,45.12L111.04,45.11L186.53,42.55L186.98,42.59L239.73,46.78L240.19,46.82L280.66,49.2L281.11,49.18L322.49,47.54L322.95,47.52L376.6,45.87L377.06,45.87L566.23,46.61L566.68,46.63L613.97,48.4L614.43,48.42L642.17,48.91L642.62,48.88L705.37,44.17L705.83,44.14L731.29,42.57L731.75,42.59L822.24,45.87L822.69,45.87L910,45.87" style="vector-effect: none; fill: none; stroke: rgb(242, 143, 56); stroke-opacity: 1; stroke-width: 2px; opacity: 1;"/></g><g class="points"/><g class="text"/></g><g class="trace scatter traced12303" style="stroke-miterlimit: 2; opacity: 1;"><g class="fills"/><g class="errorbars"/><g class="lines"><path class="js-line" d="M1,45.87L910,45.87" style="vector-effect: none; fill: none; stroke: rgb(229, 86, 43); stroke-opacity: 1; stroke-width: 2px; opacity: 1;"/></g><g class="points"/><g class="text"/></g><g class="trace scatter trace296fda" style="stroke-miterlimit: 2; opacity: 1;"><g class="fills"/><g class="errorbars"/><g class="lines"><path class="js-line" d="M1,45.87L910,45.87" style="vector-effect: none; fill: none; stroke: rgb(217, 30, 30); stroke-opacity: 1; stroke-width: 2px; opacity: 1;"/></g><g class="points"/><g class="text"/></g></g></g></g><path class="xlines-above crisp" d="M0,0" style="fill: none;"/><path class="ylines-above crisp" d="M0,0" style="fill: none;"/><g class="overlines-above"/><g class="xaxislayer-above"/><g class="yaxislayer-above"><g class="y2tick"><text text-anchor="end" x="70" y="7" transform="translate(0,301.5733333333333)" style="font-family: 'Open Sans', verdana, arial, sans-serif; font-size: 20px; fill: rgb(42, 63, 95); fill-opacity: 1; white-space: pre; opacity: 1;">−1</text></g><g class="y2tick"><text text-anchor="end" x="70" y="7" style="font-family: 'Open Sans', verdana, arial, sans-serif; font-size: 20px; fill: rgb(42, 63, 95); fill-opacity: 1; white-space: pre; opacity: 1;" transform="translate(0,271.00333333333333)">0</text></g><g class="y2tick"><text text-anchor="end" x="70" y="7" style="font-family: 'Open Sans', verdana, arial, sans-serif; font-size: 20px; fill: rgb(42, 63, 95); fill-opacity: 1; white-space: pre; opacity: 1;" transform="translate(0,240.42333333333332)">1</text></g></g><g class="overaxes-above"/></g><g class="subplot x3y3"><g class="layer-subplot"><g class="shapelayer"/><g class="imagelayer"/></g><g class="minor-gridlayer"><g class="x3"/><g class="y3"/></g><g class="gridlayer"><g class="x3"><path class="x3grid crisp" transform="translate(253.8,0)" d="M0,351.26666666666665v91.73333333333333" style="stroke: rgb(200, 200, 200); stroke-opacity: 1; stroke-width: 1px;"/><path class="x3grid crisp" transform="translate(435.6,0)" d="M0,351.26666666666665v91.73333333333333" style="stroke: rgb(200, 200, 200); stroke-opacity: 1; stroke-width: 1px;"/><path class="x3grid crisp" transform="translate(617.4,0)" d="M0,351.26666666666665v91.73333333333333" style="stroke: rgb(200, 200, 200); stroke-opacity: 1; stroke-width: 1px;"/><path class="x3grid crisp" transform="translate(799.2,0)" d="M0,351.26666666666665v91.73333333333333" style="stroke: rgb(200, 200, 200); stroke-opacity: 1; stroke-width: 1px;"/></g><g class="y3"><path class="y3grid crisp" transform="translate(0,412.4266666666666)" d="M71,0h911" style="stroke: rgb(200, 200, 200); stroke-opacity: 1; stroke-width: 1px;"/><path class="y3grid crisp" transform="translate(0,381.84666666666664)" d="M71,0h911" style="stroke: rgb(200, 200, 200); stroke-opacity: 1; stroke-width: 1px;"/></g></g><g class="zerolinelayer"><path class="x3zl zl crisp" transform="translate(72,0)" d="M0,351.26666666666665v91.73333333333333" style="stroke: rgb(200, 200, 200); stroke-opacity: 1; stroke-width: 2px;"/><path class="y3zl zl crisp" transform="translate(0,442.99666666666667)" d="M71,0h911" style="stroke: rgb(200, 200, 200); stroke-opacity: 1; stroke-width: 2px;"/></g><g class="layer-between"><g class="shapelayer"/><g class="imagelayer"/></g><path class="xlines-below"/><path class="ylines-below"/><g class="overlines-below"/><g class="xaxislayer-below"/><g class="yaxislayer-below"/><g class="overaxes-below"/><g class="overplot"><g class="x3y3" transform="translate(71,351.26666666666665)" clip-path="url(#clipd9f15dx3y3plot)"><g class="scatterlayer mlayer"><g class="trace scatter trace532550" style="stroke-miterlimit: 2; opacity: 1;"><g class="fills"/><g class="errorbars"/><g class="lines"><path class="js-line" d="M1,91.73L910,91.73" style="vector-effect: none; fill: none; stroke: rgb(12, 51, 131); stroke-opacity: 1; stroke-width: 2px; opacity: 1;"/></g><g class="points"/><g class="text"/></g><g class="trace scatter trace0670a8" style="stroke-miterlimit: 2; opacity: 1;"><g class="fills"/><g class="errorbars"/><g class="lines"><path class="js-line" d="M1,91.73L910,91.73" style="vector-effect: none; fill: none; stroke: rgb(11, 94, 158); stroke-opacity: 1; stroke-width: 2px; opacity: 1;"/></g><g class="points"/><g class="text"/></g><g class="trace scatter trace8ed500" style="stroke-miterlimit: 2; opacity: 1;"><g class="fills"/><g class="errorbars"/><g class="lines"><path class="js-line" d="M1,91.73L910,91.69" style="vector-effect: none; fill: none; stroke: rgb(10, 136, 186); stroke-opacity: 1; stroke-width: 2px; opacity: 1;"/></g><g class="points"/><g class="text"/></g><g class="trace scatter tracef6be06" style="stroke-miterlimit: 2; opacity: 1;"><g class="fills"/><g class="errorbars"/><g class="lines"><path class="js-line" d="M1,91.73L129.69,90.99L130.14,90.97L151.51,88.85L151.97,88.78L170.16,85.24L170.61,85.13L187.44,80L187.89,79.83L201.99,74.15L202.44,73.95L225.18,63.26L225.64,63.04L260.19,46.96L260.65,46.77L278.38,40.44L278.84,40.31L295.21,36.33L295.66,36.24L312.03,33.77L312.49,33.72L332.5,32.24L332.95,32.22L383.88,31.79L384.34,31.79L585.32,32.52L585.78,32.55L608.97,34.82L609.43,34.89L628.07,38.51L628.52,38.62L642.62,42.72L643.08,42.88L660.35,49.42L660.81,49.61L722.65,75.6L723.11,75.75L739.02,80.28L739.48,80.38L754.03,83.2L754.48,83.27L773.58,85.44L774.04,85.47L792.68,86.38L793.14,86.39L836.79,86.61L837.24,86.61L910,86.61" style="vector-effect: none; fill: none; stroke: rgb(126, 174, 121); stroke-opacity: 1; stroke-width: 2px; opacity: 1;"/></g><g class="points"/><g class="text"/></g><g class="trace scatter trace684277" style="stroke-miterlimit: 2; opacity: 1;"><g class="fills"/><g class="errorbars"/><g class="lines"><path class="js-line" d="M1,91.73L910,91.73" style="vector-effect: none; fill: none; stroke: rgb(242, 211, 56); stroke-opacity: 1; stroke-width: 2px; opacity: 1;"/></g><g class="points"/><g class="text"/></g><g class="trace scatter trace061cc5" style="stroke-miterlimit: 2; opacity: 1;"><g class="fills"/><g class="errorbars"/><g class="lines"><path class="js-line" d="M1,91.73L140.6,91L141.06,90.97L166.52,89.09L166.98,89.04L189.71,85.8L190.17,85.71L214.72,80.61L215.18,80.5L273.84,67.93L274.29,67.86L297.03,65.15L297.48,65.11L322.49,63.66L322.95,63.65L349.32,63.21L349.78,63.21L384.79,63.18L385.24,63.18L596.24,63.92L596.69,63.94L622.16,65.78L622.61,65.82L646.71,69.18L647.17,69.26L677.18,75.35L677.63,75.45L724.47,84.92L724.93,84.99L747.66,87.79L748.12,87.83L765.85,89.07L766.31,89.09L801.77,89.94L802.23,89.94L910,89.97" style="vector-effect: none; fill: none; stroke: rgb(242, 177, 56); stroke-opacity: 1; stroke-width: 2px; opacity: 1;"/></g><g class="points"/><g class="text"/></g><g class="trace scatter trace6f633b" style="stroke-miterlimit: 2; opacity: 1;"><g class="fills"/><g class="errorbars"/><g class="lines"><path class="js-line" d="M1,91.73L162.88,90.98L163.34,90.97L215.63,87.98L216.09,87.95L264.74,84.37L265.2,84.34L297.48,82.92L297.94,82.91L326.13,82.4L326.58,82.4L618.97,83.04L619.43,83.06L650.35,84.49L650.81,84.52L748.57,90.51L749.03,90.52L811.78,91.2L812.23,91.2L910,91.2" style="vector-effect: none; fill: none; stroke: rgb(242, 143, 56); stroke-opacity: 1; stroke-width: 2px; opacity: 1;"/></g><g class="points"/><g class="text"/></g><g class="trace scatter trace24016a" style="stroke-miterlimit: 2; opacity: 1;"><g class="fills"/><g class="errorbars"/><g class="lines"><path class="js-line" d="M1,91.73L910,91.73" style="vector-effect: none; fill: none; stroke: rgb(229, 86, 43); stroke-opacity: 1; stroke-width: 2px; opacity: 1;"/></g><g class="points"/><g class="text"/></g><g class="trace scatter tracea170ad" style="stroke-miterlimit: 2; opacity: 1;"><g class="fills"/><g class="errorbars"/><g class="lines"><path class="js-line" d="M1,91.73L910,91.73" style="vector-effect: none; fill: none; stroke: rgb(217, 30, 30); stroke-opacity: 1; stroke-width: 2px; opacity: 1;"/></g><g class="points"/><g class="text"/></g></g></g></g><path class="xlines-above crisp" d="M0,0" style="fill: none;"/><path class="ylines-above crisp" d="M0,0" style="fill: none;"/><g class="overlines-above"/><g class="xaxislayer-above"><g class="x3tick"><text text-anchor="middle" x="0" y="464" transform="translate(72,0)" style="font-family: 'Open Sans', verdana, arial, sans-serif; font-size: 20px; fill: rgb(42, 63, 95); fill-opacity: 1; white-space: pre; opacity: 1;">0</text></g><g class="x3tick"><text text-anchor="middle" x="0" y="464" style="font-family: 'Open Sans', verdana, arial, sans-serif; font-size: 20px; fill: rgb(42, 63, 95); fill-opacity: 1; white-space: pre; opacity: 1;" transform="translate(253.8,0)">100</text></g><g class="x3tick"><text text-anchor="middle" x="0" y="464" style="font-family: 'Open Sans', verdana, arial, sans-serif; font-size: 20px; fill: rgb(42, 63, 95); fill-opacity: 1; white-space: pre; opacity: 1;" transform="translate(435.6,0)">200</text></g><g class="x3tick"><text text-anchor="middle" x="0" y="464" style="font-family: 'Open Sans', verdana, arial, sans-serif; font-size: 20px; fill: rgb(42, 63, 95); fill-opacity: 1; white-space: pre; opacity: 1;" transform="translate(617.4,0)">300</text></g><g class="x3tick"><text text-anchor="middle" x="0" y="464" style="font-family: 'Open Sans', verdana, arial, sans-serif; font-size: 20px; fill: rgb(42, 63, 95); fill-opacity: 1; white-space: pre; opacity: 1;" transform="translate(799.2,0)">400</text></g><g class="x3tick"><text text-anchor="middle" x="0" y="464" style="font-family: 'Open Sans', verdana, arial, sans-serif; font-size: 20px; fill: rgb(42, 63, 95); fill-opacity: 1; white-space: pre; opacity: 0;" transform="translate(981,0)">500</text></g></g><g class="yaxislayer-above"><g class="y3tick"><text text-anchor="end" x="70" y="7" transform="translate(0,442.99666666666667)" style="font-family: 'Open Sans', verdana, arial, sans-serif; font-size: 20px; fill: rgb(42, 63, 95); fill-opacity: 1; white-space: pre; opacity: 1;">0</text></g><g class="y3tick"><text text-anchor="end" x="70" y="7" style="font-family: 'Open Sans', verdana, arial, sans-serif; font-size: 20px; fill: rgb(42, 63, 95); fill-opacity: 1; white-space: pre; opacity: 1;" transform="translate(0,412.4266666666666)">100</text></g><g class="y3tick"><text text-anchor="end" x="70" y="7" style="font-family: 'Open Sans', verdana, arial, sans-serif; font-size: 20px; fill: rgb(42, 63, 95); fill-opacity: 1; white-space: pre; opacity: 1;" transform="translate(0,381.84666666666664)">200</text></g><g class="y3tick"><text text-anchor="end" x="70" y="7" style="font-family: 'Open Sans', verdana, arial, sans-serif; font-size: 20px; fill: rgb(42, 63, 95); fill-opacity: 1; white-space: pre; opacity: 1;" transform="translate(0,351.26666666666665)">300</text></g></g><g class="overaxes-above"/></g></g><g class="polarlayer"/><g class="smithlayer"/><g class="ternarylayer"/><g class="geolayer"/><g class="funnelarealayer"/><g class="pielayer"/><g class="iciclelayer"/><g class="treemaplayer"/><g class="sunburstlayer"/><g class="glimages"/><defs id="topdefs-d9f15d"><g class="clips"/><clipPath id="legendd9f15d"><rect width="890" height="68" x="2" y="2"/></clipPath></defs><g class="layer-above"><g class="imagelayer"/><g class="shapelayer"><g class="shape-group" data-index="0" clip-path="url(#clipd9f15dx)"><path data-index="0" fill-rule="evenodd" d="M72,190.73333333333332L72,99" style="opacity: 1; stroke: rgb(0, 0, 0); stroke-opacity: 1; fill: rgb(0, 0, 0); fill-opacity: 0; stroke-dasharray: 9px, 9px; stroke-width: 2px;"/></g><g class="shape-group" data-index="1" clip-path="url(#clipd9f15dx2)"><path data-index="1" fill-rule="evenodd" d="M72,316.8666666666667L72,225.13333333333333" style="opacity: 1; stroke: rgb(0, 0, 0); stroke-opacity: 1; fill: rgb(0, 0, 0); fill-opacity: 0; stroke-dasharray: 9px, 9px; stroke-width: 2px;"/></g><g class="shape-group" data-index="2" clip-path="url(#clipd9f15dx3)"><path data-index="2" fill-rule="evenodd" d="M72,443L72,351.26666666666665" style="opacity: 1; stroke: rgb(0, 0, 0); stroke-opacity: 1; fill: rgb(0, 0, 0); fill-opacity: 0; stroke-dasharray: 9px, 9px; stroke-width: 2px;"/></g><g class="shape-group" data-index="3" clip-path="url(#clipd9f15dx)"><path data-index="3" fill-rule="evenodd" d="M162.9,190.73333333333332L162.9,99" style="opacity: 1; stroke: rgb(0, 0, 0); stroke-opacity: 1; fill: rgb(0, 0, 0); fill-opacity: 0; stroke-dasharray: 9px, 9px; stroke-width: 2px;"/></g><g class="shape-group" data-index="4" clip-path="url(#clipd9f15dx2)"><path data-index="4" fill-rule="evenodd" d="M162.9,316.8666666666667L162.9,225.13333333333333" style="opacity: 1; stroke: rgb(0, 0, 0); stroke-opacity: 1; fill: rgb(0, 0, 0); fill-opacity: 0; stroke-dasharray: 9px, 9px; stroke-width: 2px;"/></g><g class="shape-group" data-index="5" clip-path="url(#clipd9f15dx3)"><path data-index="5" fill-rule="evenodd" d="M162.9,443L162.9,351.26666666666665" style="opacity: 1; stroke: rgb(0, 0, 0); stroke-opacity: 1; fill: rgb(0, 0, 0); fill-opacity: 0; stroke-dasharray: 9px, 9px; stroke-width: 2px;"/></g><g class="shape-group" data-index="6" clip-path="url(#clipd9f15dx)"><path data-index="6" fill-rule="evenodd" d="M253.8,190.73333333333332L253.8,99" style="opacity: 1; stroke: rgb(0, 0, 0); stroke-opacity: 1; fill: rgb(0, 0, 0); fill-opacity: 0; stroke-dasharray: 9px, 9px; stroke-width: 2px;"/></g><g class="shape-group" data-index="7" clip-path="url(#clipd9f15dx2)"><path data-index="7" fill-rule="evenodd" d="M253.8,316.8666666666667L253.8,225.13333333333333" style="opacity: 1; stroke: rgb(0, 0, 0); stroke-opacity: 1; fill: rgb(0, 0, 0); fill-opacity: 0; stroke-dasharray: 9px, 9px; stroke-width: 2px;"/></g><g class="shape-group" data-index="8" clip-path="url(#clipd9f15dx3)"><path data-index="8" fill-rule="evenodd" d="M253.8,443L253.8,351.26666666666665" style="opacity: 1; stroke: rgb(0, 0, 0); stroke-opacity: 1; fill: rgb(0, 0, 0); fill-opacity: 0; stroke-dasharray: 9px, 9px; stroke-width: 2px;"/></g><g class="shape-group" data-index="9" clip-path="url(#clipd9f15dx)"><path data-index="9" fill-rule="evenodd" d="M344.7,190.73333333333332L344.7,99" style="opacity: 1; stroke: rgb(0, 0, 0); stroke-opacity: 1; fill: rgb(0, 0, 0); fill-opacity: 0; stroke-dasharray: 9px, 9px; stroke-width: 2px;"/></g><g class="shape-group" data-index="10" clip-path="url(#clipd9f15dx2)"><path data-index="10" fill-rule="evenodd" d="M344.7,316.8666666666667L344.7,225.13333333333333" style="opacity: 1; stroke: rgb(0, 0, 0); stroke-opacity: 1; fill: rgb(0, 0, 0); fill-opacity: 0; stroke-dasharray: 9px, 9px; stroke-width: 2px;"/></g><g class="shape-group" data-index="11" clip-path="url(#clipd9f15dx3)"><path data-index="11" fill-rule="evenodd" d="M344.7,443L344.7,351.26666666666665" style="opacity: 1; stroke: rgb(0, 0, 0); stroke-opacity: 1; fill: rgb(0, 0, 0); fill-opacity: 0; stroke-dasharray: 9px, 9px; stroke-width: 2px;"/></g><g class="shape-group" data-index="12" clip-path="url(#clipd9f15dx)"><path data-index="12" fill-rule="evenodd" d="M435.6,190.73333333333332L435.6,99" style="opacity: 1; stroke: rgb(0, 0, 0); stroke-opacity: 1; fill: rgb(0, 0, 0); fill-opacity: 0; stroke-dasharray: 9px, 9px; stroke-width: 2px;"/></g><g class="shape-group" data-index="13" clip-path="url(#clipd9f15dx2)"><path data-index="13" fill-rule="evenodd" d="M435.6,316.8666666666667L435.6,225.13333333333333" style="opacity: 1; stroke: rgb(0, 0, 0); stroke-opacity: 1; fill: rgb(0, 0, 0); fill-opacity: 0; stroke-dasharray: 9px, 9px; stroke-width: 2px;"/></g><g class="shape-group" data-index="14" clip-path="url(#clipd9f15dx3)"><path data-index="14" fill-rule="evenodd" d="M435.6,443L435.6,351.26666666666665" style="opacity: 1; stroke: rgb(0, 0, 0); stroke-opacity: 1; fill: rgb(0, 0, 0); fill-opacity: 0; stroke-dasharray: 9px, 9px; stroke-width: 2px;"/></g><g class="shape-group" data-index="15" clip-path="url(#clipd9f15dx)"><path data-index="15" fill-rule="evenodd" d="M526.5,190.73333333333332L526.5,99" style="opacity: 1; stroke: rgb(0, 0, 0); stroke-opacity: 1; fill: rgb(0, 0, 0); fill-opacity: 0; stroke-dasharray: 9px, 9px; stroke-width: 2px;"/></g><g class="shape-group" data-index="16" clip-path="url(#clipd9f15dx2)"><path data-index="16" fill-rule="evenodd" d="M526.5,316.8666666666667L526.5,225.13333333333333" style="opacity: 1; stroke: rgb(0, 0, 0); stroke-opacity: 1; fill: rgb(0, 0, 0); fill-opacity: 0; stroke-dasharray: 9px, 9px; stroke-width: 2px;"/></g><g class="shape-group" data-index="17" clip-path="url(#clipd9f15dx3)"><path data-index="17" fill-rule="evenodd" d="M526.5,443L526.5,351.26666666666665" style="opacity: 1; stroke: rgb(0, 0, 0); stroke-opacity: 1; fill: rgb(0, 0, 0); fill-opacity: 0; stroke-dasharray: 9px, 9px; stroke-width: 2px;"/></g><g class="shape-group" data-index="18" clip-path="url(#clipd9f15dx)"><path data-index="18" fill-rule="evenodd" d="M617.4,190.73333333333332L617.4,99" style="opacity: 1; stroke: rgb(0, 0, 0); stroke-opacity: 1; fill: rgb(0, 0, 0); fill-opacity: 0; stroke-dasharray: 9px, 9px; stroke-width: 2px;"/></g><g class="shape-group" data-index="19" clip-path="url(#clipd9f15dx2)"><path data-index="19" fill-rule="evenodd" d="M617.4,316.8666666666667L617.4,225.13333333333333" style="opacity: 1; stroke: rgb(0, 0, 0); stroke-opacity: 1; fill: rgb(0, 0, 0); fill-opacity: 0; stroke-dasharray: 9px, 9px; stroke-width: 2px;"/></g><g class="shape-group" data-index="20" clip-path="url(#clipd9f15dx3)"><path data-index="20" fill-rule="evenodd" d="M617.4,443L617.4,351.26666666666665" style="opacity: 1; stroke: rgb(0, 0, 0); stroke-opacity: 1; fill: rgb(0, 0, 0); fill-opacity: 0; stroke-dasharray: 9px, 9px; stroke-width: 2px;"/></g><g class="shape-group" data-index="21" clip-path="url(#clipd9f15dx)"><path data-index="21" fill-rule="evenodd" d="M708.3,190.73333333333332L708.3,99" style="opacity: 1; stroke: rgb(0, 0, 0); stroke-opacity: 1; fill: rgb(0, 0, 0); fill-opacity: 0; stroke-dasharray: 9px, 9px; stroke-width: 2px;"/></g><g class="shape-group" data-index="22" clip-path="url(#clipd9f15dx2)"><path data-index="22" fill-rule="evenodd" d="M708.3,316.8666666666667L708.3,225.13333333333333" style="opacity: 1; stroke: rgb(0, 0, 0); stroke-opacity: 1; fill: rgb(0, 0, 0); fill-opacity: 0; stroke-dasharray: 9px, 9px; stroke-width: 2px;"/></g><g class="shape-group" data-index="23" clip-path="url(#clipd9f15dx3)"><path data-index="23" fill-rule="evenodd" d="M708.3,443L708.3,351.26666666666665" style="opacity: 1; stroke: rgb(0, 0, 0); stroke-opacity: 1; fill: rgb(0, 0, 0); fill-opacity: 0; stroke-dasharray: 9px, 9px; stroke-width: 2px;"/></g><g class="shape-group" data-index="24" clip-path="url(#clipd9f15dx)"><path data-index="24" fill-rule="evenodd" d="M799.2,190.73333333333332L799.2,99" style="opacity: 1; stroke: rgb(0, 0, 0); stroke-opacity: 1; fill: rgb(0, 0, 0); fill-opacity: 0; stroke-dasharray: 9px, 9px; stroke-width: 2px;"/></g><g class="shape-group" data-index="25" clip-path="url(#clipd9f15dx2)"><path data-index="25" fill-rule="evenodd" d="M799.2,316.8666666666667L799.2,225.13333333333333" style="opacity: 1; stroke: rgb(0, 0, 0); stroke-opacity: 1; fill: rgb(0, 0, 0); fill-opacity: 0; stroke-dasharray: 9px, 9px; stroke-width: 2px;"/></g><g class="shape-group" data-index="26" clip-path="url(#clipd9f15dx3)"><path data-index="26" fill-rule="evenodd" d="M799.2,443L799.2,351.26666666666665" style="opacity: 1; stroke: rgb(0, 0, 0); stroke-opacity: 1; fill: rgb(0, 0, 0); fill-opacity: 0; stroke-dasharray: 9px, 9px; stroke-width: 2px;"/></g><g class="shape-group" data-index="27" clip-path="url(#clipd9f15dx)"><path data-index="27" fill-rule="evenodd" d="M890.1,190.73333333333332L890.1,99" style="opacity: 1; stroke: rgb(0, 0, 0); stroke-opacity: 1; fill: rgb(0, 0, 0); fill-opacity: 0; stroke-dasharray: 9px, 9px; stroke-width: 2px;"/></g><g class="shape-group" data-index="28" clip-path="url(#clipd9f15dx2)"><path data-index="28" fill-rule="evenodd" d="M890.1,316.8666666666667L890.1,225.13333333333333" style="opacity: 1; stroke: rgb(0, 0, 0); stroke-opacity: 1; fill: rgb(0, 0, 0); fill-opacity: 0; stroke-dasharray: 9px, 9px; stroke-width: 2px;"/></g><g class="shape-group" data-index="29" clip-path="url(#clipd9f15dx3)"><path data-index="29" fill-rule="evenodd" d="M890.1,443L890.1,351.26666666666665" style="opacity: 1; stroke: rgb(0, 0, 0); stroke-opacity: 1; fill: rgb(0, 0, 0); fill-opacity: 0; stroke-dasharray: 9px, 9px; stroke-width: 2px;"/></g><g class="shape-group" data-index="30" clip-path="url(#clipd9f15dx)"><path data-index="30" fill-rule="evenodd" d="M981,190.73333333333332L981,99" style="opacity: 1; stroke: rgb(0, 0, 0); stroke-opacity: 1; fill: rgb(0, 0, 0); fill-opacity: 0; stroke-dasharray: 9px, 9px; stroke-width: 2px;"/></g><g class="shape-group" data-index="31" clip-path="url(#clipd9f15dx2)"><path data-index="31" fill-rule="evenodd" d="M981,316.8666666666667L981,225.13333333333333" style="opacity: 1; stroke: rgb(0, 0, 0); stroke-opacity: 1; fill: rgb(0, 0, 0); fill-opacity: 0; stroke-dasharray: 9px, 9px; stroke-width: 2px;"/></g><g class="shape-group" data-index="32" clip-path="url(#clipd9f15dx3)"><path data-index="32" fill-rule="evenodd" d="M981,443L981,351.26666666666665" style="opacity: 1; stroke: rgb(0, 0, 0); stroke-opacity: 1; fill: rgb(0, 0, 0); fill-opacity: 0; stroke-dasharray: 9px, 9px; stroke-width: 2px;"/></g></g></g><g class="infolayer"><g class="legend" pointer-events="all" transform="translate(78.88999999999999,0)"><rect class="bg" shape-rendering="crispEdges" style="stroke: rgb(0, 0, 0); stroke-opacity: 1; fill: rgb(255, 255, 255); fill-opacity: 1; stroke-width: 2px;" width="892" height="70" x="1" y="1"/><g class="scrollbox" transform="" clip-path="url(#legendd9f15d)"><g class="groups"><g class="traces" transform="translate(2,21.5)" style="opacity: 1;"><text class="legendtext" text-anchor="start" x="40" y="7.8" style="font-family: 'Open Sans', verdana, arial, sans-serif; font-size: 20px; fill: rgb(42, 63, 95); fill-opacity: 1; white-space: pre;">OS N: 400.0</text><g class="layers" style="opacity: 1;"><g class="legendfill"/><g class="legendlines"><path class="js-line" d="M5,0h30" style="fill: none; stroke: rgb(12, 51, 131); stroke-opacity: 1; stroke-width: 2px;"/></g><g class="legendsymbols"><g class="legendpoints"/></g></g><rect class="legendtoggle" x="0" y="-14.5" width="168.15625" height="29" style="fill: rgb(0, 0, 0); fill-opacity: 0;"/></g><g class="traces" transform="translate(181.75,21.5)" style="opacity: 1;"><text class="legendtext" text-anchor="start" x="40" y="7.8" style="font-family: 'Open Sans', verdana, arial, sans-serif; font-size: 20px; fill: rgb(42, 63, 95); fill-opacity: 1; white-space: pre;">OS N: 325.0</text><g class="layers" style="opacity: 1;"><g class="legendfill"/><g class="legendlines"><path class="js-line" d="M5,0h30" style="fill: none; stroke: rgb(11, 94, 158); stroke-opacity: 1; stroke-width: 2px;"/></g><g class="legendsymbols"><g class="legendpoints"/></g></g><rect class="legendtoggle" x="0" y="-14.5" width="168.15625" height="29" style="fill: rgb(0, 0, 0); fill-opacity: 0;"/></g><g class="traces" transform="translate(361.5,21.5)" style="opacity: 1;"><text class="legendtext" text-anchor="start" x="40" y="7.8" style="font-family: 'Open Sans', verdana, arial, sans-serif; font-size: 20px; fill: rgb(42, 63, 95); fill-opacity: 1; white-space: pre;">OS N: 250.0</text><g class="layers" style="opacity: 1;"><g class="legendfill"/><g class="legendlines"><path class="js-line" d="M5,0h30" style="fill: none; stroke: rgb(10, 136, 186); stroke-opacity: 1; stroke-width: 2px;"/></g><g class="legendsymbols"><g class="legendpoints"/></g></g><rect class="legendtoggle" x="0" y="-14.5" width="168.15625" height="29" style="fill: rgb(0, 0, 0); fill-opacity: 0;"/></g><g class="traces" transform="translate(541.25,21.5)" style="opacity: 1;"><text class="legendtext" text-anchor="start" x="40" y="7.8" style="font-family: 'Open Sans', verdana, arial, sans-serif; font-size: 20px; fill: rgb(42, 63, 95); fill-opacity: 1; white-space: pre;">OS N: 175.0</text><g class="layers" style="opacity: 1;"><g class="legendfill"/><g class="legendlines"><path class="js-line" d="M5,0h30" style="fill: none; stroke: rgb(126, 174, 121); stroke-opacity: 1; stroke-width: 2px;"/></g><g class="legendsymbols"><g class="legendpoints"/></g></g><rect class="legendtoggle" x="0" y="-14.5" width="168.15625" height="29" style="fill: rgb(0, 0, 0); fill-opacity: 0;"/></g><g class="traces" transform="translate(721,21.5)" style="opacity: 1;"><text class="legendtext" text-anchor="start" x="40" y="7.8" style="font-family: 'Open Sans', verdana, arial, sans-serif; font-size: 20px; fill: rgb(42, 63, 95); fill-opacity: 1; white-space: pre;">OS N: 100.0</text><g class="layers" style="opacity: 1;"><g class="legendfill"/><g class="legendlines"><path class="js-line" d="M5,0h30" style="fill: none; stroke: rgb(242, 211, 56); stroke-opacity: 1; stroke-width: 2px;"/></g><g class="legendsymbols"><g class="legendpoints"/></g></g><rect class="legendtoggle" x="0" y="-14.5" width="168.15625" height="29" style="fill: rgb(0, 0, 0); fill-opacity: 0;"/></g><g class="traces" transform="translate(2,50.5)" style="opacity: 1;"><text class="legendtext" text-anchor="start" x="40" y="7.8" style="font-family: 'Open Sans', verdana, arial, sans-serif; font-size: 20px; fill: rgb(42, 63, 95); fill-opacity: 1; white-space: pre;">OS N: 25.0</text><g class="layers" style="opacity: 1;"><g class="legendfill"/><g class="legendlines"><path class="js-line" d="M5,0h30" style="fill: none; stroke: rgb(242, 177, 56); stroke-opacity: 1; stroke-width: 2px;"/></g><g class="legendsymbols"><g class="legendpoints"/></g></g><rect class="legendtoggle" x="0" y="-14.5" width="155.453125" height="29" style="fill: rgb(0, 0, 0); fill-opacity: 0;"/></g><g class="traces" transform="translate(181.75,50.5)" style="opacity: 1;"><text class="legendtext" text-anchor="start" x="40" y="7.8" style="font-family: 'Open Sans', verdana, arial, sans-serif; font-size: 20px; fill: rgb(42, 63, 95); fill-opacity: 1; white-space: pre;">OS N: -50.0</text><g class="layers" style="opacity: 1;"><g class="legendfill"/><g class="legendlines"><path class="js-line" d="M5,0h30" style="fill: none; stroke: rgb(242, 143, 56); stroke-opacity: 1; stroke-width: 2px;"/></g><g class="legendsymbols"><g class="legendpoints"/></g></g><rect class="legendtoggle" x="0" y="-14.5" width="164.53125" height="29" style="fill: rgb(0, 0, 0); fill-opacity: 0;"/></g><g class="traces" transform="translate(361.5,50.5)" style="opacity: 1;"><text class="legendtext" text-anchor="start" x="40" y="7.8" style="font-family: 'Open Sans', verdana, arial, sans-serif; font-size: 20px; fill: rgb(42, 63, 95); fill-opacity: 1; white-space: pre;">OS N: -125.0</text><g class="layers" style="opacity: 1;"><g class="legendfill"/><g class="legendlines"><path class="js-line" d="M5,0h30" style="fill: none; stroke: rgb(229, 86, 43); stroke-opacity: 1; stroke-width: 2px;"/></g><g class="legendsymbols"><g class="legendpoints"/></g></g><rect class="legendtoggle" x="0" y="-14.5" width="177.25" height="29" style="fill: rgb(0, 0, 0); fill-opacity: 0;"/></g><g class="traces" transform="translate(541.25,50.5)" style="opacity: 1;"><text class="legendtext" text-anchor="start" x="40" y="7.8" style="font-family: 'Open Sans', verdana, arial, sans-serif; font-size: 20px; fill: rgb(42, 63, 95); fill-opacity: 1; white-space: pre;">OS N: -200.0</text><g class="layers" style="opacity: 1;"><g class="legendfill"/><g class="legendlines"><path class="js-line" d="M5,0h30" style="fill: none; stroke: rgb(217, 30, 30); stroke-opacity: 1; stroke-width: 2px;"/></g><g class="legendsymbols"><g class="legendpoints"/></g></g><rect class="legendtoggle" x="0" y="-14.5" width="177.25" height="29" style="fill: rgb(0, 0, 0); fill-opacity: 0;"/></g></g></g><rect class="scrollbar" rx="20" ry="3" width="0" height="0" style="fill: rgb(128, 139, 164); fill-opacity: 1;" x="0" y="0"/></g><g class="g-gtitle"/><g class="g-xtitle"/><g class="g-x2title"/><g class="g-x3title" transform="translate(0,-4.300000000000011)"><text class="x3title" x="526.5" y="499.3" text-anchor="middle" style="opacity: 1; font-family: 'Open Sans', verdana, arial, sans-serif; font-size: 24px; fill: rgb(42, 63, 95); fill-opacity: 1; white-space: pre;">Time [s]</text></g><g class="g-ytitle"><text class="ytitle" transform="rotate(-90,34.38125,144.86666666666667)" x="34.38125" y="144.86666666666667" text-anchor="middle" style="opacity: 1; font-family: 'Open Sans', verdana, arial, sans-serif; font-size: 24px; fill: rgb(42, 63, 95); fill-opacity: 1; white-space: pre;">\(v\) [m/s]</text></g><g class="g-y2title" transform="translate(5.994140625,0)"><text class="y2title" transform="rotate(-90,18.00625,271)" x="18.00625" y="271" text-anchor="middle" style="opacity: 1; font-family: 'Open Sans', verdana, arial, sans-serif; font-size: 24px; fill: rgb(42, 63, 95); fill-opacity: 1; white-space: pre;">\(\dot\chi\) [deg/s]</text></g><g class="g-y3title" transform="translate(15.064453125,0)"><text class="y3title" transform="rotate(-90,8.943750000000001,397.1333333333333)" x="8.943750000000001" y="397.1333333333333" text-anchor="middle" style="opacity: 1; font-family: 'Open Sans', verdana, arial, sans-serif; font-size: 24px; fill: rgb(42, 63, 95); fill-opacity: 1; white-space: pre;">XTE [m]</text></g><g class="annotation" data-index="0" style="opacity: 1;"><g class="annotation-text-g" transform="rotate(0,526.5,87.5)"><g class="cursor-pointer" transform="translate(500,76)"><rect class="bg" x="0.5" y="0.5" width="53" height="22" style="stroke-width: 1px; stroke: rgb(0, 0, 0); stroke-opacity: 0; fill: rgb(0, 0, 0); fill-opacity: 0;"/><text class="annotation-text" text-anchor="middle" x="26.96875" y="18" style="font-family: 'Open Sans', verdana, arial, sans-serif; font-size: 16px; fill: rgb(42, 63, 95); fill-opacity: 1; white-space: pre;">Speed</text></g></g></g><g class="annotation" data-index="1" style="opacity: 1;"><g class="annotation-text-g" transform="rotate(0,526.5,213.63333333333333)"><g class="cursor-pointer" transform="translate(454,202)"><rect class="bg" x="0.5" y="0.5" width="145" height="22" style="stroke-width: 1px; stroke: rgb(0, 0, 0); stroke-opacity: 0; fill: rgb(0, 0, 0); fill-opacity: 0;"/><text class="annotation-text" text-anchor="middle" x="73" y="18" style="font-family: 'Open Sans', verdana, arial, sans-serif; font-size: 16px; fill: rgb(42, 63, 95); fill-opacity: 1; white-space: pre;">Change in Course</text></g></g></g><g class="annotation" data-index="2" style="opacity: 1;"><g class="annotation-text-g" transform="rotate(0,526.5,339.76666666666665)"><g class="cursor-pointer" transform="translate(456,328)"><rect class="bg" x="0.5" y="0.5" width="141" height="22" style="stroke-width: 1px; stroke: rgb(0, 0, 0); stroke-opacity: 0; fill: rgb(0, 0, 0); fill-opacity: 0;"/><text class="annotation-text" text-anchor="middle" x="71.109375" y="18" style="font-family: 'Open Sans', verdana, arial, sans-serif; font-size: 16px; fill: rgb(42, 63, 95); fill-opacity: 1; white-space: pre;">Cross Track Error</text></g></g></g></g></svg>