<svg class="main-svg" xmlns="http://www.w3.org/2000/svg" xmlns:xlink="http://www.w3.org/1999/xlink" width="1000" height="1300" style="" viewBox="0 0 1000 1300"><rect x="0" y="0" width="1000" height="1300" style="fill: rgb(255, 255, 255); fill-opacity: 1;"/><defs id="defs-bb9371"><g class="clips"><clipPath id="clipbb9371xyplot" class="plotclip"><rect width="867" height="1119"/></clipPath><clipPath class="axesclip" id="clipbb9371x"><rect x="117" y="0" width="867" height="1300"/></clipPath><clipPath class="axesclip" id="clipbb9371y"><rect x="0" y="116" width="1000" height="1119"/></clipPath><clipPath class="axesclip" id="clipbb9371xy"><rect x="117" y="116" width="867" height="1119"/></clipPath></g><g class="gradients"/><g class="patterns"/></defs><g class="bglayer"/><g class="layer-below"><g class="imagelayer"/><g class="shapelayer"/></g><g class="cartesianlayer"><g class="subplot xy"><g class="layer-subplot"><g class="shapelayer"/><g class="imagelayer"/></g><g class="minor-gridlayer"><g class="x"/><g class="y"/></g><g class="gridlayer"><g class="x"><path class="xgrid crisp" transform="translate(130.98,0)" d="M0,116v1119" style="stroke: rgb(200, 200, 200); stroke-opacity: 1; stroke-width: 1px;"/><path class="xgrid crisp" transform="translate(270.82,0)" d="M0,116v1119" style="stroke: rgb(200, 200, 200); stroke-opacity: 1; stroke-width: 1px;"/><path class="xgrid crisp" transform="translate(410.66,0)" d="M0,116v1119" style="stroke: rgb(200, 200, 200); stroke-opacity: 1; stroke-width: 1px;"/><path class="xgrid crisp" transform="translate(690.34,0)" d="M0,116v1119" style="stroke: rgb(200, 200, 200); stroke-opacity: 1; stroke-width: 1px;"/><path class="xgrid crisp" transform="translate(830.18,0)" d="M0,116v1119" style="stroke: rgb(200, 200, 200); stroke-opacity: 1; stroke-width: 1px;"/><path class="xgrid crisp" transform="translate(970.02,0)" d="M0,116v1119" style="stroke: rgb(200, 200, 200); stroke-opacity: 1; stroke-width: 1px;"/></g><g class="y"><path class="ygrid crisp" transform="translate(0,1122.98)" d="M117,0h867" style="stroke: rgb(200, 200, 200); stroke-opacity: 1; stroke-width: 1px;"/><path class="ygrid crisp" transform="translate(0,983.15)" d="M117,0h867" style="stroke: rgb(200, 200, 200); stroke-opacity: 1; stroke-width: 1px;"/><path class="ygrid crisp" transform="translate(0,843.31)" d="M117,0h867" style="stroke: rgb(200, 200, 200); stroke-opacity: 1; stroke-width: 1px;"/><path class="ygrid crisp" transform="translate(0,563.63)" d="M117,0h867" style="stroke: rgb(200, 200, 200); stroke-opacity: 1; stroke-width: 1px;"/><path class="ygrid crisp" transform="translate(0,423.79)" d="M117,0h867" style="stroke: rgb(200, 200, 200); stroke-opacity: 1; stroke-width: 1px;"/><path class="ygrid crisp" transform="translate(0,283.95)" d="M117,0h867" style="stroke: rgb(200, 200, 200); stroke-opacity: 1; stroke-width: 1px;"/><path class="ygrid crisp" transform="translate(0,144.11)" d="M117,0h867" style="stroke: rgb(200, 200, 200); stroke-opacity: 1; stroke-width: 1px;"/></g></g><g class="zerolinelayer"><path class="xzl zl crisp" transform="translate(550.5,0)" d="M0,116v1119" style="stroke: rgb(200, 200, 200); stroke-opacity: 1; stroke-width: 2px;"/><path class="yzl zl crisp" transform="translate(0,703.47)" d="M117,0h867" style="stroke: rgb(200, 200, 200); stroke-opacity: 1; stroke-width: 2px;"/></g><g class="layer-between"><g class="shapelayer"/><g class="imagelayer"/></g><path class="xlines-below"/><path class="ylines-below"/><g class="overlines-below"/><g class="xaxislayer-below"/><g class="yaxislayer-below"/><g class="overaxes-below"/><g class="overplot"><g class="xy" transform="translate(117,116)" clip-path="url(#clipbb9371xyplot)"><g class="scatterlayer mlayer"><g class="trace scatter trace88a33a" style="stroke-miterlimit: 2; opacity: 1;"><g class="fills"/><g class="errorbars"/><g class="lines"><path class="js-line" d="M13.98,475.6L853.02,475.6" style="vector-effect: none; fill: none; stroke: rgb(0, 0, 0); stroke-opacity: 1; stroke-width: 2px; opacity: 1;"/></g><g class="points"/><g class="text"/></g><g class="trace scatter trace9fa3a3" style="stroke-miterlimit: 2; opacity: 1;"><g class="fills"/><g class="errorbars"/><g class="lines"><path class="js-line" d="M13.98,475.6L853.02,475.6" style="vector-effect: none; fill: none; stroke: rgb(100, 143, 255); stroke-opacity: 1; stroke-width: 2px; opacity: 1;"/></g><g class="points"/><g class="text"/></g><g class="trace scatter trace4fea42" style="stroke-miterlimit: 2; opacity: 1;"><g class="fills"/><g class="errorbars"/><g class="lines"/><g class="points"><path class="point" transform="translate(13.98,475.6)" d="M-3.2500000000000004,-7.51L-3.2499999999999996,7.51L6.5,-3.9801020972288977e-16Z" style="opacity: 1; stroke-width: 0px; fill: rgb(12, 51, 131); fill-opacity: 1;"/><path class="point" transform="translate(114.67,475.6)" d="M-3.2500000000104095,-7.509999999995495L-3.2499999999895905,7.510000000004505L6.5,-9.009413765833018e-12Z" style="opacity: 1; stroke-width: 0px; fill: rgb(11, 94, 159); fill-opacity: 1;"/><path class="point" transform="translate(215.35,475.6)" d="M-3.25000000038389,-7.509999999833869L-3.24999999961611,7.510000000166131L6.5,-3.322616165487862e-10Z" style="opacity: 1; stroke-width: 0px; fill: rgb(10, 136, 186); fill-opacity: 1;"/><path class="point" transform="translate(316.04,475.6)" d="M-3.250000000041561,-7.509999999982014L-3.249999999958439,7.510000000017985L6.5,-3.597151298576233e-11Z" style="opacity: 1; stroke-width: 0px; fill: rgb(126, 174, 121); fill-opacity: 1;"/><path class="point" transform="translate(416.72,475.6)" d="M-3.2500000000000004,-7.51L-3.2499999999999996,7.51L6.5,-3.9801020972288977e-16Z" style="opacity: 1; stroke-width: 0px; fill: rgb(242, 211, 56); fill-opacity: 1;"/><path class="point" transform="translate(517.4,475.6)" d="M-3.2500000000000004,-7.51L-3.2499999999999996,7.51L6.5,-3.9801020972288977e-16Z" style="opacity: 1; stroke-width: 0px; fill: rgb(242, 177, 56); fill-opacity: 1;"/><path class="point" transform="translate(618.09,475.6)" d="M-3.2499999998607327,-7.510000000060269L-3.2500000001392673,7.509999999939731L6.5,1.2053740395176323e-10Z" style="opacity: 1; stroke-width: 0px; fill: rgb(242, 143, 56); fill-opacity: 1;"/><path class="point" transform="translate(718.77,475.6)" d="M-3.249999999961927,-7.510000000016476L-3.250000000038073,7.509999999983523L6.5,3.295279771750433e-11Z" style="opacity: 1; stroke-width: 0px; fill: rgb(230, 87, 43); fill-opacity: 1;"/><path class="point" transform="translate(819.45,475.6)" d="M-3.2500000000000004,-7.51L-3.2499999999999996,7.51L6.5,-3.9801020972288977e-16Z" style="opacity: 1; stroke-width: 0px; fill: rgb(217, 30, 30); fill-opacity: 1;"/></g><g class="text"/></g><g class="trace scatter tracea7dd0b" style="stroke-miterlimit: 2; opacity: 1;"><g class="fills"/><g class="errorbars"/><g class="lines"><path class="js-line" d="M13.98,496.57L853.02,496.57" style="vector-effect: none; fill: none; stroke: rgb(0, 0, 0); stroke-opacity: 1; stroke-width: 2px; opacity: 1;"/></g><g class="points"/><g class="text"/></g><g class="trace scatter trace1340b4" style="stroke-miterlimit: 2; opacity: 1;"><g class="fills"/><g class="errorbars"/><g class="lines"><path class="js-line" d="M13.98,496.57L853.02,496.57" style="vector-effect: none; fill: none; stroke: rgb(100, 143, 255); stroke-opacity: 1; stroke-width: 2px; opacity: 1;"/></g><g class="points"/><g class="text"/></g><g class="trace scatter tracee7d3b1" style="stroke-miterlimit: 2; opacity: 1;"><g class="fills"/><g class="errorbars"/><g class="lines"/><g class="points"><path class="point" transform="translate(13.98,496.57)" d="M-3.2500000000000004,-7.51L-3.2499999999999996,7.51L6.5,-3.9801020972288977e-16Z" style="opacity: 1; stroke-width: 0px; fill: rgb(12, 51, 131); fill-opacity: 1;"/><path class="point" transform="translate(114.67,496.57)" d="M-3.250000000000299,-7.50999999999987L-3.249999999999701,7.5100000000001295L6.5,-2.587469080399968e-13Z" style="opacity: 1; stroke-width: 0px; fill: rgb(11, 94, 159); fill-opacity: 1;"/><path class="point" transform="translate(215.35,496.57)" d="M-3.2500000000099023,-7.509999999995714L-3.2499999999900977,7.510000000004285L6.5,-8.570653626501156e-12Z" style="opacity: 1; stroke-width: 0px; fill: rgb(10, 136, 186); fill-opacity: 1;"/><path class="point" transform="translate(316.04,496.57)" d="M-3.250000000001096,-7.5099999999995255L-3.249999999998904,7.510000000000474L6.5,-9.486394955420692e-13Z" style="opacity: 1; stroke-width: 0px; fill: rgb(126, 174, 121); fill-opacity: 1;"/><path class="point" transform="translate(416.72,496.57)" d="M-3.249999999999992,-7.510000000000003L-3.250000000000008,7.509999999999996L6.5,6.818439450340628e-15Z" style="opacity: 1; stroke-width: 0px; fill: rgb(242, 211, 56); fill-opacity: 1;"/><path class="point" transform="translate(517.4,496.57)" d="M-3.249999999999992,-7.510000000000003L-3.250000000000008,7.509999999999996L6.5,6.818439450340628e-15Z" style="opacity: 1; stroke-width: 0px; fill: rgb(242, 177, 56); fill-opacity: 1;"/><path class="point" transform="translate(618.09,496.57)" d="M-3.249999999994034,-7.510000000002582L-3.250000000005966,7.509999999997418L6.5,5.1636933665317305e-12Z" style="opacity: 1; stroke-width: 0px; fill: rgb(242, 143, 56); fill-opacity: 1;"/><path class="point" transform="translate(718.77,496.57)" d="M-3.2499999999983613,-7.5100000000007086L-3.2500000000016387,7.509999999999291L6.5,1.4183559929587645e-12Z" style="opacity: 1; stroke-width: 0px; fill: rgb(230, 87, 43); fill-opacity: 1;"/><path class="point" transform="translate(819.45,496.57)" d="M-3.2500000000000004,-7.51L-3.2499999999999996,7.51L6.5,-3.9801020972288977e-16Z" style="opacity: 1; stroke-width: 0px; fill: rgb(217, 30, 30); fill-opacity: 1;"/></g><g class="text"/></g><g class="trace scatter trace0bcf1d" style="stroke-miterlimit: 2; opacity: 1;"><g class="fills"/><g class="errorbars"/><g class="lines"><path class="js-line" d="M13.98,517.55L853.02,517.55" style="vector-effect: none; fill: none; stroke: rgb(0, 0, 0); stroke-opacity: 1; stroke-width: 2px; opacity: 1;"/></g><g class="points"/><g class="text"/></g><g class="trace scatter trace6f2ec9" style="stroke-miterlimit: 2; opacity: 1;"><g class="fills"/><g class="errorbars"/><g class="lines"><path class="js-line" d="M13.98,517.55L707.52,517.59" style="vector-effect: none; fill: none; stroke: rgb(100, 143, 255); stroke-opacity: 1; stroke-width: 2px; opacity: 1;"/></g><g class="points"/><g class="text"/></g><g class="trace scatter trace7ffa98" style="stroke-miterlimit: 2; opacity: 1;"><g class="fills"/><g class="errorbars"/><g class="lines"/><g class="points"><path class="point" transform="translate(13.98,517.55)" d="M-3.2500000000000004,-7.51L-3.2499999999999996,7.51L6.5,-3.9801020972288977e-16Z" style="opacity: 1; stroke-width: 0px; fill: rgb(12, 51, 131); fill-opacity: 1;"/><path class="point" transform="translate(113.91,517.68)" d="M-3.2237414599998626,-7.521309128009428L-3.276218867500524,7.498599197999156L6.4999603275003865,0.022709930010272748Z" style="opacity: 1; stroke-width: 0px; fill: rgb(11, 94, 159); fill-opacity: 1;"/><path class="point" transform="translate(147.09,517.79)" d="M-3.251381664554733,-7.509401925013555L-3.248618225432445,7.510597820772202L6.499999889987178,-0.0011958957586465622Z" style="opacity: 1; stroke-width: 0px; fill: rgb(10, 136, 186); fill-opacity: 1;"/><path class="point" transform="translate(174.31,517.8)" d="M-3.250755911270094,-7.509672829447535L-3.2492440558020057,7.510327094463685L6.4999999670721,-0.0006542650161500067Z" style="opacity: 1; stroke-width: 0px; fill: rgb(126, 174, 121); fill-opacity: 1;"/><path class="point" transform="translate(271.23,517.8)" d="M-3.2500000317672164,-7.509999986252536L-3.2499999682327836,7.510000013747463L6.5,-2.7494927621880247e-8Z" style="opacity: 1; stroke-width: 0px; fill: rgb(242, 211, 56); fill-opacity: 1;"/><path class="point" transform="translate(371.91,517.8)" d="M-3.2500003386819354,-7.509999853433242L-3.2499996613180584,7.510000146566743L6.499999999999994,-2.9313350187020817e-7Z" style="opacity: 1; stroke-width: 0px; fill: rgb(242, 177, 56); fill-opacity: 1;"/><path class="point" transform="translate(472.59,517.74)" d="M-3.2622751542434267,-7.504675930245492L-3.237716156851514,7.515303991700048L6.4999913110949405,-0.010628061454556009Z" style="opacity: 1; stroke-width: 0px; fill: rgb(242, 143, 56); fill-opacity: 1;"/><path class="point" transform="translate(573.28,517.6)" d="M-3.2533505750603164,-7.508549129875539L-3.246648777907215,7.5114493749817415L6.4999993529675315,-0.0029002451062024003Z" style="opacity: 1; stroke-width: 0px; fill: rgb(230, 87, 43); fill-opacity: 1;"/><path class="point" transform="translate(673.96,517.59)" d="M-3.249999889004969,-7.510000048033801L-3.25000011099503,7.509999951966197L6.499999999999999,9.606760302983049e-8Z" style="opacity: 1; stroke-width: 0px; fill: rgb(217, 30, 30); fill-opacity: 1;"/></g><g class="text"/></g><g class="trace scatter trace02392c" style="stroke-miterlimit: 2; opacity: 1;"><g class="fills"/><g class="errorbars"/><g class="lines"><path class="js-line" d="M13.98,538.52L853.02,538.52" style="vector-effect: none; fill: none; stroke: rgb(0, 0, 0); stroke-opacity: 1; stroke-width: 2px; opacity: 1;"/></g><g class="points"/><g class="text"/></g><g class="trace scatter trace5ec54f" style="stroke-miterlimit: 2; opacity: 1;"><g class="fills"/><g class="errorbars"/><g class="lines"><path class="js-line" d="M13.98,538.52L131.74,539.15L134.52,539.32L153.78,541.37L156.5,541.81L169.92,544.71L172.56,545.44L185.5,549.95L188.03,551.01L202.9,558.24L205.33,559.55L244.35,580.31L246.87,581.4L259.76,586.05L262.4,586.81L278.5,590.3L281.22,590.72L300.51,592.65L303.29,592.8L328.46,593.34L331.27,593.35L538.82,592.71L541.61,592.55L560.92,590.57L563.65,590.14L579.81,586.69L582.46,585.95L595.47,581.45L598.03,580.41L615.62,572.31L618.11,571.08L650.64,555.63L653.2,554.61L666.25,550.23L668.91,549.52L685.11,546.2L687.84,545.8L707.17,543.93L709.96,543.78L737.93,543.21L740.74,543.21L827.73,543.21" style="vector-effect: none; fill: none; stroke: rgb(100, 143, 255); stroke-opacity: 1; stroke-width: 2px; opacity: 1;"/></g><g class="points"/><g class="text"/></g><g class="trace scatter traceb4648d" style="stroke-miterlimit: 2; opacity: 1;"><g class="fills"/><g class="errorbars"/><g class="lines"/><g class="points"><path class="point" transform="translate(13.98,538.52)" d="M-3.2500000000000004,-7.51L-3.2499999999999996,7.51L6.5,-3.9801020972288977e-16Z" style="opacity: 1; stroke-width: 0px; fill: rgb(12, 51, 131); fill-opacity: 1;"/><path class="point" transform="translate(114.66,538.6)" d="M-3.1481180788583587,-7.55327429407705L-3.351287247118441,7.4653515514878L6.4994053259768,0.08792274258925016Z" style="opacity: 1; stroke-width: 0px; fill: rgb(11, 94, 159); fill-opacity: 1;"/><path class="point" transform="translate(209.6,561.89)" d="M0.8021004952363788,-8.143662247142961L-6.4856984981875065,4.989821138137952L5.683598002951127,3.1538411090050102Z" style="opacity: 1; stroke-width: 0px; fill: rgb(10, 136, 186); fill-opacity: 1;"/><path class="point" transform="translate(302.29,592.75)" d="M-2.839587552792706,-7.674590707655017L-3.6509225595226096,7.323480351879758L6.490510112315316,0.3511103557752578Z" style="opacity: 1; stroke-width: 0px; fill: rgb(126, 174, 121); fill-opacity: 1;"/><path class="point" transform="translate(402.88,593.35)" d="M-3.250009850374155,-7.509995737180612L-3.249990149620254,7.5100042628064685L6.499999999994409,-0.000008525625856133139Z" style="opacity: 1; stroke-width: 0px; fill: rgb(242, 211, 56); fill-opacity: 1;"/><path class="point" transform="translate(503.56,593.35)" d="M-3.2500474844047127,-7.509979450645294L-3.2499525154653583,7.510020549054469L6.499999999870071,-0.00004109840917477996Z" style="opacity: 1; stroke-width: 0px; fill: rgb(242, 177, 56); fill-opacity: 1;"/><path class="point" transform="translate(601.28,579.03)" d="M-5.973571537137428,-5.592767033472929L0.011995650582707018,8.18305909207352L5.961575886554721,-2.5902920586005913Z" style="opacity: 1; stroke-width: 0px; fill: rgb(242, 143, 56); fill-opacity: 1;"/><path class="point" transform="translate(693.77,545.05)" d="M-4.0614663179235,-7.104019379785849L-2.3985752872468513,7.82364599093087L6.4600416051703515,-0.7196266111450212Z" style="opacity: 1; stroke-width: 0px; fill: rgb(230, 87, 43); fill-opacity: 1;"/><path class="point" transform="translate(794.17,543.21)" d="M-3.249986304573327,-7.510005926767688L-3.250013695415865,7.509994073207336L6.499999999989192,0.000011853560352754296Z" style="opacity: 1; stroke-width: 0px; fill: rgb(217, 30, 30); fill-opacity: 1;"/></g><g class="text"/></g><g class="trace scatter trace71cbd2" style="stroke-miterlimit: 2; opacity: 1;"><g class="fills"/><g class="errorbars"/><g class="lines"><path class="js-line" d="M13.98,559.5L853.02,559.5" style="vector-effect: none; fill: none; stroke: rgb(0, 0, 0); stroke-opacity: 1; stroke-width: 2px; opacity: 1;"/></g><g class="points"/><g class="text"/></g><g class="trace scatter trace38db02" style="stroke-miterlimit: 2; opacity: 1;"><g class="fills"/><g class="errorbars"/><g class="lines"><path class="js-line" d="M13.98,559.5L708,559.5" style="vector-effect: none; fill: none; stroke: rgb(100, 143, 255); stroke-opacity: 1; stroke-width: 2px; opacity: 1;"/></g><g class="points"/><g class="text"/></g><g class="trace scatter trace648dc5" style="stroke-miterlimit: 2; opacity: 1;"><g class="fills"/><g class="errorbars"/><g class="lines"/><g class="points"><path class="point" transform="translate(13.98,559.5)" d="M-3.2500000000000004,-7.51L-3.2499999999999996,7.51L6.5,-3.9801020972288977e-16Z" style="opacity: 1; stroke-width: 0px; fill: rgb(12, 51, 131); fill-opacity: 1;"/><path class="point" transform="translate(114.18,559.5)" d="M-3.250000000001975,-7.509999999999145L-3.249999999998025,7.510000000000854L6.5,-1.709253289712764e-12Z" style="opacity: 1; stroke-width: 0px; fill: rgb(11, 94, 159); fill-opacity: 1;"/><path class="point" transform="translate(147.59,559.5)" d="M-3.2499999998865867,-7.5100000000490805L-3.2500000001134133,7.509999999950919L6.5,9.816063684583827e-11Z" style="opacity: 1; stroke-width: 0px; fill: rgb(10, 136, 186); fill-opacity: 1;"/><path class="point" transform="translate(174.78,559.5)" d="M-3.2500000000096123,-7.5099999999958404L-3.2499999999903877,7.510000000004159L6.5,-8.319521178330946e-12Z" style="opacity: 1; stroke-width: 0px; fill: rgb(126, 174, 121); fill-opacity: 1;"/><path class="point" transform="translate(271.7,559.5)" d="M-3.2500000000000004,-7.51L-3.2499999999999996,7.51L6.5,-3.9801020972288977e-16Z" style="opacity: 1; stroke-width: 0px; fill: rgb(242, 211, 56); fill-opacity: 1;"/><path class="point" transform="translate(372.39,559.5)" d="M-3.2500000000000004,-7.51L-3.2499999999999996,7.51L6.5,-3.9801020972288977e-16Z" style="opacity: 1; stroke-width: 0px; fill: rgb(242, 177, 56); fill-opacity: 1;"/><path class="point" transform="translate(473.07,559.5)" d="M-3.2500000001283174,-7.50999999994447L-3.2499999998716826,7.51000000005553L6.5,-1.1106011498865524e-10Z" style="opacity: 1; stroke-width: 0px; fill: rgb(242, 143, 56); fill-opacity: 1;"/><path class="point" transform="translate(573.75,559.5)" d="M-3.250000000035004,-7.509999999984852L-3.249999999964996,7.510000000015148L6.5,-3.029649697308838e-11Z" style="opacity: 1; stroke-width: 0px; fill: rgb(230, 87, 43); fill-opacity: 1;"/><path class="point" transform="translate(674.44,559.5)" d="M-3.2500000000000004,-7.51L-3.2499999999999996,7.51L6.5,-3.9801020972288977e-16Z" style="opacity: 1; stroke-width: 0px; fill: rgb(217, 30, 30); fill-opacity: 1;"/></g><g class="text"/></g><g class="trace scatter trace5207a3" style="stroke-miterlimit: 2; opacity: 1;"><g class="fills"/><g class="errorbars"/><g class="lines"><path class="js-line" d="M13.98,580.48L853.02,580.48" style="vector-effect: none; fill: none; stroke: rgb(0, 0, 0); stroke-opacity: 1; stroke-width: 2px; opacity: 1;"/></g><g class="points"/><g class="text"/></g><g class="trace scatter trace9c1fb2" style="stroke-miterlimit: 2; opacity: 1;"><g class="fills"/><g class="errorbars"/><g class="lines"><path class="js-line" d="M13.98,580.48L143.01,581.16L145.81,581.3L170.87,583.38L173.64,583.73L192.92,586.91L195.66,587.46L228.37,595L231.09,595.65L258.44,601.44L261.19,601.91L283.35,604.7L286.14,604.94L311.28,606.26L314.08,606.33L358.96,606.59L361.77,606.59L560.95,605.89L563.74,605.75L588.82,603.7L591.59,603.37L613.66,599.77L616.4,599.23L682.18,585.86L684.94,585.49L707.2,583.34L709.99,583.16L737.98,582.21L740.78,582.17L847.41,582.09" style="vector-effect: none; fill: none; stroke: rgb(100, 143, 255); stroke-opacity: 1; stroke-width: 2px; opacity: 1;"/></g><g class="points"/><g class="text"/></g><g class="trace scatter trace991511" style="stroke-miterlimit: 2; opacity: 1;"><g class="fills"/><g class="errorbars"/><g class="lines"/><g class="points"><path class="point" transform="translate(13.98,580.48)" d="M-3.2500000000000155,-7.509999999999993L-3.2499999999999845,7.510000000000007L6.5,-1.338761959783722e-14Z" style="opacity: 1; stroke-width: 0px; fill: rgb(12, 51, 131); fill-opacity: 1;"/><path class="point" transform="translate(114.67,580.51)" d="M-3.202615424862874,-7.530328972922125L-3.2972555428627186,7.489372863268398L6.499870967725593,0.040956109653727604Z" style="opacity: 1; stroke-width: 0px; fill: rgb(11, 94, 159); fill-opacity: 1;"/><path class="point" transform="translate(214.11,591.59)" d="M-1.4318995654138005,-8.056814732545845L-4.893157847061103,6.558933319050008L6.325057412474903,1.4978814134958367Z" style="opacity: 1; stroke-width: 0px; fill: rgb(10, 136, 186); fill-opacity: 1;"/><path class="point" transform="translate(313.07,606.31)" d="M-3.060658409234248,-7.589135003541819L-3.437297675101895,7.4261419790318515L6.497956084336143,0.16299302450996722Z" style="opacity: 1; stroke-width: 0px; fill: rgb(126, 174, 121); fill-opacity: 1;"/><path class="point" transform="translate(413.73,606.59)" d="M-3.2500072817720778,-7.509996848762885L-3.249992718224867,7.510003151230054L6.499999999996945,-0.000006302467168659128Z" style="opacity: 1; stroke-width: 0px; fill: rgb(242, 211, 56); fill-opacity: 1;"/><path class="point" transform="translate(514.42,606.59)" d="M-3.2500198752527654,-7.509991398827431L-3.2499801247244715,7.510008601119969L6.499999999977237,-0.00001720229253725548Z" style="opacity: 1; stroke-width: 0px; fill: rgb(242, 177, 56); fill-opacity: 1;"/><path class="point" transform="translate(614.42,599.62)" d="M-4.639345513349331,-6.740851074439001L-1.7382565984002796,7.9963156514808675L6.37760211174961,-1.2554645770418662Z" style="opacity: 1; stroke-width: 0px; fill: rgb(242, 143, 56); fill-opacity: 1;"/><path class="point" transform="translate(713.23,582.98)" d="M-3.642744625394532,-7.327551541555968L-2.8481534089188623,7.671415916195905L6.490898034313394,-0.343864374639937Z" style="opacity: 1; stroke-width: 0px; fill: rgb(230, 87, 43); fill-opacity: 1;"/><path class="point" transform="translate(813.85,582.09)" d="M-3.2499949692308014,-7.510002177095189L-3.25000503076774,7.509997822901441L6.499999999998542,0.000004354193748491676Z" style="opacity: 1; stroke-width: 0px; fill: rgb(217, 30, 30); fill-opacity: 1;"/></g><g class="text"/></g><g class="trace scatter trace9481fd" style="stroke-miterlimit: 2; opacity: 1;"><g class="fills"/><g class="errorbars"/><g class="lines"><path class="js-line" d="M13.98,601.45L853.02,601.45" style="vector-effect: none; fill: none; stroke: rgb(0, 0, 0); stroke-opacity: 1; stroke-width: 2px; opacity: 1;"/></g><g class="points"/><g class="text"/></g><g class="trace scatter traceb2b1d6" style="stroke-miterlimit: 2; opacity: 1;"><g class="fills"/><g class="errorbars"/><g class="lines"><path class="js-line" d="M13.98,601.45L162.69,602.12L165.49,602.21L204.7,604.34L207.5,604.55L277.46,609.19L280.27,609.29L325.14,610.06L327.95,610.07L535.6,610.08L538.41,610.07L591.7,609.14L594.5,609.02L636.5,606.47L639.29,606.27L698.09,602.74L700.89,602.65L745.77,601.96L748.58,601.96L852.41,601.94" style="vector-effect: none; fill: none; stroke: rgb(100, 143, 255); stroke-opacity: 1; stroke-width: 2px; opacity: 1;"/></g><g class="points"/><g class="text"/></g><g class="trace scatter trace337d3f" style="stroke-miterlimit: 2; opacity: 1;"><g class="fills"/><g class="errorbars"/><g class="lines"/><g class="points"><path class="point" transform="translate(13.98,601.45)" d="M-3.2500000000000004,-7.51L-3.2499999999999996,7.51L6.5,-3.9801020972288977e-16Z" style="opacity: 1; stroke-width: 0px; fill: rgb(12, 51, 131); fill-opacity: 1;"/><path class="point" transform="translate(114.67,601.46)" d="M-3.2344058948830616,-7.516729242639094L-3.265580104896398,7.503238406082058L6.49998599977946,0.013490836557036272Z" style="opacity: 1; stroke-width: 0px; fill: rgb(11, 94, 159); fill-opacity: 1;"/><path class="point" transform="translate(215.22,605.13)" d="M-2.6682200999906933,-7.7358387714588295L-3.8128770981626965,7.240481215658694L6.48109719815339,0.4953575558001346Z" style="opacity: 1; stroke-width: 0px; fill: rgb(10, 136, 186); fill-opacity: 1;"/><path class="point" transform="translate(315.71,610)" d="M-3.1879386042399274,-7.536554083637746L-3.3118402365957786,7.4829348685703L6.499778840835706,0.053619215067445825Z" style="opacity: 1; stroke-width: 0px; fill: rgb(126, 174, 121); fill-opacity: 1;"/><path class="point" transform="translate(416.4,610.09)" d="M-3.250003862679676,-7.50999832839976L-3.249996137319464,7.510001671598253L6.49999999999914,-0.0000033431984939972936Z" style="opacity: 1; stroke-width: 0px; fill: rgb(242, 211, 56); fill-opacity: 1;"/><path class="point" transform="translate(517.08,610.09)" d="M-3.2500066339552385,-7.509997129110433L-3.2499933660422258,7.5100028708837065L6.499999999997464,-0.000005741773274456711Z" style="opacity: 1; stroke-width: 0px; fill: rgb(242, 177, 56); fill-opacity: 1;"/><path class="point" transform="translate(617.69,607.78)" d="M-3.725226449572654,-7.285965131635226L-2.7613764697882415,7.703077306641797L6.486602919360895,-0.41711217500656994Z" style="opacity: 1; stroke-width: 0px; fill: rgb(242, 143, 56); fill-opacity: 1;"/><path class="point" transform="translate(718.17,602.23)" d="M-3.3810181755232427,-7.4519337152702505L-3.11798504819934,7.565762964777932L6.499003223722583,-0.11382924950768096Z" style="opacity: 1; stroke-width: 0px; fill: rgb(230, 87, 43); fill-opacity: 1;"/><path class="point" transform="translate(818.84,601.94)" d="M-3.249998451798397,-7.510000669993847L-3.2500015482014653,7.509999330005835L6.499999999999862,0.0000013399880120407112Z" style="opacity: 1; stroke-width: 0px; fill: rgb(217, 30, 30); fill-opacity: 1;"/></g><g class="text"/></g><g class="trace scatter trace34c09b" style="stroke-miterlimit: 2; opacity: 1;"><g class="fills"/><g class="errorbars"/><g class="lines"><path class="js-line" d="M13.98,622.43L853.02,622.43" style="vector-effect: none; fill: none; stroke: rgb(0, 0, 0); stroke-opacity: 1; stroke-width: 2px; opacity: 1;"/></g><g class="points"/><g class="text"/></g><g class="trace scatter trace9fb07a" style="stroke-miterlimit: 2; opacity: 1;"><g class="fills"/><g class="errorbars"/><g class="lines"><path class="js-line" d="M13.98,622.43L853.02,622.43" style="vector-effect: none; fill: none; stroke: rgb(100, 143, 255); stroke-opacity: 1; stroke-width: 2px; opacity: 1;"/></g><g class="points"/><g class="text"/></g><g class="trace scatter trace7e5c17" style="stroke-miterlimit: 2; opacity: 1;"><g class="fills"/><g class="errorbars"/><g class="lines"/><g class="points"><path class="point" transform="translate(13.98,622.43)" d="M-3.2500000000000004,-7.51L-3.2499999999999996,7.51L6.5,-3.9801020972288977e-16Z" style="opacity: 1; stroke-width: 0px; fill: rgb(12, 51, 131); fill-opacity: 1;"/><path class="point" transform="translate(114.67,622.43)" d="M-3.249999999968492,-7.510000000013635L-3.250000000031508,7.5099999999863645L6.5,2.7270565255170313e-11Z" style="opacity: 1; stroke-width: 0px; fill: rgb(11, 94, 159); fill-opacity: 1;"/><path class="point" transform="translate(215.35,622.43)" d="M-3.24999999884169,-7.5100000005012655L-3.25000000115831,7.509999999498734L6.5,1.0025318814047263e-9Z" style="opacity: 1; stroke-width: 0px; fill: rgb(10, 136, 186); fill-opacity: 1;"/><path class="point" transform="translate(316.04,622.43)" d="M-3.2499999998747255,-7.510000000054213L-3.2500000001252745,7.509999999945786L6.5,1.0842675813224463e-10Z" style="opacity: 1; stroke-width: 0px; fill: rgb(126, 174, 121); fill-opacity: 1;"/><path class="point" transform="translate(416.72,622.43)" d="M-3.250000000000009,-7.509999999999996L-3.249999999999991,7.510000000000003L6.5,-7.614459869786407e-15Z" style="opacity: 1; stroke-width: 0px; fill: rgb(242, 211, 56); fill-opacity: 1;"/><path class="point" transform="translate(517.4,622.43)" d="M-3.250000000000009,-7.509999999999996L-3.249999999999991,7.510000000000003L6.5,-7.614459869786407e-15Z" style="opacity: 1; stroke-width: 0px; fill: rgb(242, 177, 56); fill-opacity: 1;"/><path class="point" transform="translate(618.09,622.43)" d="M-3.2500000010119563,-7.509999999562069L-3.2499999989880437,7.51000000043793L6.5,-8.758608932521189e-10Z" style="opacity: 1; stroke-width: 0px; fill: rgb(242, 143, 56); fill-opacity: 1;"/><path class="point" transform="translate(718.77,622.43)" d="M-3.2500000002760125,-7.509999999880554L-3.2499999997239875,7.510000000119446L6.5,-2.388923042670204e-10Z" style="opacity: 1; stroke-width: 0px; fill: rgb(230, 87, 43); fill-opacity: 1;"/><path class="point" transform="translate(819.45,622.43)" d="M-3.2500000000000004,-7.51L-3.2499999999999996,7.51L6.5,-3.9801020972288977e-16Z" style="opacity: 1; stroke-width: 0px; fill: rgb(217, 30, 30); fill-opacity: 1;"/></g><g class="text"/></g><g class="trace scatter tracefe8b94" style="stroke-miterlimit: 2; opacity: 1;"><g class="fills"/><g class="errorbars"/><g class="lines"><path class="js-line" d="M13.98,643.4L853.02,643.4" style="vector-effect: none; fill: none; stroke: rgb(0, 0, 0); stroke-opacity: 1; stroke-width: 2px; opacity: 1;"/></g><g class="points"/><g class="text"/></g><g class="trace scatter trace939227" style="stroke-miterlimit: 2; opacity: 1;"><g class="fills"/><g class="errorbars"/><g class="lines"><path class="js-line" d="M13.98,643.4L853.02,643.4" style="vector-effect: none; fill: none; stroke: rgb(100, 143, 255); stroke-opacity: 1; stroke-width: 2px; opacity: 1;"/></g><g class="points"/><g class="text"/></g><g class="trace scatter traceab19c4" style="stroke-miterlimit: 2; opacity: 1;"><g class="fills"/><g class="errorbars"/><g class="lines"/><g class="points"><path class="point" transform="translate(13.98,643.4)" d="M-3.2500000000000004,-7.51L-3.2499999999999996,7.51L6.5,-3.9801020972288977e-16Z" style="opacity: 1; stroke-width: 0px; fill: rgb(12, 51, 131); fill-opacity: 1;"/><path class="point" transform="translate(114.67,643.4)" d="M-3.2499999999993303,-7.510000000000289L-3.2500000000006697,7.50999999999971L6.5,5.798045424593839e-13Z" style="opacity: 1; stroke-width: 0px; fill: rgb(11, 94, 159); fill-opacity: 1;"/><path class="point" transform="translate(215.35,643.4)" d="M-3.2499999999759277,-7.510000000010417L-3.2500000000240723,7.509999999989582L6.5,2.0834935448325665e-11Z" style="opacity: 1; stroke-width: 0px; fill: rgb(10, 136, 186); fill-opacity: 1;"/><path class="point" transform="translate(316.04,643.4)" d="M-3.2499999999973856,-7.510000000001131L-3.2500000000026144,7.509999999998868L6.5,2.262680603186196e-12Z" style="opacity: 1; stroke-width: 0px; fill: rgb(126, 174, 121); fill-opacity: 1;"/><path class="point" transform="translate(416.72,643.4)" d="M-3.2500000000000004,-7.51L-3.2499999999999996,7.51L6.5,-3.9801020972288977e-16Z" style="opacity: 1; stroke-width: 0px; fill: rgb(242, 211, 56); fill-opacity: 1;"/><path class="point" transform="translate(517.4,643.4)" d="M-3.2500000000000004,-7.51L-3.2499999999999996,7.51L6.5,-3.9801020972288977e-16Z" style="opacity: 1; stroke-width: 0px; fill: rgb(242, 177, 56); fill-opacity: 1;"/><path class="point" transform="translate(618.09,643.4)" d="M-3.2500000000220237,-7.509999999990469L-3.2499999999779763,7.510000000009531L6.5,-1.9061928142301498e-11Z" style="opacity: 1; stroke-width: 0px; fill: rgb(242, 143, 56); fill-opacity: 1;"/><path class="point" transform="translate(718.77,643.4)" d="M-3.2500000000060054,-7.509999999997401L-3.2499999999939946,7.510000000002599L6.5,-5.197685055387468e-12Z" style="opacity: 1; stroke-width: 0px; fill: rgb(230, 87, 43); fill-opacity: 1;"/><path class="point" transform="translate(819.45,643.4)" d="M-3.2500000000000004,-7.51L-3.2499999999999996,7.51L6.5,-3.9801020972288977e-16Z" style="opacity: 1; stroke-width: 0px; fill: rgb(217, 30, 30); fill-opacity: 1;"/></g><g class="text"/></g><g class="trace scatter trace1b1b07" style="stroke-miterlimit: 2; opacity: 1;"><g class="fills"/><g class="errorbars"/><g class="lines"><path class="js-line" d="M208.78,855.27L393.67,634.94L395.17,633.15L658.22,319.66" style="vector-effect: none; fill: none; stroke: rgb(220, 38, 127); stroke-opacity: 1; stroke-width: 2px; opacity: 1;"/></g><g class="points"/><g class="text"/></g><g class="trace scatter trace1dcfa9" style="stroke-miterlimit: 2; opacity: 1;"><g class="fills"/><g class="errorbars"/><g class="lines"/><g class="points"><path class="point" transform="translate(208.78,855.27)" d="M-7.842053499304777,-2.3376905086092314L3.663934036342272,7.316979388882588L4.178119462962505,-4.979288880273357Z" style="opacity: 1; stroke-width: 0px; fill: rgb(12, 51, 131); fill-opacity: 1;"/><path class="point" transform="translate(262.72,791)" d="M-7.842053499304777,-2.3376905086092314L3.663934036342272,7.316979388882588L4.178119462962505,-4.979288880273357Z" style="opacity: 1; stroke-width: 0px; fill: rgb(11, 94, 159); fill-opacity: 1;"/><path class="point" transform="translate(316.65,726.73)" d="M-7.842053499304777,-2.3376905086092314L3.663934036342272,7.316979388882588L4.178119462962505,-4.979288880273357Z" style="opacity: 1; stroke-width: 0px; fill: rgb(10, 136, 186); fill-opacity: 1;"/><path class="point" transform="translate(370.58,662.45)" d="M-7.842053499304777,-2.3376905086092314L3.663934036342272,7.316979388882588L4.178119462962505,-4.979288880273357Z" style="opacity: 1; stroke-width: 0px; fill: rgb(126, 174, 121); fill-opacity: 1;"/><path class="point" transform="translate(424.51,598.18)" d="M-7.842053499304777,-2.3376905086092314L3.663934036342272,7.316979388882588L4.178119462962505,-4.979288880273357Z" style="opacity: 1; stroke-width: 0px; fill: rgb(242, 211, 56); fill-opacity: 1;"/><path class="point" transform="translate(478.44,533.91)" d="M-7.842053499304777,-2.3376905086092314L3.663934036342272,7.316979388882588L4.178119462962505,-4.979288880273357Z" style="opacity: 1; stroke-width: 0px; fill: rgb(242, 177, 56); fill-opacity: 1;"/><path class="point" transform="translate(532.38,469.63)" d="M-7.842053499304777,-2.3376905086092314L3.663934036342272,7.316979388882588L4.178119462962505,-4.979288880273357Z" style="opacity: 1; stroke-width: 0px; fill: rgb(242, 143, 56); fill-opacity: 1;"/><path class="point" transform="translate(586.31,405.36)" d="M-7.842053499304777,-2.3376905086092314L3.663934036342272,7.316979388882588L4.178119462962505,-4.979288880273357Z" style="opacity: 1; stroke-width: 0px; fill: rgb(230, 87, 43); fill-opacity: 1;"/><path class="point" transform="translate(640.24,341.09)" d="M-7.842053499304777,-2.3376905086092314L3.663934036342272,7.316979388882588L4.178119462962505,-4.979288880273357Z" style="opacity: 1; stroke-width: 0px; fill: rgb(217, 30, 30); fill-opacity: 1;"/></g><g class="text"/></g></g></g></g><path class="xlines-above crisp" d="M0,0" style="fill: none;"/><path class="ylines-above crisp" d="M0,0" style="fill: none;"/><g class="overlines-above"/><g class="xaxislayer-above"><g class="xtick"><text text-anchor="middle" x="0" y="1260" transform="translate(130.98,0)" style="font-family: 'Open Sans', verdana, arial, sans-serif; font-size: 24px; fill: rgb(42, 63, 95); fill-opacity: 1; white-space: pre; opacity: 1;">−1500</text></g><g class="xtick"><text text-anchor="middle" x="0" y="1260" style="font-family: 'Open Sans', verdana, arial, sans-serif; font-size: 24px; fill: rgb(42, 63, 95); fill-opacity: 1; white-space: pre; opacity: 1;" transform="translate(270.82,0)">−1000</text></g><g class="xtick"><text text-anchor="middle" x="0" y="1260" style="font-family: 'Open Sans', verdana, arial, sans-serif; font-size: 24px; fill: rgb(42, 63, 95); fill-opacity: 1; white-space: pre; opacity: 1;" transform="translate(410.66,0)">−500</text></g><g class="xtick"><text text-anchor="middle" x="0" y="1260" style="font-family: 'Open Sans', verdana, arial, sans-serif; font-size: 24px; fill: rgb(42, 63, 95); fill-opacity: 1; white-space: pre; opacity: 1;" transform="translate(550.5,0)">0</text></g><g class="xtick"><text text-anchor="middle" x="0" y="1260" style="font-family: 'Open Sans', verdana, arial, sans-serif; font-size: 24px; fill: rgb(42, 63, 95); fill-opacity: 1; white-space: pre; opacity: 1;" transform="translate(690.34,0)">500</text></g><g class="xtick"><text text-anchor="middle" x="0" y="1260" style="font-family: 'Open Sans', verdana, arial, sans-serif; font-size: 24px; fill: rgb(42, 63, 95); fill-opacity: 1; white-space: pre; opacity: 1;" transform="translate(830.18,0)">1000</text></g><g class="xtick"><text text-anchor="middle" x="0" y="1260" style="font-family: 'Open Sans', verdana, arial, sans-serif; font-size: 24px; fill: rgb(42, 63, 95); fill-opacity: 1; white-space: pre; opacity: 0;" transform="translate(970.02,0)">1500</text></g></g><g class="yaxislayer-above"><g class="ytick"><text text-anchor="end" x="116" y="8.399999999999999" transform="translate(0,1122.98)" style="font-family: 'Open Sans', verdana, arial, sans-serif; font-size: 24px; fill: rgb(42, 63, 95); fill-opacity: 1; white-space: pre; opacity: 1;">−1500</text></g><g class="ytick"><text text-anchor="end" x="116" y="8.399999999999999" style="font-family: 'Open Sans', verdana, arial, sans-serif; font-size: 24px; fill: rgb(42, 63, 95); fill-opacity: 1; white-space: pre; opacity: 1;" transform="translate(0,983.15)">−1000</text></g><g class="ytick"><text text-anchor="end" x="116" y="8.399999999999999" style="font-family: 'Open Sans', verdana, arial, sans-serif; font-size: 24px; fill: rgb(42, 63, 95); fill-opacity: 1; white-space: pre; opacity: 1;" transform="translate(0,843.31)">−500</text></g><g class="ytick"><text text-anchor="end" x="116" y="8.399999999999999" style="font-family: 'Open Sans', verdana, arial, sans-serif; font-size: 24px; fill: rgb(42, 63, 95); fill-opacity: 1; white-space: pre; opacity: 1;" transform="translate(0,703.47)">0</text></g><g class="ytick"><text text-anchor="end" x="116" y="8.399999999999999" style="font-family: 'Open Sans', verdana, arial, sans-serif; font-size: 24px; fill: rgb(42, 63, 95); fill-opacity: 1; white-space: pre; opacity: 1;" transform="translate(0,563.63)">500</text></g><g class="ytick"><text text-anchor="end" x="116" y="8.399999999999999" style="font-family: 'Open Sans', verdana, arial, sans-serif; font-size: 24px; fill: rgb(42, 63, 95); fill-opacity: 1; white-space: pre; opacity: 1;" transform="translate(0,423.79)">1000</text></g><g class="ytick"><text text-anchor="end" x="116" y="8.399999999999999" style="font-family: 'Open Sans', verdana, arial, sans-serif; font-size: 24px; fill: rgb(42, 63, 95); fill-opacity: 1; white-space: pre; opacity: 1;" transform="translate(0,283.95)">1500</text></g><g class="ytick"><text text-anchor="end" x="116" y="8.399999999999999" style="font-family: 'Open Sans', verdana, arial, sans-serif; font-size: 24px; fill: rgb(42, 63, 95); fill-opacity: 1; white-space: pre; opacity: 1;" transform="translate(0,144.11)">2000</text></g></g><g class="overaxes-above"/></g></g><g class="polarlayer"/><g class="smithlayer"/><g class="ternarylayer"/><g class="geolayer"/><g class="funnelarealayer"/><g class="pielayer"/><g class="iciclelayer"/><g class="treemaplayer"/><g class="sunburstlayer"/><g class="glimages"/><defs id="topdefs-bb9371"><g class="clips"/><clipPath id="legendbb9371"><rect width="385" height="45" x="2" y="2"/></clipPath></defs><g class="layer-above"><g class="imagelayer"/><g class="shapelayer"/></g><g class="infolayer"><g class="legend" pointer-events="all" transform="translate(586.33,0)"><rect class="bg" shape-rendering="crispEdges" style="stroke: rgb(0, 0, 0); stroke-opacity: 1; fill: rgb(255, 255, 255); fill-opacity: 1; stroke-width: 2px;" width="387" height="47" x="1" y="1"/><g class="scrollbox" transform="" clip-path="url(#legendbb9371)"><g class="groups"><g class="traces" transform="translate(2,24.1)" style="opacity: 1;"><text class="legendtext" text-anchor="start" x="40" y="9.360000000000001" style="font-family: 'Open Sans', verdana, arial, sans-serif; font-size: 24px; fill: rgb(42, 63, 95); fill-opacity: 1; white-space: pre;">OS Ref</text><g class="layers" style="opacity: 1;"><g class="legendfill"/><g class="legendlines"><path class="js-line" d="M5,0h30" style="fill: none; stroke: rgb(0, 0, 0); stroke-opacity: 1; stroke-width: 2px;"/></g><g class="legendsymbols"><g class="legendpoints"/></g></g><rect class="legendtoggle" x="0" y="-17.1" width="126.640625" height="34.2" style="fill: rgb(0, 0, 0); fill-opacity: 0;"/></g><g class="traces" transform="translate(131.140625,24.1)" style="opacity: 1;"><text class="legendtext" text-anchor="start" x="40" y="9.360000000000001" style="font-family: 'Open Sans', verdana, arial, sans-serif; font-size: 24px; fill: rgb(42, 63, 95); fill-opacity: 1; white-space: pre;">OS Pos</text><g class="layers" style="opacity: 1;"><g class="legendfill"/><g class="legendlines"><path class="js-line" d="M5,0h30" style="fill: none; stroke: rgb(100, 143, 255); stroke-opacity: 1; stroke-width: 2px;"/></g><g class="legendsymbols"><g class="legendpoints"/></g></g><rect class="legendtoggle" x="0" y="-17.1" width="127.203125" height="34.2" style="fill: rgb(0, 0, 0); fill-opacity: 0;"/></g><g class="traces" transform="translate(260.84375,24.1)" style="opacity: 1;"><text class="legendtext" text-anchor="start" x="40" y="9.360000000000001" style="font-family: 'Open Sans', verdana, arial, sans-serif; font-size: 24px; fill: rgb(42, 63, 95); fill-opacity: 1; white-space: pre;">TS Pos</text><g class="layers" style="opacity: 1;"><g class="legendfill"/><g class="legendlines"><path class="js-line" d="M5,0h30" style="fill: none; stroke: rgb(220, 38, 127); stroke-opacity: 1; stroke-width: 2px;"/></g><g class="legendsymbols"><g class="legendpoints"/></g></g><rect class="legendtoggle" x="0" y="-17.1" width="122.953125" height="34.2" style="fill: rgb(0, 0, 0); fill-opacity: 0;"/></g></g></g><rect class="scrollbar" rx="20" ry="3" width="0" height="0" style="fill: rgb(128, 139, 164); fill-opacity: 1;" x="0" y="0"/></g><g class="g-gtitle"/><g class="g-xtitle" transform="translate(0,-5.7999999999999545)"><text class="xtitle" x="550.5" y="1299.8" text-anchor="middle" style="opacity: 1; font-family: 'Open Sans', verdana, arial, sans-serif; font-size: 29px; fill: rgb(42, 63, 95); fill-opacity: 1; white-space: pre;">East [m]</text></g><g class="g-ytitle" transform="translate(18.322265625,0)"><text class="ytitle" transform="rotate(-90,10.678124999999994,675.5)" x="10.678124999999994" y="675.5" text-anchor="middle" style="opacity: 1; font-family: 'Open Sans', verdana, arial, sans-serif; font-size: 29px; fill: rgb(42, 63, 95); fill-opacity: 1; white-space: pre;">North [m]</text></g><g class="annotation" data-index="0" style="opacity: 1;"><g class="annotation-text-g" transform="rotate(0,550.5,104.5)"><g class="cursor-pointer" transform="translate(477,93)"><rect class="bg" x="0.5" y="0.5" width="147" height="22" style="stroke-width: 1px; stroke: rgb(0, 0, 0); stroke-opacity: 0; fill: rgb(0, 0, 0); fill-opacity: 0;"/><text class="annotation-text" text-anchor="middle" x="74.15625" y="18" style="font-family: 'Open Sans', verdana, arial, sans-serif; font-size: 16px; fill: rgb(42, 63, 95); fill-opacity: 1; white-space: pre;">Course 40\degree</text></g></g></g></g></svg>