<svg class="main-svg" xmlns="http://www.w3.org/2000/svg" xmlns:xlink="http://www.w3.org/1999/xlink" width="1000" height="1300" style="" viewBox="0 0 1000 1300"><rect x="0" y="0" width="1000" height="1300" style="fill: rgb(255, 255, 255); fill-opacity: 1;"/><defs id="defs-76f338"><g class="clips"><clipPath id="clip76f338xyplot" class="plotclip"><rect width="867" height="1119"/></clipPath><clipPath class="axesclip" id="clip76f338x"><rect x="117" y="0" width="867" height="1300"/></clipPath><clipPath class="axesclip" id="clip76f338y"><rect x="0" y="116" width="1000" height="1119"/></clipPath><clipPath class="axesclip" id="clip76f338xy"><rect x="117" y="116" width="867" height="1119"/></clipPath></g><g class="gradients"/><g class="patterns"/></defs><g class="bglayer"/><g class="layer-below"><g class="imagelayer"/><g class="shapelayer"/></g><g class="cartesianlayer"><g class="subplot xy"><g class="layer-subplot"><g class="shapelayer"/><g class="imagelayer"/></g><g class="minor-gridlayer"><g class="x"/><g class="y"/></g><g class="gridlayer"><g class="x"><path class="xgrid crisp" transform="translate(130.98,0)" d="M0,116v1119" style="stroke: rgb(200, 200, 200); stroke-opacity: 1; stroke-width: 1px;"/><path class="xgrid crisp" transform="translate(270.82,0)" d="M0,116v1119" style="stroke: rgb(200, 200, 200); stroke-opacity: 1; stroke-width: 1px;"/><path class="xgrid crisp" transform="translate(410.66,0)" d="M0,116v1119" style="stroke: rgb(200, 200, 200); stroke-opacity: 1; stroke-width: 1px;"/><path class="xgrid crisp" transform="translate(690.34,0)" d="M0,116v1119" style="stroke: rgb(200, 200, 200); stroke-opacity: 1; stroke-width: 1px;"/><path class="xgrid crisp" transform="translate(830.18,0)" d="M0,116v1119" style="stroke: rgb(200, 200, 200); stroke-opacity: 1; stroke-width: 1px;"/><path class="xgrid crisp" transform="translate(970.02,0)" d="M0,116v1119" style="stroke: rgb(200, 200, 200); stroke-opacity: 1; stroke-width: 1px;"/></g><g class="y"><path class="ygrid crisp" transform="translate(0,1122.98)" d="M117,0h867" style="stroke: rgb(200, 200, 200); stroke-opacity: 1; stroke-width: 1px;"/><path class="ygrid crisp" transform="translate(0,983.15)" d="M117,0h867" style="stroke: rgb(200, 200, 200); stroke-opacity: 1; stroke-width: 1px;"/><path class="ygrid crisp" transform="translate(0,843.31)" d="M117,0h867" style="stroke: rgb(200, 200, 200); stroke-opacity: 1; stroke-width: 1px;"/><path class="ygrid crisp" transform="translate(0,563.63)" d="M117,0h867" style="stroke: rgb(200, 200, 200); stroke-opacity: 1; stroke-width: 1px;"/><path class="ygrid crisp" transform="translate(0,423.79)" d="M117,0h867" style="stroke: rgb(200, 200, 200); stroke-opacity: 1; stroke-width: 1px;"/><path class="ygrid crisp" transform="translate(0,283.95)" d="M117,0h867" style="stroke: rgb(200, 200, 200); stroke-opacity: 1; stroke-width: 1px;"/><path class="ygrid crisp" transform="translate(0,144.11)" d="M117,0h867" style="stroke: rgb(200, 200, 200); stroke-opacity: 1; stroke-width: 1px;"/></g></g><g class="zerolinelayer"><path class="xzl zl crisp" transform="translate(550.5,0)" d="M0,116v1119" style="stroke: rgb(200, 200, 200); stroke-opacity: 1; stroke-width: 2px;"/><path class="yzl zl crisp" transform="translate(0,703.47)" d="M117,0h867" style="stroke: rgb(200, 200, 200); stroke-opacity: 1; stroke-width: 2px;"/></g><g class="layer-between"><g class="shapelayer"/><g class="imagelayer"/></g><path class="xlines-below"/><path class="ylines-below"/><g class="overlines-below"/><g class="xaxislayer-below"/><g class="yaxislayer-below"/><g class="overaxes-below"/><g class="overplot"><g class="xy" transform="translate(117,116)" clip-path="url(#clip76f338xyplot)"><g class="scatterlayer mlayer"><g class="trace scatter trace9f5a73" style="stroke-miterlimit: 2; opacity: 1;"><g class="fills"/><g class="errorbars"/><g class="lines"><path class="js-line" d="M13.98,475.6L853.02,475.6" style="vector-effect: none; fill: none; stroke: rgb(0, 0, 0); stroke-opacity: 1; stroke-width: 2px; opacity: 1;"/></g><g class="points"/><g class="text"/></g><g class="trace scatter trace67e0f6" style="stroke-miterlimit: 2; opacity: 1;"><g class="fills"/><g class="errorbars"/><g class="lines"><path class="js-line" d="M13.98,475.6L853.02,475.6" style="vector-effect: none; fill: none; stroke: rgb(100, 143, 255); stroke-opacity: 1; stroke-width: 2px; opacity: 1;"/></g><g class="points"/><g class="text"/></g><g class="trace scatter trace98eec6" style="stroke-miterlimit: 2; opacity: 1;"><g class="fills"/><g class="errorbars"/><g class="lines"/><g class="points"><path class="point" transform="translate(13.98,475.6)" d="M-3.2500000000000004,-7.51L-3.2499999999999996,7.51L6.5,-3.9801020972288977e-16Z" style="opacity: 1; stroke-width: 0px; fill: rgb(12, 51, 131); fill-opacity: 1;"/><path class="point" transform="translate(114.67,475.6)" d="M-3.2500000000000004,-7.51L-3.2499999999999996,7.51L6.5,-3.9801020972288977e-16Z" style="opacity: 1; stroke-width: 0px; fill: rgb(11, 94, 159); fill-opacity: 1;"/><path class="point" transform="translate(215.35,475.6)" d="M-3.250000000000067,-7.5099999999999705L-3.249999999999933,7.510000000000029L6.5,-5.812960749023104e-14Z" style="opacity: 1; stroke-width: 0px; fill: rgb(10, 136, 186); fill-opacity: 1;"/><path class="point" transform="translate(316.04,475.6)" d="M-3.250000000000142,-7.5099999999999385L-3.249999999999858,7.510000000000061L6.5,-1.230776544308027e-13Z" style="opacity: 1; stroke-width: 0px; fill: rgb(126, 174, 121); fill-opacity: 1;"/><path class="point" transform="translate(416.72,475.6)" d="M-3.2500000000000004,-7.51L-3.2499999999999996,7.51L6.5,-3.9801020972288977e-16Z" style="opacity: 1; stroke-width: 0px; fill: rgb(242, 211, 56); fill-opacity: 1;"/><path class="point" transform="translate(517.4,475.6)" d="M-3.2500000000000004,-7.51L-3.2499999999999996,7.51L6.5,-3.9801020972288977e-16Z" style="opacity: 1; stroke-width: 0px; fill: rgb(242, 177, 56); fill-opacity: 1;"/><path class="point" transform="translate(618.09,475.6)" d="M-3.250000000000022,-7.50999999999999L-3.249999999999978,7.51000000000001L6.5,-1.9160779325888035e-14Z" style="opacity: 1; stroke-width: 0px; fill: rgb(242, 143, 56); fill-opacity: 1;"/><path class="point" transform="translate(718.77,475.6)" d="M-3.249999999999702,-7.510000000000129L-3.250000000000298,7.509999999999871L6.5,2.5795088762055106e-13Z" style="opacity: 1; stroke-width: 0px; fill: rgb(230, 87, 43); fill-opacity: 1;"/><path class="point" transform="translate(819.45,475.6)" d="M-3.2500000000000004,-7.51L-3.2499999999999996,7.51L6.5,-3.9801020972288977e-16Z" style="opacity: 1; stroke-width: 0px; fill: rgb(217, 30, 30); fill-opacity: 1;"/></g><g class="text"/></g><g class="trace scatter tracec5e241" style="stroke-miterlimit: 2; opacity: 1;"><g class="fills"/><g class="errorbars"/><g class="lines"><path class="js-line" d="M13.98,496.57L853.02,496.57" style="vector-effect: none; fill: none; stroke: rgb(0, 0, 0); stroke-opacity: 1; stroke-width: 2px; opacity: 1;"/></g><g class="points"/><g class="text"/></g><g class="trace scatter tracea6b8c0" style="stroke-miterlimit: 2; opacity: 1;"><g class="fills"/><g class="errorbars"/><g class="lines"><path class="js-line" d="M13.98,496.57L853.02,496.57" style="vector-effect: none; fill: none; stroke: rgb(100, 143, 255); stroke-opacity: 1; stroke-width: 2px; opacity: 1;"/></g><g class="points"/><g class="text"/></g><g class="trace scatter trace092fc2" style="stroke-miterlimit: 2; opacity: 1;"><g class="fills"/><g class="errorbars"/><g class="lines"/><g class="points"><path class="point" transform="translate(13.98,496.57)" d="M-3.2500000000000004,-7.51L-3.2499999999999996,7.51L6.5,-3.9801020972288977e-16Z" style="opacity: 1; stroke-width: 0px; fill: rgb(12, 51, 131); fill-opacity: 1;"/><path class="point" transform="translate(114.67,496.57)" d="M-3.2500000000000306,-7.5099999999999865L-3.2499999999999694,7.510000000000013L6.5,-2.6377228985951552e-14Z" style="opacity: 1; stroke-width: 0px; fill: rgb(11, 94, 159); fill-opacity: 1;"/><path class="point" transform="translate(215.35,496.57)" d="M-3.2500000000001505,-7.509999999999935L-3.2499999999998495,7.510000000000065L6.5,-1.302941040908662e-13Z" style="opacity: 1; stroke-width: 0px; fill: rgb(10, 136, 186); fill-opacity: 1;"/><path class="point" transform="translate(316.04,496.57)" d="M-3.2500000000002607,-7.509999999999887L-3.2499999999997393,7.510000000000113L6.5,-2.2555123960370464e-13Z" style="opacity: 1; stroke-width: 0px; fill: rgb(126, 174, 121); fill-opacity: 1;"/><path class="point" transform="translate(416.72,496.57)" d="M-3.2500000000000004,-7.51L-3.2499999999999996,7.51L6.5,-3.9801020972288977e-16Z" style="opacity: 1; stroke-width: 0px; fill: rgb(242, 211, 56); fill-opacity: 1;"/><path class="point" transform="translate(517.4,496.57)" d="M-3.2500000000000004,-7.51L-3.2499999999999996,7.51L6.5,-3.9801020972288977e-16Z" style="opacity: 1; stroke-width: 0px; fill: rgb(242, 177, 56); fill-opacity: 1;"/><path class="point" transform="translate(618.09,496.57)" d="M-3.2499999999999556,-7.510000000000019L-3.2500000000000444,7.50999999999998L6.5,3.8570817954620105e-14Z" style="opacity: 1; stroke-width: 0px; fill: rgb(242, 143, 56); fill-opacity: 1;"/><path class="point" transform="translate(718.77,496.57)" d="M-3.2499999999995968,-7.510000000000174L-3.2500000000004032,7.509999999999826L6.5,3.488781533373514e-13Z" style="opacity: 1; stroke-width: 0px; fill: rgb(230, 87, 43); fill-opacity: 1;"/><path class="point" transform="translate(819.45,496.57)" d="M-3.2500000000000004,-7.51L-3.2499999999999996,7.51L6.5,-3.9801020972288977e-16Z" style="opacity: 1; stroke-width: 0px; fill: rgb(217, 30, 30); fill-opacity: 1;"/></g><g class="text"/></g><g class="trace scatter trace9c3f3a" style="stroke-miterlimit: 2; opacity: 1;"><g class="fills"/><g class="errorbars"/><g class="lines"><path class="js-line" d="M13.98,517.55L853.02,517.55" style="vector-effect: none; fill: none; stroke: rgb(0, 0, 0); stroke-opacity: 1; stroke-width: 2px; opacity: 1;"/></g><g class="points"/><g class="text"/></g><g class="trace scatter traced1d6bd" style="stroke-miterlimit: 2; opacity: 1;"><g class="fills"/><g class="errorbars"/><g class="lines"><path class="js-line" d="M13.98,517.55L112.1,518.22L114.87,518.51L128.59,520.72L131.31,521.32L150.21,526.56L152.9,527.37L192.98,540.22L195.63,541.12L237.94,556.14L240.56,557.14L269.09,568.86L271.63,570.04L291.49,580.37L293.92,581.77L303.73,586.95L306.24,588.01L316.57,591.3L319.21,591.89L330.06,593.27L332.84,593.37L439.47,593.39L442.27,593.39L515.12,592.74L517.88,592.43L531.49,589.95L534.18,589.27L547.5,585.02L550.15,584.09L586.97,570.41L589.58,569.38L623.17,555.18L625.73,554.04L669.56,535.22L672.17,534.19L695.92,525.69L698.59,524.83L712.06,521.24L714.78,520.69L728.52,518.81L731.29,518.6L750.9,518.33L753.7,518.33L823.85,518.33" style="vector-effect: none; fill: none; stroke: rgb(100, 143, 255); stroke-opacity: 1; stroke-width: 2px; opacity: 1;"/></g><g class="points"/><g class="text"/></g><g class="trace scatter traceed4300" style="stroke-miterlimit: 2; opacity: 1;"><g class="fills"/><g class="errorbars"/><g class="lines"/><g class="points"><path class="point" transform="translate(13.98,517.55)" d="M-3.2500000000000004,-7.51L-3.2499999999999996,7.51L6.5,-3.9801020972288977e-16Z" style="opacity: 1; stroke-width: 0px; fill: rgb(12, 51, 131); fill-opacity: 1;"/><path class="point" transform="translate(114.54,518.47)" d="M-2.3979821606982634,-7.823827807216419L-4.062004870181964,7.103711454909891L6.459987030880227,0.7201163523065279Z" style="opacity: 1; stroke-width: 0px; fill: rgb(11, 94, 159); fill-opacity: 1;"/><path class="point" transform="translate(210.92,546.37)" d="M-0.6022998454738282,-8.160872189670796L-5.536896663837556,6.025394205691819L6.139196509311384,2.135477983978977Z" style="opacity: 1; stroke-width: 0px; fill: rgb(10, 136, 186); fill-opacity: 1;"/><path class="point" transform="translate(302.83,586.55)" d="M0.1787303248138481,-8.181115783986431L-6.086289005086197,5.469889043350594L5.9075586802723485,2.7112267406358384Z" style="opacity: 1; stroke-width: 0px; fill: rgb(126, 174, 121); fill-opacity: 1;"/><path class="point" transform="translate(401.64,593.39)" d="M-3.2499290290953717,-7.510030712709717L-3.250070970614385,7.509969286619598L6.499999999709757,0.00006142609011896338Z" style="opacity: 1; stroke-width: 0px; fill: rgb(242, 211, 56); fill-opacity: 1;"/><path class="point" transform="translate(502.32,593.39)" d="M-3.250059457234044,-7.509974269226463L-3.249940542562245,7.510025730302807L6.499999999796289,-0.00005146107634465465Z" style="opacity: 1; stroke-width: 0px; fill: rgb(242, 177, 56); fill-opacity: 1;"/><path class="point" transform="translate(598.11,565.94)" d="M-5.8558878731731445,-5.715870643814791L-0.15830298558385802,8.181536540574468L6.0141908587570025,-2.4656658967596776Z" style="opacity: 1; stroke-width: 0px; fill: rgb(242, 143, 56); fill-opacity: 1;"/><path class="point" transform="translate(691.02,527.32)" d="M-5.491027349259053,-6.067224954597373L-0.6641927125630431,8.156068172874608L6.155220061822096,-2.0888432182772343Z" style="opacity: 1; stroke-width: 0px; fill: rgb(230, 87, 43); fill-opacity: 1;"/><path class="point" transform="translate(790.29,518.33)" d="M-3.250020659504063,-7.509991059435209L-3.2499793404713415,7.510008940507958L6.499999999975405,-0.000017881072749179806Z" style="opacity: 1; stroke-width: 0px; fill: rgb(217, 30, 30); fill-opacity: 1;"/></g><g class="text"/></g><g class="trace scatter traced3eb9e" style="stroke-miterlimit: 2; opacity: 1;"><g class="fills"/><g class="errorbars"/><g class="lines"><path class="js-line" d="M13.98,538.52L853.02,538.52" style="vector-effect: none; fill: none; stroke: rgb(0, 0, 0); stroke-opacity: 1; stroke-width: 2px; opacity: 1;"/></g><g class="points"/><g class="text"/></g><g class="trace scatter trace1a682b" style="stroke-miterlimit: 2; opacity: 1;"><g class="fills"/><g class="errorbars"/><g class="lines"><path class="js-line" d="M13.98,538.52L114.95,539.16L117.73,539.38L137.14,541.91L139.91,542.41L172.86,549.28L175.59,549.92L205.42,557.79L208.11,558.59L242.82,569.78L245.48,570.67L279.91,582.66L282.52,583.68L313.66,595.92L316.31,596.62L327.11,598.64L329.85,598.95L343.77,599.45L346.58,599.45L520.49,598.92L523.26,598.67L537.02,596.67L539.76,596.12L558.73,591.18L561.43,590.42L604.4,577.42L607.06,576.54L652.12,560.9L654.78,559.99L689.49,548.85L692.19,548.1L716.7,542.16L719.45,541.66L736.05,539.56L738.83,539.36L758.43,539L761.24,539L834.19,539" style="vector-effect: none; fill: none; stroke: rgb(100, 143, 255); stroke-opacity: 1; stroke-width: 2px; opacity: 1;"/></g><g class="points"/><g class="text"/></g><g class="trace scatter trace28eb46" style="stroke-miterlimit: 2; opacity: 1;"><g class="fills"/><g class="errorbars"/><g class="lines"/><g class="points"><path class="point" transform="translate(13.98,538.52)" d="M-3.2500000000000004,-7.51L-3.2499999999999996,7.51L6.5,-3.9801020972288977e-16Z" style="opacity: 1; stroke-width: 0px; fill: rgb(12, 51, 131); fill-opacity: 1;"/><path class="point" transform="translate(114.61,539.14)" d="M-2.6944623557369276,-7.726737514211067L-3.788278891185322,7.253381490215423L6.48274124692225,0.4733560239956435Z" style="opacity: 1; stroke-width: 0px; fill: rgb(11, 94, 159); fill-opacity: 1;"/><path class="point" transform="translate(212.83,560.02)" d="M-0.8864718840038392,-8.134910423530838L-5.323447845430786,6.214781012793479L6.209919729434625,1.9201294107373603Z" style="opacity: 1; stroke-width: 0px; fill: rgb(10, 136, 186); fill-opacity: 1;"/><path class="point" transform="translate(307.45,593.98)" d="M-0.5874554089023438,-8.161954186501623L-5.547846821404406,6.015313428761051L6.13530223030675,2.146640757740573Z" style="opacity: 1; stroke-width: 0px; fill: rgb(126, 174, 121); fill-opacity: 1;"/><path class="point" transform="translate(406.97,599.45)" d="M-3.2499534949015514,-7.510020125204539L-3.250046504973824,7.509979874507483L6.499999999875375,0.00004025069705549922Z" style="opacity: 1; stroke-width: 0px; fill: rgb(242, 211, 56); fill-opacity: 1;"/><path class="point" transform="translate(507.65,599.45)" d="M-3.250043965380955,-7.509980973550521L-3.2499560345076595,7.510019026192094L6.499999999888614,-0.00003805264157270862Z" style="opacity: 1; stroke-width: 0px; fill: rgb(242, 177, 56); fill-opacity: 1;"/><path class="point" transform="translate(605.14,577.17)" d="M-5.421866856512304,-6.129107585142667L-0.7566465840136267,8.148011165118792L6.178513440525931,-2.0189035799761252Z" style="opacity: 1; stroke-width: 0px; fill: rgb(242, 143, 56); fill-opacity: 1;"/><path class="point" transform="translate(700.76,545.82)" d="M-5.008109032386259,-6.47158743429548L-1.2895383695111222,8.080822408242776L6.297647401897382,-1.6092349739472964Z" style="opacity: 1; stroke-width: 0px; fill: rgb(230, 87, 43); fill-opacity: 1;"/><path class="point" transform="translate(800.63,539)" d="M-3.2500125275953264,-7.509994578591481L-3.24998747239563,7.510005421387621L6.499999999990957,-0.000010842796140113593Z" style="opacity: 1; stroke-width: 0px; fill: rgb(217, 30, 30); fill-opacity: 1;"/></g><g class="text"/></g><g class="trace scatter trace8f2cb4" style="stroke-miterlimit: 2; opacity: 1;"><g class="fills"/><g class="errorbars"/><g class="lines"><path class="js-line" d="M13.98,559.5L853.02,559.5" style="vector-effect: none; fill: none; stroke: rgb(0, 0, 0); stroke-opacity: 1; stroke-width: 2px; opacity: 1;"/></g><g class="points"/><g class="text"/></g><g class="trace scatter traceb45053" style="stroke-miterlimit: 2; opacity: 1;"><g class="fills"/><g class="errorbars"/><g class="lines"><path class="js-line" d="M13.98,559.5L117.76,560.17L120.56,560.37L142.82,562.92L145.6,563.32L187.1,570.33L189.85,570.85L225.5,578.53L228.24,579.17L288.16,593.96L290.85,594.73L317.8,602.15L320.53,602.65L334.3,604.36L337.08,604.53L356.7,604.72L359.5,604.72L527.81,604.14L530.6,603.91L547.22,601.79L549.98,601.31L591.17,592.65L593.91,592.04L634.78,582.03L637.5,581.31L689.23,568.44L691.97,567.85L719.54,562.76L722.32,562.35L741.8,560.33L744.59,560.16L767.01,559.77L769.81,559.77L842.77,559.77" style="vector-effect: none; fill: none; stroke: rgb(100, 143, 255); stroke-opacity: 1; stroke-width: 2px; opacity: 1;"/></g><g class="points"/><g class="text"/></g><g class="trace scatter traceb883c4" style="stroke-miterlimit: 2; opacity: 1;"><g class="fills"/><g class="errorbars"/><g class="lines"/><g class="points"><path class="point" transform="translate(13.98,559.5)" d="M-3.2500000000000004,-7.51L-3.2499999999999996,7.51L6.5,-3.9801020972288977e-16Z" style="opacity: 1; stroke-width: 0px; fill: rgb(12, 51, 131); fill-opacity: 1;"/><path class="point" transform="translate(114.63,559.97)" d="M-2.8205502919741123,-7.6816076475204556L-3.669069320043106,7.314405671325486L6.4896196120172185,0.36720197619497064Z" style="opacity: 1; stroke-width: 0px; fill: rgb(11, 94, 159); fill-opacity: 1;"/><path class="point" transform="translate(213.91,575.87)" d="M-1.5360972103870998,-8.037599477470929L-4.807824203389709,6.621738927902556L6.343921413776808,1.4158605495683727Z" style="opacity: 1; stroke-width: 0px; fill: rgb(10, 136, 186); fill-opacity: 1;"/><path class="point" transform="translate(311.4,600.73)" d="M-1.3561373080010057,-8.069912738180493L-4.954567338261266,6.512669382874788L6.310704646262272,1.5572433553057052Z" style="opacity: 1; stroke-width: 0px; fill: rgb(126, 174, 121); fill-opacity: 1;"/><path class="point" transform="translate(411.47,604.72)" d="M-3.2499681052888554,-7.510013802557567L-3.2500318946525257,7.509986197306977L6.499999999941381,0.000027605250589720362Z" style="opacity: 1; stroke-width: 0px; fill: rgb(242, 211, 56); fill-opacity: 1;"/><path class="point" transform="translate(512.16,604.72)" d="M-3.250030360888208,-7.509986861060734L-3.2499696390586754,7.510013138816524L6.499999999946883,-0.000026277755789554404Z" style="opacity: 1; stroke-width: 0px; fill: rgb(242, 177, 56); fill-opacity: 1;"/><path class="point" transform="translate(611.07,588.04)" d="M-4.922214156883154,-6.537155940757346L-1.3961343139382667,8.063089294894613L6.31834847082142,-1.525933354137268Z" style="opacity: 1; stroke-width: 0px; fill: rgb(242, 143, 56); fill-opacity: 1;"/><path class="point" transform="translate(708.92,564.54)" d="M-4.519803261867912,-6.821581816119204L-1.8789381290102594,7.964432905571584L6.398741390878171,-1.1428510894523793Z" style="opacity: 1; stroke-width: 0px; fill: rgb(230, 87, 43); fill-opacity: 1;"/><path class="point" transform="translate(809.21,559.77)" d="M-3.250006986154954,-7.509996976693399L-3.249993013842234,7.5100030233001025L6.499999999997188,-0.0000060466067032890594Z" style="opacity: 1; stroke-width: 0px; fill: rgb(217, 30, 30); fill-opacity: 1;"/></g><g class="text"/></g><g class="trace scatter trace3c0071" style="stroke-miterlimit: 2; opacity: 1;"><g class="fills"/><g class="errorbars"/><g class="lines"><path class="js-line" d="M13.98,580.48L853.02,580.48" style="vector-effect: none; fill: none; stroke: rgb(0, 0, 0); stroke-opacity: 1; stroke-width: 2px; opacity: 1;"/></g><g class="points"/><g class="text"/></g><g class="trace scatter trace37452a" style="stroke-miterlimit: 2; opacity: 1;"><g class="fills"/><g class="errorbars"/><g class="lines"><path class="js-line" d="M13.98,580.48L123.39,581.18L126.19,581.35L156.93,584.02L159.72,584.3L212.67,590.54L215.45,590.92L298.71,603.32L301.47,603.79L323.64,607.02L326.42,607.29L345.98,608.22L348.79,608.23L536.76,607.57L539.56,607.39L564.65,604.78L567.44,604.43L625.8,596.36L628.58,595.93L703.49,584.67L706.28,584.34L737,581.49L739.79,581.32L765.02,580.6L767.82,580.6L849.2,580.6" style="vector-effect: none; fill: none; stroke: rgb(100, 143, 255); stroke-opacity: 1; stroke-width: 2px; opacity: 1;"/></g><g class="points"/><g class="text"/></g><g class="trace scatter traceb49b5e" style="stroke-miterlimit: 2; opacity: 1;"><g class="fills"/><g class="errorbars"/><g class="lines"/><g class="points"><path class="point" transform="translate(13.98,580.48)" d="M-3.2500000000000004,-7.51L-3.2499999999999996,7.51L6.5,-3.9801020972288977e-16Z" style="opacity: 1; stroke-width: 0px; fill: rgb(12, 51, 131); fill-opacity: 1;"/><path class="point" transform="translate(114.65,580.78)" d="M-2.9752275203721874,-7.623032283941868L-3.520488032914046,7.387067348421089L6.495715553286233,0.2359649355207779Z" style="opacity: 1; stroke-width: 0px; fill: rgb(11, 94, 159); fill-opacity: 1;"/><path class="point" transform="translate(214.78,590.83)" d="M-2.198992312212048,-7.882070337851109L-4.240676639377069,6.998518531820974L6.439668951589117,0.8835518060301355Z" style="opacity: 1; stroke-width: 0px; fill: rgb(10, 136, 186); fill-opacity: 1;"/><path class="point" transform="translate(314.31,605.9)" d="M-2.174015454094209,-7.888995931381861L-4.262822614591083,6.9850514211801515L6.436838068685292,0.9039445102017094Z" style="opacity: 1; stroke-width: 0px; fill: rgb(126, 174, 121); fill-opacity: 1;"/><path class="point" transform="translate(414.79,608.23)" d="M-3.2499800316527545,-7.51000864139705L-3.250019968324269,7.509991358549856L6.499999999977024,0.000017282847193515097Z" style="opacity: 1; stroke-width: 0px; fill: rgb(242, 211, 56); fill-opacity: 1;"/><path class="point" transform="translate(515.47,608.23)" d="M-3.2500176033860857,-7.5099923819988375L-3.2499823965960584,7.510007617959901L6.499999999982144,-0.000015235961063948456Z" style="opacity: 1; stroke-width: 0px; fill: rgb(242, 177, 56); fill-opacity: 1;"/><path class="point" transform="translate(615.48,597.92)" d="M-4.31377065722927,-6.95370280619094L-2.116287429197766,7.904677571983534L6.430058086427036,-0.950974765792595Z" style="opacity: 1; stroke-width: 0px; fill: rgb(242, 143, 56); fill-opacity: 1;"/><path class="point" transform="translate(715.09,583.37)" d="M-4.010483404888482,-7.13292526661496L-2.454546459813284,7.806266820742042L6.465029864701766,-0.6733415541270831Z" style="opacity: 1; stroke-width: 0px; fill: rgb(230, 87, 43); fill-opacity: 1;"/><path class="point" transform="translate(815.64,580.6)" d="M-3.2500032927028553,-7.5099985750611555L-3.2499967072965195,7.5100014249374L6.499999999999375,-0.0000028498762437250288Z" style="opacity: 1; stroke-width: 0px; fill: rgb(217, 30, 30); fill-opacity: 1;"/></g><g class="text"/></g><g class="trace scatter trace66feec" style="stroke-miterlimit: 2; opacity: 1;"><g class="fills"/><g class="errorbars"/><g class="lines"><path class="js-line" d="M13.98,601.45L853.02,601.45" style="vector-effect: none; fill: none; stroke: rgb(0, 0, 0); stroke-opacity: 1; stroke-width: 2px; opacity: 1;"/></g><g class="points"/><g class="text"/></g><g class="trace scatter trace9079de" style="stroke-miterlimit: 2; opacity: 1;"><g class="fills"/><g class="errorbars"/><g class="lines"><path class="js-line" d="M13.98,601.45L143.06,602.13L145.86,602.21L244.01,605.75L246.81,605.88L347.72,610.26L350.52,610.27L555.36,609.6L558.16,609.49L642.26,605.77L645.06,605.63L723.56,602.17L726.36,602.09L771.25,601.49L774.06,601.49L852.63,601.49" style="vector-effect: none; fill: none; stroke: rgb(100, 143, 255); stroke-opacity: 1; stroke-width: 2px; opacity: 1;"/></g><g class="points"/><g class="text"/></g><g class="trace scatter tracebabc70" style="stroke-miterlimit: 2; opacity: 1;"><g class="fills"/><g class="errorbars"/><g class="lines"/><g class="points"><path class="point" transform="translate(13.98,601.45)" d="M-3.2500000000000004,-7.51L-3.2499999999999996,7.51L6.5,-3.9801020972288977e-16Z" style="opacity: 1; stroke-width: 0px; fill: rgb(12, 51, 131); fill-opacity: 1;"/><path class="point" transform="translate(114.67,601.55)" d="M-3.166296268296577,-7.545672133174829L-3.3333019230623977,7.473399379780831L6.499598191358975,0.0722727533939969Z" style="opacity: 1; stroke-width: 0px; fill: rgb(11, 94, 159); fill-opacity: 1;"/><path class="point" transform="translate(215.3,604.55)" d="M-2.9517818779555913,-7.632141491414645L-3.543177682683001,7.376211216399454L6.494959560638592,0.2559302750151904Z" style="opacity: 1; stroke-width: 0px; fill: rgb(10, 136, 186); fill-opacity: 1;"/><path class="point" transform="translate(315.86,609.47)" d="M-2.8909253238135957,-7.655400105293861L-3.6017908133358283,7.347768568549885L6.492716137149424,0.3076315367439757Z" style="opacity: 1; stroke-width: 0px; fill: rgb(126, 174, 121); fill-opacity: 1;"/><path class="point" transform="translate(416.52,610.27)" d="M-3.249997027272978,-7.510001286465721L-3.250002972726512,7.509998713533101L6.49999999999949,0.0000025729326211159576Z" style="opacity: 1; stroke-width: 0px; fill: rgb(242, 211, 56); fill-opacity: 1;"/><path class="point" transform="translate(517.21,610.27)" d="M-3.250005417391133,-7.509997655587403L-3.249994582607176,7.51000234440869L6.499999999998309,-0.000004688821286411714Z" style="opacity: 1; stroke-width: 0px; fill: rgb(242, 177, 56); fill-opacity: 1;"/><path class="point" transform="translate(617.82,606.98)" d="M-3.5984861077955044,-7.3493875753019555L-2.8943677168102457,7.654099262479331L6.49285382460575,-0.3047116871773757Z" style="opacity: 1; stroke-width: 0px; fill: rgb(242, 143, 56); fill-opacity: 1;"/><path class="point" transform="translate(718.39,602.33)" d="M-3.4892551012727573,-7.401871306517159L-3.0073991780118305,7.610397504998919L6.496654279284588,-0.2085261984817594Z" style="opacity: 1; stroke-width: 0px; fill: rgb(230, 87, 43); fill-opacity: 1;"/><path class="point" transform="translate(819.07,601.49)" d="M-3.250000885377235,-7.509999616847339L-3.2499991146227196,7.510000383152556L6.499999999999955,-7.663052164580343e-7Z" style="opacity: 1; stroke-width: 0px; fill: rgb(217, 30, 30); fill-opacity: 1;"/></g><g class="text"/></g><g class="trace scatter trace9b2ac3" style="stroke-miterlimit: 2; opacity: 1;"><g class="fills"/><g class="errorbars"/><g class="lines"><path class="js-line" d="M13.98,622.43L853.02,622.43" style="vector-effect: none; fill: none; stroke: rgb(0, 0, 0); stroke-opacity: 1; stroke-width: 2px; opacity: 1;"/></g><g class="points"/><g class="text"/></g><g class="trace scatter trace8845e4" style="stroke-miterlimit: 2; opacity: 1;"><g class="fills"/><g class="errorbars"/><g class="lines"><path class="js-line" d="M13.98,622.43L853.02,622.43" style="vector-effect: none; fill: none; stroke: rgb(100, 143, 255); stroke-opacity: 1; stroke-width: 2px; opacity: 1;"/></g><g class="points"/><g class="text"/></g><g class="trace scatter tracead6535" style="stroke-miterlimit: 2; opacity: 1;"><g class="fills"/><g class="errorbars"/><g class="lines"/><g class="points"><path class="point" transform="translate(13.98,622.43)" d="M-3.2500000000000004,-7.51L-3.2499999999999996,7.51L6.5,-3.9801020972288977e-16Z" style="opacity: 1; stroke-width: 0px; fill: rgb(12, 51, 131); fill-opacity: 1;"/><path class="point" transform="translate(114.67,622.43)" d="M-3.2500000000984244,-7.509999999957406L-3.2499999999015756,7.510000000042593L6.5,-8.518769966739552e-11Z" style="opacity: 1; stroke-width: 0px; fill: rgb(11, 94, 159); fill-opacity: 1;"/><path class="point" transform="translate(215.35,622.43)" d="M-3.2500000003052114,-7.509999999867918L-3.2499999996947886,7.510000000132082L6.5,-2.6416431097656283e-10Z" style="opacity: 1; stroke-width: 0px; fill: rgb(10, 136, 186); fill-opacity: 1;"/><path class="point" transform="translate(316.04,622.43)" d="M-3.2500000004731358,-7.509999999795247L-3.2499999995268642,7.5100000002047524L6.5,-4.095050504201741e-10Z" style="opacity: 1; stroke-width: 0px; fill: rgb(126, 174, 121); fill-opacity: 1;"/><path class="point" transform="translate(416.72,622.43)" d="M-3.250000000000009,-7.509999999999996L-3.249999999999991,7.510000000000003L6.5,-7.614459869786407e-15Z" style="opacity: 1; stroke-width: 0px; fill: rgb(242, 211, 56); fill-opacity: 1;"/><path class="point" transform="translate(517.4,622.43)" d="M-3.2500000000000004,-7.51L-3.2499999999999996,7.51L6.5,-3.9801020972288977e-16Z" style="opacity: 1; stroke-width: 0px; fill: rgb(242, 177, 56); fill-opacity: 1;"/><path class="point" transform="translate(618.09,622.43)" d="M-3.2499999997655338,-7.510000000101466L-3.2500000002344662,7.509999999898533L6.5,2.0293338288043643e-10Z" style="opacity: 1; stroke-width: 0px; fill: rgb(242, 143, 56); fill-opacity: 1;"/><path class="point" transform="translate(718.77,622.43)" d="M-3.249999999810074,-7.510000000082191L-3.250000000189926,7.509999999917809L6.5,1.6438310879637715e-10Z" style="opacity: 1; stroke-width: 0px; fill: rgb(230, 87, 43); fill-opacity: 1;"/><path class="point" transform="translate(819.45,622.43)" d="M-3.2500000000000004,-7.51L-3.2499999999999996,7.51L6.5,-3.9801020972288977e-16Z" style="opacity: 1; stroke-width: 0px; fill: rgb(217, 30, 30); fill-opacity: 1;"/></g><g class="text"/></g><g class="trace scatter tracee4a9b0" style="stroke-miterlimit: 2; opacity: 1;"><g class="fills"/><g class="errorbars"/><g class="lines"><path class="js-line" d="M13.98,643.4L853.02,643.4" style="vector-effect: none; fill: none; stroke: rgb(0, 0, 0); stroke-opacity: 1; stroke-width: 2px; opacity: 1;"/></g><g class="points"/><g class="text"/></g><g class="trace scatter trace3a278d" style="stroke-miterlimit: 2; opacity: 1;"><g class="fills"/><g class="errorbars"/><g class="lines"><path class="js-line" d="M13.98,643.4L853.02,643.4" style="vector-effect: none; fill: none; stroke: rgb(100, 143, 255); stroke-opacity: 1; stroke-width: 2px; opacity: 1;"/></g><g class="points"/><g class="text"/></g><g class="trace scatter trace9705e9" style="stroke-miterlimit: 2; opacity: 1;"><g class="fills"/><g class="errorbars"/><g class="lines"/><g class="points"><path class="point" transform="translate(13.98,643.4)" d="M-3.2500000000000004,-7.51L-3.2499999999999996,7.51L6.5,-3.9801020972288977e-16Z" style="opacity: 1; stroke-width: 0px; fill: rgb(12, 51, 131); fill-opacity: 1;"/><path class="point" transform="translate(114.67,643.4)" d="M-3.2500000000637477,-7.509999999972413L-3.2499999999362523,7.510000000027587L6.5,-5.517448553119135e-11Z" style="opacity: 1; stroke-width: 0px; fill: rgb(11, 94, 159); fill-opacity: 1;"/><path class="point" transform="translate(215.35,643.4)" d="M-3.25000000019988,-7.5099999999135L-3.24999999980012,7.5100000000864995L6.5,-1.729989024209804e-10Z" style="opacity: 1; stroke-width: 0px; fill: rgb(10, 136, 186); fill-opacity: 1;"/><path class="point" transform="translate(316.04,643.4)" d="M-3.2500000003006955,-7.509999999869872L-3.2499999996993045,7.510000000130128L6.5,-2.6025588184067243e-10Z" style="opacity: 1; stroke-width: 0px; fill: rgb(126, 174, 121); fill-opacity: 1;"/><path class="point" transform="translate(416.72,643.4)" d="M-3.2500000000000004,-7.51L-3.2499999999999996,7.51L6.5,-3.9801020972288977e-16Z" style="opacity: 1; stroke-width: 0px; fill: rgb(242, 211, 56); fill-opacity: 1;"/><path class="point" transform="translate(517.4,643.4)" d="M-3.2500000000000004,-7.51L-3.2499999999999996,7.51L6.5,-3.9801020972288977e-16Z" style="opacity: 1; stroke-width: 0px; fill: rgb(242, 177, 56); fill-opacity: 1;"/><path class="point" transform="translate(618.09,643.4)" d="M-3.2499999998668043,-7.510000000057641L-3.2500000001331957,7.509999999942359L6.5,1.1528238530930497e-10Z" style="opacity: 1; stroke-width: 0px; fill: rgb(242, 143, 56); fill-opacity: 1;"/><path class="point" transform="translate(718.77,643.4)" d="M-3.2499999998206017,-7.5100000000776355L-3.2500000001793983,7.509999999922364L6.5,1.5527161945558095e-10Z" style="opacity: 1; stroke-width: 0px; fill: rgb(230, 87, 43); fill-opacity: 1;"/><path class="point" transform="translate(819.45,643.4)" d="M-3.2500000000000004,-7.51L-3.2499999999999996,7.51L6.5,-3.9801020972288977e-16Z" style="opacity: 1; stroke-width: 0px; fill: rgb(217, 30, 30); fill-opacity: 1;"/></g><g class="text"/></g><g class="trace scatter tracece851e" style="stroke-miterlimit: 2; opacity: 1;"><g class="fills"/><g class="errorbars"/><g class="lines"><path class="js-line" d="M208.78,855.27L393.67,634.94L395.17,633.15L658.22,319.66" style="vector-effect: none; fill: none; stroke: rgb(220, 38, 127); stroke-opacity: 1; stroke-width: 2px; opacity: 1;"/></g><g class="points"/><g class="text"/></g><g class="trace scatter trace09a1a9" style="stroke-miterlimit: 2; opacity: 1;"><g class="fills"/><g class="errorbars"/><g class="lines"/><g class="points"><path class="point" transform="translate(208.78,855.27)" d="M-7.842053499304777,-2.3376905086092314L3.663934036342272,7.316979388882588L4.178119462962505,-4.979288880273357Z" style="opacity: 1; stroke-width: 0px; fill: rgb(12, 51, 131); fill-opacity: 1;"/><path class="point" transform="translate(262.72,791)" d="M-7.842053499304777,-2.3376905086092314L3.663934036342272,7.316979388882588L4.178119462962505,-4.979288880273357Z" style="opacity: 1; stroke-width: 0px; fill: rgb(11, 94, 159); fill-opacity: 1;"/><path class="point" transform="translate(316.65,726.73)" d="M-7.842053499304777,-2.3376905086092314L3.663934036342272,7.316979388882588L4.178119462962505,-4.979288880273357Z" style="opacity: 1; stroke-width: 0px; fill: rgb(10, 136, 186); fill-opacity: 1;"/><path class="point" transform="translate(370.58,662.45)" d="M-7.842053499304777,-2.3376905086092314L3.663934036342272,7.316979388882588L4.178119462962505,-4.979288880273357Z" style="opacity: 1; stroke-width: 0px; fill: rgb(126, 174, 121); fill-opacity: 1;"/><path class="point" transform="translate(424.51,598.18)" d="M-7.842053499304777,-2.3376905086092314L3.663934036342272,7.316979388882588L4.178119462962505,-4.979288880273357Z" style="opacity: 1; stroke-width: 0px; fill: rgb(242, 211, 56); fill-opacity: 1;"/><path class="point" transform="translate(478.44,533.91)" d="M-7.842053499304777,-2.3376905086092314L3.663934036342272,7.316979388882588L4.178119462962505,-4.979288880273357Z" style="opacity: 1; stroke-width: 0px; fill: rgb(242, 177, 56); fill-opacity: 1;"/><path class="point" transform="translate(532.38,469.63)" d="M-7.842053499304777,-2.3376905086092314L3.663934036342272,7.316979388882588L4.178119462962505,-4.979288880273357Z" style="opacity: 1; stroke-width: 0px; fill: rgb(242, 143, 56); fill-opacity: 1;"/><path class="point" transform="translate(586.31,405.36)" d="M-7.842053499304777,-2.3376905086092314L3.663934036342272,7.316979388882588L4.178119462962505,-4.979288880273357Z" style="opacity: 1; stroke-width: 0px; fill: rgb(230, 87, 43); fill-opacity: 1;"/><path class="point" transform="translate(640.24,341.09)" d="M-7.842053499304777,-2.3376905086092314L3.663934036342272,7.316979388882588L4.178119462962505,-4.979288880273357Z" style="opacity: 1; stroke-width: 0px; fill: rgb(217, 30, 30); fill-opacity: 1;"/></g><g class="text"/></g></g></g></g><path class="xlines-above crisp" d="M0,0" style="fill: none;"/><path class="ylines-above crisp" d="M0,0" style="fill: none;"/><g class="overlines-above"/><g class="xaxislayer-above"><g class="xtick"><text text-anchor="middle" x="0" y="1260" transform="translate(130.98,0)" style="font-family: 'Open Sans', verdana, arial, sans-serif; font-size: 24px; fill: rgb(42, 63, 95); fill-opacity: 1; white-space: pre; opacity: 1;">−1500</text></g><g class="xtick"><text text-anchor="middle" x="0" y="1260" style="font-family: 'Open Sans', verdana, arial, sans-serif; font-size: 24px; fill: rgb(42, 63, 95); fill-opacity: 1; white-space: pre; opacity: 1;" transform="translate(270.82,0)">−1000</text></g><g class="xtick"><text text-anchor="middle" x="0" y="1260" style="font-family: 'Open Sans', verdana, arial, sans-serif; font-size: 24px; fill: rgb(42, 63, 95); fill-opacity: 1; white-space: pre; opacity: 1;" transform="translate(410.66,0)">−500</text></g><g class="xtick"><text text-anchor="middle" x="0" y="1260" style="font-family: 'Open Sans', verdana, arial, sans-serif; font-size: 24px; fill: rgb(42, 63, 95); fill-opacity: 1; white-space: pre; opacity: 1;" transform="translate(550.5,0)">0</text></g><g class="xtick"><text text-anchor="middle" x="0" y="1260" style="font-family: 'Open Sans', verdana, arial, sans-serif; font-size: 24px; fill: rgb(42, 63, 95); fill-opacity: 1; white-space: pre; opacity: 1;" transform="translate(690.34,0)">500</text></g><g class="xtick"><text text-anchor="middle" x="0" y="1260" style="font-family: 'Open Sans', verdana, arial, sans-serif; font-size: 24px; fill: rgb(42, 63, 95); fill-opacity: 1; white-space: pre; opacity: 1;" transform="translate(830.18,0)">1000</text></g><g class="xtick"><text text-anchor="middle" x="0" y="1260" style="font-family: 'Open Sans', verdana, arial, sans-serif; font-size: 24px; fill: rgb(42, 63, 95); fill-opacity: 1; white-space: pre; opacity: 0;" transform="translate(970.02,0)">1500</text></g></g><g class="yaxislayer-above"><g class="ytick"><text text-anchor="end" x="116" y="8.399999999999999" transform="translate(0,1122.98)" style="font-family: 'Open Sans', verdana, arial, sans-serif; font-size: 24px; fill: rgb(42, 63, 95); fill-opacity: 1; white-space: pre; opacity: 1;">−1500</text></g><g class="ytick"><text text-anchor="end" x="116" y="8.399999999999999" style="font-family: 'Open Sans', verdana, arial, sans-serif; font-size: 24px; fill: rgb(42, 63, 95); fill-opacity: 1; white-space: pre; opacity: 1;" transform="translate(0,983.15)">−1000</text></g><g class="ytick"><text text-anchor="end" x="116" y="8.399999999999999" style="font-family: 'Open Sans', verdana, arial, sans-serif; font-size: 24px; fill: rgb(42, 63, 95); fill-opacity: 1; white-space: pre; opacity: 1;" transform="translate(0,843.31)">−500</text></g><g class="ytick"><text text-anchor="end" x="116" y="8.399999999999999" style="font-family: 'Open Sans', verdana, arial, sans-serif; font-size: 24px; fill: rgb(42, 63, 95); fill-opacity: 1; white-space: pre; opacity: 1;" transform="translate(0,703.47)">0</text></g><g class="ytick"><text text-anchor="end" x="116" y="8.399999999999999" style="font-family: 'Open Sans', verdana, arial, sans-serif; font-size: 24px; fill: rgb(42, 63, 95); fill-opacity: 1; white-space: pre; opacity: 1;" transform="translate(0,563.63)">500</text></g><g class="ytick"><text text-anchor="end" x="116" y="8.399999999999999" style="font-family: 'Open Sans', verdana, arial, sans-serif; font-size: 24px; fill: rgb(42, 63, 95); fill-opacity: 1; white-space: pre; opacity: 1;" transform="translate(0,423.79)">1000</text></g><g class="ytick"><text text-anchor="end" x="116" y="8.399999999999999" style="font-family: 'Open Sans', verdana, arial, sans-serif; font-size: 24px; fill: rgb(42, 63, 95); fill-opacity: 1; white-space: pre; opacity: 1;" transform="translate(0,283.95)">1500</text></g><g class="ytick"><text text-anchor="end" x="116" y="8.399999999999999" style="font-family: 'Open Sans', verdana, arial, sans-serif; font-size: 24px; fill: rgb(42, 63, 95); fill-opacity: 1; white-space: pre; opacity: 1;" transform="translate(0,144.11)">2000</text></g></g><g class="overaxes-above"/></g></g><g class="polarlayer"/><g class="smithlayer"/><g class="ternarylayer"/><g class="geolayer"/><g class="funnelarealayer"/><g class="pielayer"/><g class="iciclelayer"/><g class="treemaplayer"/><g class="sunburstlayer"/><g class="glimages"/><defs id="topdefs-76f338"><g class="clips"/><clipPath id="legend76f338"><rect width="385" height="45" x="2" y="2"/></clipPath></defs><g class="layer-above"><g class="imagelayer"/><g class="shapelayer"/></g><g class="infolayer"><g class="legend" pointer-events="all" transform="translate(586.33,0)"><rect class="bg" shape-rendering="crispEdges" style="stroke: rgb(0, 0, 0); stroke-opacity: 1; fill: rgb(255, 255, 255); fill-opacity: 1; stroke-width: 2px;" width="387" height="47" x="1" y="1"/><g class="scrollbox" transform="" clip-path="url(#legend76f338)"><g class="groups"><g class="traces" transform="translate(2,24.1)" style="opacity: 1;"><text class="legendtext" text-anchor="start" x="40" y="9.360000000000001" style="font-family: 'Open Sans', verdana, arial, sans-serif; font-size: 24px; fill: rgb(42, 63, 95); fill-opacity: 1; white-space: pre;">OS Ref</text><g class="layers" style="opacity: 1;"><g class="legendfill"/><g class="legendlines"><path class="js-line" d="M5,0h30" style="fill: none; stroke: rgb(0, 0, 0); stroke-opacity: 1; stroke-width: 2px;"/></g><g class="legendsymbols"><g class="legendpoints"/></g></g><rect class="legendtoggle" x="0" y="-17.1" width="126.640625" height="34.2" style="fill: rgb(0, 0, 0); fill-opacity: 0;"/></g><g class="traces" transform="translate(131.140625,24.1)" style="opacity: 1;"><text class="legendtext" text-anchor="start" x="40" y="9.360000000000001" style="font-family: 'Open Sans', verdana, arial, sans-serif; font-size: 24px; fill: rgb(42, 63, 95); fill-opacity: 1; white-space: pre;">OS Pos</text><g class="layers" style="opacity: 1;"><g class="legendfill"/><g class="legendlines"><path class="js-line" d="M5,0h30" style="fill: none; stroke: rgb(100, 143, 255); stroke-opacity: 1; stroke-width: 2px;"/></g><g class="legendsymbols"><g class="legendpoints"/></g></g><rect class="legendtoggle" x="0" y="-17.1" width="127.203125" height="34.2" style="fill: rgb(0, 0, 0); fill-opacity: 0;"/></g><g class="traces" transform="translate(260.84375,24.1)" style="opacity: 1;"><text class="legendtext" text-anchor="start" x="40" y="9.360000000000001" style="font-family: 'Open Sans', verdana, arial, sans-serif; font-size: 24px; fill: rgb(42, 63, 95); fill-opacity: 1; white-space: pre;">TS Pos</text><g class="layers" style="opacity: 1;"><g class="legendfill"/><g class="legendlines"><path class="js-line" d="M5,0h30" style="fill: none; stroke: rgb(220, 38, 127); stroke-opacity: 1; stroke-width: 2px;"/></g><g class="legendsymbols"><g class="legendpoints"/></g></g><rect class="legendtoggle" x="0" y="-17.1" width="122.953125" height="34.2" style="fill: rgb(0, 0, 0); fill-opacity: 0;"/></g></g></g><rect class="scrollbar" rx="20" ry="3" width="0" height="0" style="fill: rgb(128, 139, 164); fill-opacity: 1;" x="0" y="0"/></g><g class="g-gtitle"/><g class="g-xtitle" transform="translate(0,-5.7999999999999545)"><text class="xtitle" x="550.5" y="1299.8" text-anchor="middle" style="opacity: 1; font-family: 'Open Sans', verdana, arial, sans-serif; font-size: 29px; fill: rgb(42, 63, 95); fill-opacity: 1; white-space: pre;">East [m]</text></g><g class="g-ytitle" transform="translate(18.322265625,0)"><text class="ytitle" transform="rotate(-90,10.678124999999994,675.5)" x="10.678124999999994" y="675.5" text-anchor="middle" style="opacity: 1; font-family: 'Open Sans', verdana, arial, sans-serif; font-size: 29px; fill: rgb(42, 63, 95); fill-opacity: 1; white-space: pre;">North [m]</text></g><g class="annotation" data-index="0" style="opacity: 1;"><g class="annotation-text-g" transform="rotate(0,550.5,104.5)"><g class="cursor-pointer" transform="translate(477,93)"><rect class="bg" x="0.5" y="0.5" width="147" height="22" style="stroke-width: 1px; stroke: rgb(0, 0, 0); stroke-opacity: 0; fill: rgb(0, 0, 0); fill-opacity: 0;"/><text class="annotation-text" text-anchor="middle" x="74.15625" y="18" style="font-family: 'Open Sans', verdana, arial, sans-serif; font-size: 16px; fill: rgb(42, 63, 95); fill-opacity: 1; white-space: pre;">Course 40\degree</text></g></g></g></g></svg>