<svg class="main-svg" xmlns="http://www.w3.org/2000/svg" xmlns:xlink="http://www.w3.org/1999/xlink" width="1000" height="1300" style="" viewBox="0 0 1000 1300"><rect x="0" y="0" width="1000" height="1300" style="fill: rgb(255, 255, 255); fill-opacity: 1;"/><defs id="defs-582835"><g class="clips"><clipPath id="clip582835xyplot" class="plotclip"><rect width="867" height="1119"/></clipPath><clipPath class="axesclip" id="clip582835x"><rect x="117" y="0" width="867" height="1300"/></clipPath><clipPath class="axesclip" id="clip582835y"><rect x="0" y="116" width="1000" height="1119"/></clipPath><clipPath class="axesclip" id="clip582835xy"><rect x="117" y="116" width="867" height="1119"/></clipPath></g><g class="gradients"/><g class="patterns"/></defs><g class="bglayer"/><g class="layer-below"><g class="imagelayer"/><g class="shapelayer"/></g><g class="cartesianlayer"><g class="subplot xy"><g class="layer-subplot"><g class="shapelayer"/><g class="imagelayer"/></g><g class="minor-gridlayer"><g class="x"/><g class="y"/></g><g class="gridlayer"><g class="x"><path class="xgrid crisp" transform="translate(130.98,0)" d="M0,116v1119" style="stroke: rgb(200, 200, 200); stroke-opacity: 1; stroke-width: 1px;"/><path class="xgrid crisp" transform="translate(270.82,0)" d="M0,116v1119" style="stroke: rgb(200, 200, 200); stroke-opacity: 1; stroke-width: 1px;"/><path class="xgrid crisp" transform="translate(410.66,0)" d="M0,116v1119" style="stroke: rgb(200, 200, 200); stroke-opacity: 1; stroke-width: 1px;"/><path class="xgrid crisp" transform="translate(690.34,0)" d="M0,116v1119" style="stroke: rgb(200, 200, 200); stroke-opacity: 1; stroke-width: 1px;"/><path class="xgrid crisp" transform="translate(830.18,0)" d="M0,116v1119" style="stroke: rgb(200, 200, 200); stroke-opacity: 1; stroke-width: 1px;"/><path class="xgrid crisp" transform="translate(970.02,0)" d="M0,116v1119" style="stroke: rgb(200, 200, 200); stroke-opacity: 1; stroke-width: 1px;"/></g><g class="y"><path class="ygrid crisp" transform="translate(0,1122.98)" d="M117,0h867" style="stroke: rgb(200, 200, 200); stroke-opacity: 1; stroke-width: 1px;"/><path class="ygrid crisp" transform="translate(0,983.15)" d="M117,0h867" style="stroke: rgb(200, 200, 200); stroke-opacity: 1; stroke-width: 1px;"/><path class="ygrid crisp" transform="translate(0,843.31)" d="M117,0h867" style="stroke: rgb(200, 200, 200); stroke-opacity: 1; stroke-width: 1px;"/><path class="ygrid crisp" transform="translate(0,563.63)" d="M117,0h867" style="stroke: rgb(200, 200, 200); stroke-opacity: 1; stroke-width: 1px;"/><path class="ygrid crisp" transform="translate(0,423.79)" d="M117,0h867" style="stroke: rgb(200, 200, 200); stroke-opacity: 1; stroke-width: 1px;"/><path class="ygrid crisp" transform="translate(0,283.95)" d="M117,0h867" style="stroke: rgb(200, 200, 200); stroke-opacity: 1; stroke-width: 1px;"/><path class="ygrid crisp" transform="translate(0,144.11)" d="M117,0h867" style="stroke: rgb(200, 200, 200); stroke-opacity: 1; stroke-width: 1px;"/></g></g><g class="zerolinelayer"><path class="xzl zl crisp" transform="translate(550.5,0)" d="M0,116v1119" style="stroke: rgb(200, 200, 200); stroke-opacity: 1; stroke-width: 2px;"/><path class="yzl zl crisp" transform="translate(0,703.47)" d="M117,0h867" style="stroke: rgb(200, 200, 200); stroke-opacity: 1; stroke-width: 2px;"/></g><g class="layer-between"><g class="shapelayer"/><g class="imagelayer"/></g><path class="xlines-below"/><path class="ylines-below"/><g class="overlines-below"/><g class="xaxislayer-below"/><g class="yaxislayer-below"/><g class="overaxes-below"/><g class="overplot"><g class="xy" transform="translate(117,116)" clip-path="url(#clip582835xyplot)"><g class="scatterlayer mlayer"><g class="trace scatter trace0d1c4e" style="stroke-miterlimit: 2; opacity: 1;"><g class="fills"/><g class="errorbars"/><g class="lines"><path class="js-line" d="M13.98,475.6L853.02,475.6" style="vector-effect: none; fill: none; stroke: rgb(0, 0, 0); stroke-opacity: 1; stroke-width: 2px; opacity: 1;"/></g><g class="points"/><g class="text"/></g><g class="trace scatter trace823a59" style="stroke-miterlimit: 2; opacity: 1;"><g class="fills"/><g class="errorbars"/><g class="lines"><path class="js-line" d="M13.98,475.6L853.02,475.6" style="vector-effect: none; fill: none; stroke: rgb(100, 143, 255); stroke-opacity: 1; stroke-width: 2px; opacity: 1;"/></g><g class="points"/><g class="text"/></g><g class="trace scatter trace3e5687" style="stroke-miterlimit: 2; opacity: 1;"><g class="fills"/><g class="errorbars"/><g class="lines"/><g class="points"><path class="point" transform="translate(13.98,475.6)" d="M-3.2500000000000004,-7.51L-3.2499999999999996,7.51L6.5,-3.9801020972288977e-16Z" style="opacity: 1; stroke-width: 0px; fill: rgb(12, 51, 131); fill-opacity: 1;"/><path class="point" transform="translate(114.67,475.6)" d="M-3.249999999999992,-7.510000000000003L-3.250000000000008,7.509999999999996L6.5,6.818439450340628e-15Z" style="opacity: 1; stroke-width: 0px; fill: rgb(11, 94, 159); fill-opacity: 1;"/><path class="point" transform="translate(215.35,475.6)" d="M-3.250000000002757,-7.509999999998807L-3.249999999997243,7.510000000001193L6.5,-2.386156267826722e-12Z" style="opacity: 1; stroke-width: 0px; fill: rgb(10, 136, 186); fill-opacity: 1;"/><path class="point" transform="translate(316.04,475.6)" d="M-3.250000000002772,-7.5099999999988L-3.249999999997228,7.5100000000012L6.5,-2.3991458772148362e-12Z" style="opacity: 1; stroke-width: 0px; fill: rgb(126, 174, 121); fill-opacity: 1;"/><path class="point" transform="translate(416.72,475.6)" d="M-3.249999999999992,-7.510000000000003L-3.250000000000008,7.509999999999996L6.5,6.818439450340628e-15Z" style="opacity: 1; stroke-width: 0px; fill: rgb(242, 211, 56); fill-opacity: 1;"/><path class="point" transform="translate(517.4,475.6)" d="M-3.250000000000009,-7.509999999999996L-3.249999999999991,7.510000000000003L6.5,-7.614459869786407e-15Z" style="opacity: 1; stroke-width: 0px; fill: rgb(242, 177, 56); fill-opacity: 1;"/><path class="point" transform="translate(618.09,475.6)" d="M-3.2500000000089253,-7.509999999996137L-3.2499999999910747,7.5100000000038625L6.5,-7.724885726341712e-12Z" style="opacity: 1; stroke-width: 0px; fill: rgb(242, 143, 56); fill-opacity: 1;"/><path class="point" transform="translate(718.77,475.6)" d="M-3.249999999987385,-7.5100000000054585L-3.250000000012615,7.509999999994541L6.5,1.091809032546638e-11Z" style="opacity: 1; stroke-width: 0px; fill: rgb(230, 87, 43); fill-opacity: 1;"/><path class="point" transform="translate(819.45,475.6)" d="M-3.2500000000000004,-7.51L-3.2499999999999996,7.51L6.5,-3.9801020972288977e-16Z" style="opacity: 1; stroke-width: 0px; fill: rgb(217, 30, 30); fill-opacity: 1;"/></g><g class="text"/></g><g class="trace scatter traceb568b3" style="stroke-miterlimit: 2; opacity: 1;"><g class="fills"/><g class="errorbars"/><g class="lines"><path class="js-line" d="M13.98,496.57L853.02,496.57" style="vector-effect: none; fill: none; stroke: rgb(0, 0, 0); stroke-opacity: 1; stroke-width: 2px; opacity: 1;"/></g><g class="points"/><g class="text"/></g><g class="trace scatter tracee30ef5" style="stroke-miterlimit: 2; opacity: 1;"><g class="fills"/><g class="errorbars"/><g class="lines"><path class="js-line" d="M13.98,496.57L120.57,495.86L123.36,495.68L145.62,493.42L148.39,493.04L170.45,489.23L173.2,488.66L197.72,482.68L200.42,481.93L224.54,474.6L227.2,473.71L253.49,464.02L256.1,462.97L277.03,455.06L279.68,454.22L298.53,449.35L301.25,448.8L320.51,445.96L323.28,445.7L342.83,444.9L345.64,444.9L518.12,445.49L520.01,445.83L525.63,447.73L526.59,448.29L528.94,450.63L529.19,451.2L529.12,453.11L528.88,453.45L527.24,454.06L526.71,453.97L524.36,452.39L523.76,451.65L520.02,447.59L519.07,446.86L513.27,443.8L511.9,443.32L504.01,441.72L502.23,441.57L492.25,441.86L490.05,442.14L477.98,444.77L475.36,445.56L468.15,448.59L466.16,449.81L461.37,453.97L460.17,455.48L457.74,460.25L457.31,461.88L457.14,466.77L457.46,468.36L459.48,472.86L460.51,474.24L464.65,477.85L466.38,478.84L472.55,481.06L474.94,481.5L483,481.9L485.81,481.9L564.37,481.89" style="vector-effect: none; fill: none; stroke: rgb(100, 143, 255); stroke-opacity: 1; stroke-width: 2px; opacity: 1;"/></g><g class="points"/><g class="text"/></g><g class="trace scatter trace41651d" style="stroke-miterlimit: 2; opacity: 1;"><g class="fills"/><g class="errorbars"/><g class="lines"/><g class="points"><path class="point" transform="translate(13.98,496.57)" d="M-3.2500000000000004,-7.51L-3.2499999999999996,7.51L6.5,-3.9801020972288977e-16Z" style="opacity: 1; stroke-width: 0px; fill: rgb(12, 51, 131); fill-opacity: 1;"/><path class="point" transform="translate(114.64,496.18)" d="M-3.593205232387257,-7.351970902958256L-2.8998658276087426,7.652017915678653L6.493071059996,-0.30004701272039597Z" style="opacity: 1; stroke-width: 0px; fill: rgb(11, 94, 159); fill-opacity: 1;"/><path class="point" transform="translate(213.22,478.2)" d="M-5.303474939127762,-6.231833884984722L-0.912575202064533,8.132023518201166L6.216050141192295,-1.900189633216444Z" style="opacity: 1; stroke-width: 0px; fill: rgb(10, 136, 186); fill-opacity: 1;"/><path class="point" transform="translate(308.48,447.52)" d="M-4.3909972193211955,-6.905196841503763L-2.028063570973184,7.927771323145711L6.419060790294379,-1.0225744816419489Z" style="opacity: 1; stroke-width: 0px; fill: rgb(126, 174, 121); fill-opacity: 1;"/><path class="point" transform="translate(408.83,444.9)" d="M-3.25005805492481,-7.50997487609768L-3.2499419448809754,7.510025123453533L6.499999999805786,-0.000050247355853802726Z" style="opacity: 1; stroke-width: 0px; fill: rgb(242, 211, 56); fill-opacity: 1;"/><path class="point" transform="translate(509.51,444.9)" d="M-3.2500976695020984,-7.509957732151162L-3.2499023299482035,7.510042266578613L6.499999999450302,-0.00008453442745116844Z" style="opacity: 1; stroke-width: 0px; fill: rgb(242, 177, 56); fill-opacity: 1;"/><path class="point" transform="translate(518.79,446.67)" d="M-1.6135631182057755,8.022406999371576L6.952771524125296,-4.315271501691685L-5.33920840591952,-3.707135497679891Z" style="opacity: 1; stroke-width: 0px; fill: rgb(242, 143, 56); fill-opacity: 1;"/><path class="point" transform="translate(457.26,462.15)" d="M7.97793244073559,-1.82076741267485L-6.788416777353096,-4.569463607137165L-1.1895156633824933,6.390231019812015Z" style="opacity: 1; stroke-width: 0px; fill: rgb(230, 87, 43); fill-opacity: 1;"/><path class="point" transform="translate(530.82,481.9)" d="M-3.250117581120239,-7.509949114933677L-3.2498824180830854,7.5100508832253885L6.499999999203324,-0.0001017682917110613Z" style="opacity: 1; stroke-width: 0px; fill: rgb(217, 30, 30); fill-opacity: 1;"/></g><g class="text"/></g><g class="trace scatter trace3c7696" style="stroke-miterlimit: 2; opacity: 1;"><g class="fills"/><g class="errorbars"/><g class="lines"><path class="js-line" d="M13.98,517.55L853.02,517.55" style="vector-effect: none; fill: none; stroke: rgb(0, 0, 0); stroke-opacity: 1; stroke-width: 2px; opacity: 1;"/></g><g class="points"/><g class="text"/></g><g class="trace scatter trace515631" style="stroke-miterlimit: 2; opacity: 1;"><g class="fills"/><g class="errorbars"/><g class="lines"><path class="js-line" d="M13.98,517.55L112.04,518.3L114.79,518.61L128.34,520.98L131.01,521.62L144.13,525.61L146.7,526.56L159.27,532.14L161.72,533.41L173.66,540.53L175.98,542.11L192.51,552.63L194.92,554.04L212.19,563.17L214.71,564.38L232.66,572.09L235.27,573.09L253.85,579.36L256.54,580.15L275.52,584.89L278.26,585.46L297.53,588.64L300.3,588.98L319.78,590.58L322.58,590.7L350.62,590.88L353.43,590.88L516.12,590.29L518.9,590.06L535.44,587.9L538.17,587.4L554.41,583.68L557.09,582.93L572.96,577.65L575.57,576.65L601.31,565.51L603.87,564.36L649.54,542.81L652.05,541.57L672.37,532.21L674.96,531.21L690.79,526.1L693.47,525.39L709.74,522.04L712.48,521.63L729.09,520.05L731.89,519.94L762.74,519.85L765.55,519.85L821.67,519.85" style="vector-effect: none; fill: none; stroke: rgb(100, 143, 255); stroke-opacity: 1; stroke-width: 2px; opacity: 1;"/></g><g class="points"/><g class="text"/></g><g class="trace scatter tracedb1d7b" style="stroke-miterlimit: 2; opacity: 1;"><g class="fills"/><g class="errorbars"/><g class="lines"/><g class="points"><path class="point" transform="translate(13.98,517.55)" d="M-3.2500000000000004,-7.51L-3.2499999999999996,7.51L6.5,-3.9801020972288977e-16Z" style="opacity: 1; stroke-width: 0px; fill: rgb(12, 51, 131); fill-opacity: 1;"/><path class="point" transform="translate(114.46,518.57)" d="M-2.32477373516917,-7.845892369913544L-4.128202720236958,7.065447070117232L6.452976455406128,0.7804452997963133Z" style="opacity: 1; stroke-width: 0px; fill: rgb(11, 94, 159); fill-opacity: 1;"/><path class="point" transform="translate(204.12,559.1)" d="M0.6171044659569263,-8.159766055353304L-6.370803518095455,5.1357046774344965L5.753699052138529,3.024061377918807Z" style="opacity: 1; stroke-width: 0px; fill: rgb(10, 136, 186); fill-opacity: 1;"/><path class="point" transform="translate(299.3,588.86)" d="M-2.317024526665318,-7.848184334152159L-4.135178066983114,7.0613668899400635L6.4522025936484315,0.7868174442120953Z" style="opacity: 1; stroke-width: 0px; fill: rgb(126, 174, 121); fill-opacity: 1;"/><path class="point" transform="translate(399.79,590.88)" d="M-3.249968903314017,-7.5100134572111035L-3.2500310966302606,7.509986542660133L6.4999999999442775,0.00002691455097078269Z" style="opacity: 1; stroke-width: 0px; fill: rgb(242, 211, 56); fill-opacity: 1;"/><path class="point" transform="translate(500.47,590.88)" d="M-3.250058310151372,-7.509974765644422L-3.2499416896527014,7.5100252339028355L6.499999999804073,-0.000050468258412485765Z" style="opacity: 1; stroke-width: 0px; fill: rgb(242, 177, 56); fill-opacity: 1;"/><path class="point" transform="translate(596.9,567.47)" d="M-6.018041681167939,-5.544887223715678L0.0773404488329712,8.182702393156818L5.940701232334968,-2.6378151694411396Z" style="opacity: 1; stroke-width: 0px; fill: rgb(242, 143, 56); fill-opacity: 1;"/><path class="point" transform="translate(688.55,526.72)" d="M-5.1921588060521255,-6.324878412486312L-1.0566023603806363,8.114566621332163L6.248761166432762,-1.7896882088458508Z" style="opacity: 1; stroke-width: 0px; fill: rgb(230, 87, 43); fill-opacity: 1;"/><path class="point" transform="translate(788.11,519.85)" d="M-3.250030698165482,-7.509986715100233L-3.249969301780214,7.510013284774283L6.499999999945696,-0.000026569674051004465Z" style="opacity: 1; stroke-width: 0px; fill: rgb(217, 30, 30); fill-opacity: 1;"/></g><g class="text"/></g><g class="trace scatter trace61d05d" style="stroke-miterlimit: 2; opacity: 1;"><g class="fills"/><g class="errorbars"/><g class="lines"><path class="js-line" d="M13.98,538.52L853.02,538.52" style="vector-effect: none; fill: none; stroke: rgb(0, 0, 0); stroke-opacity: 1; stroke-width: 2px; opacity: 1;"/></g><g class="points"/><g class="text"/></g><g class="trace scatter tracea25b7f" style="stroke-miterlimit: 2; opacity: 1;"><g class="fills"/><g class="errorbars"/><g class="lines"><path class="js-line" d="M13.98,538.52L117.75,539.25L120.53,539.47L139.92,541.8L142.67,542.25L161.81,546.18L164.52,546.85L186.01,553.22L188.67,554.1L220.37,565.4L222.99,566.41L254.11,579.21L256.68,580.34L274.86,587.58L277.5,588.46L293.54,592.98L296.24,593.6L312.64,596.52L315.4,596.88L332.07,598.18L334.87,598.26L376.95,598.31L379.76,598.31L518.78,599.02L519.56,599.19L521.18,600.01L521.24,599.53L521.47,599.23L524.92,596.46L526.25,595.6L538.26,589.04L539.82,588.27L546.11,584.99L546.55,584.48L554.85,576.52L556.95,574.67L567.96,566.28L570.26,564.78L582.19,558.19L584.66,557.05L597.37,552.32L599.98,551.56L613.33,548.74L616.06,548.36L629.91,547.5L632.72,547.5L714.09,547.5" style="vector-effect: none; fill: none; stroke: rgb(100, 143, 255); stroke-opacity: 1; stroke-width: 2px; opacity: 1;"/></g><g class="points"/><g class="text"/></g><g class="trace scatter traceee7464" style="stroke-miterlimit: 2; opacity: 1;"><g class="fills"/><g class="errorbars"/><g class="lines"/><g class="points"><path class="point" transform="translate(13.98,538.52)" d="M-3.2500000000000155,-7.509999999999993L-3.2499999999999845,7.510000000000007L6.5,-1.338761959783722e-14Z" style="opacity: 1; stroke-width: 0px; fill: rgb(12, 51, 131); fill-opacity: 1;"/><path class="point" transform="translate(114.62,539.04)" d="M-2.7811696189786366,-7.695953193105466L-3.706484135839233,7.295517483412133L6.487653754817869,0.4004357096933339Z" style="opacity: 1; stroke-width: 0px; fill: rgb(11, 94, 159); fill-opacity: 1;"/><path class="point" transform="translate(211.86,562.21)" d="M-0.45633372648190385,-8.17033411373581L-5.643711817358147,5.925463435260738L6.100045543840051,2.244870678475072Z" style="opacity: 1; stroke-width: 0px; fill: rgb(10, 136, 186); fill-opacity: 1;"/><path class="point" transform="translate(306.16,595.54)" d="M-1.954069689346725,-7.946333220371293L-4.455179329357361,6.863962204387994L6.409249018704086,1.082371015983298Z" style="opacity: 1; stroke-width: 0px; fill: rgb(126, 174, 121); fill-opacity: 1;"/><path class="point" transform="translate(406.48,598.31)" d="M-3.2499944142490165,-7.510002417266602L-3.250005585749186,7.509997582729245L6.499999999998202,0.000004834537356935956Z" style="opacity: 1; stroke-width: 0px; fill: rgb(242, 211, 56); fill-opacity: 1;"/><path class="point" transform="translate(507.16,598.31)" d="M-3.250123139935091,-7.509946709215616L-3.2498768591911245,7.51005328876527L6.499999999126215,-0.00010657954965271539Z" style="opacity: 1; stroke-width: 0px; fill: rgb(242, 177, 56); fill-opacity: 1;"/><path class="point" transform="translate(542.5,587.03)" d="M-5.9738036052749734,-5.592519153798557L0.012335208675821274,8.183058587265945L5.961468396599153,-2.5905394334673884Z" style="opacity: 1; stroke-width: 0px; fill: rgb(242, 143, 56); fill-opacity: 1;"/><path class="point" transform="translate(582.59,558)" d="M-6.133910728503196,-5.416432329010803L0.25029796137210525,8.179239019036732L5.8836127671310905,-2.7628066900259296Z" style="opacity: 1; stroke-width: 0px; fill: rgb(230, 87, 43); fill-opacity: 1;"/><path class="point" transform="translate(680.53,547.5)" d="M-3.250119370429759,-7.509948340565152L-3.249880628749134,7.510051657537459L6.499999999178893,-0.00010331697230752106Z" style="opacity: 1; stroke-width: 0px; fill: rgb(217, 30, 30); fill-opacity: 1;"/></g><g class="text"/></g><g class="trace scatter trace0c7813" style="stroke-miterlimit: 2; opacity: 1;"><g class="fills"/><g class="errorbars"/><g class="lines"><path class="js-line" d="M13.98,559.5L853.02,559.5" style="vector-effect: none; fill: none; stroke: rgb(0, 0, 0); stroke-opacity: 1; stroke-width: 2px; opacity: 1;"/></g><g class="points"/><g class="text"/></g><g class="trace scatter tracebed6d5" style="stroke-miterlimit: 2; opacity: 1;"><g class="fills"/><g class="errorbars"/><g class="lines"><path class="js-line" d="M13.98,559.5L120.57,560.18L123.37,560.35L148.42,562.86L151.19,563.24L176.02,567.59L178.76,568.18L211.48,576.06L214.2,576.77L249.23,586.85L251.91,587.69L284.16,597.11L286.88,597.73L306.08,601.24L308.84,601.62L328.29,603.5L331.08,603.65L353.5,603.96L356.31,603.96L533.05,603.3L535.84,603.11L558.08,600.8L560.85,600.4L582.88,596.44L585.61,595.84L615.55,588.36L618.26,587.65L702.34,565.69L705.09,565.18L727.21,562.06L729.99,561.79L752.33,560.52L755.13,560.48L842.12,560.47" style="vector-effect: none; fill: none; stroke: rgb(100, 143, 255); stroke-opacity: 1; stroke-width: 2px; opacity: 1;"/></g><g class="points"/><g class="text"/></g><g class="trace scatter trace5abf0a" style="stroke-miterlimit: 2; opacity: 1;"><g class="fills"/><g class="errorbars"/><g class="lines"/><g class="points"><path class="point" transform="translate(13.98,559.5)" d="M-3.249999999999932,-7.510000000000029L-3.250000000000068,7.5099999999999705L6.5,5.877687700279795e-14Z" style="opacity: 1; stroke-width: 0px; fill: rgb(12, 51, 131); fill-opacity: 1;"/><path class="point" transform="translate(114.64,559.87)" d="M-2.91728132616064,-7.6453953242480805L-3.5764560849959395,7.360133278147585L6.493737411156579,0.2852620461004958Z" style="opacity: 1; stroke-width: 0px; fill: rgb(11, 94, 159); fill-opacity: 1;"/><path class="point" transform="translate(213.55,576.6)" d="M-1.2239585241083348,-8.091015111298615L-5.060430470342753,6.430757611263747L6.2843889944510885,1.6602575000348685Z" style="opacity: 1; stroke-width: 0px; fill: rgb(10, 136, 186); fill-opacity: 1;"/><path class="point" transform="translate(310.61,601.86)" d="M-2.2766697143877703,-7.859985687747116L-4.171405017833158,7.040027001169552L6.448074732220928,0.8199586865775644Z" style="opacity: 1; stroke-width: 0px; fill: rgb(126, 174, 121); fill-opacity: 1;"/><path class="point" transform="translate(411.08,603.96)" d="M-3.249981211403226,-7.510008130856186L-3.250018788576432,7.509991869096809L6.499999999979658,0.000016261759376885702Z" style="opacity: 1; stroke-width: 0px; fill: rgb(242, 211, 56); fill-opacity: 1;"/><path class="point" transform="translate(511.77,603.96)" d="M-3.2500322579411547,-7.509986040089682L-3.2499677419988835,7.510013959771758L6.499999999940038,-0.000027919682074918537Z" style="opacity: 1; stroke-width: 0px; fill: rgb(242, 177, 56); fill-opacity: 1;"/><path class="point" transform="translate(610.88,589.57)" d="M-5.023224605791674,-6.459861806553533L-1.2706435218536072,8.08381500532833L6.293868127645281,-1.623953198774796Z" style="opacity: 1; stroke-width: 0px; fill: rgb(242, 143, 56); fill-opacity: 1;"/><path class="point" transform="translate(708.28,564.63)" d="M-4.449541261695213,-6.867618405274988L-1.9605944201153789,7.944725893308871L6.4101356818105915,-1.077107488033883Z" style="opacity: 1; stroke-width: 0px; fill: rgb(230, 87, 43); fill-opacity: 1;"/><path class="point" transform="translate(808.56,560.47)" d="M-3.250012911645524,-7.509994412390556L-3.2499870883448696,7.510005587587244L6.4999999999903935,-0.00001117519668808857Z" style="opacity: 1; stroke-width: 0px; fill: rgb(217, 30, 30); fill-opacity: 1;"/></g><g class="text"/></g><g class="trace scatter trace7e119f" style="stroke-miterlimit: 2; opacity: 1;"><g class="fills"/><g class="errorbars"/><g class="lines"><path class="js-line" d="M13.98,580.48L853.02,580.48" style="vector-effect: none; fill: none; stroke: rgb(0, 0, 0); stroke-opacity: 1; stroke-width: 2px; opacity: 1;"/></g><g class="points"/><g class="text"/></g><g class="trace scatter tracecbf550" style="stroke-miterlimit: 2; opacity: 1;"><g class="fills"/><g class="errorbars"/><g class="lines"><path class="js-line" d="M13.98,580.48L126.2,581.14L129,581.27L159.74,583.64L162.53,583.93L193.12,587.92L195.9,588.33L242.97,596.01L245.74,596.51L295.51,604.8L298.29,605.12L323.4,607.21L326.2,607.35L351.42,607.86L354.23,607.86L542.21,607.21L545.01,607.06L572.94,604.85L575.73,604.55L606.29,600.36L609.06,599.93L714.39,583.59L717.17,583.31L745.12,581.39L747.92,581.28L781.58,580.99L784.38,580.99L848.92,580.99" style="vector-effect: none; fill: none; stroke: rgb(100, 143, 255); stroke-opacity: 1; stroke-width: 2px; opacity: 1;"/></g><g class="points"/><g class="text"/></g><g class="trace scatter trace34793b" style="stroke-miterlimit: 2; opacity: 1;"><g class="fills"/><g class="errorbars"/><g class="lines"/><g class="points"><path class="point" transform="translate(13.98,580.48)" d="M-3.249999999999927,-7.510000000000032L-3.250000000000073,7.509999999999968L6.5,6.310674679883606e-14Z" style="opacity: 1; stroke-width: 0px; fill: rgb(12, 51, 131); fill-opacity: 1;"/><path class="point" transform="translate(114.66,580.71)" d="M-3.0412948478430892,-7.596915535168406L-3.4562244466575875,7.4173521268931575L6.497519294500677,0.17956340827524894Z" style="opacity: 1; stroke-width: 0px; fill: rgb(11, 94, 159); fill-opacity: 1;"/><path class="point" transform="translate(214.65,591.22)" d="M-2.0221330832099915,-7.929286083487444L-4.3961610324344225,6.901910472970879L6.418294115644414,1.027375610516565Z" style="opacity: 1; stroke-width: 0px; fill: rgb(10, 136, 186); fill-opacity: 1;"/><path class="point" transform="translate(314.01,606.59)" d="M-2.671519293039339,-7.734700037294179L-3.8097885920483283,7.242106798708398L6.481307885087667,0.4925932385857811Z" style="opacity: 1; stroke-width: 0px; fill: rgb(126, 174, 121); fill-opacity: 1;"/><path class="point" transform="translate(414.62,607.86)" d="M-3.2499883835932013,-7.510005027062848L-3.2500116163990227,7.509994972919184L6.499999999992224,0.000010054143664215302Z" style="opacity: 1; stroke-width: 0px; fill: rgb(242, 211, 56); fill-opacity: 1;"/><path class="point" transform="translate(515.3,607.86)" d="M-3.250018331202581,-7.509992067029578L-3.2499816687780547,7.510007932925677L6.499999999980636,-0.00001586589609985845Z" style="opacity: 1; stroke-width: 0px; fill: rgb(242, 177, 56); fill-opacity: 1;"/><path class="point" transform="translate(615.38,598.94)" d="M-4.373510163642931,-6.916285769725828L-2.0481176115050355,7.922614104539164L6.421627775147966,-1.0063283348133367Z" style="opacity: 1; stroke-width: 0px; fill: rgb(242, 143, 56); fill-opacity: 1;"/><path class="point" transform="translate(714.83,583.54)" d="M-3.9963423010455084,-7.140857666476365L-2.4700090368450476,7.801388040464581L6.466351337890556,-0.6605303739882152Z" style="opacity: 1; stroke-width: 0px; fill: rgb(230, 87, 43); fill-opacity: 1;"/><path class="point" transform="translate(815.36,580.99)" d="M-3.250006852285259,-7.509997034626503L-3.2499931477120354,7.510002965367246L6.499999999997295,-0.000005930740742796375Z" style="opacity: 1; stroke-width: 0px; fill: rgb(217, 30, 30); fill-opacity: 1;"/></g><g class="text"/></g><g class="trace scatter trace003c74" style="stroke-miterlimit: 2; opacity: 1;"><g class="fills"/><g class="errorbars"/><g class="lines"><path class="js-line" d="M13.98,601.45L853.02,601.45" style="vector-effect: none; fill: none; stroke: rgb(0, 0, 0); stroke-opacity: 1; stroke-width: 2px; opacity: 1;"/></g><g class="points"/><g class="text"/></g><g class="trace scatter trace0df076" style="stroke-miterlimit: 2; opacity: 1;"><g class="fills"/><g class="errorbars"/><g class="lines"><path class="js-line" d="M13.98,601.45L151.47,602.19L154.28,602.27L221.56,605.17L224.36,605.31L319.64,609.92L322.45,609.97L367.34,610.24L370.15,610.24L537.76,609.82L539.61,609.68L646.74,602.4L648.08,602.42L709.76,602.46L712.56,602.46L740.62,602.46" style="vector-effect: none; fill: none; stroke: rgb(100, 143, 255); stroke-opacity: 1; stroke-width: 2px; opacity: 1;"/></g><g class="points"/><g class="text"/></g><g class="trace scatter trace24dbe3" style="stroke-miterlimit: 2; opacity: 1;"><g class="fills"/><g class="errorbars"/><g class="lines"/><g class="points"><path class="point" transform="translate(13.98,601.45)" d="M-3.2499999999999853,-7.510000000000006L-3.2500000000000147,7.509999999999994L6.5,1.2591599178391442e-14Z" style="opacity: 1; stroke-width: 0px; fill: rgb(12, 51, 131); fill-opacity: 1;"/><path class="point" transform="translate(114.67,601.52)" d="M-3.1847238372485664,-7.537913111761157L-3.31503154280682,7.481521627997599L6.499755380055387,0.05639148376355871Z" style="opacity: 1; stroke-width: 0px; fill: rgb(11, 94, 159); fill-opacity: 1;"/><path class="point" transform="translate(215.28,604.85)" d="M-2.866158312150797,-7.664707204433115L-3.625529234757299,7.336084634729901L6.491687546908096,0.32862256970321335Z" style="opacity: 1; stroke-width: 0px; fill: rgb(10, 136, 186); fill-opacity: 1;"/><path class="point" transform="translate(315.83,609.83)" d="M-3.064457122150023,-7.587601896943724L-3.4335797417818905,7.427861748634328L6.4980368639319135,0.15974014830939684Z" style="opacity: 1; stroke-width: 0px; fill: rgb(126, 174, 121); fill-opacity: 1;"/><path class="point" transform="translate(416.5,610.24)" d="M-3.2499996586551525,-7.510000147719133L-3.2500003413448413,7.509999852280853L6.499999999999994,2.9543828066358934e-7Z" style="opacity: 1; stroke-width: 0px; fill: rgb(242, 211, 56); fill-opacity: 1;"/><path class="point" transform="translate(517.19,610.24)" d="M-3.2500128991926447,-7.5099944177796445L-3.2499871007977674,7.5100055821982L6.499999999990412,-0.000011164418555368928Z" style="opacity: 1; stroke-width: 0px; fill: rgb(242, 177, 56); fill-opacity: 1;"/><path class="point" transform="translate(561.85,608.13)" d="M-3.75955441884415,-7.2683113975496L-2.7250087249027537,7.716017590000937L6.484563143746904,-0.4477061924513366Z" style="opacity: 1; stroke-width: 0px; fill: rgb(242, 143, 56); fill-opacity: 1;"/><path class="point" transform="translate(642.63,602.25)" d="M-4.753629466470427,-6.660751226063325L-1.6016344208258992,8.024797018119878L6.355263887296326,-1.3640457920565532Z" style="opacity: 1; stroke-width: 0px; fill: rgb(230, 87, 43); fill-opacity: 1;"/><path class="point" transform="translate(707.06,602.46)" d="M-3.250009820971512,-7.509995749904837L-3.2499901790229297,7.51000425008232L6.499999999994442,-0.000008500177482280505Z" style="opacity: 1; stroke-width: 0px; fill: rgb(217, 30, 30); fill-opacity: 1;"/></g><g class="text"/></g><g class="trace scatter traced760de" style="stroke-miterlimit: 2; opacity: 1;"><g class="fills"/><g class="errorbars"/><g class="lines"><path class="js-line" d="M13.98,622.43L853.02,622.43" style="vector-effect: none; fill: none; stroke: rgb(0, 0, 0); stroke-opacity: 1; stroke-width: 2px; opacity: 1;"/></g><g class="points"/><g class="text"/></g><g class="trace scatter trace8efa1b" style="stroke-miterlimit: 2; opacity: 1;"><g class="fills"/><g class="errorbars"/><g class="lines"><path class="js-line" d="M13.98,622.43L741.15,622.43" style="vector-effect: none; fill: none; stroke: rgb(100, 143, 255); stroke-opacity: 1; stroke-width: 2px; opacity: 1;"/></g><g class="points"/><g class="text"/></g><g class="trace scatter tracebe8236" style="stroke-miterlimit: 2; opacity: 1;"><g class="fills"/><g class="errorbars"/><g class="lines"/><g class="points"><path class="point" transform="translate(13.98,622.43)" d="M-3.2500000000000004,-7.51L-3.2499999999999996,7.51L6.5,-3.9801020972288977e-16Z" style="opacity: 1; stroke-width: 0px; fill: rgb(12, 51, 131); fill-opacity: 1;"/><path class="point" transform="translate(114.67,622.43)" d="M-3.2499999984543955,-7.51000000066887L-3.2500000015456045,7.5099999993311295L6.5,1.3377402979844728e-9Z" style="opacity: 1; stroke-width: 0px; fill: rgb(11, 94, 159); fill-opacity: 1;"/><path class="point" transform="translate(215.35,622.43)" d="M-3.2499999919730262,-7.510000003473723L-3.2500000080269738,7.509999996526276L6.5,6.947447441234848e-9Z" style="opacity: 1; stroke-width: 0px; fill: rgb(10, 136, 186); fill-opacity: 1;"/><path class="point" transform="translate(316.04,622.43)" d="M-3.249999996605644,-7.510000001468929L-3.250000003394356,7.509999998531071L6.5,2.9378581140096766e-9Z" style="opacity: 1; stroke-width: 0px; fill: rgb(126, 174, 121); fill-opacity: 1;"/><path class="point" transform="translate(416.72,622.43)" d="M-3.2500000000000453,-7.50999999999998L-3.2499999999999547,7.510000000000019L6.5,-3.9366838374065884e-14Z" style="opacity: 1; stroke-width: 0px; fill: rgb(242, 211, 56); fill-opacity: 1;"/><path class="point" transform="translate(517.4,622.43)" d="M-3.250000000000239,-7.509999999999897L-3.249999999999761,7.510000000000103L6.5,-2.067884704875395e-13Z" style="opacity: 1; stroke-width: 0px; fill: rgb(242, 177, 56); fill-opacity: 1;"/><path class="point" transform="translate(562.15,622.43)" d="M-3.2500000115447456,-7.5099999950039384L-3.2499999884552544,7.510000004996061L6.5,-9.992123193853481e-9Z" style="opacity: 1; stroke-width: 0px; fill: rgb(242, 143, 56); fill-opacity: 1;"/><path class="point" transform="translate(643.15,622.43)" d="M-3.2500000349140077,-7.509999984890742L-3.2499999650859923,7.510000015109258L6.5,-3.021851531059353e-8Z" style="opacity: 1; stroke-width: 0px; fill: rgb(230, 87, 43); fill-opacity: 1;"/><path class="point" transform="translate(707.58,622.43)" d="M-3.2500000000002087,-7.509999999999909L-3.2499999999997913,7.51000000000009L6.5,-1.8080925171131083e-13Z" style="opacity: 1; stroke-width: 0px; fill: rgb(217, 30, 30); fill-opacity: 1;"/></g><g class="text"/></g><g class="trace scatter tracebd3203" style="stroke-miterlimit: 2; opacity: 1;"><g class="fills"/><g class="errorbars"/><g class="lines"><path class="js-line" d="M13.98,643.4L853.02,643.4" style="vector-effect: none; fill: none; stroke: rgb(0, 0, 0); stroke-opacity: 1; stroke-width: 2px; opacity: 1;"/></g><g class="points"/><g class="text"/></g><g class="trace scatter trace605259" style="stroke-miterlimit: 2; opacity: 1;"><g class="fills"/><g class="errorbars"/><g class="lines"><path class="js-line" d="M13.98,643.4L741.15,643.4" style="vector-effect: none; fill: none; stroke: rgb(100, 143, 255); stroke-opacity: 1; stroke-width: 2px; opacity: 1;"/></g><g class="points"/><g class="text"/></g><g class="trace scatter tracea607fb" style="stroke-miterlimit: 2; opacity: 1;"><g class="fills"/><g class="errorbars"/><g class="lines"/><g class="points"><path class="point" transform="translate(13.98,643.4)" d="M-3.2500000000000004,-7.51L-3.2499999999999996,7.51L6.5,-3.9801020972288977e-16Z" style="opacity: 1; stroke-width: 0px; fill: rgb(12, 51, 131); fill-opacity: 1;"/><path class="point" transform="translate(114.67,643.4)" d="M-3.24999999998972,-7.510000000004449L-3.25000000001028,7.509999999995551L6.5,8.897484420648594e-12Z" style="opacity: 1; stroke-width: 0px; fill: rgb(11, 94, 159); fill-opacity: 1;"/><path class="point" transform="translate(215.35,643.4)" d="M-3.249999999956511,-7.51000000001882L-3.250000000043489,7.509999999981179L6.5,3.764060341668159e-11Z" style="opacity: 1; stroke-width: 0px; fill: rgb(10, 136, 186); fill-opacity: 1;"/><path class="point" transform="translate(316.04,643.4)" d="M-3.249999999987349,-7.5100000000054745L-3.250000000012651,7.509999999994525L6.5,1.0949842703970659e-11Z" style="opacity: 1; stroke-width: 0px; fill: rgb(126, 174, 121); fill-opacity: 1;"/><path class="point" transform="translate(416.72,643.4)" d="M-3.2500000000000004,-7.51L-3.2499999999999996,7.51L6.5,-3.9801020972288977e-16Z" style="opacity: 1; stroke-width: 0px; fill: rgb(242, 211, 56); fill-opacity: 1;"/><path class="point" transform="translate(517.4,643.4)" d="M-3.2500000000000004,-7.51L-3.2499999999999996,7.51L6.5,-3.9801020972288977e-16Z" style="opacity: 1; stroke-width: 0px; fill: rgb(242, 177, 56); fill-opacity: 1;"/><path class="point" transform="translate(612.27,643.4)" d="M-3.2500000001182436,-7.509999999948829L-3.2499999998817564,7.51000000005117L6.5,-1.023412005093665e-10Z" style="opacity: 1; stroke-width: 0px; fill: rgb(242, 143, 56); fill-opacity: 1;"/><path class="point" transform="translate(643.15,643.4)" d="M-3.2500000002230824,-7.509999999903459L-3.2499999997769176,7.51000000009654L6.5,-1.930808385350052e-10Z" style="opacity: 1; stroke-width: 0px; fill: rgb(230, 87, 43); fill-opacity: 1;"/><path class="point" transform="translate(707.58,643.4)" d="M-3.2500000000000004,-7.51L-3.2499999999999996,7.51L6.5,-3.9801020972288977e-16Z" style="opacity: 1; stroke-width: 0px; fill: rgb(217, 30, 30); fill-opacity: 1;"/></g><g class="text"/></g><g class="trace scatter trace3ad6d6" style="stroke-miterlimit: 2; opacity: 1;"><g class="fills"/><g class="errorbars"/><g class="lines"><path class="js-line" d="M208.78,855.27L393.67,634.94L395.17,633.15L658.22,319.66" style="vector-effect: none; fill: none; stroke: rgb(220, 38, 127); stroke-opacity: 1; stroke-width: 2px; opacity: 1;"/></g><g class="points"/><g class="text"/></g><g class="trace scatter trace3ec962" style="stroke-miterlimit: 2; opacity: 1;"><g class="fills"/><g class="errorbars"/><g class="lines"/><g class="points"><path class="point" transform="translate(208.78,855.27)" d="M-7.842053499304777,-2.3376905086092314L3.663934036342272,7.316979388882588L4.178119462962505,-4.979288880273357Z" style="opacity: 1; stroke-width: 0px; fill: rgb(12, 51, 131); fill-opacity: 1;"/><path class="point" transform="translate(262.72,791)" d="M-7.842053499304777,-2.3376905086092314L3.663934036342272,7.316979388882588L4.178119462962505,-4.979288880273357Z" style="opacity: 1; stroke-width: 0px; fill: rgb(11, 94, 159); fill-opacity: 1;"/><path class="point" transform="translate(316.65,726.73)" d="M-7.842053499304777,-2.3376905086092314L3.663934036342272,7.316979388882588L4.178119462962505,-4.979288880273357Z" style="opacity: 1; stroke-width: 0px; fill: rgb(10, 136, 186); fill-opacity: 1;"/><path class="point" transform="translate(370.58,662.45)" d="M-7.842053499304777,-2.3376905086092314L3.663934036342272,7.316979388882588L4.178119462962505,-4.979288880273357Z" style="opacity: 1; stroke-width: 0px; fill: rgb(126, 174, 121); fill-opacity: 1;"/><path class="point" transform="translate(424.51,598.18)" d="M-7.842053499304777,-2.3376905086092314L3.663934036342272,7.316979388882588L4.178119462962505,-4.979288880273357Z" style="opacity: 1; stroke-width: 0px; fill: rgb(242, 211, 56); fill-opacity: 1;"/><path class="point" transform="translate(478.44,533.91)" d="M-7.842053499304777,-2.3376905086092314L3.663934036342272,7.316979388882588L4.178119462962505,-4.979288880273357Z" style="opacity: 1; stroke-width: 0px; fill: rgb(242, 177, 56); fill-opacity: 1;"/><path class="point" transform="translate(532.38,469.63)" d="M-7.842053499304777,-2.3376905086092314L3.663934036342272,7.316979388882588L4.178119462962505,-4.979288880273357Z" style="opacity: 1; stroke-width: 0px; fill: rgb(242, 143, 56); fill-opacity: 1;"/><path class="point" transform="translate(586.31,405.36)" d="M-7.842053499304777,-2.3376905086092314L3.663934036342272,7.316979388882588L4.178119462962505,-4.979288880273357Z" style="opacity: 1; stroke-width: 0px; fill: rgb(230, 87, 43); fill-opacity: 1;"/><path class="point" transform="translate(640.24,341.09)" d="M-7.842053499304777,-2.3376905086092314L3.663934036342272,7.316979388882588L4.178119462962505,-4.979288880273357Z" style="opacity: 1; stroke-width: 0px; fill: rgb(217, 30, 30); fill-opacity: 1;"/></g><g class="text"/></g></g></g></g><path class="xlines-above crisp" d="M0,0" style="fill: none;"/><path class="ylines-above crisp" d="M0,0" style="fill: none;"/><g class="overlines-above"/><g class="xaxislayer-above"><g class="xtick"><text text-anchor="middle" x="0" y="1260" transform="translate(130.98,0)" style="font-family: 'Open Sans', verdana, arial, sans-serif; font-size: 24px; fill: rgb(42, 63, 95); fill-opacity: 1; white-space: pre; opacity: 1;">−1500</text></g><g class="xtick"><text text-anchor="middle" x="0" y="1260" style="font-family: 'Open Sans', verdana, arial, sans-serif; font-size: 24px; fill: rgb(42, 63, 95); fill-opacity: 1; white-space: pre; opacity: 1;" transform="translate(270.82,0)">−1000</text></g><g class="xtick"><text text-anchor="middle" x="0" y="1260" style="font-family: 'Open Sans', verdana, arial, sans-serif; font-size: 24px; fill: rgb(42, 63, 95); fill-opacity: 1; white-space: pre; opacity: 1;" transform="translate(410.66,0)">−500</text></g><g class="xtick"><text text-anchor="middle" x="0" y="1260" style="font-family: 'Open Sans', verdana, arial, sans-serif; font-size: 24px; fill: rgb(42, 63, 95); fill-opacity: 1; white-space: pre; opacity: 1;" transform="translate(550.5,0)">0</text></g><g class="xtick"><text text-anchor="middle" x="0" y="1260" style="font-family: 'Open Sans', verdana, arial, sans-serif; font-size: 24px; fill: rgb(42, 63, 95); fill-opacity: 1; white-space: pre; opacity: 1;" transform="translate(690.34,0)">500</text></g><g class="xtick"><text text-anchor="middle" x="0" y="1260" style="font-family: 'Open Sans', verdana, arial, sans-serif; font-size: 24px; fill: rgb(42, 63, 95); fill-opacity: 1; white-space: pre; opacity: 1;" transform="translate(830.18,0)">1000</text></g><g class="xtick"><text text-anchor="middle" x="0" y="1260" style="font-family: 'Open Sans', verdana, arial, sans-serif; font-size: 24px; fill: rgb(42, 63, 95); fill-opacity: 1; white-space: pre; opacity: 0;" transform="translate(970.02,0)">1500</text></g></g><g class="yaxislayer-above"><g class="ytick"><text text-anchor="end" x="116" y="8.399999999999999" transform="translate(0,1122.98)" style="font-family: 'Open Sans', verdana, arial, sans-serif; font-size: 24px; fill: rgb(42, 63, 95); fill-opacity: 1; white-space: pre; opacity: 1;">−1500</text></g><g class="ytick"><text text-anchor="end" x="116" y="8.399999999999999" style="font-family: 'Open Sans', verdana, arial, sans-serif; font-size: 24px; fill: rgb(42, 63, 95); fill-opacity: 1; white-space: pre; opacity: 1;" transform="translate(0,983.15)">−1000</text></g><g class="ytick"><text text-anchor="end" x="116" y="8.399999999999999" style="font-family: 'Open Sans', verdana, arial, sans-serif; font-size: 24px; fill: rgb(42, 63, 95); fill-opacity: 1; white-space: pre; opacity: 1;" transform="translate(0,843.31)">−500</text></g><g class="ytick"><text text-anchor="end" x="116" y="8.399999999999999" style="font-family: 'Open Sans', verdana, arial, sans-serif; font-size: 24px; fill: rgb(42, 63, 95); fill-opacity: 1; white-space: pre; opacity: 1;" transform="translate(0,703.47)">0</text></g><g class="ytick"><text text-anchor="end" x="116" y="8.399999999999999" style="font-family: 'Open Sans', verdana, arial, sans-serif; font-size: 24px; fill: rgb(42, 63, 95); fill-opacity: 1; white-space: pre; opacity: 1;" transform="translate(0,563.63)">500</text></g><g class="ytick"><text text-anchor="end" x="116" y="8.399999999999999" style="font-family: 'Open Sans', verdana, arial, sans-serif; font-size: 24px; fill: rgb(42, 63, 95); fill-opacity: 1; white-space: pre; opacity: 1;" transform="translate(0,423.79)">1000</text></g><g class="ytick"><text text-anchor="end" x="116" y="8.399999999999999" style="font-family: 'Open Sans', verdana, arial, sans-serif; font-size: 24px; fill: rgb(42, 63, 95); fill-opacity: 1; white-space: pre; opacity: 1;" transform="translate(0,283.95)">1500</text></g><g class="ytick"><text text-anchor="end" x="116" y="8.399999999999999" style="font-family: 'Open Sans', verdana, arial, sans-serif; font-size: 24px; fill: rgb(42, 63, 95); fill-opacity: 1; white-space: pre; opacity: 1;" transform="translate(0,144.11)">2000</text></g></g><g class="overaxes-above"/></g></g><g class="polarlayer"/><g class="smithlayer"/><g class="ternarylayer"/><g class="geolayer"/><g class="funnelarealayer"/><g class="pielayer"/><g class="iciclelayer"/><g class="treemaplayer"/><g class="sunburstlayer"/><g class="glimages"/><defs id="topdefs-582835"><g class="clips"/><clipPath id="legend582835"><rect width="385" height="45" x="2" y="2"/></clipPath></defs><g class="layer-above"><g class="imagelayer"/><g class="shapelayer"/></g><g class="infolayer"><g class="legend" pointer-events="all" transform="translate(586.33,0)"><rect class="bg" shape-rendering="crispEdges" style="stroke: rgb(0, 0, 0); stroke-opacity: 1; fill: rgb(255, 255, 255); fill-opacity: 1; stroke-width: 2px;" width="387" height="47" x="1" y="1"/><g class="scrollbox" transform="" clip-path="url(#legend582835)"><g class="groups"><g class="traces" transform="translate(2,24.1)" style="opacity: 1;"><text class="legendtext" text-anchor="start" x="40" y="9.360000000000001" style="font-family: 'Open Sans', verdana, arial, sans-serif; font-size: 24px; fill: rgb(42, 63, 95); fill-opacity: 1; white-space: pre;">OS Ref</text><g class="layers" style="opacity: 1;"><g class="legendfill"/><g class="legendlines"><path class="js-line" d="M5,0h30" style="fill: none; stroke: rgb(0, 0, 0); stroke-opacity: 1; stroke-width: 2px;"/></g><g class="legendsymbols"><g class="legendpoints"/></g></g><rect class="legendtoggle" x="0" y="-17.1" width="126.640625" height="34.2" style="fill: rgb(0, 0, 0); fill-opacity: 0;"/></g><g class="traces" transform="translate(131.140625,24.1)" style="opacity: 1;"><text class="legendtext" text-anchor="start" x="40" y="9.360000000000001" style="font-family: 'Open Sans', verdana, arial, sans-serif; font-size: 24px; fill: rgb(42, 63, 95); fill-opacity: 1; white-space: pre;">OS Pos</text><g class="layers" style="opacity: 1;"><g class="legendfill"/><g class="legendlines"><path class="js-line" d="M5,0h30" style="fill: none; stroke: rgb(100, 143, 255); stroke-opacity: 1; stroke-width: 2px;"/></g><g class="legendsymbols"><g class="legendpoints"/></g></g><rect class="legendtoggle" x="0" y="-17.1" width="127.203125" height="34.2" style="fill: rgb(0, 0, 0); fill-opacity: 0;"/></g><g class="traces" transform="translate(260.84375,24.1)" style="opacity: 1;"><text class="legendtext" text-anchor="start" x="40" y="9.360000000000001" style="font-family: 'Open Sans', verdana, arial, sans-serif; font-size: 24px; fill: rgb(42, 63, 95); fill-opacity: 1; white-space: pre;">TS Pos</text><g class="layers" style="opacity: 1;"><g class="legendfill"/><g class="legendlines"><path class="js-line" d="M5,0h30" style="fill: none; stroke: rgb(220, 38, 127); stroke-opacity: 1; stroke-width: 2px;"/></g><g class="legendsymbols"><g class="legendpoints"/></g></g><rect class="legendtoggle" x="0" y="-17.1" width="122.953125" height="34.2" style="fill: rgb(0, 0, 0); fill-opacity: 0;"/></g></g></g><rect class="scrollbar" rx="20" ry="3" width="0" height="0" style="fill: rgb(128, 139, 164); fill-opacity: 1;" x="0" y="0"/></g><g class="g-gtitle"/><g class="g-xtitle" transform="translate(0,-5.7999999999999545)"><text class="xtitle" x="550.5" y="1299.8" text-anchor="middle" style="opacity: 1; font-family: 'Open Sans', verdana, arial, sans-serif; font-size: 29px; fill: rgb(42, 63, 95); fill-opacity: 1; white-space: pre;">East [m]</text></g><g class="g-ytitle" transform="translate(18.322265625,0)"><text class="ytitle" transform="rotate(-90,10.678124999999994,675.5)" x="10.678124999999994" y="675.5" text-anchor="middle" style="opacity: 1; font-family: 'Open Sans', verdana, arial, sans-serif; font-size: 29px; fill: rgb(42, 63, 95); fill-opacity: 1; white-space: pre;">North [m]</text></g><g class="annotation" data-index="0" style="opacity: 1;"><g class="annotation-text-g" transform="rotate(0,550.5,104.5)"><g class="cursor-pointer" transform="translate(477,93)"><rect class="bg" x="0.5" y="0.5" width="147" height="22" style="stroke-width: 1px; stroke: rgb(0, 0, 0); stroke-opacity: 0; fill: rgb(0, 0, 0); fill-opacity: 0;"/><text class="annotation-text" text-anchor="middle" x="74.15625" y="18" style="font-family: 'Open Sans', verdana, arial, sans-serif; font-size: 16px; fill: rgb(42, 63, 95); fill-opacity: 1; white-space: pre;">Course 40\degree</text></g></g></g></g></svg>