<svg class="main-svg" xmlns="http://www.w3.org/2000/svg" xmlns:xlink="http://www.w3.org/1999/xlink" width="1000" height="1300" style="" viewBox="0 0 1000 1300"><rect x="0" y="0" width="1000" height="1300" style="fill: rgb(255, 255, 255); fill-opacity: 1;"/><defs id="defs-00e91c"><g class="clips"><clipPath id="clip00e91cxyplot" class="plotclip"><rect width="867" height="1119"/></clipPath><clipPath class="axesclip" id="clip00e91cx"><rect x="117" y="0" width="867" height="1300"/></clipPath><clipPath class="axesclip" id="clip00e91cy"><rect x="0" y="116" width="1000" height="1119"/></clipPath><clipPath class="axesclip" id="clip00e91cxy"><rect x="117" y="116" width="867" height="1119"/></clipPath></g><g class="gradients"/><g class="patterns"/></defs><g class="bglayer"/><g class="layer-below"><g class="imagelayer"/><g class="shapelayer"/></g><g class="cartesianlayer"><g class="subplot xy"><g class="layer-subplot"><g class="shapelayer"/><g class="imagelayer"/></g><g class="minor-gridlayer"><g class="x"/><g class="y"/></g><g class="gridlayer"><g class="x"><path class="xgrid crisp" transform="translate(130.98,0)" d="M0,116v1119" style="stroke: rgb(200, 200, 200); stroke-opacity: 1; stroke-width: 1px;"/><path class="xgrid crisp" transform="translate(270.82,0)" d="M0,116v1119" style="stroke: rgb(200, 200, 200); stroke-opacity: 1; stroke-width: 1px;"/><path class="xgrid crisp" transform="translate(410.66,0)" d="M0,116v1119" style="stroke: rgb(200, 200, 200); stroke-opacity: 1; stroke-width: 1px;"/><path class="xgrid crisp" transform="translate(690.34,0)" d="M0,116v1119" style="stroke: rgb(200, 200, 200); stroke-opacity: 1; stroke-width: 1px;"/><path class="xgrid crisp" transform="translate(830.18,0)" d="M0,116v1119" style="stroke: rgb(200, 200, 200); stroke-opacity: 1; stroke-width: 1px;"/><path class="xgrid crisp" transform="translate(970.02,0)" d="M0,116v1119" style="stroke: rgb(200, 200, 200); stroke-opacity: 1; stroke-width: 1px;"/></g><g class="y"><path class="ygrid crisp" transform="translate(0,1122.98)" d="M117,0h867" style="stroke: rgb(200, 200, 200); stroke-opacity: 1; stroke-width: 1px;"/><path class="ygrid crisp" transform="translate(0,983.15)" d="M117,0h867" style="stroke: rgb(200, 200, 200); stroke-opacity: 1; stroke-width: 1px;"/><path class="ygrid crisp" transform="translate(0,843.31)" d="M117,0h867" style="stroke: rgb(200, 200, 200); stroke-opacity: 1; stroke-width: 1px;"/><path class="ygrid crisp" transform="translate(0,563.63)" d="M117,0h867" style="stroke: rgb(200, 200, 200); stroke-opacity: 1; stroke-width: 1px;"/><path class="ygrid crisp" transform="translate(0,423.79)" d="M117,0h867" style="stroke: rgb(200, 200, 200); stroke-opacity: 1; stroke-width: 1px;"/><path class="ygrid crisp" transform="translate(0,283.95)" d="M117,0h867" style="stroke: rgb(200, 200, 200); stroke-opacity: 1; stroke-width: 1px;"/><path class="ygrid crisp" transform="translate(0,144.11)" d="M117,0h867" style="stroke: rgb(200, 200, 200); stroke-opacity: 1; stroke-width: 1px;"/></g></g><g class="zerolinelayer"><path class="xzl zl crisp" transform="translate(550.5,0)" d="M0,116v1119" style="stroke: rgb(200, 200, 200); stroke-opacity: 1; stroke-width: 2px;"/><path class="yzl zl crisp" transform="translate(0,703.47)" d="M117,0h867" style="stroke: rgb(200, 200, 200); stroke-opacity: 1; stroke-width: 2px;"/></g><g class="layer-between"><g class="shapelayer"/><g class="imagelayer"/></g><path class="xlines-below"/><path class="ylines-below"/><g class="overlines-below"/><g class="xaxislayer-below"/><g class="yaxislayer-below"/><g class="overaxes-below"/><g class="overplot"><g class="xy" transform="translate(117,116)" clip-path="url(#clip00e91cxyplot)"><g class="scatterlayer mlayer"><g class="trace scatter tracec1713c" style="stroke-miterlimit: 2; opacity: 1;"><g class="fills"/><g class="errorbars"/><g class="lines"><path class="js-line" d="M13.98,475.6L853.02,475.6" style="vector-effect: none; fill: none; stroke: rgb(0, 0, 0); stroke-opacity: 1; stroke-width: 2px; opacity: 1;"/></g><g class="points"/><g class="text"/></g><g class="trace scatter trace9d7512" style="stroke-miterlimit: 2; opacity: 1;"><g class="fills"/><g class="errorbars"/><g class="lines"><path class="js-line" d="M13.98,475.6L774.71,475.6" style="vector-effect: none; fill: none; stroke: rgb(100, 143, 255); stroke-opacity: 1; stroke-width: 2px; opacity: 1;"/></g><g class="points"/><g class="text"/></g><g class="trace scatter tracee04457" style="stroke-miterlimit: 2; opacity: 1;"><g class="fills"/><g class="errorbars"/><g class="lines"/><g class="points"><path class="point" transform="translate(13.98,475.6)" d="M-3.2500000000000004,-7.51L-3.2499999999999996,7.51L6.5,-3.9801020972288977e-16Z" style="opacity: 1; stroke-width: 0px; fill: rgb(12, 51, 131); fill-opacity: 1;"/><path class="point" transform="translate(114.67,475.6)" d="M-3.250000000000314,-7.509999999999864L-3.249999999999686,7.510000000000136L6.5,-2.7173651742811113e-13Z" style="opacity: 1; stroke-width: 0px; fill: rgb(11, 94, 159); fill-opacity: 1;"/><path class="point" transform="translate(215.35,475.6)" d="M-3.25000000000573,-7.50999999999752L-3.24999999999427,7.51000000000248L6.5,-4.959542216605372e-12Z" style="opacity: 1; stroke-width: 0px; fill: rgb(10, 136, 186); fill-opacity: 1;"/><path class="point" transform="translate(316.04,475.6)" d="M-3.2500000000043294,-7.509999999998127L-3.2499999999956706,7.510000000001873L6.5,-3.747178673714701e-12Z" style="opacity: 1; stroke-width: 0px; fill: rgb(126, 174, 121); fill-opacity: 1;"/><path class="point" transform="translate(416.72,475.6)" d="M-3.249999999999992,-7.510000000000003L-3.250000000000008,7.509999999999996L6.5,6.818439450340628e-15Z" style="opacity: 1; stroke-width: 0px; fill: rgb(242, 211, 56); fill-opacity: 1;"/><path class="point" transform="translate(517.4,475.6)" d="M-3.249999999999949,-7.510000000000022L-3.250000000000051,7.509999999999978L6.5,4.434397768267092e-14Z" style="opacity: 1; stroke-width: 0px; fill: rgb(242, 177, 56); fill-opacity: 1;"/><path class="point" transform="translate(578.93,475.6)" d="M-3.2500000000000453,-7.50999999999998L-3.2499999999999547,7.510000000000019L6.5,-3.9366838374065884e-14Z" style="opacity: 1; stroke-width: 0px; fill: rgb(242, 143, 56); fill-opacity: 1;"/><path class="point" transform="translate(668.05,475.6)" d="M-3.2499999999651603,-7.510000000015077L-3.2500000000348397,7.509999999984923L6.5,3.0154258539331695e-11Z" style="opacity: 1; stroke-width: 0px; fill: rgb(230, 87, 43); fill-opacity: 1;"/><path class="point" transform="translate(741.15,475.6)" d="M-3.249999999999972,-7.510000000000012L-3.250000000000028,7.509999999999987L6.5,2.413791863449307e-14Z" style="opacity: 1; stroke-width: 0px; fill: rgb(217, 30, 30); fill-opacity: 1;"/></g><g class="text"/></g><g class="trace scatter trace9f67d4" style="stroke-miterlimit: 2; opacity: 1;"><g class="fills"/><g class="errorbars"/><g class="lines"><path class="js-line" d="M13.98,496.57L853.02,496.57" style="vector-effect: none; fill: none; stroke: rgb(0, 0, 0); stroke-opacity: 1; stroke-width: 2px; opacity: 1;"/></g><g class="points"/><g class="text"/></g><g class="trace scatter tracef6f137" style="stroke-miterlimit: 2; opacity: 1;"><g class="fills"/><g class="errorbars"/><g class="lines"><path class="js-line" d="M13.98,496.57L780.51,496.57" style="vector-effect: none; fill: none; stroke: rgb(100, 143, 255); stroke-opacity: 1; stroke-width: 2px; opacity: 1;"/></g><g class="points"/><g class="text"/></g><g class="trace scatter trace1c4de5" style="stroke-miterlimit: 2; opacity: 1;"><g class="fills"/><g class="errorbars"/><g class="lines"/><g class="points"><path class="point" transform="translate(13.98,496.57)" d="M-3.2500000000000004,-7.51L-3.2499999999999996,7.51L6.5,-3.9801020972288977e-16Z" style="opacity: 1; stroke-width: 0px; fill: rgb(12, 51, 131); fill-opacity: 1;"/><path class="point" transform="translate(114.67,496.57)" d="M-3.250000000000351,-7.509999999999848L-3.249999999999649,7.510000000000152L6.5,-3.034888959323906e-13Z" style="opacity: 1; stroke-width: 0px; fill: rgb(11, 94, 159); fill-opacity: 1;"/><path class="point" transform="translate(215.35,496.57)" d="M-3.2500000000056035,-7.509999999997575L-3.2499999999943965,7.5100000000024245L6.5,-4.849852181772406e-12Z" style="opacity: 1; stroke-width: 0px; fill: rgb(10, 136, 186); fill-opacity: 1;"/><path class="point" transform="translate(316.04,496.57)" d="M-3.250000000004054,-7.509999999998246L-3.249999999995946,7.510000000001754L6.5,-3.5090358349326052e-12Z" style="opacity: 1; stroke-width: 0px; fill: rgb(126, 174, 121); fill-opacity: 1;"/><path class="point" transform="translate(416.72,496.57)" d="M-3.249999999999992,-7.510000000000003L-3.250000000000008,7.509999999999996L6.5,6.818439450340628e-15Z" style="opacity: 1; stroke-width: 0px; fill: rgb(242, 211, 56); fill-opacity: 1;"/><path class="point" transform="translate(517.4,496.57)" d="M-3.2499999999999636,-7.510000000000016L-3.2500000000000364,7.509999999999984L6.5,3.135436829455659e-14Z" style="opacity: 1; stroke-width: 0px; fill: rgb(242, 177, 56); fill-opacity: 1;"/><path class="point" transform="translate(618.09,496.57)" d="M-3.2499999999920144,-7.510000000003456L-3.2500000000079856,7.509999999996544L6.5,6.9115174741991145e-12Z" style="opacity: 1; stroke-width: 0px; fill: rgb(242, 143, 56); fill-opacity: 1;"/><path class="point" transform="translate(674.51,496.57)" d="M-3.2499999999782356,-7.510000000009419L-3.2500000000217644,7.509999999990581L6.5,1.8837422182420083e-11Z" style="opacity: 1; stroke-width: 0px; fill: rgb(230, 87, 43); fill-opacity: 1;"/><path class="point" transform="translate(746.95,496.57)" d="M-3.249999999999977,-7.51000000000001L-3.250000000000023,7.50999999999999L6.5,1.980804883845496e-14Z" style="opacity: 1; stroke-width: 0px; fill: rgb(217, 30, 30); fill-opacity: 1;"/></g><g class="text"/></g><g class="trace scatter tracee26f04" style="stroke-miterlimit: 2; opacity: 1;"><g class="fills"/><g class="errorbars"/><g class="lines"><path class="js-line" d="M13.98,517.55L853.02,517.55" style="vector-effect: none; fill: none; stroke: rgb(0, 0, 0); stroke-opacity: 1; stroke-width: 2px; opacity: 1;"/></g><g class="points"/><g class="text"/></g><g class="trace scatter traceba44fe" style="stroke-miterlimit: 2; opacity: 1;"><g class="fills"/><g class="errorbars"/><g class="lines"><path class="js-line" d="M13.98,517.55L117.71,518.09L120.47,518.35L131.29,520.19L133.93,520.9L141.61,523.71L144.09,524.87L156.02,531.76L158.36,533.23L172.74,541.48L175.26,542.61L185.71,546.12L188.4,546.81L210.33,551.1L213.08,551.65L226.66,555.15L229.34,556L245.02,562.11L247.56,563.29L262.36,571.3L264.77,572.73L281.79,582.18L284.3,583.32L294.64,586.99L297.3,587.65L308.19,589.41L310.95,589.66L327.69,590.22L330.5,590.23L521.19,589.59L523.94,589.31L534.71,587.34L537.33,586.61L547.4,582.52L549.81,581.23L559.07,575.29L561.31,573.65L593.35,548.62L593.75,548.07L598.79,542.43L600.41,540.82L610.47,531.94L612.65,530.25L626.69,519.52L627.14,519.7L631.65,520.34L633.47,520.46L656.95,520.67L659.75,520.67L732.71,520.67" style="vector-effect: none; fill: none; stroke: rgb(100, 143, 255); stroke-opacity: 1; stroke-width: 2px; opacity: 1;"/></g><g class="points"/><g class="text"/></g><g class="trace scatter trace9f5d4e" style="stroke-miterlimit: 2; opacity: 1;"><g class="fills"/><g class="errorbars"/><g class="lines"/><g class="points"><path class="point" transform="translate(13.98,517.55)" d="M-3.2500000000000004,-7.51L-3.2499999999999996,7.51L6.5,-3.9801020972288977e-16Z" style="opacity: 1; stroke-width: 0px; fill: rgb(12, 51, 131); fill-opacity: 1;"/><path class="point" transform="translate(114.61,517.87)" d="M-2.8089629475781104,-7.685852402898022L-3.680095531558819,7.308864267353774L6.489058479136929,0.37698813554424787Z" style="opacity: 1; stroke-width: 0px; fill: rgb(11, 94, 159); fill-opacity: 1;"/><path class="point" transform="translate(206.91,550.45)" d="M-1.8271541863020448,-7.976472126164481L-4.564027145132963,6.79207304278226L6.391181331435008,1.1843990833822218Z" style="opacity: 1; stroke-width: 0px; fill: rgb(10, 136, 186); fill-opacity: 1;"/><path class="point" transform="translate(299.02,588.02)" d="M-1.6810783312888042,-8.00853142867475L-4.687390656463075,6.7075307553303585L6.3684689877518785,1.3010006733443913Z" style="opacity: 1; stroke-width: 0px; fill: rgb(126, 174, 121); fill-opacity: 1;"/><path class="point" transform="translate(399.3,590.23)" d="M-3.2499959635559774,-7.5100017467953935L-3.2500040364430838,7.509998253202437L6.499999999999061,0.0000034935929556405037Z" style="opacity: 1; stroke-width: 0px; fill: rgb(242, 211, 56); fill-opacity: 1;"/><path class="point" transform="translate(499.99,590.23)" d="M-3.250030213062368,-7.50998692503401L-3.2499697868850315,7.5100130748444425L6.499999999947399,-0.00002614981043191351Z" style="opacity: 1; stroke-width: 0px; fill: rgb(242, 177, 56); fill-opacity: 1;"/><path class="point" transform="translate(586.94,553.34)" d="M-7.107127372715825,-4.056025210473113L1.9082113151274567,7.9574700487541605L5.1989160575883675,-3.9014448382810474Z" style="opacity: 1; stroke-width: 0px; fill: rgb(242, 143, 56); fill-opacity: 1;"/><path class="point" transform="translate(626.28,519.68)" d="M-8.009107707844624,-1.6783306361214478L4.258952989681259,6.987411497234513L3.7501547181633654,-5.309080861113065Z" style="opacity: 1; stroke-width: 0px; fill: rgb(230, 87, 43); fill-opacity: 1;"/><path class="point" transform="translate(699.15,520.67)" d="M-3.2500032249249395,-7.509998604392513L-3.249996775074462,7.5100013956061025L6.499999999999401,-0.0000027912135887691243Z" style="opacity: 1; stroke-width: 0px; fill: rgb(217, 30, 30); fill-opacity: 1;"/></g><g class="text"/></g><g class="trace scatter tracecd1bfc" style="stroke-miterlimit: 2; opacity: 1;"><g class="fills"/><g class="errorbars"/><g class="lines"><path class="js-line" d="M13.98,538.52L853.02,538.52" style="vector-effect: none; fill: none; stroke: rgb(0, 0, 0); stroke-opacity: 1; stroke-width: 2px; opacity: 1;"/></g><g class="points"/><g class="text"/></g><g class="trace scatter trace815257" style="stroke-miterlimit: 2; opacity: 1;"><g class="fills"/><g class="errorbars"/><g class="lines"><path class="js-line" d="M13.98,538.52L128.99,539.24L131.78,539.46L148.41,541.61L151.17,542.13L167.52,545.99L170.22,546.75L191.54,553.75L194.18,554.7L265.14,581.08L267.68,582.26L290.7,592.27L293.33,593.15L304.05,595.85L306.78,596.31L320.61,597.67L323.4,597.79L354.24,597.97L357.05,597.97L530.92,597.24L533.67,596.96L544.56,595.11L547.22,594.43L557.63,590.81L560.16,589.71L574.94,581.94L577.35,580.52L606.37,563L607.31,562.19L617.51,554.56L619.78,553.04L635.36,543.82L637.02,542.87L642.6,539.88L643.3,540.02L651,540.56L653.3,540.61L720.09,540.67L722.9,540.67L748.15,540.67" style="vector-effect: none; fill: none; stroke: rgb(100, 143, 255); stroke-opacity: 1; stroke-width: 2px; opacity: 1;"/></g><g class="points"/><g class="text"/></g><g class="trace scatter trace40a790" style="stroke-miterlimit: 2; opacity: 1;"><g class="fills"/><g class="errorbars"/><g class="lines"/><g class="points"><path class="point" transform="translate(13.98,538.52)" d="M-3.2500000000000004,-7.51L-3.2499999999999996,7.51L6.5,-3.9801020972288977e-16Z" style="opacity: 1; stroke-width: 0px; fill: rgb(12, 51, 131); fill-opacity: 1;"/><path class="point" transform="translate(114.66,538.64)" d="M-3.097933424885757,-7.573995543633202L-3.40074548040117,7.4429517113528965L6.498678905286927,0.13104383228030525Z" style="opacity: 1; stroke-width: 0px; fill: rgb(11, 94, 159); fill-opacity: 1;"/><path class="point" transform="translate(211.96,561.29)" d="M-0.4549191795768497,-8.17041299690861L-5.644737615599185,5.924486243636627L6.099656795176035,2.2459267532719824Z" style="opacity: 1; stroke-width: 0px; fill: rgb(10, 136, 186); fill-opacity: 1;"/><path class="point" transform="translate(305.79,596.16)" d="M-1.974501182322353,-7.941281073039011L-4.43751049370216,6.875398215251478L6.4120116760245125,1.0658828577875328Z" style="opacity: 1; stroke-width: 0px; fill: rgb(126, 174, 121); fill-opacity: 1;"/><path class="point" transform="translate(406.21,597.97)" d="M-3.2499961590849145,-7.51000166217913L-3.2500038409142356,7.509998337818905L6.49999999999915,0.0000033243602255887666Z" style="opacity: 1; stroke-width: 0px; fill: rgb(242, 211, 56); fill-opacity: 1;"/><path class="point" transform="translate(506.9,597.97)" d="M-3.250021325971025,-7.509990771015204L-3.2499786740027674,7.510009228924236L6.4999999999737925,-0.000018457909033027413Z" style="opacity: 1; stroke-width: 0px; fill: rgb(242, 177, 56); fill-opacity: 1;"/><path class="point" transform="translate(598.24,568.04)" d="M-6.554598411362992,-4.8989631214939475L0.9154987316048842,8.131694907731712L5.639099679758108,-3.232731786237763Z" style="opacity: 1; stroke-width: 0px; fill: rgb(242, 143, 56); fill-opacity: 1;"/><path class="point" transform="translate(641.64,539.88)" d="M-7.595563536471035,-3.0446698611559886L2.9798252141794834,7.621236231277718L4.615738322291551,-4.576566370121729Z" style="opacity: 1; stroke-width: 0px; fill: rgb(230, 87, 43); fill-opacity: 1;"/><path class="point" transform="translate(714.59,540.67)" d="M-3.250002197631787,-7.509999048960562L-3.249997802367934,7.510000951038794L6.499999999999721,-0.0000019020782323169961Z" style="opacity: 1; stroke-width: 0px; fill: rgb(217, 30, 30); fill-opacity: 1;"/></g><g class="text"/></g><g class="trace scatter traced57f32" style="stroke-miterlimit: 2; opacity: 1;"><g class="fills"/><g class="errorbars"/><g class="lines"><path class="js-line" d="M13.98,559.5L853.02,559.5" style="vector-effect: none; fill: none; stroke: rgb(0, 0, 0); stroke-opacity: 1; stroke-width: 2px; opacity: 1;"/></g><g class="points"/><g class="text"/></g><g class="trace scatter tracec28b78" style="stroke-miterlimit: 2; opacity: 1;"><g class="fills"/><g class="errorbars"/><g class="lines"><path class="js-line" d="M13.98,559.5L131.8,560.21L134.6,560.4L154.07,562.66L156.83,563.11L178.82,567.57L181.55,568.22L255.01,586.68L257.71,587.45L279.03,594.42L281.68,595.32L297.74,600.08L300.45,600.71L314.2,602.84L316.98,603.09L336.54,603.8L339.35,603.81L541.34,603.17L544.13,602.97L560.77,600.9L563.52,600.41L585.39,595.51L588.11,594.84L656.02,577.33L658.72,576.54L701.87,564.32L704.6,563.72L721.13,561L723.91,560.72L743.47,559.75L746.27,559.71L841.68,559.67" style="vector-effect: none; fill: none; stroke: rgb(100, 143, 255); stroke-opacity: 1; stroke-width: 2px; opacity: 1;"/></g><g class="points"/><g class="text"/></g><g class="trace scatter trace323094" style="stroke-miterlimit: 2; opacity: 1;"><g class="fills"/><g class="errorbars"/><g class="lines"/><g class="points"><path class="point" transform="translate(13.98,559.5)" d="M-3.2500000000000004,-7.51L-3.2499999999999996,7.51L6.5,-3.9801020972288977e-16Z" style="opacity: 1; stroke-width: 0px; fill: rgb(12, 51, 131); fill-opacity: 1;"/><path class="point" transform="translate(114.66,559.59)" d="M-3.134407747269082,-7.558974009338804L-3.3648273470512264,7.459258470152123L6.4992350943203085,0.09971553918668047Z" style="opacity: 1; stroke-width: 0px; fill: rgb(11, 94, 159); fill-opacity: 1;"/><path class="point" transform="translate(213.51,576.43)" d="M-1.2752818258817027,-8.083084576111759L-5.019517094032496,6.462743081905358L6.294798919914198,1.6203414942064016Z" style="opacity: 1; stroke-width: 0px; fill: rgb(10, 136, 186); fill-opacity: 1;"/><path class="point" transform="translate(310.43,602.41)" d="M-2.277640057913118,-7.859704559752199L-4.170535853830426,7.040541931692113L6.448175911743545,0.8191626280600868Z" style="opacity: 1; stroke-width: 0px; fill: rgb(126, 174, 121); fill-opacity: 1;"/><path class="point" transform="translate(410.96,603.81)" d="M-3.2499970342082043,-7.5100012834644625L-3.2500029657912894,7.5099987165343665L6.499999999999494,0.0000025669300966384916Z" style="opacity: 1; stroke-width: 0px; fill: rgb(242, 211, 56); fill-opacity: 1;"/><path class="point" transform="translate(511.65,603.81)" d="M-3.250005887695412,-7.509997452059832L-3.2499941123025904,7.510002547935553L6.4999999999980025,-0.0000050958757217922936Z" style="opacity: 1; stroke-width: 0px; fill: rgb(242, 177, 56); fill-opacity: 1;"/><path class="point" transform="translate(610.68,589.32)" d="M-4.9216370132628,-6.537590466653722L-1.3968461480074925,8.062966007543169L6.318483161270293,-1.5253755408894474Z" style="opacity: 1; stroke-width: 0px; fill: rgb(242, 143, 56); fill-opacity: 1;"/><path class="point" transform="translate(707.78,563.06)" d="M-4.639661650679537,-6.740633484118064L-1.7378815734161297,7.996397166023L6.377543224095667,-1.2557636819049367Z" style="opacity: 1; stroke-width: 0px; fill: rgb(230, 87, 43); fill-opacity: 1;"/><path class="point" transform="translate(808.12,559.67)" d="M-3.250000067823437,-7.509999970648979L-3.249999932176563,7.510000029351021L6.5,-5.870204273616478e-8Z" style="opacity: 1; stroke-width: 0px; fill: rgb(217, 30, 30); fill-opacity: 1;"/></g><g class="text"/></g><g class="trace scatter trace2b4bc3" style="stroke-miterlimit: 2; opacity: 1;"><g class="fills"/><g class="errorbars"/><g class="lines"><path class="js-line" d="M13.98,580.48L853.02,580.48" style="vector-effect: none; fill: none; stroke: rgb(0, 0, 0); stroke-opacity: 1; stroke-width: 2px; opacity: 1;"/></g><g class="points"/><g class="text"/></g><g class="trace scatter traceb5c070" style="stroke-miterlimit: 2; opacity: 1;"><g class="fills"/><g class="errorbars"/><g class="lines"><path class="js-line" d="M13.98,580.48L137.43,581.2L140.22,581.37L162.56,583.43L165.35,583.77L201.44,589.04L204.21,589.48L278.98,601.6L281.73,602.15L306.58,606.28L309.37,606.57L328.93,607.67L331.73,607.72L390.66,607.81L393.46,607.81L550.58,607.15L553.37,606.98L575.67,604.68L578.45,604.31L645.03,594.25L647.8,593.78L714.18,582.61L716.97,582.3L736.52,580.92L739.33,580.82L778.6,580.56L781.41,580.56L848.75,580.56" style="vector-effect: none; fill: none; stroke: rgb(100, 143, 255); stroke-opacity: 1; stroke-width: 2px; opacity: 1;"/></g><g class="points"/><g class="text"/></g><g class="trace scatter trace482ef8" style="stroke-miterlimit: 2; opacity: 1;"><g class="fills"/><g class="errorbars"/><g class="lines"/><g class="points"><path class="point" transform="translate(13.98,580.48)" d="M-3.2500000000000004,-7.51L-3.2499999999999996,7.51L6.5,-3.9801020972288977e-16Z" style="opacity: 1; stroke-width: 0px; fill: rgb(12, 51, 131); fill-opacity: 1;"/><path class="point" transform="translate(114.67,580.53)" d="M-3.1755076523153196,-7.541800259227689L-3.3241739432225,7.477463981538164L6.49968159553782,0.0643362776895254Z" style="opacity: 1; stroke-width: 0px; fill: rgb(11, 94, 159); fill-opacity: 1;"/><path class="point" transform="translate(214.63,591.12)" d="M-2.0597162542880922,-7.919606615976669L-4.363378172014606,6.92268235064895L6.423094426302698,0.9969242653277188Z" style="opacity: 1; stroke-width: 0px; fill: rgb(10, 136, 186); fill-opacity: 1;"/><path class="point" transform="translate(313.94,606.97)" d="M-2.6757699271955535,-7.733230586030388L-3.805807711203783,7.244199587624696L6.481577638399337,0.489030998405692Z" style="opacity: 1; stroke-width: 0px; fill: rgb(126, 174, 121); fill-opacity: 1;"/><path class="point" transform="translate(414.57,607.81)" d="M-3.249998296665094,-7.510000737128724L-3.250001703334739,7.509999262870888L6.499999999999833,0.0000014742578358556334Z" style="opacity: 1; stroke-width: 0px; fill: rgb(242, 211, 56); fill-opacity: 1;"/><path class="point" transform="translate(515.25,607.81)" d="M-3.2500034066842654,-7.50999852573492L-3.249996593315066,7.510001474263534L6.499999999999331,-0.000002948528614886042Z" style="opacity: 1; stroke-width: 0px; fill: rgb(242, 177, 56); fill-opacity: 1;"/><path class="point" transform="translate(615.31,598.88)" d="M-4.306632158559305,-6.958126145081219L-2.124398478269388,7.902501572636775L6.431030636828693,-0.9443754275555568Z" style="opacity: 1; stroke-width: 0px; fill: rgb(242, 143, 56); fill-opacity: 1;"/><path class="point" transform="translate(714.63,582.56)" d="M-4.086952227221309,-7.089387949069425L-2.370463382893504,7.832209353072803L6.457415610114812,-0.7428214040033774Z" style="opacity: 1; stroke-width: 0px; fill: rgb(230, 87, 43); fill-opacity: 1;"/><path class="point" transform="translate(815.19,580.56)" d="M-3.250000031913094,-7.509999986189406L-3.249999968086906,7.510000013810593L6.5,-2.7621186625132718e-8Z" style="opacity: 1; stroke-width: 0px; fill: rgb(217, 30, 30); fill-opacity: 1;"/></g><g class="text"/></g><g class="trace scatter traceb803f7" style="stroke-miterlimit: 2; opacity: 1;"><g class="fills"/><g class="errorbars"/><g class="lines"><path class="js-line" d="M13.98,601.45L853.02,601.45" style="vector-effect: none; fill: none; stroke: rgb(0, 0, 0); stroke-opacity: 1; stroke-width: 2px; opacity: 1;"/></g><g class="points"/><g class="text"/></g><g class="trace scatter trace3c8b22" style="stroke-miterlimit: 2; opacity: 1;"><g class="fills"/><g class="errorbars"/><g class="lines"><path class="js-line" d="M13.98,601.45L157.08,602.2L159.89,602.29L249.6,606.24L252.4,606.38L328.05,610.16L330.85,610.18L443.1,610.23L445.9,610.23L569.36,609.56L572.16,609.45L653.45,605.56L656.25,605.4L731.92,601.72L734.72,601.67L799.26,601.47L802.06,601.47L852.57,601.47" style="vector-effect: none; fill: none; stroke: rgb(100, 143, 255); stroke-opacity: 1; stroke-width: 2px; opacity: 1;"/></g><g class="points"/><g class="text"/></g><g class="trace scatter trace60a97a" style="stroke-miterlimit: 2; opacity: 1;"><g class="fills"/><g class="errorbars"/><g class="lines"/><g class="points"><path class="point" transform="translate(13.98,601.45)" d="M-3.2500000000000004,-7.51L-3.2499999999999996,7.51L6.5,-3.9801020972288977e-16Z" style="opacity: 1; stroke-width: 0px; fill: rgb(12, 51, 131); fill-opacity: 1;"/><path class="point" transform="translate(114.67,601.47)" d="M-3.226094176124419,-7.520300284348764L-3.2738729376243496,7.499623723113775L6.4999671137487685,0.020676561234989874Z" style="opacity: 1; stroke-width: 0px; fill: rgb(11, 94, 159); fill-opacity: 1;"/><path class="point" transform="translate(215.29,604.67)" d="M-2.9070203814911437,-7.649302746106672L-3.5863284297885505,7.355327891650404L6.493348811279694,0.2939748544562681Z" style="opacity: 1; stroke-width: 0px; fill: rgb(10, 136, 186); fill-opacity: 1;"/><path class="point" transform="translate(315.82,609.94)" d="M-3.05550404591536,-7.591211696784305L-3.442339854239172,7.42380605403432L6.497843900154532,0.16740564274998515Z" style="opacity: 1; stroke-width: 0px; fill: rgb(126, 174, 121); fill-opacity: 1;"/><path class="point" transform="translate(416.5,610.23)" d="M-3.24999971255652,-7.510000124392977L-3.250000287443475,7.5099998756070105L6.499999999999995,2.48785965763503e-7Z" style="opacity: 1; stroke-width: 0px; fill: rgb(242, 211, 56); fill-opacity: 1;"/><path class="point" transform="translate(517.18,610.23)" d="M-3.2500010418271015,-7.509999549142646L-3.2499989581728355,7.510000450857208L6.499999999999937,-9.017145624162706e-7Z" style="opacity: 1; stroke-width: 0px; fill: rgb(242, 177, 56); fill-opacity: 1;"/><path class="point" transform="translate(617.8,607.37)" d="M-3.5972399174429164,-7.349997617438749L-2.895665479767678,7.653608392730963L6.492905397210595,-0.3036107752922135Z" style="opacity: 1; stroke-width: 0px; fill: rgb(242, 143, 56); fill-opacity: 1;"/><path class="point" transform="translate(718.34,602.1)" d="M-3.5177451475342467,-7.388373912912045L-2.9780575662263074,7.6219271271931115L6.495802713760554,-0.23355321428106576Z" style="opacity: 1; stroke-width: 0px; fill: rgb(230, 87, 43); fill-opacity: 1;"/><path class="point" transform="translate(819.01,601.47)" d="M-3.2500000086256904,-7.509999996267178L-3.2499999913743096,7.510000003732822L6.5,-7.465644167865244e-9Z" style="opacity: 1; stroke-width: 0px; fill: rgb(217, 30, 30); fill-opacity: 1;"/></g><g class="text"/></g><g class="trace scatter trace768a24" style="stroke-miterlimit: 2; opacity: 1;"><g class="fills"/><g class="errorbars"/><g class="lines"><path class="js-line" d="M13.98,622.43L853.02,622.43" style="vector-effect: none; fill: none; stroke: rgb(0, 0, 0); stroke-opacity: 1; stroke-width: 2px; opacity: 1;"/></g><g class="points"/><g class="text"/></g><g class="trace scatter trace972592" style="stroke-miterlimit: 2; opacity: 1;"><g class="fills"/><g class="errorbars"/><g class="lines"><path class="js-line" d="M13.98,622.43L853.02,622.43" style="vector-effect: none; fill: none; stroke: rgb(100, 143, 255); stroke-opacity: 1; stroke-width: 2px; opacity: 1;"/></g><g class="points"/><g class="text"/></g><g class="trace scatter trace82fbd0" style="stroke-miterlimit: 2; opacity: 1;"><g class="fills"/><g class="errorbars"/><g class="lines"/><g class="points"><path class="point" transform="translate(13.98,622.43)" d="M-3.2500000000000004,-7.51L-3.2499999999999996,7.51L6.5,-3.9801020972288977e-16Z" style="opacity: 1; stroke-width: 0px; fill: rgb(12, 51, 131); fill-opacity: 1;"/><path class="point" transform="translate(114.67,622.43)" d="M-3.2499999982685313,-7.5100000007493035L-3.2500000017314687,7.509999999250696L6.5,1.4986079505166767e-9Z" style="opacity: 1; stroke-width: 0px; fill: rgb(11, 94, 159); fill-opacity: 1;"/><path class="point" transform="translate(215.35,622.43)" d="M-3.2499999838316525,-7.510000006996955L-3.2500000161683475,7.509999993003045L6.5,1.3993909299685773e-8Z" style="opacity: 1; stroke-width: 0px; fill: rgb(10, 136, 186); fill-opacity: 1;"/><path class="point" transform="translate(316.04,622.43)" d="M-3.249999990604874,-7.5100000040658L-3.250000009395126,7.5099999959342L6.5,8.1316004391144e-9Z" style="opacity: 1; stroke-width: 0px; fill: rgb(126, 174, 121); fill-opacity: 1;"/><path class="point" transform="translate(416.72,622.43)" d="M-3.2499999999999853,-7.510000000000006L-3.2500000000000147,7.509999999999994L6.5,1.2591599178391442e-14Z" style="opacity: 1; stroke-width: 0px; fill: rgb(242, 211, 56); fill-opacity: 1;"/><path class="point" transform="translate(517.4,622.43)" d="M-3.2500000000000453,-7.50999999999998L-3.2499999999999547,7.510000000000019L6.5,-3.9366838374065884e-14Z" style="opacity: 1; stroke-width: 0px; fill: rgb(242, 177, 56); fill-opacity: 1;"/><path class="point" transform="translate(618.09,622.43)" d="M-3.2500000184218587,-7.509999992027824L-3.2499999815781413,7.510000007972176L6.5,-1.5944351903769113e-8Z" style="opacity: 1; stroke-width: 0px; fill: rgb(242, 143, 56); fill-opacity: 1;"/><path class="point" transform="translate(718.77,622.43)" d="M-3.2500000135731475,-7.509999994126134L-3.2499999864268525,7.510000005873866L6.5,-1.174773096412421e-8Z" style="opacity: 1; stroke-width: 0px; fill: rgb(230, 87, 43); fill-opacity: 1;"/><path class="point" transform="translate(819.45,622.43)" d="M-3.250000000000009,-7.509999999999996L-3.249999999999991,7.510000000000003L6.5,-7.614459869786407e-15Z" style="opacity: 1; stroke-width: 0px; fill: rgb(217, 30, 30); fill-opacity: 1;"/></g><g class="text"/></g><g class="trace scatter trace05ea42" style="stroke-miterlimit: 2; opacity: 1;"><g class="fills"/><g class="errorbars"/><g class="lines"><path class="js-line" d="M13.98,643.4L853.02,643.4" style="vector-effect: none; fill: none; stroke: rgb(0, 0, 0); stroke-opacity: 1; stroke-width: 2px; opacity: 1;"/></g><g class="points"/><g class="text"/></g><g class="trace scatter trace222381" style="stroke-miterlimit: 2; opacity: 1;"><g class="fills"/><g class="errorbars"/><g class="lines"><path class="js-line" d="M13.98,643.4L853.02,643.4" style="vector-effect: none; fill: none; stroke: rgb(100, 143, 255); stroke-opacity: 1; stroke-width: 2px; opacity: 1;"/></g><g class="points"/><g class="text"/></g><g class="trace scatter trace373670" style="stroke-miterlimit: 2; opacity: 1;"><g class="fills"/><g class="errorbars"/><g class="lines"/><g class="points"><path class="point" transform="translate(13.98,643.4)" d="M-3.2500000000000004,-7.51L-3.2499999999999996,7.51L6.5,-3.9801020972288977e-16Z" style="opacity: 1; stroke-width: 0px; fill: rgb(12, 51, 131); fill-opacity: 1;"/><path class="point" transform="translate(114.67,643.4)" d="M-3.2499999999984364,-7.510000000000677L-3.2500000000015636,7.509999999999323L6.5,1.3534079460181929e-12Z" style="opacity: 1; stroke-width: 0px; fill: rgb(11, 94, 159); fill-opacity: 1;"/><path class="point" transform="translate(215.35,643.4)" d="M-3.2499999999864397,-7.510000000005868L-3.2500000000135603,7.509999999994132L6.5,1.1736435716917582e-11Z" style="opacity: 1; stroke-width: 0px; fill: rgb(10, 136, 186); fill-opacity: 1;"/><path class="point" transform="translate(316.04,643.4)" d="M-3.2499999999931535,-7.510000000002963L-3.2500000000068465,7.509999999997037L6.5,5.925750450634438e-12Z" style="opacity: 1; stroke-width: 0px; fill: rgb(126, 174, 121); fill-opacity: 1;"/><path class="point" transform="translate(416.72,643.4)" d="M-3.2500000000000004,-7.51L-3.2499999999999996,7.51L6.5,-3.9801020972288977e-16Z" style="opacity: 1; stroke-width: 0px; fill: rgb(242, 211, 56); fill-opacity: 1;"/><path class="point" transform="translate(517.4,643.4)" d="M-3.250000000000022,-7.50999999999999L-3.249999999999978,7.51000000000001L6.5,-1.9160779325888035e-14Z" style="opacity: 1; stroke-width: 0px; fill: rgb(242, 177, 56); fill-opacity: 1;"/><path class="point" transform="translate(618.09,643.4)" d="M-3.250000000016631,-7.509999999992803L-3.249999999983369,7.510000000007197L6.5,-1.4394328502172416e-11Z" style="opacity: 1; stroke-width: 0px; fill: rgb(242, 143, 56); fill-opacity: 1;"/><path class="point" transform="translate(718.77,643.4)" d="M-3.2500000000082117,-7.509999999996446L-3.2499999999917883,7.510000000003553L6.5,-7.107157635440275e-12Z" style="opacity: 1; stroke-width: 0px; fill: rgb(230, 87, 43); fill-opacity: 1;"/><path class="point" transform="translate(819.45,643.4)" d="M-3.2500000000000155,-7.509999999999993L-3.2499999999999845,7.510000000000007L6.5,-1.338761959783722e-14Z" style="opacity: 1; stroke-width: 0px; fill: rgb(217, 30, 30); fill-opacity: 1;"/></g><g class="text"/></g><g class="trace scatter traceb561ca" style="stroke-miterlimit: 2; opacity: 1;"><g class="fills"/><g class="errorbars"/><g class="lines"><path class="js-line" d="M208.78,855.27L393.67,634.94L395.17,633.15L658.22,319.66" style="vector-effect: none; fill: none; stroke: rgb(220, 38, 127); stroke-opacity: 1; stroke-width: 2px; opacity: 1;"/></g><g class="points"/><g class="text"/></g><g class="trace scatter trace978173" style="stroke-miterlimit: 2; opacity: 1;"><g class="fills"/><g class="errorbars"/><g class="lines"/><g class="points"><path class="point" transform="translate(208.78,855.27)" d="M-7.842053499304777,-2.3376905086092314L3.663934036342272,7.316979388882588L4.178119462962505,-4.979288880273357Z" style="opacity: 1; stroke-width: 0px; fill: rgb(12, 51, 131); fill-opacity: 1;"/><path class="point" transform="translate(262.72,791)" d="M-7.842053499304777,-2.3376905086092314L3.663934036342272,7.316979388882588L4.178119462962505,-4.979288880273357Z" style="opacity: 1; stroke-width: 0px; fill: rgb(11, 94, 159); fill-opacity: 1;"/><path class="point" transform="translate(316.65,726.73)" d="M-7.842053499304777,-2.3376905086092314L3.663934036342272,7.316979388882588L4.178119462962505,-4.979288880273357Z" style="opacity: 1; stroke-width: 0px; fill: rgb(10, 136, 186); fill-opacity: 1;"/><path class="point" transform="translate(370.58,662.45)" d="M-7.842053499304777,-2.3376905086092314L3.663934036342272,7.316979388882588L4.178119462962505,-4.979288880273357Z" style="opacity: 1; stroke-width: 0px; fill: rgb(126, 174, 121); fill-opacity: 1;"/><path class="point" transform="translate(424.51,598.18)" d="M-7.842053499304777,-2.3376905086092314L3.663934036342272,7.316979388882588L4.178119462962505,-4.979288880273357Z" style="opacity: 1; stroke-width: 0px; fill: rgb(242, 211, 56); fill-opacity: 1;"/><path class="point" transform="translate(478.44,533.91)" d="M-7.842053499304777,-2.3376905086092314L3.663934036342272,7.316979388882588L4.178119462962505,-4.979288880273357Z" style="opacity: 1; stroke-width: 0px; fill: rgb(242, 177, 56); fill-opacity: 1;"/><path class="point" transform="translate(532.38,469.63)" d="M-7.842053499304777,-2.3376905086092314L3.663934036342272,7.316979388882588L4.178119462962505,-4.979288880273357Z" style="opacity: 1; stroke-width: 0px; fill: rgb(242, 143, 56); fill-opacity: 1;"/><path class="point" transform="translate(586.31,405.36)" d="M-7.842053499304777,-2.3376905086092314L3.663934036342272,7.316979388882588L4.178119462962505,-4.979288880273357Z" style="opacity: 1; stroke-width: 0px; fill: rgb(230, 87, 43); fill-opacity: 1;"/><path class="point" transform="translate(640.24,341.09)" d="M-7.842053499304777,-2.3376905086092314L3.663934036342272,7.316979388882588L4.178119462962505,-4.979288880273357Z" style="opacity: 1; stroke-width: 0px; fill: rgb(217, 30, 30); fill-opacity: 1;"/></g><g class="text"/></g></g></g></g><path class="xlines-above crisp" d="M0,0" style="fill: none;"/><path class="ylines-above crisp" d="M0,0" style="fill: none;"/><g class="overlines-above"/><g class="xaxislayer-above"><g class="xtick"><text text-anchor="middle" x="0" y="1260" transform="translate(130.98,0)" style="font-family: 'Open Sans', verdana, arial, sans-serif; font-size: 24px; fill: rgb(42, 63, 95); fill-opacity: 1; white-space: pre; opacity: 1;">−1500</text></g><g class="xtick"><text text-anchor="middle" x="0" y="1260" style="font-family: 'Open Sans', verdana, arial, sans-serif; font-size: 24px; fill: rgb(42, 63, 95); fill-opacity: 1; white-space: pre; opacity: 1;" transform="translate(270.82,0)">−1000</text></g><g class="xtick"><text text-anchor="middle" x="0" y="1260" style="font-family: 'Open Sans', verdana, arial, sans-serif; font-size: 24px; fill: rgb(42, 63, 95); fill-opacity: 1; white-space: pre; opacity: 1;" transform="translate(410.66,0)">−500</text></g><g class="xtick"><text text-anchor="middle" x="0" y="1260" style="font-family: 'Open Sans', verdana, arial, sans-serif; font-size: 24px; fill: rgb(42, 63, 95); fill-opacity: 1; white-space: pre; opacity: 1;" transform="translate(550.5,0)">0</text></g><g class="xtick"><text text-anchor="middle" x="0" y="1260" style="font-family: 'Open Sans', verdana, arial, sans-serif; font-size: 24px; fill: rgb(42, 63, 95); fill-opacity: 1; white-space: pre; opacity: 1;" transform="translate(690.34,0)">500</text></g><g class="xtick"><text text-anchor="middle" x="0" y="1260" style="font-family: 'Open Sans', verdana, arial, sans-serif; font-size: 24px; fill: rgb(42, 63, 95); fill-opacity: 1; white-space: pre; opacity: 1;" transform="translate(830.18,0)">1000</text></g><g class="xtick"><text text-anchor="middle" x="0" y="1260" style="font-family: 'Open Sans', verdana, arial, sans-serif; font-size: 24px; fill: rgb(42, 63, 95); fill-opacity: 1; white-space: pre; opacity: 0;" transform="translate(970.02,0)">1500</text></g></g><g class="yaxislayer-above"><g class="ytick"><text text-anchor="end" x="116" y="8.399999999999999" transform="translate(0,1122.98)" style="font-family: 'Open Sans', verdana, arial, sans-serif; font-size: 24px; fill: rgb(42, 63, 95); fill-opacity: 1; white-space: pre; opacity: 1;">−1500</text></g><g class="ytick"><text text-anchor="end" x="116" y="8.399999999999999" style="font-family: 'Open Sans', verdana, arial, sans-serif; font-size: 24px; fill: rgb(42, 63, 95); fill-opacity: 1; white-space: pre; opacity: 1;" transform="translate(0,983.15)">−1000</text></g><g class="ytick"><text text-anchor="end" x="116" y="8.399999999999999" style="font-family: 'Open Sans', verdana, arial, sans-serif; font-size: 24px; fill: rgb(42, 63, 95); fill-opacity: 1; white-space: pre; opacity: 1;" transform="translate(0,843.31)">−500</text></g><g class="ytick"><text text-anchor="end" x="116" y="8.399999999999999" style="font-family: 'Open Sans', verdana, arial, sans-serif; font-size: 24px; fill: rgb(42, 63, 95); fill-opacity: 1; white-space: pre; opacity: 1;" transform="translate(0,703.47)">0</text></g><g class="ytick"><text text-anchor="end" x="116" y="8.399999999999999" style="font-family: 'Open Sans', verdana, arial, sans-serif; font-size: 24px; fill: rgb(42, 63, 95); fill-opacity: 1; white-space: pre; opacity: 1;" transform="translate(0,563.63)">500</text></g><g class="ytick"><text text-anchor="end" x="116" y="8.399999999999999" style="font-family: 'Open Sans', verdana, arial, sans-serif; font-size: 24px; fill: rgb(42, 63, 95); fill-opacity: 1; white-space: pre; opacity: 1;" transform="translate(0,423.79)">1000</text></g><g class="ytick"><text text-anchor="end" x="116" y="8.399999999999999" style="font-family: 'Open Sans', verdana, arial, sans-serif; font-size: 24px; fill: rgb(42, 63, 95); fill-opacity: 1; white-space: pre; opacity: 1;" transform="translate(0,283.95)">1500</text></g><g class="ytick"><text text-anchor="end" x="116" y="8.399999999999999" style="font-family: 'Open Sans', verdana, arial, sans-serif; font-size: 24px; fill: rgb(42, 63, 95); fill-opacity: 1; white-space: pre; opacity: 1;" transform="translate(0,144.11)">2000</text></g></g><g class="overaxes-above"/></g></g><g class="polarlayer"/><g class="smithlayer"/><g class="ternarylayer"/><g class="geolayer"/><g class="funnelarealayer"/><g class="pielayer"/><g class="iciclelayer"/><g class="treemaplayer"/><g class="sunburstlayer"/><g class="glimages"/><defs id="topdefs-00e91c"><g class="clips"/><clipPath id="legend00e91c"><rect width="385" height="45" x="2" y="2"/></clipPath></defs><g class="layer-above"><g class="imagelayer"/><g class="shapelayer"/></g><g class="infolayer"><g class="legend" pointer-events="all" transform="translate(586.33,0)"><rect class="bg" shape-rendering="crispEdges" style="stroke: rgb(0, 0, 0); stroke-opacity: 1; fill: rgb(255, 255, 255); fill-opacity: 1; stroke-width: 2px;" width="387" height="47" x="1" y="1"/><g class="scrollbox" transform="" clip-path="url(#legend00e91c)"><g class="groups"><g class="traces" transform="translate(2,24.1)" style="opacity: 1;"><text class="legendtext" text-anchor="start" x="40" y="9.360000000000001" style="font-family: 'Open Sans', verdana, arial, sans-serif; font-size: 24px; fill: rgb(42, 63, 95); fill-opacity: 1; white-space: pre;">OS Ref</text><g class="layers" style="opacity: 1;"><g class="legendfill"/><g class="legendlines"><path class="js-line" d="M5,0h30" style="fill: none; stroke: rgb(0, 0, 0); stroke-opacity: 1; stroke-width: 2px;"/></g><g class="legendsymbols"><g class="legendpoints"/></g></g><rect class="legendtoggle" x="0" y="-17.1" width="126.640625" height="34.2" style="fill: rgb(0, 0, 0); fill-opacity: 0;"/></g><g class="traces" transform="translate(131.140625,24.1)" style="opacity: 1;"><text class="legendtext" text-anchor="start" x="40" y="9.360000000000001" style="font-family: 'Open Sans', verdana, arial, sans-serif; font-size: 24px; fill: rgb(42, 63, 95); fill-opacity: 1; white-space: pre;">OS Pos</text><g class="layers" style="opacity: 1;"><g class="legendfill"/><g class="legendlines"><path class="js-line" d="M5,0h30" style="fill: none; stroke: rgb(100, 143, 255); stroke-opacity: 1; stroke-width: 2px;"/></g><g class="legendsymbols"><g class="legendpoints"/></g></g><rect class="legendtoggle" x="0" y="-17.1" width="127.203125" height="34.2" style="fill: rgb(0, 0, 0); fill-opacity: 0;"/></g><g class="traces" transform="translate(260.84375,24.1)" style="opacity: 1;"><text class="legendtext" text-anchor="start" x="40" y="9.360000000000001" style="font-family: 'Open Sans', verdana, arial, sans-serif; font-size: 24px; fill: rgb(42, 63, 95); fill-opacity: 1; white-space: pre;">TS Pos</text><g class="layers" style="opacity: 1;"><g class="legendfill"/><g class="legendlines"><path class="js-line" d="M5,0h30" style="fill: none; stroke: rgb(220, 38, 127); stroke-opacity: 1; stroke-width: 2px;"/></g><g class="legendsymbols"><g class="legendpoints"/></g></g><rect class="legendtoggle" x="0" y="-17.1" width="122.953125" height="34.2" style="fill: rgb(0, 0, 0); fill-opacity: 0;"/></g></g></g><rect class="scrollbar" rx="20" ry="3" width="0" height="0" style="fill: rgb(128, 139, 164); fill-opacity: 1;" x="0" y="0"/></g><g class="g-gtitle"/><g class="g-xtitle" transform="translate(0,-5.7999999999999545)"><text class="xtitle" x="550.5" y="1299.8" text-anchor="middle" style="opacity: 1; font-family: 'Open Sans', verdana, arial, sans-serif; font-size: 29px; fill: rgb(42, 63, 95); fill-opacity: 1; white-space: pre;">East [m]</text></g><g class="g-ytitle" transform="translate(18.322265625,0)"><text class="ytitle" transform="rotate(-90,10.678124999999994,675.5)" x="10.678124999999994" y="675.5" text-anchor="middle" style="opacity: 1; font-family: 'Open Sans', verdana, arial, sans-serif; font-size: 29px; fill: rgb(42, 63, 95); fill-opacity: 1; white-space: pre;">North [m]</text></g><g class="annotation" data-index="0" style="opacity: 1;"><g class="annotation-text-g" transform="rotate(0,550.5,104.5)"><g class="cursor-pointer" transform="translate(477,93)"><rect class="bg" x="0.5" y="0.5" width="147" height="22" style="stroke-width: 1px; stroke: rgb(0, 0, 0); stroke-opacity: 0; fill: rgb(0, 0, 0); fill-opacity: 0;"/><text class="annotation-text" text-anchor="middle" x="74.15625" y="18" style="font-family: 'Open Sans', verdana, arial, sans-serif; font-size: 16px; fill: rgb(42, 63, 95); fill-opacity: 1; white-space: pre;">Course 40\degree</text></g></g></g></g></svg>