<svg class="main-svg" xmlns="http://www.w3.org/2000/svg" xmlns:xlink="http://www.w3.org/1999/xlink" width="1000" height="1300" style="" viewBox="0 0 1000 1300"><rect x="0" y="0" width="1000" height="1300" style="fill: rgb(255, 255, 255); fill-opacity: 1;"/><defs id="defs-3c9577"><g class="clips"><clipPath id="clip3c9577xyplot" class="plotclip"><rect width="867" height="1119"/></clipPath><clipPath class="axesclip" id="clip3c9577x"><rect x="117" y="0" width="867" height="1300"/></clipPath><clipPath class="axesclip" id="clip3c9577y"><rect x="0" y="116" width="1000" height="1119"/></clipPath><clipPath class="axesclip" id="clip3c9577xy"><rect x="117" y="116" width="867" height="1119"/></clipPath></g><g class="gradients"/><g class="patterns"/></defs><g class="bglayer"/><g class="layer-below"><g class="imagelayer"/><g class="shapelayer"/></g><g class="cartesianlayer"><g class="subplot xy"><g class="layer-subplot"><g class="shapelayer"/><g class="imagelayer"/></g><g class="minor-gridlayer"><g class="x"/><g class="y"/></g><g class="gridlayer"><g class="x"><path class="xgrid crisp" transform="translate(130.98,0)" d="M0,116v1119" style="stroke: rgb(200, 200, 200); stroke-opacity: 1; stroke-width: 1px;"/><path class="xgrid crisp" transform="translate(270.82,0)" d="M0,116v1119" style="stroke: rgb(200, 200, 200); stroke-opacity: 1; stroke-width: 1px;"/><path class="xgrid crisp" transform="translate(410.66,0)" d="M0,116v1119" style="stroke: rgb(200, 200, 200); stroke-opacity: 1; stroke-width: 1px;"/><path class="xgrid crisp" transform="translate(690.34,0)" d="M0,116v1119" style="stroke: rgb(200, 200, 200); stroke-opacity: 1; stroke-width: 1px;"/><path class="xgrid crisp" transform="translate(830.18,0)" d="M0,116v1119" style="stroke: rgb(200, 200, 200); stroke-opacity: 1; stroke-width: 1px;"/><path class="xgrid crisp" transform="translate(970.02,0)" d="M0,116v1119" style="stroke: rgb(200, 200, 200); stroke-opacity: 1; stroke-width: 1px;"/></g><g class="y"><path class="ygrid crisp" transform="translate(0,1122.98)" d="M117,0h867" style="stroke: rgb(200, 200, 200); stroke-opacity: 1; stroke-width: 1px;"/><path class="ygrid crisp" transform="translate(0,983.15)" d="M117,0h867" style="stroke: rgb(200, 200, 200); stroke-opacity: 1; stroke-width: 1px;"/><path class="ygrid crisp" transform="translate(0,843.31)" d="M117,0h867" style="stroke: rgb(200, 200, 200); stroke-opacity: 1; stroke-width: 1px;"/><path class="ygrid crisp" transform="translate(0,563.63)" d="M117,0h867" style="stroke: rgb(200, 200, 200); stroke-opacity: 1; stroke-width: 1px;"/><path class="ygrid crisp" transform="translate(0,423.79)" d="M117,0h867" style="stroke: rgb(200, 200, 200); stroke-opacity: 1; stroke-width: 1px;"/><path class="ygrid crisp" transform="translate(0,283.95)" d="M117,0h867" style="stroke: rgb(200, 200, 200); stroke-opacity: 1; stroke-width: 1px;"/><path class="ygrid crisp" transform="translate(0,144.11)" d="M117,0h867" style="stroke: rgb(200, 200, 200); stroke-opacity: 1; stroke-width: 1px;"/></g></g><g class="zerolinelayer"><path class="xzl zl crisp" transform="translate(550.5,0)" d="M0,116v1119" style="stroke: rgb(200, 200, 200); stroke-opacity: 1; stroke-width: 2px;"/><path class="yzl zl crisp" transform="translate(0,703.47)" d="M117,0h867" style="stroke: rgb(200, 200, 200); stroke-opacity: 1; stroke-width: 2px;"/></g><g class="layer-between"><g class="shapelayer"/><g class="imagelayer"/></g><path class="xlines-below"/><path class="ylines-below"/><g class="overlines-below"/><g class="xaxislayer-below"/><g class="yaxislayer-below"/><g class="overaxes-below"/><g class="overplot"><g class="xy" transform="translate(117,116)" clip-path="url(#clip3c9577xyplot)"><g class="scatterlayer mlayer"><g class="trace scatter trace6f711b" style="stroke-miterlimit: 2; opacity: 1;"><g class="fills"/><g class="errorbars"/><g class="lines"><path class="js-line" d="M13.98,475.6L853.02,475.6" style="vector-effect: none; fill: none; stroke: rgb(0, 0, 0); stroke-opacity: 1; stroke-width: 2px; opacity: 1;"/></g><g class="points"/><g class="text"/></g><g class="trace scatter trace4551ad" style="stroke-miterlimit: 2; opacity: 1;"><g class="fills"/><g class="errorbars"/><g class="lines"><path class="js-line" d="M13.98,475.6L853.02,475.6" style="vector-effect: none; fill: none; stroke: rgb(100, 143, 255); stroke-opacity: 1; stroke-width: 2px; opacity: 1;"/></g><g class="points"/><g class="text"/></g><g class="trace scatter trace86d154" style="stroke-miterlimit: 2; opacity: 1;"><g class="fills"/><g class="errorbars"/><g class="lines"/><g class="points"><path class="point" transform="translate(13.98,475.6)" d="M-3.2500000000000004,-7.51L-3.2499999999999996,7.51L6.5,-3.9801020972288977e-16Z" style="opacity: 1; stroke-width: 0px; fill: rgb(12, 51, 131); fill-opacity: 1;"/><path class="point" transform="translate(114.67,475.6)" d="M-3.250000000000164,-7.509999999999929L-3.249999999999836,7.510000000000071L6.5,-1.4184042354696784e-13Z" style="opacity: 1; stroke-width: 0px; fill: rgb(11, 94, 159); fill-opacity: 1;"/><path class="point" transform="translate(215.35,475.6)" d="M-3.250000000009239,-7.509999999996002L-3.249999999990761,7.5100000000039975L6.5,-7.9962242335601e-12Z" style="opacity: 1; stroke-width: 0px; fill: rgb(10, 136, 186); fill-opacity: 1;"/><path class="point" transform="translate(316.04,475.6)" d="M-3.25000000000836,-7.509999999996382L-3.24999999999164,7.510000000003617L6.5,-7.235610439389405e-12Z" style="opacity: 1; stroke-width: 0px; fill: rgb(126, 174, 121); fill-opacity: 1;"/><path class="point" transform="translate(416.72,475.6)" d="M-3.2500000000000004,-7.51L-3.2499999999999996,7.51L6.5,-3.9801020972288977e-16Z" style="opacity: 1; stroke-width: 0px; fill: rgb(242, 211, 56); fill-opacity: 1;"/><path class="point" transform="translate(517.4,475.6)" d="M-3.2500000000000004,-7.51L-3.2499999999999996,7.51L6.5,-3.9801020972288977e-16Z" style="opacity: 1; stroke-width: 0px; fill: rgb(242, 177, 56); fill-opacity: 1;"/><path class="point" transform="translate(618.09,475.6)" d="M-3.2500000000175246,-7.509999999992416L-3.2499999999824754,7.510000000007584L6.5,-1.5167931905731224e-11Z" style="opacity: 1; stroke-width: 0px; fill: rgb(242, 143, 56); fill-opacity: 1;"/><path class="point" transform="translate(718.77,475.6)" d="M-3.249999999953634,-7.510000000020065L-3.250000000046366,7.509999999979935L6.5,4.01302785494035e-11Z" style="opacity: 1; stroke-width: 0px; fill: rgb(230, 87, 43); fill-opacity: 1;"/><path class="point" transform="translate(819.45,475.6)" d="M-3.2500000000000155,-7.509999999999993L-3.2499999999999845,7.510000000000007L6.5,-1.338761959783722e-14Z" style="opacity: 1; stroke-width: 0px; fill: rgb(217, 30, 30); fill-opacity: 1;"/></g><g class="text"/></g><g class="trace scatter trace5cef90" style="stroke-miterlimit: 2; opacity: 1;"><g class="fills"/><g class="errorbars"/><g class="lines"><path class="js-line" d="M13.98,496.57L853.02,496.57" style="vector-effect: none; fill: none; stroke: rgb(0, 0, 0); stroke-opacity: 1; stroke-width: 2px; opacity: 1;"/></g><g class="points"/><g class="text"/></g><g class="trace scatter trace974cbd" style="stroke-miterlimit: 2; opacity: 1;"><g class="fills"/><g class="errorbars"/><g class="lines"><path class="js-line" d="M13.98,496.57L853.02,496.57" style="vector-effect: none; fill: none; stroke: rgb(100, 143, 255); stroke-opacity: 1; stroke-width: 2px; opacity: 1;"/></g><g class="points"/><g class="text"/></g><g class="trace scatter tracea61cb3" style="stroke-miterlimit: 2; opacity: 1;"><g class="fills"/><g class="errorbars"/><g class="lines"/><g class="points"><path class="point" transform="translate(13.98,496.57)" d="M-3.2500000000000004,-7.51L-3.2499999999999996,7.51L6.5,-3.9801020972288977e-16Z" style="opacity: 1; stroke-width: 0px; fill: rgb(12, 51, 131); fill-opacity: 1;"/><path class="point" transform="translate(114.67,496.57)" d="M-3.2500000000000973,-7.509999999999958L-3.2499999999999027,7.5100000000000415L6.5,-8.41088262664597e-14Z" style="opacity: 1; stroke-width: 0px; fill: rgb(11, 94, 159); fill-opacity: 1;"/><path class="point" transform="translate(215.35,496.57)" d="M-3.2500000000013043,-7.509999999999435L-3.2499999999986957,7.510000000000565L6.5,-1.1290507370436572e-12Z" style="opacity: 1; stroke-width: 0px; fill: rgb(10, 136, 186); fill-opacity: 1;"/><path class="point" transform="translate(316.04,496.57)" d="M-3.250000000000924,-7.5099999999996L-3.249999999999076,7.5100000000003995L6.5,-7.999806325447608e-13Z" style="opacity: 1; stroke-width: 0px; fill: rgb(126, 174, 121); fill-opacity: 1;"/><path class="point" transform="translate(416.72,496.57)" d="M-3.2500000000000004,-7.51L-3.2499999999999996,7.51L6.5,-3.9801020972288977e-16Z" style="opacity: 1; stroke-width: 0px; fill: rgb(242, 211, 56); fill-opacity: 1;"/><path class="point" transform="translate(517.4,496.57)" d="M-3.2500000000000004,-7.51L-3.2499999999999996,7.51L6.5,-3.9801020972288977e-16Z" style="opacity: 1; stroke-width: 0px; fill: rgb(242, 177, 56); fill-opacity: 1;"/><path class="point" transform="translate(618.09,496.57)" d="M-3.250000000000469,-7.509999999999796L-3.249999999999531,7.510000000000203L6.5,-4.0596248110529255e-13Z" style="opacity: 1; stroke-width: 0px; fill: rgb(242, 143, 56); fill-opacity: 1;"/><path class="point" transform="translate(718.77,496.57)" d="M-3.2499999999961102,-7.510000000001683L-3.2500000000038898,7.509999999998317L6.5,3.3667974011759142e-12Z" style="opacity: 1; stroke-width: 0px; fill: rgb(230, 87, 43); fill-opacity: 1;"/><path class="point" transform="translate(819.45,496.57)" d="M-3.2500000000000155,-7.509999999999993L-3.2499999999999845,7.510000000000007L6.5,-1.338761959783722e-14Z" style="opacity: 1; stroke-width: 0px; fill: rgb(217, 30, 30); fill-opacity: 1;"/></g><g class="text"/></g><g class="trace scatter tracefc4d5f" style="stroke-miterlimit: 2; opacity: 1;"><g class="fills"/><g class="errorbars"/><g class="lines"><path class="js-line" d="M13.98,517.55L853.02,517.55" style="vector-effect: none; fill: none; stroke: rgb(0, 0, 0); stroke-opacity: 1; stroke-width: 2px; opacity: 1;"/></g><g class="points"/><g class="text"/></g><g class="trace scatter trace79c973" style="stroke-miterlimit: 2; opacity: 1;"><g class="fills"/><g class="errorbars"/><g class="lines"><path class="js-line" d="M13.98,517.55L117.49,518.18L120.17,518.48L130.47,520.57L132.92,521.37L139.93,524.6L142.15,525.95L152.74,533.94L154.82,535.66L165.52,543.76L167.78,545.15L174.94,548.58L177.45,549.5L190.61,552.94L193.33,553.49L215.05,558.59L217.71,559.45L235.96,566.47L238.55,567.55L264.62,577.82L267.27,578.7L283.34,583.08L286.05,583.62L299.77,585.46L302.54,585.68L324.88,586.3L327.69,586.3L524.03,585.72L526.8,585.52L543.29,583.28L546.01,582.72L562.13,578.31L564.79,577.43L583.11,570.43L585.69,569.33L608.6,558.74L611.11,557.49L666.52,530.36L669.11,529.31L684.86,523.92L687.53,523.21L701.07,520.66L703.81,520.34L720.46,519.36L723.26,519.3L796.21,519.25L799.01,519.25L818.65,519.25" style="vector-effect: none; fill: none; stroke: rgb(100, 143, 255); stroke-opacity: 1; stroke-width: 2px; opacity: 1;"/></g><g class="points"/><g class="text"/></g><g class="trace scatter trace53a89a" style="stroke-miterlimit: 2; opacity: 1;"><g class="fills"/><g class="errorbars"/><g class="lines"/><g class="points"><path class="point" transform="translate(13.98,517.55)" d="M-3.2500000000000004,-7.51L-3.2499999999999996,7.51L6.5,-3.9801020972288977e-16Z" style="opacity: 1; stroke-width: 0px; fill: rgb(12, 51, 131); fill-opacity: 1;"/><path class="point" transform="translate(114.46,517.94)" d="M-2.7395980675577523,-7.710849656700216L-3.745800276726647,7.27540928655389L6.485398344284399,0.4354403701463259Z" style="opacity: 1; stroke-width: 0px; fill: rgb(11, 94, 159); fill-opacity: 1;"/><path class="point" transform="translate(200.87,555.01)" d="M-1.664962675426544,-8.011897358892991L-4.700875958269685,6.698086683894294L6.365838633696229,1.3138106749986962Z" style="opacity: 1; stroke-width: 0px; fill: rgb(10, 136, 186); fill-opacity: 1;"/><path class="point" transform="translate(296.02,585.09)" d="M-2.40919440276075,-7.820382492545123L-4.051818209233273,7.109526650862605L6.461012611994024,0.710855841682517Z" style="opacity: 1; stroke-width: 0px; fill: rgb(126, 174, 121); fill-opacity: 1;"/><path class="point" transform="translate(396.49,586.3)" d="M-3.2499745600003167,-7.5100110092696095L-3.2500254399623896,7.509988990644212L6.499999999962706,0.000022018625397861118Z" style="opacity: 1; stroke-width: 0px; fill: rgb(242, 211, 56); fill-opacity: 1;"/><path class="point" transform="translate(497.18,586.3)" d="M-3.2500804863088293,-7.5099651685287165L-3.249919513317878,7.5100348306086895L6.4999999996267075,-0.00006966207997211853Z" style="opacity: 1; stroke-width: 0px; fill: rgb(242, 177, 56); fill-opacity: 1;"/><path class="point" transform="translate(594.1,565.61)" d="M-6.06921695151226,-5.488825520589648L0.15323958671041327,8.181632943921697L5.915977364801847,-2.692807423332049Z" style="opacity: 1; stroke-width: 0px; fill: rgb(242, 143, 56); fill-opacity: 1;"/><path class="point" transform="translate(685.29,523.81)" d="M-5.1205175831525525,-6.383016503239322L-1.1480246262258946,8.102137955970566L6.268542209378447,-1.7191214527312433Z" style="opacity: 1; stroke-width: 0px; fill: rgb(230, 87, 43); fill-opacity: 1;"/><path class="point" transform="translate(785.09,519.25)" d="M-3.2500023890625958,-7.5099989661176L-3.2499976109370756,7.51000103388164L6.499999999999671,-0.0000020677640398352897Z" style="opacity: 1; stroke-width: 0px; fill: rgb(217, 30, 30); fill-opacity: 1;"/></g><g class="text"/></g><g class="trace scatter trace6c56f2" style="stroke-miterlimit: 2; opacity: 1;"><g class="fills"/><g class="errorbars"/><g class="lines"><path class="js-line" d="M13.98,538.52L853.02,538.52" style="vector-effect: none; fill: none; stroke: rgb(0, 0, 0); stroke-opacity: 1; stroke-width: 2px; opacity: 1;"/></g><g class="points"/><g class="text"/></g><g class="trace scatter trace4ed99a" style="stroke-miterlimit: 2; opacity: 1;"><g class="fills"/><g class="errorbars"/><g class="lines"><path class="js-line" d="M13.98,538.52L128.99,539.12L131.78,539.29L148.48,541.06L151.25,541.49L167.74,544.82L170.46,545.5L186.58,550.29L189.23,551.2L231.33,566.76L233.97,567.7L257.52,576.71L260.08,577.84L293.07,592.42L295.67,593.22L306.3,595.58L309.01,595.97L322.77,597.03L325.55,597.12L370.43,597.22L373.23,597.22L535.91,596.56L538.69,596.36L555.25,594.22L557.99,593.71L574.29,589.77L576.98,589L598.26,581.9L600.89,580.92L629.45,569.24L632.02,568.12L673.42,550.82L676.06,549.87L692.05,544.87L694.75,544.18L708.36,541.5L711.1,541.14L727.75,539.88L730.54,539.8L769.8,539.65L772.61,539.65L831.54,539.65" style="vector-effect: none; fill: none; stroke: rgb(100, 143, 255); stroke-opacity: 1; stroke-width: 2px; opacity: 1;"/></g><g class="points"/><g class="text"/></g><g class="trace scatter trace53690b" style="stroke-miterlimit: 2; opacity: 1;"><g class="fills"/><g class="errorbars"/><g class="lines"/><g class="points"><path class="point" transform="translate(13.98,538.52)" d="M-3.2500000000000004,-7.51L-3.2499999999999996,7.51L6.5,-3.9801020972288977e-16Z" style="opacity: 1; stroke-width: 0px; fill: rgb(12, 51, 131); fill-opacity: 1;"/><path class="point" transform="translate(114.66,538.62)" d="M-3.125393038799031,-7.562705756078744L-3.373718546288964,7.4552413220784395L6.499111585087995,0.10746443400030391Z" style="opacity: 1; stroke-width: 0px; fill: rgb(11, 94, 159); fill-opacity: 1;"/><path class="point" transform="translate(212.25,559.78)" d="M-0.36483854978864105,-8.174930753993461L-5.709693489296996,5.861910973247503L6.074532039085637,2.313019780745959Z" style="opacity: 1; stroke-width: 0px; fill: rgb(10, 136, 186); fill-opacity: 1;"/><path class="point" transform="translate(305.33,595.42)" d="M-1.9625261657520574,-7.944248929177542L-4.447871231142836,6.868700132570348L6.410397396894893,1.0755487966071942Z" style="opacity: 1; stroke-width: 0px; fill: rgb(126, 174, 121); fill-opacity: 1;"/><path class="point" transform="translate(405.56,597.22)" d="M-3.2499745530376507,-7.51001101228272L-3.250025446925035,7.509988987631055L6.499999999962686,0.00002202465166445793Z" style="opacity: 1; stroke-width: 0px; fill: rgb(242, 211, 56); fill-opacity: 1;"/><path class="point" transform="translate(506.24,597.22)" d="M-3.250060155462858,-7.509973967056926L-3.249939844328618,7.510026032461225L6.499999999791476,-0.00005206540429820384Z" style="opacity: 1; stroke-width: 0px; fill: rgb(242, 177, 56); fill-opacity: 1;"/><path class="point" transform="translate(604.24,579.64)" d="M-5.732151809267803,-5.839951680922357L-0.33345717656917495,8.176270929427089L6.0656089858369775,-2.3363192485047324Z" style="opacity: 1; stroke-width: 0px; fill: rgb(242, 143, 56); fill-opacity: 1;"/><path class="point" transform="translate(697.88,543.44)" d="M-4.817368710005535,-6.614798463434816L-1.5245042308814303,8.039806393814755L6.341872940886965,-1.4250079303799388Z" style="opacity: 1; stroke-width: 0px; fill: rgb(230, 87, 43); fill-opacity: 1;"/><path class="point" transform="translate(797.97,539.65)" d="M-3.2500013530275385,-7.509999414468631L-3.249998646972356,7.510000585531126L6.499999999999894,-0.0000011710624957067428Z" style="opacity: 1; stroke-width: 0px; fill: rgb(217, 30, 30); fill-opacity: 1;"/></g><g class="text"/></g><g class="trace scatter trace3da51b" style="stroke-miterlimit: 2; opacity: 1;"><g class="fills"/><g class="errorbars"/><g class="lines"><path class="js-line" d="M13.98,559.5L853.02,559.5" style="vector-effect: none; fill: none; stroke: rgb(0, 0, 0); stroke-opacity: 1; stroke-width: 2px; opacity: 1;"/></g><g class="points"/><g class="text"/></g><g class="trace scatter trace5a80cb" style="stroke-miterlimit: 2; opacity: 1;"><g class="fills"/><g class="errorbars"/><g class="lines"><path class="js-line" d="M13.98,559.5L134.6,560.24L137.4,560.42L156.91,562.49L159.68,562.9L181.72,567.14L184.44,567.79L211.51,575.12L214.21,575.88L276.17,593.8L278.83,594.67L297.56,599.95L300.26,600.52L313.95,602.47L316.71,602.69L336.24,603.34L339.04,603.35L527.05,603.28L529.85,603.24L552.2,602.1L554.98,601.82L574.35,598.97L577.1,598.44L598.97,593.44L601.69,592.74L631.31,584.08L633.98,583.24L682.22,568.31L684.93,567.61L704.07,563.43L706.82,562.97L723.44,561L726.23,560.81L748.61,560.17L751.41,560.16L841.21,560.15" style="vector-effect: none; fill: none; stroke: rgb(100, 143, 255); stroke-opacity: 1; stroke-width: 2px; opacity: 1;"/></g><g class="points"/><g class="text"/></g><g class="trace scatter trace156efc" style="stroke-miterlimit: 2; opacity: 1;"><g class="fills"/><g class="errorbars"/><g class="lines"/><g class="points"><path class="point" transform="translate(13.98,559.5)" d="M-3.2500000000000004,-7.51L-3.2499999999999996,7.51L6.5,-3.9801020972288977e-16Z" style="opacity: 1; stroke-width: 0px; fill: rgb(12, 51, 131); fill-opacity: 1;"/><path class="point" transform="translate(114.66,559.57)" d="M-3.1552406000500013,-7.550301765876387L-3.3442447600959926,7.468509020184047L6.499485360145994,0.08179274569233988Z" style="opacity: 1; stroke-width: 0px; fill: rgb(11, 94, 159); fill-opacity: 1;"/><path class="point" transform="translate(213.57,575.7)" d="M-1.077092382079626,-8.111872286991828L-5.176168725776672,6.337971073008418L6.253261107856298,1.7739012139834087Z" style="opacity: 1; stroke-width: 0px; fill: rgb(10, 136, 186); fill-opacity: 1;"/><path class="point" transform="translate(310.2,602.08)" d="M-2.358889877335702,-7.8357028112737375L-4.097421278310049,7.083342351464598L6.456311155645752,0.7523604598091387Z" style="opacity: 1; stroke-width: 0px; fill: rgb(126, 174, 121); fill-opacity: 1;"/><path class="point" transform="translate(410.66,603.36)" d="M-3.249980993783493,-7.510008225031851L-3.2500190061956906,7.509991774920048L6.499999999979184,0.00001645011180309651Z" style="opacity: 1; stroke-width: 0px; fill: rgb(242, 211, 56); fill-opacity: 1;"/><path class="point" transform="translate(511.34,603.36)" d="M-3.2500399580796473,-7.509982707762092L-3.249960041828347,7.510017292025304L6.4999999999079945,-0.00003458426321224675Z" style="opacity: 1; stroke-width: 0px; fill: rgb(242, 177, 56); fill-opacity: 1;"/><path class="point" transform="translate(610.56,590.31)" d="M-5.168881737453771,-6.343915319754583L-1.08641380121305,8.110629140364749L6.255295538666821,-1.7667138206101656Z" style="opacity: 1; stroke-width: 0px; fill: rgb(242, 143, 56); fill-opacity: 1;"/><path class="point" transform="translate(707.26,562.9)" d="M-4.396878495120839,-6.90145343381696L-2.021308785259592,7.929496251000589L6.4181872803804305,-1.028042817183629Z" style="opacity: 1; stroke-width: 0px; fill: rgb(230, 87, 43); fill-opacity: 1;"/><path class="point" transform="translate(807.65,560.15)" d="M-3.250000643696726,-7.509999721436137L-3.24999935630325,7.510000278563807L6.499999999999976,-5.571276695076567e-7Z" style="opacity: 1; stroke-width: 0px; fill: rgb(217, 30, 30); fill-opacity: 1;"/></g><g class="text"/></g><g class="trace scatter trace4bc68b" style="stroke-miterlimit: 2; opacity: 1;"><g class="fills"/><g class="errorbars"/><g class="lines"><path class="js-line" d="M13.98,580.48L853.02,580.48" style="vector-effect: none; fill: none; stroke: rgb(0, 0, 0); stroke-opacity: 1; stroke-width: 2px; opacity: 1;"/></g><g class="points"/><g class="text"/></g><g class="trace scatter trace8336a9" style="stroke-miterlimit: 2; opacity: 1;"><g class="fills"/><g class="errorbars"/><g class="lines"><path class="js-line" d="M13.98,580.48L140.23,581.2L143.03,581.35L168.18,583.54L170.97,583.86L201.48,588.45L204.25,588.92L306.5,606.22L309.27,606.49L328.81,607.49L331.61,607.54L407.37,607.61L410.18,607.61L553.26,607L556.06,606.85L581.18,604.63L583.97,604.29L614.49,599.73L617.25,599.25L655.83,591.86L658.59,591.31L694.48,584.89L697.26,584.48L722.33,581.78L725.13,581.6L750.33,580.83L753.14,580.81L848.54,580.79" style="vector-effect: none; fill: none; stroke: rgb(100, 143, 255); stroke-opacity: 1; stroke-width: 2px; opacity: 1;"/></g><g class="points"/><g class="text"/></g><g class="trace scatter trace854a68" style="stroke-miterlimit: 2; opacity: 1;"><g class="fills"/><g class="errorbars"/><g class="lines"/><g class="points"><path class="point" transform="translate(13.98,580.48)" d="M-3.2500000000000004,-7.51L-3.2499999999999996,7.51L6.5,-3.9801020972288977e-16Z" style="opacity: 1; stroke-width: 0px; fill: rgb(12, 51, 131); fill-opacity: 1;"/><path class="point" transform="translate(114.67,580.52)" d="M-3.1893942921324614,-7.535938166500098L-3.310394784441635,7.483574438137274L6.499789076574096,0.05236372836282482Z" style="opacity: 1; stroke-width: 0px; fill: rgb(11, 94, 159); fill-opacity: 1;"/><path class="point" transform="translate(214.64,590.73)" d="M-1.9164791132078658,-7.9554828771507005L-4.487581032524641,6.842822259603494L6.404060145732507,1.1126606175472065Z" style="opacity: 1; stroke-width: 0px; fill: rgb(10, 136, 186); fill-opacity: 1;"/><path class="point" transform="translate(313.84,606.85)" d="M-2.726333840800786,-7.715549480659458L-3.7583060967958435,7.268956959756137L6.484639937596629,0.4465925209033206Z" style="opacity: 1; stroke-width: 0px; fill: rgb(126, 174, 121); fill-opacity: 1;"/><path class="point" transform="translate(414.44,607.61)" d="M-3.2499879746555562,-7.510005204032436L-3.250012025336111,7.509994795948308L6.499999999991667,0.000010408084128041282Z" style="opacity: 1; stroke-width: 0px; fill: rgb(242, 211, 56); fill-opacity: 1;"/><path class="point" transform="translate(515.13,607.61)" d="M-3.2500224667444266,-7.50999027733435L-3.2499775332264873,7.510009722598439L6.499999999970914,-0.000019445264088294026Z" style="opacity: 1; stroke-width: 0px; fill: rgb(242, 177, 56); fill-opacity: 1;"/><path class="point" transform="translate(615.26,599.6)" d="M-4.478428508124551,-6.848815817177251L-1.9271134862071904,7.952913529724712L6.405541994331742,-1.1040977125474598Z" style="opacity: 1; stroke-width: 0px; fill: rgb(242, 143, 56); fill-opacity: 1;"/><path class="point" transform="translate(714.4,582.44)" d="M-3.9474657700565388,-7.167992326602473L-2.523247132601723,7.784331950001695L6.470712902658262,-0.6163396233992213Z" style="opacity: 1; stroke-width: 0px; fill: rgb(230, 87, 43); fill-opacity: 1;"/><path class="point" transform="translate(814.98,580.79)" d="M-3.2500002402633634,-7.509999896024504L-3.249999759736633,7.510000103975487L6.4999999999999964,-2.0795098183256723e-7Z" style="opacity: 1; stroke-width: 0px; fill: rgb(217, 30, 30); fill-opacity: 1;"/></g><g class="text"/></g><g class="trace scatter trace4cc2a9" style="stroke-miterlimit: 2; opacity: 1;"><g class="fills"/><g class="errorbars"/><g class="lines"><path class="js-line" d="M13.98,601.45L853.02,601.45" style="vector-effect: none; fill: none; stroke: rgb(0, 0, 0); stroke-opacity: 1; stroke-width: 2px; opacity: 1;"/></g><g class="points"/><g class="text"/></g><g class="trace scatter tracea16752" style="stroke-miterlimit: 2; opacity: 1;"><g class="fills"/><g class="errorbars"/><g class="lines"><path class="js-line" d="M13.98,601.45L162.7,602.2L165.5,602.29L227.17,605.23L229.97,605.37L330.84,610.16L333.64,610.18L538.49,610.17L541.3,610.16L586.18,609.15L588.98,609.04L650.62,605.65L653.42,605.47L717.87,602.07L720.67,601.99L768.36,601.54L771.17,601.54L852.55,601.54" style="vector-effect: none; fill: none; stroke: rgb(100, 143, 255); stroke-opacity: 1; stroke-width: 2px; opacity: 1;"/></g><g class="points"/><g class="text"/></g><g class="trace scatter tracecc48db" style="stroke-miterlimit: 2; opacity: 1;"><g class="fills"/><g class="errorbars"/><g class="lines"/><g class="points"><path class="point" transform="translate(13.98,601.45)" d="M-3.2500000000000004,-7.51L-3.2499999999999996,7.51L6.5,-3.9801020972288977e-16Z" style="opacity: 1; stroke-width: 0px; fill: rgb(12, 51, 131); fill-opacity: 1;"/><path class="point" transform="translate(114.67,601.47)" d="M-3.2314909282395283,-7.517982866481249L-3.2684893515934266,7.501971564763517L6.499980279832955,0.016011301717732317Z" style="opacity: 1; stroke-width: 0px; fill: rgb(11, 94, 159); fill-opacity: 1;"/><path class="point" transform="translate(215.28,604.62)" d="M-2.8478222967234257,-7.6715388395213715L-3.643060889854129,7.327394308539375L6.4908831865775545,0.34414453098199543Z" style="opacity: 1; stroke-width: 0px; fill: rgb(10, 136, 186); fill-opacity: 1;"/><path class="point" transform="translate(315.81,609.94)" d="M-3.067687362880294,-7.586296477440395L-3.4304169234989548,7.429322965854422L6.498104286379249,0.1569735115859717Z" style="opacity: 1; stroke-width: 0px; fill: rgb(126, 174, 121); fill-opacity: 1;"/><path class="point" transform="translate(416.48,610.21)" d="M-3.249998226647558,-7.510000767429236L-3.2500017733522606,7.509999232570344L6.499999999999819,0.0000015348588926949919Z" style="opacity: 1; stroke-width: 0px; fill: rgb(242, 211, 56); fill-opacity: 1;"/><path class="point" transform="translate(517.16,610.21)" d="M-3.2500068621103475,-7.509997030374622L-3.249993137886939,7.510002969619107L6.499999999997287,-0.000005939244484396146Z" style="opacity: 1; stroke-width: 0px; fill: rgb(242, 177, 56); fill-opacity: 1;"/><path class="point" transform="translate(617.79,607.64)" d="M-3.659041190661679,-7.319427406911086L-2.831075591259762,7.677734756851996L6.490116781921441,-0.3583073499409097Z" style="opacity: 1; stroke-width: 0px; fill: rgb(242, 143, 56); fill-opacity: 1;"/><path class="point" transform="translate(718.31,602.06)" d="M-3.473924174913605,-7.409078945925115L-3.0231478763565733,7.6041552402407415L6.4970720512701785,-0.19507629431562648Z" style="opacity: 1; stroke-width: 0px; fill: rgb(230, 87, 43); fill-opacity: 1;"/><path class="point" transform="translate(818.99,601.54)" d="M-3.2500000514104603,-7.509999977751798L-3.2499999485895397,7.510000022248201L6.5,-4.449640384873247e-8Z" style="opacity: 1; stroke-width: 0px; fill: rgb(217, 30, 30); fill-opacity: 1;"/></g><g class="text"/></g><g class="trace scatter trace13d10a" style="stroke-miterlimit: 2; opacity: 1;"><g class="fills"/><g class="errorbars"/><g class="lines"><path class="js-line" d="M13.98,622.43L853.02,622.43" style="vector-effect: none; fill: none; stroke: rgb(0, 0, 0); stroke-opacity: 1; stroke-width: 2px; opacity: 1;"/></g><g class="points"/><g class="text"/></g><g class="trace scatter trace3fa515" style="stroke-miterlimit: 2; opacity: 1;"><g class="fills"/><g class="errorbars"/><g class="lines"><path class="js-line" d="M13.98,622.43L853.02,622.43" style="vector-effect: none; fill: none; stroke: rgb(100, 143, 255); stroke-opacity: 1; stroke-width: 2px; opacity: 1;"/></g><g class="points"/><g class="text"/></g><g class="trace scatter trace178469" style="stroke-miterlimit: 2; opacity: 1;"><g class="fills"/><g class="errorbars"/><g class="lines"/><g class="points"><path class="point" transform="translate(13.98,622.43)" d="M-3.2500000000000004,-7.51L-3.2499999999999996,7.51L6.5,-3.9801020972288977e-16Z" style="opacity: 1; stroke-width: 0px; fill: rgb(12, 51, 131); fill-opacity: 1;"/><path class="point" transform="translate(114.67,622.43)" d="M-3.249999999998793,-7.510000000000522L-3.250000000001207,7.5099999999994775L6.5,1.0445439005674743e-12Z" style="opacity: 1; stroke-width: 0px; fill: rgb(11, 94, 159); fill-opacity: 1;"/><path class="point" transform="translate(215.35,622.43)" d="M-3.249999999989235,-7.510000000004658L-3.250000000010765,7.509999999995341L6.5,9.317481790864291e-12Z" style="opacity: 1; stroke-width: 0px; fill: rgb(10, 136, 186); fill-opacity: 1;"/><path class="point" transform="translate(316.04,622.43)" d="M-3.249999999994324,-7.5100000000024565L-3.250000000005676,7.509999999997543L6.5,4.91256091836152e-12Z" style="opacity: 1; stroke-width: 0px; fill: rgb(126, 174, 121); fill-opacity: 1;"/><path class="point" transform="translate(416.72,622.43)" d="M-3.2500000000000004,-7.51L-3.2499999999999996,7.51L6.5,-3.9801020972288977e-16Z" style="opacity: 1; stroke-width: 0px; fill: rgb(242, 211, 56); fill-opacity: 1;"/><path class="point" transform="translate(517.4,622.43)" d="M-3.2500000000000004,-7.51L-3.2499999999999996,7.51L6.5,-3.9801020972288977e-16Z" style="opacity: 1; stroke-width: 0px; fill: rgb(242, 177, 56); fill-opacity: 1;"/><path class="point" transform="translate(618.09,622.43)" d="M-3.25000000001792,-7.509999999992245L-3.24999999998208,7.5100000000077545L6.5,-1.5509991619618234e-11Z" style="opacity: 1; stroke-width: 0px; fill: rgb(242, 143, 56); fill-opacity: 1;"/><path class="point" transform="translate(718.77,622.43)" d="M-3.250000000001401,-7.509999999999393L-3.249999999998599,7.510000000000606L6.5,-1.212761553100394e-12Z" style="opacity: 1; stroke-width: 0px; fill: rgb(230, 87, 43); fill-opacity: 1;"/><path class="point" transform="translate(819.45,622.43)" d="M-3.249999999999992,-7.510000000000003L-3.250000000000008,7.509999999999996L6.5,6.818439450340628e-15Z" style="opacity: 1; stroke-width: 0px; fill: rgb(217, 30, 30); fill-opacity: 1;"/></g><g class="text"/></g><g class="trace scatter trace69f1dd" style="stroke-miterlimit: 2; opacity: 1;"><g class="fills"/><g class="errorbars"/><g class="lines"><path class="js-line" d="M13.98,643.4L853.02,643.4" style="vector-effect: none; fill: none; stroke: rgb(0, 0, 0); stroke-opacity: 1; stroke-width: 2px; opacity: 1;"/></g><g class="points"/><g class="text"/></g><g class="trace scatter trace50d9b9" style="stroke-miterlimit: 2; opacity: 1;"><g class="fills"/><g class="errorbars"/><g class="lines"><path class="js-line" d="M13.98,643.4L853.02,643.4" style="vector-effect: none; fill: none; stroke: rgb(100, 143, 255); stroke-opacity: 1; stroke-width: 2px; opacity: 1;"/></g><g class="points"/><g class="text"/></g><g class="trace scatter tracefcf3b7" style="stroke-miterlimit: 2; opacity: 1;"><g class="fills"/><g class="errorbars"/><g class="lines"/><g class="points"><path class="point" transform="translate(13.98,643.4)" d="M-3.2500000000000004,-7.51L-3.2499999999999996,7.51L6.5,-3.9801020972288977e-16Z" style="opacity: 1; stroke-width: 0px; fill: rgb(12, 51, 131); fill-opacity: 1;"/><path class="point" transform="translate(114.67,643.4)" d="M-3.250000000000254,-7.50999999999989L-3.249999999999746,7.51000000000011L6.5,-2.1977807987565383e-13Z" style="opacity: 1; stroke-width: 0px; fill: rgb(11, 94, 159); fill-opacity: 1;"/><path class="point" transform="translate(215.35,643.4)" d="M-3.2500000000041793,-7.5099999999981915L-3.2499999999958207,7.510000000001808L6.5,-3.617282579833558e-12Z" style="opacity: 1; stroke-width: 0px; fill: rgb(10, 136, 186); fill-opacity: 1;"/><path class="point" transform="translate(316.04,643.4)" d="M-3.2500000000034275,-7.5099999999985165L-3.2499999999965725,7.510000000001483L6.5,-2.9663588204958287e-12Z" style="opacity: 1; stroke-width: 0px; fill: rgb(126, 174, 121); fill-opacity: 1;"/><path class="point" transform="translate(416.72,643.4)" d="M-3.2500000000000004,-7.51L-3.2499999999999996,7.51L6.5,-3.9801020972288977e-16Z" style="opacity: 1; stroke-width: 0px; fill: rgb(242, 211, 56); fill-opacity: 1;"/><path class="point" transform="translate(517.4,643.4)" d="M-3.2500000000000004,-7.51L-3.2499999999999996,7.51L6.5,-3.9801020972288977e-16Z" style="opacity: 1; stroke-width: 0px; fill: rgb(242, 177, 56); fill-opacity: 1;"/><path class="point" transform="translate(618.09,643.4)" d="M-3.2500000000015348,-7.509999999999335L-3.2499999999984652,7.510000000000664L6.5,-1.3282247476614102e-12Z" style="opacity: 1; stroke-width: 0px; fill: rgb(242, 143, 56); fill-opacity: 1;"/><path class="point" transform="translate(718.77,643.4)" d="M-3.2499999999873403,-7.510000000005478L-3.2500000000126597,7.5099999999945215L6.5,1.0957059153630722e-11Z" style="opacity: 1; stroke-width: 0px; fill: rgb(230, 87, 43); fill-opacity: 1;"/><path class="point" transform="translate(819.45,643.4)" d="M-3.249999999999992,-7.510000000000003L-3.250000000000008,7.509999999999996L6.5,6.818439450340628e-15Z" style="opacity: 1; stroke-width: 0px; fill: rgb(217, 30, 30); fill-opacity: 1;"/></g><g class="text"/></g><g class="trace scatter trace7b287a" style="stroke-miterlimit: 2; opacity: 1;"><g class="fills"/><g class="errorbars"/><g class="lines"><path class="js-line" d="M208.78,855.27L393.67,634.94L395.17,633.15L658.22,319.66" style="vector-effect: none; fill: none; stroke: rgb(220, 38, 127); stroke-opacity: 1; stroke-width: 2px; opacity: 1;"/></g><g class="points"/><g class="text"/></g><g class="trace scatter tracef95e9b" style="stroke-miterlimit: 2; opacity: 1;"><g class="fills"/><g class="errorbars"/><g class="lines"/><g class="points"><path class="point" transform="translate(208.78,855.27)" d="M-7.842053499304777,-2.3376905086092314L3.663934036342272,7.316979388882588L4.178119462962505,-4.979288880273357Z" style="opacity: 1; stroke-width: 0px; fill: rgb(12, 51, 131); fill-opacity: 1;"/><path class="point" transform="translate(262.72,791)" d="M-7.842053499304777,-2.3376905086092314L3.663934036342272,7.316979388882588L4.178119462962505,-4.979288880273357Z" style="opacity: 1; stroke-width: 0px; fill: rgb(11, 94, 159); fill-opacity: 1;"/><path class="point" transform="translate(316.65,726.73)" d="M-7.842053499304777,-2.3376905086092314L3.663934036342272,7.316979388882588L4.178119462962505,-4.979288880273357Z" style="opacity: 1; stroke-width: 0px; fill: rgb(10, 136, 186); fill-opacity: 1;"/><path class="point" transform="translate(370.58,662.45)" d="M-7.842053499304777,-2.3376905086092314L3.663934036342272,7.316979388882588L4.178119462962505,-4.979288880273357Z" style="opacity: 1; stroke-width: 0px; fill: rgb(126, 174, 121); fill-opacity: 1;"/><path class="point" transform="translate(424.51,598.18)" d="M-7.842053499304777,-2.3376905086092314L3.663934036342272,7.316979388882588L4.178119462962505,-4.979288880273357Z" style="opacity: 1; stroke-width: 0px; fill: rgb(242, 211, 56); fill-opacity: 1;"/><path class="point" transform="translate(478.44,533.91)" d="M-7.842053499304777,-2.3376905086092314L3.663934036342272,7.316979388882588L4.178119462962505,-4.979288880273357Z" style="opacity: 1; stroke-width: 0px; fill: rgb(242, 177, 56); fill-opacity: 1;"/><path class="point" transform="translate(532.38,469.63)" d="M-7.842053499304777,-2.3376905086092314L3.663934036342272,7.316979388882588L4.178119462962505,-4.979288880273357Z" style="opacity: 1; stroke-width: 0px; fill: rgb(242, 143, 56); fill-opacity: 1;"/><path class="point" transform="translate(586.31,405.36)" d="M-7.842053499304777,-2.3376905086092314L3.663934036342272,7.316979388882588L4.178119462962505,-4.979288880273357Z" style="opacity: 1; stroke-width: 0px; fill: rgb(230, 87, 43); fill-opacity: 1;"/><path class="point" transform="translate(640.24,341.09)" d="M-7.842053499304777,-2.3376905086092314L3.663934036342272,7.316979388882588L4.178119462962505,-4.979288880273357Z" style="opacity: 1; stroke-width: 0px; fill: rgb(217, 30, 30); fill-opacity: 1;"/></g><g class="text"/></g></g></g></g><path class="xlines-above crisp" d="M0,0" style="fill: none;"/><path class="ylines-above crisp" d="M0,0" style="fill: none;"/><g class="overlines-above"/><g class="xaxislayer-above"><g class="xtick"><text text-anchor="middle" x="0" y="1260" transform="translate(130.98,0)" style="font-family: 'Open Sans', verdana, arial, sans-serif; font-size: 24px; fill: rgb(42, 63, 95); fill-opacity: 1; white-space: pre; opacity: 1;">−1500</text></g><g class="xtick"><text text-anchor="middle" x="0" y="1260" style="font-family: 'Open Sans', verdana, arial, sans-serif; font-size: 24px; fill: rgb(42, 63, 95); fill-opacity: 1; white-space: pre; opacity: 1;" transform="translate(270.82,0)">−1000</text></g><g class="xtick"><text text-anchor="middle" x="0" y="1260" style="font-family: 'Open Sans', verdana, arial, sans-serif; font-size: 24px; fill: rgb(42, 63, 95); fill-opacity: 1; white-space: pre; opacity: 1;" transform="translate(410.66,0)">−500</text></g><g class="xtick"><text text-anchor="middle" x="0" y="1260" style="font-family: 'Open Sans', verdana, arial, sans-serif; font-size: 24px; fill: rgb(42, 63, 95); fill-opacity: 1; white-space: pre; opacity: 1;" transform="translate(550.5,0)">0</text></g><g class="xtick"><text text-anchor="middle" x="0" y="1260" style="font-family: 'Open Sans', verdana, arial, sans-serif; font-size: 24px; fill: rgb(42, 63, 95); fill-opacity: 1; white-space: pre; opacity: 1;" transform="translate(690.34,0)">500</text></g><g class="xtick"><text text-anchor="middle" x="0" y="1260" style="font-family: 'Open Sans', verdana, arial, sans-serif; font-size: 24px; fill: rgb(42, 63, 95); fill-opacity: 1; white-space: pre; opacity: 1;" transform="translate(830.18,0)">1000</text></g><g class="xtick"><text text-anchor="middle" x="0" y="1260" style="font-family: 'Open Sans', verdana, arial, sans-serif; font-size: 24px; fill: rgb(42, 63, 95); fill-opacity: 1; white-space: pre; opacity: 0;" transform="translate(970.02,0)">1500</text></g></g><g class="yaxislayer-above"><g class="ytick"><text text-anchor="end" x="116" y="8.399999999999999" transform="translate(0,1122.98)" style="font-family: 'Open Sans', verdana, arial, sans-serif; font-size: 24px; fill: rgb(42, 63, 95); fill-opacity: 1; white-space: pre; opacity: 1;">−1500</text></g><g class="ytick"><text text-anchor="end" x="116" y="8.399999999999999" style="font-family: 'Open Sans', verdana, arial, sans-serif; font-size: 24px; fill: rgb(42, 63, 95); fill-opacity: 1; white-space: pre; opacity: 1;" transform="translate(0,983.15)">−1000</text></g><g class="ytick"><text text-anchor="end" x="116" y="8.399999999999999" style="font-family: 'Open Sans', verdana, arial, sans-serif; font-size: 24px; fill: rgb(42, 63, 95); fill-opacity: 1; white-space: pre; opacity: 1;" transform="translate(0,843.31)">−500</text></g><g class="ytick"><text text-anchor="end" x="116" y="8.399999999999999" style="font-family: 'Open Sans', verdana, arial, sans-serif; font-size: 24px; fill: rgb(42, 63, 95); fill-opacity: 1; white-space: pre; opacity: 1;" transform="translate(0,703.47)">0</text></g><g class="ytick"><text text-anchor="end" x="116" y="8.399999999999999" style="font-family: 'Open Sans', verdana, arial, sans-serif; font-size: 24px; fill: rgb(42, 63, 95); fill-opacity: 1; white-space: pre; opacity: 1;" transform="translate(0,563.63)">500</text></g><g class="ytick"><text text-anchor="end" x="116" y="8.399999999999999" style="font-family: 'Open Sans', verdana, arial, sans-serif; font-size: 24px; fill: rgb(42, 63, 95); fill-opacity: 1; white-space: pre; opacity: 1;" transform="translate(0,423.79)">1000</text></g><g class="ytick"><text text-anchor="end" x="116" y="8.399999999999999" style="font-family: 'Open Sans', verdana, arial, sans-serif; font-size: 24px; fill: rgb(42, 63, 95); fill-opacity: 1; white-space: pre; opacity: 1;" transform="translate(0,283.95)">1500</text></g><g class="ytick"><text text-anchor="end" x="116" y="8.399999999999999" style="font-family: 'Open Sans', verdana, arial, sans-serif; font-size: 24px; fill: rgb(42, 63, 95); fill-opacity: 1; white-space: pre; opacity: 1;" transform="translate(0,144.11)">2000</text></g></g><g class="overaxes-above"/></g></g><g class="polarlayer"/><g class="smithlayer"/><g class="ternarylayer"/><g class="geolayer"/><g class="funnelarealayer"/><g class="pielayer"/><g class="iciclelayer"/><g class="treemaplayer"/><g class="sunburstlayer"/><g class="glimages"/><defs id="topdefs-3c9577"><g class="clips"/><clipPath id="legend3c9577"><rect width="385" height="45" x="2" y="2"/></clipPath></defs><g class="layer-above"><g class="imagelayer"/><g class="shapelayer"/></g><g class="infolayer"><g class="legend" pointer-events="all" transform="translate(586.33,0)"><rect class="bg" shape-rendering="crispEdges" style="stroke: rgb(0, 0, 0); stroke-opacity: 1; fill: rgb(255, 255, 255); fill-opacity: 1; stroke-width: 2px;" width="387" height="47" x="1" y="1"/><g class="scrollbox" transform="" clip-path="url(#legend3c9577)"><g class="groups"><g class="traces" transform="translate(2,24.1)" style="opacity: 1;"><text class="legendtext" text-anchor="start" x="40" y="9.360000000000001" style="font-family: 'Open Sans', verdana, arial, sans-serif; font-size: 24px; fill: rgb(42, 63, 95); fill-opacity: 1; white-space: pre;">OS Ref</text><g class="layers" style="opacity: 1;"><g class="legendfill"/><g class="legendlines"><path class="js-line" d="M5,0h30" style="fill: none; stroke: rgb(0, 0, 0); stroke-opacity: 1; stroke-width: 2px;"/></g><g class="legendsymbols"><g class="legendpoints"/></g></g><rect class="legendtoggle" x="0" y="-17.1" width="126.640625" height="34.2" style="fill: rgb(0, 0, 0); fill-opacity: 0;"/></g><g class="traces" transform="translate(131.140625,24.1)" style="opacity: 1;"><text class="legendtext" text-anchor="start" x="40" y="9.360000000000001" style="font-family: 'Open Sans', verdana, arial, sans-serif; font-size: 24px; fill: rgb(42, 63, 95); fill-opacity: 1; white-space: pre;">OS Pos</text><g class="layers" style="opacity: 1;"><g class="legendfill"/><g class="legendlines"><path class="js-line" d="M5,0h30" style="fill: none; stroke: rgb(100, 143, 255); stroke-opacity: 1; stroke-width: 2px;"/></g><g class="legendsymbols"><g class="legendpoints"/></g></g><rect class="legendtoggle" x="0" y="-17.1" width="127.203125" height="34.2" style="fill: rgb(0, 0, 0); fill-opacity: 0;"/></g><g class="traces" transform="translate(260.84375,24.1)" style="opacity: 1;"><text class="legendtext" text-anchor="start" x="40" y="9.360000000000001" style="font-family: 'Open Sans', verdana, arial, sans-serif; font-size: 24px; fill: rgb(42, 63, 95); fill-opacity: 1; white-space: pre;">TS Pos</text><g class="layers" style="opacity: 1;"><g class="legendfill"/><g class="legendlines"><path class="js-line" d="M5,0h30" style="fill: none; stroke: rgb(220, 38, 127); stroke-opacity: 1; stroke-width: 2px;"/></g><g class="legendsymbols"><g class="legendpoints"/></g></g><rect class="legendtoggle" x="0" y="-17.1" width="122.953125" height="34.2" style="fill: rgb(0, 0, 0); fill-opacity: 0;"/></g></g></g><rect class="scrollbar" rx="20" ry="3" width="0" height="0" style="fill: rgb(128, 139, 164); fill-opacity: 1;" x="0" y="0"/></g><g class="g-gtitle"/><g class="g-xtitle" transform="translate(0,-5.7999999999999545)"><text class="xtitle" x="550.5" y="1299.8" text-anchor="middle" style="opacity: 1; font-family: 'Open Sans', verdana, arial, sans-serif; font-size: 29px; fill: rgb(42, 63, 95); fill-opacity: 1; white-space: pre;">East [m]</text></g><g class="g-ytitle" transform="translate(18.322265625,0)"><text class="ytitle" transform="rotate(-90,10.678124999999994,675.5)" x="10.678124999999994" y="675.5" text-anchor="middle" style="opacity: 1; font-family: 'Open Sans', verdana, arial, sans-serif; font-size: 29px; fill: rgb(42, 63, 95); fill-opacity: 1; white-space: pre;">North [m]</text></g><g class="annotation" data-index="0" style="opacity: 1;"><g class="annotation-text-g" transform="rotate(0,550.5,104.5)"><g class="cursor-pointer" transform="translate(477,93)"><rect class="bg" x="0.5" y="0.5" width="147" height="22" style="stroke-width: 1px; stroke: rgb(0, 0, 0); stroke-opacity: 0; fill: rgb(0, 0, 0); fill-opacity: 0;"/><text class="annotation-text" text-anchor="middle" x="74.15625" y="18" style="font-family: 'Open Sans', verdana, arial, sans-serif; font-size: 16px; fill: rgb(42, 63, 95); fill-opacity: 1; white-space: pre;">Course 40\degree</text></g></g></g></g></svg>