<svg class="main-svg" xmlns="http://www.w3.org/2000/svg" xmlns:xlink="http://www.w3.org/1999/xlink" width="1000" height="400" style="" viewBox="0 0 1000 400"><rect x="0" y="0" width="1000" height="400" style="fill: rgb(255, 255, 255); fill-opacity: 1;"/><defs id="defs-4c575c"><g class="clips"><clipPath id="clip4c575cxyplot" class="plotclip"><rect width="804" height="220"/></clipPath><clipPath class="axesclip" id="clip4c575cx"><rect x="80" y="0" width="804" height="400"/></clipPath><clipPath class="axesclip" id="clip4c575cy"><rect x="0" y="100" width="1000" height="220"/></clipPath><clipPath class="axesclip" id="clip4c575cxy"><rect x="80" y="100" width="804" height="220"/></clipPath></g><g class="gradients"/><g class="patterns"/></defs><g class="bglayer"><rect class="bg" x="80" y="100" width="804" height="220" style="fill: rgb(229, 236, 246); fill-opacity: 1; stroke-width: 0;"/></g><g class="layer-below"><g class="imagelayer"/><g class="shapelayer"/></g><g class="cartesianlayer"><g class="subplot xy"><g class="layer-subplot"><g class="shapelayer"/><g class="imagelayer"/></g><g class="minor-gridlayer"><g class="x"/><g class="y"/></g><g class="gridlayer"><g class="x"><path class="xgrid crisp" transform="translate(128.32,0)" d="M0,100v220" style="stroke: rgb(255, 255, 255); stroke-opacity: 1; stroke-width: 1px;"/><path class="xgrid crisp" transform="translate(254.27,0)" d="M0,100v220" style="stroke: rgb(255, 255, 255); stroke-opacity: 1; stroke-width: 1px;"/><path class="xgrid crisp" transform="translate(380.22,0)" d="M0,100v220" style="stroke: rgb(255, 255, 255); stroke-opacity: 1; stroke-width: 1px;"/><path class="xgrid crisp" transform="translate(632.11,0)" d="M0,100v220" style="stroke: rgb(255, 255, 255); stroke-opacity: 1; stroke-width: 1px;"/><path class="xgrid crisp" transform="translate(758.05,0)" d="M0,100v220" style="stroke: rgb(255, 255, 255); stroke-opacity: 1; stroke-width: 1px;"/></g><g class="y"><path class="ygrid crisp" transform="translate(0,317.94)" d="M80,0h804" style="stroke: rgb(255, 255, 255); stroke-opacity: 1; stroke-width: 1px;"/><path class="ygrid crisp" transform="translate(0,281.78999999999996)" d="M80,0h804" style="stroke: rgb(255, 255, 255); stroke-opacity: 1; stroke-width: 1px;"/><path class="ygrid crisp" transform="translate(0,245.65)" d="M80,0h804" style="stroke: rgb(255, 255, 255); stroke-opacity: 1; stroke-width: 1px;"/><path class="ygrid crisp" transform="translate(0,173.35)" d="M80,0h804" style="stroke: rgb(255, 255, 255); stroke-opacity: 1; stroke-width: 1px;"/><path class="ygrid crisp" transform="translate(0,137.2)" d="M80,0h804" style="stroke: rgb(255, 255, 255); stroke-opacity: 1; stroke-width: 1px;"/><path class="ygrid crisp" transform="translate(0,101.05)" d="M80,0h804" style="stroke: rgb(255, 255, 255); stroke-opacity: 1; stroke-width: 1px;"/></g></g><g class="zerolinelayer"><path class="xzl zl crisp" transform="translate(506.16,0)" d="M0,100v220" style="stroke: rgb(255, 255, 255); stroke-opacity: 1; stroke-width: 2px;"/><path class="yzl zl crisp" transform="translate(0,209.5)" d="M80,0h804" style="stroke: rgb(255, 255, 255); stroke-opacity: 1; stroke-width: 2px;"/></g><g class="layer-between"><g class="shapelayer"/><g class="imagelayer"/></g><path class="xlines-below"/><path class="ylines-below"/><g class="overlines-below"/><g class="xaxislayer-below"/><g class="yaxislayer-below"/><g class="overaxes-below"/><g class="overplot"><g class="xy" transform="translate(80,100)" clip-path="url(#clip4c575cxyplot)"><g class="scatterlayer mlayer"><g class="trace scatter trace3c470f" style="stroke-miterlimit: 2; opacity: 1;"><g class="fills"/><g class="errorbars"/><g class="lines"><path class="js-line" d="M48.32,109.5L81.24,110.39L87.23,110.78L109.18,113.07L114.18,113.82L132.15,117.53L136.14,118.64L146.94,122.39L150.14,123.78L158.54,128.39L160.94,130.07L166.96,135.53L168.56,137.49L172.19,143.81L173,146.06L174.24,153.24L174.28,155.76L175.25,165.23L175.74,167.42L178.7,175.46L179.68,177.29L184.63,183.9L186.12,185.38L193.06,190.56L195.04,191.68L203.97,195.43L206.45,196.19L217.37,198.52L220.35,198.92L233.26,199.82L236.74,199.87L377.45,199.21L380.51,198.87L391.78,196.79L394.34,196.09L403.61,192.58L405.68,191.52L412.96,186.59L414.53,185.17L418.65,180.5L419.82,178.81L422.75,173.28L423.52,171.3L425.63,162.64L425.9,160.3L427.27,143.5L427.79,141.33L430.86,133.37L431.88,131.56L435.52,126.56L436.94,125.03L443.59,119.64L445.51,118.48L454.15,114.52L456.56,113.71L467.2,111.18L470.1,110.72L482.73,109.62L486.14,109.52L620.77,109.5L624.51,109.5L804,109.5" style="vector-effect: none; fill: none; stroke: rgb(0, 0, 0); stroke-opacity: 1; stroke-width: 2px; opacity: 1;"/></g><g class="points"/><g class="text"/></g><g class="trace scatter trace093b09" style="stroke-miterlimit: 2; opacity: 1;"><g class="fills"/><g class="errorbars"/><g class="lines"><path class="js-line" d="M48.32,19.13L60.38,19.8L62.65,20.1L73.29,22.41L75.28,23.03L84.52,26.97L86.23,27.92L94.06,33.49L95.49,34.76L101.92,41.95L103.06,43.56L120.43,69.75L121.47,71.4L146.46,110.93L147.65,112.51L159.25,126.39L160.64,127.9L173.94,141.06L175.53,142.44L185.68,150.12L187.48,151.3L198.86,157.71L200.86,158.67L213.48,163.82L215.68,164.58L229.53,168.46L231.94,169L251.36,172.46L253.81,172.78L273.47,174.5L275.95,174.6L295.86,174.58L298.36,174.46L315.82,172.98L318.27,172.66L335.07,169.7L337.41,169.18L353.49,164.74L355.74,164L371.1,158.09L373.24,157.14L394.02,146.92L396.03,145.84L415.51,134.46L417.4,133.27L445.05,115.42L447,114.49L457.15,110.58L459.25,109.94L470.14,107.52L472.39,107.18L484.01,106.24L486.41,106.2L501.27,106.91L503.78,107.09L544.07,109.09L546.6,109.16L587.01,109.56L589.54,109.56L647.66,109.51" style="vector-effect: none; fill: none; stroke: rgb(100, 143, 255); stroke-opacity: 1; stroke-width: 2px; opacity: 1;"/></g><g class="points"/><g class="text"/></g><g class="trace scatter trace27e947" style="stroke-miterlimit: 2; opacity: 1;"><g class="fills"/><g class="errorbars"/><g class="lines"/><g class="points"><path class="point" transform="translate(48.32,19.13)" d="M-3.2500000000000004,-7.51L-3.2499999999999996,7.51L6.5,-3.9801020972288977e-16Z" style="opacity: 1; stroke-width: 0px; fill: rgb(12, 51, 131); fill-opacity: 1;"/><path class="point" transform="translate(109.6,53.13)" d="M5.356162729707356,-6.186608183236906L-8.176398813725026,0.3303065832162342L2.8202360840176706,5.856301600020672Z" style="opacity: 1; stroke-width: 0px; fill: rgb(11, 94, 159); fill-opacity: 1;"/><path class="point" transform="translate(147.36,112.13)" d="M5.039563369208727,-6.447123470799173L-8.14959129602948,0.7394333693312416L3.1100279268207522,5.707690101467932Z" style="opacity: 1; stroke-width: 0px; fill: rgb(10, 136, 186); fill-opacity: 1;"/><path class="point" transform="translate(204.21,160.19)" d="M1.1209887675475687,-8.10592278417653L-6.67647396368892,4.731521469060871L5.555485196141352,3.3744013151156578Z" style="opacity: 1; stroke-width: 0px; fill: rgb(126, 174, 121); fill-opacity: 1;"/><path class="point" transform="translate(289.66,174.75)" d="M-3.4178817829466097,-7.435098124288723L-3.080478011952352,7.581111740231645L6.4983597948989615,-0.146013615942921Z" style="opacity: 1; stroke-width: 0px; fill: rgb(242, 211, 56); fill-opacity: 1;"/><path class="point" transform="translate(374.1,156.75)" d="M-6.774731462951288,-4.589729142868661L1.2916135693214157,8.080490974411443L5.483117893629872,-3.4907618315427813Z" style="opacity: 1; stroke-width: 0px; fill: rgb(242, 177, 56); fill-opacity: 1;"/><path class="point" transform="translate(443.65,116.12)" d="M-7.018594112925439,-4.207366953096481L1.7372815824837504,7.99652754032416L5.281312530441689,-3.789160587227679Z" style="opacity: 1; stroke-width: 0px; fill: rgb(242, 143, 56); fill-opacity: 1;"/><path class="point" transform="translate(526.83,108.43)" d="M-2.7545186212390376,-7.705532244124827L-3.7317104435019988,7.282646302399844L6.486229064741036,0.42288594172498334Z" style="opacity: 1; stroke-width: 0px; fill: rgb(230, 87, 43); fill-opacity: 1;"/><path class="point" transform="translate(617.44,109.56)" d="M-3.2582412495535182,-7.5064281758841815L-3.241754834866806,7.513562776114783L6.499996084420324,-0.007134600230600981Z" style="opacity: 1; stroke-width: 0px; fill: rgb(217, 30, 30); fill-opacity: 1;"/></g><g class="text"/></g><g class="trace scatter tracea51186" style="stroke-miterlimit: 2; opacity: 1;"><g class="fills"/><g class="errorbars"/><g class="lines"><path class="js-line" d="M48.32,109.5L81.24,110.39L87.23,110.78L109.18,113.07L114.18,113.82L132.15,117.53L136.14,118.64L146.94,122.39L150.14,123.78L158.54,128.39L160.94,130.07L166.96,135.53L168.56,137.49L172.19,143.81L173,146.06L174.24,153.24L174.28,155.76L175.25,165.23L175.74,167.42L178.7,175.46L179.68,177.29L184.63,183.9L186.12,185.38L193.06,190.56L195.04,191.68L203.97,195.43L206.45,196.19L217.37,198.52L220.35,198.92L233.26,199.82L236.74,199.87L377.45,199.21L380.51,198.87L391.78,196.79L394.34,196.09L403.61,192.58L405.68,191.52L412.96,186.59L414.53,185.17L418.65,180.5L419.82,178.81L422.75,173.28L423.52,171.3L425.63,162.64L425.9,160.3L427.27,143.5L427.79,141.33L430.86,133.37L431.88,131.56L435.52,126.56L436.94,125.03L443.59,119.64L445.51,118.48L454.15,114.52L456.56,113.71L467.2,111.18L470.1,110.72L482.73,109.62L486.14,109.52L620.77,109.5L624.51,109.5L804,109.5" style="vector-effect: none; fill: none; stroke: rgb(0, 0, 0); stroke-opacity: 1; stroke-width: 2px; opacity: 1;"/></g><g class="points"/><g class="text"/></g><g class="trace scatter trace98f4e4" style="stroke-miterlimit: 2; opacity: 1;"><g class="fills"/><g class="errorbars"/><g class="lines"><path class="js-line" d="M48.32,41.72L60.46,42.36L62.77,42.65L73.7,44.84L75.77,45.43L85.5,49.17L87.33,50.07L95.86,55.36L97.45,56.57L104.78,63.41L106.12,64.93L122.78,85.22L124.01,86.81L139.34,107.63L140.47,109.25L152.29,125.19L153.58,126.73L166.17,140.1L167.67,141.53L180.45,152.62L182.14,153.96L194.63,162.73L196.51,163.85L208.34,169.89L210.4,170.78L223.28,175.42L225.51,176.08L239.44,179.33L241.85,179.75L259.18,181.9L261.67,182.12L281.57,183.09L284.06,183.11L303.97,182.55L306.45,182.38L326.34,180.28L328.8,179.9L345.46,176.52L347.77,175.93L363.43,170.98L365.6,170.16L380.26,163.64L382.28,162.6L397.93,153.49L399.85,152.32L426.12,135.36L427.95,134.11L455.2,115.75L457.13,114.77L467.12,110.63L469.2,109.95L479.93,107.33L482.15,106.96L493.62,105.86L495.99,105.79L508.2,106.2L510.71,106.42L545.9,108.7L548.42,108.81L586.27,109.57L588.8,109.57L659.56,109.5" style="vector-effect: none; fill: none; stroke: rgb(100, 143, 255); stroke-opacity: 1; stroke-width: 2px; opacity: 1;"/></g><g class="points"/><g class="text"/></g><g class="trace scatter trace377f0d" style="stroke-miterlimit: 2; opacity: 1;"><g class="fills"/><g class="errorbars"/><g class="lines"/><g class="points"><path class="point" transform="translate(48.32,41.72)" d="M-3.2500000000000004,-7.51L-3.2499999999999996,7.51L6.5,-3.9801020972288977e-16Z" style="opacity: 1; stroke-width: 0px; fill: rgb(12, 51, 131); fill-opacity: 1;"/><path class="point" transform="translate(113.81,74.05)" d="M4.808207799824578,-6.62146039433191L-8.118312236898674,1.0274270894916202L3.3101044370740977,5.5940333048402895Z" style="opacity: 1; stroke-width: 0px; fill: rgb(11, 94, 159); fill-opacity: 1;"/><path class="point" transform="translate(157.26,130.92)" d="M4.527379975126791,-6.8165556229536435L-8.068300739253761,1.365695127382832L3.54092076412697,5.4508604955708115Z" style="opacity: 1; stroke-width: 0px; fill: rgb(10, 136, 186); fill-opacity: 1;"/><path class="point" transform="translate(220.28,174.48)" d="M0.1735697260595992,-8.181226897611115L-6.082837444814212,5.473727123264926L5.909267718754612,2.7074997743461897Z" style="opacity: 1; stroke-width: 0px; fill: rgb(126, 174, 121); fill-opacity: 1;"/><path class="point" transform="translate(307.75,182.29)" d="M-4.019187938377743,-7.128024152315904L-2.4450151271174843,7.8092573928746045L6.464203065495227,-0.6812332405587006Z" style="opacity: 1; stroke-width: 0px; fill: rgb(242, 211, 56); fill-opacity: 1;"/><path class="point" transform="translate(389.02,158.84)" d="M-7.280871880657921,-3.735171302289197L2.261042817865471,7.864495239732742L5.01982906279245,-4.129323937443545Z" style="opacity: 1; stroke-width: 0px; fill: rgb(242, 177, 56); fill-opacity: 1;"/><path class="point" transform="translate(455.74,115.47)" d="M-7.022414366383766,-4.200987558516079L1.7445471515680415,7.994945605565796L5.277867214815725,-3.7939580470497174Z" style="opacity: 1; stroke-width: 0px; fill: rgb(242, 143, 56); fill-opacity: 1;"/><path class="point" transform="translate(538.76,108.35)" d="M-2.691055963106657,-7.727924546954901L-3.7914759872690986,7.251710821451846L6.482531950375756,0.47621372550305385Z" style="opacity: 1; stroke-width: 0px; fill: rgb(230, 87, 43); fill-opacity: 1;"/><path class="point" transform="translate(629.34,109.56)" d="M-3.262288655104519,-7.504670061420178L-3.2377026368600843,7.515309816319567L6.499991291964603,-0.010639754899389314Z" style="opacity: 1; stroke-width: 0px; fill: rgb(217, 30, 30); fill-opacity: 1;"/></g><g class="text"/></g><g class="trace scatter trace330fcb" style="stroke-miterlimit: 2; opacity: 1;"><g class="fills"/><g class="errorbars"/><g class="lines"><path class="js-line" d="M48.32,109.5L81.24,110.39L87.23,110.78L109.18,113.07L114.18,113.82L132.15,117.53L136.14,118.64L146.94,122.39L150.14,123.78L158.54,128.39L160.94,130.07L166.96,135.53L168.56,137.49L172.19,143.81L173,146.06L174.24,153.24L174.28,155.76L175.25,165.23L175.74,167.42L178.7,175.46L179.68,177.29L184.63,183.9L186.12,185.38L193.06,190.56L195.04,191.68L203.97,195.43L206.45,196.19L217.37,198.52L220.35,198.92L233.26,199.82L236.74,199.87L377.45,199.21L380.51,198.87L391.78,196.79L394.34,196.09L403.61,192.58L405.68,191.52L412.96,186.59L414.53,185.17L418.65,180.5L419.82,178.81L422.75,173.28L423.52,171.3L425.63,162.64L425.9,160.3L427.27,143.5L427.79,141.33L430.86,133.37L431.88,131.56L435.52,126.56L436.94,125.03L443.59,119.64L445.51,118.48L454.15,114.52L456.56,113.71L467.2,111.18L470.1,110.72L482.73,109.62L486.14,109.52L620.77,109.5L624.51,109.5L804,109.5" style="vector-effect: none; fill: none; stroke: rgb(0, 0, 0); stroke-opacity: 1; stroke-width: 2px; opacity: 1;"/></g><g class="points"/><g class="text"/></g><g class="trace scatter tracec7f9f4" style="stroke-miterlimit: 2; opacity: 1;"><g class="fills"/><g class="errorbars"/><g class="lines"><path class="js-line" d="M48.32,64.31L62.92,65.16L65.24,65.47L78.5,68.31L80.6,68.95L90.62,72.86L92.53,73.78L101.61,79.1L103.33,80.31L113.02,88.46L114.58,89.88L132.4,107.43L133.81,108.93L148.72,125.71L150.01,127.27L162.03,141.02L163.47,142.48L175.85,153.67L177.5,155.01L191.52,165.2L193.37,166.41L206.98,174.38L209,175.4L221.55,180.79L223.7,181.56L237.05,185.47L239.34,186L253.5,188.45L255.92,188.73L273.37,189.8L275.89,189.85L298.41,189.47L300.9,189.33L323.19,187.26L325.66,186.94L347.65,183.14L350.03,182.6L366.04,178.03L368.24,177.26L382.98,171.12L384.99,170.13L396.6,163.6L398.46,162.41L414.55,150.95L416.34,149.67L449.14,127.07L450.99,125.83L468.04,115.38L470.02,114.42L480.25,110.33L482.36,109.66L493.22,107.04L495.46,106.66L506.95,105.51L509.32,105.42L523.94,105.94L526.44,106.18L561.59,108.69L564.1,108.81L599.41,109.61L601.94,109.6L675.23,109.49" style="vector-effect: none; fill: none; stroke: rgb(100, 143, 255); stroke-opacity: 1; stroke-width: 2px; opacity: 1;"/></g><g class="points"/><g class="text"/></g><g class="trace scatter trace9a9ec2" style="stroke-miterlimit: 2; opacity: 1;"><g class="fills"/><g class="errorbars"/><g class="lines"/><g class="points"><path class="point" transform="translate(48.32,64.31)" d="M-3.2500000000000004,-7.51L-3.2499999999999996,7.51L6.5,-3.9801020972288977e-16Z" style="opacity: 1; stroke-width: 0px; fill: rgb(12, 51, 131); fill-opacity: 1;"/><path class="point" transform="translate(118.99,94.03)" d="M4.044374170066824,-7.113763952542724L-7.954332609564565,1.9212477030351316L3.9099584394977405,5.192516249507593Z" style="opacity: 1; stroke-width: 0px; fill: rgb(11, 94, 159); fill-opacity: 1;"/><path class="point" transform="translate(169.11,147.85)" d="M3.8839047409327447,-7.202630350320648L-7.909269838744033,2.0990594603140527L4.025365097811289,5.103570890006595Z" style="opacity: 1; stroke-width: 0px; fill: rgb(10, 136, 186); fill-opacity: 1;"/><path class="point" transform="translate(238.52,185.82)" d="M-0.8143592789696656,-8.14244551500076L-5.378303753573819,6.167369677122798L6.192663032543485,1.9750758378779625Z" style="opacity: 1; stroke-width: 0px; fill: rgb(126, 174, 121); fill-opacity: 1;"/><path class="point" transform="translate(326.94,186.76)" d="M-4.624570486441424,-6.750996061022027L-1.7557660632873098,7.992489320043449L6.380336549728734,-1.2414932590214212Z" style="opacity: 1; stroke-width: 0px; fill: rgb(242, 211, 56); fill-opacity: 1;"/><path class="point" transform="translate(404.6,158.17)" d="M-7.6411237968504615,-2.9284513178821303L3.095734410971147,7.5748946168728395L4.545389385879314,-4.646443298990709Z" style="opacity: 1; stroke-width: 0px; fill: rgb(242, 177, 56); fill-opacity: 1;"/><path class="point" transform="translate(470.58,114.16)" d="M-6.804506115939137,-4.545469889697529L1.3442595848187935,8.071899786829789L5.460246531120344,-3.5264298971322607Z" style="opacity: 1; stroke-width: 0px; fill: rgb(242, 143, 56); fill-opacity: 1;"/><path class="point" transform="translate(554.45,108.31)" d="M-2.636149651133829,-7.746826125377217L-3.8428397950718294,7.224623333393396L6.4789894462056585,0.5222027919838216Z" style="opacity: 1; stroke-width: 0px; fill: rgb(230, 87, 43); fill-opacity: 1;"/><path class="point" transform="translate(645,109.56)" d="M-3.267952835974176,-7.502205293235338L-3.2320285722930886,7.517751745560709L6.4999814082672644,-0.015546452325370582Z" style="opacity: 1; stroke-width: 0px; fill: rgb(217, 30, 30); fill-opacity: 1;"/></g><g class="text"/></g><g class="trace scatter tracedd73c5" style="stroke-miterlimit: 2; opacity: 1;"><g class="fills"/><g class="errorbars"/><g class="lines"><path class="js-line" d="M48.32,109.5L81.24,110.39L87.23,110.78L109.18,113.07L114.18,113.82L132.15,117.53L136.14,118.64L146.94,122.39L150.14,123.78L158.54,128.39L160.94,130.07L166.96,135.53L168.56,137.49L172.19,143.81L173,146.06L174.24,153.24L174.28,155.76L175.25,165.23L175.74,167.42L178.7,175.46L179.68,177.29L184.63,183.9L186.12,185.38L193.06,190.56L195.04,191.68L203.97,195.43L206.45,196.19L217.37,198.52L220.35,198.92L233.26,199.82L236.74,199.87L377.45,199.21L380.51,198.87L391.78,196.79L394.34,196.09L403.61,192.58L405.68,191.52L412.96,186.59L414.53,185.17L418.65,180.5L419.82,178.81L422.75,173.28L423.52,171.3L425.63,162.64L425.9,160.3L427.27,143.5L427.79,141.33L430.86,133.37L431.88,131.56L435.52,126.56L436.94,125.03L443.59,119.64L445.51,118.48L454.15,114.52L456.56,113.71L467.2,111.18L470.1,110.72L482.73,109.62L486.14,109.52L620.77,109.5L624.51,109.5L804,109.5" style="vector-effect: none; fill: none; stroke: rgb(0, 0, 0); stroke-opacity: 1; stroke-width: 2px; opacity: 1;"/></g><g class="points"/><g class="text"/></g><g class="trace scatter trace9bef41" style="stroke-miterlimit: 2; opacity: 1;"><g class="fills"/><g class="errorbars"/><g class="lines"><path class="js-line" d="M48.32,86.9L63.09,87.64L65.48,87.9L79.32,90.35L81.55,90.9L94.47,95.06L96.55,95.9L108.55,101.78L110.47,102.9L125.2,112.75L126.97,114.03L143.93,127.33L145.54,128.71L160.9,143.01L162.36,144.49L172.89,154.58L174.49,155.95L186.33,165.05L188.12,166.27L201.3,174.36L203.27,175.45L219.94,183.46L222.11,184.35L235.4,188.98L237.66,189.64L253.83,193.23L256.19,193.6L273.07,195.26L275.53,195.36L293.06,195.14L295.57,195.01L317.93,193.02L320.39,192.71L342.31,189.08L344.72,188.59L366.11,183.3L368.4,182.6L383.73,176.95L385.82,176.04L399.67,168.91L401.54,167.79L412.23,160.49L413.92,159.18L442.54,136.49L444.36,135.26L459.47,125.83L461.43,124.7L477.72,116.22L479.82,115.28L492.75,110.52L494.96,109.88L508.5,106.92L510.8,106.58L524.95,105.42L527.35,105.38L542.1,106.03L544.61,106.27L579.75,108.78L582.27,108.89L615.04,109.65L617.57,109.65L693.39,109.48" style="vector-effect: none; fill: none; stroke: rgb(100, 143, 255); stroke-opacity: 1; stroke-width: 2px; opacity: 1;"/></g><g class="points"/><g class="text"/></g><g class="trace scatter trace311104" style="stroke-miterlimit: 2; opacity: 1;"><g class="fills"/><g class="errorbars"/><g class="lines"/><g class="points"><path class="point" transform="translate(48.32,86.9)" d="M-3.2500000000000004,-7.51L-3.2499999999999996,7.51L6.5,-3.9801020972288977e-16Z" style="opacity: 1; stroke-width: 0px; fill: rgb(12, 51, 131); fill-opacity: 1;"/><path class="point" transform="translate(124.99,112.6)" d="M2.9961485447195164,-7.614833806326644L-7.602069973227898,3.028387710011185L4.605921428508381,4.586446096315458Z" style="opacity: 1; stroke-width: 0px; fill: rgb(11, 94, 159); fill-opacity: 1;"/><path class="point" transform="translate(182.41,162.23)" d="M3.1356625913899414,-7.558453553006574L-7.656470295196296,2.888089787173648L4.520807703806355,4.670363765832926Z" style="opacity: 1; stroke-width: 0px; fill: rgb(10, 136, 186); fill-opacity: 1;"/><path class="point" transform="translate(257.71,193.83)" d="M-1.7362707415190335,-7.996747083167314L-4.641019391770325,6.739698732525943L6.377290133289359,1.2570483506413712Z" style="opacity: 1; stroke-width: 0px; fill: rgb(126, 174, 121); fill-opacity: 1;"/><path class="point" transform="translate(345.97,188.33)" d="M-5.254280250556526,-6.273367440905375L-0.976527721666812,8.124591904139939L6.230807972223338,-1.8512244632345631Z" style="opacity: 1; stroke-width: 0px; fill: rgb(242, 211, 56); fill-opacity: 1;"/><path class="point" transform="translate(419.46,154.53)" d="M-7.886503841064652,-2.1830385165801562L3.8071010277128536,7.243519984426614L4.079402813351798,-5.060481467846458Z" style="opacity: 1; stroke-width: 0px; fill: rgb(242, 177, 56); fill-opacity: 1;"/><path class="point" transform="translate(486.83,112.49)" d="M-6.281967452862741,-5.243995129781607L0.477351373110543,8.169133103738087L5.804616079752198,-2.925137973956481Z" style="opacity: 1; stroke-width: 0px; fill: rgb(242, 143, 56); fill-opacity: 1;"/><path class="point" transform="translate(572.61,108.4)" d="M-2.639700092754957,-7.745617045807872L-3.839528021902475,7.2263839206774545L6.479228114657432,0.5192331251304172Z" style="opacity: 1; stroke-width: 0px; fill: rgb(230, 87, 43); fill-opacity: 1;"/><path class="point" transform="translate(663.16,109.54)" d="M-3.273262900483417,-7.499889998147898L-3.226705873612897,7.520037845994661L6.499968774096314,-0.020147847846762906Z" style="opacity: 1; stroke-width: 0px; fill: rgb(217, 30, 30); fill-opacity: 1;"/></g><g class="text"/></g><g class="trace scatter trace0bcf50" style="stroke-miterlimit: 2; opacity: 1;"><g class="fills"/><g class="errorbars"/><g class="lines"><path class="js-line" d="M48.32,109.5L81.24,110.39L87.23,110.78L109.18,113.07L114.18,113.82L132.15,117.53L136.14,118.64L146.94,122.39L150.14,123.78L158.54,128.39L160.94,130.07L166.96,135.53L168.56,137.49L172.19,143.81L173,146.06L174.24,153.24L174.28,155.76L175.25,165.23L175.74,167.42L178.7,175.46L179.68,177.29L184.63,183.9L186.12,185.38L193.06,190.56L195.04,191.68L203.97,195.43L206.45,196.19L217.37,198.52L220.35,198.92L233.26,199.82L236.74,199.87L377.45,199.21L380.51,198.87L391.78,196.79L394.34,196.09L403.61,192.58L405.68,191.52L412.96,186.59L414.53,185.17L418.65,180.5L419.82,178.81L422.75,173.28L423.52,171.3L425.63,162.64L425.9,160.3L427.27,143.5L427.79,141.33L430.86,133.37L431.88,131.56L435.52,126.56L436.94,125.03L443.59,119.64L445.51,118.48L454.15,114.52L456.56,113.71L467.2,111.18L470.1,110.72L482.73,109.62L486.14,109.52L620.77,109.5L624.51,109.5L804,109.5" style="vector-effect: none; fill: none; stroke: rgb(0, 0, 0); stroke-opacity: 1; stroke-width: 2px; opacity: 1;"/></g><g class="points"/><g class="text"/></g><g class="trace scatter trace1b3188" style="stroke-miterlimit: 2; opacity: 1;"><g class="fills"/><g class="errorbars"/><g class="lines"><path class="js-line" d="M48.32,109.5L65.72,110.26L68.16,110.49L84.89,113L87.23,113.48L103.29,117.73L105.53,118.46L120.91,124.44L123.05,125.4L139.5,133.6L141.47,134.7L156.56,144.03L158.37,145.27L172.12,155.72L173.75,157.1L187.24,167.71L189.03,168.94L202.2,176.94L204.18,177.99L218.65,184.77L220.81,185.65L236.57,191.19L238.88,191.88L255.3,195.82L257.67,196.26L274.47,198.45L276.9,198.63L294.09,199.06L296.58,198.99L316.55,197.44L319.02,197.14L338.44,193.97L340.82,193.48L359.59,188.76L361.9,188.07L380,181.81L382.19,180.93L396.75,174.15L398.72,173.09L411.78,165.09L413.54,163.86L425.09,154.63L426.64,153.22L445.12,136.37L446.82,135.11L457.63,128.05L459.54,126.96L471.57,120.94L473.67,120.02L489.23,114.31L491.54,113.6L507.91,109.54L510.28,109.08L527.05,106.8L529.47,106.6L546.63,106.09L549.1,106.15L574.16,107.79L576.68,107.95L609.42,109.38L611.94,109.44L654.88,109.59L657.41,109.58L710.48,109.47" style="vector-effect: none; fill: none; stroke: rgb(100, 143, 255); stroke-opacity: 1; stroke-width: 2px; opacity: 1;"/></g><g class="points"/><g class="text"/></g><g class="trace scatter trace9e4746" style="stroke-miterlimit: 2; opacity: 1;"><g class="fills"/><g class="errorbars"/><g class="lines"/><g class="points"><path class="point" transform="translate(48.32,109.5)" d="M-3.2500000000000004,-7.51L-3.2499999999999996,7.51L6.5,-3.9801020972288977e-16Z" style="opacity: 1; stroke-width: 0px; fill: rgb(12, 51, 131); fill-opacity: 1;"/><path class="point" transform="translate(131.18,129.25)" d="M1.6094265257785438,-8.023237891158432L-6.950545632560944,4.318855798667974L5.3411191067824,3.704382092490458Z" style="opacity: 1; stroke-width: 0px; fill: rgb(11, 94, 159); fill-opacity: 1;"/><path class="point" transform="translate(195.96,173.37)" d="M2.3379923866344954,-7.841963504125681L-7.317120426558892,3.6636523665919243L4.9791280399243965,4.178311137533757Z" style="opacity: 1; stroke-width: 0px; fill: rgb(10, 136, 186); fill-opacity: 1;"/><path class="point" transform="translate(276.02,198.57)" d="M-2.453235538959619,-7.806678896328804L-4.011681162076668,7.132251695911971L6.464916701036287,0.6744272004168322Z" style="opacity: 1; stroke-width: 0px; fill: rgb(126, 174, 121); fill-opacity: 1;"/><path class="point" transform="translate(363.1,187.71)" d="M-5.9517490638485055,-5.615984604766865L-0.019867740987241866,8.183043765792046L5.971616804835747,-2.5670591610251807Z" style="opacity: 1; stroke-width: 0px; fill: rgb(242, 211, 56); fill-opacity: 1;"/><path class="point" transform="translate(431.68,148.28)" d="M-8.025180508568985,-1.5997117880682246L4.32726750671317,6.945311794681674L3.6979130018558153,-5.3456000066134495Z" style="opacity: 1; stroke-width: 0px; fill: rgb(242, 177, 56); fill-opacity: 1;"/><path class="point" transform="translate(501.51,110.93)" d="M-5.442566535581516,-6.1107339580256825L-0.7290829557044138,8.150523789530421L6.17164949128593,-2.039789831504738Z" style="opacity: 1; stroke-width: 0px; fill: rgb(242, 143, 56); fill-opacity: 1;"/><path class="point" transform="translate(589.66,108.66)" d="M-2.7483921415757253,-7.7077195483570105L-3.7374986951575355,7.27967743129431L6.485890836733261,0.42804211706270096Z" style="opacity: 1; stroke-width: 0px; fill: rgb(230, 87, 43); fill-opacity: 1;"/><path class="point" transform="translate(680.26,109.52)" d="M-3.2735645354778757,-7.499758344910956L-3.226403423036256,7.5201676146093925L6.499967958514132,-0.020409269698437378Z" style="opacity: 1; stroke-width: 0px; fill: rgb(217, 30, 30); fill-opacity: 1;"/></g><g class="text"/></g><g class="trace scatter trace48058e" style="stroke-miterlimit: 2; opacity: 1;"><g class="fills"/><g class="errorbars"/><g class="lines"><path class="js-line" d="M48.32,109.5L81.24,110.39L87.23,110.78L109.18,113.07L114.18,113.82L132.15,117.53L136.14,118.64L146.94,122.39L150.14,123.78L158.54,128.39L160.94,130.07L166.96,135.53L168.56,137.49L172.19,143.81L173,146.06L174.24,153.24L174.28,155.76L175.25,165.23L175.74,167.42L178.7,175.46L179.68,177.29L184.63,183.9L186.12,185.38L193.06,190.56L195.04,191.68L203.97,195.43L206.45,196.19L217.37,198.52L220.35,198.92L233.26,199.82L236.74,199.87L377.45,199.21L380.51,198.87L391.78,196.79L394.34,196.09L403.61,192.58L405.68,191.52L412.96,186.59L414.53,185.17L418.65,180.5L419.82,178.81L422.75,173.28L423.52,171.3L425.63,162.64L425.9,160.3L427.27,143.5L427.79,141.33L430.86,133.37L431.88,131.56L435.52,126.56L436.94,125.03L443.59,119.64L445.51,118.48L454.15,114.52L456.56,113.71L467.2,111.18L470.1,110.72L482.73,109.62L486.14,109.52L620.77,109.5L624.51,109.5L804,109.5" style="vector-effect: none; fill: none; stroke: rgb(0, 0, 0); stroke-opacity: 1; stroke-width: 2px; opacity: 1;"/></g><g class="points"/><g class="text"/></g><g class="trace scatter trace5aaa43" style="stroke-miterlimit: 2; opacity: 1;"><g class="fills"/><g class="errorbars"/><g class="lines"><path class="js-line" d="M48.32,132.09L70.91,132.84L73.4,133.01L95.62,135.41L98.07,135.77L119.94,139.84L122.35,140.38L138.69,144.85L140.94,145.58L156.14,151.4L158.22,152.33L172.27,159.52L174.2,160.64L188.96,170.38L190.81,171.59L204.35,179.37L206.36,180.39L221.05,186.81L223.23,187.63L239.07,192.68L241.41,193.31L258.24,196.99L260.66,197.41L280.19,199.9L282.65,200.09L302.42,200.75L304.9,200.72L322.4,199.79L324.89,199.55L341.89,197.05L344.25,196.57L360.3,192.4L362.52,191.69L377.63,185.85L379.72,184.89L393.87,177.43L395.81,176.29L410.65,166.65L412.41,165.38L425.79,154.76L427.37,153.37L439.29,141.78L440.7,140.28L449.86,132L451.51,130.74L462.16,123.97L464.05,122.96L476.18,117.7L478.32,116.95L491.92,113.19L494.31,112.69L513.95,109.6L516.42,109.3L538.75,107.49L541.24,107.39L563.76,107.31L566.28,107.4L629.33,109.56L631.86,109.58L712.73,109.48L715.25,109.47L722.83,109.47" style="vector-effect: none; fill: none; stroke: rgb(100, 143, 255); stroke-opacity: 1; stroke-width: 2px; opacity: 1;"/></g><g class="points"/><g class="text"/></g><g class="trace scatter trace350df1" style="stroke-miterlimit: 2; opacity: 1;"><g class="fills"/><g class="errorbars"/><g class="lines"/><g class="points"><path class="point" transform="translate(48.32,132.09)" d="M-3.2500000000000004,-7.51L-3.2499999999999996,7.51L6.5,-3.9801020972288977e-16Z" style="opacity: 1; stroke-width: 0px; fill: rgb(12, 51, 131); fill-opacity: 1;"/><path class="point" transform="translate(136.14,144.05)" d="M-0.058892257733444975,-8.182855962436285L-5.924898884649711,5.644304492732175L5.983791142383155,2.5385514697041094Z" style="opacity: 1; stroke-width: 0px; fill: rgb(11, 94, 159); fill-opacity: 1;"/><path class="point" transform="translate(207.91,181.14)" d="M1.4894527608617305,-8.04637374679808L-6.885286328804794,4.422152436356508L5.395833567943064,3.624221310441572Z" style="opacity: 1; stroke-width: 0px; fill: rgb(10, 136, 186); fill-opacity: 1;"/><path class="point" transform="translate(291.61,200.59)" d="M-2.857482138119949,-7.66794599813571L-3.6338293412249185,7.3319768356735056L6.491311479344867,0.33596916246220404Z" style="opacity: 1; stroke-width: 0px; fill: rgb(126, 174, 121); fill-opacity: 1;"/><path class="point" transform="translate(376.62,186.29)" d="M-6.69094269212756,-4.711038727357779L1.1458246733056412,8.102449371519949L5.54511801882192,-3.391410644162171Z" style="opacity: 1; stroke-width: 0px; fill: rgb(242, 211, 56); fill-opacity: 1;"/><path class="point" transform="translate(439.85,141.18)" d="M-8.052168660173752,-1.457799666660562L4.449193959755819,6.867843410305183L3.6029747004179327,-5.410043743644621Z" style="opacity: 1; stroke-width: 0px; fill: rgb(242, 177, 56); fill-opacity: 1;"/><path class="point" transform="translate(512.18,109.82)" d="M-4.5379991589174224,-6.809490702957509L-1.8576682867462972,7.969420840714655L6.39566744566372,-1.1599301377571447Z" style="opacity: 1; stroke-width: 0px; fill: rgb(242, 143, 56); fill-opacity: 1;"/><path class="point" transform="translate(601.97,108.98)" d="M-2.913279704100141,-7.646921038279276L-3.58030752567765,7.358260529607252L6.493587229777791,0.2886605086720245Z" style="opacity: 1; stroke-width: 0px; fill: rgb(230, 87, 43); fill-opacity: 1;"/><path class="point" transform="translate(692.61,109.5)" d="M-3.2680220706431484,-7.502175134305334L-3.231959193875425,7.517781572320661L6.499981264518573,-0.015606438015326397Z" style="opacity: 1; stroke-width: 0px; fill: rgb(217, 30, 30); fill-opacity: 1;"/></g><g class="text"/></g><g class="trace scatter trace88394a" style="stroke-miterlimit: 2; opacity: 1;"><g class="fills"/><g class="errorbars"/><g class="lines"><path class="js-line" d="M48.32,109.5L81.24,110.39L87.23,110.78L109.18,113.07L114.18,113.82L132.15,117.53L136.14,118.64L146.94,122.39L150.14,123.78L158.54,128.39L160.94,130.07L166.96,135.53L168.56,137.49L172.19,143.81L173,146.06L174.24,153.24L174.28,155.76L175.25,165.23L175.74,167.42L178.7,175.46L179.68,177.29L184.63,183.9L186.12,185.38L193.06,190.56L195.04,191.68L203.97,195.43L206.45,196.19L217.37,198.52L220.35,198.92L233.26,199.82L236.74,199.87L377.45,199.21L380.51,198.87L391.78,196.79L394.34,196.09L403.61,192.58L405.68,191.52L412.96,186.59L414.53,185.17L418.65,180.5L419.82,178.81L422.75,173.28L423.52,171.3L425.63,162.64L425.9,160.3L427.27,143.5L427.79,141.33L430.86,133.37L431.88,131.56L435.52,126.56L436.94,125.03L443.59,119.64L445.51,118.48L454.15,114.52L456.56,113.71L467.2,111.18L470.1,110.72L482.73,109.62L486.14,109.52L620.77,109.5L624.51,109.5L804,109.5" style="vector-effect: none; fill: none; stroke: rgb(0, 0, 0); stroke-opacity: 1; stroke-width: 2px; opacity: 1;"/></g><g class="points"/><g class="text"/></g><g class="trace scatter trace6b223b" style="stroke-miterlimit: 2; opacity: 1;"><g class="fills"/><g class="errorbars"/><g class="lines"><path class="js-line" d="M48.32,154.68L93.77,155.53L96.29,155.62L131.48,157.64L133.94,157.91L150.7,160.64L153.03,161.15L168.88,165.61L171.08,166.38L186.02,172.57L188.09,173.57L208.93,183.51L211.09,184.38L226.62,189.82L228.9,190.5L245.27,194.61L247.67,195.1L267.31,198.21L269.79,198.52L292.18,200.44L294.67,200.57L319.7,200.86L322.21,200.79L342.18,199.49L344.59,199.18L358.46,196.47L360.68,195.88L373.39,191.49L375.41,190.62L386.96,184.56L388.79,183.41L399.19,175.71L400.87,174.36L423.62,154.95L425.19,153.53L454.73,126.89L456.46,125.72L465.62,120.48L467.56,119.56L477.74,115.57L479.88,114.89L493.44,111.72L495.81,111.33L513.18,109.59L515.69,109.41L545.86,108.06L548.37,108.01L578.62,108.32L581.15,108.41L639.23,109.57L641.76,109.58L730.21,109.47" style="vector-effect: none; fill: none; stroke: rgb(100, 143, 255); stroke-opacity: 1; stroke-width: 2px; opacity: 1;"/></g><g class="points"/><g class="text"/></g><g class="trace scatter traced212de" style="stroke-miterlimit: 2; opacity: 1;"><g class="fills"/><g class="errorbars"/><g class="lines"/><g class="points"><path class="point" transform="translate(48.32,154.68)" d="M-3.2500000000000004,-7.51L-3.2499999999999996,7.51L6.5,-3.9801020972288977e-16Z" style="opacity: 1; stroke-width: 0px; fill: rgb(12, 51, 131); fill-opacity: 1;"/><path class="point" transform="translate(138.52,158.49)" d="M-1.7455141232748375,-7.994734545027001L-4.633224944050415,6.745059422853814L6.378739067325252,1.249675122173186Z" style="opacity: 1; stroke-width: 0px; fill: rgb(11, 94, 159); fill-opacity: 1;"/><path class="point" transform="translate(217.13,186.67)" d="M0.46013559225116474,-8.170120882627359L-6.27090289368732,5.257221404691264L5.810767301436155,2.9128994779360955Z" style="opacity: 1; stroke-width: 0px; fill: rgb(10, 136, 186); fill-opacity: 1;"/><path class="point" transform="translate(303.77,200.88)" d="M-3.025986254136243,-7.603026186314138L-3.471158165338999,7.410375226073264L6.497144419475242,0.1926509602408733Z" style="opacity: 1; stroke-width: 0px; fill: rgb(126, 174, 121); fill-opacity: 1;"/><path class="point" transform="translate(386.07,185.1)" d="M-7.307398318605166,-3.6830055407569504L2.3172291054535763,7.848123933325647L4.99016921315159,-4.165118392568696Z" style="opacity: 1; stroke-width: 0px; fill: rgb(242, 211, 56); fill-opacity: 1;"/><path class="point" transform="translate(444.16,135.66)" d="M-7.983527034549107,-1.79607797398207L4.1556058531017825,7.049364509916209L3.827921181447325,-5.25328653593414Z" style="opacity: 1; stroke-width: 0px; fill: rgb(242, 177, 56); fill-opacity: 1;"/><path class="point" transform="translate(518.91,109.19)" d="M-3.913928801889468,-7.186359393583102L-2.5595934289927573,7.7724565922401325L6.473522230882225,-0.5860971986570318Z" style="opacity: 1; stroke-width: 0px; fill: rgb(242, 143, 56); fill-opacity: 1;"/><path class="point" transform="translate(609.32,109.19)" d="M-3.034374584662732,-7.599682288092896L-3.462978475019164,7.414201243664347L6.497353059681896,0.18548104442854924Z" style="opacity: 1; stroke-width: 0px; fill: rgb(230, 87, 43); fill-opacity: 1;"/><path class="point" transform="translate(699.99,109.49)" d="M-3.2623386724842236,-7.504648318609865L-3.2376525484237133,7.51533139493432L6.499991220907937,-0.010683076324455176Z" style="opacity: 1; stroke-width: 0px; fill: rgb(217, 30, 30); fill-opacity: 1;"/></g><g class="text"/></g><g class="trace scatter trace9bd2eb" style="stroke-miterlimit: 2; opacity: 1;"><g class="fills"/><g class="errorbars"/><g class="lines"><path class="js-line" d="M48.32,109.5L81.24,110.39L87.23,110.78L109.18,113.07L114.18,113.82L132.15,117.53L136.14,118.64L146.94,122.39L150.14,123.78L158.54,128.39L160.94,130.07L166.96,135.53L168.56,137.49L172.19,143.81L173,146.06L174.24,153.24L174.28,155.76L175.25,165.23L175.74,167.42L178.7,175.46L179.68,177.29L184.63,183.9L186.12,185.38L193.06,190.56L195.04,191.68L203.97,195.43L206.45,196.19L217.37,198.52L220.35,198.92L233.26,199.82L236.74,199.87L377.45,199.21L380.51,198.87L391.78,196.79L394.34,196.09L403.61,192.58L405.68,191.52L412.96,186.59L414.53,185.17L418.65,180.5L419.82,178.81L422.75,173.28L423.52,171.3L425.63,162.64L425.9,160.3L427.27,143.5L427.79,141.33L430.86,133.37L431.88,131.56L435.52,126.56L436.94,125.03L443.59,119.64L445.51,118.48L454.15,114.52L456.56,113.71L467.2,111.18L470.1,110.72L482.73,109.62L486.14,109.52L620.77,109.5L624.51,109.5L804,109.5" style="vector-effect: none; fill: none; stroke: rgb(0, 0, 0); stroke-opacity: 1; stroke-width: 2px; opacity: 1;"/></g><g class="points"/><g class="text"/></g><g class="trace scatter tracec841e1" style="stroke-miterlimit: 2; opacity: 1;"><g class="fills"/><g class="errorbars"/><g class="lines"><path class="js-line" d="M48.32,177.28L91.23,176.44L93.75,176.34L143.85,174.32L146.3,174.42L163.25,175.97L165.64,176.32L182.17,179.63L184.5,180.23L205.28,186.59L207.6,187.27L228.86,192.57L231.26,193.06L253.17,196.71L255.64,197.03L280.66,199.27L283.17,199.43L313.35,200.51L315.87,200.53L346.09,199.93L348.54,199.74L360.24,198.11L362.47,197.64L373.05,194.58L375.05,193.83L384.5,189.36L386.28,188.32L394.61,182.44L396.16,181.12L404.83,172.37L406.25,170.87L429.86,147.35L431.39,145.91L450.3,128.99L451.99,127.72L460.89,121.98L462.76,120.96L472.6,116.51L474.66,115.74L487.68,112.07L489.96,111.61L504.28,109.75L506.78,109.58L547.13,108.35L549.65,108.33L592.58,108.89L595.1,108.95L663.32,109.55L665.85,109.55L734.09,109.48" style="vector-effect: none; fill: none; stroke: rgb(100, 143, 255); stroke-opacity: 1; stroke-width: 2px; opacity: 1;"/></g><g class="points"/><g class="text"/></g><g class="trace scatter trace1d78b9" style="stroke-miterlimit: 2; opacity: 1;"><g class="fills"/><g class="errorbars"/><g class="lines"/><g class="points"><path class="point" transform="translate(48.32,177.28)" d="M-3.2500000000000004,-7.51L-3.2499999999999996,7.51L6.5,-3.9801020972288977e-16Z" style="opacity: 1; stroke-width: 0px; fill: rgb(12, 51, 131); fill-opacity: 1;"/><path class="point" transform="translate(138.63,174.22)" d="M-3.1877852801928017,-7.536618937387381L-3.3119924684704514,7.482867491062166L6.499777748663253,0.0537514463252146Z" style="opacity: 1; stroke-width: 0px; fill: rgb(11, 94, 159); fill-opacity: 1;"/><path class="point" transform="translate(223.51,191.39)" d="M-0.8036519194246847,-8.143509292215796L-5.386408694968432,6.1602923121202995L6.190060614393118,1.9832169800954969Z" style="opacity: 1; stroke-width: 0px; fill: rgb(10, 136, 186); fill-opacity: 1;"/><path class="point" transform="translate(312.44,200.5)" d="M-3.123592644339508,-7.5634495431798925L-3.3754931746400207,7.454437995446648L6.499085818979529,0.10901154773324465Z" style="opacity: 1; stroke-width: 0px; fill: rgb(126, 174, 121); fill-opacity: 1;"/><path class="point" transform="translate(392.24,184.3)" d="M-7.679016016051865,-2.8275984554421707L3.1951932262930254,7.533481283354407L4.483822789758839,-4.705882827912236Z" style="opacity: 1; stroke-width: 0px; fill: rgb(242, 211, 56); fill-opacity: 1;"/><path class="point" transform="translate(446.06,132.51)" d="M-7.881748248694054,-2.2001464824434342L3.7913741847518216,7.25176404685077L4.090374063942233,-5.051617564407336Z" style="opacity: 1; stroke-width: 0px; fill: rgb(242, 177, 56); fill-opacity: 1;"/><path class="point" transform="translate(522.61,108.9)" d="M-3.6111929251842696,-7.343152297011078L-2.881124128262184,7.659094186491342L6.492317053446453,-0.31594188948026364Z" style="opacity: 1; stroke-width: 0px; fill: rgb(242, 143, 56); fill-opacity: 1;"/><path class="point" transform="translate(613.19,109.28)" d="M-3.0924137841172232,-7.576250853014424L-3.406167910431308,7.440471770388489L6.498581694548531,0.1357790826259356Z" style="opacity: 1; stroke-width: 0px; fill: rgb(230, 87, 43); fill-opacity: 1;"/><path class="point" transform="translate(703.86,109.49)" d="M-3.259304280069177,-7.505966667253642L-3.240690728763334,7.514021799310099L6.499995008832511,-0.008055132056456636Z" style="opacity: 1; stroke-width: 0px; fill: rgb(217, 30, 30); fill-opacity: 1;"/></g><g class="text"/></g><g class="trace scatter tracea677b5" style="stroke-miterlimit: 2; opacity: 1;"><g class="fills"/><g class="errorbars"/><g class="lines"><path class="js-line" d="M48.32,109.5L81.24,110.39L87.23,110.78L109.18,113.07L114.18,113.82L132.15,117.53L136.14,118.64L146.94,122.39L150.14,123.78L158.54,128.39L160.94,130.07L166.96,135.53L168.56,137.49L172.19,143.81L173,146.06L174.24,153.24L174.28,155.76L175.25,165.23L175.74,167.42L178.7,175.46L179.68,177.29L184.63,183.9L186.12,185.38L193.06,190.56L195.04,191.68L203.97,195.43L206.45,196.19L217.37,198.52L220.35,198.92L233.26,199.82L236.74,199.87L377.45,199.21L380.51,198.87L391.78,196.79L394.34,196.09L403.61,192.58L405.68,191.52L412.96,186.59L414.53,185.17L418.65,180.5L419.82,178.81L422.75,173.28L423.52,171.3L425.63,162.64L425.9,160.3L427.27,143.5L427.79,141.33L430.86,133.37L431.88,131.56L435.52,126.56L436.94,125.03L443.59,119.64L445.51,118.48L454.15,114.52L456.56,113.71L467.2,111.18L470.1,110.72L482.73,109.62L486.14,109.52L620.77,109.5L624.51,109.5L804,109.5" style="vector-effect: none; fill: none; stroke: rgb(0, 0, 0); stroke-opacity: 1; stroke-width: 2px; opacity: 1;"/></g><g class="points"/><g class="text"/></g><g class="trace scatter trace92541a" style="stroke-miterlimit: 2; opacity: 1;"><g class="fills"/><g class="errorbars"/><g class="lines"><path class="js-line" d="M48.32,199.87L75.99,199.02L78.49,198.86L103.37,196.48L105.85,196.17L150.21,190.54L152.68,190.42L172.45,190.37L174.92,190.47L194.74,192.26L197.22,192.6L229.6,196.36L232.1,196.59L264.74,198.8L267.26,198.91L310.18,199.93L312.7,199.95L353,199.48L355.4,199.29L366.77,197.55L368.92,197.05L379.01,193.77L380.9,192.96L389.71,188.15L391.34,187.03L398.87,180.69L400.25,179.26L430.35,145.99L431.86,144.55L447.69,130.46L449.36,129.13L458.16,123.11L460.01,122.04L469.71,117.31L471.73,116.5L482.31,113.06L484.52,112.5L498.37,110.06L500.78,109.81L518.28,108.96L520.81,108.89L561.21,108.43L563.73,108.45L725.45,109.48L727.98,109.48L735.56,109.48" style="vector-effect: none; fill: none; stroke: rgb(100, 143, 255); stroke-opacity: 1; stroke-width: 2px; opacity: 1;"/></g><g class="points"/><g class="text"/></g><g class="trace scatter trace956f2b" style="stroke-miterlimit: 2; opacity: 1;"><g class="fills"/><g class="errorbars"/><g class="lines"/><g class="points"><path class="point" transform="translate(48.32,199.87)" d="M-3.2500000000000004,-7.51L-3.2499999999999996,7.51L6.5,-3.9801020972288977e-16Z" style="opacity: 1; stroke-width: 0px; fill: rgb(12, 51, 131); fill-opacity: 1;"/><path class="point" transform="translate(137.59,191.57)" d="M-4.329692960114939,-6.943800031044322L-2.098169194249687,7.9095060548874745L6.427862154364626,-0.9657060238431517Z" style="opacity: 1; stroke-width: 0px; fill: rgb(11, 94, 159); fill-opacity: 1;"/><path class="point" transform="translate(226.5,196.07)" d="M-2.205983915233616,-7.880116430975534L-4.234466332925518,7.0022778347706485L6.4404502481591335,0.8778385962048845Z" style="opacity: 1; stroke-width: 0px; fill: rgb(10, 136, 186); fill-opacity: 1;"/><path class="point" transform="translate(316.84,199.97)" d="M-3.2143392430674096,-7.52533210100902L-3.285587626865275,7.494498912281582L6.499926869932684,0.030833188727438298Z" style="opacity: 1; stroke-width: 0px; fill: rgb(126, 174, 121); fill-opacity: 1;"/><path class="point" transform="translate(395.27,183.99)" d="M-7.827063539636043,-2.387399494533767L3.6174357235046912,7.340078935972834L4.209627816131352,-4.9526794414390665Z" style="opacity: 1; stroke-width: 0px; fill: rgb(242, 211, 56); fill-opacity: 1;"/><path class="point" transform="translate(446.7,131.28)" d="M-7.823438079542083,-2.399253345432881L3.6063126768899667,7.345550277310933L4.217125402652116,-4.946296931878051Z" style="opacity: 1; stroke-width: 0px; fill: rgb(242, 177, 56); fill-opacity: 1;"/><path class="point" transform="translate(524.04,108.8)" d="M-3.506805048545538,-7.393572773125015L-2.9893362537728025,7.6175106670013655L6.496141302318341,-0.22393789387635013Z" style="opacity: 1; stroke-width: 0px; fill: rgb(242, 143, 56); fill-opacity: 1;"/><path class="point" transform="translate(614.66,109.31)" d="M-3.1121683085566745,-7.568157531342453L-3.3867454942338617,7.449332517567371L6.498913802790536,0.11882501377508116Z" style="opacity: 1; stroke-width: 0px; fill: rgb(230, 87, 43); fill-opacity: 1;"/><path class="point" transform="translate(705.33,109.49)" d="M-3.2582340015841496,-7.506431321934607L-3.241762089722087,7.513559645976112L6.499996091306237,-0.0071283240415052265Z" style="opacity: 1; stroke-width: 0px; fill: rgb(217, 30, 30); fill-opacity: 1;"/></g><g class="text"/></g></g></g></g><path class="xlines-above crisp" d="M0,0" style="fill: none;"/><path class="ylines-above crisp" d="M0,0" style="fill: none;"/><g class="overlines-above"/><g class="xaxislayer-above"><g class="xtick"><text text-anchor="middle" x="0" y="333" transform="translate(128.32,0)" style="font-family: 'Open Sans', verdana, arial, sans-serif; font-size: 12px; fill: rgb(42, 63, 95); fill-opacity: 1; white-space: pre; opacity: 1;">−1500</text></g><g class="xtick"><text text-anchor="middle" x="0" y="333" style="font-family: 'Open Sans', verdana, arial, sans-serif; font-size: 12px; fill: rgb(42, 63, 95); fill-opacity: 1; white-space: pre; opacity: 1;" transform="translate(254.27,0)">−1000</text></g><g class="xtick"><text text-anchor="middle" x="0" y="333" style="font-family: 'Open Sans', verdana, arial, sans-serif; font-size: 12px; fill: rgb(42, 63, 95); fill-opacity: 1; white-space: pre; opacity: 1;" transform="translate(380.22,0)">−500</text></g><g class="xtick"><text text-anchor="middle" x="0" y="333" style="font-family: 'Open Sans', verdana, arial, sans-serif; font-size: 12px; fill: rgb(42, 63, 95); fill-opacity: 1; white-space: pre; opacity: 1;" transform="translate(506.16,0)">0</text></g><g class="xtick"><text text-anchor="middle" x="0" y="333" style="font-family: 'Open Sans', verdana, arial, sans-serif; font-size: 12px; fill: rgb(42, 63, 95); fill-opacity: 1; white-space: pre; opacity: 1;" transform="translate(632.11,0)">500</text></g><g class="xtick"><text text-anchor="middle" x="0" y="333" style="font-family: 'Open Sans', verdana, arial, sans-serif; font-size: 12px; fill: rgb(42, 63, 95); fill-opacity: 1; white-space: pre; opacity: 1;" transform="translate(758.05,0)">1000</text></g><g class="xtick"><text text-anchor="middle" x="0" y="333" style="font-family: 'Open Sans', verdana, arial, sans-serif; font-size: 12px; fill: rgb(42, 63, 95); fill-opacity: 1; white-space: pre; opacity: 1;" transform="translate(884,0)">1500</text></g></g><g class="yaxislayer-above"><g class="ytick"><text text-anchor="end" x="79" y="4.199999999999999" transform="translate(0,317.94)" style="font-family: 'Open Sans', verdana, arial, sans-serif; font-size: 12px; fill: rgb(42, 63, 95); fill-opacity: 1; white-space: pre; opacity: 1;">−600</text></g><g class="ytick"><text text-anchor="end" x="79" y="4.199999999999999" style="font-family: 'Open Sans', verdana, arial, sans-serif; font-size: 12px; fill: rgb(42, 63, 95); fill-opacity: 1; white-space: pre; opacity: 1;" transform="translate(0,281.78999999999996)">−400</text></g><g class="ytick"><text text-anchor="end" x="79" y="4.199999999999999" style="font-family: 'Open Sans', verdana, arial, sans-serif; font-size: 12px; fill: rgb(42, 63, 95); fill-opacity: 1; white-space: pre; opacity: 1;" transform="translate(0,245.65)">−200</text></g><g class="ytick"><text text-anchor="end" x="79" y="4.199999999999999" style="font-family: 'Open Sans', verdana, arial, sans-serif; font-size: 12px; fill: rgb(42, 63, 95); fill-opacity: 1; white-space: pre; opacity: 1;" transform="translate(0,209.5)">0</text></g><g class="ytick"><text text-anchor="end" x="79" y="4.199999999999999" style="font-family: 'Open Sans', verdana, arial, sans-serif; font-size: 12px; fill: rgb(42, 63, 95); fill-opacity: 1; white-space: pre; opacity: 1;" transform="translate(0,173.35)">200</text></g><g class="ytick"><text text-anchor="end" x="79" y="4.199999999999999" style="font-family: 'Open Sans', verdana, arial, sans-serif; font-size: 12px; fill: rgb(42, 63, 95); fill-opacity: 1; white-space: pre; opacity: 1;" transform="translate(0,137.2)">400</text></g><g class="ytick"><text text-anchor="end" x="79" y="4.199999999999999" style="font-family: 'Open Sans', verdana, arial, sans-serif; font-size: 12px; fill: rgb(42, 63, 95); fill-opacity: 1; white-space: pre; opacity: 1;" transform="translate(0,101.05)">600</text></g></g><g class="overaxes-above"/></g></g><g class="polarlayer"/><g class="smithlayer"/><g class="ternarylayer"/><g class="geolayer"/><g class="funnelarealayer"/><g class="pielayer"/><g class="iciclelayer"/><g class="treemaplayer"/><g class="sunburstlayer"/><g class="glimages"/><defs id="topdefs-4c575c"><g class="clips"/><clipPath id="legend4c575c"><rect width="88" height="48" x="0" y="0"/></clipPath></defs><g class="layer-above"><g class="imagelayer"/><g class="shapelayer"/></g><g class="infolayer"><g class="legend" pointer-events="all" transform="translate(900.08,100)"><rect class="bg" shape-rendering="crispEdges" style="stroke: rgb(68, 68, 68); stroke-opacity: 1; fill: rgb(255, 255, 255); fill-opacity: 1; stroke-width: 0px;" width="88" height="48" x="0" y="0"/><g class="scrollbox" transform="" clip-path="url(#legend4c575c)"><g class="groups"><g class="traces" transform="translate(0,14.5)" style="opacity: 1;"><text class="legendtext" text-anchor="start" x="40" y="4.680000000000001" style="font-family: 'Open Sans', verdana, arial, sans-serif; font-size: 12px; fill: rgb(42, 63, 95); fill-opacity: 1; white-space: pre;">OS Ref</text><g class="layers" style="opacity: 1;"><g class="legendfill"/><g class="legendlines"><path class="js-line" d="M5,0h30" style="fill: none; stroke: rgb(0, 0, 0); stroke-opacity: 1; stroke-width: 2px;"/></g><g class="legendsymbols"><g class="legendpoints"/></g></g><rect class="legendtoggle" x="0" y="-9.5" width="82.359375" height="19" style="fill: rgb(0, 0, 0); fill-opacity: 0;"/></g><g class="traces" transform="translate(0,33.5)" style="opacity: 1;"><text class="legendtext" text-anchor="start" x="40" y="4.680000000000001" style="font-family: 'Open Sans', verdana, arial, sans-serif; font-size: 12px; fill: rgb(42, 63, 95); fill-opacity: 1; white-space: pre;">OS Pos</text><g class="layers" style="opacity: 1;"><g class="legendfill"/><g class="legendlines"><path class="js-line" d="M5,0h30" style="fill: none; stroke: rgb(100, 143, 255); stroke-opacity: 1; stroke-width: 2px;"/></g><g class="legendsymbols"><g class="legendpoints"/></g></g><rect class="legendtoggle" x="0" y="-9.5" width="82.359375" height="19" style="fill: rgb(0, 0, 0); fill-opacity: 0;"/></g></g></g><rect class="scrollbar" rx="20" ry="3" width="0" height="0" style="fill: rgb(128, 139, 164); fill-opacity: 1;" x="0" y="0"/></g><g class="g-gtitle"><text class="gtitle" x="50" y="50" text-anchor="start" dy="0em" style="opacity: 1; font-family: 'Open Sans', verdana, arial, sans-serif; font-size: 17px; fill: rgb(42, 63, 95); fill-opacity: 1; white-space: pre;">Reference Following Scenario (double_integrator)</text></g><g class="g-xtitle"><text class="xtitle" x="482" y="360.3" text-anchor="middle" style="opacity: 1; font-family: 'Open Sans', verdana, arial, sans-serif; font-size: 14px; fill: rgb(42, 63, 95); fill-opacity: 1; white-space: pre;">East [m]</text></g><g class="g-ytitle"><text class="ytitle" transform="rotate(-90,26.88125,210)" x="26.88125" y="210" text-anchor="middle" style="opacity: 1; font-family: 'Open Sans', verdana, arial, sans-serif; font-size: 14px; fill: rgb(42, 63, 95); fill-opacity: 1; white-space: pre;">North [m]</text></g></g></svg>