<svg class="main-svg" xmlns="http://www.w3.org/2000/svg" xmlns:xlink="http://www.w3.org/1999/xlink" width="1000" height="400" style="" viewBox="0 0 1000 400"><rect x="0" y="0" width="1000" height="400" style="fill: rgb(255, 255, 255); fill-opacity: 1;"/><defs id="defs-a64676"><g class="clips"><clipPath id="clipa64676xyplot" class="plotclip"><rect width="804" height="220"/></clipPath><clipPath class="axesclip" id="clipa64676x"><rect x="80" y="0" width="804" height="400"/></clipPath><clipPath class="axesclip" id="clipa64676y"><rect x="0" y="100" width="1000" height="220"/></clipPath><clipPath class="axesclip" id="clipa64676xy"><rect x="80" y="100" width="804" height="220"/></clipPath></g><g class="gradients"/><g class="patterns"/></defs><g class="bglayer"><rect class="bg" x="80" y="100" width="804" height="220" style="fill: rgb(229, 236, 246); fill-opacity: 1; stroke-width: 0;"/></g><g class="layer-below"><g class="imagelayer"/><g class="shapelayer"/></g><g class="cartesianlayer"><g class="subplot xy"><g class="layer-subplot"><g class="shapelayer"/><g class="imagelayer"/></g><g class="minor-gridlayer"><g class="x"/><g class="y"/></g><g class="gridlayer"><g class="x"><path class="xgrid crisp" transform="translate(128.32999999999998,0)" d="M0,100v220" style="stroke: rgb(255, 255, 255); stroke-opacity: 1; stroke-width: 1px;"/><path class="xgrid crisp" transform="translate(254.27,0)" d="M0,100v220" style="stroke: rgb(255, 255, 255); stroke-opacity: 1; stroke-width: 1px;"/><path class="xgrid crisp" transform="translate(380.22,0)" d="M0,100v220" style="stroke: rgb(255, 255, 255); stroke-opacity: 1; stroke-width: 1px;"/><path class="xgrid crisp" transform="translate(632.11,0)" d="M0,100v220" style="stroke: rgb(255, 255, 255); stroke-opacity: 1; stroke-width: 1px;"/><path class="xgrid crisp" transform="translate(758.05,0)" d="M0,100v220" style="stroke: rgb(255, 255, 255); stroke-opacity: 1; stroke-width: 1px;"/></g><g class="y"><path class="ygrid crisp" transform="translate(0,300.88)" d="M80,0h804" style="stroke: rgb(255, 255, 255); stroke-opacity: 1; stroke-width: 1px;"/><path class="ygrid crisp" transform="translate(0,197.32999999999998)" d="M80,0h804" style="stroke: rgb(255, 255, 255); stroke-opacity: 1; stroke-width: 1px;"/><path class="ygrid crisp" transform="translate(0,145.56)" d="M80,0h804" style="stroke: rgb(255, 255, 255); stroke-opacity: 1; stroke-width: 1px;"/></g></g><g class="zerolinelayer"><path class="xzl zl crisp" transform="translate(506.16,0)" d="M0,100v220" style="stroke: rgb(255, 255, 255); stroke-opacity: 1; stroke-width: 2px;"/><path class="yzl zl crisp" transform="translate(0,249.1)" d="M80,0h804" style="stroke: rgb(255, 255, 255); stroke-opacity: 1; stroke-width: 2px;"/></g><g class="layer-between"><g class="shapelayer"/><g class="imagelayer"/></g><path class="xlines-below"/><path class="ylines-below"/><g class="overlines-below"/><g class="xaxislayer-below"/><g class="yaxislayer-below"/><g class="overaxes-below"/><g class="overplot"><g class="xy" transform="translate(80,100)" clip-path="url(#clipa64676xyplot)"><g class="scatterlayer mlayer"><g class="trace scatter trace3d8a13" style="stroke-miterlimit: 2; opacity: 1;"><g class="fills"/><g class="errorbars"/><g class="lines"><path class="js-line" d="M48.33,149.1L374.74,148.5L377.45,148.16L387.54,146.06L389.88,145.35L398.51,141.74L400.49,140.65L407.65,135.54L409.26,134.07L414.96,127.46L416.21,125.62L420.45,117.5L421.33,115.29L424.11,105.67L424.62,103.07L425.93,91.95L426.08,88.98L426.9,71.12L427.27,68.37L429.46,58.15L430.19,55.79L433.85,47.07L434.95,45.08L440.07,37.86L441.53,36.25L448.11,30.53L449.94,29.29L457.98,25.09L460.18,24.22L469.68,21.52L472.24,21.03L483.21,19.83L486.14,19.71L561.97,19.68L565.01,19.68L804,19.68" style="vector-effect: none; fill: none; stroke: rgb(0, 0, 0); stroke-opacity: 1; stroke-width: 2px; opacity: 1;"/></g><g class="points"/><g class="text"/></g><g class="trace scatter trace00cf87" style="stroke-miterlimit: 2; opacity: 1;"><g class="fills"/><g class="errorbars"/><g class="lines"><path class="js-line" d="M48.33,97.33L72.83,98.09L77.57,98.42L100.52,100.99L104.95,101.68L126.35,106.06L130.47,107.11L150.31,113.3L154.13,114.72L172.41,122.72L175.92,124.5L196.13,134.15L199.37,135.54L218.07,142.52L221.05,143.46L235.45,147.21L238.22,147.77L251.53,149.61L254.09,149.79L266.34,149.78L268.75,149.7L303.43,149.28L305.98,149.31L359.83,149.98L362.17,149.78L375.46,147.8L377.55,147.35L389.33,143.84L391.17,143.13L401.45,138.1L403.03,137.13L410.19,131.5L411.46,130.21L417.04,122.95L418,121.34L422,112.47L422.64,110.53L425.06,100.04L425.39,97.78L426.24,85.66L426.26,83.09L427.11,70.98L427.44,68.72L429.86,58.22L430.5,56.28L434.5,47.4L435.45,45.78L441.03,38.51L442.3,37.22L447.91,32.59L449.44,31.57L459.49,26.29L461.29,25.54L472.85,21.8L474.9,21.31L487.96,19.11L490.27,18.87L504.84,18.2L507.4,18.22L600.91,19.92L603.49,19.91L729.87,19.68L734.09,19.68L803.63,19.65" style="vector-effect: none; fill: none; stroke: rgb(100, 143, 255); stroke-opacity: 1; stroke-width: 2px; opacity: 1;"/></g><g class="points"/><g class="text"/></g><g class="trace scatter traced9c2d5" style="stroke-miterlimit: 2; opacity: 1;"><g class="fills"/><g class="errorbars"/><g class="lines"/><g class="points"><path class="point" transform="translate(48.33,97.33)" d="M-3.2500000000000004,-7.51L-3.2499999999999996,7.51L6.5,-3.9801020972288977e-16Z" style="opacity: 1; stroke-width: 0px; fill: rgb(12, 51, 131); fill-opacity: 1;"/><path class="point" transform="translate(130.59,107.15)" d="M-1.266128072486333,-8.084523467964086L-5.0268320070198484,6.45705505421789L6.292960079506181,1.627468413746195Z" style="opacity: 1; stroke-width: 0px; fill: rgb(12, 72, 145); fill-opacity: 1;"/><path class="point" transform="translate(196.32,134.24)" d="M-0.07246183550365926,-8.18274704988462L-5.915530768056126,5.65412201249507L5.9879926035597855,2.5286250373895496Z" style="opacity: 1; stroke-width: 0px; fill: rgb(11, 94, 159); fill-opacity: 1;"/><path class="point" transform="translate(249.17,149.4)" d="M-2.486294993809023,-7.796213004001378L-3.981421605226004,7.149187506384176L6.467716599035027,0.6470254976172021Z" style="opacity: 1; stroke-width: 0px; fill: rgb(11, 115, 172); fill-opacity: 1;"/><path class="point" transform="translate(293.64,149.26)" d="M-3.270443256714181,-7.501119976684331L-3.229532632213858,7.51882430819246L6.499975888928039,-0.01770433150812921Z" style="opacity: 1; stroke-width: 0px; fill: rgb(10, 136, 186); fill-opacity: 1;"/><path class="point" transform="translate(340.2,150.29)" d="M-2.9627361542932764,-7.62789580946433L-3.5325841468665757,7.3812904864465905L6.495320301159852,0.2466053230177394Z" style="opacity: 1; stroke-width: 0px; fill: rgb(68, 155, 153); fill-opacity: 1;"/><path class="point" transform="translate(381.97,146.23)" d="M-5.0975462174303106,-6.401376614538621L-1.177133428848629,8.097960045016713L6.27467964627894,-1.6965834304780913Z" style="opacity: 1; stroke-width: 0px; fill: rgb(126, 174, 121); fill-opacity: 1;"/><path class="point" transform="translate(411.71,129.94)" d="M-7.671988590915856,-2.846610451195761L3.176523239238673,7.5413725614490525L4.495465351677183,-4.694762110253292Z" style="opacity: 1; stroke-width: 0px; fill: rgb(184, 192, 88); fill-opacity: 1;"/><path class="point" transform="translate(425.46,97.24)" d="M-7.864160120648923,2.262208124111289L7.032342165996387,4.1843474593237655L0.8318179546525363,-6.446555583435054Z" style="opacity: 1; stroke-width: 0px; fill: rgb(242, 211, 56); fill-opacity: 1;"/><path class="point" transform="translate(430.68,55.78)" d="M-8.17082451666791,0.4474670019326856L5.91933538370017,5.650138813805831L2.2514891329677393,-6.0976058157385165Z" style="opacity: 1; stroke-width: 0px; fill: rgb(242, 194, 56); fill-opacity: 1;"/><path class="point" transform="translate(451.49,30.32)" d="M-6.53513371316261,-4.92489871480475L0.8832678887508632,8.135258928682086L5.651865824411747,-3.2103602138773355Z" style="opacity: 1; stroke-width: 0px; fill: rgb(242, 177, 56); fill-opacity: 1;"/><path class="point" transform="translate(486.42,19.29)" d="M-4.132054133174119,-7.063195356247672L-2.320495870537407,7.847158652328806L6.452550003711526,-0.7839632960811338Z" style="opacity: 1; stroke-width: 0px; fill: rgb(242, 160, 56); fill-opacity: 1;"/><path class="point" transform="translate(531.91,19.13)" d="M-3.000549102871275,-7.613100884741932L-3.495914885785574,7.398728209046663L6.496463988656849,0.21437267569526916Z" style="opacity: 1; stroke-width: 0px; fill: rgb(242, 143, 56); fill-opacity: 1;"/><path class="point" transform="translate(577.31,19.99)" d="M-3.2259537759510453,-7.520360512330988L-3.274012950645637,7.499562600512422L6.499966726596682,0.020797911818565Z" style="opacity: 1; stroke-width: 0px; fill: rgb(236, 115, 49); fill-opacity: 1;"/><path class="point" transform="translate(623.77,19.83)" d="M-3.273056026667792,-7.499980283060325L-3.2269133007022157,7.519948839570062L6.499969327370008,-0.019968556509736748Z" style="opacity: 1; stroke-width: 0px; fill: rgb(230, 86, 43); fill-opacity: 1;"/><path class="point" transform="translate(681.33,19.72)" d="M-3.257233295467476,-7.5068656081548495L-3.2427636883537825,7.513127422152121L6.499996983821259,-0.006261813997270933Z" style="opacity: 1; stroke-width: 0px; fill: rgb(223, 58, 37); fill-opacity: 1;"/><path class="point" transform="translate(753.56,19.67)" d="M-3.253197532048398,-7.508615439445157L-3.2468018786829327,7.511383198890932L6.499999410731331,-0.0027677594457738383Z" style="opacity: 1; stroke-width: 0px; fill: rgb(217, 30, 30); fill-opacity: 1;"/></g><g class="text"/></g><g class="trace scatter trace5d9ce2" style="stroke-miterlimit: 2; opacity: 1;"><g class="fills"/><g class="errorbars"/><g class="lines"><path class="js-line" d="M48.33,149.1L374.74,148.5L377.45,148.16L387.54,146.06L389.88,145.35L398.51,141.74L400.49,140.65L407.65,135.54L409.26,134.07L414.96,127.46L416.21,125.62L420.45,117.5L421.33,115.29L424.11,105.67L424.62,103.07L425.93,91.95L426.08,88.98L426.9,71.12L427.27,68.37L429.46,58.15L430.19,55.79L433.85,47.07L434.95,45.08L440.07,37.86L441.53,36.25L448.11,30.53L449.94,29.29L457.98,25.09L460.18,24.22L469.68,21.52L472.24,21.03L483.21,19.83L486.14,19.71L561.97,19.68L565.01,19.68L804,19.68" style="vector-effect: none; fill: none; stroke: rgb(0, 0, 0); stroke-opacity: 1; stroke-width: 2px; opacity: 1;"/></g><g class="points"/><g class="text"/></g><g class="trace scatter trace9b5af6" style="stroke-miterlimit: 2; opacity: 1;"><g class="fills"/><g class="errorbars"/><g class="lines"><path class="js-line" d="M48.33,110.28L77.57,111.09L82.26,111.38L109.33,114.1L113.66,114.71L134.54,118.44L138.56,119.33L157.88,124.42L161.59,125.57L182.8,133.24L186.18,134.47L208.88,141.73L211.98,142.58L229.8,146.66L232.64,147.17L248.94,149.24L251.53,149.42L266.34,149.53L268.75,149.46L308.53,149.32L311.09,149.37L359.83,150.01L362.17,149.81L375.46,147.83L377.55,147.37L389.33,143.87L391.17,143.15L401.45,138.11L403.03,137.14L410.19,131.51L411.46,130.22L417.04,122.96L418,121.35L422,112.47L422.64,110.53L425.06,100.04L425.39,97.78L426.24,85.66L426.26,83.09L427.11,70.98L427.44,68.72L429.86,58.22L430.5,56.28L434.5,47.39L435.45,45.78L441.03,38.51L442.3,37.22L447.91,32.59L449.44,31.57L459.49,26.29L461.29,25.54L472.85,21.8L474.9,21.31L487.96,19.11L490.27,18.87L504.84,18.2L507.4,18.22L600.91,19.92L603.49,19.91L729.87,19.68L734.09,19.68L803.63,19.65" style="vector-effect: none; fill: none; stroke: rgb(100, 143, 255); stroke-opacity: 1; stroke-width: 2px; opacity: 1;"/></g><g class="points"/><g class="text"/></g><g class="trace scatter traceb2faad" style="stroke-miterlimit: 2; opacity: 1;"><g class="fills"/><g class="errorbars"/><g class="lines"/><g class="points"><path class="point" transform="translate(48.33,110.28)" d="M-3.2500000000000004,-7.51L-3.2499999999999996,7.51L6.5,-3.9801020972288977e-16Z" style="opacity: 1; stroke-width: 0px; fill: rgb(12, 51, 131); fill-opacity: 1;"/><path class="point" transform="translate(130.59,117.63)" d="M-1.7614461585178829,-7.991239417677497L-4.619771151930298,6.754281198158144L6.38121731044818,1.2369582195193538Z" style="opacity: 1; stroke-width: 0px; fill: rgb(12, 72, 145); fill-opacity: 1;"/><path class="point" transform="translate(196.33,137.93)" d="M-0.8345050223869492,-8.140405479311884L-5.363026317055276,6.180659246599227L6.197531339442225,1.959746232712658Z" style="opacity: 1; stroke-width: 0px; fill: rgb(11, 94, 159); fill-opacity: 1;"/><path class="point" transform="translate(249.18,149.26)" d="M-2.687936688562109,-7.729010050341619L-3.794402529946442,7.250179959196601L6.482339218508551,0.47883009114501734Z" style="opacity: 1; stroke-width: 0px; fill: rgb(11, 115, 172); fill-opacity: 1;"/><path class="point" transform="translate(293.66,149.18)" d="M-3.2351016266651347,-7.5164298350446L-3.2648855939774797,7.503540634809565L6.499987220642614,0.012889200235036008Z" style="opacity: 1; stroke-width: 0px; fill: rgb(10, 136, 186); fill-opacity: 1;"/><path class="point" transform="translate(340.22,150.33)" d="M-2.9637197007699863,-7.6275137191137095L-3.5316323446598767,7.381745930479603L6.495352045429863,0.24576778863410692Z" style="opacity: 1; stroke-width: 0px; fill: rgb(68, 155, 154); fill-opacity: 1;"/><path class="point" transform="translate(381.99,146.25)" d="M-5.100814504067409,-6.398772647554806L-1.172997940324116,8.098560108562223L6.273812444391525,-1.699787461007417Z" style="opacity: 1; stroke-width: 0px; fill: rgb(126, 174, 121); fill-opacity: 1;"/><path class="point" transform="translate(411.73,129.93)" d="M-7.674270235251876,-2.840453547644656L3.1825733977938055,7.538821298296916L4.49169683745807,-4.69836775065226Z" style="opacity: 1; stroke-width: 0px; fill: rgb(184, 192, 89); fill-opacity: 1;"/><path class="point" transform="translate(425.46,97.21)" d="M-7.863322430132392,2.265118177883176L7.033890142808131,4.181744786438622L0.8294322873242608,-6.446862964321798Z" style="opacity: 1; stroke-width: 0px; fill: rgb(242, 211, 56); fill-opacity: 1;"/><path class="point" transform="translate(430.69,55.75)" d="M-8.171060096323215,0.44314433571291323L5.916345467754401,5.653269523575004L2.254714628568814,-6.096413859287917Z" style="opacity: 1; stroke-width: 0px; fill: rgb(242, 194, 56); fill-opacity: 1;"/><path class="point" transform="translate(451.52,30.31)" d="M-6.532796135621686,-4.927999051380425L0.8794076462538354,8.135677119435744L5.65338848936785,-3.2076780680553187Z" style="opacity: 1; stroke-width: 0px; fill: rgb(242, 177, 56); fill-opacity: 1;"/><path class="point" transform="translate(486.46,19.28)" d="M-4.1296659465347085,-7.064591932308022L-2.323148733542854,7.846373682271207L6.452814680077562,-0.7817817499631862Z" style="opacity: 1; stroke-width: 0px; fill: rgb(242, 160, 56); fill-opacity: 1;"/><path class="point" transform="translate(531.97,19.13)" d="M-3.0007868408234324,-7.613007180867552L-3.495683839025387,7.398837374721566L6.496470679848819,0.2141698061459857Z" style="opacity: 1; stroke-width: 0px; fill: rgb(242, 143, 56); fill-opacity: 1;"/><path class="point" transform="translate(577.36,19.99)" d="M-3.2262510958725645,-7.520232966230572L-3.273716447903414,7.499692034925611L6.499967543775979,0.020540931304961395Z" style="opacity: 1; stroke-width: 0px; fill: rgb(236, 115, 50); fill-opacity: 1;"/><path class="point" transform="translate(623.84,19.83)" d="M-3.2730306470611987,-7.499991358888232L-3.226938747844269,7.519937919801017L6.4999693949054675,-0.019946560912785898Z" style="opacity: 1; stroke-width: 0px; fill: rgb(230, 87, 43); fill-opacity: 1;"/><path class="point" transform="translate(681.42,19.72)" d="M-3.2572248900505705,-7.506869255264478L-3.2427721007779486,7.513123791234653L6.499996990828519,-0.006254535970175922Z" style="opacity: 1; stroke-width: 0px; fill: rgb(223, 58, 37); fill-opacity: 1;"/><path class="point" transform="translate(753.68,19.67)" d="M-3.253192558315157,-7.508617594372674L-3.2468068542481214,7.5113810481966246L6.4999994125632785,-0.002763453823950135Z" style="opacity: 1; stroke-width: 0px; fill: rgb(217, 30, 30); fill-opacity: 1;"/></g><g class="text"/></g><g class="trace scatter trace513a04" style="stroke-miterlimit: 2; opacity: 1;"><g class="fills"/><g class="errorbars"/><g class="lines"><path class="js-line" d="M48.33,149.1L374.74,148.5L377.45,148.16L387.54,146.06L389.88,145.35L398.51,141.74L400.49,140.65L407.65,135.54L409.26,134.07L414.96,127.46L416.21,125.62L420.45,117.5L421.33,115.29L424.11,105.67L424.62,103.07L425.93,91.95L426.08,88.98L426.9,71.12L427.27,68.37L429.46,58.15L430.19,55.79L433.85,47.07L434.95,45.08L440.07,37.86L441.53,36.25L448.11,30.53L449.94,29.29L457.98,25.09L460.18,24.22L469.68,21.52L472.24,21.03L483.21,19.83L486.14,19.71L561.97,19.68L565.01,19.68L804,19.68" style="vector-effect: none; fill: none; stroke: rgb(0, 0, 0); stroke-opacity: 1; stroke-width: 2px; opacity: 1;"/></g><g class="points"/><g class="text"/></g><g class="trace scatter traced54f36" style="stroke-miterlimit: 2; opacity: 1;"><g class="fills"/><g class="errorbars"/><g class="lines"><path class="js-line" d="M48.33,123.22L82.26,123.96L86.9,124.18L117.94,126.61L122.17,127.07L150.31,131.19L154.12,131.89L175.91,136.77L179.37,137.66L208.88,144.15L211.98,144.71L235.45,148.06L238.22,148.34L256.6,149.36L259.08,149.38L321.41,149.64L324.01,149.72L357.45,150.2L359.83,150.04L373.34,148.28L375.46,147.86L387.46,144.56L389.33,143.89L399.83,139.06L401.45,138.13L408.86,132.75L410.19,131.52L416.03,124.52L417.04,122.96L420.55,116.18L421.3,114.35L424.25,104.4L424.68,102.24L426.06,90.67L426.18,88.19L427.11,70.98L427.44,68.71L429.86,58.21L430.5,56.28L434.5,47.39L435.45,45.78L441.03,38.51L442.3,37.22L447.91,32.59L449.44,31.57L459.49,26.29L461.29,25.54L472.85,21.8L474.9,21.31L487.96,19.11L490.27,18.87L504.84,18.2L507.4,18.22L600.91,19.92L603.49,19.91L729.87,19.68L734.09,19.68L803.63,19.65" style="vector-effect: none; fill: none; stroke: rgb(100, 143, 255); stroke-opacity: 1; stroke-width: 2px; opacity: 1;"/></g><g class="points"/><g class="text"/></g><g class="trace scatter traceaae429" style="stroke-miterlimit: 2; opacity: 1;"><g class="fills"/><g class="errorbars"/><g class="lines"/><g class="points"><path class="point" transform="translate(48.33,123.22)" d="M-3.2500000000000004,-7.51L-3.2499999999999996,7.51L6.5,-3.9801020972288977e-16Z" style="opacity: 1; stroke-width: 0px; fill: rgb(12, 51, 131); fill-opacity: 1;"/><path class="point" transform="translate(130.59,128.11)" d="M-2.262179430617366,-7.864168374576659L-4.1843731177716075,7.032326898777553L6.446552548388974,0.831841475799106Z" style="opacity: 1; stroke-width: 0px; fill: rgb(12, 72, 145); fill-opacity: 1;"/><path class="point" transform="translate(196.33,141.63)" d="M-1.635525950016644,-8.017958272953418L-4.725444484051369,6.680776483923744L6.360970434068013,1.3371817890296744Z" style="opacity: 1; stroke-width: 0px; fill: rgb(11, 94, 159); fill-opacity: 1;"/><path class="point" transform="translate(249.18,149.13)" d="M-2.8876479230651935,-7.656636955767022L-3.604935927778701,7.346226034952254L6.492583850843895,0.31041092081476696Z" style="opacity: 1; stroke-width: 0px; fill: rgb(11, 115, 172); fill-opacity: 1;"/><path class="point" transform="translate(293.66,149.11)" d="M-3.199829266755327,-7.531513305014873L-3.3000261039218475,7.4881524899960725L6.4998553706771744,0.04336081501880046Z" style="opacity: 1; stroke-width: 0px; fill: rgb(10, 136, 186); fill-opacity: 1;"/><path class="point" transform="translate(340.22,150.36)" d="M-2.963886422949975,-7.627448936037055L-3.5314709929428822,7.381823123456902L6.495357415892857,0.24562581258015284Z" style="opacity: 1; stroke-width: 0px; fill: rgb(68, 155, 154); fill-opacity: 1;"/><path class="point" transform="translate(381.99,146.27)" d="M-5.102735342882303,-6.397240969394527L-1.1705665008242212,8.098911906370395L6.273301843706524,-1.7016709369758676Z" style="opacity: 1; stroke-width: 0px; fill: rgb(126, 174, 121); fill-opacity: 1;"/><path class="point" transform="translate(411.73,129.94)" d="M-7.675176458920434,-2.838003933125108L3.1849794729880427,7.537805102060201L4.490196985932391,-4.699801168935093Z" style="opacity: 1; stroke-width: 0px; fill: rgb(184, 192, 89); fill-opacity: 1;"/><path class="point" transform="translate(425.46,97.21)" d="M-7.863268124835185,2.265306689380261L7.033990392264379,4.181576157566954L0.8292777325708056,-6.446882846947215Z" style="opacity: 1; stroke-width: 0px; fill: rgb(242, 211, 56); fill-opacity: 1;"/><path class="point" transform="translate(430.69,55.75)" d="M-8.171067721205521,0.44300371948012884L5.916248179490531,5.653371337412303L2.2548195417149888,-6.096375056892432Z" style="opacity: 1; stroke-width: 0px; fill: rgb(242, 194, 56); fill-opacity: 1;"/><path class="point" transform="translate(451.52,30.3)" d="M-6.5326055818159725,-4.9282516486505425L0.879093066699494,8.13571111704938L5.6535125151164785,-3.207459468398837Z" style="opacity: 1; stroke-width: 0px; fill: rgb(242, 177, 56); fill-opacity: 1;"/><path class="point" transform="translate(486.46,19.28)" d="M-4.129523129489135,-7.064675415262491L-2.3233073535939077,7.846326716415553L6.4528304830830425,-0.7816513011530613Z" style="opacity: 1; stroke-width: 0px; fill: rgb(242, 160, 56); fill-opacity: 1;"/><path class="point" transform="translate(531.97,19.13)" d="M-3.000788219870013,-7.613006637294451L-3.4956824987741655,7.398838007941788L6.496470718644178,0.21416862935266262Z" style="opacity: 1; stroke-width: 0px; fill: rgb(242, 143, 56); fill-opacity: 1;"/><path class="point" transform="translate(577.37,19.99)" d="M-3.2262627396054704,-7.520227970948315L-3.2737048359666785,7.49969710368148L6.499967575572149,0.02053086726683431Z" style="opacity: 1; stroke-width: 0px; fill: rgb(236, 115, 50); fill-opacity: 1;"/><path class="point" transform="translate(623.84,19.83)" d="M-3.2730310315036473,-7.499991191115771L-3.2269383623793697,7.519938085210831L6.499969393883017,-0.019946894095060154Z" style="opacity: 1; stroke-width: 0px; fill: rgb(230, 87, 43); fill-opacity: 1;"/><path class="point" transform="translate(681.42,19.72)" d="M-3.2572235233624784,-7.506869848269258L-3.2427734686046232,7.513123200860874L6.499996991967102,-0.006253352591614958Z" style="opacity: 1; stroke-width: 0px; fill: rgb(223, 58, 37); fill-opacity: 1;"/><path class="point" transform="translate(753.68,19.67)" d="M-3.2531923666442264,-7.508617677416246L-3.246807045989592,7.511380965316055L6.4999994126338185,-0.002763287899808382Z" style="opacity: 1; stroke-width: 0px; fill: rgb(217, 30, 30); fill-opacity: 1;"/></g><g class="text"/></g><g class="trace scatter tracea2fb98" style="stroke-miterlimit: 2; opacity: 1;"><g class="fills"/><g class="errorbars"/><g class="lines"><path class="js-line" d="M48.33,149.1L374.74,148.5L377.45,148.16L387.54,146.06L389.88,145.35L398.51,141.74L400.49,140.65L407.65,135.54L409.26,134.07L414.96,127.46L416.21,125.62L420.45,117.5L421.33,115.29L424.11,105.67L424.62,103.07L425.93,91.95L426.08,88.98L426.9,71.12L427.27,68.37L429.46,58.15L430.19,55.79L433.85,47.07L434.95,45.08L440.07,37.86L441.53,36.25L448.11,30.53L449.94,29.29L457.98,25.09L460.18,24.22L469.68,21.52L472.24,21.03L483.21,19.83L486.14,19.71L561.97,19.68L565.01,19.68L804,19.68" style="vector-effect: none; fill: none; stroke: rgb(0, 0, 0); stroke-opacity: 1; stroke-width: 2px; opacity: 1;"/></g><g class="points"/><g class="text"/></g><g class="trace scatter trace9becca" style="stroke-miterlimit: 2; opacity: 1;"><g class="fills"/><g class="errorbars"/><g class="lines"><path class="js-line" d="M48.33,136.16L96.03,136.91L100.52,137.07L138.56,139.16L142.53,139.47L175.91,142.91L179.37,143.35L218.06,147.35L221.05,147.58L251.53,149.04L254.09,149.07L331.88,150.03L334.51,150.14L355.04,150.36L357.45,150.23L371.18,148.69L373.34,148.3L385.55,145.23L387.46,144.59L398.17,139.97L399.83,139.08L407.48,133.95L408.86,132.76L413.85,127.49L414.96,126.04L418.9,119.69L419.75,117.96L423.23,108.54L423.77,106.5L425.67,95.46L425.89,93.09L427.82,66.51L428.25,64.35L431.2,54.39L431.94,52.56L436.46,44.22L437.53,42.71L443.62,35.98L445,34.8L452.65,29.66L454.3,28.76L465,24.15L466.9,23.51L479.11,20.43L481.27,20.04L494.98,18.5L497.39,18.37L512.62,18.36L515.27,18.48L566.54,19.91L569.02,19.94L640.39,19.78L643.47,19.78L803.63,19.65" style="vector-effect: none; fill: none; stroke: rgb(100, 143, 255); stroke-opacity: 1; stroke-width: 2px; opacity: 1;"/></g><g class="points"/><g class="text"/></g><g class="trace scatter tracea1ad78" style="stroke-miterlimit: 2; opacity: 1;"><g class="fills"/><g class="errorbars"/><g class="lines"/><g class="points"><path class="point" transform="translate(48.33,136.16)" d="M-3.2500000000000004,-7.51L-3.2499999999999996,7.51L6.5,-3.9801020972288977e-16Z" style="opacity: 1; stroke-width: 0px; fill: rgb(12, 51, 131); fill-opacity: 1;"/><path class="point" transform="translate(130.59,138.6)" d="M-2.761952469996172,-7.702870799480025L-3.724681621351634,7.286243670065212L6.486634091347806,0.41662712941481367Z" style="opacity: 1; stroke-width: 0px; fill: rgb(12, 72, 145); fill-opacity: 1;"/><path class="point" transform="translate(196.33,145.32)" d="M-2.454003242755402,-7.806437605242609L-4.010979750783168,7.13264617367267L6.46498299353857,0.6737914315699385Z" style="opacity: 1; stroke-width: 0px; fill: rgb(11, 94, 159); fill-opacity: 1;"/><path class="point" transform="translate(249.18,148.99)" d="M-3.0858738822807625,-7.578916966338756L-3.4125882066316677,7.4375292760404275L6.49846208891243,0.14138769029832798Z" style="opacity: 1; stroke-width: 0px; fill: rgb(11, 115, 172); fill-opacity: 1;"/><path class="point" transform="translate(293.66,149.03)" d="M-3.1644981448649556,-7.546426405335591L-3.335082640330498,7.472604885992979L6.4995807851954535,0.07382151934261151Z" style="opacity: 1; stroke-width: 0px; fill: rgb(10, 136, 186); fill-opacity: 1;"/><path class="point" transform="translate(340.22,150.39)" d="M-2.9639980643674924,-7.627405553294367L-3.531362946014838,7.381874812235263L6.4953610103823305,0.24553074105910438Z" style="opacity: 1; stroke-width: 0px; fill: rgb(68, 155, 154); fill-opacity: 1;"/><path class="point" transform="translate(381.99,146.3)" d="M-5.104561155313915,-6.395784190516459L-1.1682547100507426,8.099245701449258L6.272815865364658,-1.7034615109327977Z" style="opacity: 1; stroke-width: 0px; fill: rgb(126, 174, 121); fill-opacity: 1;"/><path class="point" transform="translate(411.73,129.95)" d="M-7.675985768933653,-2.83581425257862L3.187129719312689,7.536896188237822L4.4888560496209635,-4.701081935659203Z" style="opacity: 1; stroke-width: 0px; fill: rgb(184, 192, 89); fill-opacity: 1;"/><path class="point" transform="translate(425.46,97.21)" d="M-7.8632687907385845,2.2653043779140503L7.033989163058682,4.181578225260532L0.8292796276799023,-6.446882603174583Z" style="opacity: 1; stroke-width: 0px; fill: rgb(242, 211, 56); fill-opacity: 1;"/><path class="point" transform="translate(430.69,55.75)" d="M-8.171059755893907,0.44315061278420176L5.916349810637928,5.653264978591093L2.2547099452559785,-6.096415591375295Z" style="opacity: 1; stroke-width: 0px; fill: rgb(242, 194, 56); fill-opacity: 1;"/><path class="point" transform="translate(451.52,30.3)" d="M-6.532562007575576,-4.928309407614353L0.8790211333752205,8.135718889384007L5.653540874200356,-3.207409481769653Z" style="opacity: 1; stroke-width: 0px; fill: rgb(242, 177, 56); fill-opacity: 1;"/><path class="point" transform="translate(486.46,19.28)" d="M-4.129536167912054,-7.064667793881481L-2.3232928725592927,7.846331004253847L6.452829040471347,-0.7816632103723667Z" style="opacity: 1; stroke-width: 0px; fill: rgb(242, 160, 56); fill-opacity: 1;"/><path class="point" transform="translate(531.97,19.13)" d="M-3.000775033807983,-7.613011834778315L-3.4956953138771,7.3988319532570594L6.496470347685083,0.21417988152125578Z" style="opacity: 1; stroke-width: 0px; fill: rgb(242, 143, 56); fill-opacity: 1;"/><path class="point" transform="translate(577.36,19.99)" d="M-3.2262557084039463,-7.520230987409293L-3.2737118479695813,7.4996940428569205L6.4999675563735275,0.020536944552372184Z" style="opacity: 1; stroke-width: 0px; fill: rgb(236, 115, 50); fill-opacity: 1;"/><path class="point" transform="translate(623.84,19.83)" d="M-3.273033508632954,-7.4999901100845365L-3.2269358786615627,7.519939151017561L6.499969387294517,-0.019949040933025325Z" style="opacity: 1; stroke-width: 0px; fill: rgb(230, 87, 43); fill-opacity: 1;"/><path class="point" transform="translate(681.42,19.72)" d="M-3.2572223714679738,-7.506870348075059L-3.2427746214585995,7.513122703272191L6.499996992926573,-0.006252355197132706Z" style="opacity: 1; stroke-width: 0px; fill: rgb(223, 58, 37); fill-opacity: 1;"/><path class="point" transform="translate(753.68,19.67)" d="M-3.2531923885049423,-7.508617667944846L-3.24680702412083,7.511380974768863L6.4999994126257725,-0.002763306824016427Z" style="opacity: 1; stroke-width: 0px; fill: rgb(217, 30, 30); fill-opacity: 1;"/></g><g class="text"/></g><g class="trace scatter tracefe6dd6" style="stroke-miterlimit: 2; opacity: 1;"><g class="fills"/><g class="errorbars"/><g class="lines"><path class="js-line" d="M48.33,149.1L374.74,148.5L377.45,148.16L387.54,146.06L389.88,145.35L398.51,141.74L400.49,140.65L407.65,135.54L409.26,134.07L414.96,127.46L416.21,125.62L420.45,117.5L421.33,115.29L424.11,105.67L424.62,103.07L425.93,91.95L426.08,88.98L426.9,71.12L427.27,68.37L429.46,58.15L430.19,55.79L433.85,47.07L434.95,45.08L440.07,37.86L441.53,36.25L448.11,30.53L449.94,29.29L457.98,25.09L460.18,24.22L469.68,21.52L472.24,21.03L483.21,19.83L486.14,19.71L561.97,19.68L565.01,19.68L804,19.68" style="vector-effect: none; fill: none; stroke: rgb(0, 0, 0); stroke-opacity: 1; stroke-width: 2px; opacity: 1;"/></g><g class="points"/><g class="text"/></g><g class="trace scatter trace215aa9" style="stroke-miterlimit: 2; opacity: 1;"><g class="fills"/><g class="errorbars"/><g class="lines"><path class="js-line" d="M48.33,149.1L316.23,149.5L318.82,149.58L355.04,150.39L357.45,150.26L371.18,148.72L373.34,148.33L385.55,145.25L387.46,144.61L398.17,139.99L399.83,139.09L407.48,133.96L408.86,132.77L413.85,127.5L414.96,126.04L418.9,119.69L419.75,117.97L423.23,108.54L423.77,106.5L425.67,95.46L425.89,93.09L427.82,66.5L428.25,64.35L431.2,54.39L431.94,52.56L436.46,44.21L437.53,42.71L442.3,37.22L443.62,35.98L449.44,31.57L451.03,30.59L461.29,25.54L463.12,24.83L474.9,21.31L476.98,20.85L490.27,18.87L492.61,18.66L507.4,18.22L509.99,18.27L578.83,19.99L581.26,20L803.63,19.65" style="vector-effect: none; fill: none; stroke: rgb(100, 143, 255); stroke-opacity: 1; stroke-width: 2px; opacity: 1;"/></g><g class="points"/><g class="text"/></g><g class="trace scatter tracec554db" style="stroke-miterlimit: 2; opacity: 1;"><g class="fills"/><g class="errorbars"/><g class="lines"/><g class="points"><path class="point" transform="translate(48.33,149.1)" d="M-3.2500000000000004,-7.51L-3.2499999999999996,7.51L6.5,-3.9801020972288977e-16Z" style="opacity: 1; stroke-width: 0px; fill: rgb(12, 51, 131); fill-opacity: 1;"/><path class="point" transform="translate(130.59,149.08)" d="M-3.2543475556665973,-7.508117073336487L-3.245651354895081,7.511880409222962L6.499998910561678,-0.0037633358864749226Z" style="opacity: 1; stroke-width: 0px; fill: rgb(12, 72, 145); fill-opacity: 1;"/><path class="point" transform="translate(196.33,149.01)" d="M-3.2633211737682997,-7.504221139920883L-3.236668592774416,7.515755212920899L6.499989766542716,-0.011534073000016333Z" style="opacity: 1; stroke-width: 0px; fill: rgb(11, 94, 159); fill-opacity: 1;"/><path class="point" transform="translate(249.18,148.86)" d="M-3.282246051350474,-7.495962970719254L-3.2176939188782683,7.523898314332393L6.499939970228742,-0.027935343613138333Z" style="opacity: 1; stroke-width: 0px; fill: rgb(11, 115, 172); fill-opacity: 1;"/><path class="point" transform="translate(293.66,148.96)" d="M-3.1290966060039778,-7.561174143629703L-3.3700668318421934,7.456892754285603L6.499163437846171,0.10428138934410112Z" style="opacity: 1; stroke-width: 0px; fill: rgb(10, 136, 186); fill-opacity: 1;"/><path class="point" transform="translate(340.22,150.42)" d="M-2.964137283693508,-7.62735145141602L-3.5312282071759986,7.3819392674855155L6.495365490869506,0.24541218393050537Z" style="opacity: 1; stroke-width: 0px; fill: rgb(68, 155, 153); fill-opacity: 1;"/><path class="point" transform="translate(381.99,146.32)" d="M-5.106433441819687,-6.394289444830094L-1.1658834292071543,8.099587386373468L6.272316871026841,-1.7052979415433729Z" style="opacity: 1; stroke-width: 0px; fill: rgb(126, 174, 121); fill-opacity: 1;"/><path class="point" transform="translate(411.73,129.96)" d="M-7.676841736386272,-2.8334962421852303L3.189405454888361,7.535933442137635L4.487436281497911,-4.702437199952405Z" style="opacity: 1; stroke-width: 0px; fill: rgb(184, 192, 89); fill-opacity: 1;"/><path class="point" transform="translate(425.46,97.21)" d="M-7.863241939727634,2.265397580405787L7.034038726452795,4.181494851696263L0.8292032132748397,-6.44689243210205Z" style="opacity: 1; stroke-width: 0px; fill: rgb(242, 211, 56); fill-opacity: 1;"/><path class="point" transform="translate(430.69,55.75)" d="M-8.171059596416601,0.44315355330647943L5.9163518450801105,5.653262849471726L2.2547077513364915,-6.096416402778205Z" style="opacity: 1; stroke-width: 0px; fill: rgb(242, 194, 56); fill-opacity: 1;"/><path class="point" transform="translate(451.52,30.3)" d="M-6.532444831610536,-4.928464722605286L0.878827700529162,8.135739786447365L5.653617131081374,-3.2072750638420797Z" style="opacity: 1; stroke-width: 0px; fill: rgb(242, 177, 56); fill-opacity: 1;"/><path class="point" transform="translate(486.46,19.28)" d="M-4.12947117160396,-7.064705786010611L-2.323365060027453,7.84630962923613L6.452836231631413,-0.7816038432255192Z" style="opacity: 1; stroke-width: 0px; fill: rgb(242, 160, 56); fill-opacity: 1;"/><path class="point" transform="translate(531.97,19.13)" d="M-3.000769141392081,-7.613014157353777L-3.4957010405174076,7.398829247612457L6.496470181909489,0.21418490974131982Z" style="opacity: 1; stroke-width: 0px; fill: rgb(242, 143, 56); fill-opacity: 1;"/><path class="point" transform="translate(577.36,19.99)" d="M-3.2262580281426345,-7.520229992217339L-3.2737095345655423,7.4996950526867865L6.499967562708177,0.020534939530552517Z" style="opacity: 1; stroke-width: 0px; fill: rgb(236, 115, 50); fill-opacity: 1;"/><path class="point" transform="translate(623.84,19.83)" d="M-3.273034938204917,-7.499989486211961L-3.226934445286998,7.519939766103203L6.499969383491915,-0.01995027989124312Z" style="opacity: 1; stroke-width: 0px; fill: rgb(230, 87, 43); fill-opacity: 1;"/><path class="point" transform="translate(681.42,19.72)" d="M-3.2572211118409538,-7.506870894625641L-3.2427758821346515,7.51312215914568L6.499996993975605,-0.006251264520037736Z" style="opacity: 1; stroke-width: 0px; fill: rgb(223, 58, 37); fill-opacity: 1;"/><path class="point" transform="translate(753.68,19.67)" d="M-3.2531923033681465,-7.5086177048313125L-3.2468071092889583,7.5113809379547956L6.499999412657105,-0.0027632331234835267Z" style="opacity: 1; stroke-width: 0px; fill: rgb(217, 30, 30); fill-opacity: 1;"/></g><g class="text"/></g><g class="trace scatter trace543f58" style="stroke-miterlimit: 2; opacity: 1;"><g class="fills"/><g class="errorbars"/><g class="lines"><path class="js-line" d="M48.33,149.1L374.74,148.5L377.45,148.16L387.54,146.06L389.88,145.35L398.51,141.74L400.49,140.65L407.65,135.54L409.26,134.07L414.96,127.46L416.21,125.62L420.45,117.5L421.33,115.29L424.11,105.67L424.62,103.07L425.93,91.95L426.08,88.98L426.9,71.12L427.27,68.37L429.46,58.15L430.19,55.79L433.85,47.07L434.95,45.08L440.07,37.86L441.53,36.25L448.11,30.53L449.94,29.29L457.98,25.09L460.18,24.22L469.68,21.52L472.24,21.03L483.21,19.83L486.14,19.71L561.97,19.68L565.01,19.68L804,19.68" style="vector-effect: none; fill: none; stroke: rgb(0, 0, 0); stroke-opacity: 1; stroke-width: 2px; opacity: 1;"/></g><g class="points"/><g class="text"/></g><g class="trace scatter trace4ec1f9" style="stroke-miterlimit: 2; opacity: 1;"><g class="fills"/><g class="errorbars"/><g class="lines"><path class="js-line" d="M48.32,162.05L96.03,161.28L100.51,161.12L138.55,158.99L142.52,158.68L175.91,155.18L179.37,154.73L218.06,150.57L221.05,150.33L251.53,148.65L254.09,148.59L288.36,148.78L290.85,148.82L357.45,150.29L359.83,150.13L373.34,148.36L375.46,147.94L387.46,144.63L389.33,143.95L399.83,139.11L401.45,138.18L408.86,132.78L410.19,131.55L416.03,124.54L417.04,122.98L421.3,114.36L422,112.48L424.68,102.25L425.06,100.04L426.18,88.19L426.24,85.66L426.84,73.29L427.11,70.97L429.27,60.2L429.86,58.21L433.59,49.06L434.5,47.39L438.64,41.25L439.81,39.85L446.43,33.66L447.91,32.59L455.99,27.9L457.72,27.08L468.85,22.9L470.83,22.33L483.46,19.69L485.7,19.38L499.84,18.28L502.32,18.22L520.55,18.7L523.18,18.81L571.48,19.96L573.94,19.98L690.57,19.71L694.26,19.71L803.64,19.65" style="vector-effect: none; fill: none; stroke: rgb(100, 143, 255); stroke-opacity: 1; stroke-width: 2px; opacity: 1;"/></g><g class="points"/><g class="text"/></g><g class="trace scatter trace003324" style="stroke-miterlimit: 2; opacity: 1;"><g class="fills"/><g class="errorbars"/><g class="lines"/><g class="points"><path class="point" transform="translate(48.32,162.05)" d="M-3.2500000000000004,-7.51L-3.2499999999999996,7.51L6.5,-3.9801020972288977e-16Z" style="opacity: 1; stroke-width: 0px; fill: rgb(12, 51, 131); fill-opacity: 1;"/><path class="point" transform="translate(130.6,159.56)" d="M-3.7331510183411867,-7.28190795562936L-2.7529942644958716,7.706076990249502L6.486145282837058,-0.424169034620143Z" style="opacity: 1; stroke-width: 0px; fill: rgb(12, 72, 145); fill-opacity: 1;"/><path class="point" transform="translate(196.34,152.7)" d="M-4.035845971327678,-7.118605712898991L-2.426746341686773,7.814953755020555L6.462592313014451,-0.6963480421215631Z" style="opacity: 1; stroke-width: 0px; fill: rgb(11, 94, 159); fill-opacity: 1;"/><path class="point" transform="translate(249.2,148.72)" d="M-3.4761103507574695,-7.408053511507377L-3.0209038530515846,7.605047002525237L6.497014203809054,-0.19699349101785965Z" style="opacity: 1; stroke-width: 0px; fill: rgb(11, 115, 172); fill-opacity: 1;"/><path class="point" transform="translate(293.68,148.88)" d="M-3.0935513207412972,-7.575786442735815L-3.405050687735206,7.440983121466813L6.498602008476503,0.13480332126900182Z" style="opacity: 1; stroke-width: 0px; fill: rgb(10, 136, 186); fill-opacity: 1;"/><path class="point" transform="translate(340.24,150.45)" d="M-2.9652355290420735,-7.626924560876853L-3.5301652318336596,7.382447658869841L6.495400760875733,0.2444769020070112Z" style="opacity: 1; stroke-width: 0px; fill: rgb(68, 155, 154); fill-opacity: 1;"/><path class="point" transform="translate(382.01,146.34)" d="M-5.109885326640626,-6.391531267903084L-1.1615098457088988,8.100215730356894L6.271395172349525,-1.7086844624538102Z" style="opacity: 1; stroke-width: 0px; fill: rgb(126, 174, 121); fill-opacity: 1;"/><path class="point" transform="translate(411.74,129.95)" d="M-7.679290203854732,-2.8268537218930794L3.1959238173846445,7.53317137422703L4.483366386470087,-4.706317652333951Z" style="opacity: 1; stroke-width: 0px; fill: rgb(184, 192, 88); fill-opacity: 1;"/><path class="point" transform="translate(425.47,97.18)" d="M-7.8622985080671794,2.268669691701414L7.035778256725167,4.178567257110188L0.8265202513420128,-6.447236948811602Z" style="opacity: 1; stroke-width: 0px; fill: rgb(242, 211, 56); fill-opacity: 1;"/><path class="point" transform="translate(430.7,55.71)" d="M-8.171323510250984,0.43826030030056673L5.912965373098604,5.656804795689601L2.2583581371523787,-6.095065095990168Z" style="opacity: 1; stroke-width: 0px; fill: rgb(242, 194, 56); fill-opacity: 1;"/><path class="point" transform="translate(451.55,30.28)" d="M-6.529814082530435,-4.931949720707543L0.8744863606409901,8.136207568950836L5.655327721889445,-3.204257848243293Z" style="opacity: 1; stroke-width: 0px; fill: rgb(242, 177, 56); fill-opacity: 1;"/><path class="point" transform="translate(486.51,19.28)" d="M-4.126780432500051,-7.066277893059024L-2.326352988039771,7.845424257172994L6.453133420539822,-0.7791463641139693Z" style="opacity: 1; stroke-width: 0px; fill: rgb(242, 160, 56); fill-opacity: 1;"/><path class="point" transform="translate(532.03,19.13)" d="M-3.001037821308431,-7.612908248171414L-3.4954399156615814,7.398952614796216L6.496477736970013,0.21395563337519824Z" style="opacity: 1; stroke-width: 0px; fill: rgb(242, 143, 56); fill-opacity: 1;"/><path class="point" transform="translate(577.42,19.99)" d="M-3.22659306473684,-7.520086249145825L-3.2733754063891194,7.499840894902162L6.4999684711259595,0.020245354243662646Z" style="opacity: 1; stroke-width: 0px; fill: rgb(236, 115, 49); fill-opacity: 1;"/><path class="point" transform="translate(623.92,19.83)" d="M-3.2730057763823583,-7.500002212517521L-3.226963684632001,7.519927218934121L6.499969461014359,-0.01992500641659932Z" style="opacity: 1; stroke-width: 0px; fill: rgb(230, 86, 43); fill-opacity: 1;"/><path class="point" transform="translate(681.52,19.72)" d="M-3.25721128811099,-7.506875157121127L-3.24278571403965,7.513117915540815L6.49999700215064,-0.006242758419687782Z" style="opacity: 1; stroke-width: 0px; fill: rgb(223, 58, 37); fill-opacity: 1;"/><path class="point" transform="translate(753.82,19.67)" d="M-3.253187212759014,-7.5086199103924045L-3.2468122017699828,7.511378736719216L6.499999414528997,-0.0027588263268110585Z" style="opacity: 1; stroke-width: 0px; fill: rgb(217, 30, 30); fill-opacity: 1;"/></g><g class="text"/></g><g class="trace scatter tracecea1fe" style="stroke-miterlimit: 2; opacity: 1;"><g class="fills"/><g class="errorbars"/><g class="lines"><path class="js-line" d="M48.33,149.1L374.74,148.5L377.45,148.16L387.54,146.06L389.88,145.35L398.51,141.74L400.49,140.65L407.65,135.54L409.26,134.07L414.96,127.46L416.21,125.62L420.45,117.5L421.33,115.29L424.11,105.67L424.62,103.07L425.93,91.95L426.08,88.98L426.9,71.12L427.27,68.37L429.46,58.15L430.19,55.79L433.85,47.07L434.95,45.08L440.07,37.86L441.53,36.25L448.11,30.53L449.94,29.29L457.98,25.09L460.18,24.22L469.68,21.52L472.24,21.03L483.21,19.83L486.14,19.71L561.97,19.68L565.01,19.68L804,19.68" style="vector-effect: none; fill: none; stroke: rgb(0, 0, 0); stroke-opacity: 1; stroke-width: 2px; opacity: 1;"/></g><g class="points"/><g class="text"/></g><g class="trace scatter trace5a3a47" style="stroke-miterlimit: 2; opacity: 1;"><g class="fills"/><g class="errorbars"/><g class="lines"><path class="js-line" d="M48.33,174.99L82.26,174.24L86.9,174.02L117.94,171.57L122.17,171.1L146.44,167.63L150.31,166.95L172.41,162.21L175.91,161.31L202.58,155.07L205.75,154.43L229.8,150.44L232.64,150.09L251.53,148.46L254.09,148.35L276.04,148.42L278.49,148.46L339.81,150.46L342.44,150.55L357.45,150.32L359.83,150.15L373.34,148.38L375.46,147.96L387.46,144.65L389.33,143.97L399.83,139.13L401.45,138.19L408.86,132.79L410.19,131.55L416.03,124.55L417.04,122.99L421.3,114.37L422,112.48L424.68,102.25L425.06,100.04L426.18,88.19L426.24,85.66L426.84,73.29L427.11,70.97L429.27,60.2L429.86,58.21L433.59,49.06L434.5,47.39L438.64,41.25L439.81,39.85L446.43,33.66L447.91,32.59L455.99,27.9L457.72,27.08L468.85,22.9L470.83,22.33L483.46,19.69L485.7,19.38L499.84,18.28L502.32,18.22L520.55,18.7L523.18,18.81L571.48,19.96L573.94,19.98L690.57,19.71L694.26,19.71L803.63,19.65" style="vector-effect: none; fill: none; stroke: rgb(100, 143, 255); stroke-opacity: 1; stroke-width: 2px; opacity: 1;"/></g><g class="points"/><g class="text"/></g><g class="trace scatter trace8d45d5" style="stroke-miterlimit: 2; opacity: 1;"><g class="fills"/><g class="errorbars"/><g class="lines"/><g class="points"><path class="point" transform="translate(48.33,174.99)" d="M-3.2500000000000004,-7.51L-3.2499999999999996,7.51L6.5,-3.9801020972288977e-16Z" style="opacity: 1; stroke-width: 0px; fill: rgb(12, 51, 131); fill-opacity: 1;"/><path class="point" transform="translate(130.59,170.05)" d="M-4.192375098927437,-7.027559393551446L-2.25322641237971,7.866738252576759L6.445601511307147,-0.8391788590253144Z" style="opacity: 1; stroke-width: 0px; fill: rgb(12, 72, 145); fill-opacity: 1;"/><path class="point" transform="translate(196.33,156.4)" d="M-4.748114960674648,-6.664683362337446L-1.608275724226392,8.023468651080034L6.356390684901041,-1.3587852887425877Z" style="opacity: 1; stroke-width: 0px; fill: rgb(11, 94, 159); fill-opacity: 1;"/><path class="point" transform="translate(249.18,148.58)" d="M-3.667790247664824,-7.315047142646097L-2.8218934750429057,7.681114321210841L6.4896837227077295,-0.3660671785647449Z" style="opacity: 1; stroke-width: 0px; fill: rgb(11, 115, 172); fill-opacity: 1;"/><path class="point" transform="translate(293.66,148.81)" d="M-3.058105738657317,-7.590163983155514L-3.4397951577665413,7.424985472888539L6.497900896423858,0.16517851026697447Z" style="opacity: 1; stroke-width: 0px; fill: rgb(10, 136, 186); fill-opacity: 1;"/><path class="point" transform="translate(340.22,150.48)" d="M-2.9644156683103176,-7.627243259885991L-3.5309587753999048,7.382068146964399L6.495374443710222,0.2451751129215924Z" style="opacity: 1; stroke-width: 0px; fill: rgb(68, 155, 154); fill-opacity: 1;"/><path class="point" transform="translate(381.99,146.37)" d="M-5.110175722748462,-6.391299091939935L-1.1611418084720877,8.100268495588166L6.27131753122055,-1.7089694036482312Z" style="opacity: 1; stroke-width: 0px; fill: rgb(126, 174, 121); fill-opacity: 1;"/><path class="point" transform="translate(411.73,129.98)" d="M-7.67854986486091,-2.8288640781848287L3.193951508886394,7.534007815159361L4.484598355974517,-4.705143736974533Z" style="opacity: 1; stroke-width: 0px; fill: rgb(184, 192, 89); fill-opacity: 1;"/><path class="point" transform="translate(425.46,97.21)" d="M-7.863188298663354,2.2655837613656473L7.034137731657304,4.18132830235501L0.8290505670060491,-6.446912063720657Z" style="opacity: 1; stroke-width: 0px; fill: rgb(242, 211, 56); fill-opacity: 1;"/><path class="point" transform="translate(430.69,55.74)" d="M-8.171059263135067,0.4431596984548789L5.916356096686132,5.653258400003031L2.254703166448934,-6.096418098457909Z" style="opacity: 1; stroke-width: 0px; fill: rgb(242, 194, 56); fill-opacity: 1;"/><path class="point" transform="translate(451.52,30.3)" d="M-6.532210594767635,-4.928775177019687L0.8784410416038946,8.135781544290989L5.653769553163741,-3.207006367271301Z" style="opacity: 1; stroke-width: 0px; fill: rgb(242, 177, 56); fill-opacity: 1;"/><path class="point" transform="translate(486.46,19.28)" d="M-4.1293413192466115,-7.064781685881217L-2.3235092774353614,7.846266923682357L6.452850596681973,-0.7814852378011404Z" style="opacity: 1; stroke-width: 0px; fill: rgb(242, 160, 56); fill-opacity: 1;"/><path class="point" transform="translate(531.97,19.13)" d="M-3.0007573417570916,-7.613018808323733L-3.4957125081731912,7.398823829515167L6.496469849930283,0.21419497880856508Z" style="opacity: 1; stroke-width: 0px; fill: rgb(242, 143, 56); fill-opacity: 1;"/><path class="point" transform="translate(577.36,19.99)" d="M-3.22626264964651,-7.520228009541723L-3.2737049256800415,7.499697064520555L6.499967575326552,0.020530945021168652Z" style="opacity: 1; stroke-width: 0px; fill: rgb(236, 115, 50); fill-opacity: 1;"/><path class="point" transform="translate(623.84,19.83)" d="M-3.273037798967517,-7.4999882377594345L-3.2269315769141786,7.519940996970267L6.499969375881696,-0.019952759210832068Z" style="opacity: 1; stroke-width: 0px; fill: rgb(230, 87, 43); fill-opacity: 1;"/><path class="point" transform="translate(681.42,19.72)" d="M-3.2572185930342825,-7.506871987531942L-3.2427784030384648,7.513121071085391L6.499996996072747,-0.006249083553449818Z" style="opacity: 1; stroke-width: 0px; fill: rgb(223, 58, 37); fill-opacity: 1;"/><path class="point" transform="translate(753.68,19.67)" d="M-3.2531921334036005,-7.508617778470345L-3.2468072793160507,7.511380864460296L6.499999412719651,-0.0027630859899516955Z" style="opacity: 1; stroke-width: 0px; fill: rgb(217, 30, 30); fill-opacity: 1;"/></g><g class="text"/></g><g class="trace scatter trace086e2b" style="stroke-miterlimit: 2; opacity: 1;"><g class="fills"/><g class="errorbars"/><g class="lines"><path class="js-line" d="M48.33,149.1L374.74,148.5L377.45,148.16L387.54,146.06L389.88,145.35L398.51,141.74L400.49,140.65L407.65,135.54L409.26,134.07L414.96,127.46L416.21,125.62L420.45,117.5L421.33,115.29L424.11,105.67L424.62,103.07L425.93,91.95L426.08,88.98L426.9,71.12L427.27,68.37L429.46,58.15L430.19,55.79L433.85,47.07L434.95,45.08L440.07,37.86L441.53,36.25L448.11,30.53L449.94,29.29L457.98,25.09L460.18,24.22L469.68,21.52L472.24,21.03L483.21,19.83L486.14,19.71L561.97,19.68L565.01,19.68L804,19.68" style="vector-effect: none; fill: none; stroke: rgb(0, 0, 0); stroke-opacity: 1; stroke-width: 2px; opacity: 1;"/></g><g class="points"/><g class="text"/></g><g class="trace scatter trace416aa3" style="stroke-miterlimit: 2; opacity: 1;"><g class="fills"/><g class="errorbars"/><g class="lines"><path class="js-line" d="M48.33,187.93L77.57,187.11L82.26,186.82L109.33,184.09L113.66,183.47L134.54,179.72L138.56,178.83L157.88,173.71L161.59,172.55L182.8,164.83L186.18,163.59L208.88,156.24L211.98,155.38L229.8,151.2L232.64,150.67L248.94,148.47L251.53,148.27L266.34,148.02L268.75,148.07L329.25,150.03L331.88,150.15L355.04,150.48L357.45,150.35L371.18,148.8L373.34,148.41L385.55,145.32L387.46,144.68L398.17,140.04L399.83,139.14L407.48,133.99L408.86,132.81L414.96,126.06L416.03,124.55L420.55,116.2L421.3,114.37L424.25,104.4L424.68,102.25L426.06,90.67L426.18,88.19L427.11,70.97L427.44,68.71L429.86,58.21L430.5,56.27L434.5,47.39L435.45,45.77L441.03,38.51L442.3,37.21L449.44,31.56L451.03,30.59L461.29,25.54L463.12,24.82L474.9,21.31L476.98,20.85L490.27,18.87L492.61,18.66L507.4,18.22L509.99,18.27L578.83,19.99L581.26,20L803.63,19.65" style="vector-effect: none; fill: none; stroke: rgb(100, 143, 255); stroke-opacity: 1; stroke-width: 2px; opacity: 1;"/></g><g class="points"/><g class="text"/></g><g class="trace scatter trace84a60e" style="stroke-miterlimit: 2; opacity: 1;"><g class="fills"/><g class="errorbars"/><g class="lines"/><g class="points"><path class="point" transform="translate(48.33,187.93)" d="M-3.2500000000000004,-7.51L-3.2499999999999996,7.51L6.5,-3.9801020972288977e-16Z" style="opacity: 1; stroke-width: 0px; fill: rgb(12, 51, 131); fill-opacity: 1;"/><path class="point" transform="translate(130.59,180.53)" d="M-4.627304568819867,-6.749122344970401L-1.752528596052014,7.993199829856622L6.379833164871881,-1.2440774848862213Z" style="opacity: 1; stroke-width: 0px; fill: rgb(12, 72, 145); fill-opacity: 1;"/><path class="point" transform="translate(196.33,160.09)" d="M-5.382918884633148,-6.163341973431283L-0.8082639528152686,8.143052829411058L6.191182837448417,-1.979710855979775Z" style="opacity: 1; stroke-width: 0px; fill: rgb(11, 94, 159); fill-opacity: 1;"/><path class="point" transform="translate(249.18,148.45)" d="M-3.8562037390565522,-7.217499062894727L-2.621808177188871,7.7516915497216194L6.478011916245423,-0.5341924868268928Z" style="opacity: 1; stroke-width: 0px; fill: rgb(11, 115, 172); fill-opacity: 1;"/><path class="point" transform="translate(293.66,148.73)" d="M-3.0225211453628846,-7.604404376796004L-3.4745348060053107,7.408792606211732L6.497055951368195,0.19561177058427232Z" style="opacity: 1; stroke-width: 0px; fill: rgb(10, 136, 186); fill-opacity: 1;"/><path class="point" transform="translate(340.22,150.51)" d="M-2.9645551063767437,-7.627189064213341L-3.5308238184526823,7.382132697469426L6.495378924829426,0.24505636674391493Z" style="opacity: 1; stroke-width: 0px; fill: rgb(68, 155, 154); fill-opacity: 1;"/><path class="point" transform="translate(381.99,146.39)" d="M-5.112046165879062,-6.389803126694998L-1.1587709004208058,8.100608001893312L6.270817066299868,-1.7108048751983134Z" style="opacity: 1; stroke-width: 0px; fill: rgb(126, 174, 121); fill-opacity: 1;"/><path class="point" transform="translate(411.73,129.98)" d="M-7.679402480917311,-2.826548696923697L3.1962230337377147,7.533044425635925L4.483179447179596,-4.706495728712228Z" style="opacity: 1; stroke-width: 0px; fill: rgb(184, 192, 88); fill-opacity: 1;"/><path class="point" transform="translate(425.46,97.21)" d="M-7.863161248461301,2.2656776427145395L7.03418765357946,4.1812443188876545L0.8289735948818405,-6.446921961602194Z" style="opacity: 1; stroke-width: 0px; fill: rgb(242, 211, 56); fill-opacity: 1;"/><path class="point" transform="translate(430.69,55.74)" d="M-8.171059164666007,0.4431615140416234L5.916357352824358,5.653257085404939L2.254701811841648,-6.0964185994465625Z" style="opacity: 1; stroke-width: 0px; fill: rgb(242, 194, 56); fill-opacity: 1;"/><path class="point" transform="translate(451.52,30.3)" d="M-6.532092820958008,-4.928931261276511L0.8782466387316488,8.135802532114244L5.653846182226359,-3.206871270837734Z" style="opacity: 1; stroke-width: 0px; fill: rgb(242, 177, 56); fill-opacity: 1;"/><path class="point" transform="translate(486.46,19.28)" d="M-4.12927571776162,-7.064820029321642L-2.3235821352645494,7.84624534797883L6.4528578530261695,-0.7814253186571877Z" style="opacity: 1; stroke-width: 0px; fill: rgb(242, 160, 56); fill-opacity: 1;"/><path class="point" transform="translate(531.97,19.13)" d="M-3.0007515127686677,-7.613021105882773L-3.4957181731590836,7.398821152984123L6.496469685927751,0.21419995289864882Z" style="opacity: 1; stroke-width: 0px; fill: rgb(242, 143, 56); fill-opacity: 1;"/><path class="point" transform="translate(577.36,19.99)" d="M-3.2262650461782796,-7.520226981402108L-3.2737025356907052,7.499698107778221L6.499967581868985,0.020528873623885877Z" style="opacity: 1; stroke-width: 0px; fill: rgb(236, 115, 50); fill-opacity: 1;"/><path class="point" transform="translate(623.84,19.83)" d="M-3.2730392215393405,-7.499987616940787L-3.226930150557668,7.519941609043375L6.499969372097008,-0.019953992102588074Z" style="opacity: 1; stroke-width: 0px; fill: rgb(230, 86, 43); fill-opacity: 1;"/><path class="point" transform="translate(681.42,19.72)" d="M-3.257217331516561,-7.5068725349021435L-3.242779665606243,7.513120526141629L6.499996997122804,-0.006247991239485327Z" style="opacity: 1; stroke-width: 0px; fill: rgb(223, 58, 37); fill-opacity: 1;"/><path class="point" transform="translate(753.68,19.67)" d="M-3.2531920470204905,-7.508617815896787L-3.2468073657309486,7.511380827107307L6.499999412751439,-0.0027630112105206986Z" style="opacity: 1; stroke-width: 0px; fill: rgb(217, 30, 30); fill-opacity: 1;"/></g><g class="text"/></g><g class="trace scatter trace5dba0b" style="stroke-miterlimit: 2; opacity: 1;"><g class="fills"/><g class="errorbars"/><g class="lines"><path class="js-line" d="M48.33,149.1L374.74,148.5L377.45,148.16L387.54,146.06L389.88,145.35L398.51,141.74L400.49,140.65L407.65,135.54L409.26,134.07L414.96,127.46L416.21,125.62L420.45,117.5L421.33,115.29L424.11,105.67L424.62,103.07L425.93,91.95L426.08,88.98L426.9,71.12L427.27,68.37L429.46,58.15L430.19,55.79L433.85,47.07L434.95,45.08L440.07,37.86L441.53,36.25L448.11,30.53L449.94,29.29L457.98,25.09L460.18,24.22L469.68,21.52L472.24,21.03L483.21,19.83L486.14,19.71L561.97,19.68L565.01,19.68L804,19.68" style="vector-effect: none; fill: none; stroke: rgb(0, 0, 0); stroke-opacity: 1; stroke-width: 2px; opacity: 1;"/></g><g class="points"/><g class="text"/></g><g class="trace scatter traceb09b43" style="stroke-miterlimit: 2; opacity: 1;"><g class="fills"/><g class="errorbars"/><g class="lines"><path class="js-line" d="M48.33,200.88L72.82,200.12L77.57,199.78L100.52,197.21L104.95,196.51L126.34,192.11L130.47,191.05L150.31,184.83L154.12,183.41L172.41,175.37L175.91,173.58L196.13,163.87L199.37,162.47L218.06,155.41L221.05,154.45L238.22,150.03L240.96,149.51L254.09,147.87L256.6,147.73L273.6,147.99L276.04,148.06L357.45,150.38L359.83,150.21L373.34,148.44L375.46,148.01L387.46,144.7L389.33,144.02L399.83,139.16L401.45,138.22L408.86,132.82L410.19,131.57L414.96,126.07L416.03,124.56L420.55,116.2L421.3,114.37L424.25,104.4L424.68,102.25L426.06,90.66L426.18,88.19L427.11,70.97L427.44,68.71L429.86,58.21L430.5,56.27L434.5,47.39L435.45,45.77L441.03,38.5L442.3,37.21L447.91,32.58L449.44,31.56L459.49,26.29L461.29,25.54L470.83,22.33L472.85,21.8L485.7,19.38L487.96,19.1L502.32,18.22L504.84,18.2L531.01,19.09L533.6,19.18L583.68,20L586.09,19.99L803.63,19.65" style="vector-effect: none; fill: none; stroke: rgb(100, 143, 255); stroke-opacity: 1; stroke-width: 2px; opacity: 1;"/></g><g class="points"/><g class="text"/></g><g class="trace scatter trace50cb47" style="stroke-miterlimit: 2; opacity: 1;"><g class="fills"/><g class="errorbars"/><g class="lines"/><g class="points"><path class="point" transform="translate(48.33,200.88)" d="M-3.2500000000000004,-7.51L-3.2499999999999996,7.51L6.5,-3.9801020972288977e-16Z" style="opacity: 1; stroke-width: 0px; fill: rgb(12, 51, 131); fill-opacity: 1;"/><path class="point" transform="translate(130.59,191.02)" d="M-5.034039756857027,-6.45143733801878L-1.257098931291155,8.085932369055943L6.291138688148182,-1.6344950310371618Z" style="opacity: 1; stroke-width: 0px; fill: rgb(12, 72, 145); fill-opacity: 1;"/><path class="point" transform="translate(196.33,163.78)" d="M-5.932166210407801,-5.636666040497339L-0.048349240929846715,8.182925048593656L5.980515451337648,-2.5462590080963183Z" style="opacity: 1; stroke-width: 0px; fill: rgb(11, 94, 159); fill-opacity: 1;"/><path class="point" transform="translate(249.18,148.31)" d="M-4.0412398857868475,-7.1155449675710365L-2.4208228205481404,7.816790701529198L6.462062706334988,-0.7012457339581623Z" style="opacity: 1; stroke-width: 0px; fill: rgb(11, 115, 172); fill-opacity: 1;"/><path class="point" transform="translate(293.66,148.66)" d="M-2.986880328257555,-7.618473987923568L-3.509188442293915,7.392441848027674L6.49606877055147,0.22603213989589452Z" style="opacity: 1; stroke-width: 0px; fill: rgb(10, 136, 186); fill-opacity: 1;"/><path class="point" transform="translate(340.22,150.54)" d="M-2.964694049767742,-7.627135057888496L-3.5306893381558218,7.382197016974879L6.495383387923564,0.24493804091361646Z" style="opacity: 1; stroke-width: 0px; fill: rgb(68, 155, 154); fill-opacity: 1;"/><path class="point" transform="translate(381.99,146.42)" d="M-5.113915059814168,-6.3883075036355175L-1.156401302282616,8.100946613086588L6.270316362096784,-1.7126391094510711Z" style="opacity: 1; stroke-width: 0px; fill: rgb(126, 174, 121); fill-opacity: 1;"/><path class="point" transform="translate(411.73,129.99)" d="M-7.68025304390066,-2.824236743202423L3.1984906545694853,7.532081885682846L4.481762389331175,-4.707845142480423Z" style="opacity: 1; stroke-width: 0px; fill: rgb(184, 192, 89); fill-opacity: 1;"/><path class="point" transform="translate(425.46,97.21)" d="M-7.86313467291739,2.26576987259614L7.034236696515647,4.181161811912165L0.8288979764017422,-6.446931684508305Z" style="opacity: 1; stroke-width: 0px; fill: rgb(242, 211, 56); fill-opacity: 1;"/><path class="point" transform="translate(430.69,55.74)" d="M-8.171058929856521,0.4431658434627037L5.9163603481917235,5.653253950632742L2.2546985816647966,-6.096419794095445Z" style="opacity: 1; stroke-width: 0px; fill: rgb(242, 194, 56); fill-opacity: 1;"/><path class="point" transform="translate(451.52,30.3)" d="M-6.531976330480054,-4.929085637118545L0.878054359748139,8.135823286018896L5.653921970731915,-3.20673764890035Z" style="opacity: 1; stroke-width: 0px; fill: rgb(242, 177, 56); fill-opacity: 1;"/><path class="point" transform="translate(486.46,19.28)" d="M-4.1292114648542055,-7.06485758373915L-2.3236534947691028,7.846224215267324L6.452864959623308,-0.7813666315281735Z" style="opacity: 1; stroke-width: 0px; fill: rgb(242, 160, 56); fill-opacity: 1;"/><path class="point" transform="translate(531.97,19.13)" d="M-3.0007455421225555,-7.61302345927238L-3.495723975813132,7.398818411403623L6.4964695179356875,0.21420504786875827Z" style="opacity: 1; stroke-width: 0px; fill: rgb(242, 143, 56); fill-opacity: 1;"/><path class="point" transform="translate(577.36,19.99)" d="M-3.2262672711570377,-7.520226026859892L-3.273700316785457,7.499699076354918L6.4999675879424945,0.02052695050497484Z" style="opacity: 1; stroke-width: 0px; fill: rgb(236, 115, 50); fill-opacity: 1;"/><path class="point" transform="translate(623.84,19.83)" d="M-3.2730406597289257,-7.499986989306131L-3.226928708541606,7.519942227835929L6.4999693682705315,-0.019955238529798944Z" style="opacity: 1; stroke-width: 0px; fill: rgb(230, 87, 43); fill-opacity: 1;"/><path class="point" transform="translate(681.42,19.72)" d="M-3.2572160742270433,-7.506873080437484L-3.242780923942115,7.513119983024171L6.499996998169158,-0.006246902586686559Z" style="opacity: 1; stroke-width: 0px; fill: rgb(223, 58, 37); fill-opacity: 1;"/><path class="point" transform="translate(753.68,19.67)" d="M-3.253191963438926,-7.508617852109426L-3.246807449343268,7.511380790965736L6.499999412782194,-0.002762938856310173Z" style="opacity: 1; stroke-width: 0px; fill: rgb(217, 30, 30); fill-opacity: 1;"/></g><g class="text"/></g></g></g></g><path class="xlines-above crisp" d="M0,0" style="fill: none;"/><path class="ylines-above crisp" d="M0,0" style="fill: none;"/><g class="overlines-above"/><g class="xaxislayer-above"><g class="xtick"><text text-anchor="middle" x="0" y="333" transform="translate(128.32999999999998,0)" style="font-family: 'Open Sans', verdana, arial, sans-serif; font-size: 12px; fill: rgb(42, 63, 95); fill-opacity: 1; white-space: pre; opacity: 1;">1500</text></g><g class="xtick"><text text-anchor="middle" x="0" y="333" style="font-family: 'Open Sans', verdana, arial, sans-serif; font-size: 12px; fill: rgb(42, 63, 95); fill-opacity: 1; white-space: pre; opacity: 1;" transform="translate(254.27,0)">1000</text></g><g class="xtick"><text text-anchor="middle" x="0" y="333" style="font-family: 'Open Sans', verdana, arial, sans-serif; font-size: 12px; fill: rgb(42, 63, 95); fill-opacity: 1; white-space: pre; opacity: 1;" transform="translate(380.22,0)">500</text></g><g class="xtick"><text text-anchor="middle" x="0" y="333" style="font-family: 'Open Sans', verdana, arial, sans-serif; font-size: 12px; fill: rgb(42, 63, 95); fill-opacity: 1; white-space: pre; opacity: 1;" transform="translate(506.16,0)">0</text></g><g class="xtick"><text text-anchor="middle" x="0" y="333" style="font-family: 'Open Sans', verdana, arial, sans-serif; font-size: 12px; fill: rgb(42, 63, 95); fill-opacity: 1; white-space: pre; opacity: 1;" transform="translate(632.11,0)">500</text></g><g class="xtick"><text text-anchor="middle" x="0" y="333" style="font-family: 'Open Sans', verdana, arial, sans-serif; font-size: 12px; fill: rgb(42, 63, 95); fill-opacity: 1; white-space: pre; opacity: 1;" transform="translate(758.05,0)">1000</text></g><g class="xtick"><text text-anchor="middle" x="0" y="333" style="font-family: 'Open Sans', verdana, arial, sans-serif; font-size: 12px; fill: rgb(42, 63, 95); fill-opacity: 1; white-space: pre; opacity: 1;" transform="translate(884,0)">1500</text></g></g><g class="yaxislayer-above"><g class="ytick"><text text-anchor="end" x="79" y="4.199999999999999" transform="translate(0,300.88)" style="font-family: 'Open Sans', verdana, arial, sans-serif; font-size: 12px; fill: rgb(42, 63, 95); fill-opacity: 1; white-space: pre; opacity: 1;">200</text></g><g class="ytick"><text text-anchor="end" x="79" y="4.199999999999999" style="font-family: 'Open Sans', verdana, arial, sans-serif; font-size: 12px; fill: rgb(42, 63, 95); fill-opacity: 1; white-space: pre; opacity: 1;" transform="translate(0,249.1)">0</text></g><g class="ytick"><text text-anchor="end" x="79" y="4.199999999999999" style="font-family: 'Open Sans', verdana, arial, sans-serif; font-size: 12px; fill: rgb(42, 63, 95); fill-opacity: 1; white-space: pre; opacity: 1;" transform="translate(0,197.32999999999998)">200</text></g><g class="ytick"><text text-anchor="end" x="79" y="4.199999999999999" style="font-family: 'Open Sans', verdana, arial, sans-serif; font-size: 12px; fill: rgb(42, 63, 95); fill-opacity: 1; white-space: pre; opacity: 1;" transform="translate(0,145.56)">400</text></g></g><g class="overaxes-above"/></g></g><g class="polarlayer"/><g class="smithlayer"/><g class="ternarylayer"/><g class="geolayer"/><g class="funnelarealayer"/><g class="pielayer"/><g class="iciclelayer"/><g class="treemaplayer"/><g class="sunburstlayer"/><g class="glimages"/><defs id="topdefs-a64676"><g class="clips"/><clipPath id="legenda64676"><rect width="88" height="48" x="0" y="0"/></clipPath></defs><g class="layer-above"><g class="imagelayer"/><g class="shapelayer"/></g><g class="infolayer"><g class="legend" pointer-events="all" transform="translate(900.08,100)"><rect class="bg" shape-rendering="crispEdges" style="stroke: rgb(68, 68, 68); stroke-opacity: 1; fill: rgb(255, 255, 255); fill-opacity: 1; stroke-width: 0px;" width="88" height="48" x="0" y="0"/><g class="scrollbox" transform="" clip-path="url(#legenda64676)"><g class="groups"><g class="traces" transform="translate(0,14.5)" style="opacity: 1;"><text class="legendtext" text-anchor="start" x="40" y="4.680000000000001" style="font-family: 'Open Sans', verdana, arial, sans-serif; font-size: 12px; fill: rgb(42, 63, 95); fill-opacity: 1; white-space: pre;">OS Ref</text><g class="layers" style="opacity: 1;"><g class="legendfill"/><g class="legendlines"><path class="js-line" d="M5,0h30" style="fill: none; stroke: rgb(0, 0, 0); stroke-opacity: 1; stroke-width: 2px;"/></g><g class="legendsymbols"><g class="legendpoints"/></g></g><rect class="legendtoggle" x="0" y="-9.5" width="82.359375" height="19" style="fill: rgb(0, 0, 0); fill-opacity: 0;"/></g><g class="traces" transform="translate(0,33.5)" style="opacity: 1;"><text class="legendtext" text-anchor="start" x="40" y="4.680000000000001" style="font-family: 'Open Sans', verdana, arial, sans-serif; font-size: 12px; fill: rgb(42, 63, 95); fill-opacity: 1; white-space: pre;">OS Pos</text><g class="layers" style="opacity: 1;"><g class="legendfill"/><g class="legendlines"><path class="js-line" d="M5,0h30" style="fill: none; stroke: rgb(100, 143, 255); stroke-opacity: 1; stroke-width: 2px;"/></g><g class="legendsymbols"><g class="legendpoints"/></g></g><rect class="legendtoggle" x="0" y="-9.5" width="82.359375" height="19" style="fill: rgb(0, 0, 0); fill-opacity: 0;"/></g></g></g><rect class="scrollbar" rx="20" ry="3" width="0" height="0" style="fill: rgb(128, 139, 164); fill-opacity: 1;" x="0" y="0"/></g><g class="g-gtitle"><text class="gtitle" x="50" y="50" text-anchor="start" dy="0em" style="opacity: 1; font-family: 'Open Sans', verdana, arial, sans-serif; font-size: 17px; fill: rgb(42, 63, 95); fill-opacity: 1; white-space: pre;">Reference Following Scenario (double_integrator)</text></g><g class="g-xtitle"><text class="xtitle" x="482" y="360.3" text-anchor="middle" style="opacity: 1; font-family: 'Open Sans', verdana, arial, sans-serif; font-size: 14px; fill: rgb(42, 63, 95); fill-opacity: 1; white-space: pre;">East [m]</text></g><g class="g-ytitle"><text class="ytitle" transform="rotate(-90,26.88125,210)" x="26.88125" y="210" text-anchor="middle" style="opacity: 1; font-family: 'Open Sans', verdana, arial, sans-serif; font-size: 14px; fill: rgb(42, 63, 95); fill-opacity: 1; white-space: pre;">North [m]</text></g></g></svg>