<svg class="main-svg" xmlns="http://www.w3.org/2000/svg" xmlns:xlink="http://www.w3.org/1999/xlink" width="1200" height="400" style="" viewBox="0 0 1200 400"><rect x="0" y="0" width="1200" height="400" style="fill: rgb(255, 255, 255); fill-opacity: 1;"/><defs id="defs-2a3808"><g class="clips"><clipPath id="clip2a3808xyplot" class="plotclip"><rect width="791" height="316"/></clipPath><clipPath class="axesclip" id="clip2a3808x"><rect x="111" y="0" width="791" height="400"/></clipPath><clipPath class="axesclip" id="clip2a3808y"><rect x="0" y="5" width="1200" height="316"/></clipPath><clipPath class="axesclip" id="clip2a3808xy"><rect x="111" y="5" width="791" height="316"/></clipPath></g><g class="gradients"/><g class="patterns"/></defs><g class="bglayer"/><g class="layer-below"><g class="imagelayer"/><g class="shapelayer"/></g><g class="cartesianlayer"><g class="subplot xy"><g class="layer-subplot"><g class="shapelayer"/><g class="imagelayer"/></g><g class="minor-gridlayer"><g class="x"/><g class="y"/></g><g class="gridlayer"><g class="x"><path class="xgrid crisp" transform="translate(161.18,0)" d="M0,5v316" style="stroke: rgb(200, 200, 200); stroke-opacity: 1; stroke-width: 1px;"/><path class="xgrid crisp" transform="translate(230.24,0)" d="M0,5v316" style="stroke: rgb(200, 200, 200); stroke-opacity: 1; stroke-width: 1px;"/><path class="xgrid crisp" transform="translate(299.31,0)" d="M0,5v316" style="stroke: rgb(200, 200, 200); stroke-opacity: 1; stroke-width: 1px;"/><path class="xgrid crisp" transform="translate(368.37,0)" d="M0,5v316" style="stroke: rgb(200, 200, 200); stroke-opacity: 1; stroke-width: 1px;"/><path class="xgrid crisp" transform="translate(437.44,0)" d="M0,5v316" style="stroke: rgb(200, 200, 200); stroke-opacity: 1; stroke-width: 1px;"/><path class="xgrid crisp" transform="translate(575.56,0)" d="M0,5v316" style="stroke: rgb(200, 200, 200); stroke-opacity: 1; stroke-width: 1px;"/><path class="xgrid crisp" transform="translate(644.63,0)" d="M0,5v316" style="stroke: rgb(200, 200, 200); stroke-opacity: 1; stroke-width: 1px;"/><path class="xgrid crisp" transform="translate(713.69,0)" d="M0,5v316" style="stroke: rgb(200, 200, 200); stroke-opacity: 1; stroke-width: 1px;"/><path class="xgrid crisp" transform="translate(782.76,0)" d="M0,5v316" style="stroke: rgb(200, 200, 200); stroke-opacity: 1; stroke-width: 1px;"/><path class="xgrid crisp" transform="translate(851.82,0)" d="M0,5v316" style="stroke: rgb(200, 200, 200); stroke-opacity: 1; stroke-width: 1px;"/></g><g class="y"><path class="ygrid crisp" transform="translate(0,301.13)" d="M111,0h791" style="stroke: rgb(200, 200, 200); stroke-opacity: 1; stroke-width: 1px;"/><path class="ygrid crisp" transform="translate(0,266.6)" d="M111,0h791" style="stroke: rgb(200, 200, 200); stroke-opacity: 1; stroke-width: 1px;"/><path class="ygrid crisp" transform="translate(0,232.06)" d="M111,0h791" style="stroke: rgb(200, 200, 200); stroke-opacity: 1; stroke-width: 1px;"/><path class="ygrid crisp" transform="translate(0,197.53)" d="M111,0h791" style="stroke: rgb(200, 200, 200); stroke-opacity: 1; stroke-width: 1px;"/><path class="ygrid crisp" transform="translate(0,128.47)" d="M111,0h791" style="stroke: rgb(200, 200, 200); stroke-opacity: 1; stroke-width: 1px;"/><path class="ygrid crisp" transform="translate(0,93.94)" d="M111,0h791" style="stroke: rgb(200, 200, 200); stroke-opacity: 1; stroke-width: 1px;"/><path class="ygrid crisp" transform="translate(0,59.4)" d="M111,0h791" style="stroke: rgb(200, 200, 200); stroke-opacity: 1; stroke-width: 1px;"/><path class="ygrid crisp" transform="translate(0,24.87)" d="M111,0h791" style="stroke: rgb(200, 200, 200); stroke-opacity: 1; stroke-width: 1px;"/></g></g><g class="zerolinelayer"><path class="xzl zl crisp" transform="translate(506.5,0)" d="M0,5v316" style="stroke: rgb(200, 200, 200); stroke-opacity: 1; stroke-width: 2px;"/><path class="yzl zl crisp" transform="translate(0,163)" d="M111,0h791" style="stroke: rgb(200, 200, 200); stroke-opacity: 1; stroke-width: 2px;"/></g><g class="layer-between"><g class="shapelayer"/><g class="imagelayer"/></g><path class="xlines-below"/><path class="ylines-below"/><g class="overlines-below"/><g class="xaxislayer-below"/><g class="yaxislayer-below"/><g class="overaxes-below"/><g class="overplot"><g class="xy" transform="translate(111,5)" clip-path="url(#clip2a3808xyplot)"><g class="scatterlayer mlayer"><g class="trace scatter trace56f482" style="stroke-miterlimit: 2; opacity: 1;"><g class="fills"/><g class="errorbars"/><g class="lines"><path class="js-line" d="M50.18,158L199.25,158.13L201.56,158.24L229.56,160.44L231.92,160.7L258.12,164.38L260.52,164.78L282.14,169.24L284.54,169.83L306.1,175.91L308.49,176.68L329.98,184.37L332.37,185.31L346.61,190L348.97,190.61L363.09,193.24L365.43,193.5L379.42,194.07L381.74,194L395.61,192.51L397.91,192.1L411.55,188.65L413.78,187.94L426.91,182.83L429.06,181.84L441.68,175.08L443.74,173.81L455.84,165.39L457.81,163.85L481.42,145.16L483.45,143.81L497.99,135.47L500.11,134.43L513.09,129.02L515.3,128.25L528.76,124.44L531.03,123.96L542.46,122.29L544.76,122.11L556.29,121.96L558.61,122.08L570.25,123.44L572.59,123.86L586.7,127.47L589.06,128.25L636.46,144.7L638.83,145.35L660.04,150.36L662.39,150.83L686.12,154.61L688.53,154.92L715.53,157.3L718.02,157.43L740.82,158" style="vector-effect: none; fill: none; stroke: rgb(100, 143, 255); stroke-opacity: 1; stroke-width: 2px; opacity: 1;"/></g><g class="points"/><g class="text"/></g><g class="trace scatter trace57b954" style="stroke-miterlimit: 2; opacity: 1;"><g class="fills"/><g class="errorbars"/><g class="lines"/><g class="points"><path class="point" transform="translate(50.18,158)" d="M4,0A4,4 0 1,1 0,-4A4,4 0 0,1 4,0Z" style="opacity: 1; stroke-width: 0px; fill: rgb(100, 143, 255); fill-opacity: 1;"/><path class="point" transform="translate(88.53,158)" d="M4,0A4,4 0 1,1 0,-4A4,4 0 0,1 4,0Z" style="opacity: 1; stroke-width: 0px; fill: rgb(100, 143, 255); fill-opacity: 1;"/><path class="point" transform="translate(155.37,157.12)" d="M4,0A4,4 0 1,1 0,-4A4,4 0 0,1 4,0Z" style="opacity: 1; stroke-width: 0px; fill: rgb(100, 143, 255); fill-opacity: 1;"/><path class="point" transform="translate(223.83,158.54)" d="M4,0A4,4 0 1,1 0,-4A4,4 0 0,1 4,0Z" style="opacity: 1; stroke-width: 0px; fill: rgb(100, 143, 255); fill-opacity: 1;"/><path class="point" transform="translate(295.77,170.78)" d="M4,0A4,4 0 1,1 0,-4A4,4 0 0,1 4,0Z" style="opacity: 1; stroke-width: 0px; fill: rgb(100, 143, 255); fill-opacity: 1;"/><path class="point" transform="translate(367.06,199.1)" d="M4,0A4,4 0 1,1 0,-4A4,4 0 0,1 4,0Z" style="opacity: 1; stroke-width: 0px; fill: rgb(100, 143, 255); fill-opacity: 1;"/><path class="point" transform="translate(435.64,183.65)" d="M4,0A4,4 0 1,1 0,-4A4,4 0 0,1 4,0Z" style="opacity: 1; stroke-width: 0px; fill: rgb(100, 143, 255); fill-opacity: 1;"/><path class="point" transform="translate(493.23,132.97)" d="M4,0A4,4 0 1,1 0,-4A4,4 0 0,1 4,0Z" style="opacity: 1; stroke-width: 0px; fill: rgb(100, 143, 255); fill-opacity: 1;"/><path class="point" transform="translate(561.11,116.65)" d="M4,0A4,4 0 1,1 0,-4A4,4 0 0,1 4,0Z" style="opacity: 1; stroke-width: 0px; fill: rgb(100, 143, 255); fill-opacity: 1;"/><path class="point" transform="translate(632.19,145.49)" d="M4,0A4,4 0 1,1 0,-4A4,4 0 0,1 4,0Z" style="opacity: 1; stroke-width: 0px; fill: rgb(100, 143, 255); fill-opacity: 1;"/><path class="point" transform="translate(702.47,158)" d="M4,0A4,4 0 1,1 0,-4A4,4 0 0,1 4,0Z" style="opacity: 1; stroke-width: 0px; fill: rgb(100, 143, 255); fill-opacity: 1;"/><path class="point" transform="translate(740.82,158)" d="M4,0A4,4 0 1,1 0,-4A4,4 0 0,1 4,0Z" style="opacity: 1; stroke-width: 0px; fill: rgb(100, 143, 255); fill-opacity: 1;"/></g><g class="text"/></g><g class="trace scatter trace3dc506" style="stroke-miterlimit: 2; opacity: 1;"><g class="fills"/><g class="errorbars"/><g class="lines"/><g class="points"><path class="point" transform="translate(50.18,158)" d="M-3.0000000000000004,-6.93L-2.9999999999999996,6.93L6,-3.6739403974420594e-16Z" style="opacity: 1; stroke-width: 0px; fill: rgb(12, 51, 131); fill-opacity: 1;"/><path class="point" transform="translate(163.74,157.45)" d="M-2.94397429019043,-6.953985575099919L-3.055830311590237,6.905563055013422L5.999804601780667,0.048422520086496265Z" style="opacity: 1; stroke-width: 0px; fill: rgb(11, 108, 168); fill-opacity: 1;"/><path class="point" transform="translate(277.13,168.08)" d="M-1.408863915897254,-7.418894962626351L-4.445371743124581,6.104389409714089L5.854235659021835,1.314505552912263Z" style="opacity: 1; stroke-width: 0px; fill: rgb(87, 161, 143); fill-opacity: 1;"/><path class="point" transform="translate(391.84,193.09)" d="M-3.908049090168169,-6.461582802134145L-2.0370292271241857,7.271548110811193L5.945078317292355,-0.8099653086770489Z" style="opacity: 1; stroke-width: 0px; fill: rgb(242, 211, 56); fill-opacity: 1;"/><path class="point" transform="translate(493.41,137.87)" d="M-5.951374797324725,-4.648229557774452L0.6835333567591686,7.520484169931982L5.267841440565556,-2.87225461215753Z" style="opacity: 1; stroke-width: 0px; fill: rgb(242, 166, 56); fill-opacity: 1;"/><path class="point" transform="translate(603.96,133.96)" d="M-0.3259769422576344,-7.5444442494537896L-5.277988638618895,5.400716242370994L5.60396558087653,2.143728007082797Z" style="opacity: 1; stroke-width: 0px; fill: rgb(234, 105, 47); fill-opacity: 1;"/><path class="point" transform="translate(719.86,157.52)" d="M-2.677382919157732,-7.060915004742829L-3.316239839357338,6.784353567426982L5.99362275851507,0.2765614373158467Z" style="opacity: 1; stroke-width: 0px; fill: rgb(217, 30, 30); fill-opacity: 1;"/></g><g class="text"/></g><g class="trace scatter traced595cf" style="stroke-miterlimit: 2; opacity: 1;"><g class="fills"><g><path class="js-fill" d="M409.31,151.09L408.63,146.8L408.49,146.39L406.11,142.25L405.83,141.92L402.09,138.95L401.7,138.75L397.56,137.44L397.13,137.38L392.79,137.55L392.37,137.64L387.97,139.51L387.61,139.75L384.22,143.12L383.98,143.48L382.18,147.43L382.07,147.85L381.77,152.62L381.83,153.05L383.11,157.2L383.31,157.59L385.93,161.05L386.25,161.35L389.89,163.72L390.29,163.89L394.95,164.9L395.39,164.91L400.1,164.12L400.51,163.97L404.59,161.49L404.91,161.2L407.59,157.78L407.79,157.39L409.14,153.27L409.2,152.83L409.31,151.09Z" style="fill: rgb(204, 204, 204); fill-opacity: 0.5; stroke-width: 0;"/></g></g><g class="errorbars"/><g class="lines"><path class="js-line" d="M409.31,151.09L408.63,146.8L408.49,146.39L406.11,142.25L405.83,141.92L402.09,138.95L401.7,138.75L397.56,137.44L397.13,137.38L392.79,137.55L392.37,137.64L387.97,139.51L387.61,139.75L384.22,143.12L383.98,143.48L382.18,147.43L382.07,147.85L381.77,152.62L381.83,153.05L383.11,157.2L383.31,157.59L385.93,161.05L386.25,161.35L389.89,163.72L390.29,163.89L394.95,164.9L395.39,164.91L400.1,164.12L400.51,163.97L404.59,161.49L404.91,161.2L407.59,157.78L407.79,157.39L409.14,153.27L409.2,152.83L409.31,151.09" style="vector-effect: none; fill: none; stroke: rgb(0, 0, 0); stroke-opacity: 1; stroke-width: 2px; opacity: 1;"/></g><g class="points"/><g class="text"/></g><g class="trace scatter trace10792d" style="stroke-miterlimit: 2; opacity: 1;"><g class="fills"/><g class="errorbars"/><g class="lines"><path class="js-line" d="M430.03,151.09L429.41,144.59L429.19,143.52L427.16,137.31L426.71,136.32L422.72,129.84L422.03,128.99L416.54,123.71L415.67,123.06L409.03,119.32L408.02,118.91L400.66,116.95L399.58,116.8L391.96,116.74L390.88,116.87L383.49,118.72L382.47,119.11L375.78,122.75L374.89,123.38L369.32,128.57L368.62,129.41L364.52,135.83L364.06,136.82L361.69,144.06L361.49,145.13L361.01,152.73L361.08,153.82L362.51,161.3L362.85,162.33L366.11,169.22L366.69,170.14L371.57,175.99L372.37,176.73L378.55,181.18L379.51,181.7L386.61,184.46L387.66,184.73L395.23,185.62L396.32,185.62L403.87,184.6L404.92,184.32L411.97,181.44L412.92,180.91L419.04,176.36L419.82,175.61L424.6,169.68L425.18,168.75L428.33,161.82L428.65,160.77L429.96,153.27L430.02,152.18L430.03,151.09" style="vector-effect: none; fill: none; stroke: rgb(0, 0, 0); stroke-opacity: 1; stroke-dasharray: 9px, 9px; stroke-width: 2px; opacity: 1;"/></g><g class="points"/><g class="text"/></g><g class="trace scatter traced19c54" style="stroke-miterlimit: 2; opacity: 1;"><g class="fills"><g><path class="js-fill" d="M547.44,164.91L546.76,160.62L546.62,160.2L544.24,156.06L543.96,155.73L540.22,152.77L539.83,152.56L535.69,151.25L535.26,151.19L530.5,151.45L530.07,151.56L525.74,153.57L525.39,153.82L522.11,157.29L521.87,157.66L520.2,161.67L520.11,162.09L519.9,166.43L519.96,166.86L521.24,171.01L521.44,171.4L524.06,174.86L524.38,175.16L528.02,177.53L528.42,177.7L532.65,178.68L533.08,178.71L537.81,178.07L538.23,177.93L542.05,175.86L542.39,175.59L545.5,171.97L545.72,171.59L547.27,167.08L547.33,166.65L547.44,164.91Z" style="fill: rgb(204, 204, 204); fill-opacity: 0.5; stroke-width: 0;"/></g></g><g class="errorbars"/><g class="lines"><path class="js-line" d="M547.44,164.91L546.76,160.62L546.62,160.2L544.24,156.06L543.96,155.73L540.22,152.77L539.83,152.56L535.69,151.25L535.26,151.19L530.5,151.45L530.07,151.56L525.74,153.57L525.39,153.82L522.11,157.29L521.87,157.66L520.2,161.67L520.11,162.09L519.9,166.43L519.96,166.86L521.24,171.01L521.44,171.4L524.06,174.86L524.38,175.16L528.02,177.53L528.42,177.7L532.65,178.68L533.08,178.71L537.81,178.07L538.23,177.93L542.05,175.86L542.39,175.59L545.5,171.97L545.72,171.59L547.27,167.08L547.33,166.65L547.44,164.91" style="vector-effect: none; fill: none; stroke: rgb(0, 0, 0); stroke-opacity: 1; stroke-width: 2px; opacity: 1;"/></g><g class="points"/><g class="text"/></g><g class="trace scatter tracee24bf1" style="stroke-miterlimit: 2; opacity: 1;"><g class="fills"/><g class="errorbars"/><g class="lines"><path class="js-line" d="M568.16,164.91L567.32,157.34L567.07,156.28L564.36,149.16L563.85,148.19L559.45,141.98L558.71,141.17L552.9,136.25L551.99,135.66L545.13,132.34L544.09,132L537.71,130.62L536.62,130.5L529.01,130.68L527.93,130.85L521.62,132.53L520.6,132.93L514.81,135.95L513.91,136.56L508.17,141.57L507.45,142.39L503.68,147.72L503.15,148.67L500.33,155.75L500.06,156.81L499.1,164.36L499.1,165.45L500.06,173.01L500.33,174.06L503.15,181.14L503.68,182.09L508.17,188.24L508.92,189.03L514.81,193.86L515.74,194.44L522.65,197.65L523.69,197.98L531.18,199.35L532.27,199.41L539.86,198.87L540.93,198.66L548.15,196.24L549.14,195.76L555.52,191.61L556.36,190.91L561.5,185.29L562.13,184.4L565.71,177.68L566.1,176.66L567.89,169.26L568.01,168.17L568.16,164.91" style="vector-effect: none; fill: none; stroke: rgb(0, 0, 0); stroke-opacity: 1; stroke-dasharray: 9px, 9px; stroke-width: 2px; opacity: 1;"/></g><g class="points"/><g class="text"/></g></g></g></g><path class="xlines-above crisp" d="M0,0" style="fill: none;"/><path class="ylines-above crisp" d="M0,0" style="fill: none;"/><g class="overlines-above"/><g class="xaxislayer-above"><g class="xtick"><text text-anchor="middle" x="0" y="350" transform="translate(161.18,0)" style="font-family: 'Open Sans', verdana, arial, sans-serif; font-size: 28px; fill: rgb(0, 0, 0); fill-opacity: 1; white-space: pre; opacity: 1;">-500</text></g><g class="xtick"><text text-anchor="middle" x="0" y="350" style="font-family: 'Open Sans', verdana, arial, sans-serif; font-size: 28px; fill: rgb(0, 0, 0); fill-opacity: 1; white-space: pre; opacity: 1;" transform="translate(230.24,0)">-400</text></g><g class="xtick"><text text-anchor="middle" x="0" y="350" style="font-family: 'Open Sans', verdana, arial, sans-serif; font-size: 28px; fill: rgb(0, 0, 0); fill-opacity: 1; white-space: pre; opacity: 1;" transform="translate(299.31,0)">-300</text></g><g class="xtick"><text text-anchor="middle" x="0" y="350" style="font-family: 'Open Sans', verdana, arial, sans-serif; font-size: 28px; fill: rgb(0, 0, 0); fill-opacity: 1; white-space: pre; opacity: 1;" transform="translate(368.37,0)">-200</text></g><g class="xtick"><text text-anchor="middle" x="0" y="350" style="font-family: 'Open Sans', verdana, arial, sans-serif; font-size: 28px; fill: rgb(0, 0, 0); fill-opacity: 1; white-space: pre; opacity: 1;" transform="translate(437.44,0)">-100</text></g><g class="xtick"><text text-anchor="middle" x="0" y="350" style="font-family: 'Open Sans', verdana, arial, sans-serif; font-size: 28px; fill: rgb(0, 0, 0); fill-opacity: 1; white-space: pre; opacity: 1;" transform="translate(506.5,0)">0</text></g><g class="xtick"><text text-anchor="middle" x="0" y="350" style="font-family: 'Open Sans', verdana, arial, sans-serif; font-size: 28px; fill: rgb(0, 0, 0); fill-opacity: 1; white-space: pre; opacity: 1;" transform="translate(575.56,0)">100</text></g><g class="xtick"><text text-anchor="middle" x="0" y="350" style="font-family: 'Open Sans', verdana, arial, sans-serif; font-size: 28px; fill: rgb(0, 0, 0); fill-opacity: 1; white-space: pre; opacity: 1;" transform="translate(644.63,0)">200</text></g><g class="xtick"><text text-anchor="middle" x="0" y="350" style="font-family: 'Open Sans', verdana, arial, sans-serif; font-size: 28px; fill: rgb(0, 0, 0); fill-opacity: 1; white-space: pre; opacity: 1;" transform="translate(713.69,0)">300</text></g><g class="xtick"><text text-anchor="middle" x="0" y="350" style="font-family: 'Open Sans', verdana, arial, sans-serif; font-size: 28px; fill: rgb(0, 0, 0); fill-opacity: 1; white-space: pre; opacity: 1;" transform="translate(782.76,0)">400</text></g><g class="xtick"><text text-anchor="middle" x="0" y="350" style="font-family: 'Open Sans', verdana, arial, sans-serif; font-size: 28px; fill: rgb(0, 0, 0); fill-opacity: 1; white-space: pre; opacity: 1;" transform="translate(851.82,0)">500</text></g></g><g class="yaxislayer-above"><g class="ytick"><text text-anchor="end" x="110" y="9.799999999999999" transform="translate(0,301.13)" style="font-family: 'Open Sans', verdana, arial, sans-serif; font-size: 28px; fill: rgb(0, 0, 0); fill-opacity: 1; white-space: pre; opacity: 1;">-200</text></g><g class="ytick"><text text-anchor="end" x="110" y="9.799999999999999" style="font-family: 'Open Sans', verdana, arial, sans-serif; font-size: 28px; fill: rgb(0, 0, 0); fill-opacity: 1; white-space: pre; opacity: 1;" transform="translate(0,266.6)">-150</text></g><g class="ytick"><text text-anchor="end" x="110" y="9.799999999999999" style="font-family: 'Open Sans', verdana, arial, sans-serif; font-size: 28px; fill: rgb(0, 0, 0); fill-opacity: 1; white-space: pre; opacity: 1;" transform="translate(0,232.06)">-100</text></g><g class="ytick"><text text-anchor="end" x="110" y="9.799999999999999" style="font-family: 'Open Sans', verdana, arial, sans-serif; font-size: 28px; fill: rgb(0, 0, 0); fill-opacity: 1; white-space: pre; opacity: 1;" transform="translate(0,197.53)">-50</text></g><g class="ytick"><text text-anchor="end" x="110" y="9.799999999999999" style="font-family: 'Open Sans', verdana, arial, sans-serif; font-size: 28px; fill: rgb(0, 0, 0); fill-opacity: 1; white-space: pre; opacity: 1;" transform="translate(0,163)">0</text></g><g class="ytick"><text text-anchor="end" x="110" y="9.799999999999999" style="font-family: 'Open Sans', verdana, arial, sans-serif; font-size: 28px; fill: rgb(0, 0, 0); fill-opacity: 1; white-space: pre; opacity: 1;" transform="translate(0,128.47)">50</text></g><g class="ytick"><text text-anchor="end" x="110" y="9.799999999999999" style="font-family: 'Open Sans', verdana, arial, sans-serif; font-size: 28px; fill: rgb(0, 0, 0); fill-opacity: 1; white-space: pre; opacity: 1;" transform="translate(0,93.94)">100</text></g><g class="ytick"><text text-anchor="end" x="110" y="9.799999999999999" style="font-family: 'Open Sans', verdana, arial, sans-serif; font-size: 28px; fill: rgb(0, 0, 0); fill-opacity: 1; white-space: pre; opacity: 1;" transform="translate(0,59.4)">150</text></g><g class="ytick"><text text-anchor="end" x="110" y="9.799999999999999" style="font-family: 'Open Sans', verdana, arial, sans-serif; font-size: 28px; fill: rgb(0, 0, 0); fill-opacity: 1; white-space: pre; opacity: 1;" transform="translate(0,24.87)">200</text></g></g><g class="overaxes-above"/></g></g><g class="polarlayer"/><g class="smithlayer"/><g class="ternarylayer"/><g class="geolayer"/><g class="funnelarealayer"/><g class="pielayer"/><g class="iciclelayer"/><g class="treemaplayer"/><g class="sunburstlayer"/><g class="glimages"/><defs id="topdefs-2a3808"><g class="clips"/><clipPath id="legend2a3808"><rect width="277" height="304" x="0" y="0"/></clipPath></defs><g class="layer-above"><g class="imagelayer"/><g class="shapelayer"/></g><g class="infolayer"><g class="legend" pointer-events="all" transform="translate(917.82,5)"><rect class="bg" shape-rendering="crispEdges" style="stroke: rgb(68, 68, 68); stroke-opacity: 1; fill: rgb(255, 255, 255); fill-opacity: 1; stroke-width: 0px;" width="277" height="304" x="0" y="0"/><g class="scrollbox" transform="" clip-path="url(#legend2a3808)"><g class="groups" transform=""><g class="traces" transform="translate(0,26.650000000000002)" style="opacity: 1;"><text class="legendtext" text-anchor="start" x="5" y="12.090000000000002" style="font-family: 'Open Sans', verdana, arial, sans-serif; font-size: 31px; fill: rgb(0, 0, 0); fill-opacity: 1; white-space: pre;">Own ship</text><g class="layers"><g class="legendfill"/><g class="legendlines"/><g class="legendsymbols"><g class="legendpoints"/></g></g><rect class="legendtoggle" x="0" y="-21.650000000000002" width="271.34375" height="43.300000000000004" style="fill: rgb(0, 0, 0); fill-opacity: 0;"/></g><g class="traces" transform="translate(0,68)" style="opacity: 1;"><text class="legendtext" text-anchor="start" x="40" y="10.92" style="font-family: 'Open Sans', verdana, arial, sans-serif; font-size: 28px; fill: rgb(0, 0, 0); fill-opacity: 1; white-space: pre;">Trajectory</text><g class="layers" style="opacity: 1;"><g class="legendfill"/><g class="legendlines"><path class="js-line" d="M5,0h30" style="fill: none; stroke: rgb(100, 143, 255); stroke-opacity: 1; stroke-width: 2px;"/></g><g class="legendsymbols"><g class="legendpoints"/></g></g><rect class="legendtoggle" x="0" y="-19.7" width="271.34375" height="39.4" style="fill: rgb(0, 0, 0); fill-opacity: 0;"/></g><g class="traces" transform="translate(0,107.4)" style="opacity: 1;"><text class="legendtext" text-anchor="start" x="40" y="10.92" style="font-family: 'Open Sans', verdana, arial, sans-serif; font-size: 28px; fill: rgb(0, 0, 0); fill-opacity: 1; white-space: pre;">Control point</text><g class="layers" style="opacity: 1;"><g class="legendfill"/><g class="legendlines"/><g class="legendsymbols"><g class="legendpoints"><path class="scatterpts" transform="translate(20,0)" d="M4,0A4,4 0 1,1 0,-4A4,4 0 0,1 4,0Z" style="opacity: 1; stroke-width: 0px; fill: rgb(100, 143, 255); fill-opacity: 1;"/></g></g></g><rect class="legendtoggle" x="0" y="-19.7" width="271.34375" height="39.4" style="fill: rgb(0, 0, 0); fill-opacity: 0;"/></g><g class="traces" transform="translate(0,146.79999999999998)" style="opacity: 1;"><text class="legendtext" text-anchor="start" x="40" y="10.92" style="font-family: 'Open Sans', verdana, arial, sans-serif; font-size: 28px; fill: rgb(0, 0, 0); fill-opacity: 1; white-space: pre;">\(\Delta t=30\)s</text><g class="layers" style="opacity: 1;"><g class="legendfill"/><g class="legendlines"/><g class="legendsymbols"><g class="legendpoints"><path class="scatterpts" transform="translate(20,0)" d="M-3.0000000000000004,-6.93L-2.9999999999999996,6.93L6,-3.6739403974420594e-16Z" style="opacity: 1; stroke-width: 0px; fill: rgb(12, 51, 131); fill-opacity: 1;"/></g></g></g><rect class="legendtoggle" x="0" y="-19.7" width="271.34375" height="39.4" style="fill: rgb(0, 0, 0); fill-opacity: 0;"/></g></g><g class="groups" transform="translate(0,10)"><g class="traces" transform="translate(0,188.15)" style="opacity: 1;"><text class="legendtext" text-anchor="start" x="5" y="12.090000000000002" style="font-family: 'Open Sans', verdana, arial, sans-serif; font-size: 31px; fill: rgb(0, 0, 0); fill-opacity: 1; white-space: pre;">Target ship</text><g class="layers"><g class="legendfill"/><g class="legendlines"/><g class="legendsymbols"><g class="legendpoints"/></g></g><rect class="legendtoggle" x="0" y="-21.650000000000002" width="271.34375" height="43.300000000000004" style="fill: rgb(0, 0, 0); fill-opacity: 0;"/></g><g class="traces" transform="translate(0,229.5)" style="opacity: 1;"><text class="legendtext" text-anchor="start" x="40" y="10.92" style="font-family: 'Open Sans', verdana, arial, sans-serif; font-size: 28px; fill: rgb(0, 0, 0); fill-opacity: 1; white-space: pre;">Extent</text><g class="layers" style="opacity: 1;"><g class="legendfill"><path class="js-fill" d="M5,-2h30v6h-30z" style="stroke-width: 0; fill: rgb(204, 204, 204); fill-opacity: 0.5;"/></g><g class="legendlines"><path class="js-line" d="M5,-2h30" style="fill: none; stroke: rgb(0, 0, 0); stroke-opacity: 1; stroke-width: 2px;"/></g><g class="legendsymbols"><g class="legendpoints"/></g></g><rect class="legendtoggle" x="0" y="-19.7" width="271.34375" height="39.4" style="fill: rgb(0, 0, 0); fill-opacity: 0;"/></g><g class="traces" transform="translate(0,268.90000000000003)" style="opacity: 1;"><text class="legendtext" text-anchor="start" x="40" y="10.92" style="font-family: 'Open Sans', verdana, arial, sans-serif; font-size: 28px; fill: rgb(0, 0, 0); fill-opacity: 1; white-space: pre;">Domain</text><g class="layers" style="opacity: 1;"><g class="legendfill"/><g class="legendlines"><path class="js-line" d="M5,0h30" style="fill: none; stroke: rgb(0, 0, 0); stroke-opacity: 1; stroke-dasharray: 9px, 9px; stroke-width: 2px;"/></g><g class="legendsymbols"><g class="legendpoints"/></g></g><rect class="legendtoggle" x="0" y="-19.7" width="271.34375" height="39.4" style="fill: rgb(0, 0, 0); fill-opacity: 0;"/></g></g></g><rect class="scrollbar" rx="20" ry="3" width="0" height="0" style="fill: rgb(128, 139, 164); fill-opacity: 1;" x="0" y="0"/></g><g class="g-gtitle"/><g class="g-xtitle" transform="translate(0,-1.3000000000000114)"><text class="xtitle" x="506.5" y="394.3" text-anchor="middle" style="opacity: 1; font-family: 'Open Sans', verdana, arial, sans-serif; font-size: 34px; fill: rgb(0, 0, 0); fill-opacity: 1; white-space: pre;">East [m]</text></g><g class="g-ytitle" transform="translate(16.525390625,0)"><text class="ytitle" transform="rotate(-90,17.474999999999994,163)" x="17.474999999999994" y="163" text-anchor="middle" style="opacity: 1; font-family: 'Open Sans', verdana, arial, sans-serif; font-size: 34px; fill: rgb(0, 0, 0); fill-opacity: 1; white-space: pre;">North [m]</text></g></g></svg>