<svg class="main-svg" xmlns="http://www.w3.org/2000/svg" xmlns:xlink="http://www.w3.org/1999/xlink" width="1200" height="400" style="" viewBox="0 0 1200 400"><rect x="0" y="0" width="1200" height="400" style="fill: rgb(255, 255, 255); fill-opacity: 1;"/><defs id="defs-3f0978"><g class="clips"><clipPath id="clip3f0978xyplot" class="plotclip"><rect width="868" height="316"/></clipPath><clipPath class="axesclip" id="clip3f0978x"><rect x="101" y="0" width="868" height="400"/></clipPath><clipPath class="axesclip" id="clip3f0978y"><rect x="0" y="12" width="1200" height="316"/></clipPath><clipPath class="axesclip" id="clip3f0978xy"><rect x="101" y="12" width="868" height="316"/></clipPath></g><g class="gradients"/><g class="patterns"/></defs><g class="bglayer"/><g class="layer-below"><g class="imagelayer"/><g class="shapelayer"/></g><g class="cartesianlayer"><g class="subplot xy"><g class="layer-subplot"><g class="shapelayer"/><g class="imagelayer"/></g><g class="minor-gridlayer"><g class="x"/><g class="y"/></g><g class="gridlayer"><g class="x"><path class="xgrid crisp" transform="translate(163.82999999999998,0)" d="M0,12v316" style="stroke: rgb(200, 200, 200); stroke-opacity: 1; stroke-width: 1px;"/><path class="xgrid crisp" transform="translate(238.06,0)" d="M0,12v316" style="stroke: rgb(200, 200, 200); stroke-opacity: 1; stroke-width: 1px;"/><path class="xgrid crisp" transform="translate(312.3,0)" d="M0,12v316" style="stroke: rgb(200, 200, 200); stroke-opacity: 1; stroke-width: 1px;"/><path class="xgrid crisp" transform="translate(386.53,0)" d="M0,12v316" style="stroke: rgb(200, 200, 200); stroke-opacity: 1; stroke-width: 1px;"/><path class="xgrid crisp" transform="translate(460.77,0)" d="M0,12v316" style="stroke: rgb(200, 200, 200); stroke-opacity: 1; stroke-width: 1px;"/><path class="xgrid crisp" transform="translate(609.23,0)" d="M0,12v316" style="stroke: rgb(200, 200, 200); stroke-opacity: 1; stroke-width: 1px;"/><path class="xgrid crisp" transform="translate(683.47,0)" d="M0,12v316" style="stroke: rgb(200, 200, 200); stroke-opacity: 1; stroke-width: 1px;"/><path class="xgrid crisp" transform="translate(757.7,0)" d="M0,12v316" style="stroke: rgb(200, 200, 200); stroke-opacity: 1; stroke-width: 1px;"/><path class="xgrid crisp" transform="translate(831.94,0)" d="M0,12v316" style="stroke: rgb(200, 200, 200); stroke-opacity: 1; stroke-width: 1px;"/><path class="xgrid crisp" transform="translate(906.17,0)" d="M0,12v316" style="stroke: rgb(200, 200, 200); stroke-opacity: 1; stroke-width: 1px;"/></g><g class="y"><path class="ygrid crisp" transform="translate(0,318.47)" d="M101,0h868" style="stroke: rgb(200, 200, 200); stroke-opacity: 1; stroke-width: 1px;"/><path class="ygrid crisp" transform="translate(0,281.35)" d="M101,0h868" style="stroke: rgb(200, 200, 200); stroke-opacity: 1; stroke-width: 1px;"/><path class="ygrid crisp" transform="translate(0,244.23)" d="M101,0h868" style="stroke: rgb(200, 200, 200); stroke-opacity: 1; stroke-width: 1px;"/><path class="ygrid crisp" transform="translate(0,207.12)" d="M101,0h868" style="stroke: rgb(200, 200, 200); stroke-opacity: 1; stroke-width: 1px;"/><path class="ygrid crisp" transform="translate(0,132.88)" d="M101,0h868" style="stroke: rgb(200, 200, 200); stroke-opacity: 1; stroke-width: 1px;"/><path class="ygrid crisp" transform="translate(0,95.77)" d="M101,0h868" style="stroke: rgb(200, 200, 200); stroke-opacity: 1; stroke-width: 1px;"/><path class="ygrid crisp" transform="translate(0,58.65)" d="M101,0h868" style="stroke: rgb(200, 200, 200); stroke-opacity: 1; stroke-width: 1px;"/><path class="ygrid crisp" transform="translate(0,21.53)" d="M101,0h868" style="stroke: rgb(200, 200, 200); stroke-opacity: 1; stroke-width: 1px;"/></g></g><g class="zerolinelayer"><path class="xzl zl crisp" transform="translate(535,0)" d="M0,12v316" style="stroke: rgb(200, 200, 200); stroke-opacity: 1; stroke-width: 2px;"/><path class="yzl zl crisp" transform="translate(0,170)" d="M101,0h868" style="stroke: rgb(200, 200, 200); stroke-opacity: 1; stroke-width: 2px;"/></g><g class="layer-between"><g class="shapelayer"/><g class="imagelayer"/></g><path class="xlines-below"/><path class="ylines-below"/><g class="overlines-below"/><g class="xaxislayer-below"/><g class="yaxislayer-below"/><g class="overaxes-below"/><g class="overplot"><g class="xy" transform="translate(101,12)" clip-path="url(#clip3f0978xyplot)"><g class="scatterlayer mlayer"><g class="trace scatter trace3b2db0" style="stroke-miterlimit: 2; opacity: 1;"><g class="fills"/><g class="errorbars"/><g class="lines"><path class="js-line" d="M62.83,158L212.27,158.73L214.94,158.8L253.44,160.69L255.93,160.89L283.05,163.75L285.5,164.08L319.79,169.56L322.24,169.99L401.02,183.64L403.5,183.99L436.02,187.9L438.54,188.15L473.95,190.79L476.49,190.92L509.73,191.75L512.29,191.75L543.07,190.97L545.63,190.83L573.68,188.66L576.21,188.4L606.35,184.31L608.83,183.9L643.33,177.39L645.77,176.89L701.82,166.1L704.26,165.71L733.61,161.8L736.07,161.54L768.05,159L770.52,158.87L802.69,158L805.17,158" style="vector-effect: none; fill: none; stroke: rgb(100, 143, 255); stroke-opacity: 1; stroke-width: 2px; opacity: 1;"/></g><g class="points"/><g class="text"/></g><g class="trace scatter trace9ad484" style="stroke-miterlimit: 2; opacity: 1;"><g class="fills"/><g class="errorbars"/><g class="lines"/><g class="points"><path class="point" transform="translate(62.83,158)" d="M4,0A4,4 0 1,1 0,-4A4,4 0 0,1 4,0Z" style="opacity: 1; stroke-width: 0px; fill: rgb(100, 143, 255); fill-opacity: 1;"/><path class="point" transform="translate(62.83,158)" d="M4,0A4,4 0 1,1 0,-4A4,4 0 0,1 4,0Z" style="opacity: 1; stroke-width: 0px; fill: rgb(100, 143, 255); fill-opacity: 1;"/><path class="point" transform="translate(168.45,158)" d="M4,0A4,4 0 1,1 0,-4A4,4 0 0,1 4,0Z" style="opacity: 1; stroke-width: 0px; fill: rgb(100, 143, 255); fill-opacity: 1;"/><path class="point" transform="translate(274.68,158.97)" d="M4,0A4,4 0 1,1 0,-4A4,4 0 0,1 4,0Z" style="opacity: 1; stroke-width: 0px; fill: rgb(100, 143, 255); fill-opacity: 1;"/><path class="point" transform="translate(378.49,182.14)" d="M4,0A4,4 0 1,1 0,-4A4,4 0 0,1 4,0Z" style="opacity: 1; stroke-width: 0px; fill: rgb(100, 143, 255); fill-opacity: 1;"/><path class="point" transform="translate(485.72,194.03)" d="M4,0A4,4 0 1,1 0,-4A4,4 0 0,1 4,0Z" style="opacity: 1; stroke-width: 0px; fill: rgb(100, 143, 255); fill-opacity: 1;"/><path class="point" transform="translate(596.57,189.69)" d="M4,0A4,4 0 1,1 0,-4A4,4 0 0,1 4,0Z" style="opacity: 1; stroke-width: 0px; fill: rgb(100, 143, 255); fill-opacity: 1;"/><path class="point" transform="translate(699.76,163.32)" d="M4,0A4,4 0 1,1 0,-4A4,4 0 0,1 4,0Z" style="opacity: 1; stroke-width: 0px; fill: rgb(100, 143, 255); fill-opacity: 1;"/><path class="point" transform="translate(769.83,158)" d="M4,0A4,4 0 1,1 0,-4A4,4 0 0,1 4,0Z" style="opacity: 1; stroke-width: 0px; fill: rgb(100, 143, 255); fill-opacity: 1;"/><path class="point" transform="translate(805.17,158)" d="M4,0A4,4 0 1,1 0,-4A4,4 0 0,1 4,0Z" style="opacity: 1; stroke-width: 0px; fill: rgb(100, 143, 255); fill-opacity: 1;"/></g><g class="text"/></g><g class="trace scatter traceea1c1a" style="stroke-miterlimit: 2; opacity: 1;"><g class="fills"/><g class="errorbars"/><g class="lines"/><g class="points"><path class="point" transform="translate(62.83,158)" d="M0,0Z" style="opacity: 1; stroke-width: 0px; fill: rgb(68, 1, 84); fill-opacity: 1;"/><path class="point" transform="translate(159.75,158.16)" d="M-2.9884091318335924,-6.9350061903918725L-3.011582481821122,6.924974437150517L5.999991613654714,0.010031753241354689Z" style="opacity: 1; stroke-width: 0px; fill: rgb(69, 50, 125); fill-opacity: 1;"/><path class="point" transform="translate(274.28,162.67)" d="M-2.7253010265062314,-7.042558790306551L-3.2700626300378155,6.8067312563101945L5.995363656544047,0.23582753399635684Z" style="opacity: 1; stroke-width: 0px; fill: rgb(54, 91, 140); fill-opacity: 1;"/><path class="point" transform="translate(379.06,180.26)" d="M-1.8113510318979724,-7.33102362833746L-4.10585848605708,6.337730358138712L5.917209517955053,0.993293270198748Z" style="opacity: 1; stroke-width: 0px; fill: rgb(39, 127, 142); fill-opacity: 1;"/><path class="point" transform="translate(486.32,191.33)" d="M-2.27278480589994,-7.201343570894974L-3.6955201307858228,6.585440832849137L5.968304936685763,0.615902738045837Z" style="opacity: 1; stroke-width: 0px; fill: rgb(34, 162, 135); fill-opacity: 1;"/><path class="point" transform="translate(595.29,186.02)" d="M-3.3335572175465655,-6.775861294133993L-2.6593396139416026,7.0677303866036745L5.992896831488168,-0.29186909246968096Z" style="opacity: 1; stroke-width: 0px; fill: rgb(78, 193, 106); fill-opacity: 1;"/><path class="point" transform="translate(700.07,166.38)" d="M-4.2249179034688655,-6.258991029626759L-1.672459720592206,7.363951281954317L5.897377624061072,-1.1049602523275583Z" style="opacity: 1; stroke-width: 0px; fill: rgb(162, 218, 55); fill-opacity: 1;"/><path class="point" transform="translate(805.17,158)" d="M-3.5416702749511813,-6.669443129941751L-2.439322419329726,7.146649993847143L5.980992694280907,-0.47720686390539196Z" style="opacity: 1; stroke-width: 0px; fill: rgb(253, 231, 37); fill-opacity: 1;"/></g><g class="text"/></g><g class="trace scatter trace31cdaf" style="stroke-miterlimit: 2; opacity: 1;"><g class="fills"><g><path class="js-fill" d="M448.85,150.58L448.11,145.97L447.96,145.52L445.7,141.44L445.41,141.07L441.49,137.76L441.08,137.53L436.68,135.97L436.22,135.9L431.55,135.93L431.09,136.02L426.71,137.64L426.31,137.88L422.74,140.89L422.44,141.25L419.96,145.74L419.82,146.19L419.15,150.81L419.17,151.28L420.12,155.85L420.29,156.29L422.74,160.26L423.06,160.61L426.71,163.51L427.12,163.74L431.55,165.22L432.01,165.29L436.68,165.18L437.14,165.09L441.49,163.4L441.89,163.15L445.41,160.08L445.7,159.72L448.11,155.19L448.25,154.74L448.85,150.58Z" style="fill: rgb(204, 204, 204); fill-opacity: 0.5; stroke-width: 0;"/></g></g><g class="errorbars"/><g class="lines"><path class="js-line" d="M448.85,150.58L448.11,145.97L447.96,145.52L445.7,141.44L445.41,141.07L441.49,137.76L441.08,137.53L436.68,135.97L436.22,135.9L431.55,135.93L431.09,136.02L426.71,137.64L426.31,137.88L422.74,140.89L422.44,141.25L419.96,145.74L419.82,146.19L419.15,150.81L419.17,151.28L420.12,155.85L420.29,156.29L422.74,160.26L423.06,160.61L426.71,163.51L427.12,163.74L431.55,165.22L432.01,165.29L436.68,165.18L437.14,165.09L441.49,163.4L441.89,163.15L445.41,160.08L445.7,159.72L448.11,155.19L448.25,154.74L448.85,150.58" style="vector-effect: none; fill: none; stroke: rgb(0, 0, 0); stroke-opacity: 1; stroke-width: 2px; opacity: 1;"/></g><g class="points"/><g class="text"/></g><g class="trace scatter trace8052c2" style="stroke-miterlimit: 2; opacity: 1;"><g class="fills"/><g class="errorbars"/><g class="lines"><path class="js-line" d="M471.12,150.58L470.45,143.59L470.21,142.44L468.03,135.77L467.55,134.7L463.96,128.66L463.25,127.73L458.43,122.63L457.53,121.87L451.71,117.95L450.67,117.41L444.12,114.87L442.99,114.56L434.88,113.47L433.71,113.46L426.72,114.18L425.58,114.43L418.92,116.66L417.86,117.15L411.85,120.79L410.92,121.5L405.11,127.27L404.39,128.19L400.2,135.23L399.74,136.3L397.66,143.01L397.44,144.16L396.92,152.33L397,153.5L398.21,160.42L398.54,161.54L401.24,168.03L401.81,169.05L405.86,174.78L406.64,175.66L412.8,181.05L413.78,181.7L420,184.95L421.09,185.38L427.88,187.19L429.03,187.36L436.05,187.64L437.22,187.55L444.12,186.29L445.25,185.95L451.71,183.2L452.73,182.62L458.43,178.52L459.3,177.74L463.96,172.49L464.64,171.53L468.48,164.31L468.9,163.21L470.66,156.41L470.82,155.25L471.12,150.58" style="vector-effect: none; fill: none; stroke: rgb(0, 0, 0); stroke-opacity: 1; stroke-dasharray: 9px, 9px; stroke-width: 2px; opacity: 1;"/></g><g class="points"/><g class="text"/></g><g class="trace scatter traceb063a6" style="stroke-miterlimit: 2; opacity: 1;"><g class="fills"><g><path class="js-fill" d="M597.32,150.58L596.58,145.97L596.43,145.52L594.17,141.44L593.88,141.07L589.96,137.76L589.55,137.53L585.15,135.97L584.69,135.9L580.02,135.93L579.56,136.02L575.18,137.64L574.78,137.88L571.21,140.89L570.91,141.25L568.43,145.74L568.29,146.19L567.62,150.81L567.64,151.28L568.59,155.85L568.76,156.29L571.21,160.26L571.53,160.61L575.18,163.51L575.59,163.74L580.02,165.22L580.48,165.29L585.15,165.18L585.61,165.09L589.96,163.4L590.36,163.15L593.88,160.08L594.17,159.72L596.58,155.19L596.72,154.74L597.32,150.58Z" style="fill: rgb(204, 204, 204); fill-opacity: 0.5; stroke-width: 0;"/></g></g><g class="errorbars"/><g class="lines"><path class="js-line" d="M597.32,150.58L596.58,145.97L596.43,145.52L594.17,141.44L593.88,141.07L589.96,137.76L589.55,137.53L585.15,135.97L584.69,135.9L580.02,135.93L579.56,136.02L575.18,137.64L574.78,137.88L571.21,140.89L570.91,141.25L568.43,145.74L568.29,146.19L567.62,150.81L567.64,151.28L568.59,155.85L568.76,156.29L571.21,160.26L571.53,160.61L575.18,163.51L575.59,163.74L580.02,165.22L580.48,165.29L585.15,165.18L585.61,165.09L589.96,163.4L590.36,163.15L593.88,160.08L594.17,159.72L596.58,155.19L596.72,154.74L597.32,150.58" style="vector-effect: none; fill: none; stroke: rgb(0, 0, 0); stroke-opacity: 1; stroke-width: 2px; opacity: 1;"/></g><g class="points"/><g class="text"/></g><g class="trace scatter traceb4dcc0" style="stroke-miterlimit: 2; opacity: 1;"><g class="fills"/><g class="errorbars"/><g class="lines"><path class="js-line" d="M619.59,150.58L618.92,143.59L618.68,142.44L616.5,135.77L616.02,134.7L612.43,128.66L611.72,127.73L606.9,122.63L606,121.87L600.18,117.95L599.14,117.41L592.59,114.87L591.46,114.56L583.35,113.47L582.18,113.46L575.19,114.18L574.05,114.43L567.39,116.66L566.33,117.15L560.32,120.79L559.39,121.5L553.58,127.27L552.86,128.19L548.67,135.23L548.21,136.3L546.13,143.01L545.91,144.16L545.39,152.33L545.47,153.5L546.68,160.42L547.01,161.54L549.71,168.03L550.28,169.05L554.33,174.78L555.11,175.66L560.32,180.36L561.27,181.05L568.47,184.95L569.56,185.38L576.35,187.19L577.5,187.36L584.52,187.64L585.69,187.55L592.59,186.29L593.72,185.95L600.18,183.2L601.2,182.62L606.9,178.52L607.77,177.74L612.43,172.49L613.11,171.53L616.95,164.31L617.37,163.21L619.13,156.41L619.29,155.25L619.59,150.58" style="vector-effect: none; fill: none; stroke: rgb(0, 0, 0); stroke-opacity: 1; stroke-dasharray: 9px, 9px; stroke-width: 2px; opacity: 1;"/></g><g class="points"/><g class="text"/></g></g></g></g><path class="xlines-above crisp" d="M0,0" style="fill: none;"/><path class="ylines-above crisp" d="M0,0" style="fill: none;"/><g class="overlines-above"/><g class="xaxislayer-above"><g class="xtick"><text text-anchor="middle" x="0" y="354" transform="translate(163.82999999999998,0)" style="font-family: 'Open Sans', verdana, arial, sans-serif; font-size: 25px; fill: rgb(0, 0, 0); fill-opacity: 1; white-space: pre; opacity: 1;">-500</text></g><g class="xtick"><text text-anchor="middle" x="0" y="354" style="font-family: 'Open Sans', verdana, arial, sans-serif; font-size: 25px; fill: rgb(0, 0, 0); fill-opacity: 1; white-space: pre; opacity: 1;" transform="translate(238.06,0)">-400</text></g><g class="xtick"><text text-anchor="middle" x="0" y="354" style="font-family: 'Open Sans', verdana, arial, sans-serif; font-size: 25px; fill: rgb(0, 0, 0); fill-opacity: 1; white-space: pre; opacity: 1;" transform="translate(312.3,0)">-300</text></g><g class="xtick"><text text-anchor="middle" x="0" y="354" style="font-family: 'Open Sans', verdana, arial, sans-serif; font-size: 25px; fill: rgb(0, 0, 0); fill-opacity: 1; white-space: pre; opacity: 1;" transform="translate(386.53,0)">-200</text></g><g class="xtick"><text text-anchor="middle" x="0" y="354" style="font-family: 'Open Sans', verdana, arial, sans-serif; font-size: 25px; fill: rgb(0, 0, 0); fill-opacity: 1; white-space: pre; opacity: 1;" transform="translate(460.77,0)">-100</text></g><g class="xtick"><text text-anchor="middle" x="0" y="354" style="font-family: 'Open Sans', verdana, arial, sans-serif; font-size: 25px; fill: rgb(0, 0, 0); fill-opacity: 1; white-space: pre; opacity: 1;" transform="translate(535,0)">0</text></g><g class="xtick"><text text-anchor="middle" x="0" y="354" style="font-family: 'Open Sans', verdana, arial, sans-serif; font-size: 25px; fill: rgb(0, 0, 0); fill-opacity: 1; white-space: pre; opacity: 1;" transform="translate(609.23,0)">100</text></g><g class="xtick"><text text-anchor="middle" x="0" y="354" style="font-family: 'Open Sans', verdana, arial, sans-serif; font-size: 25px; fill: rgb(0, 0, 0); fill-opacity: 1; white-space: pre; opacity: 1;" transform="translate(683.47,0)">200</text></g><g class="xtick"><text text-anchor="middle" x="0" y="354" style="font-family: 'Open Sans', verdana, arial, sans-serif; font-size: 25px; fill: rgb(0, 0, 0); fill-opacity: 1; white-space: pre; opacity: 1;" transform="translate(757.7,0)">300</text></g><g class="xtick"><text text-anchor="middle" x="0" y="354" style="font-family: 'Open Sans', verdana, arial, sans-serif; font-size: 25px; fill: rgb(0, 0, 0); fill-opacity: 1; white-space: pre; opacity: 1;" transform="translate(831.94,0)">400</text></g><g class="xtick"><text text-anchor="middle" x="0" y="354" style="font-family: 'Open Sans', verdana, arial, sans-serif; font-size: 25px; fill: rgb(0, 0, 0); fill-opacity: 1; white-space: pre; opacity: 1;" transform="translate(906.17,0)">500</text></g></g><g class="yaxislayer-above"><g class="ytick"><text text-anchor="end" x="100" y="8.75" transform="translate(0,318.47)" style="font-family: 'Open Sans', verdana, arial, sans-serif; font-size: 25px; fill: rgb(0, 0, 0); fill-opacity: 1; white-space: pre; opacity: 1;">-200</text></g><g class="ytick"><text text-anchor="end" x="100" y="8.75" style="font-family: 'Open Sans', verdana, arial, sans-serif; font-size: 25px; fill: rgb(0, 0, 0); fill-opacity: 1; white-space: pre; opacity: 1;" transform="translate(0,281.35)">-150</text></g><g class="ytick"><text text-anchor="end" x="100" y="8.75" style="font-family: 'Open Sans', verdana, arial, sans-serif; font-size: 25px; fill: rgb(0, 0, 0); fill-opacity: 1; white-space: pre; opacity: 1;" transform="translate(0,244.23)">-100</text></g><g class="ytick"><text text-anchor="end" x="100" y="8.75" style="font-family: 'Open Sans', verdana, arial, sans-serif; font-size: 25px; fill: rgb(0, 0, 0); fill-opacity: 1; white-space: pre; opacity: 1;" transform="translate(0,207.12)">-50</text></g><g class="ytick"><text text-anchor="end" x="100" y="8.75" style="font-family: 'Open Sans', verdana, arial, sans-serif; font-size: 25px; fill: rgb(0, 0, 0); fill-opacity: 1; white-space: pre; opacity: 1;" transform="translate(0,170)">0</text></g><g class="ytick"><text text-anchor="end" x="100" y="8.75" style="font-family: 'Open Sans', verdana, arial, sans-serif; font-size: 25px; fill: rgb(0, 0, 0); fill-opacity: 1; white-space: pre; opacity: 1;" transform="translate(0,132.88)">50</text></g><g class="ytick"><text text-anchor="end" x="100" y="8.75" style="font-family: 'Open Sans', verdana, arial, sans-serif; font-size: 25px; fill: rgb(0, 0, 0); fill-opacity: 1; white-space: pre; opacity: 1;" transform="translate(0,95.77)">100</text></g><g class="ytick"><text text-anchor="end" x="100" y="8.75" style="font-family: 'Open Sans', verdana, arial, sans-serif; font-size: 25px; fill: rgb(0, 0, 0); fill-opacity: 1; white-space: pre; opacity: 1;" transform="translate(0,58.65)">150</text></g><g class="ytick"><text text-anchor="end" x="100" y="8.75" style="font-family: 'Open Sans', verdana, arial, sans-serif; font-size: 25px; fill: rgb(0, 0, 0); fill-opacity: 1; white-space: pre; opacity: 1;" transform="translate(0,21.53)">200</text></g></g><g class="overaxes-above"/></g></g><g class="polarlayer"/><g class="smithlayer"/><g class="ternarylayer"/><g class="geolayer"/><g class="funnelarealayer"/><g class="pielayer"/><g class="iciclelayer"/><g class="treemaplayer"/><g class="sunburstlayer"/><g class="glimages"/><defs id="topdefs-3f0978"><g class="clips"/><clipPath id="legend3f0978"><rect width="209" height="277" x="0" y="0"/></clipPath></defs><g class="layer-above"><g class="imagelayer"/><g class="shapelayer"/></g><g class="infolayer"><g class="legend" pointer-events="all" transform="translate(986.36,12)"><rect class="bg" shape-rendering="crispEdges" width="209" height="277" x="0" y="0" style="stroke: rgb(68, 68, 68); stroke-opacity: 1; fill: rgb(255, 255, 255); fill-opacity: 1; stroke-width: 0px;"/><g class="scrollbox" transform="" clip-path="url(#legend3f0978)"><g class="groups" transform=""><g class="traces" transform="translate(0,24.7)" style="opacity: 1;"><text class="legendtext" text-anchor="start" x="5" y="10.92" style="font-family: 'Open Sans', verdana, arial, sans-serif; font-size: 28px; fill: rgb(0, 0, 0); fill-opacity: 1; white-space: pre;">Own ship</text><g class="layers"><g class="legendfill"/><g class="legendlines"/><g class="legendsymbols"><g class="legendpoints"/></g></g><rect class="legendtoggle" x="0" y="-19.7" width="203.234375" height="39.4" style="fill: rgb(0, 0, 0); fill-opacity: 0;"/></g><g class="traces" transform="translate(0,62.15)" style="opacity: 1;"><text class="legendtext" text-anchor="start" x="40" y="9.75" style="font-family: 'Open Sans', verdana, arial, sans-serif; font-size: 25px; fill: rgb(0, 0, 0); fill-opacity: 1; white-space: pre;">Trajectory</text><g class="layers" style="opacity: 1;"><g class="legendfill"/><g class="legendlines"><path class="js-line" d="M5,0h30" style="fill: none; stroke: rgb(100, 143, 255); stroke-opacity: 1; stroke-width: 2px;"/></g><g class="legendsymbols"><g class="legendpoints"/></g></g><rect class="legendtoggle" x="0" y="-17.75" width="203.234375" height="35.5" style="fill: rgb(0, 0, 0); fill-opacity: 0;"/></g><g class="traces" transform="translate(0,97.65)" style="opacity: 1;"><text class="legendtext" text-anchor="start" x="40" y="9.75" style="font-family: 'Open Sans', verdana, arial, sans-serif; font-size: 25px; fill: rgb(0, 0, 0); fill-opacity: 1; white-space: pre;">Control point</text><g class="layers" style="opacity: 1;"><g class="legendfill"/><g class="legendlines"/><g class="legendsymbols"><g class="legendpoints"><path class="scatterpts" transform="translate(20,0)" d="M4,0A4,4 0 1,1 0,-4A4,4 0 0,1 4,0Z" style="opacity: 1; stroke-width: 0px; fill: rgb(100, 143, 255); fill-opacity: 1;"/></g></g></g><rect class="legendtoggle" x="0" y="-17.75" width="203.234375" height="35.5" style="fill: rgb(0, 0, 0); fill-opacity: 0;"/></g><g class="traces" transform="translate(0,133.15)" style="opacity: 1;"><text class="legendtext" text-anchor="start" x="40" y="9.75" style="font-family: 'Open Sans', verdana, arial, sans-serif; font-size: 25px; fill: rgb(0, 0, 0); fill-opacity: 1; white-space: pre;">Break point</text><g class="layers" style="opacity: 1;"><g class="legendfill"/><g class="legendlines"/><g class="legendsymbols"><g class="legendpoints"><path class="scatterpts" transform="translate(20,0)" d="M-3.0000000000000004,-6.93L-2.9999999999999996,6.93L6,-3.6739403974420594e-16Z" style="opacity: 1; stroke-width: 0px; fill: rgb(68, 1, 84); fill-opacity: 1;"/></g></g></g><rect class="legendtoggle" x="0" y="-17.75" width="203.234375" height="35.5" style="fill: rgb(0, 0, 0); fill-opacity: 0;"/></g></g><g class="groups" transform="translate(0,10)"><g class="traces" transform="translate(0,170.6)" style="opacity: 1;"><text class="legendtext" text-anchor="start" x="5" y="10.92" style="font-family: 'Open Sans', verdana, arial, sans-serif; font-size: 28px; fill: rgb(0, 0, 0); fill-opacity: 1; white-space: pre;">Target ship</text><g class="layers"><g class="legendfill"/><g class="legendlines"/><g class="legendsymbols"><g class="legendpoints"/></g></g><rect class="legendtoggle" x="0" y="-19.7" width="203.234375" height="39.4" style="fill: rgb(0, 0, 0); fill-opacity: 0;"/></g><g class="traces" transform="translate(0,208.05)" style="opacity: 1;"><text class="legendtext" text-anchor="start" x="40" y="9.75" style="font-family: 'Open Sans', verdana, arial, sans-serif; font-size: 25px; fill: rgb(0, 0, 0); fill-opacity: 1; white-space: pre;">Extent</text><g class="layers" style="opacity: 1;"><g class="legendfill"><path class="js-fill" d="M5,-2h30v6h-30z" style="stroke-width: 0; fill: rgb(204, 204, 204); fill-opacity: 0.5;"/></g><g class="legendlines"><path class="js-line" d="M5,-2h30" style="fill: none; stroke: rgb(0, 0, 0); stroke-opacity: 1; stroke-width: 2px;"/></g><g class="legendsymbols"><g class="legendpoints"/></g></g><rect class="legendtoggle" x="0" y="-17.75" width="203.234375" height="35.5" style="fill: rgb(0, 0, 0); fill-opacity: 0;"/></g><g class="traces" transform="translate(0,243.55)" style="opacity: 1;"><text class="legendtext" text-anchor="start" x="40" y="9.75" style="font-family: 'Open Sans', verdana, arial, sans-serif; font-size: 25px; fill: rgb(0, 0, 0); fill-opacity: 1; white-space: pre;">Domain</text><g class="layers" style="opacity: 1;"><g class="legendfill"/><g class="legendlines"><path class="js-line" d="M5,0h30" style="fill: none; stroke: rgb(0, 0, 0); stroke-opacity: 1; stroke-dasharray: 9px, 9px; stroke-width: 2px;"/></g><g class="legendsymbols"><g class="legendpoints"/></g></g><rect class="legendtoggle" x="0" y="-17.75" width="203.234375" height="35.5" style="fill: rgb(0, 0, 0); fill-opacity: 0;"/></g></g></g><rect class="scrollbar" rx="20" ry="3" width="0" height="0" x="0" y="0" style="fill: rgb(128, 139, 164); fill-opacity: 1;"/></g><g class="g-gtitle"/><g class="g-xtitle" transform="translate(0,-0.5)"><text class="xtitle" x="535" y="394.5" text-anchor="middle" style="opacity: 1; font-family: 'Open Sans', verdana, arial, sans-serif; font-size: 30px; fill: rgb(0, 0, 0); fill-opacity: 1; white-space: pre;">East [m]</text></g><g class="g-ytitle" transform="translate(14.046875,0)"><text class="ytitle" transform="rotate(-90,15.953125,170)" x="15.953125" y="170" text-anchor="middle" style="opacity: 1; font-family: 'Open Sans', verdana, arial, sans-serif; font-size: 30px; fill: rgb(0, 0, 0); fill-opacity: 1; white-space: pre;">North [m]</text></g></g></svg>