<svg class="main-svg" xmlns="http://www.w3.org/2000/svg" xmlns:xlink="http://www.w3.org/1999/xlink" width="1200" height="400" style="" viewBox="0 0 1200 400"><rect x="0" y="0" width="1200" height="400" style="fill: rgb(255, 255, 255); fill-opacity: 1;"/><defs id="defs-850e3a"><g class="clips"><clipPath id="clip850e3axyplot" class="plotclip"><rect width="855" height="318"/></clipPath><clipPath class="axesclip" id="clip850e3ax"><rect x="101" y="0" width="855" height="400"/></clipPath><clipPath class="axesclip" id="clip850e3ay"><rect x="0" y="10" width="1200" height="318"/></clipPath><clipPath class="axesclip" id="clip850e3axy"><rect x="101" y="10" width="855" height="318"/></clipPath></g><g class="gradients"/><g class="patterns"/></defs><g class="bglayer"/><g class="layer-below"><g class="imagelayer"/><g class="shapelayer"/></g><g class="cartesianlayer"><g class="subplot xy"><g class="layer-subplot"><g class="shapelayer"/><g class="imagelayer"/></g><g class="minor-gridlayer"><g class="x"/><g class="y"/></g><g class="gridlayer"><g class="x"><path class="xgrid crisp" transform="translate(160.02,0)" d="M0,10v318" style="stroke: rgb(200, 200, 200); stroke-opacity: 1; stroke-width: 1px;"/><path class="xgrid crisp" transform="translate(233.72,0)" d="M0,10v318" style="stroke: rgb(200, 200, 200); stroke-opacity: 1; stroke-width: 1px;"/><path class="xgrid crisp" transform="translate(307.40999999999997,0)" d="M0,10v318" style="stroke: rgb(200, 200, 200); stroke-opacity: 1; stroke-width: 1px;"/><path class="xgrid crisp" transform="translate(381.11,0)" d="M0,10v318" style="stroke: rgb(200, 200, 200); stroke-opacity: 1; stroke-width: 1px;"/><path class="xgrid crisp" transform="translate(454.8,0)" d="M0,10v318" style="stroke: rgb(200, 200, 200); stroke-opacity: 1; stroke-width: 1px;"/><path class="xgrid crisp" transform="translate(602.2,0)" d="M0,10v318" style="stroke: rgb(200, 200, 200); stroke-opacity: 1; stroke-width: 1px;"/><path class="xgrid crisp" transform="translate(675.89,0)" d="M0,10v318" style="stroke: rgb(200, 200, 200); stroke-opacity: 1; stroke-width: 1px;"/><path class="xgrid crisp" transform="translate(749.59,0)" d="M0,10v318" style="stroke: rgb(200, 200, 200); stroke-opacity: 1; stroke-width: 1px;"/><path class="xgrid crisp" transform="translate(823.28,0)" d="M0,10v318" style="stroke: rgb(200, 200, 200); stroke-opacity: 1; stroke-width: 1px;"/><path class="xgrid crisp" transform="translate(896.98,0)" d="M0,10v318" style="stroke: rgb(200, 200, 200); stroke-opacity: 1; stroke-width: 1px;"/></g><g class="y"><path class="ygrid crisp" transform="translate(0,316.39)" d="M101,0h855" style="stroke: rgb(200, 200, 200); stroke-opacity: 1; stroke-width: 1px;"/><path class="ygrid crisp" transform="translate(0,279.54)" d="M101,0h855" style="stroke: rgb(200, 200, 200); stroke-opacity: 1; stroke-width: 1px;"/><path class="ygrid crisp" transform="translate(0,242.7)" d="M101,0h855" style="stroke: rgb(200, 200, 200); stroke-opacity: 1; stroke-width: 1px;"/><path class="ygrid crisp" transform="translate(0,169)" d="M101,0h855" style="stroke: rgb(200, 200, 200); stroke-opacity: 1; stroke-width: 1px;"/><path class="ygrid crisp" transform="translate(0,132.15)" d="M101,0h855" style="stroke: rgb(200, 200, 200); stroke-opacity: 1; stroke-width: 1px;"/><path class="ygrid crisp" transform="translate(0,95.3)" d="M101,0h855" style="stroke: rgb(200, 200, 200); stroke-opacity: 1; stroke-width: 1px;"/><path class="ygrid crisp" transform="translate(0,58.46)" d="M101,0h855" style="stroke: rgb(200, 200, 200); stroke-opacity: 1; stroke-width: 1px;"/><path class="ygrid crisp" transform="translate(0,21.61)" d="M101,0h855" style="stroke: rgb(200, 200, 200); stroke-opacity: 1; stroke-width: 1px;"/></g></g><g class="zerolinelayer"><path class="xzl zl crisp" transform="translate(528.5,0)" d="M0,10v318" style="stroke: rgb(200, 200, 200); stroke-opacity: 1; stroke-width: 2px;"/><path class="yzl zl crisp" transform="translate(0,205.85)" d="M101,0h855" style="stroke: rgb(200, 200, 200); stroke-opacity: 1; stroke-width: 2px;"/></g><g class="layer-between"><g class="shapelayer"/><g class="imagelayer"/></g><path class="xlines-below"/><path class="ylines-below"/><g class="overlines-below"/><g class="xaxislayer-below"/><g class="yaxislayer-below"/><g class="overaxes-below"/><g class="overplot"><g class="xy" transform="translate(101,10)" clip-path="url(#clip850e3axyplot)"><g class="scatterlayer mlayer"><g class="trace scatter trace251703" style="stroke-miterlimit: 2; opacity: 1;"><g class="fills"/><g class="errorbars"/><g class="lines"><path class="js-line" d="M59.02,195.85L185.52,195.12L188.33,195.06L220.61,193.59L223.2,193.4L248.53,190.62L251.02,190.24L270.83,186.53L273.3,185.96L295.52,180.07L297.99,179.34L369.55,158.3L372.02,157.74L391.75,154.17L394.21,153.83L413.94,152L416.4,151.88L436.12,151.78L438.59,151.87L458.31,153.52L460.77,153.83L480.49,157.21L482.96,157.74L505.14,163.42L507.6,164.13L549.5,177.1L551.97,177.86L579.08,185.38L581.55,185.96L601.26,189.85L603.73,190.24L628.38,193.19L630.84,193.39L657.95,194.9L660.42,194.98L702.32,195.61L704.78,195.63L795.98,195.85" style="vector-effect: none; fill: none; stroke: rgb(100, 143, 255); stroke-opacity: 1; stroke-width: 2px; opacity: 1;"/></g><g class="points"/><g class="text"/></g><g class="trace scatter trace194819" style="stroke-miterlimit: 2; opacity: 1;"><g class="fills"/><g class="errorbars"/><g class="lines"/><g class="points"><path class="point" transform="translate(59.02,195.85)" d="M4,0A4,4 0 1,1 0,-4A4,4 0 0,1 4,0Z" style="opacity: 1; stroke-width: 0px; fill: rgb(100, 143, 255); fill-opacity: 1;"/><path class="point" transform="translate(59.02,195.85)" d="M4,0A4,4 0 1,1 0,-4A4,4 0 0,1 4,0Z" style="opacity: 1; stroke-width: 0px; fill: rgb(100, 143, 255); fill-opacity: 1;"/><path class="point" transform="translate(163.88,195.85)" d="M4,0A4,4 0 1,1 0,-4A4,4 0 0,1 4,0Z" style="opacity: 1; stroke-width: 0px; fill: rgb(100, 143, 255); fill-opacity: 1;"/><path class="point" transform="translate(269.44,193.85)" d="M4,0A4,4 0 1,1 0,-4A4,4 0 0,1 4,0Z" style="opacity: 1; stroke-width: 0px; fill: rgb(100, 143, 255); fill-opacity: 1;"/><path class="point" transform="translate(374.86,149.8)" d="M4,0A4,4 0 1,1 0,-4A4,4 0 0,1 4,0Z" style="opacity: 1; stroke-width: 0px; fill: rgb(100, 143, 255); fill-opacity: 1;"/><path class="point" transform="translate(480.14,149.79)" d="M4,0A4,4 0 1,1 0,-4A4,4 0 0,1 4,0Z" style="opacity: 1; stroke-width: 0px; fill: rgb(100, 143, 255); fill-opacity: 1;"/><path class="point" transform="translate(585.42,193.85)" d="M4,0A4,4 0 1,1 0,-4A4,4 0 0,1 4,0Z" style="opacity: 1; stroke-width: 0px; fill: rgb(100, 143, 255); fill-opacity: 1;"/><path class="point" transform="translate(690.7,195.85)" d="M4,0A4,4 0 1,1 0,-4A4,4 0 0,1 4,0Z" style="opacity: 1; stroke-width: 0px; fill: rgb(100, 143, 255); fill-opacity: 1;"/><path class="point" transform="translate(760.88,195.85)" d="M4,0A4,4 0 1,1 0,-4A4,4 0 0,1 4,0Z" style="opacity: 1; stroke-width: 0px; fill: rgb(100, 143, 255); fill-opacity: 1;"/><path class="point" transform="translate(795.98,195.85)" d="M4,0A4,4 0 1,1 0,-4A4,4 0 0,1 4,0Z" style="opacity: 1; stroke-width: 0px; fill: rgb(100, 143, 255); fill-opacity: 1;"/></g><g class="text"/></g><g class="trace scatter trace16dc1f" style="stroke-miterlimit: 2; opacity: 1;"><g class="fills"/><g class="errorbars"/><g class="lines"/><g class="points"><path class="point" transform="translate(59.02,195.85)" d="M0,0Z" style="opacity: 1; stroke-width: 0px; fill: rgb(68, 1, 84); fill-opacity: 1;"/><path class="point" transform="translate(155.26,195.52)" d="M-3.0240564851039218,-6.9195362832274325L-2.975907309457178,6.940380082208708L5.9999637945611,-0.02084379898127445Z" style="opacity: 1; stroke-width: 0px; fill: rgb(69, 50, 125); fill-opacity: 1;"/><path class="point" transform="translate(269.42,186.84)" d="M-3.516538858500168,-6.682728069932094L-2.466207846900096,7.137416819542515L5.982746705400264,-0.45468874961042083Z" style="opacity: 1; stroke-width: 0px; fill: rgb(54, 91, 140); fill-opacity: 1;"/><path class="point" transform="translate(374.84,157.14)" d="M-4.766620546030451,-5.856981182329372L-1.0086188211548206,7.483821755868606L5.7752393671852715,-1.626840573539234Z" style="opacity: 1; stroke-width: 0px; fill: rgb(39, 127, 142); fill-opacity: 1;"/><path class="point" transform="translate(480.14,157.14)" d="M-3.0005365763712897,-6.929767691189803L-2.9994634056428,6.930232267262743L5.9999999820140895,-0.00046457607293937727Z" style="opacity: 1; stroke-width: 0px; fill: rgb(34, 162, 135); fill-opacity: 1;"/><path class="point" transform="translate(585.42,186.84)" d="M-1.0053590870514237,-7.484260357983488L-4.769171148896014,5.8549044870550935L5.774530235947438,1.6293558709283942Z" style="opacity: 1; stroke-width: 0px; fill: rgb(78, 193, 106); fill-opacity: 1;"/><path class="point" transform="translate(690.7,195.51)" d="M-2.4207355281008582,-7.15296718173586L-3.5589963946625756,6.660213559847671L5.979731922763434,0.4927536218881892Z" style="opacity: 1; stroke-width: 0px; fill: rgb(162, 218, 55); fill-opacity: 1;"/><path class="point" transform="translate(795.98,195.85)" d="M-2.977979875342322,-6.939491037681087L-3.021989876519433,6.920439089119567L5.999969751861755,0.019051948561519892Z" style="opacity: 1; stroke-width: 0px; fill: rgb(253, 231, 37); fill-opacity: 1;"/></g><g class="text"/></g><g class="trace scatter trace8ed5c8" style="stroke-miterlimit: 2; opacity: 1;"><g class="fills"><g><path class="js-fill" d="M442.24,188.48L441.51,183.9L441.36,183.46L438.82,179.04L438.52,178.69L434.94,175.75L434.53,175.52L430.16,173.98L429.7,173.9L425.07,173.94L424.61,174.03L420.27,175.64L419.86,175.87L416.33,178.87L416.03,179.22L413.72,183.24L413.56,183.68L412.76,188.25L412.76,188.71L413.72,193.71L413.89,194.15L416.64,198.44L416.96,198.78L421.09,201.75L421.51,201.95L425.99,203.14L426.45,203.18L431.07,202.78L431.52,202.66L435.72,200.71L436.11,200.44L439.4,197.18L439.67,196.8L441.77,192.16L441.88,191.71L442.24,188.48Z" style="fill: rgb(204, 204, 204); fill-opacity: 0.5; stroke-width: 0;"/></g></g><g class="errorbars"/><g class="lines"><path class="js-line" d="M442.24,188.48L441.51,183.9L441.36,183.46L438.82,179.04L438.52,178.69L434.94,175.75L434.53,175.52L430.16,173.98L429.7,173.9L425.07,173.94L424.61,174.03L420.27,175.64L419.86,175.87L416.33,178.87L416.03,179.22L413.72,183.24L413.56,183.68L412.76,188.25L412.76,188.71L413.72,193.71L413.89,194.15L416.64,198.44L416.96,198.78L421.09,201.75L421.51,201.95L425.99,203.14L426.45,203.18L431.07,202.78L431.52,202.66L435.72,200.71L436.11,200.44L439.4,197.18L439.67,196.8L441.77,192.16L441.88,191.71L442.24,188.48" style="vector-effect: none; fill: none; stroke: rgb(0, 0, 0); stroke-opacity: 1; stroke-width: 2px; opacity: 1;"/></g><g class="points"/><g class="text"/></g><g class="trace scatter tracefa6f2e" style="stroke-miterlimit: 2; opacity: 1;"><g class="fills"/><g class="errorbars"/><g class="lines"><path class="js-line" d="M464.35,188.48L463.69,181.54L463.45,180.4L461.29,173.77L460.81,172.72L457.24,166.73L456.54,165.8L451.75,160.73L450.86,159.98L445.08,156.09L444.05,155.55L436.43,152.73L435.29,152.46L427.21,151.63L426.05,151.66L419.14,152.59L418.01,152.87L411.47,155.3L410.44,155.82L404.59,159.62L403.69,160.36L398.82,165.34L398.11,166.26L394.45,172.19L393.95,173.24L391.43,180.97L391.21,182.11L390.66,189.06L390.69,190.22L391.97,198.25L392.3,199.37L394.98,205.8L395.54,206.82L400.34,213.38L401.14,214.22L406.46,218.73L407.42,219.38L414.69,223.03L415.78,223.41L422.57,224.99L423.73,225.13L430.7,225.19L431.85,225.07L438.67,223.59L439.77,223.22L446.09,220.29L447.09,219.69L452.61,215.44L453.45,214.64L458.56,208.31L459.17,207.32L462.53,199.92L462.87,198.81L464.18,191.96L464.27,190.8L464.35,188.48" style="vector-effect: none; fill: none; stroke: rgb(0, 0, 0); stroke-opacity: 1; stroke-dasharray: 9px, 9px; stroke-width: 2px; opacity: 1;"/></g><g class="points"/><g class="text"/></g><g class="trace scatter tracee93d4e" style="stroke-miterlimit: 2; opacity: 1;"><g class="fills"><g><path class="js-fill" d="M515.93,210.59L515.21,206.01L515.05,205.57L512.81,201.51L512.52,201.15L509.03,198.1L508.63,197.86L504.31,196.18L503.86,196.09L499.22,195.98L498.76,196.05L494.37,197.52L493.96,197.75L490.33,200.63L490.02,200.97L487.59,204.92L487.42,205.35L486.47,209.89L486.46,210.35L487.11,214.94L487.26,215.38L489.44,219.47L489.72,219.84L493.16,222.95L493.56,223.19L497.85,224.94L498.31,225.04L502.94,225.22L503.4,225.16L507.81,223.76L508.23,223.54L511.9,220.72L512.22,220.37L514.71,216.47L514.89,216.04L515.93,211.05L515.93,210.59Z" style="fill: rgb(204, 204, 204); fill-opacity: 0.5; stroke-width: 0;"/></g></g><g class="errorbars"/><g class="lines"><path class="js-line" d="M515.93,210.59L515.21,206.01L515.05,205.57L512.81,201.51L512.52,201.15L509.03,198.1L508.63,197.86L504.31,196.18L503.86,196.09L499.22,195.98L498.76,196.05L494.37,197.52L493.96,197.75L490.33,200.63L490.02,200.97L487.59,204.92L487.42,205.35L486.47,209.89L486.46,210.35L487.11,214.94L487.26,215.38L489.44,219.47L489.72,219.84L493.16,222.95L493.56,223.19L497.85,224.94L498.31,225.04L502.94,225.22L503.4,225.16L507.81,223.76L508.23,223.54L511.9,220.72L512.22,220.37L514.71,216.47L514.89,216.04L515.93,211.05L515.93,210.59" style="vector-effect: none; fill: none; stroke: rgb(0, 0, 0); stroke-opacity: 1; stroke-width: 2px; opacity: 1;"/></g><g class="points"/><g class="text"/></g><g class="trace scatter trace9f3d55" style="stroke-miterlimit: 2; opacity: 1;"><g class="fills"/><g class="errorbars"/><g class="lines"><path class="js-line" d="M538.04,210.59L537.38,203.65L537.15,202.51L534.5,194.82L533.99,193.78L530.24,187.91L529.51,187L524.56,182.09L523.65,181.37L517.74,177.66L516.69,177.16L510.12,174.84L508.99,174.57L502.07,173.75L500.9,173.74L493.97,174.45L492.83,174.7L486.23,176.92L485.17,177.41L479.21,181.02L478.29,181.73L473.26,186.56L472.52,187.45L468.67,193.26L468.14,194.3L465.67,200.82L465.38,201.94L464.39,208.84L464.35,210L464.9,216.95L465.12,218.1L467.64,225.82L468.14,226.87L471.8,232.81L472.52,233.72L477.39,238.71L478.29,239.45L484.13,243.24L485.17,243.77L491.71,246.19L492.83,246.47L499.74,247.41L500.9,247.43L507.85,246.83L508.99,246.6L515.63,244.49L516.69,244.02L523.65,239.81L524.56,239.08L530.24,233.27L530.94,232.34L534.5,226.35L534.98,225.29L537.15,218.66L537.38,217.53L538.04,210.59" style="vector-effect: none; fill: none; stroke: rgb(0, 0, 0); stroke-opacity: 1; stroke-dasharray: 9px, 9px; stroke-width: 2px; opacity: 1;"/></g><g class="points"/><g class="text"/></g></g></g></g><path class="xlines-above crisp" d="M0,0" style="fill: none;"/><path class="ylines-above crisp" d="M0,0" style="fill: none;"/><g class="overlines-above"/><g class="xaxislayer-above"><g class="xtick"><text text-anchor="middle" x="0" y="354" transform="translate(160.02,0)" style="font-family: 'Open Sans', verdana, arial, sans-serif; font-size: 25px; fill: rgb(0, 0, 0); fill-opacity: 1; white-space: pre; opacity: 1;">-500</text></g><g class="xtick"><text text-anchor="middle" x="0" y="354" style="font-family: 'Open Sans', verdana, arial, sans-serif; font-size: 25px; fill: rgb(0, 0, 0); fill-opacity: 1; white-space: pre; opacity: 1;" transform="translate(233.72,0)">-400</text></g><g class="xtick"><text text-anchor="middle" x="0" y="354" style="font-family: 'Open Sans', verdana, arial, sans-serif; font-size: 25px; fill: rgb(0, 0, 0); fill-opacity: 1; white-space: pre; opacity: 1;" transform="translate(307.40999999999997,0)">-300</text></g><g class="xtick"><text text-anchor="middle" x="0" y="354" style="font-family: 'Open Sans', verdana, arial, sans-serif; font-size: 25px; fill: rgb(0, 0, 0); fill-opacity: 1; white-space: pre; opacity: 1;" transform="translate(381.11,0)">-200</text></g><g class="xtick"><text text-anchor="middle" x="0" y="354" style="font-family: 'Open Sans', verdana, arial, sans-serif; font-size: 25px; fill: rgb(0, 0, 0); fill-opacity: 1; white-space: pre; opacity: 1;" transform="translate(454.8,0)">-100</text></g><g class="xtick"><text text-anchor="middle" x="0" y="354" style="font-family: 'Open Sans', verdana, arial, sans-serif; font-size: 25px; fill: rgb(0, 0, 0); fill-opacity: 1; white-space: pre; opacity: 1;" transform="translate(528.5,0)">0</text></g><g class="xtick"><text text-anchor="middle" x="0" y="354" style="font-family: 'Open Sans', verdana, arial, sans-serif; font-size: 25px; fill: rgb(0, 0, 0); fill-opacity: 1; white-space: pre; opacity: 1;" transform="translate(602.2,0)">100</text></g><g class="xtick"><text text-anchor="middle" x="0" y="354" style="font-family: 'Open Sans', verdana, arial, sans-serif; font-size: 25px; fill: rgb(0, 0, 0); fill-opacity: 1; white-space: pre; opacity: 1;" transform="translate(675.89,0)">200</text></g><g class="xtick"><text text-anchor="middle" x="0" y="354" style="font-family: 'Open Sans', verdana, arial, sans-serif; font-size: 25px; fill: rgb(0, 0, 0); fill-opacity: 1; white-space: pre; opacity: 1;" transform="translate(749.59,0)">300</text></g><g class="xtick"><text text-anchor="middle" x="0" y="354" style="font-family: 'Open Sans', verdana, arial, sans-serif; font-size: 25px; fill: rgb(0, 0, 0); fill-opacity: 1; white-space: pre; opacity: 1;" transform="translate(823.28,0)">400</text></g><g class="xtick"><text text-anchor="middle" x="0" y="354" style="font-family: 'Open Sans', verdana, arial, sans-serif; font-size: 25px; fill: rgb(0, 0, 0); fill-opacity: 1; white-space: pre; opacity: 1;" transform="translate(896.98,0)">500</text></g></g><g class="yaxislayer-above"><g class="ytick"><text text-anchor="end" x="100" y="8.75" transform="translate(0,316.39)" style="font-family: 'Open Sans', verdana, arial, sans-serif; font-size: 25px; fill: rgb(0, 0, 0); fill-opacity: 1; white-space: pre; opacity: 1;">-150</text></g><g class="ytick"><text text-anchor="end" x="100" y="8.75" style="font-family: 'Open Sans', verdana, arial, sans-serif; font-size: 25px; fill: rgb(0, 0, 0); fill-opacity: 1; white-space: pre; opacity: 1;" transform="translate(0,279.54)">-100</text></g><g class="ytick"><text text-anchor="end" x="100" y="8.75" style="font-family: 'Open Sans', verdana, arial, sans-serif; font-size: 25px; fill: rgb(0, 0, 0); fill-opacity: 1; white-space: pre; opacity: 1;" transform="translate(0,242.7)">-50</text></g><g class="ytick"><text text-anchor="end" x="100" y="8.75" style="font-family: 'Open Sans', verdana, arial, sans-serif; font-size: 25px; fill: rgb(0, 0, 0); fill-opacity: 1; white-space: pre; opacity: 1;" transform="translate(0,205.85)">0</text></g><g class="ytick"><text text-anchor="end" x="100" y="8.75" style="font-family: 'Open Sans', verdana, arial, sans-serif; font-size: 25px; fill: rgb(0, 0, 0); fill-opacity: 1; white-space: pre; opacity: 1;" transform="translate(0,169)">50</text></g><g class="ytick"><text text-anchor="end" x="100" y="8.75" style="font-family: 'Open Sans', verdana, arial, sans-serif; font-size: 25px; fill: rgb(0, 0, 0); fill-opacity: 1; white-space: pre; opacity: 1;" transform="translate(0,132.15)">100</text></g><g class="ytick"><text text-anchor="end" x="100" y="8.75" style="font-family: 'Open Sans', verdana, arial, sans-serif; font-size: 25px; fill: rgb(0, 0, 0); fill-opacity: 1; white-space: pre; opacity: 1;" transform="translate(0,95.3)">150</text></g><g class="ytick"><text text-anchor="end" x="100" y="8.75" style="font-family: 'Open Sans', verdana, arial, sans-serif; font-size: 25px; fill: rgb(0, 0, 0); fill-opacity: 1; white-space: pre; opacity: 1;" transform="translate(0,58.46)">200</text></g><g class="ytick"><text text-anchor="end" x="100" y="8.75" style="font-family: 'Open Sans', verdana, arial, sans-serif; font-size: 25px; fill: rgb(0, 0, 0); fill-opacity: 1; white-space: pre; opacity: 1;" transform="translate(0,21.61)">250</text></g></g><g class="overaxes-above"/></g></g><g class="polarlayer"/><g class="smithlayer"/><g class="ternarylayer"/><g class="geolayer"/><g class="funnelarealayer"/><g class="pielayer"/><g class="iciclelayer"/><g class="treemaplayer"/><g class="sunburstlayer"/><g class="glimages"/><defs id="topdefs-850e3a"><g class="clips"/><clipPath id="legend850e3a"><rect width="222" height="318" x="0" y="0"/></clipPath></defs><g class="layer-above"><g class="imagelayer"/><g class="shapelayer"/></g><g class="infolayer"><g class="legend" pointer-events="all" transform="translate(973.1,10)"><rect class="bg" shape-rendering="crispEdges" style="stroke: rgb(68, 68, 68); stroke-opacity: 1; fill: rgb(255, 255, 255); fill-opacity: 1; stroke-width: 0px;" width="222" height="318" x="0" y="0"/><g class="scrollbox" transform="" clip-path="url(#legend850e3a)"><g class="groups" transform=""><g class="traces" transform="translate(0,24.7)" style="opacity: 1;"><text class="legendtext" text-anchor="start" x="5" y="10.92" style="font-family: 'Open Sans', verdana, arial, sans-serif; font-size: 28px; fill: rgb(0, 0, 0); fill-opacity: 1; white-space: pre;">Own ship</text><g class="layers"><g class="legendfill"/><g class="legendlines"/><g class="legendsymbols"><g class="legendpoints"/></g></g><rect class="legendtoggle" x="0" y="-19.7" width="216.109375" height="39.4" style="fill: rgb(0, 0, 0); fill-opacity: 0;"/></g><g class="traces" transform="translate(0,62.15)" style="opacity: 1;"><text class="legendtext" text-anchor="start" x="40" y="9.75" style="font-family: 'Open Sans', verdana, arial, sans-serif; font-size: 25px; fill: rgb(0, 0, 0); fill-opacity: 1; white-space: pre;">Trajectory</text><g class="layers" style="opacity: 1;"><g class="legendfill"/><g class="legendlines"><path class="js-line" d="M5,0h30" style="fill: none; stroke: rgb(100, 143, 255); stroke-opacity: 1; stroke-width: 2px;"/></g><g class="legendsymbols"><g class="legendpoints"/></g></g><rect class="legendtoggle" x="0" y="-17.75" width="216.109375" height="35.5" style="fill: rgb(0, 0, 0); fill-opacity: 0;"/></g><g class="traces" transform="translate(0,97.65)" style="opacity: 1;"><text class="legendtext" text-anchor="start" x="40" y="9.75" style="font-family: 'Open Sans', verdana, arial, sans-serif; font-size: 25px; fill: rgb(0, 0, 0); fill-opacity: 1; white-space: pre;">Control points</text><g class="layers" style="opacity: 1;"><g class="legendfill"/><g class="legendlines"/><g class="legendsymbols"><g class="legendpoints"><path class="scatterpts" transform="translate(20,0)" d="M4,0A4,4 0 1,1 0,-4A4,4 0 0,1 4,0Z" style="opacity: 1; stroke-width: 0px; fill: rgb(100, 143, 255); fill-opacity: 1;"/></g></g></g><rect class="legendtoggle" x="0" y="-17.75" width="216.109375" height="35.5" style="fill: rgb(0, 0, 0); fill-opacity: 0;"/></g><g class="traces" transform="translate(0,133.15)" style="opacity: 1;"><text class="legendtext" text-anchor="start" x="40" y="9.75" style="font-family: 'Open Sans', verdana, arial, sans-serif; font-size: 25px; fill: rgb(0, 0, 0); fill-opacity: 1; white-space: pre;">Break points</text><g class="layers" style="opacity: 1;"><g class="legendfill"/><g class="legendlines"/><g class="legendsymbols"><g class="legendpoints"><path class="scatterpts" transform="translate(20,0)" d="M-3.0000000000000004,-6.93L-2.9999999999999996,6.93L6,-3.6739403974420594e-16Z" style="opacity: 1; stroke-width: 0px; fill: rgb(68, 1, 84); fill-opacity: 1;"/></g></g></g><rect class="legendtoggle" x="0" y="-17.75" width="216.109375" height="35.5" style="fill: rgb(0, 0, 0); fill-opacity: 0;"/></g></g><g class="groups" transform="translate(0,10)"><g class="traces" transform="translate(0,170.6)" style="opacity: 1;"><text class="legendtext" text-anchor="start" x="5" y="10.92" style="font-family: 'Open Sans', verdana, arial, sans-serif; font-size: 28px; fill: rgb(0, 0, 0); fill-opacity: 1; white-space: pre;">Target ship</text><g class="layers"><g class="legendfill"/><g class="legendlines"/><g class="legendsymbols"><g class="legendpoints"/></g></g><rect class="legendtoggle" x="0" y="-19.7" width="216.109375" height="39.4" style="fill: rgb(0, 0, 0); fill-opacity: 0;"/></g><g class="traces" transform="translate(0,208.05)" style="opacity: 1;"><text class="legendtext" text-anchor="start" x="40" y="9.75" style="font-family: 'Open Sans', verdana, arial, sans-serif; font-size: 25px; fill: rgb(0, 0, 0); fill-opacity: 1; white-space: pre;">Extent</text><g class="layers" style="opacity: 1;"><g class="legendfill"><path class="js-fill" d="M5,-2h30v6h-30z" style="stroke-width: 0; fill: rgb(204, 204, 204); fill-opacity: 0.5;"/></g><g class="legendlines"><path class="js-line" d="M5,-2h30" style="fill: none; stroke: rgb(0, 0, 0); stroke-opacity: 1; stroke-width: 2px;"/></g><g class="legendsymbols"><g class="legendpoints"/></g></g><rect class="legendtoggle" x="0" y="-17.75" width="216.109375" height="35.5" style="fill: rgb(0, 0, 0); fill-opacity: 0;"/></g><g class="traces" transform="translate(0,243.55)" style="opacity: 1;"><text class="legendtext" text-anchor="start" x="40" y="9.75" style="font-family: 'Open Sans', verdana, arial, sans-serif; font-size: 25px; fill: rgb(0, 0, 0); fill-opacity: 1; white-space: pre;">Domain</text><g class="layers" style="opacity: 1;"><g class="legendfill"/><g class="legendlines"><path class="js-line" d="M5,0h30" style="fill: none; stroke: rgb(0, 0, 0); stroke-opacity: 1; stroke-dasharray: 9px, 9px; stroke-width: 2px;"/></g><g class="legendsymbols"><g class="legendpoints"/></g></g><rect class="legendtoggle" x="0" y="-17.75" width="216.109375" height="35.5" style="fill: rgb(0, 0, 0); fill-opacity: 0;"/></g><g class="traces" transform="translate(0,279.05)" style="opacity: 1;"><text class="legendtext" text-anchor="start" x="40" y="9.75" style="font-family: 'Open Sans', verdana, arial, sans-serif; font-size: 25px; fill: rgb(0, 0, 0); fill-opacity: 1; white-space: pre;">Extent</text><g class="layers" style="opacity: 1;"><g class="legendfill"><path class="js-fill" d="M5,-2h30v6h-30z" style="stroke-width: 0; fill: rgb(204, 204, 204); fill-opacity: 0.5;"/></g><g class="legendlines"><path class="js-line" d="M5,-2h30" style="fill: none; stroke: rgb(0, 0, 0); stroke-opacity: 1; stroke-width: 2px;"/></g><g class="legendsymbols"><g class="legendpoints"/></g></g><rect class="legendtoggle" x="0" y="-17.75" width="216.109375" height="35.5" style="fill: rgb(0, 0, 0); fill-opacity: 0;"/></g><g class="traces" transform="translate(0,314.55)" style="opacity: 1;"><text class="legendtext" text-anchor="start" x="40" y="9.75" style="font-family: 'Open Sans', verdana, arial, sans-serif; font-size: 25px; fill: rgb(0, 0, 0); fill-opacity: 1; white-space: pre;">Domain</text><g class="layers" style="opacity: 1;"><g class="legendfill"/><g class="legendlines"><path class="js-line" d="M5,0h30" style="fill: none; stroke: rgb(0, 0, 0); stroke-opacity: 1; stroke-dasharray: 9px, 9px; stroke-width: 2px;"/></g><g class="legendsymbols"><g class="legendpoints"/></g></g><rect class="legendtoggle" x="0" y="-17.75" width="216.109375" height="35.5" style="fill: rgb(0, 0, 0); fill-opacity: 0;"/></g></g></g><rect class="scrollbar" rx="20" ry="3" width="0" height="0" style="fill: rgb(128, 139, 164); fill-opacity: 1;" x="0" y="0"/></g><g class="g-gtitle"/><g class="g-xtitle" transform="translate(0,-0.5)"><text class="xtitle" x="528.5" y="394.5" text-anchor="middle" style="opacity: 1; font-family: 'Open Sans', verdana, arial, sans-serif; font-size: 30px; fill: rgb(0, 0, 0); fill-opacity: 1; white-space: pre;">East [m]</text></g><g class="g-ytitle" transform="translate(14.046875,0)"><text class="ytitle" transform="rotate(-90,15.953125,169)" x="15.953125" y="169" text-anchor="middle" style="opacity: 1; font-family: 'Open Sans', verdana, arial, sans-serif; font-size: 30px; fill: rgb(0, 0, 0); fill-opacity: 1; white-space: pre;">North [m]</text></g></g></svg>