<svg class="main-svg" xmlns="http://www.w3.org/2000/svg" xmlns:xlink="http://www.w3.org/1999/xlink" width="1200" height="400" style="" viewBox="0 0 1200 400"><rect x="0" y="0" width="1200" height="400" style="fill: rgb(255, 255, 255); fill-opacity: 1;"/><defs id="defs-1df352"><g class="clips"><clipPath id="clip1df352xyplot" class="plotclip"><rect width="839" height="310"/></clipPath><clipPath class="axesclip" id="clip1df352x"><rect x="111" y="0" width="839" height="400"/></clipPath><clipPath class="axesclip" id="clip1df352y"><rect x="0" y="11" width="1200" height="310"/></clipPath><clipPath class="axesclip" id="clip1df352xy"><rect x="111" y="11" width="839" height="310"/></clipPath></g><g class="gradients"/><g class="patterns"/></defs><g class="bglayer"/><g class="layer-below"><g class="imagelayer"/><g class="shapelayer"/></g><g class="cartesianlayer"><g class="subplot xy"><g class="layer-subplot"><g class="shapelayer"/><g class="imagelayer"/></g><g class="minor-gridlayer"><g class="x"/><g class="y"/></g><g class="gridlayer"><g class="x"><path class="xgrid crisp" transform="translate(173.56,0)" d="M0,11v310" style="stroke: rgb(200, 200, 200); stroke-opacity: 1; stroke-width: 1px;"/><path class="xgrid crisp" transform="translate(244.95,0)" d="M0,11v310" style="stroke: rgb(200, 200, 200); stroke-opacity: 1; stroke-width: 1px;"/><path class="xgrid crisp" transform="translate(316.34000000000003,0)" d="M0,11v310" style="stroke: rgb(200, 200, 200); stroke-opacity: 1; stroke-width: 1px;"/><path class="xgrid crisp" transform="translate(387.73,0)" d="M0,11v310" style="stroke: rgb(200, 200, 200); stroke-opacity: 1; stroke-width: 1px;"/><path class="xgrid crisp" transform="translate(459.11,0)" d="M0,11v310" style="stroke: rgb(200, 200, 200); stroke-opacity: 1; stroke-width: 1px;"/><path class="xgrid crisp" transform="translate(601.89,0)" d="M0,11v310" style="stroke: rgb(200, 200, 200); stroke-opacity: 1; stroke-width: 1px;"/><path class="xgrid crisp" transform="translate(673.27,0)" d="M0,11v310" style="stroke: rgb(200, 200, 200); stroke-opacity: 1; stroke-width: 1px;"/><path class="xgrid crisp" transform="translate(744.66,0)" d="M0,11v310" style="stroke: rgb(200, 200, 200); stroke-opacity: 1; stroke-width: 1px;"/><path class="xgrid crisp" transform="translate(816.05,0)" d="M0,11v310" style="stroke: rgb(200, 200, 200); stroke-opacity: 1; stroke-width: 1px;"/><path class="xgrid crisp" transform="translate(887.44,0)" d="M0,11v310" style="stroke: rgb(200, 200, 200); stroke-opacity: 1; stroke-width: 1px;"/></g><g class="y"><path class="ygrid crisp" transform="translate(0,308.77)" d="M111,0h839" style="stroke: rgb(200, 200, 200); stroke-opacity: 1; stroke-width: 1px;"/><path class="ygrid crisp" transform="translate(0,273.08)" d="M111,0h839" style="stroke: rgb(200, 200, 200); stroke-opacity: 1; stroke-width: 1px;"/><path class="ygrid crisp" transform="translate(0,237.39)" d="M111,0h839" style="stroke: rgb(200, 200, 200); stroke-opacity: 1; stroke-width: 1px;"/><path class="ygrid crisp" transform="translate(0,201.69)" d="M111,0h839" style="stroke: rgb(200, 200, 200); stroke-opacity: 1; stroke-width: 1px;"/><path class="ygrid crisp" transform="translate(0,130.31)" d="M111,0h839" style="stroke: rgb(200, 200, 200); stroke-opacity: 1; stroke-width: 1px;"/><path class="ygrid crisp" transform="translate(0,94.61)" d="M111,0h839" style="stroke: rgb(200, 200, 200); stroke-opacity: 1; stroke-width: 1px;"/><path class="ygrid crisp" transform="translate(0,58.92)" d="M111,0h839" style="stroke: rgb(200, 200, 200); stroke-opacity: 1; stroke-width: 1px;"/><path class="ygrid crisp" transform="translate(0,23.23)" d="M111,0h839" style="stroke: rgb(200, 200, 200); stroke-opacity: 1; stroke-width: 1px;"/></g></g><g class="zerolinelayer"><path class="xzl zl crisp" transform="translate(530.5,0)" d="M0,11v310" style="stroke: rgb(200, 200, 200); stroke-opacity: 1; stroke-width: 2px;"/><path class="yzl zl crisp" transform="translate(0,166)" d="M111,0h839" style="stroke: rgb(200, 200, 200); stroke-opacity: 1; stroke-width: 2px;"/></g><g class="layer-between"><g class="shapelayer"/><g class="imagelayer"/></g><path class="xlines-below"/><path class="ylines-below"/><g class="overlines-below"/><g class="xaxislayer-below"/><g class="yaxislayer-below"/><g class="overaxes-below"/><g class="overplot"><g class="xy" transform="translate(111,11)" clip-path="url(#clip1df352xyplot)"><g class="scatterlayer mlayer"><g class="trace scatter tracebdb13c" style="stroke-miterlimit: 2; opacity: 1;"><g class="fills"/><g class="errorbars"/><g class="lines"><path class="js-line" d="M62.56,155L279.78,155.7L282.15,155.81L301.12,157.49L303.49,157.81L319.94,161.06L322.28,161.68L338.57,167.03L340.89,167.9L384.95,184.49L387.28,185.16L403.73,188.77L406.09,189.15L422.72,190.92L425.11,191.06L444.35,191.22L446.77,191.13L473.61,189.17L476.06,188.95L503.09,187.13L505.55,187.07L522.69,187.51L525.13,187.69L566.25,190.7L568.64,190.65L580.58,189.51L582.95,189.09L594.81,185.98L597.17,185.2L613.7,178.7L616.06,177.69L644.46,165.96L646.84,165.15L661.18,161.23L663.57,160.71L680.41,157.99L682.81,157.71L704.51,156.1L706.92,155.99L745.35,155.09L747.75,155.07L776.44,155" style="vector-effect: none; fill: none; stroke: rgb(100, 143, 255); stroke-opacity: 1; stroke-width: 2px; opacity: 1;"/></g><g class="points"/><g class="text"/></g><g class="trace scatter trace5d071a" style="stroke-miterlimit: 2; opacity: 1;"><g class="fills"/><g class="errorbars"/><g class="lines"/><g class="points"><path class="point" transform="translate(62.56,155)" d="M4,0A4,4 0 1,1 0,-4A4,4 0 0,1 4,0Z" style="opacity: 1; stroke-width: 0px; fill: rgb(100, 143, 255); fill-opacity: 1;"/><path class="point" transform="translate(86.51,155)" d="M4,0A4,4 0 1,1 0,-4A4,4 0 0,1 4,0Z" style="opacity: 1; stroke-width: 0px; fill: rgb(100, 143, 255); fill-opacity: 1;"/><path class="point" transform="translate(127.46,155)" d="M4,0A4,4 0 1,1 0,-4A4,4 0 0,1 4,0Z" style="opacity: 1; stroke-width: 0px; fill: rgb(100, 143, 255); fill-opacity: 1;"/><path class="point" transform="translate(192.36,155)" d="M4,0A4,4 0 1,1 0,-4A4,4 0 0,1 4,0Z" style="opacity: 1; stroke-width: 0px; fill: rgb(100, 143, 255); fill-opacity: 1;"/><path class="point" transform="translate(257.26,155)" d="M4,0A4,4 0 1,1 0,-4A4,4 0 0,1 4,0Z" style="opacity: 1; stroke-width: 0px; fill: rgb(100, 143, 255); fill-opacity: 1;"/><path class="point" transform="translate(322.06,156.21)" d="M4,0A4,4 0 1,1 0,-4A4,4 0 0,1 4,0Z" style="opacity: 1; stroke-width: 0px; fill: rgb(100, 143, 255); fill-opacity: 1;"/><path class="point" transform="translate(384.34,189.21)" d="M4,0A4,4 0 1,1 0,-4A4,4 0 0,1 4,0Z" style="opacity: 1; stroke-width: 0px; fill: rgb(100, 143, 255); fill-opacity: 1;"/><path class="point" transform="translate(448.97,193.53)" d="M4,0A4,4 0 1,1 0,-4A4,4 0 0,1 4,0Z" style="opacity: 1; stroke-width: 0px; fill: rgb(100, 143, 255); fill-opacity: 1;"/><path class="point" transform="translate(516.29,182.75)" d="M4,0A4,4 0 1,1 0,-4A4,4 0 0,1 4,0Z" style="opacity: 1; stroke-width: 0px; fill: rgb(100, 143, 255); fill-opacity: 1;"/><path class="point" transform="translate(582.02,198.35)" d="M4,0A4,4 0 1,1 0,-4A4,4 0 0,1 4,0Z" style="opacity: 1; stroke-width: 0px; fill: rgb(100, 143, 255); fill-opacity: 1;"/><path class="point" transform="translate(645.6,159.82)" d="M4,0A4,4 0 1,1 0,-4A4,4 0 0,1 4,0Z" style="opacity: 1; stroke-width: 0px; fill: rgb(100, 143, 255); fill-opacity: 1;"/><path class="point" transform="translate(711.43,155.02)" d="M4,0A4,4 0 1,1 0,-4A4,4 0 0,1 4,0Z" style="opacity: 1; stroke-width: 0px; fill: rgb(100, 143, 255); fill-opacity: 1;"/><path class="point" transform="translate(754.8,155)" d="M4,0A4,4 0 1,1 0,-4A4,4 0 0,1 4,0Z" style="opacity: 1; stroke-width: 0px; fill: rgb(100, 143, 255); fill-opacity: 1;"/><path class="point" transform="translate(776.44,155)" d="M4,0A4,4 0 1,1 0,-4A4,4 0 0,1 4,0Z" style="opacity: 1; stroke-width: 0px; fill: rgb(100, 143, 255); fill-opacity: 1;"/></g><g class="text"/></g><g class="trace scatter trace3644ff" style="stroke-miterlimit: 2; opacity: 1;"><g class="fills"/><g class="errorbars"/><g class="lines"/><g class="points"><path class="point" transform="translate(62.56,155)" d="M0,0Z" style="opacity: 1; stroke-width: 0px; fill: rgb(12, 51, 131); fill-opacity: 1;"/><path class="point" transform="translate(128.04,155)" d="M-3.0000000000000004,-6.93L-2.9999999999999996,6.93L6,-3.6739403974420594e-16Z" style="opacity: 1; stroke-width: 0px; fill: rgb(11, 82, 151); fill-opacity: 1;"/><path class="point" transform="translate(192.36,155)" d="M-3.0000000000000004,-6.93L-2.9999999999999996,6.93L6,-3.6739403974420594e-16Z" style="opacity: 1; stroke-width: 0px; fill: rgb(11, 113, 171); fill-opacity: 1;"/><path class="point" transform="translate(257.24,155.2)" d="M-2.978762215584984,-6.9391552557212055L-3.021209646065233,6.920779744690796L5.999971861650217,0.018375511030410654Z" style="opacity: 1; stroke-width: 0px; fill: rgb(31, 143, 174); fill-opacity: 1;"/><path class="point" transform="translate(321.64,161.51)" d="M-2.3097913531777867,-7.18955936791575L-3.6616022463749887,6.60435984705116L5.971393599552775,0.5851995208645897Z" style="opacity: 1; stroke-width: 0px; fill: rgb(115, 170, 127); fill-opacity: 1;"/><path class="point" transform="translate(384.73,184.43)" d="M-0.4537701044416216,-7.537837401557228L-5.185716173249331,5.48937589990887L5.639486277690952,2.0484615016483585Z" style="opacity: 1; stroke-width: 0px; fill: rgb(200, 197, 80); fill-opacity: 1;"/><path class="point" transform="translate(449.42,191.01)" d="M-2.2822453595880234,-7.198350930500606L-3.6868637166716387,6.590291035659213L5.969109076259662,0.608059894841392Z" style="opacity: 1; stroke-width: 0px; fill: rgb(242, 199, 56); fill-opacity: 1;"/><path class="point" transform="translate(516.02,187.15)" d="M-3.397048993104506,-6.744253712490928L-2.5928422866917566,7.092395143838439L5.989891279796263,-0.3481414313475106Z" style="opacity: 1; stroke-width: 0px; fill: rgb(242, 174, 56); fill-opacity: 1;"/><path class="point" transform="translate(581.66,189.33)" d="M-2.768511232689436,-7.025684703605224L-3.2281879665080204,6.826690446540901L5.996699199197456,0.19899425706432217Z" style="opacity: 1; stroke-width: 0px; fill: rgb(242, 149, 56); fill-opacity: 1;"/><path class="point" transform="translate(645.97,165.44)" d="M-5.2242610488424335,-5.452705428825929L-0.40065351672008287,7.540847217623483L5.624914565562516,-2.0881417887975546Z" style="opacity: 1; stroke-width: 0px; fill: rgb(235, 112, 49); fill-opacity: 1;"/><path class="point" transform="translate(711.3,155.81)" d="M-3.978891322615997,-6.418202539871356L-1.9569175155395964,7.293515876268065L5.935808838155594,-0.8753133363967103Z" style="opacity: 1; stroke-width: 0px; fill: rgb(226, 71, 39); fill-opacity: 1;"/><path class="point" transform="translate(776.44,155)" d="M-3.0860264702538776,-6.892121634510841L-2.913508715735586,6.96680464512482L5.999535185989464,-0.07468301061397888Z" style="opacity: 1; stroke-width: 0px; fill: rgb(217, 30, 30); fill-opacity: 1;"/></g><g class="text"/></g><g class="trace scatter tracee4904d" style="stroke-miterlimit: 2; opacity: 1;"><g class="fills"><g><path class="js-fill" d="M433.78,147.86L433.07,143.43L432.92,143L430.75,139.07L430.47,138.72L427.09,135.77L426.7,135.53L422.52,133.91L422.08,133.82L417.59,133.71L417.14,133.78L412.89,135.21L412.49,135.42L408.98,138.21L408.68,138.55L406.32,142.37L406.15,142.79L405.24,147.19L405.22,147.64L405.86,152.08L406,152.51L408.11,156.47L408.39,156.83L412.1,160.07L412.49,160.3L416.7,161.86L417.14,161.94L421.63,161.98L422.08,161.9L426.31,160.41L426.7,160.19L430.47,157L430.75,156.65L432.92,152.72L433.07,152.29L433.78,147.86Z" style="fill: rgb(204, 204, 204); fill-opacity: 0.5; stroke-width: 0;"/></g></g><g class="errorbars"/><g class="lines"><path class="js-line" d="M433.78,147.86L433.07,143.43L432.92,143L430.75,139.07L430.47,138.72L427.09,135.77L426.7,135.53L422.52,133.91L422.08,133.82L417.59,133.71L417.14,133.78L412.89,135.21L412.49,135.42L408.98,138.21L408.68,138.55L406.32,142.37L406.15,142.79L405.24,147.19L405.22,147.64L405.86,152.08L406,152.51L408.11,156.47L408.39,156.83L412.1,160.07L412.49,160.3L416.7,161.86L417.14,161.94L421.63,161.98L422.08,161.9L426.31,160.41L426.7,160.19L430.47,157L430.75,156.65L432.92,152.72L433.07,152.29L433.78,147.86" style="vector-effect: none; fill: none; stroke: rgb(0, 0, 0); stroke-opacity: 1; stroke-width: 2px; opacity: 1;"/></g><g class="points"/><g class="text"/></g><g class="trace scatter tracea50092" style="stroke-miterlimit: 2; opacity: 1;"><g class="fills"/><g class="errorbars"/><g class="lines"><path class="js-line" d="M455.19,147.86L454.55,141.14L454.33,140.04L451.76,132.59L451.26,131.58L446.92,125.01L446.19,124.16L441.25,119.56L440.34,118.89L434.51,115.48L433.48,115.02L425.94,112.75L424.83,112.57L416.97,112.26L415.84,112.36L409.22,113.68L408.15,114.02L401.01,117.33L400.05,117.93L393.96,122.92L393.19,123.74L389.12,129.13L388.54,130.1L385.4,137.31L385.08,138.4L383.85,146.17L383.81,147.3L384.56,155.14L384.8,156.23L387,162.62L387.48,163.64L391.72,170.27L392.44,171.14L398.2,176.5L399.12,177.16L405,180.48L406.04,180.92L412.5,182.86L413.61,183.07L421.47,183.5L422.6,183.42L430.32,181.88L431.38,181.52L437.51,178.68L438.47,178.09L443.83,173.98L444.64,173.2L449.58,167.07L450.17,166.11L453.06,160.01L453.43,158.94L455.03,151.24L455.12,150.11L455.19,147.86" style="vector-effect: none; fill: none; stroke: rgb(0, 0, 0); stroke-opacity: 1; stroke-dasharray: 9px, 9px; stroke-width: 2px; opacity: 1;"/></g><g class="points"/><g class="text"/></g><g class="trace scatter tracef0a38d" style="stroke-miterlimit: 2; opacity: 1;"><g class="fills"><g><path class="js-fill" d="M576.55,147.86L575.7,143L575.54,142.58L573.24,138.72L572.95,138.38L569.09,135.31L568.69,135.1L563.96,133.68L563.51,133.64L559.03,133.96L558.6,134.07L554.49,135.89L554.12,136.14L550.88,139.25L550.62,139.62L548.63,143.64L548.51,144.08L548.01,148.54L548.04,148.99L549.09,153.35L549.27,153.76L552.06,157.84L552.38,158.15L556.06,160.72L556.47,160.91L561.26,162.1L561.71,162.13L566.17,161.6L566.6,161.47L570.97,159.18L571.33,158.9L574.31,155.55L574.54,155.16L576.2,150.99L576.3,150.55L576.55,147.86Z" style="fill: rgb(204, 204, 204); fill-opacity: 0.5; stroke-width: 0;"/></g></g><g class="errorbars"/><g class="lines"><path class="js-line" d="M576.55,147.86L575.7,143L575.54,142.58L573.24,138.72L572.95,138.38L569.09,135.31L568.69,135.1L563.96,133.68L563.51,133.64L559.03,133.96L558.6,134.07L554.49,135.89L554.12,136.14L550.88,139.25L550.62,139.62L548.63,143.64L548.51,144.08L548.01,148.54L548.04,148.99L549.09,153.35L549.27,153.76L552.06,157.84L552.38,158.15L556.06,160.72L556.47,160.91L561.26,162.1L561.71,162.13L566.17,161.6L566.6,161.47L570.97,159.18L571.33,158.9L574.31,155.55L574.54,155.16L576.2,150.99L576.3,150.55L576.55,147.86" style="vector-effect: none; fill: none; stroke: rgb(0, 0, 0); stroke-opacity: 1; stroke-width: 2px; opacity: 1;"/></g><g class="points"/><g class="text"/></g><g class="trace scatter trace14b640" style="stroke-miterlimit: 2; opacity: 1;"><g class="fills"/><g class="errorbars"/><g class="lines"><path class="js-line" d="M597.97,147.86L597.1,140.04L596.84,138.94L594.04,131.58L593.51,130.59L589.7,125.01L588.96,124.16L583.12,118.89L582.19,118.24L575.21,114.6L574.16,114.2L566.49,112.42L565.37,112.3L558.62,112.36L557.5,112.49L549.86,114.4L548.81,114.8L541.89,118.56L540.98,119.22L535.96,123.74L535.22,124.58L531.32,130.1L530.77,131.08L527.86,138.4L527.58,139.49L526.62,146.17L526.59,147.3L527.33,155.14L527.58,156.23L529.77,162.62L530.26,163.64L533.8,169.38L534.49,170.27L540.08,175.82L540.98,176.5L546.75,180L547.77,180.48L555.28,182.86L556.38,183.07L564.25,183.5L565.37,183.42L573.09,181.88L574.16,181.52L581.25,178.09L582.19,177.48L587.41,173.2L588.2,172.39L592.95,166.11L593.51,165.14L596.54,157.87L596.84,156.78L597.95,148.99L597.97,147.86" style="vector-effect: none; fill: none; stroke: rgb(0, 0, 0); stroke-opacity: 1; stroke-dasharray: 9px, 9px; stroke-width: 2px; opacity: 1;"/></g><g class="points"/><g class="text"/></g></g></g></g><path class="xlines-above crisp" d="M0,0" style="fill: none;"/><path class="ylines-above crisp" d="M0,0" style="fill: none;"/><g class="overlines-above"/><g class="xaxislayer-above"><g class="xtick"><text text-anchor="middle" x="0" y="350" transform="translate(173.56,0)" style="font-family: 'Open Sans', verdana, arial, sans-serif; font-size: 28px; fill: rgb(0, 0, 0); fill-opacity: 1; white-space: pre; opacity: 1;">-500</text></g><g class="xtick"><text text-anchor="middle" x="0" y="350" style="font-family: 'Open Sans', verdana, arial, sans-serif; font-size: 28px; fill: rgb(0, 0, 0); fill-opacity: 1; white-space: pre; opacity: 1;" transform="translate(244.95,0)">-400</text></g><g class="xtick"><text text-anchor="middle" x="0" y="350" style="font-family: 'Open Sans', verdana, arial, sans-serif; font-size: 28px; fill: rgb(0, 0, 0); fill-opacity: 1; white-space: pre; opacity: 1;" transform="translate(316.34000000000003,0)">-300</text></g><g class="xtick"><text text-anchor="middle" x="0" y="350" style="font-family: 'Open Sans', verdana, arial, sans-serif; font-size: 28px; fill: rgb(0, 0, 0); fill-opacity: 1; white-space: pre; opacity: 1;" transform="translate(387.73,0)">-200</text></g><g class="xtick"><text text-anchor="middle" x="0" y="350" style="font-family: 'Open Sans', verdana, arial, sans-serif; font-size: 28px; fill: rgb(0, 0, 0); fill-opacity: 1; white-space: pre; opacity: 1;" transform="translate(459.11,0)">-100</text></g><g class="xtick"><text text-anchor="middle" x="0" y="350" style="font-family: 'Open Sans', verdana, arial, sans-serif; font-size: 28px; fill: rgb(0, 0, 0); fill-opacity: 1; white-space: pre; opacity: 1;" transform="translate(530.5,0)">0</text></g><g class="xtick"><text text-anchor="middle" x="0" y="350" style="font-family: 'Open Sans', verdana, arial, sans-serif; font-size: 28px; fill: rgb(0, 0, 0); fill-opacity: 1; white-space: pre; opacity: 1;" transform="translate(601.89,0)">100</text></g><g class="xtick"><text text-anchor="middle" x="0" y="350" style="font-family: 'Open Sans', verdana, arial, sans-serif; font-size: 28px; fill: rgb(0, 0, 0); fill-opacity: 1; white-space: pre; opacity: 1;" transform="translate(673.27,0)">200</text></g><g class="xtick"><text text-anchor="middle" x="0" y="350" style="font-family: 'Open Sans', verdana, arial, sans-serif; font-size: 28px; fill: rgb(0, 0, 0); fill-opacity: 1; white-space: pre; opacity: 1;" transform="translate(744.66,0)">300</text></g><g class="xtick"><text text-anchor="middle" x="0" y="350" style="font-family: 'Open Sans', verdana, arial, sans-serif; font-size: 28px; fill: rgb(0, 0, 0); fill-opacity: 1; white-space: pre; opacity: 1;" transform="translate(816.05,0)">400</text></g><g class="xtick"><text text-anchor="middle" x="0" y="350" style="font-family: 'Open Sans', verdana, arial, sans-serif; font-size: 28px; fill: rgb(0, 0, 0); fill-opacity: 1; white-space: pre; opacity: 1;" transform="translate(887.44,0)">500</text></g></g><g class="yaxislayer-above"><g class="ytick"><text text-anchor="end" x="110" y="9.799999999999999" transform="translate(0,308.77)" style="font-family: 'Open Sans', verdana, arial, sans-serif; font-size: 28px; fill: rgb(0, 0, 0); fill-opacity: 1; white-space: pre; opacity: 1;">-200</text></g><g class="ytick"><text text-anchor="end" x="110" y="9.799999999999999" style="font-family: 'Open Sans', verdana, arial, sans-serif; font-size: 28px; fill: rgb(0, 0, 0); fill-opacity: 1; white-space: pre; opacity: 1;" transform="translate(0,273.08)">-150</text></g><g class="ytick"><text text-anchor="end" x="110" y="9.799999999999999" style="font-family: 'Open Sans', verdana, arial, sans-serif; font-size: 28px; fill: rgb(0, 0, 0); fill-opacity: 1; white-space: pre; opacity: 1;" transform="translate(0,237.39)">-100</text></g><g class="ytick"><text text-anchor="end" x="110" y="9.799999999999999" style="font-family: 'Open Sans', verdana, arial, sans-serif; font-size: 28px; fill: rgb(0, 0, 0); fill-opacity: 1; white-space: pre; opacity: 1;" transform="translate(0,201.69)">-50</text></g><g class="ytick"><text text-anchor="end" x="110" y="9.799999999999999" style="font-family: 'Open Sans', verdana, arial, sans-serif; font-size: 28px; fill: rgb(0, 0, 0); fill-opacity: 1; white-space: pre; opacity: 1;" transform="translate(0,166)">0</text></g><g class="ytick"><text text-anchor="end" x="110" y="9.799999999999999" style="font-family: 'Open Sans', verdana, arial, sans-serif; font-size: 28px; fill: rgb(0, 0, 0); fill-opacity: 1; white-space: pre; opacity: 1;" transform="translate(0,130.31)">50</text></g><g class="ytick"><text text-anchor="end" x="110" y="9.799999999999999" style="font-family: 'Open Sans', verdana, arial, sans-serif; font-size: 28px; fill: rgb(0, 0, 0); fill-opacity: 1; white-space: pre; opacity: 1;" transform="translate(0,94.61)">100</text></g><g class="ytick"><text text-anchor="end" x="110" y="9.799999999999999" style="font-family: 'Open Sans', verdana, arial, sans-serif; font-size: 28px; fill: rgb(0, 0, 0); fill-opacity: 1; white-space: pre; opacity: 1;" transform="translate(0,58.92)">150</text></g><g class="ytick"><text text-anchor="end" x="110" y="9.799999999999999" style="font-family: 'Open Sans', verdana, arial, sans-serif; font-size: 28px; fill: rgb(0, 0, 0); fill-opacity: 1; white-space: pre; opacity: 1;" transform="translate(0,23.23)">200</text></g></g><g class="overaxes-above"/></g></g><g class="polarlayer"/><g class="smithlayer"/><g class="ternarylayer"/><g class="geolayer"/><g class="funnelarealayer"/><g class="pielayer"/><g class="iciclelayer"/><g class="treemaplayer"/><g class="sunburstlayer"/><g class="glimages"/><defs id="topdefs-1df352"><g class="clips"/><clipPath id="legend1df352"><rect width="228" height="304" x="0" y="0"/></clipPath></defs><g class="layer-above"><g class="imagelayer"/><g class="shapelayer"/></g><g class="infolayer"><g class="legend" pointer-events="all" transform="translate(966.78,11)"><rect class="bg" shape-rendering="crispEdges" width="228" height="304" x="0" y="0" style="stroke: rgb(68, 68, 68); stroke-opacity: 1; fill: rgb(255, 255, 255); fill-opacity: 1; stroke-width: 0px;"/><g class="scrollbox" transform="" clip-path="url(#legend1df352)"><g class="groups" transform=""><g class="traces" transform="translate(0,26.650000000000002)" style="opacity: 1;"><text class="legendtext" text-anchor="start" x="5" y="12.090000000000002" style="font-family: 'Open Sans', verdana, arial, sans-serif; font-size: 31px; fill: rgb(0, 0, 0); fill-opacity: 1; white-space: pre;">Own ship</text><g class="layers"><g class="legendfill"/><g class="legendlines"/><g class="legendsymbols"><g class="legendpoints"/></g></g><rect class="legendtoggle" x="0" y="-21.650000000000002" width="222.65625" height="43.300000000000004" style="fill: rgb(0, 0, 0); fill-opacity: 0;"/></g><g class="traces" transform="translate(0,68)" style="opacity: 1;"><text class="legendtext" text-anchor="start" x="40" y="10.92" style="font-family: 'Open Sans', verdana, arial, sans-serif; font-size: 28px; fill: rgb(0, 0, 0); fill-opacity: 1; white-space: pre;">Trajectory</text><g class="layers" style="opacity: 1;"><g class="legendfill"/><g class="legendlines"><path class="js-line" d="M5,0h30" style="fill: none; stroke: rgb(100, 143, 255); stroke-opacity: 1; stroke-width: 2px;"/></g><g class="legendsymbols"><g class="legendpoints"/></g></g><rect class="legendtoggle" x="0" y="-19.7" width="222.65625" height="39.4" style="fill: rgb(0, 0, 0); fill-opacity: 0;"/></g><g class="traces" transform="translate(0,107.4)" style="opacity: 1;"><text class="legendtext" text-anchor="start" x="40" y="10.92" style="font-family: 'Open Sans', verdana, arial, sans-serif; font-size: 28px; fill: rgb(0, 0, 0); fill-opacity: 1; white-space: pre;">Control point</text><g class="layers" style="opacity: 1;"><g class="legendfill"/><g class="legendlines"/><g class="legendsymbols"><g class="legendpoints"><path class="scatterpts" transform="translate(20,0)" d="M4,0A4,4 0 1,1 0,-4A4,4 0 0,1 4,0Z" style="opacity: 1; stroke-width: 0px; fill: rgb(100, 143, 255); fill-opacity: 1;"/></g></g></g><rect class="legendtoggle" x="0" y="-19.7" width="222.65625" height="39.4" style="fill: rgb(0, 0, 0); fill-opacity: 0;"/></g><g class="traces" transform="translate(0,146.79999999999998)" style="opacity: 1;"><text class="legendtext" text-anchor="start" x="40" y="10.92" style="font-family: 'Open Sans', verdana, arial, sans-serif; font-size: 28px; fill: rgb(0, 0, 0); fill-opacity: 1; white-space: pre;">Break point</text><g class="layers" style="opacity: 1;"><g class="legendfill"/><g class="legendlines"/><g class="legendsymbols"><g class="legendpoints"><path class="scatterpts" transform="translate(20,0)" d="M-3.0000000000000004,-6.93L-2.9999999999999996,6.93L6,-3.6739403974420594e-16Z" style="opacity: 1; stroke-width: 0px; fill: rgb(12, 51, 131); fill-opacity: 1;"/></g></g></g><rect class="legendtoggle" x="0" y="-19.7" width="222.65625" height="39.4" style="fill: rgb(0, 0, 0); fill-opacity: 0;"/></g></g><g class="groups" transform="translate(0,10)"><g class="traces" transform="translate(0,188.15)" style="opacity: 1;"><text class="legendtext" text-anchor="start" x="5" y="12.090000000000002" style="font-family: 'Open Sans', verdana, arial, sans-serif; font-size: 31px; fill: rgb(0, 0, 0); fill-opacity: 1; white-space: pre;">Target ship</text><g class="layers"><g class="legendfill"/><g class="legendlines"/><g class="legendsymbols"><g class="legendpoints"/></g></g><rect class="legendtoggle" x="0" y="-21.650000000000002" width="222.65625" height="43.300000000000004" style="fill: rgb(0, 0, 0); fill-opacity: 0;"/></g><g class="traces" transform="translate(0,229.5)" style="opacity: 1;"><text class="legendtext" text-anchor="start" x="40" y="10.92" style="font-family: 'Open Sans', verdana, arial, sans-serif; font-size: 28px; fill: rgb(0, 0, 0); fill-opacity: 1; white-space: pre;">Extent</text><g class="layers" style="opacity: 1;"><g class="legendfill"><path class="js-fill" d="M5,-2h30v6h-30z" style="stroke-width: 0; fill: rgb(204, 204, 204); fill-opacity: 0.5;"/></g><g class="legendlines"><path class="js-line" d="M5,-2h30" style="fill: none; stroke: rgb(0, 0, 0); stroke-opacity: 1; stroke-width: 2px;"/></g><g class="legendsymbols"><g class="legendpoints"/></g></g><rect class="legendtoggle" x="0" y="-19.7" width="222.65625" height="39.4" style="fill: rgb(0, 0, 0); fill-opacity: 0;"/></g><g class="traces" transform="translate(0,268.90000000000003)" style="opacity: 1;"><text class="legendtext" text-anchor="start" x="40" y="10.92" style="font-family: 'Open Sans', verdana, arial, sans-serif; font-size: 28px; fill: rgb(0, 0, 0); fill-opacity: 1; white-space: pre;">Domain</text><g class="layers" style="opacity: 1;"><g class="legendfill"/><g class="legendlines"><path class="js-line" d="M5,0h30" style="fill: none; stroke: rgb(0, 0, 0); stroke-opacity: 1; stroke-dasharray: 9px, 9px; stroke-width: 2px;"/></g><g class="legendsymbols"><g class="legendpoints"/></g></g><rect class="legendtoggle" x="0" y="-19.7" width="222.65625" height="39.4" style="fill: rgb(0, 0, 0); fill-opacity: 0;"/></g></g></g><rect class="scrollbar" rx="20" ry="3" width="0" height="0" x="0" y="0" style="fill: rgb(128, 139, 164); fill-opacity: 1;"/></g><g class="g-gtitle"/><g class="g-xtitle" transform="translate(0,-1.3000000000000114)"><text class="xtitle" x="530.5" y="394.3" text-anchor="middle" style="opacity: 1; font-family: 'Open Sans', verdana, arial, sans-serif; font-size: 34px; fill: rgb(0, 0, 0); fill-opacity: 1; white-space: pre;">East [m]</text></g><g class="g-ytitle" transform="translate(16.525390625,0)"><text class="ytitle" transform="rotate(-90,17.474999999999994,166)" x="17.474999999999994" y="166" text-anchor="middle" style="opacity: 1; font-family: 'Open Sans', verdana, arial, sans-serif; font-size: 34px; fill: rgb(0, 0, 0); fill-opacity: 1; white-space: pre;">North [m]</text></g></g></svg>