<svg class="main-svg" xmlns="http://www.w3.org/2000/svg" xmlns:xlink="http://www.w3.org/1999/xlink" width="1200" height="400" style="" viewBox="0 0 1200 400"><rect x="0" y="0" width="1200" height="400" style="fill: rgb(255, 255, 255); fill-opacity: 1;"/><defs id="defs-8f6f8b"><g class="clips"><clipPath id="clip8f6f8bxyplot" class="plotclip"><rect width="868" height="316"/></clipPath><clipPath class="axesclip" id="clip8f6f8bx"><rect x="101" y="0" width="868" height="400"/></clipPath><clipPath class="axesclip" id="clip8f6f8by"><rect x="0" y="12" width="1200" height="316"/></clipPath><clipPath class="axesclip" id="clip8f6f8bxy"><rect x="101" y="12" width="868" height="316"/></clipPath></g><g class="gradients"/><g class="patterns"/></defs><g class="bglayer"/><g class="layer-below"><g class="imagelayer"/><g class="shapelayer"/></g><g class="cartesianlayer"><g class="subplot xy"><g class="layer-subplot"><g class="shapelayer"/><g class="imagelayer"/></g><g class="minor-gridlayer"><g class="x"/><g class="y"/></g><g class="gridlayer"><g class="x"><path class="xgrid crisp" transform="translate(163.82999999999998,0)" d="M0,12v316" style="stroke: rgb(200, 200, 200); stroke-opacity: 1; stroke-width: 1px;"/><path class="xgrid crisp" transform="translate(238.06,0)" d="M0,12v316" style="stroke: rgb(200, 200, 200); stroke-opacity: 1; stroke-width: 1px;"/><path class="xgrid crisp" transform="translate(312.3,0)" d="M0,12v316" style="stroke: rgb(200, 200, 200); stroke-opacity: 1; stroke-width: 1px;"/><path class="xgrid crisp" transform="translate(386.53,0)" d="M0,12v316" style="stroke: rgb(200, 200, 200); stroke-opacity: 1; stroke-width: 1px;"/><path class="xgrid crisp" transform="translate(460.77,0)" d="M0,12v316" style="stroke: rgb(200, 200, 200); stroke-opacity: 1; stroke-width: 1px;"/><path class="xgrid crisp" transform="translate(609.23,0)" d="M0,12v316" style="stroke: rgb(200, 200, 200); stroke-opacity: 1; stroke-width: 1px;"/><path class="xgrid crisp" transform="translate(683.47,0)" d="M0,12v316" style="stroke: rgb(200, 200, 200); stroke-opacity: 1; stroke-width: 1px;"/><path class="xgrid crisp" transform="translate(757.7,0)" d="M0,12v316" style="stroke: rgb(200, 200, 200); stroke-opacity: 1; stroke-width: 1px;"/><path class="xgrid crisp" transform="translate(831.94,0)" d="M0,12v316" style="stroke: rgb(200, 200, 200); stroke-opacity: 1; stroke-width: 1px;"/><path class="xgrid crisp" transform="translate(906.17,0)" d="M0,12v316" style="stroke: rgb(200, 200, 200); stroke-opacity: 1; stroke-width: 1px;"/></g><g class="y"><path class="ygrid crisp" transform="translate(0,318.47)" d="M101,0h868" style="stroke: rgb(200, 200, 200); stroke-opacity: 1; stroke-width: 1px;"/><path class="ygrid crisp" transform="translate(0,281.35)" d="M101,0h868" style="stroke: rgb(200, 200, 200); stroke-opacity: 1; stroke-width: 1px;"/><path class="ygrid crisp" transform="translate(0,244.23)" d="M101,0h868" style="stroke: rgb(200, 200, 200); stroke-opacity: 1; stroke-width: 1px;"/><path class="ygrid crisp" transform="translate(0,207.12)" d="M101,0h868" style="stroke: rgb(200, 200, 200); stroke-opacity: 1; stroke-width: 1px;"/><path class="ygrid crisp" transform="translate(0,132.88)" d="M101,0h868" style="stroke: rgb(200, 200, 200); stroke-opacity: 1; stroke-width: 1px;"/><path class="ygrid crisp" transform="translate(0,95.77)" d="M101,0h868" style="stroke: rgb(200, 200, 200); stroke-opacity: 1; stroke-width: 1px;"/><path class="ygrid crisp" transform="translate(0,58.65)" d="M101,0h868" style="stroke: rgb(200, 200, 200); stroke-opacity: 1; stroke-width: 1px;"/><path class="ygrid crisp" transform="translate(0,21.53)" d="M101,0h868" style="stroke: rgb(200, 200, 200); stroke-opacity: 1; stroke-width: 1px;"/></g></g><g class="zerolinelayer"><path class="xzl zl crisp" transform="translate(535,0)" d="M0,12v316" style="stroke: rgb(200, 200, 200); stroke-opacity: 1; stroke-width: 2px;"/><path class="yzl zl crisp" transform="translate(0,170)" d="M101,0h868" style="stroke: rgb(200, 200, 200); stroke-opacity: 1; stroke-width: 2px;"/></g><g class="layer-between"><g class="shapelayer"/><g class="imagelayer"/></g><path class="xlines-below"/><path class="ylines-below"/><g class="overlines-below"/><g class="xaxislayer-below"/><g class="yaxislayer-below"/><g class="overaxes-below"/><g class="overplot"><g class="xy" transform="translate(101,12)" clip-path="url(#clip8f6f8bxyplot)"><g class="scatterlayer mlayer"><g class="trace scatter tracee1438c" style="stroke-miterlimit: 2; opacity: 1;"><g class="fills"/><g class="errorbars"/><g class="lines"><path class="js-line" d="M62.83,158L99.38,153.35L101.18,153.11L183.21,141.67L185.85,141.28L328.56,121.29L331.51,120.95L375.77,116.53L378.71,116.29L416.82,113.97L419.73,113.86L454.54,113.36L457.42,113.39L491.76,114.73L494.6,114.91L531.23,118.1L534.03,118.39L586.54,124.97L589.27,125.34L675.32,138.07L677.97,138.48L809.14,158.92" style="vector-effect: none; fill: none; stroke: rgb(100, 143, 255); stroke-opacity: 1; stroke-width: 2px; opacity: 1;"/></g><g class="points"/><g class="text"/></g><g class="trace scatter trace0c125d" style="stroke-miterlimit: 2; opacity: 1;"><g class="fills"/><g class="errorbars"/><g class="lines"/><g class="points"><path class="point" transform="translate(62.83,158)" d="M4,0A4,4 0 1,1 0,-4A4,4 0 0,1 4,0Z" style="opacity: 1; stroke-width: 0px; fill: rgb(100, 143, 255); fill-opacity: 1;"/><path class="point" transform="translate(62.83,158)" d="M4,0A4,4 0 1,1 0,-4A4,4 0 0,1 4,0Z" style="opacity: 1; stroke-width: 0px; fill: rgb(100, 143, 255); fill-opacity: 1;"/><path class="point" transform="translate(101.45,153.36)" d="M4,0A4,4 0 1,1 0,-4A4,4 0 0,1 4,0Z" style="opacity: 1; stroke-width: 0px; fill: rgb(100, 143, 255); fill-opacity: 1;"/><path class="point" transform="translate(211.36,137.76)" d="M4,0A4,4 0 1,1 0,-4A4,4 0 0,1 4,0Z" style="opacity: 1; stroke-width: 0px; fill: rgb(100, 143, 255); fill-opacity: 1;"/><path class="point" transform="translate(337.99,118.5)" d="M4,0A4,4 0 1,1 0,-4A4,4 0 0,1 4,0Z" style="opacity: 1; stroke-width: 0px; fill: rgb(100, 143, 255); fill-opacity: 1;"/><path class="point" transform="translate(463.76,109.64)" d="M4,0A4,4 0 1,1 0,-4A4,4 0 0,1 4,0Z" style="opacity: 1; stroke-width: 0px; fill: rgb(100, 143, 255); fill-opacity: 1;"/><path class="point" transform="translate(583.58,123.86)" d="M4,0A4,4 0 1,1 0,-4A4,4 0 0,1 4,0Z" style="opacity: 1; stroke-width: 0px; fill: rgb(100, 143, 255); fill-opacity: 1;"/><path class="point" transform="translate(697.7,141.51)" d="M4,0A4,4 0 1,1 0,-4A4,4 0 0,1 4,0Z" style="opacity: 1; stroke-width: 0px; fill: rgb(100, 143, 255); fill-opacity: 1;"/><path class="point" transform="translate(771.97,153.14)" d="M4,0A4,4 0 1,1 0,-4A4,4 0 0,1 4,0Z" style="opacity: 1; stroke-width: 0px; fill: rgb(100, 143, 255); fill-opacity: 1;"/><path class="point" transform="translate(809.14,158.92)" d="M4,0A4,4 0 1,1 0,-4A4,4 0 0,1 4,0Z" style="opacity: 1; stroke-width: 0px; fill: rgb(100, 143, 255); fill-opacity: 1;"/></g><g class="text"/></g><g class="trace scatter trace7d413b" style="stroke-miterlimit: 2; opacity: 1;"><g class="fills"/><g class="errorbars"/><g class="lines"/><g class="points"><path class="point" transform="translate(62.83,158)" d="M0,0Z" style="opacity: 1; stroke-width: 0px; fill: rgb(68, 1, 84); fill-opacity: 1;"/><path class="point" transform="translate(110.11,151.92)" d="M-3.858857864492645,-6.491079723870541L-2.092200997152088,7.255866246528791L5.951058861644733,-0.7647865226582498Z" style="opacity: 1; stroke-width: 0px; fill: rgb(69, 50, 125); fill-opacity: 1;"/><path class="point" transform="translate(214.15,137.15)" d="M-3.9443524778589145,-6.4394862784548454L-1.996073267028195,7.282897192234378L5.94042574488711,-0.8434109137795321Z" style="opacity: 1; stroke-width: 0px; fill: rgb(54, 91, 140); fill-opacity: 1;"/><path class="point" transform="translate(337.84,120.23)" d="M-3.91178944544186,-6.459319107655982L-2.0328189364104396,7.272726254422831L5.9446083818523,-0.8134071467668489Z" style="opacity: 1; stroke-width: 0px; fill: rgb(39, 127, 142); fill-opacity: 1;"/><path class="point" transform="translate(462.77,113.48)" d="M-3.3690611224496108,-6.758278416371922L-2.6222219268295204,7.08158542746287L5.991283049279131,-0.3233070110909483Z" style="opacity: 1; stroke-width: 0px; fill: rgb(34, 162, 135); fill-opacity: 1;"/><path class="point" transform="translate(582.63,124.43)" d="M-2.357249879300274,-7.174139182267016L-3.6178803712756578,6.628411696563386L5.975130250575932,0.5457274857036295Z" style="opacity: 1; stroke-width: 0px; fill: rgb(78, 193, 106); fill-opacity: 1;"/><path class="point" transform="translate(697.24,141.47)" d="M-1.9483464368966343,-7.2958101785773035L-3.986429829074612,6.413522995816274L5.934776265971246,0.8822871827610292Z" style="opacity: 1; stroke-width: 0px; fill: rgb(162, 218, 55); fill-opacity: 1;"/><path class="point" transform="translate(809.14,158.92)" d="M-1.8960937112956433,-7.309564189333392L-4.032217706976094,6.384835186874321L5.928311418271737,0.9247290024590695Z" style="opacity: 1; stroke-width: 0px; fill: rgb(253, 231, 37); fill-opacity: 1;"/></g><g class="text"/></g><g class="trace scatter trace53553a" style="stroke-miterlimit: 2; opacity: 1;"><g class="fills"><g><path class="js-fill" d="M448.85,150.58L448.11,145.97L447.96,145.52L445.7,141.44L445.41,141.07L441.49,137.76L441.08,137.53L436.68,135.97L436.22,135.9L431.55,135.93L431.09,136.02L426.71,137.64L426.31,137.88L422.74,140.89L422.44,141.25L419.96,145.74L419.82,146.19L419.15,150.81L419.17,151.28L420.12,155.85L420.29,156.29L422.74,160.26L423.06,160.61L426.71,163.51L427.12,163.74L431.55,165.22L432.01,165.29L436.68,165.18L437.14,165.09L441.49,163.4L441.89,163.15L445.41,160.08L445.7,159.72L448.11,155.19L448.25,154.74L448.85,150.58Z" style="fill: rgb(204, 204, 204); fill-opacity: 0.5; stroke-width: 0;"/></g></g><g class="errorbars"/><g class="lines"><path class="js-line" d="M448.85,150.58L448.11,145.97L447.96,145.52L445.7,141.44L445.41,141.07L441.49,137.76L441.08,137.53L436.68,135.97L436.22,135.9L431.55,135.93L431.09,136.02L426.71,137.64L426.31,137.88L422.74,140.89L422.44,141.25L419.96,145.74L419.82,146.19L419.15,150.81L419.17,151.28L420.12,155.85L420.29,156.29L422.74,160.26L423.06,160.61L426.71,163.51L427.12,163.74L431.55,165.22L432.01,165.29L436.68,165.18L437.14,165.09L441.49,163.4L441.89,163.15L445.41,160.08L445.7,159.72L448.11,155.19L448.25,154.74L448.85,150.58" style="vector-effect: none; fill: none; stroke: rgb(0, 0, 0); stroke-opacity: 1; stroke-width: 2px; opacity: 1;"/></g><g class="points"/><g class="text"/></g><g class="trace scatter trace14cbc1" style="stroke-miterlimit: 2; opacity: 1;"><g class="fills"/><g class="errorbars"/><g class="lines"><path class="js-line" d="M471.12,150.58L470.45,143.59L470.21,142.44L468.03,135.77L467.55,134.7L463.96,128.66L463.25,127.73L458.43,122.63L457.53,121.87L451.71,117.95L450.67,117.41L444.12,114.87L442.99,114.56L434.88,113.47L433.71,113.46L426.72,114.18L425.58,114.43L418.92,116.66L417.86,117.15L411.85,120.79L410.92,121.5L405.11,127.27L404.39,128.19L400.2,135.23L399.74,136.3L397.66,143.01L397.44,144.16L396.92,152.33L397,153.5L398.21,160.42L398.54,161.54L401.24,168.03L401.81,169.05L405.86,174.78L406.64,175.66L412.8,181.05L413.78,181.7L420,184.95L421.09,185.38L427.88,187.19L429.03,187.36L436.05,187.64L437.22,187.55L444.12,186.29L445.25,185.95L451.71,183.2L452.73,182.62L458.43,178.52L459.3,177.74L463.96,172.49L464.64,171.53L468.48,164.31L468.9,163.21L470.66,156.41L470.82,155.25L471.12,150.58" style="vector-effect: none; fill: none; stroke: rgb(0, 0, 0); stroke-opacity: 1; stroke-dasharray: 9px, 9px; stroke-width: 2px; opacity: 1;"/></g><g class="points"/><g class="text"/></g><g class="trace scatter trace38dc88" style="stroke-miterlimit: 2; opacity: 1;"><g class="fills"><g><path class="js-fill" d="M597.32,165.42L596.58,160.81L596.43,160.37L594.17,156.28L593.88,155.92L590.36,152.85L589.96,152.6L585.61,150.91L585.15,150.82L580.48,150.71L580.02,150.78L575.59,152.26L575.18,152.49L571.53,155.39L571.21,155.74L568.76,159.71L568.59,160.15L567.64,164.72L567.62,165.19L568.29,169.81L568.43,170.26L570.63,174.38L570.91,174.75L574.38,177.87L574.78,178.12L579.1,179.88L579.56,179.98L584.22,180.17L584.69,180.1L589.14,178.69L589.55,178.47L593.25,175.63L593.57,175.28L596.08,171.35L596.26,170.92L597.29,166.36L597.31,165.89L597.32,165.42Z" style="fill: rgb(204, 204, 204); fill-opacity: 0.5; stroke-width: 0;"/></g></g><g class="errorbars"/><g class="lines"><path class="js-line" d="M597.32,165.42L596.58,160.81L596.43,160.37L594.17,156.28L593.88,155.92L590.36,152.85L589.96,152.6L585.61,150.91L585.15,150.82L580.48,150.71L580.02,150.78L575.59,152.26L575.18,152.49L571.53,155.39L571.21,155.74L568.76,159.71L568.59,160.15L567.64,164.72L567.62,165.19L568.29,169.81L568.43,170.26L570.63,174.38L570.91,174.75L574.38,177.87L574.78,178.12L579.1,179.88L579.56,179.98L584.22,180.17L584.69,180.1L589.14,178.69L589.55,178.47L593.25,175.63L593.57,175.28L596.08,171.35L596.26,170.92L597.29,166.36L597.31,165.89L597.32,165.42" style="vector-effect: none; fill: none; stroke: rgb(0, 0, 0); stroke-opacity: 1; stroke-width: 2px; opacity: 1;"/></g><g class="points"/><g class="text"/></g><g class="trace scatter trace14216b" style="stroke-miterlimit: 2; opacity: 1;"><g class="fills"/><g class="errorbars"/><g class="lines"><path class="js-line" d="M619.59,165.42L618.92,158.43L618.68,157.29L616.5,150.61L616.02,149.55L612.43,143.51L611.72,142.58L606.9,137.48L606,136.72L600.18,132.8L599.14,132.26L592.59,129.71L591.46,129.41L583.35,128.32L582.18,128.31L575.19,129.03L574.05,129.27L566.33,132L565.28,132.53L559.39,136.35L558.49,137.09L553.58,142.12L552.86,143.04L548.67,150.08L548.21,151.15L546.13,157.86L545.91,159.01L545.39,167.18L545.47,168.35L546.68,175.27L547.01,176.39L549.71,182.87L550.28,183.9L555.11,190.51L555.91,191.36L562.25,196.55L563.24,197.17L569.56,200.22L570.67,200.61L577.5,202.21L578.67,202.35L585.69,202.4L586.85,202.28L593.72,200.8L594.83,200.42L601.2,197.47L602.2,196.86L607.77,192.59L608.61,191.77L613.11,186.38L613.75,185.4L616.95,179.15L617.37,178.06L619.13,171.26L619.29,170.1L619.59,165.42" style="vector-effect: none; fill: none; stroke: rgb(0, 0, 0); stroke-opacity: 1; stroke-dasharray: 9px, 9px; stroke-width: 2px; opacity: 1;"/></g><g class="points"/><g class="text"/></g></g></g></g><path class="xlines-above crisp" d="M0,0" style="fill: none;"/><path class="ylines-above crisp" d="M0,0" style="fill: none;"/><g class="overlines-above"/><g class="xaxislayer-above"><g class="xtick"><text text-anchor="middle" x="0" y="354" transform="translate(163.82999999999998,0)" style="font-family: 'Open Sans', verdana, arial, sans-serif; font-size: 25px; fill: rgb(0, 0, 0); fill-opacity: 1; white-space: pre; opacity: 1;">-500</text></g><g class="xtick"><text text-anchor="middle" x="0" y="354" style="font-family: 'Open Sans', verdana, arial, sans-serif; font-size: 25px; fill: rgb(0, 0, 0); fill-opacity: 1; white-space: pre; opacity: 1;" transform="translate(238.06,0)">-400</text></g><g class="xtick"><text text-anchor="middle" x="0" y="354" style="font-family: 'Open Sans', verdana, arial, sans-serif; font-size: 25px; fill: rgb(0, 0, 0); fill-opacity: 1; white-space: pre; opacity: 1;" transform="translate(312.3,0)">-300</text></g><g class="xtick"><text text-anchor="middle" x="0" y="354" style="font-family: 'Open Sans', verdana, arial, sans-serif; font-size: 25px; fill: rgb(0, 0, 0); fill-opacity: 1; white-space: pre; opacity: 1;" transform="translate(386.53,0)">-200</text></g><g class="xtick"><text text-anchor="middle" x="0" y="354" style="font-family: 'Open Sans', verdana, arial, sans-serif; font-size: 25px; fill: rgb(0, 0, 0); fill-opacity: 1; white-space: pre; opacity: 1;" transform="translate(460.77,0)">-100</text></g><g class="xtick"><text text-anchor="middle" x="0" y="354" style="font-family: 'Open Sans', verdana, arial, sans-serif; font-size: 25px; fill: rgb(0, 0, 0); fill-opacity: 1; white-space: pre; opacity: 1;" transform="translate(535,0)">0</text></g><g class="xtick"><text text-anchor="middle" x="0" y="354" style="font-family: 'Open Sans', verdana, arial, sans-serif; font-size: 25px; fill: rgb(0, 0, 0); fill-opacity: 1; white-space: pre; opacity: 1;" transform="translate(609.23,0)">100</text></g><g class="xtick"><text text-anchor="middle" x="0" y="354" style="font-family: 'Open Sans', verdana, arial, sans-serif; font-size: 25px; fill: rgb(0, 0, 0); fill-opacity: 1; white-space: pre; opacity: 1;" transform="translate(683.47,0)">200</text></g><g class="xtick"><text text-anchor="middle" x="0" y="354" style="font-family: 'Open Sans', verdana, arial, sans-serif; font-size: 25px; fill: rgb(0, 0, 0); fill-opacity: 1; white-space: pre; opacity: 1;" transform="translate(757.7,0)">300</text></g><g class="xtick"><text text-anchor="middle" x="0" y="354" style="font-family: 'Open Sans', verdana, arial, sans-serif; font-size: 25px; fill: rgb(0, 0, 0); fill-opacity: 1; white-space: pre; opacity: 1;" transform="translate(831.94,0)">400</text></g><g class="xtick"><text text-anchor="middle" x="0" y="354" style="font-family: 'Open Sans', verdana, arial, sans-serif; font-size: 25px; fill: rgb(0, 0, 0); fill-opacity: 1; white-space: pre; opacity: 1;" transform="translate(906.17,0)">500</text></g></g><g class="yaxislayer-above"><g class="ytick"><text text-anchor="end" x="100" y="8.75" transform="translate(0,318.47)" style="font-family: 'Open Sans', verdana, arial, sans-serif; font-size: 25px; fill: rgb(0, 0, 0); fill-opacity: 1; white-space: pre; opacity: 1;">-200</text></g><g class="ytick"><text text-anchor="end" x="100" y="8.75" style="font-family: 'Open Sans', verdana, arial, sans-serif; font-size: 25px; fill: rgb(0, 0, 0); fill-opacity: 1; white-space: pre; opacity: 1;" transform="translate(0,281.35)">-150</text></g><g class="ytick"><text text-anchor="end" x="100" y="8.75" style="font-family: 'Open Sans', verdana, arial, sans-serif; font-size: 25px; fill: rgb(0, 0, 0); fill-opacity: 1; white-space: pre; opacity: 1;" transform="translate(0,244.23)">-100</text></g><g class="ytick"><text text-anchor="end" x="100" y="8.75" style="font-family: 'Open Sans', verdana, arial, sans-serif; font-size: 25px; fill: rgb(0, 0, 0); fill-opacity: 1; white-space: pre; opacity: 1;" transform="translate(0,207.12)">-50</text></g><g class="ytick"><text text-anchor="end" x="100" y="8.75" style="font-family: 'Open Sans', verdana, arial, sans-serif; font-size: 25px; fill: rgb(0, 0, 0); fill-opacity: 1; white-space: pre; opacity: 1;" transform="translate(0,170)">0</text></g><g class="ytick"><text text-anchor="end" x="100" y="8.75" style="font-family: 'Open Sans', verdana, arial, sans-serif; font-size: 25px; fill: rgb(0, 0, 0); fill-opacity: 1; white-space: pre; opacity: 1;" transform="translate(0,132.88)">50</text></g><g class="ytick"><text text-anchor="end" x="100" y="8.75" style="font-family: 'Open Sans', verdana, arial, sans-serif; font-size: 25px; fill: rgb(0, 0, 0); fill-opacity: 1; white-space: pre; opacity: 1;" transform="translate(0,95.77)">100</text></g><g class="ytick"><text text-anchor="end" x="100" y="8.75" style="font-family: 'Open Sans', verdana, arial, sans-serif; font-size: 25px; fill: rgb(0, 0, 0); fill-opacity: 1; white-space: pre; opacity: 1;" transform="translate(0,58.65)">150</text></g><g class="ytick"><text text-anchor="end" x="100" y="8.75" style="font-family: 'Open Sans', verdana, arial, sans-serif; font-size: 25px; fill: rgb(0, 0, 0); fill-opacity: 1; white-space: pre; opacity: 1;" transform="translate(0,21.53)">200</text></g></g><g class="overaxes-above"/></g></g><g class="polarlayer"/><g class="smithlayer"/><g class="ternarylayer"/><g class="geolayer"/><g class="funnelarealayer"/><g class="pielayer"/><g class="iciclelayer"/><g class="treemaplayer"/><g class="sunburstlayer"/><g class="glimages"/><defs id="topdefs-8f6f8b"><g class="clips"/><clipPath id="legend8f6f8b"><rect width="209" height="277" x="0" y="0"/></clipPath></defs><g class="layer-above"><g class="imagelayer"/><g class="shapelayer"/></g><g class="infolayer"><g class="legend" pointer-events="all" transform="translate(986.36,12)"><rect class="bg" shape-rendering="crispEdges" width="209" height="277" x="0" y="0" style="stroke: rgb(68, 68, 68); stroke-opacity: 1; fill: rgb(255, 255, 255); fill-opacity: 1; stroke-width: 0px;"/><g class="scrollbox" transform="" clip-path="url(#legend8f6f8b)"><g class="groups" transform=""><g class="traces" transform="translate(0,24.7)" style="opacity: 1;"><text class="legendtext" text-anchor="start" x="5" y="10.92" style="font-family: 'Open Sans', verdana, arial, sans-serif; font-size: 28px; fill: rgb(0, 0, 0); fill-opacity: 1; white-space: pre;">Own ship</text><g class="layers"><g class="legendfill"/><g class="legendlines"/><g class="legendsymbols"><g class="legendpoints"/></g></g><rect class="legendtoggle" x="0" y="-19.7" width="203.234375" height="39.4" style="fill: rgb(0, 0, 0); fill-opacity: 0;"/></g><g class="traces" transform="translate(0,62.15)" style="opacity: 1;"><text class="legendtext" text-anchor="start" x="40" y="9.75" style="font-family: 'Open Sans', verdana, arial, sans-serif; font-size: 25px; fill: rgb(0, 0, 0); fill-opacity: 1; white-space: pre;">Trajectory</text><g class="layers" style="opacity: 1;"><g class="legendfill"/><g class="legendlines"><path class="js-line" d="M5,0h30" style="fill: none; stroke: rgb(100, 143, 255); stroke-opacity: 1; stroke-width: 2px;"/></g><g class="legendsymbols"><g class="legendpoints"/></g></g><rect class="legendtoggle" x="0" y="-17.75" width="203.234375" height="35.5" style="fill: rgb(0, 0, 0); fill-opacity: 0;"/></g><g class="traces" transform="translate(0,97.65)" style="opacity: 1;"><text class="legendtext" text-anchor="start" x="40" y="9.75" style="font-family: 'Open Sans', verdana, arial, sans-serif; font-size: 25px; fill: rgb(0, 0, 0); fill-opacity: 1; white-space: pre;">Control point</text><g class="layers" style="opacity: 1;"><g class="legendfill"/><g class="legendlines"/><g class="legendsymbols"><g class="legendpoints"><path class="scatterpts" transform="translate(20,0)" d="M4,0A4,4 0 1,1 0,-4A4,4 0 0,1 4,0Z" style="opacity: 1; stroke-width: 0px; fill: rgb(100, 143, 255); fill-opacity: 1;"/></g></g></g><rect class="legendtoggle" x="0" y="-17.75" width="203.234375" height="35.5" style="fill: rgb(0, 0, 0); fill-opacity: 0;"/></g><g class="traces" transform="translate(0,133.15)" style="opacity: 1;"><text class="legendtext" text-anchor="start" x="40" y="9.75" style="font-family: 'Open Sans', verdana, arial, sans-serif; font-size: 25px; fill: rgb(0, 0, 0); fill-opacity: 1; white-space: pre;">Break point</text><g class="layers" style="opacity: 1;"><g class="legendfill"/><g class="legendlines"/><g class="legendsymbols"><g class="legendpoints"><path class="scatterpts" transform="translate(20,0)" d="M-3.0000000000000004,-6.93L-2.9999999999999996,6.93L6,-3.6739403974420594e-16Z" style="opacity: 1; stroke-width: 0px; fill: rgb(68, 1, 84); fill-opacity: 1;"/></g></g></g><rect class="legendtoggle" x="0" y="-17.75" width="203.234375" height="35.5" style="fill: rgb(0, 0, 0); fill-opacity: 0;"/></g></g><g class="groups" transform="translate(0,10)"><g class="traces" transform="translate(0,170.6)" style="opacity: 1;"><text class="legendtext" text-anchor="start" x="5" y="10.92" style="font-family: 'Open Sans', verdana, arial, sans-serif; font-size: 28px; fill: rgb(0, 0, 0); fill-opacity: 1; white-space: pre;">Target ship</text><g class="layers"><g class="legendfill"/><g class="legendlines"/><g class="legendsymbols"><g class="legendpoints"/></g></g><rect class="legendtoggle" x="0" y="-19.7" width="203.234375" height="39.4" style="fill: rgb(0, 0, 0); fill-opacity: 0;"/></g><g class="traces" transform="translate(0,208.05)" style="opacity: 1;"><text class="legendtext" text-anchor="start" x="40" y="9.75" style="font-family: 'Open Sans', verdana, arial, sans-serif; font-size: 25px; fill: rgb(0, 0, 0); fill-opacity: 1; white-space: pre;">Extent</text><g class="layers" style="opacity: 1;"><g class="legendfill"><path class="js-fill" d="M5,-2h30v6h-30z" style="stroke-width: 0; fill: rgb(204, 204, 204); fill-opacity: 0.5;"/></g><g class="legendlines"><path class="js-line" d="M5,-2h30" style="fill: none; stroke: rgb(0, 0, 0); stroke-opacity: 1; stroke-width: 2px;"/></g><g class="legendsymbols"><g class="legendpoints"/></g></g><rect class="legendtoggle" x="0" y="-17.75" width="203.234375" height="35.5" style="fill: rgb(0, 0, 0); fill-opacity: 0;"/></g><g class="traces" transform="translate(0,243.55)" style="opacity: 1;"><text class="legendtext" text-anchor="start" x="40" y="9.75" style="font-family: 'Open Sans', verdana, arial, sans-serif; font-size: 25px; fill: rgb(0, 0, 0); fill-opacity: 1; white-space: pre;">Domain</text><g class="layers" style="opacity: 1;"><g class="legendfill"/><g class="legendlines"><path class="js-line" d="M5,0h30" style="fill: none; stroke: rgb(0, 0, 0); stroke-opacity: 1; stroke-dasharray: 9px, 9px; stroke-width: 2px;"/></g><g class="legendsymbols"><g class="legendpoints"/></g></g><rect class="legendtoggle" x="0" y="-17.75" width="203.234375" height="35.5" style="fill: rgb(0, 0, 0); fill-opacity: 0;"/></g></g></g><rect class="scrollbar" rx="20" ry="3" width="0" height="0" x="0" y="0" style="fill: rgb(128, 139, 164); fill-opacity: 1;"/></g><g class="g-gtitle"/><g class="g-xtitle" transform="translate(0,-0.5)"><text class="xtitle" x="535" y="394.5" text-anchor="middle" style="opacity: 1; font-family: 'Open Sans', verdana, arial, sans-serif; font-size: 30px; fill: rgb(0, 0, 0); fill-opacity: 1; white-space: pre;">East [m]</text></g><g class="g-ytitle" transform="translate(14.046875,0)"><text class="ytitle" transform="rotate(-90,15.953125,170)" x="15.953125" y="170" text-anchor="middle" style="opacity: 1; font-family: 'Open Sans', verdana, arial, sans-serif; font-size: 30px; fill: rgb(0, 0, 0); fill-opacity: 1; white-space: pre;">North [m]</text></g></g></svg>