<svg class="main-svg" xmlns="http://www.w3.org/2000/svg" xmlns:xlink="http://www.w3.org/1999/xlink" width="1200" height="400" style="" viewBox="0 0 1200 400"><rect x="0" y="0" width="1200" height="400" style="fill: rgb(255, 255, 255); fill-opacity: 1;"/><defs id="defs-61a00d"><g class="clips"><clipPath id="clip61a00dxyplot" class="plotclip"><rect width="868" height="316"/></clipPath><clipPath class="axesclip" id="clip61a00dx"><rect x="101" y="0" width="868" height="400"/></clipPath><clipPath class="axesclip" id="clip61a00dy"><rect x="0" y="12" width="1200" height="316"/></clipPath><clipPath class="axesclip" id="clip61a00dxy"><rect x="101" y="12" width="868" height="316"/></clipPath></g><g class="gradients"/><g class="patterns"/></defs><g class="bglayer"/><g class="layer-below"><g class="imagelayer"/><g class="shapelayer"/></g><g class="cartesianlayer"><g class="subplot xy"><g class="layer-subplot"><g class="shapelayer"/><g class="imagelayer"/></g><g class="minor-gridlayer"><g class="x"/><g class="y"/></g><g class="gridlayer"><g class="x"><path class="xgrid crisp" transform="translate(163.82999999999998,0)" d="M0,12v316" style="stroke: rgb(200, 200, 200); stroke-opacity: 1; stroke-width: 1px;"/><path class="xgrid crisp" transform="translate(238.06,0)" d="M0,12v316" style="stroke: rgb(200, 200, 200); stroke-opacity: 1; stroke-width: 1px;"/><path class="xgrid crisp" transform="translate(312.3,0)" d="M0,12v316" style="stroke: rgb(200, 200, 200); stroke-opacity: 1; stroke-width: 1px;"/><path class="xgrid crisp" transform="translate(386.53,0)" d="M0,12v316" style="stroke: rgb(200, 200, 200); stroke-opacity: 1; stroke-width: 1px;"/><path class="xgrid crisp" transform="translate(460.77,0)" d="M0,12v316" style="stroke: rgb(200, 200, 200); stroke-opacity: 1; stroke-width: 1px;"/><path class="xgrid crisp" transform="translate(609.23,0)" d="M0,12v316" style="stroke: rgb(200, 200, 200); stroke-opacity: 1; stroke-width: 1px;"/><path class="xgrid crisp" transform="translate(683.47,0)" d="M0,12v316" style="stroke: rgb(200, 200, 200); stroke-opacity: 1; stroke-width: 1px;"/><path class="xgrid crisp" transform="translate(757.7,0)" d="M0,12v316" style="stroke: rgb(200, 200, 200); stroke-opacity: 1; stroke-width: 1px;"/><path class="xgrid crisp" transform="translate(831.94,0)" d="M0,12v316" style="stroke: rgb(200, 200, 200); stroke-opacity: 1; stroke-width: 1px;"/><path class="xgrid crisp" transform="translate(906.17,0)" d="M0,12v316" style="stroke: rgb(200, 200, 200); stroke-opacity: 1; stroke-width: 1px;"/></g><g class="y"><path class="ygrid crisp" transform="translate(0,318.47)" d="M101,0h868" style="stroke: rgb(200, 200, 200); stroke-opacity: 1; stroke-width: 1px;"/><path class="ygrid crisp" transform="translate(0,281.35)" d="M101,0h868" style="stroke: rgb(200, 200, 200); stroke-opacity: 1; stroke-width: 1px;"/><path class="ygrid crisp" transform="translate(0,244.23)" d="M101,0h868" style="stroke: rgb(200, 200, 200); stroke-opacity: 1; stroke-width: 1px;"/><path class="ygrid crisp" transform="translate(0,207.12)" d="M101,0h868" style="stroke: rgb(200, 200, 200); stroke-opacity: 1; stroke-width: 1px;"/><path class="ygrid crisp" transform="translate(0,132.88)" d="M101,0h868" style="stroke: rgb(200, 200, 200); stroke-opacity: 1; stroke-width: 1px;"/><path class="ygrid crisp" transform="translate(0,95.77)" d="M101,0h868" style="stroke: rgb(200, 200, 200); stroke-opacity: 1; stroke-width: 1px;"/><path class="ygrid crisp" transform="translate(0,58.65)" d="M101,0h868" style="stroke: rgb(200, 200, 200); stroke-opacity: 1; stroke-width: 1px;"/><path class="ygrid crisp" transform="translate(0,21.53)" d="M101,0h868" style="stroke: rgb(200, 200, 200); stroke-opacity: 1; stroke-width: 1px;"/></g></g><g class="zerolinelayer"><path class="xzl zl crisp" transform="translate(535,0)" d="M0,12v316" style="stroke: rgb(200, 200, 200); stroke-opacity: 1; stroke-width: 2px;"/><path class="yzl zl crisp" transform="translate(0,170)" d="M101,0h868" style="stroke: rgb(200, 200, 200); stroke-opacity: 1; stroke-width: 2px;"/></g><g class="layer-between"><g class="shapelayer"/><g class="imagelayer"/></g><path class="xlines-below"/><path class="ylines-below"/><g class="overlines-below"/><g class="xaxislayer-below"/><g class="yaxislayer-below"/><g class="overaxes-below"/><g class="overplot"><g class="xy" transform="translate(101,12)" clip-path="url(#clip61a00dxyplot)"><g class="scatterlayer mlayer"><g class="trace scatter traced1a4fd" style="stroke-miterlimit: 2; opacity: 1;"><g class="fills"/><g class="errorbars"/><g class="lines"><path class="js-line" d="M62.83,158L188.14,158.73L190.87,158.79L234.62,160.4L237.35,160.56L275.54,163.54L278.27,163.81L318.98,168.73L321.68,169.1L370,176.58L372.66,177.02L503.77,198.81L506.38,199.16L537.58,202.38L540.16,202.55L563.36,203.29L565.92,203.27L586.29,202.22L588.82,201.97L606.4,199.42L608.89,198.94L628.72,194.39L631.18,193.74L663.02,184.35L665.46,183.6L702,172.91L704.44,172.29L728.88,166.87L731.33,166.41L758.33,162.05L760.78,161.71L795.26,157.98L797.72,157.77L805.12,157.17" style="vector-effect: none; fill: none; stroke: rgb(100, 143, 255); stroke-opacity: 1; stroke-width: 2px; opacity: 1;"/></g><g class="points"/><g class="text"/></g><g class="trace scatter trace607442" style="stroke-miterlimit: 2; opacity: 1;"><g class="fills"/><g class="errorbars"/><g class="lines"/><g class="points"><path class="point" transform="translate(62.83,158)" d="M4,0A4,4 0 1,1 0,-4A4,4 0 0,1 4,0Z" style="opacity: 1; stroke-width: 0px; fill: rgb(100, 143, 255); fill-opacity: 1;"/><path class="point" transform="translate(62.83,158)" d="M4,0A4,4 0 1,1 0,-4A4,4 0 0,1 4,0Z" style="opacity: 1; stroke-width: 0px; fill: rgb(100, 143, 255); fill-opacity: 1;"/><path class="point" transform="translate(140.81,157.96)" d="M4,0A4,4 0 1,1 0,-4A4,4 0 0,1 4,0Z" style="opacity: 1; stroke-width: 0px; fill: rgb(100, 143, 255); fill-opacity: 1;"/><path class="point" transform="translate(257.78,159.31)" d="M4,0A4,4 0 1,1 0,-4A4,4 0 0,1 4,0Z" style="opacity: 1; stroke-width: 0px; fill: rgb(100, 143, 255); fill-opacity: 1;"/><path class="point" transform="translate(373.85,176.42)" d="M4,0A4,4 0 1,1 0,-4A4,4 0 0,1 4,0Z" style="opacity: 1; stroke-width: 0px; fill: rgb(100, 143, 255); fill-opacity: 1;"/><path class="point" transform="translate(485.07,197.54)" d="M4,0A4,4 0 1,1 0,-4A4,4 0 0,1 4,0Z" style="opacity: 1; stroke-width: 0px; fill: rgb(100, 143, 255); fill-opacity: 1;"/><path class="point" transform="translate(596.7,210.25)" d="M4,0A4,4 0 1,1 0,-4A4,4 0 0,1 4,0Z" style="opacity: 1; stroke-width: 0px; fill: rgb(100, 143, 255); fill-opacity: 1;"/><path class="point" transform="translate(699.96,168.61)" d="M4,0A4,4 0 1,1 0,-4A4,4 0 0,1 4,0Z" style="opacity: 1; stroke-width: 0px; fill: rgb(100, 143, 255); fill-opacity: 1;"/><path class="point" transform="translate(769.99,159.89)" d="M4,0A4,4 0 1,1 0,-4A4,4 0 0,1 4,0Z" style="opacity: 1; stroke-width: 0px; fill: rgb(100, 143, 255); fill-opacity: 1;"/><path class="point" transform="translate(805.12,157.17)" d="M4,0A4,4 0 1,1 0,-4A4,4 0 0,1 4,0Z" style="opacity: 1; stroke-width: 0px; fill: rgb(100, 143, 255); fill-opacity: 1;"/></g><g class="text"/></g><g class="trace scatter trace21393e" style="stroke-miterlimit: 2; opacity: 1;"><g class="fills"/><g class="errorbars"/><g class="lines"/><g class="points"><path class="point" transform="translate(62.83,158)" d="M0,0Z" style="opacity: 1; stroke-width: 0px; fill: rgb(68, 1, 84); fill-opacity: 1;"/><path class="point" transform="translate(140.81,158.19)" d="M-2.982710727401132,-6.937458952429643L-3.0172706199619483,6.922497959979073L5.9999813473630805,0.014960992450569782Z" style="opacity: 1; stroke-width: 0px; fill: rgb(69, 50, 125); fill-opacity: 1;"/><path class="point" transform="translate(257.63,161.94)" d="M-2.7765150170315467,-7.022525497297842L-3.220407037793839,6.830364449348798L5.996922054825386,0.19216104794904432Z" style="opacity: 1; stroke-width: 0px; fill: rgb(54, 91, 140); fill-opacity: 1;"/><path class="point" transform="translate(373.04,177.09)" d="M-2.072423263598356,-7.261539906693093L-3.876529703703108,6.4805414477732874L5.948952967301464,0.7809984589198061Z" style="opacity: 1; stroke-width: 0px; fill: rgb(39, 127, 142); fill-opacity: 1;"/><path class="point" transform="translate(485.14,196.14)" d="M-1.7966202741574946,-7.334647611881994L-4.118581903082417,6.329469417542201L5.9152021772399115,1.0051781943397933Z" style="opacity: 1; stroke-width: 0px; fill: rgb(34, 162, 135); fill-opacity: 1;"/><path class="point" transform="translate(595.3,201.19)" d="M-2.679121542002213,-7.060255502683999L-3.3145691362390552,6.785169964053331L5.993690678241268,0.27508553863066737Z" style="opacity: 1; stroke-width: 0px; fill: rgb(78, 193, 106); fill-opacity: 1;"/><path class="point" transform="translate(700.26,173.37)" d="M-4.675703572099483,-5.929814171275195L-1.1239442578732717,7.4673723159618675L5.799647829972755,-1.5375581446866717Z" style="opacity: 1; stroke-width: 0px; fill: rgb(162, 218, 55); fill-opacity: 1;"/><path class="point" transform="translate(805.12,157.17)" d="M-4.022693749722882,-6.390839928830988L-1.9069898049313896,7.306729082420378L5.929683554654272,-0.9158891535893907Z" style="opacity: 1; stroke-width: 0px; fill: rgb(253, 231, 37); fill-opacity: 1;"/></g><g class="text"/></g><g class="trace scatter trace24b873" style="stroke-miterlimit: 2; opacity: 1;"><g class="fills"><g><path class="js-fill" d="M448.85,150.58L448.11,145.97L447.96,145.52L445.7,141.44L445.41,141.07L441.49,137.76L441.08,137.53L436.68,135.97L436.22,135.9L431.55,135.93L431.09,136.02L426.71,137.64L426.31,137.88L422.74,140.89L422.44,141.25L419.96,145.74L419.82,146.19L419.15,150.81L419.17,151.28L420.12,155.85L420.29,156.29L422.74,160.26L423.06,160.61L426.71,163.51L427.12,163.74L431.55,165.22L432.01,165.29L436.68,165.18L437.14,165.09L441.49,163.4L441.89,163.15L445.41,160.08L445.7,159.72L448.11,155.19L448.25,154.74L448.85,150.58Z" style="fill: rgb(204, 204, 204); fill-opacity: 0.5; stroke-width: 0;"/></g></g><g class="errorbars"/><g class="lines"><path class="js-line" d="M448.85,150.58L448.11,145.97L447.96,145.52L445.7,141.44L445.41,141.07L441.49,137.76L441.08,137.53L436.68,135.97L436.22,135.9L431.55,135.93L431.09,136.02L426.71,137.64L426.31,137.88L422.74,140.89L422.44,141.25L419.96,145.74L419.82,146.19L419.15,150.81L419.17,151.28L420.12,155.85L420.29,156.29L422.74,160.26L423.06,160.61L426.71,163.51L427.12,163.74L431.55,165.22L432.01,165.29L436.68,165.18L437.14,165.09L441.49,163.4L441.89,163.15L445.41,160.08L445.7,159.72L448.11,155.19L448.25,154.74L448.85,150.58" style="vector-effect: none; fill: none; stroke: rgb(0, 0, 0); stroke-opacity: 1; stroke-width: 2px; opacity: 1;"/></g><g class="points"/><g class="text"/></g><g class="trace scatter traced7a75f" style="stroke-miterlimit: 2; opacity: 1;"><g class="fills"/><g class="errorbars"/><g class="lines"><path class="js-line" d="M471.12,150.58L470.45,143.59L470.21,142.44L468.03,135.77L467.55,134.7L463.96,128.66L463.25,127.73L458.43,122.63L457.53,121.87L451.71,117.95L450.67,117.41L444.12,114.87L442.99,114.56L434.88,113.47L433.71,113.46L426.72,114.18L425.58,114.43L418.92,116.66L417.86,117.15L411.85,120.79L410.92,121.5L405.11,127.27L404.39,128.19L400.2,135.23L399.74,136.3L397.66,143.01L397.44,144.16L396.92,152.33L397,153.5L398.21,160.42L398.54,161.54L401.24,168.03L401.81,169.05L405.86,174.78L406.64,175.66L412.8,181.05L413.78,181.7L420,184.95L421.09,185.38L427.88,187.19L429.03,187.36L436.05,187.64L437.22,187.55L444.12,186.29L445.25,185.95L451.71,183.2L452.73,182.62L458.43,178.52L459.3,177.74L463.96,172.49L464.64,171.53L468.48,164.31L468.9,163.21L470.66,156.41L470.82,155.25L471.12,150.58" style="vector-effect: none; fill: none; stroke: rgb(0, 0, 0); stroke-opacity: 1; stroke-dasharray: 9px, 9px; stroke-width: 2px; opacity: 1;"/></g><g class="points"/><g class="text"/></g><g class="trace scatter trace95a30c" style="stroke-miterlimit: 2; opacity: 1;"><g class="fills"><g><path class="js-fill" d="M597.32,165.42L596.58,160.81L596.43,160.37L594.17,156.28L593.88,155.92L590.36,152.85L589.96,152.6L585.61,150.91L585.15,150.82L580.48,150.71L580.02,150.78L575.59,152.26L575.18,152.49L571.53,155.39L571.21,155.74L568.76,159.71L568.59,160.15L567.64,164.72L567.62,165.19L568.29,169.81L568.43,170.26L570.63,174.38L570.91,174.75L574.38,177.87L574.78,178.12L579.1,179.88L579.56,179.98L584.22,180.17L584.69,180.1L589.14,178.69L589.55,178.47L593.25,175.63L593.57,175.28L596.08,171.35L596.26,170.92L597.29,166.36L597.31,165.89L597.32,165.42Z" style="fill: rgb(204, 204, 204); fill-opacity: 0.5; stroke-width: 0;"/></g></g><g class="errorbars"/><g class="lines"><path class="js-line" d="M597.32,165.42L596.58,160.81L596.43,160.37L594.17,156.28L593.88,155.92L590.36,152.85L589.96,152.6L585.61,150.91L585.15,150.82L580.48,150.71L580.02,150.78L575.59,152.26L575.18,152.49L571.53,155.39L571.21,155.74L568.76,159.71L568.59,160.15L567.64,164.72L567.62,165.19L568.29,169.81L568.43,170.26L570.63,174.38L570.91,174.75L574.38,177.87L574.78,178.12L579.1,179.88L579.56,179.98L584.22,180.17L584.69,180.1L589.14,178.69L589.55,178.47L593.25,175.63L593.57,175.28L596.08,171.35L596.26,170.92L597.29,166.36L597.31,165.89L597.32,165.42" style="vector-effect: none; fill: none; stroke: rgb(0, 0, 0); stroke-opacity: 1; stroke-width: 2px; opacity: 1;"/></g><g class="points"/><g class="text"/></g><g class="trace scatter trace786a92" style="stroke-miterlimit: 2; opacity: 1;"><g class="fills"/><g class="errorbars"/><g class="lines"><path class="js-line" d="M619.59,165.42L618.92,158.43L618.68,157.29L616.5,150.61L616.02,149.55L612.43,143.51L611.72,142.58L606.9,137.48L606,136.72L600.18,132.8L599.14,132.26L592.59,129.71L591.46,129.41L583.35,128.32L582.18,128.31L575.19,129.03L574.05,129.27L566.33,132L565.28,132.53L559.39,136.35L558.49,137.09L553.58,142.12L552.86,143.04L548.67,150.08L548.21,151.15L546.13,157.86L545.91,159.01L545.39,167.18L545.47,168.35L546.68,175.27L547.01,176.39L549.71,182.87L550.28,183.9L555.11,190.51L555.91,191.36L562.25,196.55L563.24,197.17L569.56,200.22L570.67,200.61L577.5,202.21L578.67,202.35L585.69,202.4L586.85,202.28L593.72,200.8L594.83,200.42L601.2,197.47L602.2,196.86L607.77,192.59L608.61,191.77L613.11,186.38L613.75,185.4L616.95,179.15L617.37,178.06L619.13,171.26L619.29,170.1L619.59,165.42" style="vector-effect: none; fill: none; stroke: rgb(0, 0, 0); stroke-opacity: 1; stroke-dasharray: 9px, 9px; stroke-width: 2px; opacity: 1;"/></g><g class="points"/><g class="text"/></g></g></g></g><path class="xlines-above crisp" d="M0,0" style="fill: none;"/><path class="ylines-above crisp" d="M0,0" style="fill: none;"/><g class="overlines-above"/><g class="xaxislayer-above"><g class="xtick"><text text-anchor="middle" x="0" y="354" transform="translate(163.82999999999998,0)" style="font-family: 'Open Sans', verdana, arial, sans-serif; font-size: 25px; fill: rgb(0, 0, 0); fill-opacity: 1; white-space: pre; opacity: 1;">-500</text></g><g class="xtick"><text text-anchor="middle" x="0" y="354" style="font-family: 'Open Sans', verdana, arial, sans-serif; font-size: 25px; fill: rgb(0, 0, 0); fill-opacity: 1; white-space: pre; opacity: 1;" transform="translate(238.06,0)">-400</text></g><g class="xtick"><text text-anchor="middle" x="0" y="354" style="font-family: 'Open Sans', verdana, arial, sans-serif; font-size: 25px; fill: rgb(0, 0, 0); fill-opacity: 1; white-space: pre; opacity: 1;" transform="translate(312.3,0)">-300</text></g><g class="xtick"><text text-anchor="middle" x="0" y="354" style="font-family: 'Open Sans', verdana, arial, sans-serif; font-size: 25px; fill: rgb(0, 0, 0); fill-opacity: 1; white-space: pre; opacity: 1;" transform="translate(386.53,0)">-200</text></g><g class="xtick"><text text-anchor="middle" x="0" y="354" style="font-family: 'Open Sans', verdana, arial, sans-serif; font-size: 25px; fill: rgb(0, 0, 0); fill-opacity: 1; white-space: pre; opacity: 1;" transform="translate(460.77,0)">-100</text></g><g class="xtick"><text text-anchor="middle" x="0" y="354" style="font-family: 'Open Sans', verdana, arial, sans-serif; font-size: 25px; fill: rgb(0, 0, 0); fill-opacity: 1; white-space: pre; opacity: 1;" transform="translate(535,0)">0</text></g><g class="xtick"><text text-anchor="middle" x="0" y="354" style="font-family: 'Open Sans', verdana, arial, sans-serif; font-size: 25px; fill: rgb(0, 0, 0); fill-opacity: 1; white-space: pre; opacity: 1;" transform="translate(609.23,0)">100</text></g><g class="xtick"><text text-anchor="middle" x="0" y="354" style="font-family: 'Open Sans', verdana, arial, sans-serif; font-size: 25px; fill: rgb(0, 0, 0); fill-opacity: 1; white-space: pre; opacity: 1;" transform="translate(683.47,0)">200</text></g><g class="xtick"><text text-anchor="middle" x="0" y="354" style="font-family: 'Open Sans', verdana, arial, sans-serif; font-size: 25px; fill: rgb(0, 0, 0); fill-opacity: 1; white-space: pre; opacity: 1;" transform="translate(757.7,0)">300</text></g><g class="xtick"><text text-anchor="middle" x="0" y="354" style="font-family: 'Open Sans', verdana, arial, sans-serif; font-size: 25px; fill: rgb(0, 0, 0); fill-opacity: 1; white-space: pre; opacity: 1;" transform="translate(831.94,0)">400</text></g><g class="xtick"><text text-anchor="middle" x="0" y="354" style="font-family: 'Open Sans', verdana, arial, sans-serif; font-size: 25px; fill: rgb(0, 0, 0); fill-opacity: 1; white-space: pre; opacity: 1;" transform="translate(906.17,0)">500</text></g></g><g class="yaxislayer-above"><g class="ytick"><text text-anchor="end" x="100" y="8.75" transform="translate(0,318.47)" style="font-family: 'Open Sans', verdana, arial, sans-serif; font-size: 25px; fill: rgb(0, 0, 0); fill-opacity: 1; white-space: pre; opacity: 1;">-200</text></g><g class="ytick"><text text-anchor="end" x="100" y="8.75" style="font-family: 'Open Sans', verdana, arial, sans-serif; font-size: 25px; fill: rgb(0, 0, 0); fill-opacity: 1; white-space: pre; opacity: 1;" transform="translate(0,281.35)">-150</text></g><g class="ytick"><text text-anchor="end" x="100" y="8.75" style="font-family: 'Open Sans', verdana, arial, sans-serif; font-size: 25px; fill: rgb(0, 0, 0); fill-opacity: 1; white-space: pre; opacity: 1;" transform="translate(0,244.23)">-100</text></g><g class="ytick"><text text-anchor="end" x="100" y="8.75" style="font-family: 'Open Sans', verdana, arial, sans-serif; font-size: 25px; fill: rgb(0, 0, 0); fill-opacity: 1; white-space: pre; opacity: 1;" transform="translate(0,207.12)">-50</text></g><g class="ytick"><text text-anchor="end" x="100" y="8.75" style="font-family: 'Open Sans', verdana, arial, sans-serif; font-size: 25px; fill: rgb(0, 0, 0); fill-opacity: 1; white-space: pre; opacity: 1;" transform="translate(0,170)">0</text></g><g class="ytick"><text text-anchor="end" x="100" y="8.75" style="font-family: 'Open Sans', verdana, arial, sans-serif; font-size: 25px; fill: rgb(0, 0, 0); fill-opacity: 1; white-space: pre; opacity: 1;" transform="translate(0,132.88)">50</text></g><g class="ytick"><text text-anchor="end" x="100" y="8.75" style="font-family: 'Open Sans', verdana, arial, sans-serif; font-size: 25px; fill: rgb(0, 0, 0); fill-opacity: 1; white-space: pre; opacity: 1;" transform="translate(0,95.77)">100</text></g><g class="ytick"><text text-anchor="end" x="100" y="8.75" style="font-family: 'Open Sans', verdana, arial, sans-serif; font-size: 25px; fill: rgb(0, 0, 0); fill-opacity: 1; white-space: pre; opacity: 1;" transform="translate(0,58.65)">150</text></g><g class="ytick"><text text-anchor="end" x="100" y="8.75" style="font-family: 'Open Sans', verdana, arial, sans-serif; font-size: 25px; fill: rgb(0, 0, 0); fill-opacity: 1; white-space: pre; opacity: 1;" transform="translate(0,21.53)">200</text></g></g><g class="overaxes-above"/></g></g><g class="polarlayer"/><g class="smithlayer"/><g class="ternarylayer"/><g class="geolayer"/><g class="funnelarealayer"/><g class="pielayer"/><g class="iciclelayer"/><g class="treemaplayer"/><g class="sunburstlayer"/><g class="glimages"/><defs id="topdefs-61a00d"><g class="clips"/><clipPath id="legend61a00d"><rect width="209" height="277" x="0" y="0"/></clipPath></defs><g class="layer-above"><g class="imagelayer"/><g class="shapelayer"/></g><g class="infolayer"><g class="legend" pointer-events="all" transform="translate(986.36,12)"><rect class="bg" shape-rendering="crispEdges" width="209" height="277" x="0" y="0" style="stroke: rgb(68, 68, 68); stroke-opacity: 1; fill: rgb(255, 255, 255); fill-opacity: 1; stroke-width: 0px;"/><g class="scrollbox" transform="" clip-path="url(#legend61a00d)"><g class="groups" transform=""><g class="traces" transform="translate(0,24.7)" style="opacity: 1;"><text class="legendtext" text-anchor="start" x="5" y="10.92" style="font-family: 'Open Sans', verdana, arial, sans-serif; font-size: 28px; fill: rgb(0, 0, 0); fill-opacity: 1; white-space: pre;">Own ship</text><g class="layers"><g class="legendfill"/><g class="legendlines"/><g class="legendsymbols"><g class="legendpoints"/></g></g><rect class="legendtoggle" x="0" y="-19.7" width="203.234375" height="39.4" style="fill: rgb(0, 0, 0); fill-opacity: 0;"/></g><g class="traces" transform="translate(0,62.15)" style="opacity: 1;"><text class="legendtext" text-anchor="start" x="40" y="9.75" style="font-family: 'Open Sans', verdana, arial, sans-serif; font-size: 25px; fill: rgb(0, 0, 0); fill-opacity: 1; white-space: pre;">Trajectory</text><g class="layers" style="opacity: 1;"><g class="legendfill"/><g class="legendlines"><path class="js-line" d="M5,0h30" style="fill: none; stroke: rgb(100, 143, 255); stroke-opacity: 1; stroke-width: 2px;"/></g><g class="legendsymbols"><g class="legendpoints"/></g></g><rect class="legendtoggle" x="0" y="-17.75" width="203.234375" height="35.5" style="fill: rgb(0, 0, 0); fill-opacity: 0;"/></g><g class="traces" transform="translate(0,97.65)" style="opacity: 1;"><text class="legendtext" text-anchor="start" x="40" y="9.75" style="font-family: 'Open Sans', verdana, arial, sans-serif; font-size: 25px; fill: rgb(0, 0, 0); fill-opacity: 1; white-space: pre;">Control point</text><g class="layers" style="opacity: 1;"><g class="legendfill"/><g class="legendlines"/><g class="legendsymbols"><g class="legendpoints"><path class="scatterpts" transform="translate(20,0)" d="M4,0A4,4 0 1,1 0,-4A4,4 0 0,1 4,0Z" style="opacity: 1; stroke-width: 0px; fill: rgb(100, 143, 255); fill-opacity: 1;"/></g></g></g><rect class="legendtoggle" x="0" y="-17.75" width="203.234375" height="35.5" style="fill: rgb(0, 0, 0); fill-opacity: 0;"/></g><g class="traces" transform="translate(0,133.15)" style="opacity: 1;"><text class="legendtext" text-anchor="start" x="40" y="9.75" style="font-family: 'Open Sans', verdana, arial, sans-serif; font-size: 25px; fill: rgb(0, 0, 0); fill-opacity: 1; white-space: pre;">Break point</text><g class="layers" style="opacity: 1;"><g class="legendfill"/><g class="legendlines"/><g class="legendsymbols"><g class="legendpoints"><path class="scatterpts" transform="translate(20,0)" d="M-3.0000000000000004,-6.93L-2.9999999999999996,6.93L6,-3.6739403974420594e-16Z" style="opacity: 1; stroke-width: 0px; fill: rgb(68, 1, 84); fill-opacity: 1;"/></g></g></g><rect class="legendtoggle" x="0" y="-17.75" width="203.234375" height="35.5" style="fill: rgb(0, 0, 0); fill-opacity: 0;"/></g></g><g class="groups" transform="translate(0,10)"><g class="traces" transform="translate(0,170.6)" style="opacity: 1;"><text class="legendtext" text-anchor="start" x="5" y="10.92" style="font-family: 'Open Sans', verdana, arial, sans-serif; font-size: 28px; fill: rgb(0, 0, 0); fill-opacity: 1; white-space: pre;">Target ship</text><g class="layers"><g class="legendfill"/><g class="legendlines"/><g class="legendsymbols"><g class="legendpoints"/></g></g><rect class="legendtoggle" x="0" y="-19.7" width="203.234375" height="39.4" style="fill: rgb(0, 0, 0); fill-opacity: 0;"/></g><g class="traces" transform="translate(0,208.05)" style="opacity: 1;"><text class="legendtext" text-anchor="start" x="40" y="9.75" style="font-family: 'Open Sans', verdana, arial, sans-serif; font-size: 25px; fill: rgb(0, 0, 0); fill-opacity: 1; white-space: pre;">Extent</text><g class="layers" style="opacity: 1;"><g class="legendfill"><path class="js-fill" d="M5,-2h30v6h-30z" style="stroke-width: 0; fill: rgb(204, 204, 204); fill-opacity: 0.5;"/></g><g class="legendlines"><path class="js-line" d="M5,-2h30" style="fill: none; stroke: rgb(0, 0, 0); stroke-opacity: 1; stroke-width: 2px;"/></g><g class="legendsymbols"><g class="legendpoints"/></g></g><rect class="legendtoggle" x="0" y="-17.75" width="203.234375" height="35.5" style="fill: rgb(0, 0, 0); fill-opacity: 0;"/></g><g class="traces" transform="translate(0,243.55)" style="opacity: 1;"><text class="legendtext" text-anchor="start" x="40" y="9.75" style="font-family: 'Open Sans', verdana, arial, sans-serif; font-size: 25px; fill: rgb(0, 0, 0); fill-opacity: 1; white-space: pre;">Domain</text><g class="layers" style="opacity: 1;"><g class="legendfill"/><g class="legendlines"><path class="js-line" d="M5,0h30" style="fill: none; stroke: rgb(0, 0, 0); stroke-opacity: 1; stroke-dasharray: 9px, 9px; stroke-width: 2px;"/></g><g class="legendsymbols"><g class="legendpoints"/></g></g><rect class="legendtoggle" x="0" y="-17.75" width="203.234375" height="35.5" style="fill: rgb(0, 0, 0); fill-opacity: 0;"/></g></g></g><rect class="scrollbar" rx="20" ry="3" width="0" height="0" x="0" y="0" style="fill: rgb(128, 139, 164); fill-opacity: 1;"/></g><g class="g-gtitle"/><g class="g-xtitle" transform="translate(0,-0.5)"><text class="xtitle" x="535" y="394.5" text-anchor="middle" style="opacity: 1; font-family: 'Open Sans', verdana, arial, sans-serif; font-size: 30px; fill: rgb(0, 0, 0); fill-opacity: 1; white-space: pre;">East [m]</text></g><g class="g-ytitle" transform="translate(14.046875,0)"><text class="ytitle" transform="rotate(-90,15.953125,170)" x="15.953125" y="170" text-anchor="middle" style="opacity: 1; font-family: 'Open Sans', verdana, arial, sans-serif; font-size: 30px; fill: rgb(0, 0, 0); fill-opacity: 1; white-space: pre;">North [m]</text></g></g></svg>