<svg class="main-svg" xmlns="http://www.w3.org/2000/svg" xmlns:xlink="http://www.w3.org/1999/xlink" width="1200" height="400" style="" viewBox="0 0 1200 400"><rect x="0" y="0" width="1200" height="400" style="fill: rgb(255, 255, 255); fill-opacity: 1;"/><defs id="defs-fc1833"><g class="clips"><clipPath id="clipfc1833xyplot" class="plotclip"><rect width="839" height="310"/></clipPath><clipPath class="axesclip" id="clipfc1833x"><rect x="111" y="0" width="839" height="400"/></clipPath><clipPath class="axesclip" id="clipfc1833y"><rect x="0" y="11" width="1200" height="310"/></clipPath><clipPath class="axesclip" id="clipfc1833xy"><rect x="111" y="11" width="839" height="310"/></clipPath></g><g class="gradients"/><g class="patterns"/></defs><g class="bglayer"/><g class="layer-below"><g class="imagelayer"/><g class="shapelayer"/></g><g class="cartesianlayer"><g class="subplot xy"><g class="layer-subplot"><g class="shapelayer"/><g class="imagelayer"/></g><g class="minor-gridlayer"><g class="x"/><g class="y"/></g><g class="gridlayer"><g class="x"><path class="xgrid crisp" transform="translate(173.56,0)" d="M0,11v310" style="stroke: rgb(200, 200, 200); stroke-opacity: 1; stroke-width: 1px;"/><path class="xgrid crisp" transform="translate(244.95,0)" d="M0,11v310" style="stroke: rgb(200, 200, 200); stroke-opacity: 1; stroke-width: 1px;"/><path class="xgrid crisp" transform="translate(316.34000000000003,0)" d="M0,11v310" style="stroke: rgb(200, 200, 200); stroke-opacity: 1; stroke-width: 1px;"/><path class="xgrid crisp" transform="translate(387.73,0)" d="M0,11v310" style="stroke: rgb(200, 200, 200); stroke-opacity: 1; stroke-width: 1px;"/><path class="xgrid crisp" transform="translate(459.11,0)" d="M0,11v310" style="stroke: rgb(200, 200, 200); stroke-opacity: 1; stroke-width: 1px;"/><path class="xgrid crisp" transform="translate(601.89,0)" d="M0,11v310" style="stroke: rgb(200, 200, 200); stroke-opacity: 1; stroke-width: 1px;"/><path class="xgrid crisp" transform="translate(673.27,0)" d="M0,11v310" style="stroke: rgb(200, 200, 200); stroke-opacity: 1; stroke-width: 1px;"/><path class="xgrid crisp" transform="translate(744.66,0)" d="M0,11v310" style="stroke: rgb(200, 200, 200); stroke-opacity: 1; stroke-width: 1px;"/><path class="xgrid crisp" transform="translate(816.05,0)" d="M0,11v310" style="stroke: rgb(200, 200, 200); stroke-opacity: 1; stroke-width: 1px;"/><path class="xgrid crisp" transform="translate(887.44,0)" d="M0,11v310" style="stroke: rgb(200, 200, 200); stroke-opacity: 1; stroke-width: 1px;"/></g><g class="y"><path class="ygrid crisp" transform="translate(0,308.77)" d="M111,0h839" style="stroke: rgb(200, 200, 200); stroke-opacity: 1; stroke-width: 1px;"/><path class="ygrid crisp" transform="translate(0,273.08)" d="M111,0h839" style="stroke: rgb(200, 200, 200); stroke-opacity: 1; stroke-width: 1px;"/><path class="ygrid crisp" transform="translate(0,237.39)" d="M111,0h839" style="stroke: rgb(200, 200, 200); stroke-opacity: 1; stroke-width: 1px;"/><path class="ygrid crisp" transform="translate(0,201.69)" d="M111,0h839" style="stroke: rgb(200, 200, 200); stroke-opacity: 1; stroke-width: 1px;"/><path class="ygrid crisp" transform="translate(0,130.31)" d="M111,0h839" style="stroke: rgb(200, 200, 200); stroke-opacity: 1; stroke-width: 1px;"/><path class="ygrid crisp" transform="translate(0,94.61)" d="M111,0h839" style="stroke: rgb(200, 200, 200); stroke-opacity: 1; stroke-width: 1px;"/><path class="ygrid crisp" transform="translate(0,58.92)" d="M111,0h839" style="stroke: rgb(200, 200, 200); stroke-opacity: 1; stroke-width: 1px;"/><path class="ygrid crisp" transform="translate(0,23.23)" d="M111,0h839" style="stroke: rgb(200, 200, 200); stroke-opacity: 1; stroke-width: 1px;"/></g></g><g class="zerolinelayer"><path class="xzl zl crisp" transform="translate(530.5,0)" d="M0,11v310" style="stroke: rgb(200, 200, 200); stroke-opacity: 1; stroke-width: 2px;"/><path class="yzl zl crisp" transform="translate(0,166)" d="M111,0h839" style="stroke: rgb(200, 200, 200); stroke-opacity: 1; stroke-width: 2px;"/></g><g class="layer-between"><g class="shapelayer"/><g class="imagelayer"/></g><path class="xlines-below"/><path class="ylines-below"/><g class="overlines-below"/><g class="xaxislayer-below"/><g class="yaxislayer-below"/><g class="overaxes-below"/><g class="overplot"><g class="xy" transform="translate(111,11)" clip-path="url(#clipfc1833xyplot)"><g class="scatterlayer mlayer"><g class="trace scatter tracea6dfab" style="stroke-miterlimit: 2; opacity: 1;"><g class="fills"/><g class="errorbars"/><g class="lines"><path class="js-line" d="M62.56,155L118.34,155.71L120.75,155.78L173.59,158.04L175.98,158.18L221.39,161.57L223.78,161.78L271.5,166.92L273.89,167.21L321.63,173.93L324.02,174.31L379.06,183.57L381.45,183.99L463.18,197.88L465.59,198.24L499.31,202.62L501.72,202.87L528.19,204.85L530.59,204.95L554.59,205.21L556.99,205.15L580.92,203.71L583.31,203.47L604.77,200.61L607.15,200.21L633.27,195.09L635.64,194.56L668.71,186.47L671.07,185.85L720.37,171.95L722.71,171.26L776.44,155" style="vector-effect: none; fill: none; stroke: rgb(100, 143, 255); stroke-opacity: 1; stroke-width: 2px; opacity: 1;"/></g><g class="points"/><g class="text"/></g><g class="trace scatter trace71a429" style="stroke-miterlimit: 2; opacity: 1;"><g class="fills"/><g class="errorbars"/><g class="lines"/><g class="points"><path class="point" transform="translate(62.56,155)" d="M4,0A4,4 0 1,1 0,-4A4,4 0 0,1 4,0Z" style="opacity: 1; stroke-width: 0px; fill: rgb(100, 143, 255); fill-opacity: 1;"/><path class="point" transform="translate(84.68,155)" d="M4,0A4,4 0 1,1 0,-4A4,4 0 0,1 4,0Z" style="opacity: 1; stroke-width: 0px; fill: rgb(100, 143, 255); fill-opacity: 1;"/><path class="point" transform="translate(128.52,155.62)" d="M4,0A4,4 0 1,1 0,-4A4,4 0 0,1 4,0Z" style="opacity: 1; stroke-width: 0px; fill: rgb(100, 143, 255); fill-opacity: 1;"/><path class="point" transform="translate(193.64,158.87)" d="M4,0A4,4 0 1,1 0,-4A4,4 0 0,1 4,0Z" style="opacity: 1; stroke-width: 0px; fill: rgb(100, 143, 255); fill-opacity: 1;"/><path class="point" transform="translate(258.48,164.87)" d="M4,0A4,4 0 1,1 0,-4A4,4 0 0,1 4,0Z" style="opacity: 1; stroke-width: 0px; fill: rgb(100, 143, 255); fill-opacity: 1;"/><path class="point" transform="translate(323.34,173.79)" d="M4,0A4,4 0 1,1 0,-4A4,4 0 0,1 4,0Z" style="opacity: 1; stroke-width: 0px; fill: rgb(100, 143, 255); fill-opacity: 1;"/><path class="point" transform="translate(388.38,185.18)" d="M4,0A4,4 0 1,1 0,-4A4,4 0 0,1 4,0Z" style="opacity: 1; stroke-width: 0px; fill: rgb(100, 143, 255); fill-opacity: 1;"/><path class="point" transform="translate(453.73,196.85)" d="M4,0A4,4 0 1,1 0,-4A4,4 0 0,1 4,0Z" style="opacity: 1; stroke-width: 0px; fill: rgb(100, 143, 255); fill-opacity: 1;"/><path class="point" transform="translate(519.28,205.93)" d="M4,0A4,4 0 1,1 0,-4A4,4 0 0,1 4,0Z" style="opacity: 1; stroke-width: 0px; fill: rgb(100, 143, 255); fill-opacity: 1;"/><path class="point" transform="translate(584.5,205.51)" d="M4,0A4,4 0 1,1 0,-4A4,4 0 0,1 4,0Z" style="opacity: 1; stroke-width: 0px; fill: rgb(100, 143, 255); fill-opacity: 1;"/><path class="point" transform="translate(649.09,192.19)" d="M4,0A4,4 0 1,1 0,-4A4,4 0 0,1 4,0Z" style="opacity: 1; stroke-width: 0px; fill: rgb(100, 143, 255); fill-opacity: 1;"/><path class="point" transform="translate(713,174.42)" d="M4,0A4,4 0 1,1 0,-4A4,4 0 0,1 4,0Z" style="opacity: 1; stroke-width: 0px; fill: rgb(100, 143, 255); fill-opacity: 1;"/><path class="point" transform="translate(755.29,161.46)" d="M4,0A4,4 0 1,1 0,-4A4,4 0 0,1 4,0Z" style="opacity: 1; stroke-width: 0px; fill: rgb(100, 143, 255); fill-opacity: 1;"/><path class="point" transform="translate(776.44,155)" d="M4,0A4,4 0 1,1 0,-4A4,4 0 0,1 4,0Z" style="opacity: 1; stroke-width: 0px; fill: rgb(100, 143, 255); fill-opacity: 1;"/></g><g class="text"/></g><g class="trace scatter trace6c880d" style="stroke-miterlimit: 2; opacity: 1;"><g class="fills"/><g class="errorbars"/><g class="lines"/><g class="points"><path class="point" transform="translate(62.56,155)" d="M0,0Z" style="opacity: 1; stroke-width: 0px; fill: rgb(12, 51, 131); fill-opacity: 1;"/><path class="point" transform="translate(128.41,156.01)" d="M-2.893430747314177,-6.975167274732335L-3.105864450661194,6.88320463259077L5.999295197975371,0.09196264214156598Z" style="opacity: 1; stroke-width: 0px; fill: rgb(11, 82, 151); fill-opacity: 1;"/><path class="point" transform="translate(193.6,159.33)" d="M-2.643306919117463,-7.073742187226344L-3.3489127022932843,6.768285138232482L5.992219621410747,0.3054570489938623Z" style="opacity: 1; stroke-width: 0px; fill: rgb(11, 113, 171); fill-opacity: 1;"/><path class="point" transform="translate(258.49,165.36)" d="M-2.3463996031410783,-7.177695236103257L-3.62789865557946,6.622933741541186L5.974298258720538,0.5547614945620698Z" style="opacity: 1; stroke-width: 0px; fill: rgb(31, 143, 174); fill-opacity: 1;"/><path class="point" transform="translate(323.37,174.2)" d="M-2.036275253649709,-7.27175928447675L-3.9087190490888846,6.4611775548494L5.944994302738594,0.8105817296273489Z" style="opacity: 1; stroke-width: 0px; fill: rgb(115, 170, 127); fill-opacity: 1;"/><path class="point" transform="translate(388.43,185.23)" d="M-1.800006602795424,-7.333817302734836L-4.115659050244426,6.331370355787216L5.91566565303985,1.00244694694762Z" style="opacity: 1; stroke-width: 0px; fill: rgb(200, 197, 80); fill-opacity: 1;"/><path class="point" transform="translate(453.76,196.42)" d="M-1.7876572324552098,-7.3368373035832395L-4.126312371475439,6.32443248149656L5.913969603930649,1.0124048220866795Z" style="opacity: 1; stroke-width: 0px; fill: rgb(242, 199, 56); fill-opacity: 1;"/><path class="point" transform="translate(519.22,204.34)" d="M-2.144567519063366,-7.240561453104199L-3.811861349083938,6.518789232316072L5.956428868147304,0.7217722207881268Z" style="opacity: 1; stroke-width: 0px; fill: rgb(242, 174, 56); fill-opacity: 1;"/><path class="point" transform="translate(584.4,203.36)" d="M-3.1044528842012187,-6.883841390515527L-2.8948610459110227,6.97457378804375L5.999313930112241,-0.09073239752822335Z" style="opacity: 1; stroke-width: 0px; fill: rgb(242, 149, 56); fill-opacity: 1;"/><path class="point" transform="translate(648.98,191.45)" d="M-4.206915467581622,-6.271105345042651L-1.693612874657341,7.359115125529353L5.900528342238963,-1.088009780486702Z" style="opacity: 1; stroke-width: 0px; fill: rgb(235, 112, 49); fill-opacity: 1;"/><path class="point" transform="translate(712.92,174.14)" d="M-4.706704236145939,-5.905237948926858L-1.0848091232287493,7.473157911228671L5.7915133593746875,-1.5679199623018134Z" style="opacity: 1; stroke-width: 0px; fill: rgb(226, 71, 39); fill-opacity: 1;"/><path class="point" transform="translate(776.44,155)" d="M-4.871888543112968,-5.76971420639572L-0.8729476684010802,7.500857442201732L5.744836211514048,-1.7311432358060124Z" style="opacity: 1; stroke-width: 0px; fill: rgb(217, 30, 30); fill-opacity: 1;"/></g><g class="text"/></g><g class="trace scatter tracecec239" style="stroke-miterlimit: 2; opacity: 1;"><g class="fills"><g><path class="js-fill" d="M433.78,147.86L433.07,143.43L432.92,143L430.75,139.07L430.47,138.72L427.09,135.77L426.7,135.53L422.52,133.91L422.08,133.82L417.59,133.71L417.14,133.78L412.89,135.21L412.49,135.42L408.98,138.21L408.68,138.55L406.32,142.37L406.15,142.79L405.24,147.19L405.22,147.64L405.86,152.08L406,152.51L408.11,156.47L408.39,156.83L412.1,160.07L412.49,160.3L416.7,161.86L417.14,161.94L421.63,161.98L422.08,161.9L426.31,160.41L426.7,160.19L430.47,157L430.75,156.65L432.92,152.72L433.07,152.29L433.78,147.86Z" style="fill: rgb(204, 204, 204); fill-opacity: 0.5; stroke-width: 0;"/></g></g><g class="errorbars"/><g class="lines"><path class="js-line" d="M433.78,147.86L433.07,143.43L432.92,143L430.75,139.07L430.47,138.72L427.09,135.77L426.7,135.53L422.52,133.91L422.08,133.82L417.59,133.71L417.14,133.78L412.89,135.21L412.49,135.42L408.98,138.21L408.68,138.55L406.32,142.37L406.15,142.79L405.24,147.19L405.22,147.64L405.86,152.08L406,152.51L408.11,156.47L408.39,156.83L412.1,160.07L412.49,160.3L416.7,161.86L417.14,161.94L421.63,161.98L422.08,161.9L426.31,160.41L426.7,160.19L430.47,157L430.75,156.65L432.92,152.72L433.07,152.29L433.78,147.86" style="vector-effect: none; fill: none; stroke: rgb(0, 0, 0); stroke-opacity: 1; stroke-width: 2px; opacity: 1;"/></g><g class="points"/><g class="text"/></g><g class="trace scatter tracea17163" style="stroke-miterlimit: 2; opacity: 1;"><g class="fills"/><g class="errorbars"/><g class="lines"><path class="js-line" d="M455.19,147.86L454.55,141.14L454.33,140.04L451.76,132.59L451.26,131.58L446.92,125.01L446.19,124.16L441.25,119.56L440.34,118.89L434.51,115.48L433.48,115.02L425.94,112.75L424.83,112.57L416.97,112.26L415.84,112.36L409.22,113.68L408.15,114.02L401.01,117.33L400.05,117.93L393.96,122.92L393.19,123.74L389.12,129.13L388.54,130.1L385.4,137.31L385.08,138.4L383.85,146.17L383.81,147.3L384.56,155.14L384.8,156.23L387,162.62L387.48,163.64L391.72,170.27L392.44,171.14L398.2,176.5L399.12,177.16L405,180.48L406.04,180.92L412.5,182.86L413.61,183.07L421.47,183.5L422.6,183.42L430.32,181.88L431.38,181.52L437.51,178.68L438.47,178.09L443.83,173.98L444.64,173.2L449.58,167.07L450.17,166.11L453.06,160.01L453.43,158.94L455.03,151.24L455.12,150.11L455.19,147.86" style="vector-effect: none; fill: none; stroke: rgb(0, 0, 0); stroke-opacity: 1; stroke-dasharray: 9px, 9px; stroke-width: 2px; opacity: 1;"/></g><g class="points"/><g class="text"/></g><g class="trace scatter trace9bde88" style="stroke-miterlimit: 2; opacity: 1;"><g class="fills"><g><path class="js-fill" d="M576.55,162.14L575.7,157.28L575.54,156.86L573.24,153L572.95,152.66L569.09,149.59L568.69,149.38L563.96,147.96L563.51,147.92L559.03,148.23L558.6,148.34L554.12,150.42L553.75,150.68L550.36,154.27L550.12,154.65L548.4,158.79L548.3,159.23L548.08,163.71L548.14,164.16L549.47,168.45L549.67,168.85L552.71,172.74L553.05,173.04L557.31,175.52L557.73,175.67L562.16,176.42L562.61,176.41L567.03,175.6L567.45,175.44L571.33,173.18L571.67,172.89L574.54,169.44L574.77,169.05L576.3,164.83L576.37,164.38L576.55,162.14Z" style="fill: rgb(204, 204, 204); fill-opacity: 0.5; stroke-width: 0;"/></g></g><g class="errorbars"/><g class="lines"><path class="js-line" d="M576.55,162.14L575.7,157.28L575.54,156.86L573.24,153L572.95,152.66L569.09,149.59L568.69,149.38L563.96,147.96L563.51,147.92L559.03,148.23L558.6,148.34L554.12,150.42L553.75,150.68L550.36,154.27L550.12,154.65L548.4,158.79L548.3,159.23L548.08,163.71L548.14,164.16L549.47,168.45L549.67,168.85L552.71,172.74L553.05,173.04L557.31,175.52L557.73,175.67L562.16,176.42L562.61,176.41L567.03,175.6L567.45,175.44L571.33,173.18L571.67,172.89L574.54,169.44L574.77,169.05L576.3,164.83L576.37,164.38L576.55,162.14" style="vector-effect: none; fill: none; stroke: rgb(0, 0, 0); stroke-opacity: 1; stroke-width: 2px; opacity: 1;"/></g><g class="points"/><g class="text"/></g><g class="trace scatter trace1cb1b1" style="stroke-miterlimit: 2; opacity: 1;"><g class="fills"/><g class="errorbars"/><g class="lines"><path class="js-line" d="M597.97,162.14L597.1,154.31L596.84,153.22L594.04,145.86L593.51,144.86L588.96,138.44L588.2,137.61L582.19,132.52L581.25,131.91L575.21,128.87L574.16,128.48L567.61,126.85L566.49,126.7L559.74,126.54L558.62,126.63L550.92,128.3L549.86,128.67L542.83,132.21L541.89,132.84L535.96,138.02L535.22,138.86L531.32,144.37L530.77,145.36L527.86,152.67L527.58,153.77L526.62,160.45L526.59,161.58L527.33,169.41L527.58,170.51L529.77,176.9L530.26,177.92L533.8,183.66L534.49,184.55L540.08,190.1L540.98,190.78L546.75,194.28L547.77,194.75L554.17,196.9L555.28,197.14L563.12,197.82L564.25,197.78L572.01,196.48L573.09,196.15L579.3,193.51L580.28,192.96L586.6,188.26L587.41,187.48L592.36,181.35L592.95,180.39L596.2,173.22L596.54,172.15L597.9,164.39L597.95,163.27L597.97,162.14" style="vector-effect: none; fill: none; stroke: rgb(0, 0, 0); stroke-opacity: 1; stroke-dasharray: 9px, 9px; stroke-width: 2px; opacity: 1;"/></g><g class="points"/><g class="text"/></g></g></g></g><path class="xlines-above crisp" d="M0,0" style="fill: none;"/><path class="ylines-above crisp" d="M0,0" style="fill: none;"/><g class="overlines-above"/><g class="xaxislayer-above"><g class="xtick"><text text-anchor="middle" x="0" y="350" transform="translate(173.56,0)" style="font-family: 'Open Sans', verdana, arial, sans-serif; font-size: 28px; fill: rgb(0, 0, 0); fill-opacity: 1; white-space: pre; opacity: 1;">-500</text></g><g class="xtick"><text text-anchor="middle" x="0" y="350" style="font-family: 'Open Sans', verdana, arial, sans-serif; font-size: 28px; fill: rgb(0, 0, 0); fill-opacity: 1; white-space: pre; opacity: 1;" transform="translate(244.95,0)">-400</text></g><g class="xtick"><text text-anchor="middle" x="0" y="350" style="font-family: 'Open Sans', verdana, arial, sans-serif; font-size: 28px; fill: rgb(0, 0, 0); fill-opacity: 1; white-space: pre; opacity: 1;" transform="translate(316.34000000000003,0)">-300</text></g><g class="xtick"><text text-anchor="middle" x="0" y="350" style="font-family: 'Open Sans', verdana, arial, sans-serif; font-size: 28px; fill: rgb(0, 0, 0); fill-opacity: 1; white-space: pre; opacity: 1;" transform="translate(387.73,0)">-200</text></g><g class="xtick"><text text-anchor="middle" x="0" y="350" style="font-family: 'Open Sans', verdana, arial, sans-serif; font-size: 28px; fill: rgb(0, 0, 0); fill-opacity: 1; white-space: pre; opacity: 1;" transform="translate(459.11,0)">-100</text></g><g class="xtick"><text text-anchor="middle" x="0" y="350" style="font-family: 'Open Sans', verdana, arial, sans-serif; font-size: 28px; fill: rgb(0, 0, 0); fill-opacity: 1; white-space: pre; opacity: 1;" transform="translate(530.5,0)">0</text></g><g class="xtick"><text text-anchor="middle" x="0" y="350" style="font-family: 'Open Sans', verdana, arial, sans-serif; font-size: 28px; fill: rgb(0, 0, 0); fill-opacity: 1; white-space: pre; opacity: 1;" transform="translate(601.89,0)">100</text></g><g class="xtick"><text text-anchor="middle" x="0" y="350" style="font-family: 'Open Sans', verdana, arial, sans-serif; font-size: 28px; fill: rgb(0, 0, 0); fill-opacity: 1; white-space: pre; opacity: 1;" transform="translate(673.27,0)">200</text></g><g class="xtick"><text text-anchor="middle" x="0" y="350" style="font-family: 'Open Sans', verdana, arial, sans-serif; font-size: 28px; fill: rgb(0, 0, 0); fill-opacity: 1; white-space: pre; opacity: 1;" transform="translate(744.66,0)">300</text></g><g class="xtick"><text text-anchor="middle" x="0" y="350" style="font-family: 'Open Sans', verdana, arial, sans-serif; font-size: 28px; fill: rgb(0, 0, 0); fill-opacity: 1; white-space: pre; opacity: 1;" transform="translate(816.05,0)">400</text></g><g class="xtick"><text text-anchor="middle" x="0" y="350" style="font-family: 'Open Sans', verdana, arial, sans-serif; font-size: 28px; fill: rgb(0, 0, 0); fill-opacity: 1; white-space: pre; opacity: 1;" transform="translate(887.44,0)">500</text></g></g><g class="yaxislayer-above"><g class="ytick"><text text-anchor="end" x="110" y="9.799999999999999" transform="translate(0,308.77)" style="font-family: 'Open Sans', verdana, arial, sans-serif; font-size: 28px; fill: rgb(0, 0, 0); fill-opacity: 1; white-space: pre; opacity: 1;">-200</text></g><g class="ytick"><text text-anchor="end" x="110" y="9.799999999999999" style="font-family: 'Open Sans', verdana, arial, sans-serif; font-size: 28px; fill: rgb(0, 0, 0); fill-opacity: 1; white-space: pre; opacity: 1;" transform="translate(0,273.08)">-150</text></g><g class="ytick"><text text-anchor="end" x="110" y="9.799999999999999" style="font-family: 'Open Sans', verdana, arial, sans-serif; font-size: 28px; fill: rgb(0, 0, 0); fill-opacity: 1; white-space: pre; opacity: 1;" transform="translate(0,237.39)">-100</text></g><g class="ytick"><text text-anchor="end" x="110" y="9.799999999999999" style="font-family: 'Open Sans', verdana, arial, sans-serif; font-size: 28px; fill: rgb(0, 0, 0); fill-opacity: 1; white-space: pre; opacity: 1;" transform="translate(0,201.69)">-50</text></g><g class="ytick"><text text-anchor="end" x="110" y="9.799999999999999" style="font-family: 'Open Sans', verdana, arial, sans-serif; font-size: 28px; fill: rgb(0, 0, 0); fill-opacity: 1; white-space: pre; opacity: 1;" transform="translate(0,166)">0</text></g><g class="ytick"><text text-anchor="end" x="110" y="9.799999999999999" style="font-family: 'Open Sans', verdana, arial, sans-serif; font-size: 28px; fill: rgb(0, 0, 0); fill-opacity: 1; white-space: pre; opacity: 1;" transform="translate(0,130.31)">50</text></g><g class="ytick"><text text-anchor="end" x="110" y="9.799999999999999" style="font-family: 'Open Sans', verdana, arial, sans-serif; font-size: 28px; fill: rgb(0, 0, 0); fill-opacity: 1; white-space: pre; opacity: 1;" transform="translate(0,94.61)">100</text></g><g class="ytick"><text text-anchor="end" x="110" y="9.799999999999999" style="font-family: 'Open Sans', verdana, arial, sans-serif; font-size: 28px; fill: rgb(0, 0, 0); fill-opacity: 1; white-space: pre; opacity: 1;" transform="translate(0,58.92)">150</text></g><g class="ytick"><text text-anchor="end" x="110" y="9.799999999999999" style="font-family: 'Open Sans', verdana, arial, sans-serif; font-size: 28px; fill: rgb(0, 0, 0); fill-opacity: 1; white-space: pre; opacity: 1;" transform="translate(0,23.23)">200</text></g></g><g class="overaxes-above"/></g></g><g class="polarlayer"/><g class="smithlayer"/><g class="ternarylayer"/><g class="geolayer"/><g class="funnelarealayer"/><g class="pielayer"/><g class="iciclelayer"/><g class="treemaplayer"/><g class="sunburstlayer"/><g class="glimages"/><defs id="topdefs-fc1833"><g class="clips"/><clipPath id="legendfc1833"><rect width="228" height="304" x="0" y="0"/></clipPath></defs><g class="layer-above"><g class="imagelayer"/><g class="shapelayer"/></g><g class="infolayer"><g class="legend" pointer-events="all" transform="translate(966.78,11)"><rect class="bg" shape-rendering="crispEdges" width="228" height="304" x="0" y="0" style="stroke: rgb(68, 68, 68); stroke-opacity: 1; fill: rgb(255, 255, 255); fill-opacity: 1; stroke-width: 0px;"/><g class="scrollbox" transform="" clip-path="url(#legendfc1833)"><g class="groups" transform=""><g class="traces" transform="translate(0,26.650000000000002)" style="opacity: 1;"><text class="legendtext" text-anchor="start" x="5" y="12.090000000000002" style="font-family: 'Open Sans', verdana, arial, sans-serif; font-size: 31px; fill: rgb(0, 0, 0); fill-opacity: 1; white-space: pre;">Own ship</text><g class="layers"><g class="legendfill"/><g class="legendlines"/><g class="legendsymbols"><g class="legendpoints"/></g></g><rect class="legendtoggle" x="0" y="-21.650000000000002" width="222.65625" height="43.300000000000004" style="fill: rgb(0, 0, 0); fill-opacity: 0;"/></g><g class="traces" transform="translate(0,68)" style="opacity: 1;"><text class="legendtext" text-anchor="start" x="40" y="10.92" style="font-family: 'Open Sans', verdana, arial, sans-serif; font-size: 28px; fill: rgb(0, 0, 0); fill-opacity: 1; white-space: pre;">Trajectory</text><g class="layers" style="opacity: 1;"><g class="legendfill"/><g class="legendlines"><path class="js-line" d="M5,0h30" style="fill: none; stroke: rgb(100, 143, 255); stroke-opacity: 1; stroke-width: 2px;"/></g><g class="legendsymbols"><g class="legendpoints"/></g></g><rect class="legendtoggle" x="0" y="-19.7" width="222.65625" height="39.4" style="fill: rgb(0, 0, 0); fill-opacity: 0;"/></g><g class="traces" transform="translate(0,107.4)" style="opacity: 1;"><text class="legendtext" text-anchor="start" x="40" y="10.92" style="font-family: 'Open Sans', verdana, arial, sans-serif; font-size: 28px; fill: rgb(0, 0, 0); fill-opacity: 1; white-space: pre;">Control point</text><g class="layers" style="opacity: 1;"><g class="legendfill"/><g class="legendlines"/><g class="legendsymbols"><g class="legendpoints"><path class="scatterpts" transform="translate(20,0)" d="M4,0A4,4 0 1,1 0,-4A4,4 0 0,1 4,0Z" style="opacity: 1; stroke-width: 0px; fill: rgb(100, 143, 255); fill-opacity: 1;"/></g></g></g><rect class="legendtoggle" x="0" y="-19.7" width="222.65625" height="39.4" style="fill: rgb(0, 0, 0); fill-opacity: 0;"/></g><g class="traces" transform="translate(0,146.79999999999998)" style="opacity: 1;"><text class="legendtext" text-anchor="start" x="40" y="10.92" style="font-family: 'Open Sans', verdana, arial, sans-serif; font-size: 28px; fill: rgb(0, 0, 0); fill-opacity: 1; white-space: pre;">Break point</text><g class="layers" style="opacity: 1;"><g class="legendfill"/><g class="legendlines"/><g class="legendsymbols"><g class="legendpoints"><path class="scatterpts" transform="translate(20,0)" d="M-3.0000000000000004,-6.93L-2.9999999999999996,6.93L6,-3.6739403974420594e-16Z" style="opacity: 1; stroke-width: 0px; fill: rgb(12, 51, 131); fill-opacity: 1;"/></g></g></g><rect class="legendtoggle" x="0" y="-19.7" width="222.65625" height="39.4" style="fill: rgb(0, 0, 0); fill-opacity: 0;"/></g></g><g class="groups" transform="translate(0,10)"><g class="traces" transform="translate(0,188.15)" style="opacity: 1;"><text class="legendtext" text-anchor="start" x="5" y="12.090000000000002" style="font-family: 'Open Sans', verdana, arial, sans-serif; font-size: 31px; fill: rgb(0, 0, 0); fill-opacity: 1; white-space: pre;">Target ship</text><g class="layers"><g class="legendfill"/><g class="legendlines"/><g class="legendsymbols"><g class="legendpoints"/></g></g><rect class="legendtoggle" x="0" y="-21.650000000000002" width="222.65625" height="43.300000000000004" style="fill: rgb(0, 0, 0); fill-opacity: 0;"/></g><g class="traces" transform="translate(0,229.5)" style="opacity: 1;"><text class="legendtext" text-anchor="start" x="40" y="10.92" style="font-family: 'Open Sans', verdana, arial, sans-serif; font-size: 28px; fill: rgb(0, 0, 0); fill-opacity: 1; white-space: pre;">Extent</text><g class="layers" style="opacity: 1;"><g class="legendfill"><path class="js-fill" d="M5,-2h30v6h-30z" style="stroke-width: 0; fill: rgb(204, 204, 204); fill-opacity: 0.5;"/></g><g class="legendlines"><path class="js-line" d="M5,-2h30" style="fill: none; stroke: rgb(0, 0, 0); stroke-opacity: 1; stroke-width: 2px;"/></g><g class="legendsymbols"><g class="legendpoints"/></g></g><rect class="legendtoggle" x="0" y="-19.7" width="222.65625" height="39.4" style="fill: rgb(0, 0, 0); fill-opacity: 0;"/></g><g class="traces" transform="translate(0,268.90000000000003)" style="opacity: 1;"><text class="legendtext" text-anchor="start" x="40" y="10.92" style="font-family: 'Open Sans', verdana, arial, sans-serif; font-size: 28px; fill: rgb(0, 0, 0); fill-opacity: 1; white-space: pre;">Domain</text><g class="layers" style="opacity: 1;"><g class="legendfill"/><g class="legendlines"><path class="js-line" d="M5,0h30" style="fill: none; stroke: rgb(0, 0, 0); stroke-opacity: 1; stroke-dasharray: 9px, 9px; stroke-width: 2px;"/></g><g class="legendsymbols"><g class="legendpoints"/></g></g><rect class="legendtoggle" x="0" y="-19.7" width="222.65625" height="39.4" style="fill: rgb(0, 0, 0); fill-opacity: 0;"/></g></g></g><rect class="scrollbar" rx="20" ry="3" width="0" height="0" x="0" y="0" style="fill: rgb(128, 139, 164); fill-opacity: 1;"/></g><g class="g-gtitle"/><g class="g-xtitle" transform="translate(0,-1.3000000000000114)"><text class="xtitle" x="530.5" y="394.3" text-anchor="middle" style="opacity: 1; font-family: 'Open Sans', verdana, arial, sans-serif; font-size: 34px; fill: rgb(0, 0, 0); fill-opacity: 1; white-space: pre;">East [m]</text></g><g class="g-ytitle" transform="translate(16.525390625,0)"><text class="ytitle" transform="rotate(-90,17.474999999999994,166)" x="17.474999999999994" y="166" text-anchor="middle" style="opacity: 1; font-family: 'Open Sans', verdana, arial, sans-serif; font-size: 34px; fill: rgb(0, 0, 0); fill-opacity: 1; white-space: pre;">North [m]</text></g></g></svg>