<svg class="main-svg" xmlns="http://www.w3.org/2000/svg" xmlns:xlink="http://www.w3.org/1999/xlink" width="1200" height="400" style="" viewBox="0 0 1200 400"><rect x="0" y="0" width="1200" height="400" style="fill: rgb(255, 255, 255); fill-opacity: 1;"/><defs id="defs-5dfc37"><g class="clips"><clipPath id="clip5dfc37xyplot" class="plotclip"><rect width="839" height="310"/></clipPath><clipPath class="axesclip" id="clip5dfc37x"><rect x="111" y="0" width="839" height="400"/></clipPath><clipPath class="axesclip" id="clip5dfc37y"><rect x="0" y="11" width="1200" height="310"/></clipPath><clipPath class="axesclip" id="clip5dfc37xy"><rect x="111" y="11" width="839" height="310"/></clipPath></g><g class="gradients"/><g class="patterns"/></defs><g class="bglayer"/><g class="layer-below"><g class="imagelayer"/><g class="shapelayer"/></g><g class="cartesianlayer"><g class="subplot xy"><g class="layer-subplot"><g class="shapelayer"/><g class="imagelayer"/></g><g class="minor-gridlayer"><g class="x"/><g class="y"/></g><g class="gridlayer"><g class="x"><path class="xgrid crisp" transform="translate(173.56,0)" d="M0,11v310" style="stroke: rgb(200, 200, 200); stroke-opacity: 1; stroke-width: 1px;"/><path class="xgrid crisp" transform="translate(244.95,0)" d="M0,11v310" style="stroke: rgb(200, 200, 200); stroke-opacity: 1; stroke-width: 1px;"/><path class="xgrid crisp" transform="translate(316.34000000000003,0)" d="M0,11v310" style="stroke: rgb(200, 200, 200); stroke-opacity: 1; stroke-width: 1px;"/><path class="xgrid crisp" transform="translate(387.73,0)" d="M0,11v310" style="stroke: rgb(200, 200, 200); stroke-opacity: 1; stroke-width: 1px;"/><path class="xgrid crisp" transform="translate(459.11,0)" d="M0,11v310" style="stroke: rgb(200, 200, 200); stroke-opacity: 1; stroke-width: 1px;"/><path class="xgrid crisp" transform="translate(601.89,0)" d="M0,11v310" style="stroke: rgb(200, 200, 200); stroke-opacity: 1; stroke-width: 1px;"/><path class="xgrid crisp" transform="translate(673.27,0)" d="M0,11v310" style="stroke: rgb(200, 200, 200); stroke-opacity: 1; stroke-width: 1px;"/><path class="xgrid crisp" transform="translate(744.66,0)" d="M0,11v310" style="stroke: rgb(200, 200, 200); stroke-opacity: 1; stroke-width: 1px;"/><path class="xgrid crisp" transform="translate(816.05,0)" d="M0,11v310" style="stroke: rgb(200, 200, 200); stroke-opacity: 1; stroke-width: 1px;"/><path class="xgrid crisp" transform="translate(887.44,0)" d="M0,11v310" style="stroke: rgb(200, 200, 200); stroke-opacity: 1; stroke-width: 1px;"/></g><g class="y"><path class="ygrid crisp" transform="translate(0,308.77)" d="M111,0h839" style="stroke: rgb(200, 200, 200); stroke-opacity: 1; stroke-width: 1px;"/><path class="ygrid crisp" transform="translate(0,273.08)" d="M111,0h839" style="stroke: rgb(200, 200, 200); stroke-opacity: 1; stroke-width: 1px;"/><path class="ygrid crisp" transform="translate(0,237.39)" d="M111,0h839" style="stroke: rgb(200, 200, 200); stroke-opacity: 1; stroke-width: 1px;"/><path class="ygrid crisp" transform="translate(0,201.69)" d="M111,0h839" style="stroke: rgb(200, 200, 200); stroke-opacity: 1; stroke-width: 1px;"/><path class="ygrid crisp" transform="translate(0,130.31)" d="M111,0h839" style="stroke: rgb(200, 200, 200); stroke-opacity: 1; stroke-width: 1px;"/><path class="ygrid crisp" transform="translate(0,94.61)" d="M111,0h839" style="stroke: rgb(200, 200, 200); stroke-opacity: 1; stroke-width: 1px;"/><path class="ygrid crisp" transform="translate(0,58.92)" d="M111,0h839" style="stroke: rgb(200, 200, 200); stroke-opacity: 1; stroke-width: 1px;"/><path class="ygrid crisp" transform="translate(0,23.23)" d="M111,0h839" style="stroke: rgb(200, 200, 200); stroke-opacity: 1; stroke-width: 1px;"/></g></g><g class="zerolinelayer"><path class="xzl zl crisp" transform="translate(530.5,0)" d="M0,11v310" style="stroke: rgb(200, 200, 200); stroke-opacity: 1; stroke-width: 2px;"/><path class="yzl zl crisp" transform="translate(0,166)" d="M111,0h839" style="stroke: rgb(200, 200, 200); stroke-opacity: 1; stroke-width: 2px;"/></g><g class="layer-between"><g class="shapelayer"/><g class="imagelayer"/></g><path class="xlines-below"/><path class="ylines-below"/><g class="overlines-below"/><g class="xaxislayer-below"/><g class="yaxislayer-below"/><g class="overaxes-below"/><g class="overplot"><g class="xy" transform="translate(111,11)" clip-path="url(#clip5dfc37xyplot)"><g class="scatterlayer mlayer"><g class="trace scatter trace4c0be0" style="stroke-miterlimit: 2; opacity: 1;"><g class="fills"/><g class="errorbars"/><g class="lines"><path class="js-line" d="M62.56,155L272.72,155.75L275.11,155.85L294.31,157.34L296.72,157.64L313.64,160.69L316.07,161.28L330.7,165.78L333.15,166.67L357.75,176.7L360.21,177.72L379.9,185.16L382.36,185.94L394.61,189.03L397.05,189.48L409.19,190.79L411.6,190.87L423.59,190.33L425.97,190.04L437.76,187.6L440.09,186.91L451.62,182.51L453.9,181.43L465.14,175.09L467.37,173.67L482.79,162.66L484.98,160.99L515.78,138.05L518.02,136.6L531.59,128.86L533.87,127.75L545.43,123.08L547.76,122.33L559.56,119.66L561.94,119.34L571.55,118.9L573.98,119.01L583.76,120.3L586.23,120.83L598.65,124.47L601.15,125.36L621.22,133.58L623.74,134.67L646.25,143.68L648.73,144.5L663.5,148.52L665.95,149.05L682.98,151.85L685.39,152.14L707.07,153.84L709.47,153.96L745.39,154.9L747.78,154.92L776.44,155" style="vector-effect: none; fill: none; stroke: rgb(100, 143, 255); stroke-opacity: 1; stroke-width: 2px; opacity: 1;"/></g><g class="points"/><g class="text"/></g><g class="trace scatter trace73c33b" style="stroke-miterlimit: 2; opacity: 1;"><g class="fills"/><g class="errorbars"/><g class="lines"/><g class="points"><path class="point" transform="translate(62.56,155)" d="M4,0A4,4 0 1,1 0,-4A4,4 0 0,1 4,0Z" style="opacity: 1; stroke-width: 0px; fill: rgb(100, 143, 255); fill-opacity: 1;"/><path class="point" transform="translate(88.25,155)" d="M4,0A4,4 0 1,1 0,-4A4,4 0 0,1 4,0Z" style="opacity: 1; stroke-width: 0px; fill: rgb(100, 143, 255); fill-opacity: 1;"/><path class="point" transform="translate(127.46,155)" d="M4,0A4,4 0 1,1 0,-4A4,4 0 0,1 4,0Z" style="opacity: 1; stroke-width: 0px; fill: rgb(100, 143, 255); fill-opacity: 1;"/><path class="point" transform="translate(192.36,155)" d="M4,0A4,4 0 1,1 0,-4A4,4 0 0,1 4,0Z" style="opacity: 1; stroke-width: 0px; fill: rgb(100, 143, 255); fill-opacity: 1;"/><path class="point" transform="translate(257.26,155)" d="M4,0A4,4 0 1,1 0,-4A4,4 0 0,1 4,0Z" style="opacity: 1; stroke-width: 0px; fill: rgb(100, 143, 255); fill-opacity: 1;"/><path class="point" transform="translate(322.29,157.14)" d="M4,0A4,4 0 1,1 0,-4A4,4 0 0,1 4,0Z" style="opacity: 1; stroke-width: 0px; fill: rgb(100, 143, 255); fill-opacity: 1;"/><path class="point" transform="translate(389.82,195.17)" d="M4,0A4,4 0 1,1 0,-4A4,4 0 0,1 4,0Z" style="opacity: 1; stroke-width: 0px; fill: rgb(100, 143, 255); fill-opacity: 1;"/><path class="point" transform="translate(455.39,189.63)" d="M4,0A4,4 0 1,1 0,-4A4,4 0 0,1 4,0Z" style="opacity: 1; stroke-width: 0px; fill: rgb(100, 143, 255); fill-opacity: 1;"/><path class="point" transform="translate(513.28,134.26)" d="M4,0A4,4 0 1,1 0,-4A4,4 0 0,1 4,0Z" style="opacity: 1; stroke-width: 0px; fill: rgb(100, 143, 255); fill-opacity: 1;"/><path class="point" transform="translate(576.46,108.08)" d="M4,0A4,4 0 1,1 0,-4A4,4 0 0,1 4,0Z" style="opacity: 1; stroke-width: 0px; fill: rgb(100, 143, 255); fill-opacity: 1;"/><path class="point" transform="translate(646.01,149.28)" d="M4,0A4,4 0 1,1 0,-4A4,4 0 0,1 4,0Z" style="opacity: 1; stroke-width: 0px; fill: rgb(100, 143, 255); fill-opacity: 1;"/><path class="point" transform="translate(711.54,155)" d="M4,0A4,4 0 1,1 0,-4A4,4 0 0,1 4,0Z" style="opacity: 1; stroke-width: 0px; fill: rgb(100, 143, 255); fill-opacity: 1;"/><path class="point" transform="translate(754.8,155)" d="M4,0A4,4 0 1,1 0,-4A4,4 0 0,1 4,0Z" style="opacity: 1; stroke-width: 0px; fill: rgb(100, 143, 255); fill-opacity: 1;"/><path class="point" transform="translate(776.44,155)" d="M4,0A4,4 0 1,1 0,-4A4,4 0 0,1 4,0Z" style="opacity: 1; stroke-width: 0px; fill: rgb(100, 143, 255); fill-opacity: 1;"/></g><g class="text"/></g><g class="trace scatter trace574414" style="stroke-miterlimit: 2; opacity: 1;"><g class="fills"/><g class="errorbars"/><g class="lines"/><g class="points"><path class="point" transform="translate(62.56,155)" d="M0,0Z" style="opacity: 1; stroke-width: 0px; fill: rgb(12, 51, 131); fill-opacity: 1;"/><path class="point" transform="translate(128.48,155)" d="M-3.0000000000000004,-6.93L-2.9999999999999996,6.93L6,-3.6739403974420594e-16Z" style="opacity: 1; stroke-width: 0px; fill: rgb(11, 82, 151); fill-opacity: 1;"/><path class="point" transform="translate(192.36,155)" d="M-3.0000000000000004,-6.93L-2.9999999999999996,6.93L6,-3.6739403974420594e-16Z" style="opacity: 1; stroke-width: 0px; fill: rgb(11, 113, 171); fill-opacity: 1;"/><path class="point" transform="translate(257.28,155.36)" d="M-2.961775570886465,-6.946422494183618L-3.0381333738747043,6.913367168214683L5.999908944761169,0.033055325968934776Z" style="opacity: 1; stroke-width: 0px; fill: rgb(31, 143, 174); fill-opacity: 1;"/><path class="point" transform="translate(322.71,163.12)" d="M-2.1622467840296773,-7.235301572495325L-3.7959273030250973,6.528080568601204L5.958174087054775,0.7072210038941213Z" style="opacity: 1; stroke-width: 0px; fill: rgb(115, 170, 127); fill-opacity: 1;"/><path class="point" transform="translate(389.49,187.91)" d="M-0.40150668596599104,-7.540801839401737L-5.223644096055758,5.453296467068504L5.625150782021749,2.0875053723332324Z" style="opacity: 1; stroke-width: 0px; fill: rgb(200, 197, 80); fill-opacity: 1;"/><path class="point" transform="translate(454.11,181.33)" d="M-3.686796965842993,-6.590328378210823L-2.2823182689260277,7.198327814105613L5.969115234769021,-0.60799943589479Z" style="opacity: 1; stroke-width: 0px; fill: rgb(242, 199, 56); fill-opacity: 1;"/><path class="point" transform="translate(514.16,139.13)" d="M-6.438975865523576,-3.9451856487629215L1.5298504684604213,7.394894018452964L4.909125397063154,-3.4497083696900424Z" style="opacity: 1; stroke-width: 0px; fill: rgb(242, 174, 56); fill-opacity: 1;"/><path class="point" transform="translate(577.52,119.31)" d="M-4.931833709912988,-5.7185589319133445L-0.7946241561664036,7.509558738730048L5.726457866079391,-1.7909998068167032Z" style="opacity: 1; stroke-width: 0px; fill: rgb(242, 149, 56); fill-opacity: 1;"/><path class="point" transform="translate(645.34,143.36)" d="M-0.5109868759814464,-7.534174965619973L-5.1438894822084755,5.528589421798748L5.654876358189922,2.005585543821225Z" style="opacity: 1; stroke-width: 0px; fill: rgb(235, 112, 49); fill-opacity: 1;"/><path class="point" transform="translate(711.43,154.05)" d="M-1.8557794968023908,-7.319903172805489L-4.06734539894833,6.362515336378676L5.923124895750721,0.9573878364268136Z" style="opacity: 1; stroke-width: 0px; fill: rgb(226, 71, 39); fill-opacity: 1;"/><path class="point" transform="translate(776.44,155)" d="M-2.898000575464585,-6.97326986890705L-3.101353592758729,6.885238259688805L5.999354168223314,0.08803160921824393Z" style="opacity: 1; stroke-width: 0px; fill: rgb(217, 30, 30); fill-opacity: 1;"/></g><g class="text"/></g><g class="trace scatter trace4a81a6" style="stroke-miterlimit: 2; opacity: 1;"><g class="fills"><g><path class="js-fill" d="M433.78,147.86L433.07,143.43L432.92,143L430.75,139.07L430.47,138.72L427.09,135.77L426.7,135.53L422.52,133.91L422.08,133.82L417.59,133.71L417.14,133.78L412.89,135.21L412.49,135.42L408.98,138.21L408.68,138.55L406.32,142.37L406.15,142.79L405.24,147.19L405.22,147.64L405.86,152.08L406,152.51L408.11,156.47L408.39,156.83L412.1,160.07L412.49,160.3L416.7,161.86L417.14,161.94L421.63,161.98L422.08,161.9L426.31,160.41L426.7,160.19L430.47,157L430.75,156.65L432.92,152.72L433.07,152.29L433.78,147.86Z" style="fill: rgb(204, 204, 204); fill-opacity: 0.5; stroke-width: 0;"/></g></g><g class="errorbars"/><g class="lines"><path class="js-line" d="M433.78,147.86L433.07,143.43L432.92,143L430.75,139.07L430.47,138.72L427.09,135.77L426.7,135.53L422.52,133.91L422.08,133.82L417.59,133.71L417.14,133.78L412.89,135.21L412.49,135.42L408.98,138.21L408.68,138.55L406.32,142.37L406.15,142.79L405.24,147.19L405.22,147.64L405.86,152.08L406,152.51L408.11,156.47L408.39,156.83L412.1,160.07L412.49,160.3L416.7,161.86L417.14,161.94L421.63,161.98L422.08,161.9L426.31,160.41L426.7,160.19L430.47,157L430.75,156.65L432.92,152.72L433.07,152.29L433.78,147.86" style="vector-effect: none; fill: none; stroke: rgb(0, 0, 0); stroke-opacity: 1; stroke-width: 2px; opacity: 1;"/></g><g class="points"/><g class="text"/></g><g class="trace scatter tracead4c59" style="stroke-miterlimit: 2; opacity: 1;"><g class="fills"/><g class="errorbars"/><g class="lines"><path class="js-line" d="M455.19,147.86L454.55,141.14L454.33,140.04L451.76,132.59L451.26,131.58L446.92,125.01L446.19,124.16L441.25,119.56L440.34,118.89L434.51,115.48L433.48,115.02L425.94,112.75L424.83,112.57L416.97,112.26L415.84,112.36L409.22,113.68L408.15,114.02L401.01,117.33L400.05,117.93L393.96,122.92L393.19,123.74L389.12,129.13L388.54,130.1L385.4,137.31L385.08,138.4L383.85,146.17L383.81,147.3L384.56,155.14L384.8,156.23L387,162.62L387.48,163.64L391.72,170.27L392.44,171.14L398.2,176.5L399.12,177.16L405,180.48L406.04,180.92L412.5,182.86L413.61,183.07L421.47,183.5L422.6,183.42L430.32,181.88L431.38,181.52L437.51,178.68L438.47,178.09L443.83,173.98L444.64,173.2L449.58,167.07L450.17,166.11L453.06,160.01L453.43,158.94L455.03,151.24L455.12,150.11L455.19,147.86" style="vector-effect: none; fill: none; stroke: rgb(0, 0, 0); stroke-opacity: 1; stroke-dasharray: 9px, 9px; stroke-width: 2px; opacity: 1;"/></g><g class="points"/><g class="text"/></g><g class="trace scatter trace1375f8" style="stroke-miterlimit: 2; opacity: 1;"><g class="fills"><g><path class="js-fill" d="M576.55,162.14L575.7,157.28L575.54,156.86L573.24,153L572.95,152.66L569.09,149.59L568.69,149.38L563.96,147.96L563.51,147.92L559.03,148.23L558.6,148.34L554.12,150.42L553.75,150.68L550.36,154.27L550.12,154.65L548.4,158.79L548.3,159.23L548.08,163.71L548.14,164.16L549.47,168.45L549.67,168.85L552.71,172.74L553.05,173.04L557.31,175.52L557.73,175.67L562.16,176.42L562.61,176.41L567.03,175.6L567.45,175.44L571.33,173.18L571.67,172.89L574.54,169.44L574.77,169.05L576.3,164.83L576.37,164.38L576.55,162.14Z" style="fill: rgb(204, 204, 204); fill-opacity: 0.5; stroke-width: 0;"/></g></g><g class="errorbars"/><g class="lines"><path class="js-line" d="M576.55,162.14L575.7,157.28L575.54,156.86L573.24,153L572.95,152.66L569.09,149.59L568.69,149.38L563.96,147.96L563.51,147.92L559.03,148.23L558.6,148.34L554.12,150.42L553.75,150.68L550.36,154.27L550.12,154.65L548.4,158.79L548.3,159.23L548.08,163.71L548.14,164.16L549.47,168.45L549.67,168.85L552.71,172.74L553.05,173.04L557.31,175.52L557.73,175.67L562.16,176.42L562.61,176.41L567.03,175.6L567.45,175.44L571.33,173.18L571.67,172.89L574.54,169.44L574.77,169.05L576.3,164.83L576.37,164.38L576.55,162.14" style="vector-effect: none; fill: none; stroke: rgb(0, 0, 0); stroke-opacity: 1; stroke-width: 2px; opacity: 1;"/></g><g class="points"/><g class="text"/></g><g class="trace scatter trace313758" style="stroke-miterlimit: 2; opacity: 1;"><g class="fills"/><g class="errorbars"/><g class="lines"><path class="js-line" d="M597.97,162.14L597.1,154.31L596.84,153.22L594.04,145.86L593.51,144.86L588.96,138.44L588.2,137.61L582.19,132.52L581.25,131.91L575.21,128.87L574.16,128.48L567.61,126.85L566.49,126.7L559.74,126.54L558.62,126.63L550.92,128.3L549.86,128.67L542.83,132.21L541.89,132.84L535.96,138.02L535.22,138.86L531.32,144.37L530.77,145.36L527.86,152.67L527.58,153.77L526.62,160.45L526.59,161.58L527.33,169.41L527.58,170.51L529.77,176.9L530.26,177.92L533.8,183.66L534.49,184.55L540.08,190.1L540.98,190.78L546.75,194.28L547.77,194.75L554.17,196.9L555.28,197.14L563.12,197.82L564.25,197.78L572.01,196.48L573.09,196.15L579.3,193.51L580.28,192.96L586.6,188.26L587.41,187.48L592.36,181.35L592.95,180.39L596.2,173.22L596.54,172.15L597.9,164.39L597.95,163.27L597.97,162.14" style="vector-effect: none; fill: none; stroke: rgb(0, 0, 0); stroke-opacity: 1; stroke-dasharray: 9px, 9px; stroke-width: 2px; opacity: 1;"/></g><g class="points"/><g class="text"/></g></g></g></g><path class="xlines-above crisp" d="M0,0" style="fill: none;"/><path class="ylines-above crisp" d="M0,0" style="fill: none;"/><g class="overlines-above"/><g class="xaxislayer-above"><g class="xtick"><text text-anchor="middle" x="0" y="350" transform="translate(173.56,0)" style="font-family: 'Open Sans', verdana, arial, sans-serif; font-size: 28px; fill: rgb(0, 0, 0); fill-opacity: 1; white-space: pre; opacity: 1;">-500</text></g><g class="xtick"><text text-anchor="middle" x="0" y="350" style="font-family: 'Open Sans', verdana, arial, sans-serif; font-size: 28px; fill: rgb(0, 0, 0); fill-opacity: 1; white-space: pre; opacity: 1;" transform="translate(244.95,0)">-400</text></g><g class="xtick"><text text-anchor="middle" x="0" y="350" style="font-family: 'Open Sans', verdana, arial, sans-serif; font-size: 28px; fill: rgb(0, 0, 0); fill-opacity: 1; white-space: pre; opacity: 1;" transform="translate(316.34000000000003,0)">-300</text></g><g class="xtick"><text text-anchor="middle" x="0" y="350" style="font-family: 'Open Sans', verdana, arial, sans-serif; font-size: 28px; fill: rgb(0, 0, 0); fill-opacity: 1; white-space: pre; opacity: 1;" transform="translate(387.73,0)">-200</text></g><g class="xtick"><text text-anchor="middle" x="0" y="350" style="font-family: 'Open Sans', verdana, arial, sans-serif; font-size: 28px; fill: rgb(0, 0, 0); fill-opacity: 1; white-space: pre; opacity: 1;" transform="translate(459.11,0)">-100</text></g><g class="xtick"><text text-anchor="middle" x="0" y="350" style="font-family: 'Open Sans', verdana, arial, sans-serif; font-size: 28px; fill: rgb(0, 0, 0); fill-opacity: 1; white-space: pre; opacity: 1;" transform="translate(530.5,0)">0</text></g><g class="xtick"><text text-anchor="middle" x="0" y="350" style="font-family: 'Open Sans', verdana, arial, sans-serif; font-size: 28px; fill: rgb(0, 0, 0); fill-opacity: 1; white-space: pre; opacity: 1;" transform="translate(601.89,0)">100</text></g><g class="xtick"><text text-anchor="middle" x="0" y="350" style="font-family: 'Open Sans', verdana, arial, sans-serif; font-size: 28px; fill: rgb(0, 0, 0); fill-opacity: 1; white-space: pre; opacity: 1;" transform="translate(673.27,0)">200</text></g><g class="xtick"><text text-anchor="middle" x="0" y="350" style="font-family: 'Open Sans', verdana, arial, sans-serif; font-size: 28px; fill: rgb(0, 0, 0); fill-opacity: 1; white-space: pre; opacity: 1;" transform="translate(744.66,0)">300</text></g><g class="xtick"><text text-anchor="middle" x="0" y="350" style="font-family: 'Open Sans', verdana, arial, sans-serif; font-size: 28px; fill: rgb(0, 0, 0); fill-opacity: 1; white-space: pre; opacity: 1;" transform="translate(816.05,0)">400</text></g><g class="xtick"><text text-anchor="middle" x="0" y="350" style="font-family: 'Open Sans', verdana, arial, sans-serif; font-size: 28px; fill: rgb(0, 0, 0); fill-opacity: 1; white-space: pre; opacity: 1;" transform="translate(887.44,0)">500</text></g></g><g class="yaxislayer-above"><g class="ytick"><text text-anchor="end" x="110" y="9.799999999999999" transform="translate(0,308.77)" style="font-family: 'Open Sans', verdana, arial, sans-serif; font-size: 28px; fill: rgb(0, 0, 0); fill-opacity: 1; white-space: pre; opacity: 1;">-200</text></g><g class="ytick"><text text-anchor="end" x="110" y="9.799999999999999" style="font-family: 'Open Sans', verdana, arial, sans-serif; font-size: 28px; fill: rgb(0, 0, 0); fill-opacity: 1; white-space: pre; opacity: 1;" transform="translate(0,273.08)">-150</text></g><g class="ytick"><text text-anchor="end" x="110" y="9.799999999999999" style="font-family: 'Open Sans', verdana, arial, sans-serif; font-size: 28px; fill: rgb(0, 0, 0); fill-opacity: 1; white-space: pre; opacity: 1;" transform="translate(0,237.39)">-100</text></g><g class="ytick"><text text-anchor="end" x="110" y="9.799999999999999" style="font-family: 'Open Sans', verdana, arial, sans-serif; font-size: 28px; fill: rgb(0, 0, 0); fill-opacity: 1; white-space: pre; opacity: 1;" transform="translate(0,201.69)">-50</text></g><g class="ytick"><text text-anchor="end" x="110" y="9.799999999999999" style="font-family: 'Open Sans', verdana, arial, sans-serif; font-size: 28px; fill: rgb(0, 0, 0); fill-opacity: 1; white-space: pre; opacity: 1;" transform="translate(0,166)">0</text></g><g class="ytick"><text text-anchor="end" x="110" y="9.799999999999999" style="font-family: 'Open Sans', verdana, arial, sans-serif; font-size: 28px; fill: rgb(0, 0, 0); fill-opacity: 1; white-space: pre; opacity: 1;" transform="translate(0,130.31)">50</text></g><g class="ytick"><text text-anchor="end" x="110" y="9.799999999999999" style="font-family: 'Open Sans', verdana, arial, sans-serif; font-size: 28px; fill: rgb(0, 0, 0); fill-opacity: 1; white-space: pre; opacity: 1;" transform="translate(0,94.61)">100</text></g><g class="ytick"><text text-anchor="end" x="110" y="9.799999999999999" style="font-family: 'Open Sans', verdana, arial, sans-serif; font-size: 28px; fill: rgb(0, 0, 0); fill-opacity: 1; white-space: pre; opacity: 1;" transform="translate(0,58.92)">150</text></g><g class="ytick"><text text-anchor="end" x="110" y="9.799999999999999" style="font-family: 'Open Sans', verdana, arial, sans-serif; font-size: 28px; fill: rgb(0, 0, 0); fill-opacity: 1; white-space: pre; opacity: 1;" transform="translate(0,23.23)">200</text></g></g><g class="overaxes-above"/></g></g><g class="polarlayer"/><g class="smithlayer"/><g class="ternarylayer"/><g class="geolayer"/><g class="funnelarealayer"/><g class="pielayer"/><g class="iciclelayer"/><g class="treemaplayer"/><g class="sunburstlayer"/><g class="glimages"/><defs id="topdefs-5dfc37"><g class="clips"/><clipPath id="legend5dfc37"><rect width="228" height="304" x="0" y="0"/></clipPath></defs><g class="layer-above"><g class="imagelayer"/><g class="shapelayer"/></g><g class="infolayer"><g class="legend" pointer-events="all" transform="translate(966.78,11)"><rect class="bg" shape-rendering="crispEdges" width="228" height="304" x="0" y="0" style="stroke: rgb(68, 68, 68); stroke-opacity: 1; fill: rgb(255, 255, 255); fill-opacity: 1; stroke-width: 0px;"/><g class="scrollbox" transform="" clip-path="url(#legend5dfc37)"><g class="groups" transform=""><g class="traces" transform="translate(0,26.650000000000002)" style="opacity: 1;"><text class="legendtext" text-anchor="start" x="5" y="12.090000000000002" style="font-family: 'Open Sans', verdana, arial, sans-serif; font-size: 31px; fill: rgb(0, 0, 0); fill-opacity: 1; white-space: pre;">Own ship</text><g class="layers"><g class="legendfill"/><g class="legendlines"/><g class="legendsymbols"><g class="legendpoints"/></g></g><rect class="legendtoggle" x="0" y="-21.650000000000002" width="222.65625" height="43.300000000000004" style="fill: rgb(0, 0, 0); fill-opacity: 0;"/></g><g class="traces" transform="translate(0,68)" style="opacity: 1;"><text class="legendtext" text-anchor="start" x="40" y="10.92" style="font-family: 'Open Sans', verdana, arial, sans-serif; font-size: 28px; fill: rgb(0, 0, 0); fill-opacity: 1; white-space: pre;">Trajectory</text><g class="layers" style="opacity: 1;"><g class="legendfill"/><g class="legendlines"><path class="js-line" d="M5,0h30" style="fill: none; stroke: rgb(100, 143, 255); stroke-opacity: 1; stroke-width: 2px;"/></g><g class="legendsymbols"><g class="legendpoints"/></g></g><rect class="legendtoggle" x="0" y="-19.7" width="222.65625" height="39.4" style="fill: rgb(0, 0, 0); fill-opacity: 0;"/></g><g class="traces" transform="translate(0,107.4)" style="opacity: 1;"><text class="legendtext" text-anchor="start" x="40" y="10.92" style="font-family: 'Open Sans', verdana, arial, sans-serif; font-size: 28px; fill: rgb(0, 0, 0); fill-opacity: 1; white-space: pre;">Control point</text><g class="layers" style="opacity: 1;"><g class="legendfill"/><g class="legendlines"/><g class="legendsymbols"><g class="legendpoints"><path class="scatterpts" transform="translate(20,0)" d="M4,0A4,4 0 1,1 0,-4A4,4 0 0,1 4,0Z" style="opacity: 1; stroke-width: 0px; fill: rgb(100, 143, 255); fill-opacity: 1;"/></g></g></g><rect class="legendtoggle" x="0" y="-19.7" width="222.65625" height="39.4" style="fill: rgb(0, 0, 0); fill-opacity: 0;"/></g><g class="traces" transform="translate(0,146.79999999999998)" style="opacity: 1;"><text class="legendtext" text-anchor="start" x="40" y="10.92" style="font-family: 'Open Sans', verdana, arial, sans-serif; font-size: 28px; fill: rgb(0, 0, 0); fill-opacity: 1; white-space: pre;">Break point</text><g class="layers" style="opacity: 1;"><g class="legendfill"/><g class="legendlines"/><g class="legendsymbols"><g class="legendpoints"><path class="scatterpts" transform="translate(20,0)" d="M-3.0000000000000004,-6.93L-2.9999999999999996,6.93L6,-3.6739403974420594e-16Z" style="opacity: 1; stroke-width: 0px; fill: rgb(12, 51, 131); fill-opacity: 1;"/></g></g></g><rect class="legendtoggle" x="0" y="-19.7" width="222.65625" height="39.4" style="fill: rgb(0, 0, 0); fill-opacity: 0;"/></g></g><g class="groups" transform="translate(0,10)"><g class="traces" transform="translate(0,188.15)" style="opacity: 1;"><text class="legendtext" text-anchor="start" x="5" y="12.090000000000002" style="font-family: 'Open Sans', verdana, arial, sans-serif; font-size: 31px; fill: rgb(0, 0, 0); fill-opacity: 1; white-space: pre;">Target ship</text><g class="layers"><g class="legendfill"/><g class="legendlines"/><g class="legendsymbols"><g class="legendpoints"/></g></g><rect class="legendtoggle" x="0" y="-21.650000000000002" width="222.65625" height="43.300000000000004" style="fill: rgb(0, 0, 0); fill-opacity: 0;"/></g><g class="traces" transform="translate(0,229.5)" style="opacity: 1;"><text class="legendtext" text-anchor="start" x="40" y="10.92" style="font-family: 'Open Sans', verdana, arial, sans-serif; font-size: 28px; fill: rgb(0, 0, 0); fill-opacity: 1; white-space: pre;">Extent</text><g class="layers" style="opacity: 1;"><g class="legendfill"><path class="js-fill" d="M5,-2h30v6h-30z" style="stroke-width: 0; fill: rgb(204, 204, 204); fill-opacity: 0.5;"/></g><g class="legendlines"><path class="js-line" d="M5,-2h30" style="fill: none; stroke: rgb(0, 0, 0); stroke-opacity: 1; stroke-width: 2px;"/></g><g class="legendsymbols"><g class="legendpoints"/></g></g><rect class="legendtoggle" x="0" y="-19.7" width="222.65625" height="39.4" style="fill: rgb(0, 0, 0); fill-opacity: 0;"/></g><g class="traces" transform="translate(0,268.90000000000003)" style="opacity: 1;"><text class="legendtext" text-anchor="start" x="40" y="10.92" style="font-family: 'Open Sans', verdana, arial, sans-serif; font-size: 28px; fill: rgb(0, 0, 0); fill-opacity: 1; white-space: pre;">Domain</text><g class="layers" style="opacity: 1;"><g class="legendfill"/><g class="legendlines"><path class="js-line" d="M5,0h30" style="fill: none; stroke: rgb(0, 0, 0); stroke-opacity: 1; stroke-dasharray: 9px, 9px; stroke-width: 2px;"/></g><g class="legendsymbols"><g class="legendpoints"/></g></g><rect class="legendtoggle" x="0" y="-19.7" width="222.65625" height="39.4" style="fill: rgb(0, 0, 0); fill-opacity: 0;"/></g></g></g><rect class="scrollbar" rx="20" ry="3" width="0" height="0" x="0" y="0" style="fill: rgb(128, 139, 164); fill-opacity: 1;"/></g><g class="g-gtitle"/><g class="g-xtitle" transform="translate(0,-1.3000000000000114)"><text class="xtitle" x="530.5" y="394.3" text-anchor="middle" style="opacity: 1; font-family: 'Open Sans', verdana, arial, sans-serif; font-size: 34px; fill: rgb(0, 0, 0); fill-opacity: 1; white-space: pre;">East [m]</text></g><g class="g-ytitle" transform="translate(16.525390625,0)"><text class="ytitle" transform="rotate(-90,17.474999999999994,166)" x="17.474999999999994" y="166" text-anchor="middle" style="opacity: 1; font-family: 'Open Sans', verdana, arial, sans-serif; font-size: 34px; fill: rgb(0, 0, 0); fill-opacity: 1; white-space: pre;">North [m]</text></g></g></svg>