<svg class="main-svg" xmlns="http://www.w3.org/2000/svg" xmlns:xlink="http://www.w3.org/1999/xlink" width="1200" height="400" style="" viewBox="0 0 1200 400"><rect x="0" y="0" width="1200" height="400" style="fill: rgb(255, 255, 255); fill-opacity: 1;"/><defs id="defs-eac5a7"><g class="clips"><clipPath id="clipeac5a7xyplot" class="plotclip"><rect width="839" height="310"/></clipPath><clipPath class="axesclip" id="clipeac5a7x"><rect x="111" y="0" width="839" height="400"/></clipPath><clipPath class="axesclip" id="clipeac5a7y"><rect x="0" y="11" width="1200" height="310"/></clipPath><clipPath class="axesclip" id="clipeac5a7xy"><rect x="111" y="11" width="839" height="310"/></clipPath></g><g class="gradients"/><g class="patterns"/></defs><g class="bglayer"/><g class="layer-below"><g class="imagelayer"/><g class="shapelayer"/></g><g class="cartesianlayer"><g class="subplot xy"><g class="layer-subplot"><g class="shapelayer"/><g class="imagelayer"/></g><g class="minor-gridlayer"><g class="x"/><g class="y"/></g><g class="gridlayer"><g class="x"><path class="xgrid crisp" transform="translate(173.56,0)" d="M0,11v310" style="stroke: rgb(200, 200, 200); stroke-opacity: 1; stroke-width: 1px;"/><path class="xgrid crisp" transform="translate(244.95,0)" d="M0,11v310" style="stroke: rgb(200, 200, 200); stroke-opacity: 1; stroke-width: 1px;"/><path class="xgrid crisp" transform="translate(316.34000000000003,0)" d="M0,11v310" style="stroke: rgb(200, 200, 200); stroke-opacity: 1; stroke-width: 1px;"/><path class="xgrid crisp" transform="translate(387.73,0)" d="M0,11v310" style="stroke: rgb(200, 200, 200); stroke-opacity: 1; stroke-width: 1px;"/><path class="xgrid crisp" transform="translate(459.11,0)" d="M0,11v310" style="stroke: rgb(200, 200, 200); stroke-opacity: 1; stroke-width: 1px;"/><path class="xgrid crisp" transform="translate(601.89,0)" d="M0,11v310" style="stroke: rgb(200, 200, 200); stroke-opacity: 1; stroke-width: 1px;"/><path class="xgrid crisp" transform="translate(673.27,0)" d="M0,11v310" style="stroke: rgb(200, 200, 200); stroke-opacity: 1; stroke-width: 1px;"/><path class="xgrid crisp" transform="translate(744.66,0)" d="M0,11v310" style="stroke: rgb(200, 200, 200); stroke-opacity: 1; stroke-width: 1px;"/><path class="xgrid crisp" transform="translate(816.05,0)" d="M0,11v310" style="stroke: rgb(200, 200, 200); stroke-opacity: 1; stroke-width: 1px;"/><path class="xgrid crisp" transform="translate(887.44,0)" d="M0,11v310" style="stroke: rgb(200, 200, 200); stroke-opacity: 1; stroke-width: 1px;"/></g><g class="y"><path class="ygrid crisp" transform="translate(0,308.77)" d="M111,0h839" style="stroke: rgb(200, 200, 200); stroke-opacity: 1; stroke-width: 1px;"/><path class="ygrid crisp" transform="translate(0,273.08)" d="M111,0h839" style="stroke: rgb(200, 200, 200); stroke-opacity: 1; stroke-width: 1px;"/><path class="ygrid crisp" transform="translate(0,237.39)" d="M111,0h839" style="stroke: rgb(200, 200, 200); stroke-opacity: 1; stroke-width: 1px;"/><path class="ygrid crisp" transform="translate(0,201.69)" d="M111,0h839" style="stroke: rgb(200, 200, 200); stroke-opacity: 1; stroke-width: 1px;"/><path class="ygrid crisp" transform="translate(0,130.31)" d="M111,0h839" style="stroke: rgb(200, 200, 200); stroke-opacity: 1; stroke-width: 1px;"/><path class="ygrid crisp" transform="translate(0,94.61)" d="M111,0h839" style="stroke: rgb(200, 200, 200); stroke-opacity: 1; stroke-width: 1px;"/><path class="ygrid crisp" transform="translate(0,58.92)" d="M111,0h839" style="stroke: rgb(200, 200, 200); stroke-opacity: 1; stroke-width: 1px;"/><path class="ygrid crisp" transform="translate(0,23.23)" d="M111,0h839" style="stroke: rgb(200, 200, 200); stroke-opacity: 1; stroke-width: 1px;"/></g></g><g class="zerolinelayer"><path class="xzl zl crisp" transform="translate(530.5,0)" d="M0,11v310" style="stroke: rgb(200, 200, 200); stroke-opacity: 1; stroke-width: 2px;"/><path class="yzl zl crisp" transform="translate(0,166)" d="M111,0h839" style="stroke: rgb(200, 200, 200); stroke-opacity: 1; stroke-width: 2px;"/></g><g class="layer-between"><g class="shapelayer"/><g class="imagelayer"/></g><path class="xlines-below"/><path class="ylines-below"/><g class="overlines-below"/><g class="xaxislayer-below"/><g class="yaxislayer-below"/><g class="overaxes-below"/><g class="overplot"><g class="xy" transform="translate(111,11)" clip-path="url(#clipeac5a7xyplot)"><g class="scatterlayer mlayer"><g class="trace scatter trace9e74f2" style="stroke-miterlimit: 2; opacity: 1;"><g class="fills"/><g class="errorbars"/><g class="lines"><path class="js-line" d="M62.56,155L100.53,148.13L102.54,147.77L181.57,134.69L184.5,134.23L254.28,124.27L257.33,123.88L307.83,118.13L310.7,117.85L357.98,114.13L360.68,113.98L397.6,112.45L400.19,112.39L440.67,112.35L443.15,112.41L479.92,114.01L482.34,114.17L516.02,117.1L518.42,117.36L551.88,121.67L554.27,122.02L599.67,129.58L602.06,130.01L704.79,147.91L707.17,148.26L743,152.63L745.39,152.86L776.44,155" style="vector-effect: none; fill: none; stroke: rgb(100, 143, 255); stroke-opacity: 1; stroke-width: 2px; opacity: 1;"/></g><g class="points"/><g class="text"/></g><g class="trace scatter trace8f3f80" style="stroke-miterlimit: 2; opacity: 1;"><g class="fills"/><g class="errorbars"/><g class="lines"/><g class="points"><path class="point" transform="translate(62.56,155)" d="M4,0A4,4 0 1,1 0,-4A4,4 0 0,1 4,0Z" style="opacity: 1; stroke-width: 0px; fill: rgb(100, 143, 255); fill-opacity: 1;"/><path class="point" transform="translate(62.56,155)" d="M4,0A4,4 0 1,1 0,-4A4,4 0 0,1 4,0Z" style="opacity: 1; stroke-width: 0px; fill: rgb(100, 143, 255); fill-opacity: 1;"/><path class="point" transform="translate(300.22,109.99)" d="M4,0A4,4 0 1,1 0,-4A4,4 0 0,1 4,0Z" style="opacity: 1; stroke-width: 0px; fill: rgb(100, 143, 255); fill-opacity: 1;"/><path class="point" transform="translate(538.34,108.86)" d="M4,0A4,4 0 1,1 0,-4A4,4 0 0,1 4,0Z" style="opacity: 1; stroke-width: 0px; fill: rgb(100, 143, 255); fill-opacity: 1;"/><path class="point" transform="translate(697.11,151.75)" d="M4,0A4,4 0 1,1 0,-4A4,4 0 0,1 4,0Z" style="opacity: 1; stroke-width: 0px; fill: rgb(100, 143, 255); fill-opacity: 1;"/><path class="point" transform="translate(776.44,155)" d="M4,0A4,4 0 1,1 0,-4A4,4 0 0,1 4,0Z" style="opacity: 1; stroke-width: 0px; fill: rgb(100, 143, 255); fill-opacity: 1;"/></g><g class="text"/></g><g class="trace scatter trace8a4f1b" style="stroke-miterlimit: 2; opacity: 1;"><g class="fills"/><g class="errorbars"/><g class="lines"/><g class="points"><path class="point" transform="translate(62.56,155)" d="M0,0Z" style="opacity: 1; stroke-width: 0px; fill: rgb(12, 51, 131); fill-opacity: 1;"/><path class="point" transform="translate(280.49,121.05)" d="M-4.030933763526049,-6.3856458556723705L-1.8975634792981568,7.309182775251545L5.928497242824205,-0.9235369195791738Z" style="opacity: 1; stroke-width: 0px; fill: rgb(88, 161, 142); fill-opacity: 1;"/><path class="point" transform="translate(538.34,119.77)" d="M-3.0343573376796718,-6.915025346827698L-2.965568764765572,6.944803949820815L5.999926102445244,-0.02977860299311691Z" style="opacity: 1; stroke-width: 0px; fill: rgb(242, 165, 56); fill-opacity: 1;"/><path class="point" transform="translate(776.44,155)" d="M-1.9533697325933874,-7.2944668542524775L-3.98201265275931,6.416266455912251L5.935382385352697,0.8782003983402262Z" style="opacity: 1; stroke-width: 0px; fill: rgb(217, 30, 30); fill-opacity: 1;"/></g><g class="text"/></g><g class="trace scatter traceebbc9a" style="stroke-miterlimit: 2; opacity: 1;"><g class="fills"><g><path class="js-fill" d="M433.78,147.86L433.07,143.43L432.92,143L430.75,139.07L430.47,138.72L427.09,135.77L426.7,135.53L422.52,133.91L422.08,133.82L417.59,133.71L417.14,133.78L412.89,135.21L412.49,135.42L408.98,138.21L408.68,138.55L406.32,142.37L406.15,142.79L405.24,147.19L405.22,147.64L405.86,152.08L406,152.51L408.11,156.47L408.39,156.83L412.1,160.07L412.49,160.3L416.7,161.86L417.14,161.94L421.63,161.98L422.08,161.9L426.31,160.41L426.7,160.19L430.47,157L430.75,156.65L432.92,152.72L433.07,152.29L433.78,147.86Z" style="fill: rgb(204, 204, 204); fill-opacity: 0.5; stroke-width: 0;"/></g></g><g class="errorbars"/><g class="lines"><path class="js-line" d="M433.78,147.86L433.07,143.43L432.92,143L430.75,139.07L430.47,138.72L427.09,135.77L426.7,135.53L422.52,133.91L422.08,133.82L417.59,133.71L417.14,133.78L412.89,135.21L412.49,135.42L408.98,138.21L408.68,138.55L406.32,142.37L406.15,142.79L405.24,147.19L405.22,147.64L405.86,152.08L406,152.51L408.11,156.47L408.39,156.83L412.1,160.07L412.49,160.3L416.7,161.86L417.14,161.94L421.63,161.98L422.08,161.9L426.31,160.41L426.7,160.19L430.47,157L430.75,156.65L432.92,152.72L433.07,152.29L433.78,147.86" style="vector-effect: none; fill: none; stroke: rgb(0, 0, 0); stroke-opacity: 1; stroke-width: 2px; opacity: 1;"/></g><g class="points"/><g class="text"/></g><g class="trace scatter tracefd1bbc" style="stroke-miterlimit: 2; opacity: 1;"><g class="fills"/><g class="errorbars"/><g class="lines"><path class="js-line" d="M455.19,147.86L454.55,141.14L454.33,140.04L451.76,132.59L451.26,131.58L446.92,125.01L446.19,124.16L441.25,119.56L440.34,118.89L434.51,115.48L433.48,115.02L425.94,112.75L424.83,112.57L416.97,112.26L415.84,112.36L409.22,113.68L408.15,114.02L401.01,117.33L400.05,117.93L393.96,122.92L393.19,123.74L389.12,129.13L388.54,130.1L385.4,137.31L385.08,138.4L383.85,146.17L383.81,147.3L384.56,155.14L384.8,156.23L387,162.62L387.48,163.64L391.72,170.27L392.44,171.14L398.2,176.5L399.12,177.16L405,180.48L406.04,180.92L412.5,182.86L413.61,183.07L421.47,183.5L422.6,183.42L430.32,181.88L431.38,181.52L437.51,178.68L438.47,178.09L443.83,173.98L444.64,173.2L449.58,167.07L450.17,166.11L453.06,160.01L453.43,158.94L455.03,151.24L455.12,150.11L455.19,147.86" style="vector-effect: none; fill: none; stroke: rgb(0, 0, 0); stroke-opacity: 1; stroke-dasharray: 9px, 9px; stroke-width: 2px; opacity: 1;"/></g><g class="points"/><g class="text"/></g><g class="trace scatter trace7eab3a" style="stroke-miterlimit: 2; opacity: 1;"><g class="fills"><g><path class="js-fill" d="M505.16,169.28L504.46,164.84L504.31,164.42L502.14,160.49L501.86,160.14L498.09,156.95L497.7,156.73L493.46,155.23L493.02,155.16L488.53,155.2L488.09,155.28L483.88,156.84L483.49,157.07L480.06,159.97L479.77,160.31L477.39,164.63L477.25,165.06L476.61,169.5L476.63,169.95L477.54,174.35L477.71,174.77L480.06,178.59L480.36,178.93L484.28,181.93L484.68,182.13L488.98,183.43L489.42,183.48L493.91,183.23L494.35,183.13L498.85,181.13L499.22,180.87L502.41,177.71L502.67,177.34L504.59,173.28L504.71,172.85L505.16,169.28Z" style="fill: rgb(204, 204, 204); fill-opacity: 0.5; stroke-width: 0;"/></g></g><g class="errorbars"/><g class="lines"><path class="js-line" d="M505.16,169.28L504.46,164.84L504.31,164.42L502.14,160.49L501.86,160.14L498.09,156.95L497.7,156.73L493.46,155.23L493.02,155.16L488.53,155.2L488.09,155.28L483.88,156.84L483.49,157.07L480.06,159.97L479.77,160.31L477.39,164.63L477.25,165.06L476.61,169.5L476.63,169.95L477.54,174.35L477.71,174.77L480.06,178.59L480.36,178.93L484.28,181.93L484.68,182.13L488.98,183.43L489.42,183.48L493.91,183.23L494.35,183.13L498.85,181.13L499.22,180.87L502.41,177.71L502.67,177.34L504.59,173.28L504.71,172.85L505.16,169.28" style="vector-effect: none; fill: none; stroke: rgb(0, 0, 0); stroke-opacity: 1; stroke-width: 2px; opacity: 1;"/></g><g class="points"/><g class="text"/></g><g class="trace scatter trace996170" style="stroke-miterlimit: 2; opacity: 1;"><g class="fills"/><g class="errorbars"/><g class="lines"><path class="js-line" d="M526.58,169.28L525.71,161.45L525.45,160.36L522.65,153L522.12,152L517.58,145.58L516.81,144.75L511.73,140.3L510.81,139.66L504.87,136.44L503.83,136.01L496.22,133.98L495.1,133.83L487.23,133.77L486.11,133.9L478.47,135.81L477.42,136.22L470.5,139.98L469.59,140.63L463.83,146L463.11,146.87L459.38,152.5L458.87,153.5L456.19,160.9L455.94,162L455.2,169.84L455.23,170.97L456.19,177.65L456.47,178.74L459.38,186.06L459.93,187.04L463.83,192.55L464.58,193.4L469.59,197.92L470.5,198.58L477.42,202.33L478.47,202.74L485,204.48L486.11,204.65L493.98,204.84L495.1,204.72L501.7,203.29L502.77,202.93L508.9,200.09L509.86,199.51L515.21,195.4L516.03,194.62L520.97,188.49L521.56,187.53L524.82,180.36L525.15,179.28L526.42,172.65L526.51,171.53L526.58,169.28" style="vector-effect: none; fill: none; stroke: rgb(0, 0, 0); stroke-opacity: 1; stroke-dasharray: 9px, 9px; stroke-width: 2px; opacity: 1;"/></g><g class="points"/><g class="text"/></g></g></g></g><path class="xlines-above crisp" d="M0,0" style="fill: none;"/><path class="ylines-above crisp" d="M0,0" style="fill: none;"/><g class="overlines-above"/><g class="xaxislayer-above"><g class="xtick"><text text-anchor="middle" x="0" y="350" transform="translate(173.56,0)" style="font-family: 'Open Sans', verdana, arial, sans-serif; font-size: 28px; fill: rgb(0, 0, 0); fill-opacity: 1; white-space: pre; opacity: 1;">-500</text></g><g class="xtick"><text text-anchor="middle" x="0" y="350" style="font-family: 'Open Sans', verdana, arial, sans-serif; font-size: 28px; fill: rgb(0, 0, 0); fill-opacity: 1; white-space: pre; opacity: 1;" transform="translate(244.95,0)">-400</text></g><g class="xtick"><text text-anchor="middle" x="0" y="350" style="font-family: 'Open Sans', verdana, arial, sans-serif; font-size: 28px; fill: rgb(0, 0, 0); fill-opacity: 1; white-space: pre; opacity: 1;" transform="translate(316.34000000000003,0)">-300</text></g><g class="xtick"><text text-anchor="middle" x="0" y="350" style="font-family: 'Open Sans', verdana, arial, sans-serif; font-size: 28px; fill: rgb(0, 0, 0); fill-opacity: 1; white-space: pre; opacity: 1;" transform="translate(387.73,0)">-200</text></g><g class="xtick"><text text-anchor="middle" x="0" y="350" style="font-family: 'Open Sans', verdana, arial, sans-serif; font-size: 28px; fill: rgb(0, 0, 0); fill-opacity: 1; white-space: pre; opacity: 1;" transform="translate(459.11,0)">-100</text></g><g class="xtick"><text text-anchor="middle" x="0" y="350" style="font-family: 'Open Sans', verdana, arial, sans-serif; font-size: 28px; fill: rgb(0, 0, 0); fill-opacity: 1; white-space: pre; opacity: 1;" transform="translate(530.5,0)">0</text></g><g class="xtick"><text text-anchor="middle" x="0" y="350" style="font-family: 'Open Sans', verdana, arial, sans-serif; font-size: 28px; fill: rgb(0, 0, 0); fill-opacity: 1; white-space: pre; opacity: 1;" transform="translate(601.89,0)">100</text></g><g class="xtick"><text text-anchor="middle" x="0" y="350" style="font-family: 'Open Sans', verdana, arial, sans-serif; font-size: 28px; fill: rgb(0, 0, 0); fill-opacity: 1; white-space: pre; opacity: 1;" transform="translate(673.27,0)">200</text></g><g class="xtick"><text text-anchor="middle" x="0" y="350" style="font-family: 'Open Sans', verdana, arial, sans-serif; font-size: 28px; fill: rgb(0, 0, 0); fill-opacity: 1; white-space: pre; opacity: 1;" transform="translate(744.66,0)">300</text></g><g class="xtick"><text text-anchor="middle" x="0" y="350" style="font-family: 'Open Sans', verdana, arial, sans-serif; font-size: 28px; fill: rgb(0, 0, 0); fill-opacity: 1; white-space: pre; opacity: 1;" transform="translate(816.05,0)">400</text></g><g class="xtick"><text text-anchor="middle" x="0" y="350" style="font-family: 'Open Sans', verdana, arial, sans-serif; font-size: 28px; fill: rgb(0, 0, 0); fill-opacity: 1; white-space: pre; opacity: 1;" transform="translate(887.44,0)">500</text></g></g><g class="yaxislayer-above"><g class="ytick"><text text-anchor="end" x="110" y="9.799999999999999" transform="translate(0,308.77)" style="font-family: 'Open Sans', verdana, arial, sans-serif; font-size: 28px; fill: rgb(0, 0, 0); fill-opacity: 1; white-space: pre; opacity: 1;">-200</text></g><g class="ytick"><text text-anchor="end" x="110" y="9.799999999999999" style="font-family: 'Open Sans', verdana, arial, sans-serif; font-size: 28px; fill: rgb(0, 0, 0); fill-opacity: 1; white-space: pre; opacity: 1;" transform="translate(0,273.08)">-150</text></g><g class="ytick"><text text-anchor="end" x="110" y="9.799999999999999" style="font-family: 'Open Sans', verdana, arial, sans-serif; font-size: 28px; fill: rgb(0, 0, 0); fill-opacity: 1; white-space: pre; opacity: 1;" transform="translate(0,237.39)">-100</text></g><g class="ytick"><text text-anchor="end" x="110" y="9.799999999999999" style="font-family: 'Open Sans', verdana, arial, sans-serif; font-size: 28px; fill: rgb(0, 0, 0); fill-opacity: 1; white-space: pre; opacity: 1;" transform="translate(0,201.69)">-50</text></g><g class="ytick"><text text-anchor="end" x="110" y="9.799999999999999" style="font-family: 'Open Sans', verdana, arial, sans-serif; font-size: 28px; fill: rgb(0, 0, 0); fill-opacity: 1; white-space: pre; opacity: 1;" transform="translate(0,166)">0</text></g><g class="ytick"><text text-anchor="end" x="110" y="9.799999999999999" style="font-family: 'Open Sans', verdana, arial, sans-serif; font-size: 28px; fill: rgb(0, 0, 0); fill-opacity: 1; white-space: pre; opacity: 1;" transform="translate(0,130.31)">50</text></g><g class="ytick"><text text-anchor="end" x="110" y="9.799999999999999" style="font-family: 'Open Sans', verdana, arial, sans-serif; font-size: 28px; fill: rgb(0, 0, 0); fill-opacity: 1; white-space: pre; opacity: 1;" transform="translate(0,94.61)">100</text></g><g class="ytick"><text text-anchor="end" x="110" y="9.799999999999999" style="font-family: 'Open Sans', verdana, arial, sans-serif; font-size: 28px; fill: rgb(0, 0, 0); fill-opacity: 1; white-space: pre; opacity: 1;" transform="translate(0,58.92)">150</text></g><g class="ytick"><text text-anchor="end" x="110" y="9.799999999999999" style="font-family: 'Open Sans', verdana, arial, sans-serif; font-size: 28px; fill: rgb(0, 0, 0); fill-opacity: 1; white-space: pre; opacity: 1;" transform="translate(0,23.23)">200</text></g></g><g class="overaxes-above"/></g></g><g class="polarlayer"/><g class="smithlayer"/><g class="ternarylayer"/><g class="geolayer"/><g class="funnelarealayer"/><g class="pielayer"/><g class="iciclelayer"/><g class="treemaplayer"/><g class="sunburstlayer"/><g class="glimages"/><defs id="topdefs-eac5a7"><g class="clips"/><clipPath id="legendeac5a7"><rect width="228" height="304" x="0" y="0"/></clipPath></defs><g class="layer-above"><g class="imagelayer"/><g class="shapelayer"/></g><g class="infolayer"><g class="legend" pointer-events="all" transform="translate(966.78,11)"><rect class="bg" shape-rendering="crispEdges" style="stroke: rgb(68, 68, 68); stroke-opacity: 1; fill: rgb(255, 255, 255); fill-opacity: 1; stroke-width: 0px;" width="228" height="304" x="0" y="0"/><g class="scrollbox" transform="" clip-path="url(#legendeac5a7)"><g class="groups" transform=""><g class="traces" transform="translate(0,26.650000000000002)" style="opacity: 1;"><text class="legendtext" text-anchor="start" x="5" y="12.090000000000002" style="font-family: 'Open Sans', verdana, arial, sans-serif; font-size: 31px; fill: rgb(0, 0, 0); fill-opacity: 1; white-space: pre;">Own ship</text><g class="layers"><g class="legendfill"/><g class="legendlines"/><g class="legendsymbols"><g class="legendpoints"/></g></g><rect class="legendtoggle" x="0" y="-21.650000000000002" width="222.65625" height="43.300000000000004" style="fill: rgb(0, 0, 0); fill-opacity: 0;"/></g><g class="traces" transform="translate(0,68)" style="opacity: 1;"><text class="legendtext" text-anchor="start" x="40" y="10.92" style="font-family: 'Open Sans', verdana, arial, sans-serif; font-size: 28px; fill: rgb(0, 0, 0); fill-opacity: 1; white-space: pre;">Trajectory</text><g class="layers" style="opacity: 1;"><g class="legendfill"/><g class="legendlines"><path class="js-line" d="M5,0h30" style="fill: none; stroke: rgb(100, 143, 255); stroke-opacity: 1; stroke-width: 2px;"/></g><g class="legendsymbols"><g class="legendpoints"/></g></g><rect class="legendtoggle" x="0" y="-19.7" width="222.65625" height="39.4" style="fill: rgb(0, 0, 0); fill-opacity: 0;"/></g><g class="traces" transform="translate(0,107.4)" style="opacity: 1;"><text class="legendtext" text-anchor="start" x="40" y="10.92" style="font-family: 'Open Sans', verdana, arial, sans-serif; font-size: 28px; fill: rgb(0, 0, 0); fill-opacity: 1; white-space: pre;">Control point</text><g class="layers" style="opacity: 1;"><g class="legendfill"/><g class="legendlines"/><g class="legendsymbols"><g class="legendpoints"><path class="scatterpts" transform="translate(20,0)" d="M4,0A4,4 0 1,1 0,-4A4,4 0 0,1 4,0Z" style="opacity: 1; stroke-width: 0px; fill: rgb(100, 143, 255); fill-opacity: 1;"/></g></g></g><rect class="legendtoggle" x="0" y="-19.7" width="222.65625" height="39.4" style="fill: rgb(0, 0, 0); fill-opacity: 0;"/></g><g class="traces" transform="translate(0,146.79999999999998)" style="opacity: 1;"><text class="legendtext" text-anchor="start" x="40" y="10.92" style="font-family: 'Open Sans', verdana, arial, sans-serif; font-size: 28px; fill: rgb(0, 0, 0); fill-opacity: 1; white-space: pre;">Break point</text><g class="layers" style="opacity: 1;"><g class="legendfill"/><g class="legendlines"/><g class="legendsymbols"><g class="legendpoints"><path class="scatterpts" transform="translate(20,0)" d="M-3.0000000000000004,-6.93L-2.9999999999999996,6.93L6,-3.6739403974420594e-16Z" style="opacity: 1; stroke-width: 0px; fill: rgb(12, 51, 131); fill-opacity: 1;"/></g></g></g><rect class="legendtoggle" x="0" y="-19.7" width="222.65625" height="39.4" style="fill: rgb(0, 0, 0); fill-opacity: 0;"/></g></g><g class="groups" transform="translate(0,10)"><g class="traces" transform="translate(0,188.15)" style="opacity: 1;"><text class="legendtext" text-anchor="start" x="5" y="12.090000000000002" style="font-family: 'Open Sans', verdana, arial, sans-serif; font-size: 31px; fill: rgb(0, 0, 0); fill-opacity: 1; white-space: pre;">Target ship</text><g class="layers"><g class="legendfill"/><g class="legendlines"/><g class="legendsymbols"><g class="legendpoints"/></g></g><rect class="legendtoggle" x="0" y="-21.650000000000002" width="222.65625" height="43.300000000000004" style="fill: rgb(0, 0, 0); fill-opacity: 0;"/></g><g class="traces" transform="translate(0,229.5)" style="opacity: 1;"><text class="legendtext" text-anchor="start" x="40" y="10.92" style="font-family: 'Open Sans', verdana, arial, sans-serif; font-size: 28px; fill: rgb(0, 0, 0); fill-opacity: 1; white-space: pre;">Extent</text><g class="layers" style="opacity: 1;"><g class="legendfill"><path class="js-fill" d="M5,-2h30v6h-30z" style="stroke-width: 0; fill: rgb(204, 204, 204); fill-opacity: 0.5;"/></g><g class="legendlines"><path class="js-line" d="M5,-2h30" style="fill: none; stroke: rgb(0, 0, 0); stroke-opacity: 1; stroke-width: 2px;"/></g><g class="legendsymbols"><g class="legendpoints"/></g></g><rect class="legendtoggle" x="0" y="-19.7" width="222.65625" height="39.4" style="fill: rgb(0, 0, 0); fill-opacity: 0;"/></g><g class="traces" transform="translate(0,268.90000000000003)" style="opacity: 1;"><text class="legendtext" text-anchor="start" x="40" y="10.92" style="font-family: 'Open Sans', verdana, arial, sans-serif; font-size: 28px; fill: rgb(0, 0, 0); fill-opacity: 1; white-space: pre;">Domain</text><g class="layers" style="opacity: 1;"><g class="legendfill"/><g class="legendlines"><path class="js-line" d="M5,0h30" style="fill: none; stroke: rgb(0, 0, 0); stroke-opacity: 1; stroke-dasharray: 9px, 9px; stroke-width: 2px;"/></g><g class="legendsymbols"><g class="legendpoints"/></g></g><rect class="legendtoggle" x="0" y="-19.7" width="222.65625" height="39.4" style="fill: rgb(0, 0, 0); fill-opacity: 0;"/></g></g></g><rect class="scrollbar" rx="20" ry="3" width="0" height="0" style="fill: rgb(128, 139, 164); fill-opacity: 1;" x="0" y="0"/></g><g class="g-gtitle"/><g class="g-xtitle" transform="translate(0,-1.3000000000000114)"><text class="xtitle" x="530.5" y="394.3" text-anchor="middle" style="opacity: 1; font-family: 'Open Sans', verdana, arial, sans-serif; font-size: 34px; fill: rgb(0, 0, 0); fill-opacity: 1; white-space: pre;">East [m]</text></g><g class="g-ytitle" transform="translate(16.525390625,0)"><text class="ytitle" transform="rotate(-90,17.474999999999994,166)" x="17.474999999999994" y="166" text-anchor="middle" style="opacity: 1; font-family: 'Open Sans', verdana, arial, sans-serif; font-size: 34px; fill: rgb(0, 0, 0); fill-opacity: 1; white-space: pre;">North [m]</text></g></g></svg>