<svg class="main-svg" xmlns="http://www.w3.org/2000/svg" xmlns:xlink="http://www.w3.org/1999/xlink" width="1200" height="400" style="" viewBox="0 0 1200 400"><rect x="0" y="0" width="1200" height="400" style="fill: rgb(255, 255, 255); fill-opacity: 1;"/><defs id="defs-fcf7ad"><g class="clips"><clipPath id="clipfcf7adxyplot" class="plotclip"><rect width="910" height="214"/></clipPath><clipPath class="axesclip" id="clipfcf7adx"><rect x="133" y="0" width="910" height="400"/></clipPath><clipPath class="axesclip" id="clipfcf7ady"><rect x="0" y="100" width="1200" height="214"/></clipPath><clipPath class="axesclip" id="clipfcf7adxy"><rect x="133" y="100" width="910" height="214"/></clipPath></g><g class="gradients"/><g class="patterns"/></defs><g class="bglayer"/><g class="layer-below"><g class="imagelayer"/><g class="shapelayer"/></g><g class="cartesianlayer"><g class="subplot xy"><g class="layer-subplot"><g class="shapelayer"/><g class="imagelayer"/></g><g class="minor-gridlayer"><g class="x"/><g class="y"/></g><g class="gridlayer"><g class="x"><path class="xgrid crisp" transform="translate(224.95999999999998,0)" d="M0,100v214" style="stroke: rgb(200, 200, 200); stroke-opacity: 1; stroke-width: 1px;"/><path class="xgrid crisp" transform="translate(331.74,0)" d="M0,100v214" style="stroke: rgb(200, 200, 200); stroke-opacity: 1; stroke-width: 1px;"/><path class="xgrid crisp" transform="translate(438.51,0)" d="M0,100v214" style="stroke: rgb(200, 200, 200); stroke-opacity: 1; stroke-width: 1px;"/><path class="xgrid crisp" transform="translate(545.29,0)" d="M0,100v214" style="stroke: rgb(200, 200, 200); stroke-opacity: 1; stroke-width: 1px;"/><path class="xgrid crisp" transform="translate(652.07,0)" d="M0,100v214" style="stroke: rgb(200, 200, 200); stroke-opacity: 1; stroke-width: 1px;"/><path class="xgrid crisp" transform="translate(758.84,0)" d="M0,100v214" style="stroke: rgb(200, 200, 200); stroke-opacity: 1; stroke-width: 1px;"/><path class="xgrid crisp" transform="translate(865.62,0)" d="M0,100v214" style="stroke: rgb(200, 200, 200); stroke-opacity: 1; stroke-width: 1px;"/><path class="xgrid crisp" transform="translate(972.39,0)" d="M0,100v214" style="stroke: rgb(200, 200, 200); stroke-opacity: 1; stroke-width: 1px;"/></g><g class="y"><path class="ygrid crisp" transform="translate(0,309.39)" d="M133,0h910" style="stroke: rgb(200, 200, 200); stroke-opacity: 1; stroke-width: 1px;"/><path class="ygrid crisp" transform="translate(0,267.98)" d="M133,0h910" style="stroke: rgb(200, 200, 200); stroke-opacity: 1; stroke-width: 1px;"/><path class="ygrid crisp" transform="translate(0,226.57)" d="M133,0h910" style="stroke: rgb(200, 200, 200); stroke-opacity: 1; stroke-width: 1px;"/><path class="ygrid crisp" transform="translate(0,185.16)" d="M133,0h910" style="stroke: rgb(200, 200, 200); stroke-opacity: 1; stroke-width: 1px;"/><path class="ygrid crisp" transform="translate(0,143.75)" d="M133,0h910" style="stroke: rgb(200, 200, 200); stroke-opacity: 1; stroke-width: 1px;"/><path class="ygrid crisp" transform="translate(0,102.34)" d="M133,0h910" style="stroke: rgb(200, 200, 200); stroke-opacity: 1; stroke-width: 1px;"/></g></g><g class="zerolinelayer"/><g class="layer-between"><g class="shapelayer"/><g class="imagelayer"/></g><path class="xlines-below"/><path class="ylines-below"/><g class="overlines-below"/><g class="xaxislayer-below"/><g class="yaxislayer-below"/><g class="overaxes-below"/><g class="overplot"><g class="xy" transform="translate(133,100)" clip-path="url(#clipfcf7adxyplot)"><g class="scatterlayer mlayer"><g class="trace scatter trace47b29c" style="stroke-miterlimit: 2; opacity: 1;"><g class="fills"/><g class="errorbars"/><g class="lines"><path class="js-line" d="M49.25,14.45L70.61,35.77L91.96,39.28L113.32,41.7L134.67,49.06L177.38,78.27L198.74,82.66L220.09,83.52L241.45,87.66L262.8,95.78L284.16,100.73L326.87,102.55L348.22,106.37L369.58,111.73L390.93,114.15L433.64,115.16L455,118.74L476.36,122.58L497.71,123.91L540.42,124.74L561.78,128.11L583.13,130.98L604.49,131.74L625.84,131.7L647.2,132.58L668.55,135.76L689.91,137.95L753.97,139.32L775.33,142.33L796.68,144.01L818.04,144.21L839.39,144.19L860.75,145.34" style="vector-effect: none; fill: none; stroke: rgb(68, 1, 84); stroke-opacity: 1; stroke-width: 2px; opacity: 1;"/></g><g class="points"><path class="point" transform="translate(49.25,14.45)" d="M3,0A3,3 0 1,1 0,-3A3,3 0 0,1 3,0Z" style="opacity: 1; stroke-width: 0px; fill: rgb(68, 1, 84); fill-opacity: 1;"/><path class="point" transform="translate(70.61,35.77)" d="M3,0A3,3 0 1,1 0,-3A3,3 0 0,1 3,0Z" style="opacity: 1; stroke-width: 0px; fill: rgb(68, 1, 84); fill-opacity: 1;"/><path class="point" transform="translate(91.96,39.28)" d="M3,0A3,3 0 1,1 0,-3A3,3 0 0,1 3,0Z" style="opacity: 1; stroke-width: 0px; fill: rgb(68, 1, 84); fill-opacity: 1;"/><path class="point" transform="translate(113.32,41.7)" d="M3,0A3,3 0 1,1 0,-3A3,3 0 0,1 3,0Z" style="opacity: 1; stroke-width: 0px; fill: rgb(68, 1, 84); fill-opacity: 1;"/><path class="point" transform="translate(134.67,49.06)" d="M3,0A3,3 0 1,1 0,-3A3,3 0 0,1 3,0Z" style="opacity: 1; stroke-width: 0px; fill: rgb(68, 1, 84); fill-opacity: 1;"/><path class="point" transform="translate(156.03,64.06)" d="M3,0A3,3 0 1,1 0,-3A3,3 0 0,1 3,0Z" style="opacity: 1; stroke-width: 0px; fill: rgb(68, 1, 84); fill-opacity: 1;"/><path class="point" transform="translate(177.38,78.27)" d="M3,0A3,3 0 1,1 0,-3A3,3 0 0,1 3,0Z" style="opacity: 1; stroke-width: 0px; fill: rgb(68, 1, 84); fill-opacity: 1;"/><path class="point" transform="translate(198.74,82.66)" d="M3,0A3,3 0 1,1 0,-3A3,3 0 0,1 3,0Z" style="opacity: 1; stroke-width: 0px; fill: rgb(68, 1, 84); fill-opacity: 1;"/><path class="point" transform="translate(220.09,83.52)" d="M3,0A3,3 0 1,1 0,-3A3,3 0 0,1 3,0Z" style="opacity: 1; stroke-width: 0px; fill: rgb(68, 1, 84); fill-opacity: 1;"/><path class="point" transform="translate(241.45,87.66)" d="M3,0A3,3 0 1,1 0,-3A3,3 0 0,1 3,0Z" style="opacity: 1; stroke-width: 0px; fill: rgb(68, 1, 84); fill-opacity: 1;"/><path class="point" transform="translate(262.8,95.78)" d="M3,0A3,3 0 1,1 0,-3A3,3 0 0,1 3,0Z" style="opacity: 1; stroke-width: 0px; fill: rgb(68, 1, 84); fill-opacity: 1;"/><path class="point" transform="translate(284.16,100.73)" d="M3,0A3,3 0 1,1 0,-3A3,3 0 0,1 3,0Z" style="opacity: 1; stroke-width: 0px; fill: rgb(68, 1, 84); fill-opacity: 1;"/><path class="point" transform="translate(305.51,101.84)" d="M3,0A3,3 0 1,1 0,-3A3,3 0 0,1 3,0Z" style="opacity: 1; stroke-width: 0px; fill: rgb(68, 1, 84); fill-opacity: 1;"/><path class="point" transform="translate(326.87,102.55)" d="M3,0A3,3 0 1,1 0,-3A3,3 0 0,1 3,0Z" style="opacity: 1; stroke-width: 0px; fill: rgb(68, 1, 84); fill-opacity: 1;"/><path class="point" transform="translate(348.22,106.37)" d="M3,0A3,3 0 1,1 0,-3A3,3 0 0,1 3,0Z" style="opacity: 1; stroke-width: 0px; fill: rgb(68, 1, 84); fill-opacity: 1;"/><path class="point" transform="translate(369.58,111.73)" d="M3,0A3,3 0 1,1 0,-3A3,3 0 0,1 3,0Z" style="opacity: 1; stroke-width: 0px; fill: rgb(68, 1, 84); fill-opacity: 1;"/><path class="point" transform="translate(390.93,114.15)" d="M3,0A3,3 0 1,1 0,-3A3,3 0 0,1 3,0Z" style="opacity: 1; stroke-width: 0px; fill: rgb(68, 1, 84); fill-opacity: 1;"/><path class="point" transform="translate(412.29,114.46)" d="M3,0A3,3 0 1,1 0,-3A3,3 0 0,1 3,0Z" style="opacity: 1; stroke-width: 0px; fill: rgb(68, 1, 84); fill-opacity: 1;"/><path class="point" transform="translate(433.64,115.16)" d="M3,0A3,3 0 1,1 0,-3A3,3 0 0,1 3,0Z" style="opacity: 1; stroke-width: 0px; fill: rgb(68, 1, 84); fill-opacity: 1;"/><path class="point" transform="translate(455,118.74)" d="M3,0A3,3 0 1,1 0,-3A3,3 0 0,1 3,0Z" style="opacity: 1; stroke-width: 0px; fill: rgb(68, 1, 84); fill-opacity: 1;"/><path class="point" transform="translate(476.36,122.58)" d="M3,0A3,3 0 1,1 0,-3A3,3 0 0,1 3,0Z" style="opacity: 1; stroke-width: 0px; fill: rgb(68, 1, 84); fill-opacity: 1;"/><path class="point" transform="translate(497.71,123.91)" d="M3,0A3,3 0 1,1 0,-3A3,3 0 0,1 3,0Z" style="opacity: 1; stroke-width: 0px; fill: rgb(68, 1, 84); fill-opacity: 1;"/><path class="point" transform="translate(519.07,123.96)" d="M3,0A3,3 0 1,1 0,-3A3,3 0 0,1 3,0Z" style="opacity: 1; stroke-width: 0px; fill: rgb(68, 1, 84); fill-opacity: 1;"/><path class="point" transform="translate(540.42,124.74)" d="M3,0A3,3 0 1,1 0,-3A3,3 0 0,1 3,0Z" style="opacity: 1; stroke-width: 0px; fill: rgb(68, 1, 84); fill-opacity: 1;"/><path class="point" transform="translate(561.78,128.11)" d="M3,0A3,3 0 1,1 0,-3A3,3 0 0,1 3,0Z" style="opacity: 1; stroke-width: 0px; fill: rgb(68, 1, 84); fill-opacity: 1;"/><path class="point" transform="translate(583.13,130.98)" d="M3,0A3,3 0 1,1 0,-3A3,3 0 0,1 3,0Z" style="opacity: 1; stroke-width: 0px; fill: rgb(68, 1, 84); fill-opacity: 1;"/><path class="point" transform="translate(604.49,131.74)" d="M3,0A3,3 0 1,1 0,-3A3,3 0 0,1 3,0Z" style="opacity: 1; stroke-width: 0px; fill: rgb(68, 1, 84); fill-opacity: 1;"/><path class="point" transform="translate(625.84,131.7)" d="M3,0A3,3 0 1,1 0,-3A3,3 0 0,1 3,0Z" style="opacity: 1; stroke-width: 0px; fill: rgb(68, 1, 84); fill-opacity: 1;"/><path class="point" transform="translate(647.2,132.58)" d="M3,0A3,3 0 1,1 0,-3A3,3 0 0,1 3,0Z" style="opacity: 1; stroke-width: 0px; fill: rgb(68, 1, 84); fill-opacity: 1;"/><path class="point" transform="translate(668.55,135.76)" d="M3,0A3,3 0 1,1 0,-3A3,3 0 0,1 3,0Z" style="opacity: 1; stroke-width: 0px; fill: rgb(68, 1, 84); fill-opacity: 1;"/><path class="point" transform="translate(689.91,137.95)" d="M3,0A3,3 0 1,1 0,-3A3,3 0 0,1 3,0Z" style="opacity: 1; stroke-width: 0px; fill: rgb(68, 1, 84); fill-opacity: 1;"/><path class="point" transform="translate(711.26,138.37)" d="M3,0A3,3 0 1,1 0,-3A3,3 0 0,1 3,0Z" style="opacity: 1; stroke-width: 0px; fill: rgb(68, 1, 84); fill-opacity: 1;"/><path class="point" transform="translate(732.62,138.32)" d="M3,0A3,3 0 1,1 0,-3A3,3 0 0,1 3,0Z" style="opacity: 1; stroke-width: 0px; fill: rgb(68, 1, 84); fill-opacity: 1;"/><path class="point" transform="translate(753.97,139.32)" d="M3,0A3,3 0 1,1 0,-3A3,3 0 0,1 3,0Z" style="opacity: 1; stroke-width: 0px; fill: rgb(68, 1, 84); fill-opacity: 1;"/><path class="point" transform="translate(775.33,142.33)" d="M3,0A3,3 0 1,1 0,-3A3,3 0 0,1 3,0Z" style="opacity: 1; stroke-width: 0px; fill: rgb(68, 1, 84); fill-opacity: 1;"/><path class="point" transform="translate(796.68,144.01)" d="M3,0A3,3 0 1,1 0,-3A3,3 0 0,1 3,0Z" style="opacity: 1; stroke-width: 0px; fill: rgb(68, 1, 84); fill-opacity: 1;"/><path class="point" transform="translate(818.04,144.21)" d="M3,0A3,3 0 1,1 0,-3A3,3 0 0,1 3,0Z" style="opacity: 1; stroke-width: 0px; fill: rgb(68, 1, 84); fill-opacity: 1;"/><path class="point" transform="translate(839.39,144.19)" d="M3,0A3,3 0 1,1 0,-3A3,3 0 0,1 3,0Z" style="opacity: 1; stroke-width: 0px; fill: rgb(68, 1, 84); fill-opacity: 1;"/><path class="point" transform="translate(860.75,145.34)" d="M3,0A3,3 0 1,1 0,-3A3,3 0 0,1 3,0Z" style="opacity: 1; stroke-width: 0px; fill: rgb(68, 1, 84); fill-opacity: 1;"/></g><g class="text"/></g><g class="trace scatter trace553fcf" style="stroke-miterlimit: 2; opacity: 1;"><g class="fills"/><g class="errorbars"/><g class="lines"><path class="js-line" d="M70.61,34.44L91.96,37.01L113.32,44.32L134.67,64.76L156.03,72.9L177.38,70.84L198.74,74.37L220.09,89.24L241.45,101.82L284.16,97.36L305.51,100.96L326.87,113.72L348.22,120.23L390.93,117.12L412.29,121.65L433.64,132.79L455,135.75L476.36,133.01L497.71,131.9L519.07,137.44L540.42,147.31L561.78,148.29L583.13,145.16L604.49,144.29L625.84,151.53L647.2,160.7L668.55,159.56L689.91,155.81L711.26,155.48L753.97,173.96L775.33,171.08L796.68,166.46L818.04,165.92L839.39,180.36L860.75,187.87" style="vector-effect: none; fill: none; stroke: rgb(59, 81, 138); stroke-opacity: 1; stroke-width: 2px; opacity: 1;"/></g><g class="points"><path class="point" transform="translate(70.61,34.44)" d="M3,0A3,3 0 1,1 0,-3A3,3 0 0,1 3,0Z" style="opacity: 1; stroke-width: 0px; fill: rgb(59, 81, 138); fill-opacity: 1;"/><path class="point" transform="translate(91.96,37.01)" d="M3,0A3,3 0 1,1 0,-3A3,3 0 0,1 3,0Z" style="opacity: 1; stroke-width: 0px; fill: rgb(59, 81, 138); fill-opacity: 1;"/><path class="point" transform="translate(113.32,44.32)" d="M3,0A3,3 0 1,1 0,-3A3,3 0 0,1 3,0Z" style="opacity: 1; stroke-width: 0px; fill: rgb(59, 81, 138); fill-opacity: 1;"/><path class="point" transform="translate(134.67,64.76)" d="M3,0A3,3 0 1,1 0,-3A3,3 0 0,1 3,0Z" style="opacity: 1; stroke-width: 0px; fill: rgb(59, 81, 138); fill-opacity: 1;"/><path class="point" transform="translate(156.03,72.9)" d="M3,0A3,3 0 1,1 0,-3A3,3 0 0,1 3,0Z" style="opacity: 1; stroke-width: 0px; fill: rgb(59, 81, 138); fill-opacity: 1;"/><path class="point" transform="translate(177.38,70.84)" d="M3,0A3,3 0 1,1 0,-3A3,3 0 0,1 3,0Z" style="opacity: 1; stroke-width: 0px; fill: rgb(59, 81, 138); fill-opacity: 1;"/><path class="point" transform="translate(198.74,74.37)" d="M3,0A3,3 0 1,1 0,-3A3,3 0 0,1 3,0Z" style="opacity: 1; stroke-width: 0px; fill: rgb(59, 81, 138); fill-opacity: 1;"/><path class="point" transform="translate(220.09,89.24)" d="M3,0A3,3 0 1,1 0,-3A3,3 0 0,1 3,0Z" style="opacity: 1; stroke-width: 0px; fill: rgb(59, 81, 138); fill-opacity: 1;"/><path class="point" transform="translate(241.45,101.82)" d="M3,0A3,3 0 1,1 0,-3A3,3 0 0,1 3,0Z" style="opacity: 1; stroke-width: 0px; fill: rgb(59, 81, 138); fill-opacity: 1;"/><path class="point" transform="translate(262.8,99.72)" d="M3,0A3,3 0 1,1 0,-3A3,3 0 0,1 3,0Z" style="opacity: 1; stroke-width: 0px; fill: rgb(59, 81, 138); fill-opacity: 1;"/><path class="point" transform="translate(284.16,97.36)" d="M3,0A3,3 0 1,1 0,-3A3,3 0 0,1 3,0Z" style="opacity: 1; stroke-width: 0px; fill: rgb(59, 81, 138); fill-opacity: 1;"/><path class="point" transform="translate(305.51,100.96)" d="M3,0A3,3 0 1,1 0,-3A3,3 0 0,1 3,0Z" style="opacity: 1; stroke-width: 0px; fill: rgb(59, 81, 138); fill-opacity: 1;"/><path class="point" transform="translate(326.87,113.72)" d="M3,0A3,3 0 1,1 0,-3A3,3 0 0,1 3,0Z" style="opacity: 1; stroke-width: 0px; fill: rgb(59, 81, 138); fill-opacity: 1;"/><path class="point" transform="translate(348.22,120.23)" d="M3,0A3,3 0 1,1 0,-3A3,3 0 0,1 3,0Z" style="opacity: 1; stroke-width: 0px; fill: rgb(59, 81, 138); fill-opacity: 1;"/><path class="point" transform="translate(369.58,118.46)" d="M3,0A3,3 0 1,1 0,-3A3,3 0 0,1 3,0Z" style="opacity: 1; stroke-width: 0px; fill: rgb(59, 81, 138); fill-opacity: 1;"/><path class="point" transform="translate(390.93,117.12)" d="M3,0A3,3 0 1,1 0,-3A3,3 0 0,1 3,0Z" style="opacity: 1; stroke-width: 0px; fill: rgb(59, 81, 138); fill-opacity: 1;"/><path class="point" transform="translate(412.29,121.65)" d="M3,0A3,3 0 1,1 0,-3A3,3 0 0,1 3,0Z" style="opacity: 1; stroke-width: 0px; fill: rgb(59, 81, 138); fill-opacity: 1;"/><path class="point" transform="translate(433.64,132.79)" d="M3,0A3,3 0 1,1 0,-3A3,3 0 0,1 3,0Z" style="opacity: 1; stroke-width: 0px; fill: rgb(59, 81, 138); fill-opacity: 1;"/><path class="point" transform="translate(455,135.75)" d="M3,0A3,3 0 1,1 0,-3A3,3 0 0,1 3,0Z" style="opacity: 1; stroke-width: 0px; fill: rgb(59, 81, 138); fill-opacity: 1;"/><path class="point" transform="translate(476.36,133.01)" d="M3,0A3,3 0 1,1 0,-3A3,3 0 0,1 3,0Z" style="opacity: 1; stroke-width: 0px; fill: rgb(59, 81, 138); fill-opacity: 1;"/><path class="point" transform="translate(497.71,131.9)" d="M3,0A3,3 0 1,1 0,-3A3,3 0 0,1 3,0Z" style="opacity: 1; stroke-width: 0px; fill: rgb(59, 81, 138); fill-opacity: 1;"/><path class="point" transform="translate(519.07,137.44)" d="M3,0A3,3 0 1,1 0,-3A3,3 0 0,1 3,0Z" style="opacity: 1; stroke-width: 0px; fill: rgb(59, 81, 138); fill-opacity: 1;"/><path class="point" transform="translate(540.42,147.31)" d="M3,0A3,3 0 1,1 0,-3A3,3 0 0,1 3,0Z" style="opacity: 1; stroke-width: 0px; fill: rgb(59, 81, 138); fill-opacity: 1;"/><path class="point" transform="translate(561.78,148.29)" d="M3,0A3,3 0 1,1 0,-3A3,3 0 0,1 3,0Z" style="opacity: 1; stroke-width: 0px; fill: rgb(59, 81, 138); fill-opacity: 1;"/><path class="point" transform="translate(583.13,145.16)" d="M3,0A3,3 0 1,1 0,-3A3,3 0 0,1 3,0Z" style="opacity: 1; stroke-width: 0px; fill: rgb(59, 81, 138); fill-opacity: 1;"/><path class="point" transform="translate(604.49,144.29)" d="M3,0A3,3 0 1,1 0,-3A3,3 0 0,1 3,0Z" style="opacity: 1; stroke-width: 0px; fill: rgb(59, 81, 138); fill-opacity: 1;"/><path class="point" transform="translate(625.84,151.53)" d="M3,0A3,3 0 1,1 0,-3A3,3 0 0,1 3,0Z" style="opacity: 1; stroke-width: 0px; fill: rgb(59, 81, 138); fill-opacity: 1;"/><path class="point" transform="translate(647.2,160.7)" d="M3,0A3,3 0 1,1 0,-3A3,3 0 0,1 3,0Z" style="opacity: 1; stroke-width: 0px; fill: rgb(59, 81, 138); fill-opacity: 1;"/><path class="point" transform="translate(668.55,159.56)" d="M3,0A3,3 0 1,1 0,-3A3,3 0 0,1 3,0Z" style="opacity: 1; stroke-width: 0px; fill: rgb(59, 81, 138); fill-opacity: 1;"/><path class="point" transform="translate(689.91,155.81)" d="M3,0A3,3 0 1,1 0,-3A3,3 0 0,1 3,0Z" style="opacity: 1; stroke-width: 0px; fill: rgb(59, 81, 138); fill-opacity: 1;"/><path class="point" transform="translate(711.26,155.48)" d="M3,0A3,3 0 1,1 0,-3A3,3 0 0,1 3,0Z" style="opacity: 1; stroke-width: 0px; fill: rgb(59, 81, 138); fill-opacity: 1;"/><path class="point" transform="translate(732.62,165.04)" d="M3,0A3,3 0 1,1 0,-3A3,3 0 0,1 3,0Z" style="opacity: 1; stroke-width: 0px; fill: rgb(59, 81, 138); fill-opacity: 1;"/><path class="point" transform="translate(753.97,173.96)" d="M3,0A3,3 0 1,1 0,-3A3,3 0 0,1 3,0Z" style="opacity: 1; stroke-width: 0px; fill: rgb(59, 81, 138); fill-opacity: 1;"/><path class="point" transform="translate(775.33,171.08)" d="M3,0A3,3 0 1,1 0,-3A3,3 0 0,1 3,0Z" style="opacity: 1; stroke-width: 0px; fill: rgb(59, 81, 138); fill-opacity: 1;"/><path class="point" transform="translate(796.68,166.46)" d="M3,0A3,3 0 1,1 0,-3A3,3 0 0,1 3,0Z" style="opacity: 1; stroke-width: 0px; fill: rgb(59, 81, 138); fill-opacity: 1;"/><path class="point" transform="translate(818.04,165.92)" d="M3,0A3,3 0 1,1 0,-3A3,3 0 0,1 3,0Z" style="opacity: 1; stroke-width: 0px; fill: rgb(59, 81, 138); fill-opacity: 1;"/><path class="point" transform="translate(839.39,180.36)" d="M3,0A3,3 0 1,1 0,-3A3,3 0 0,1 3,0Z" style="opacity: 1; stroke-width: 0px; fill: rgb(59, 81, 138); fill-opacity: 1;"/><path class="point" transform="translate(860.75,187.87)" d="M3,0A3,3 0 1,1 0,-3A3,3 0 0,1 3,0Z" style="opacity: 1; stroke-width: 0px; fill: rgb(59, 81, 138); fill-opacity: 1;"/></g><g class="text"/></g><g class="trace scatter trace506711" style="stroke-miterlimit: 2; opacity: 1;"><g class="fills"/><g class="errorbars"/><g class="lines"><path class="js-line" d="M91.96,38.1L113.32,49L134.67,66.49L156.03,65.34L177.38,68.64L198.74,82.97L220.09,92.36L241.45,89.66L262.8,90.96L284.16,103.03L305.51,113.13L348.22,108.77L369.58,112.34L390.93,126.87L412.29,132.43L433.64,128.63L455,126.33L476.36,131.34L497.71,146.81L519.07,149.93L540.42,144.32L561.78,141.86L583.13,148.5L604.49,165.78L625.84,165.03L647.2,157.5L668.55,154.98L689.91,164.73L711.26,184.81L732.62,177.97L753.97,169.45L775.33,166.31L796.68,178.93L796.7210223566223,4494L839.3491800823103,4494L839.39,198.25L860.75,181.99" style="vector-effect: none; fill: none; stroke: rgb(34, 144, 140); stroke-opacity: 1; stroke-width: 2px; opacity: 1;"/></g><g class="points"><path class="point" transform="translate(91.96,38.1)" d="M3,0A3,3 0 1,1 0,-3A3,3 0 0,1 3,0Z" style="opacity: 1; stroke-width: 0px; fill: rgb(34, 144, 140); fill-opacity: 1;"/><path class="point" transform="translate(113.32,49)" d="M3,0A3,3 0 1,1 0,-3A3,3 0 0,1 3,0Z" style="opacity: 1; stroke-width: 0px; fill: rgb(34, 144, 140); fill-opacity: 1;"/><path class="point" transform="translate(134.67,66.49)" d="M3,0A3,3 0 1,1 0,-3A3,3 0 0,1 3,0Z" style="opacity: 1; stroke-width: 0px; fill: rgb(34, 144, 140); fill-opacity: 1;"/><path class="point" transform="translate(156.03,65.34)" d="M3,0A3,3 0 1,1 0,-3A3,3 0 0,1 3,0Z" style="opacity: 1; stroke-width: 0px; fill: rgb(34, 144, 140); fill-opacity: 1;"/><path class="point" transform="translate(177.38,68.64)" d="M3,0A3,3 0 1,1 0,-3A3,3 0 0,1 3,0Z" style="opacity: 1; stroke-width: 0px; fill: rgb(34, 144, 140); fill-opacity: 1;"/><path class="point" transform="translate(198.74,82.97)" d="M3,0A3,3 0 1,1 0,-3A3,3 0 0,1 3,0Z" style="opacity: 1; stroke-width: 0px; fill: rgb(34, 144, 140); fill-opacity: 1;"/><path class="point" transform="translate(220.09,92.36)" d="M3,0A3,3 0 1,1 0,-3A3,3 0 0,1 3,0Z" style="opacity: 1; stroke-width: 0px; fill: rgb(34, 144, 140); fill-opacity: 1;"/><path class="point" transform="translate(241.45,89.66)" d="M3,0A3,3 0 1,1 0,-3A3,3 0 0,1 3,0Z" style="opacity: 1; stroke-width: 0px; fill: rgb(34, 144, 140); fill-opacity: 1;"/><path class="point" transform="translate(262.8,90.96)" d="M3,0A3,3 0 1,1 0,-3A3,3 0 0,1 3,0Z" style="opacity: 1; stroke-width: 0px; fill: rgb(34, 144, 140); fill-opacity: 1;"/><path class="point" transform="translate(284.16,103.03)" d="M3,0A3,3 0 1,1 0,-3A3,3 0 0,1 3,0Z" style="opacity: 1; stroke-width: 0px; fill: rgb(34, 144, 140); fill-opacity: 1;"/><path class="point" transform="translate(305.51,113.13)" d="M3,0A3,3 0 1,1 0,-3A3,3 0 0,1 3,0Z" style="opacity: 1; stroke-width: 0px; fill: rgb(34, 144, 140); fill-opacity: 1;"/><path class="point" transform="translate(326.87,111.02)" d="M3,0A3,3 0 1,1 0,-3A3,3 0 0,1 3,0Z" style="opacity: 1; stroke-width: 0px; fill: rgb(34, 144, 140); fill-opacity: 1;"/><path class="point" transform="translate(348.22,108.77)" d="M3,0A3,3 0 1,1 0,-3A3,3 0 0,1 3,0Z" style="opacity: 1; stroke-width: 0px; fill: rgb(34, 144, 140); fill-opacity: 1;"/><path class="point" transform="translate(369.58,112.34)" d="M3,0A3,3 0 1,1 0,-3A3,3 0 0,1 3,0Z" style="opacity: 1; stroke-width: 0px; fill: rgb(34, 144, 140); fill-opacity: 1;"/><path class="point" transform="translate(390.93,126.87)" d="M3,0A3,3 0 1,1 0,-3A3,3 0 0,1 3,0Z" style="opacity: 1; stroke-width: 0px; fill: rgb(34, 144, 140); fill-opacity: 1;"/><path class="point" transform="translate(412.29,132.43)" d="M3,0A3,3 0 1,1 0,-3A3,3 0 0,1 3,0Z" style="opacity: 1; stroke-width: 0px; fill: rgb(34, 144, 140); fill-opacity: 1;"/><path class="point" transform="translate(433.64,128.63)" d="M3,0A3,3 0 1,1 0,-3A3,3 0 0,1 3,0Z" style="opacity: 1; stroke-width: 0px; fill: rgb(34, 144, 140); fill-opacity: 1;"/><path class="point" transform="translate(455,126.33)" d="M3,0A3,3 0 1,1 0,-3A3,3 0 0,1 3,0Z" style="opacity: 1; stroke-width: 0px; fill: rgb(34, 144, 140); fill-opacity: 1;"/><path class="point" transform="translate(476.36,131.34)" d="M3,0A3,3 0 1,1 0,-3A3,3 0 0,1 3,0Z" style="opacity: 1; stroke-width: 0px; fill: rgb(34, 144, 140); fill-opacity: 1;"/><path class="point" transform="translate(497.71,146.81)" d="M3,0A3,3 0 1,1 0,-3A3,3 0 0,1 3,0Z" style="opacity: 1; stroke-width: 0px; fill: rgb(34, 144, 140); fill-opacity: 1;"/><path class="point" transform="translate(519.07,149.93)" d="M3,0A3,3 0 1,1 0,-3A3,3 0 0,1 3,0Z" style="opacity: 1; stroke-width: 0px; fill: rgb(34, 144, 140); fill-opacity: 1;"/><path class="point" transform="translate(540.42,144.32)" d="M3,0A3,3 0 1,1 0,-3A3,3 0 0,1 3,0Z" style="opacity: 1; stroke-width: 0px; fill: rgb(34, 144, 140); fill-opacity: 1;"/><path class="point" transform="translate(561.78,141.86)" d="M3,0A3,3 0 1,1 0,-3A3,3 0 0,1 3,0Z" style="opacity: 1; stroke-width: 0px; fill: rgb(34, 144, 140); fill-opacity: 1;"/><path class="point" transform="translate(583.13,148.5)" d="M3,0A3,3 0 1,1 0,-3A3,3 0 0,1 3,0Z" style="opacity: 1; stroke-width: 0px; fill: rgb(34, 144, 140); fill-opacity: 1;"/><path class="point" transform="translate(604.49,165.78)" d="M3,0A3,3 0 1,1 0,-3A3,3 0 0,1 3,0Z" style="opacity: 1; stroke-width: 0px; fill: rgb(34, 144, 140); fill-opacity: 1;"/><path class="point" transform="translate(625.84,165.03)" d="M3,0A3,3 0 1,1 0,-3A3,3 0 0,1 3,0Z" style="opacity: 1; stroke-width: 0px; fill: rgb(34, 144, 140); fill-opacity: 1;"/><path class="point" transform="translate(647.2,157.5)" d="M3,0A3,3 0 1,1 0,-3A3,3 0 0,1 3,0Z" style="opacity: 1; stroke-width: 0px; fill: rgb(34, 144, 140); fill-opacity: 1;"/><path class="point" transform="translate(668.55,154.98)" d="M3,0A3,3 0 1,1 0,-3A3,3 0 0,1 3,0Z" style="opacity: 1; stroke-width: 0px; fill: rgb(34, 144, 140); fill-opacity: 1;"/><path class="point" transform="translate(689.91,164.73)" d="M3,0A3,3 0 1,1 0,-3A3,3 0 0,1 3,0Z" style="opacity: 1; stroke-width: 0px; fill: rgb(34, 144, 140); fill-opacity: 1;"/><path class="point" transform="translate(711.26,184.81)" d="M3,0A3,3 0 1,1 0,-3A3,3 0 0,1 3,0Z" style="opacity: 1; stroke-width: 0px; fill: rgb(34, 144, 140); fill-opacity: 1;"/><path class="point" transform="translate(732.62,177.97)" d="M3,0A3,3 0 1,1 0,-3A3,3 0 0,1 3,0Z" style="opacity: 1; stroke-width: 0px; fill: rgb(34, 144, 140); fill-opacity: 1;"/><path class="point" transform="translate(753.97,169.45)" d="M3,0A3,3 0 1,1 0,-3A3,3 0 0,1 3,0Z" style="opacity: 1; stroke-width: 0px; fill: rgb(34, 144, 140); fill-opacity: 1;"/><path class="point" transform="translate(775.33,166.31)" d="M3,0A3,3 0 1,1 0,-3A3,3 0 0,1 3,0Z" style="opacity: 1; stroke-width: 0px; fill: rgb(34, 144, 140); fill-opacity: 1;"/><path class="point" transform="translate(796.68,178.93)" d="M3,0A3,3 0 1,1 0,-3A3,3 0 0,1 3,0Z" style="opacity: 1; stroke-width: 0px; fill: rgb(34, 144, 140); fill-opacity: 1;"/><path class="point" transform="translate(839.39,198.25)" d="M3,0A3,3 0 1,1 0,-3A3,3 0 0,1 3,0Z" style="opacity: 1; stroke-width: 0px; fill: rgb(34, 144, 140); fill-opacity: 1;"/><path class="point" transform="translate(860.75,181.99)" d="M3,0A3,3 0 1,1 0,-3A3,3 0 0,1 3,0Z" style="opacity: 1; stroke-width: 0px; fill: rgb(34, 144, 140); fill-opacity: 1;"/></g><g class="text"/></g><g class="trace scatter traceb21d51" style="stroke-miterlimit: 2; opacity: 1;"><g class="fills"/><g class="errorbars"/><g class="lines"><path class="js-line" d="M113.32,46.31L134.67,64.68L156.03,64.2L177.38,72.33L198.74,83.28L220.09,82.63L241.45,84.92L262.8,96.6L284.16,105.04L305.51,102.72L326.87,104.31L348.22,113.19L369.58,125.47L390.93,127.07L412.29,123.3L433.64,124.44L455,136.78L476.36,143.17L497.71,139.1L519.07,135.66L540.42,139.77L561.78,155.18L583.13,158.93L604.49,152.44L625.84,149.32L647.2,154.52L668.55,173.93L689.91,173.62L711.26,164.55L732.62,160.4L753.97,166.65L775.33,199.55L796.68,191.01L818.04,176.76L839.39,170.83L860.75,174.27" style="vector-effect: none; fill: none; stroke: rgb(96, 200, 96); stroke-opacity: 1; stroke-width: 2px; opacity: 1;"/></g><g class="points"><path class="point" transform="translate(113.32,46.31)" d="M3,0A3,3 0 1,1 0,-3A3,3 0 0,1 3,0Z" style="opacity: 1; stroke-width: 0px; fill: rgb(96, 200, 96); fill-opacity: 1;"/><path class="point" transform="translate(134.67,64.68)" d="M3,0A3,3 0 1,1 0,-3A3,3 0 0,1 3,0Z" style="opacity: 1; stroke-width: 0px; fill: rgb(96, 200, 96); fill-opacity: 1;"/><path class="point" transform="translate(156.03,64.2)" d="M3,0A3,3 0 1,1 0,-3A3,3 0 0,1 3,0Z" style="opacity: 1; stroke-width: 0px; fill: rgb(96, 200, 96); fill-opacity: 1;"/><path class="point" transform="translate(177.38,72.33)" d="M3,0A3,3 0 1,1 0,-3A3,3 0 0,1 3,0Z" style="opacity: 1; stroke-width: 0px; fill: rgb(96, 200, 96); fill-opacity: 1;"/><path class="point" transform="translate(198.74,83.28)" d="M3,0A3,3 0 1,1 0,-3A3,3 0 0,1 3,0Z" style="opacity: 1; stroke-width: 0px; fill: rgb(96, 200, 96); fill-opacity: 1;"/><path class="point" transform="translate(220.09,82.63)" d="M3,0A3,3 0 1,1 0,-3A3,3 0 0,1 3,0Z" style="opacity: 1; stroke-width: 0px; fill: rgb(96, 200, 96); fill-opacity: 1;"/><path class="point" transform="translate(241.45,84.92)" d="M3,0A3,3 0 1,1 0,-3A3,3 0 0,1 3,0Z" style="opacity: 1; stroke-width: 0px; fill: rgb(96, 200, 96); fill-opacity: 1;"/><path class="point" transform="translate(262.8,96.6)" d="M3,0A3,3 0 1,1 0,-3A3,3 0 0,1 3,0Z" style="opacity: 1; stroke-width: 0px; fill: rgb(96, 200, 96); fill-opacity: 1;"/><path class="point" transform="translate(284.16,105.04)" d="M3,0A3,3 0 1,1 0,-3A3,3 0 0,1 3,0Z" style="opacity: 1; stroke-width: 0px; fill: rgb(96, 200, 96); fill-opacity: 1;"/><path class="point" transform="translate(305.51,102.72)" d="M3,0A3,3 0 1,1 0,-3A3,3 0 0,1 3,0Z" style="opacity: 1; stroke-width: 0px; fill: rgb(96, 200, 96); fill-opacity: 1;"/><path class="point" transform="translate(326.87,104.31)" d="M3,0A3,3 0 1,1 0,-3A3,3 0 0,1 3,0Z" style="opacity: 1; stroke-width: 0px; fill: rgb(96, 200, 96); fill-opacity: 1;"/><path class="point" transform="translate(348.22,113.19)" d="M3,0A3,3 0 1,1 0,-3A3,3 0 0,1 3,0Z" style="opacity: 1; stroke-width: 0px; fill: rgb(96, 200, 96); fill-opacity: 1;"/><path class="point" transform="translate(369.58,125.47)" d="M3,0A3,3 0 1,1 0,-3A3,3 0 0,1 3,0Z" style="opacity: 1; stroke-width: 0px; fill: rgb(96, 200, 96); fill-opacity: 1;"/><path class="point" transform="translate(390.93,127.07)" d="M3,0A3,3 0 1,1 0,-3A3,3 0 0,1 3,0Z" style="opacity: 1; stroke-width: 0px; fill: rgb(96, 200, 96); fill-opacity: 1;"/><path class="point" transform="translate(412.29,123.3)" d="M3,0A3,3 0 1,1 0,-3A3,3 0 0,1 3,0Z" style="opacity: 1; stroke-width: 0px; fill: rgb(96, 200, 96); fill-opacity: 1;"/><path class="point" transform="translate(433.64,124.44)" d="M3,0A3,3 0 1,1 0,-3A3,3 0 0,1 3,0Z" style="opacity: 1; stroke-width: 0px; fill: rgb(96, 200, 96); fill-opacity: 1;"/><path class="point" transform="translate(455,136.78)" d="M3,0A3,3 0 1,1 0,-3A3,3 0 0,1 3,0Z" style="opacity: 1; stroke-width: 0px; fill: rgb(96, 200, 96); fill-opacity: 1;"/><path class="point" transform="translate(476.36,143.17)" d="M3,0A3,3 0 1,1 0,-3A3,3 0 0,1 3,0Z" style="opacity: 1; stroke-width: 0px; fill: rgb(96, 200, 96); fill-opacity: 1;"/><path class="point" transform="translate(497.71,139.1)" d="M3,0A3,3 0 1,1 0,-3A3,3 0 0,1 3,0Z" style="opacity: 1; stroke-width: 0px; fill: rgb(96, 200, 96); fill-opacity: 1;"/><path class="point" transform="translate(519.07,135.66)" d="M3,0A3,3 0 1,1 0,-3A3,3 0 0,1 3,0Z" style="opacity: 1; stroke-width: 0px; fill: rgb(96, 200, 96); fill-opacity: 1;"/><path class="point" transform="translate(540.42,139.77)" d="M3,0A3,3 0 1,1 0,-3A3,3 0 0,1 3,0Z" style="opacity: 1; stroke-width: 0px; fill: rgb(96, 200, 96); fill-opacity: 1;"/><path class="point" transform="translate(561.78,155.18)" d="M3,0A3,3 0 1,1 0,-3A3,3 0 0,1 3,0Z" style="opacity: 1; stroke-width: 0px; fill: rgb(96, 200, 96); fill-opacity: 1;"/><path class="point" transform="translate(583.13,158.93)" d="M3,0A3,3 0 1,1 0,-3A3,3 0 0,1 3,0Z" style="opacity: 1; stroke-width: 0px; fill: rgb(96, 200, 96); fill-opacity: 1;"/><path class="point" transform="translate(604.49,152.44)" d="M3,0A3,3 0 1,1 0,-3A3,3 0 0,1 3,0Z" style="opacity: 1; stroke-width: 0px; fill: rgb(96, 200, 96); fill-opacity: 1;"/><path class="point" transform="translate(625.84,149.32)" d="M3,0A3,3 0 1,1 0,-3A3,3 0 0,1 3,0Z" style="opacity: 1; stroke-width: 0px; fill: rgb(96, 200, 96); fill-opacity: 1;"/><path class="point" transform="translate(647.2,154.52)" d="M3,0A3,3 0 1,1 0,-3A3,3 0 0,1 3,0Z" style="opacity: 1; stroke-width: 0px; fill: rgb(96, 200, 96); fill-opacity: 1;"/><path class="point" transform="translate(668.55,173.93)" d="M3,0A3,3 0 1,1 0,-3A3,3 0 0,1 3,0Z" style="opacity: 1; stroke-width: 0px; fill: rgb(96, 200, 96); fill-opacity: 1;"/><path class="point" transform="translate(689.91,173.62)" d="M3,0A3,3 0 1,1 0,-3A3,3 0 0,1 3,0Z" style="opacity: 1; stroke-width: 0px; fill: rgb(96, 200, 96); fill-opacity: 1;"/><path class="point" transform="translate(711.26,164.55)" d="M3,0A3,3 0 1,1 0,-3A3,3 0 0,1 3,0Z" style="opacity: 1; stroke-width: 0px; fill: rgb(96, 200, 96); fill-opacity: 1;"/><path class="point" transform="translate(732.62,160.4)" d="M3,0A3,3 0 1,1 0,-3A3,3 0 0,1 3,0Z" style="opacity: 1; stroke-width: 0px; fill: rgb(96, 200, 96); fill-opacity: 1;"/><path class="point" transform="translate(753.97,166.65)" d="M3,0A3,3 0 1,1 0,-3A3,3 0 0,1 3,0Z" style="opacity: 1; stroke-width: 0px; fill: rgb(96, 200, 96); fill-opacity: 1;"/><path class="point" transform="translate(775.33,199.55)" d="M3,0A3,3 0 1,1 0,-3A3,3 0 0,1 3,0Z" style="opacity: 1; stroke-width: 0px; fill: rgb(96, 200, 96); fill-opacity: 1;"/><path class="point" transform="translate(796.68,191.01)" d="M3,0A3,3 0 1,1 0,-3A3,3 0 0,1 3,0Z" style="opacity: 1; stroke-width: 0px; fill: rgb(96, 200, 96); fill-opacity: 1;"/><path class="point" transform="translate(818.04,176.76)" d="M3,0A3,3 0 1,1 0,-3A3,3 0 0,1 3,0Z" style="opacity: 1; stroke-width: 0px; fill: rgb(96, 200, 96); fill-opacity: 1;"/><path class="point" transform="translate(839.39,170.83)" d="M3,0A3,3 0 1,1 0,-3A3,3 0 0,1 3,0Z" style="opacity: 1; stroke-width: 0px; fill: rgb(96, 200, 96); fill-opacity: 1;"/><path class="point" transform="translate(860.75,174.27)" d="M3,0A3,3 0 1,1 0,-3A3,3 0 0,1 3,0Z" style="opacity: 1; stroke-width: 0px; fill: rgb(96, 200, 96); fill-opacity: 1;"/></g><g class="text"/></g></g></g></g><path class="xlines-above crisp" d="M0,0" style="fill: none;"/><path class="ylines-above crisp" d="M0,0" style="fill: none;"/><g class="overlines-above"/><g class="xaxislayer-above"><g class="xtick"><text text-anchor="middle" x="0" y="343" transform="translate(224.95999999999998,0)" style="font-family: 'Open Sans', verdana, arial, sans-serif; font-size: 28px; fill: rgb(0, 0, 0); fill-opacity: 1; white-space: pre; opacity: 1;">5</text></g><g class="xtick"><text text-anchor="middle" x="0" y="343" style="font-family: 'Open Sans', verdana, arial, sans-serif; font-size: 28px; fill: rgb(0, 0, 0); fill-opacity: 1; white-space: pre; opacity: 1;" transform="translate(331.74,0)">10</text></g><g class="xtick"><text text-anchor="middle" x="0" y="343" style="font-family: 'Open Sans', verdana, arial, sans-serif; font-size: 28px; fill: rgb(0, 0, 0); fill-opacity: 1; white-space: pre; opacity: 1;" transform="translate(438.51,0)">15</text></g><g class="xtick"><text text-anchor="middle" x="0" y="343" style="font-family: 'Open Sans', verdana, arial, sans-serif; font-size: 28px; fill: rgb(0, 0, 0); fill-opacity: 1; white-space: pre; opacity: 1;" transform="translate(545.29,0)">20</text></g><g class="xtick"><text text-anchor="middle" x="0" y="343" style="font-family: 'Open Sans', verdana, arial, sans-serif; font-size: 28px; fill: rgb(0, 0, 0); fill-opacity: 1; white-space: pre; opacity: 1;" transform="translate(652.07,0)">25</text></g><g class="xtick"><text text-anchor="middle" x="0" y="343" style="font-family: 'Open Sans', verdana, arial, sans-serif; font-size: 28px; fill: rgb(0, 0, 0); fill-opacity: 1; white-space: pre; opacity: 1;" transform="translate(758.84,0)">30</text></g><g class="xtick"><text text-anchor="middle" x="0" y="343" style="font-family: 'Open Sans', verdana, arial, sans-serif; font-size: 28px; fill: rgb(0, 0, 0); fill-opacity: 1; white-space: pre; opacity: 1;" transform="translate(865.62,0)">35</text></g><g class="xtick"><text text-anchor="middle" x="0" y="343" style="font-family: 'Open Sans', verdana, arial, sans-serif; font-size: 28px; fill: rgb(0, 0, 0); fill-opacity: 1; white-space: pre; opacity: 1;" transform="translate(972.39,0)">40</text></g></g><g class="yaxislayer-above"><g class="ytick"><text text-anchor="end" x="132" y="9.799999999999999" transform="translate(0,309.39)" style="font-family: 'Open Sans', verdana, arial, sans-serif; font-size: 28px; fill: rgb(0, 0, 0); fill-opacity: 1; white-space: pre; opacity: 1;">1μ</text></g><g class="ytick"><text text-anchor="end" x="132" y="9.799999999999999" style="font-family: 'Open Sans', verdana, arial, sans-serif; font-size: 28px; fill: rgb(0, 0, 0); fill-opacity: 1; white-space: pre; opacity: 1;" transform="translate(0,267.98)">10μ</text></g><g class="ytick"><text text-anchor="end" x="132" y="9.799999999999999" style="font-family: 'Open Sans', verdana, arial, sans-serif; font-size: 28px; fill: rgb(0, 0, 0); fill-opacity: 1; white-space: pre; opacity: 1;" transform="translate(0,226.57)">100μ</text></g><g class="ytick"><text text-anchor="end" x="132" y="9.799999999999999" style="font-family: 'Open Sans', verdana, arial, sans-serif; font-size: 28px; fill: rgb(0, 0, 0); fill-opacity: 1; white-space: pre; opacity: 1;" transform="translate(0,185.16)">0.001</text></g><g class="ytick"><text text-anchor="end" x="132" y="9.799999999999999" style="font-family: 'Open Sans', verdana, arial, sans-serif; font-size: 28px; fill: rgb(0, 0, 0); fill-opacity: 1; white-space: pre; opacity: 1;" transform="translate(0,143.75)">0.01</text></g><g class="ytick"><text text-anchor="end" x="132" y="9.799999999999999" style="font-family: 'Open Sans', verdana, arial, sans-serif; font-size: 28px; fill: rgb(0, 0, 0); fill-opacity: 1; white-space: pre; opacity: 1;" transform="translate(0,102.34)">0.1</text></g></g><g class="overaxes-above"/></g></g><g class="polarlayer"/><g class="smithlayer"/><g class="ternarylayer"/><g class="geolayer"/><g class="funnelarealayer"/><g class="pielayer"/><g class="iciclelayer"/><g class="treemaplayer"/><g class="sunburstlayer"/><g class="glimages"/><defs id="topdefs-fcf7ad"><g class="clips"/><clipPath id="legendfcf7ad"><rect width="127" height="211" x="0" y="0"/></clipPath></defs><g class="layer-above"><g class="imagelayer"/><g class="shapelayer"/></g><g class="infolayer"><g class="legend" pointer-events="all" transform="translate(1061.2,100)"><rect class="bg" shape-rendering="crispEdges" style="stroke: rgb(68, 68, 68); stroke-opacity: 1; fill: rgb(255, 255, 255); fill-opacity: 1; stroke-width: 0px;" width="127" height="211" x="0" y="0"/><g class="scrollbox" transform="" clip-path="url(#legendfcf7ad)"><g class="groups" transform=""><g class="traces" transform="translate(0,26.650000000000002)" style="opacity: 1;"><text class="legendtext" text-anchor="start" x="5" y="12.090000000000002" style="font-family: 'Open Sans', verdana, arial, sans-serif; font-size: 31px; fill: rgb(0, 0, 0); fill-opacity: 1; white-space: pre;">Degree</text><g class="layers"><g class="legendfill"/><g class="legendlines"/><g class="legendsymbols"><g class="legendpoints"/></g></g><rect class="legendtoggle" x="0" y="-21.650000000000002" width="121.84375" height="43.300000000000004" style="fill: rgb(0, 0, 0); fill-opacity: 0;"/></g><g class="traces" transform="translate(0,68)" style="opacity: 1;"><text class="legendtext" text-anchor="start" x="40" y="10.92" style="font-family: 'Open Sans', verdana, arial, sans-serif; font-size: 28px; fill: rgb(0, 0, 0); fill-opacity: 1; white-space: pre;">p=2</text><g class="layers" style="opacity: 1;"><g class="legendfill"/><g class="legendlines"><path class="js-line" d="M5,0h30" style="fill: none; stroke: rgb(68, 1, 84); stroke-opacity: 1; stroke-width: 2px;"/></g><g class="legendsymbols"><g class="legendpoints"><path class="scatterpts" transform="translate(20,0)" d="M3,0A3,3 0 1,1 0,-3A3,3 0 0,1 3,0Z" style="opacity: 1; stroke-width: 0px; fill: rgb(68, 1, 84); fill-opacity: 1;"/></g></g></g><rect class="legendtoggle" x="0" y="-19.7" width="121.84375" height="39.4" style="fill: rgb(0, 0, 0); fill-opacity: 0;"/></g><g class="traces" transform="translate(0,107.4)" style="opacity: 1;"><text class="legendtext" text-anchor="start" x="40" y="10.92" style="font-family: 'Open Sans', verdana, arial, sans-serif; font-size: 28px; fill: rgb(0, 0, 0); fill-opacity: 1; white-space: pre;">p=3</text><g class="layers" style="opacity: 1;"><g class="legendfill"/><g class="legendlines"><path class="js-line" d="M5,0h30" style="fill: none; stroke: rgb(59, 81, 138); stroke-opacity: 1; stroke-width: 2px;"/></g><g class="legendsymbols"><g class="legendpoints"><path class="scatterpts" transform="translate(20,0)" d="M3,0A3,3 0 1,1 0,-3A3,3 0 0,1 3,0Z" style="opacity: 1; stroke-width: 0px; fill: rgb(59, 81, 138); fill-opacity: 1;"/></g></g></g><rect class="legendtoggle" x="0" y="-19.7" width="121.84375" height="39.4" style="fill: rgb(0, 0, 0); fill-opacity: 0;"/></g><g class="traces" transform="translate(0,146.79999999999998)" style="opacity: 1;"><text class="legendtext" text-anchor="start" x="40" y="10.92" style="font-family: 'Open Sans', verdana, arial, sans-serif; font-size: 28px; fill: rgb(0, 0, 0); fill-opacity: 1; white-space: pre;">p=4</text><g class="layers" style="opacity: 1;"><g class="legendfill"/><g class="legendlines"><path class="js-line" d="M5,0h30" style="fill: none; stroke: rgb(34, 144, 140); stroke-opacity: 1; stroke-width: 2px;"/></g><g class="legendsymbols"><g class="legendpoints"><path class="scatterpts" transform="translate(20,0)" d="M3,0A3,3 0 1,1 0,-3A3,3 0 0,1 3,0Z" style="opacity: 1; stroke-width: 0px; fill: rgb(34, 144, 140); fill-opacity: 1;"/></g></g></g><rect class="legendtoggle" x="0" y="-19.7" width="121.84375" height="39.4" style="fill: rgb(0, 0, 0); fill-opacity: 0;"/></g><g class="traces" transform="translate(0,186.2)" style="opacity: 1;"><text class="legendtext" text-anchor="start" x="40" y="10.92" style="font-family: 'Open Sans', verdana, arial, sans-serif; font-size: 28px; fill: rgb(0, 0, 0); fill-opacity: 1; white-space: pre;">p=5</text><g class="layers" style="opacity: 1;"><g class="legendfill"/><g class="legendlines"><path class="js-line" d="M5,0h30" style="fill: none; stroke: rgb(96, 200, 96); stroke-opacity: 1; stroke-width: 2px;"/></g><g class="legendsymbols"><g class="legendpoints"><path class="scatterpts" transform="translate(20,0)" d="M3,0A3,3 0 1,1 0,-3A3,3 0 0,1 3,0Z" style="opacity: 1; stroke-width: 0px; fill: rgb(96, 200, 96); fill-opacity: 1;"/></g></g></g><rect class="legendtoggle" x="0" y="-19.7" width="121.84375" height="39.4" style="fill: rgb(0, 0, 0); fill-opacity: 0;"/></g></g></g><rect class="scrollbar" rx="20" ry="3" width="0" height="0" style="fill: rgb(128, 139, 164); fill-opacity: 1;" x="0" y="0"/></g><g class="g-gtitle"/><g class="g-xtitle"><text class="xtitle" x="588" y="387.3" text-anchor="middle" style="opacity: 1; font-family: 'Open Sans', verdana, arial, sans-serif; font-size: 34px; fill: rgb(0, 0, 0); fill-opacity: 1; white-space: pre;">Number of Control Points (N)</text></g><g class="g-ytitle" transform="translate(9.791015625,0)"><text class="ytitle" transform="rotate(-90,24.209374999999994,207)" x="24.209374999999994" y="207" text-anchor="middle" style="opacity: 1; font-family: 'Open Sans', verdana, arial, sans-serif; font-size: 34px; fill: rgb(0, 0, 0); fill-opacity: 1; white-space: pre;">Integral of Square Error</text></g></g></svg>