<svg class="main-svg" xmlns="http://www.w3.org/2000/svg" xmlns:xlink="http://www.w3.org/1999/xlink" width="800" height="600" style="" viewBox="0 0 800 600"><rect x="0" y="0" width="800" height="600" style="fill: rgb(255, 255, 255); fill-opacity: 1;"/><defs id="defs-bbcb13"><g class="clips"><clipPath id="clipbbcb13xyplot" class="plotclip"><rect width="453" height="414"/></clipPath><clipPath class="axesclip" id="clipbbcb13x"><rect x="98" y="0" width="453" height="600"/></clipPath><clipPath class="axesclip" id="clipbbcb13y"><rect x="0" y="100" width="800" height="414"/></clipPath><clipPath class="axesclip" id="clipbbcb13xy"><rect x="98" y="100" width="453" height="414"/></clipPath></g><g class="gradients"/><g class="patterns"/></defs><g class="bglayer"/><g class="layer-below"><g class="imagelayer"/><g class="shapelayer"/></g><g class="cartesianlayer"><g class="subplot xy"><g class="layer-subplot"><g class="shapelayer"/><g class="imagelayer"/></g><g class="minor-gridlayer"><g class="x"/><g class="y"/></g><g class="gridlayer"><g class="x"><path class="xgrid crisp" transform="translate(258.22,0)" d="M0,100v414" style="stroke: rgb(200, 200, 200); stroke-opacity: 1; stroke-width: 1px;"/><path class="xgrid crisp" transform="translate(390.78,0)" d="M0,100v414" style="stroke: rgb(200, 200, 200); stroke-opacity: 1; stroke-width: 1px;"/><path class="xgrid crisp" transform="translate(523.35,0)" d="M0,100v414" style="stroke: rgb(200, 200, 200); stroke-opacity: 1; stroke-width: 1px;"/></g><g class="y"><path class="ygrid crisp" transform="translate(0,414.78)" d="M98,0h453" style="stroke: rgb(200, 200, 200); stroke-opacity: 1; stroke-width: 1px;"/><path class="ygrid crisp" transform="translate(0,341.26)" d="M98,0h453" style="stroke: rgb(200, 200, 200); stroke-opacity: 1; stroke-width: 1px;"/><path class="ygrid crisp" transform="translate(0,267.74)" d="M98,0h453" style="stroke: rgb(200, 200, 200); stroke-opacity: 1; stroke-width: 1px;"/><path class="ygrid crisp" transform="translate(0,194.22)" d="M98,0h453" style="stroke: rgb(200, 200, 200); stroke-opacity: 1; stroke-width: 1px;"/><path class="ygrid crisp" transform="translate(0,120.7)" d="M98,0h453" style="stroke: rgb(200, 200, 200); stroke-opacity: 1; stroke-width: 1px;"/></g></g><g class="zerolinelayer"><path class="xzl zl crisp" transform="translate(125.65,0)" d="M0,100v414" style="stroke: rgb(200, 200, 200); stroke-opacity: 1; stroke-width: 2px;"/><path class="yzl zl crisp" transform="translate(0,488.3)" d="M98,0h453" style="stroke: rgb(200, 200, 200); stroke-opacity: 1; stroke-width: 2px;"/></g><g class="layer-between"><g class="shapelayer"/><g class="imagelayer"/></g><path class="xlines-below"/><path class="ylines-below"/><g class="overlines-below"/><g class="xaxislayer-below"/><g class="yaxislayer-below"/><g class="overaxes-below"/><g class="overplot"><g class="xy" transform="translate(98,100)" clip-path="url(#clipbbcb13xyplot)"><g class="scatterlayer mlayer"><g class="trace scatter trace2538f3" style="stroke-miterlimit: 2; opacity: 1;"><g class="fills"/><g class="errorbars"/><g class="lines"><path class="js-line" d="M27.65,388.3L425.35,388.3" style="vector-effect: none; fill: none; stroke: rgb(0, 0, 0); stroke-opacity: 1; stroke-width: 2px; opacity: 1;"/></g><g class="points"/><g class="text"/></g><g class="trace scatter trace8eb80f" style="stroke-miterlimit: 2; opacity: 1;"><g class="fills"/><g class="errorbars"/><g class="lines"/><g class="points"><path class="point" transform="translate(27.65,388.3)" d="M4,0A4,4 0 1,1 0,-4A4,4 0 0,1 4,0Z" style="opacity: 1; stroke-width: 0px; fill: rgb(0, 0, 0); fill-opacity: 1;"/><path class="point" transform="translate(425.35,388.3)" d="M4,0A4,4 0 1,1 0,-4A4,4 0 0,1 4,0Z" style="opacity: 1; stroke-width: 0px; fill: rgb(0, 0, 0); fill-opacity: 1;"/></g><g class="text"/></g><g class="trace scatter trace988dbc" style="stroke-miterlimit: 2; opacity: 1;"><g class="fills"/><g class="errorbars"/><g class="lines"><path class="js-line" d="M27.65,20.7L39.62,72.79L40.95,78.19L52.92,123.57L54.25,128.26L66.22,167.58L67.55,171.64L79.52,205.54L80.85,209.03L92.82,238.08L94.16,241.06L106.13,265.82L107.46,268.35L119.43,289.29L120.76,291.43L132.73,309.03L134.06,310.81L146.03,325.48L147.36,326.96L159.33,339.08L160.66,340.3L173.96,351.2L175.29,352.17L187.26,360.03L188.59,360.81L201.89,367.71L203.22,368.32L217.85,374.09L219.18,374.54L235.15,379.1L236.48,379.42L255.1,383.01L256.43,383.22L280.37,385.93L281.7,386.04L312.29,387.62L313.62,387.66L373.48,388.29L374.81,388.29L425.35,388.3" style="vector-effect: none; fill: none; stroke: rgb(56, 151, 160); stroke-opacity: 1; stroke-width: 2px; opacity: 1;"/></g><g class="points"/><g class="text"/></g><g class="trace scatter trace02e931" style="stroke-miterlimit: 2; opacity: 1;"><g class="fills"/><g class="errorbars"/><g class="lines"><path class="js-line" d="M27.65,20.7L33.53,67.34L34.45,73.55L41.39,114.2L42.44,119.61L50.24,154.93L51.41,159.62L59.9,190.22L61.15,194.29L70.17,220.73L71.49,224.23L80.9,247.01L82.27,250.03L93.38,272.18L94.78,274.72L106.13,293.34L107.55,295.46L119.03,311.05L120.46,312.82L131.98,325.82L133.42,327.3L146.36,339.34L147.79,340.54L160.65,350.29L162.08,351.27L176.24,359.9L177.65,360.67L193.05,368.02L194.44,368.6L211.05,374.58L212.43,375L228.85,379.32L230.22,379.62L250.56,383.25L251.91,383.44L273.45,385.78L274.79,385.89L306.89,387.57L308.23,387.61L353.52,388.24L354.85,388.25L425.35,388.3" style="vector-effect: none; fill: none; stroke: rgb(103, 166, 134); stroke-opacity: 1; stroke-width: 2px; opacity: 1;"/></g><g class="points"/><g class="text"/></g><g class="trace scatter trace242e89" style="stroke-miterlimit: 2; opacity: 1;"><g class="fills"/><g class="errorbars"/><g class="lines"><path class="js-line" d="M27.65,20.7L31.6,62.88L32.4,69.66L37.96,108.76L39,115.01L45.77,150.79L46.98,156.47L54.64,188.8L55.97,193.9L65.64,227.24L67.06,231.68L77.2,260.42L78.67,264.21L89.03,288.54L90.51,291.71L100.92,311.92L102.4,314.53L112.73,330.98L114.2,333.08L124.39,346.19L125.84,347.84L135.87,358.06L137.29,359.33L147.16,367.11L148.56,368.07L159.67,374.57L161.05,375.25L172.01,379.76L173.38,380.22L186.94,383.84L188.29,384.11L204.42,386.48L205.76,386.61L225.8,387.84L227.14,387.89L264.41,388.29L265.74,388.3L425.35,388.3" style="vector-effect: none; fill: none; stroke: rgb(149, 181, 108); stroke-opacity: 1; stroke-width: 2px; opacity: 1;"/></g><g class="points"/><g class="text"/></g><g class="trace scatter trace314400" style="stroke-miterlimit: 2; opacity: 1;"><g class="fills"/><g class="errorbars"/><g class="lines"><path class="js-line" d="M27.65,20.7L29.66,57.12L30.26,64.29L34.11,99.35L35.03,106.17L41.4,145.5L42.59,151.76L50.24,187.41L51.59,193.01L60.04,224.52L61.5,229.42L70.38,256.62L71.88,260.8L80.93,283.77L82.45,287.25L91.51,306.25L93.02,309.1L102,324.5L103.48,326.8L113.8,340.9L115.26,342.65L125.4,353.36L126.84,354.68L136.83,362.71L138.24,363.7L149.5,370.39L150.89,371.09L162,375.83L163.39,376.32L177.11,380.34L178.48,380.66L194.78,383.67L196.13,383.87L219,386.21L220.34,386.31L251.07,387.65L252.4,387.69L309.63,388.24L310.96,388.24L425.35,388.3" style="vector-effect: none; fill: none; stroke: rgb(196, 196, 82); stroke-opacity: 1; stroke-width: 2px; opacity: 1;"/></g><g class="points"/><g class="text"/></g><g class="trace scatter trace12af2f" style="stroke-miterlimit: 2; opacity: 1;"><g class="fills"/><g class="errorbars"/><g class="lines"><path class="js-line" d="M27.65,20.7L28.73,50.03L29.19,57.29L32.42,92.86L33.24,99.8L38.02,133.36L39.1,139.83L46.26,176.69L47.55,182.49L55.72,215.13L57.15,220.21L65.93,248.45L67.42,252.8L76.52,276.73L78.05,280.38L87.26,300.31L88.8,303.33L99.54,322.15L101.07,324.54L111.7,339.35L113.21,341.21L123.67,352.68L125.15,354.11L135.41,362.85L136.86,363.93L146.91,370.47L148.33,371.27L159.58,376.64L160.98,377.2L173.39,381.25L174.76,381.61L189.69,384.61L191.04,384.81L209.81,386.75L211.15,386.84L241.79,387.95L243.12,387.97L289.68,388.28L291.01,388.29L425.35,388.3" style="vector-effect: none; fill: none; stroke: rgb(242, 211, 56); stroke-opacity: 1; stroke-width: 2px; opacity: 1;"/></g><g class="points"/><g class="text"/></g><g class="trace scatter trace479ae7" style="stroke-miterlimit: 2; opacity: 1;"><g class="fills"/><g class="errorbars"/><g class="lines"><path class="js-line" d="M27.65,20.7L28.63,50.06L29.05,57.34L32.1,93.1L32.88,100.09L37.51,134.05L38.57,140.63L45.69,178.27L46.99,184.23L55.28,217.94L56.74,223.21L65.78,252.7L67.32,257.25L76.76,282.47L78.35,286.32L87.91,307.4L89.51,310.59L99.01,327.82L100.59,330.39L109.91,344.13L111.45,346.16L120.54,356.83L122.03,358.37L130.86,366.42L132.31,367.57L142.3,374.29L143.71,375.08L153.45,379.59L154.83,380.11L165.74,383.36L167.09,383.68L181.87,386.1L183.21,386.24L203.21,387.61L204.54,387.66L239.14,388.25L240.47,388.25L346.87,388.3L348.2,388.3L425.35,388.3" style="vector-effect: none; fill: none; stroke: rgb(242, 197, 56); stroke-opacity: 1; stroke-width: 2px; opacity: 1;"/></g><g class="points"/><g class="text"/></g><g class="trace scatter trace8771ba" style="stroke-miterlimit: 2; opacity: 1;"><g class="fills"/><g class="errorbars"/><g class="lines"><path class="js-line" d="M27.65,20.7L29.09,57.35L29.56,64.61L32.71,100.39L33.51,107.42L38.21,141.72L39.29,148.4L45.29,180.64L46.6,186.85L55.08,222.2L56.58,227.75L65.95,258.89L67.56,263.7L77.34,290.24L78.98,294.26L88.8,316.09L90.42,319.35L100.03,336.66L101.61,339.19L110.91,352.42L112.43,354.32L121.38,364.05L122.84,365.42L131.48,372.32L132.9,373.28L142.69,378.66L144.07,379.27L153.65,382.66L155.01,383.04L168.5,385.74L169.84,385.93L187.22,387.47L188.55,387.54L215.19,388.2L216.52,388.21L326.92,388.3L328.25,388.3L425.35,388.3" style="vector-effect: none; fill: none; stroke: rgb(242, 184, 56); stroke-opacity: 1; stroke-width: 2px; opacity: 1;"/></g><g class="points"/><g class="text"/></g><g class="trace scatter tracea96b5e" style="stroke-miterlimit: 2; opacity: 1;"><g class="fills"/><g class="errorbars"/><g class="lines"><path class="js-line" d="M27.65,20.7L30.58,71.67L31.15,78.88L35.44,121.42L36.32,128.37L41.39,162.21L42.53,168.78L48.83,200.44L50.19,206.51L58.95,240.79L60.49,246.13L70.01,275.7L71.62,280.21L81.4,304.7L83.04,308.36L92.76,327.87L94.37,330.72L103.86,345.7L105.42,347.86L114.62,358.97L116.13,360.54L125.05,368.55L126.51,369.67L135.18,375.31L136.6,376.09L146.46,380.5L147.86,381L158.88,384.1L160.25,384.39L175.13,386.6L176.48,386.73L196.54,387.85L197.87,387.89L235.14,388.28L236.47,388.28L425.35,388.3" style="vector-effect: none; fill: none; stroke: rgb(242, 170, 56); stroke-opacity: 1; stroke-width: 2px; opacity: 1;"/></g><g class="points"/><g class="text"/></g><g class="trace scatter trace4a678a" style="stroke-miterlimit: 2; opacity: 1;"><g class="fills"/><g class="errorbars"/><g class="lines"><path class="js-line" d="M27.65,20.7L30.81,79.02L31.37,86.23L34.89,121.73L35.74,128.7L40.77,162.66L41.92,169.24L48.29,200.96L49.68,207.03L58.59,241.32L60.15,246.65L69.79,276.21L71.43,280.73L81.32,305.29L82.97,308.97L92.78,328.67L94.4,331.57L103.97,346.82L105.55,349.02L114.81,360.43L116.33,362.04L125.28,370.26L126.75,371.4L135.41,377.08L136.84,377.85L146.66,382.09L148.05,382.56L159.01,385.29L160.37,385.54L175.19,387.25L176.53,387.34L199.22,388.13L200.55,388.15L317.61,388.3L318.94,388.3L425.35,388.3" style="vector-effect: none; fill: none; stroke: rgb(242, 157, 56); stroke-opacity: 1; stroke-width: 2px; opacity: 1;"/></g><g class="points"/><g class="text"/></g><g class="trace scatter trace46ff8e" style="stroke-miterlimit: 2; opacity: 1;"><g class="fills"/><g class="errorbars"/><g class="lines"><path class="js-line" d="M27.65,20.7L30.32,71.78L30.84,79.01L34.94,121.73L35.79,128.71L40.76,162.75L41.89,169.36L48.16,201.26L49.52,207.38L58.3,242.06L59.84,247.48L69.44,277.62L71.08,282.24L81.04,307.48L82.71,311.27L92.68,331.57L94.33,334.55L104.07,350.17L105.66,352.41L115.04,363.83L116.57,365.42L125.56,373.32L127.02,374.39L135.67,379.55L137.08,380.23L146.84,383.81L148.22,384.19L160.47,386.5L161.81,386.67L179.24,387.89L180.58,387.93L216.52,388.29L217.85,388.29L425.35,388.3" style="vector-effect: none; fill: none; stroke: rgb(242, 143, 56); stroke-opacity: 1; stroke-width: 2px; opacity: 1;"/></g><g class="points"/><g class="text"/></g><g class="trace scatter trace3d7f04" style="stroke-miterlimit: 2; opacity: 1;"><g class="fills"/><g class="errorbars"/><g class="lines"><path class="js-line" d="M27.65,20.7L31.5,86.18L32.09,93.37L35.72,128.79L36.59,135.75L41.67,169.75L42.82,176.36L49.21,208.35L50.6,214.51L58.02,243.9L59.58,249.48L69.37,280.67L71.06,285.46L81.28,311.64L82.99,315.56L93.18,336.38L94.85,339.4L103.07,352.67L104.68,354.96L112.56,364.8L114.09,366.46L121.62,373.41L123.1,374.55L131.75,379.96L133.17,380.65L141.54,383.87L142.91,384.27L153.81,386.5L155.17,386.68L169.93,387.86L171.26,387.91L200.56,388.28L201.89,388.29L425.35,388.3" style="vector-effect: none; fill: none; stroke: rgb(237, 120, 51); stroke-opacity: 1; stroke-width: 2px; opacity: 1;"/></g><g class="points"/><g class="text"/></g><g class="trace scatter trace58d55c" style="stroke-miterlimit: 2; opacity: 1;"><g class="fills"/><g class="errorbars"/><g class="lines"><path class="js-line" d="M27.65,20.7L30.47,71.72L31.01,78.94L35.07,121.73L35.88,128.75L41.69,169.92L42.81,176.6L49.02,208.98L50.39,215.24L57.72,245.16L59.28,250.86L67.42,277.67L69.1,282.68L79.4,310.02L81.13,314.11L89.73,332.49L91.43,335.76L99.79,350.08L101.43,352.56L109.44,363.18L111,364.97L118.64,372.48L120.14,373.72L128.91,379.59L130.34,380.35L138.79,383.84L140.18,384.27L149.78,386.42L151.14,386.63L165.93,387.89L167.27,387.94L203.22,388.3L204.55,388.3L425.35,388.3" style="vector-effect: none; fill: none; stroke: rgb(232, 98, 46); stroke-opacity: 1; stroke-width: 2px; opacity: 1;"/></g><g class="points"/><g class="text"/></g><g class="trace scatter trace4e1341" style="stroke-miterlimit: 2; opacity: 1;"><g class="fills"/><g class="errorbars"/><g class="lines"><path class="js-line" d="M27.65,20.7L30.58,71.68L31.12,78.9L35.09,121.75L35.88,128.78L41.54,170.13L42.63,176.84L48.76,209.43L50.11,215.72L57.4,245.84L58.95,251.57L67.09,278.51L68.77,283.53L77.34,306.7L79.07,310.92L87.71,329.98L89.43,333.38L97.88,348.36L99.54,350.97L107.67,362.19L109.26,364.09L117.04,372.1L118.56,373.42L126,378.81L127.46,379.68L136.03,383.62L137.43,384.1L147.09,386.43L148.45,386.65L161.93,387.87L163.27,387.93L192.58,388.3L193.91,388.3L425.35,388.3" style="vector-effect: none; fill: none; stroke: rgb(227, 75, 40); stroke-opacity: 1; stroke-width: 2px; opacity: 1;"/></g><g class="points"/><g class="text"/></g><g class="trace scatter traced66345" style="stroke-miterlimit: 2; opacity: 1;"><g class="fills"/><g class="errorbars"/><g class="lines"><path class="js-line" d="M27.65,20.7L31.13,78.89L31.7,86.1L35.83,128.84L36.65,135.85L42.5,176.98L43.63,183.64L49.91,215.93L51.29,222.15L58.7,251.88L60.28,257.52L68.49,284.03L70.19,288.97L78.82,311.75L80.57,315.91L89.28,334.65L91.01,337.99L99.55,352.68L101.23,355.23L109.42,366.08L111.01,367.9L118.79,375.37L120.3,376.57L127.69,381.32L129.13,382.05L137.59,385.22L138.98,385.58L149.89,387.38L151.24,387.51L168.63,388.22L169.96,388.24L276.38,388.3L277.71,388.3L425.35,388.3" style="vector-effect: none; fill: none; stroke: rgb(222, 53, 35); stroke-opacity: 1; stroke-width: 2px; opacity: 1;"/></g><g class="points"/><g class="text"/></g><g class="trace scatter trace17c496" style="stroke-miterlimit: 2; opacity: 1;"><g class="fills"/><g class="errorbars"/><g class="lines"><path class="js-line" d="M27.65,20.7L31.25,78.83L31.81,86.04L36.58,135.89L37.41,142.89L42.22,177.23L43.33,183.94L49.55,216.49L50.93,222.77L58.41,252.87L60.01,258.6L68.39,285.63L70.12,290.68L78.96,314.05L80.75,318.33L89.65,337.58L91.41,341L100.04,355.91L101.73,358.45L109.91,369.12L111.5,370.86L119.19,377.83L120.68,378.92L127.96,383.06L129.38,383.67L137.74,386.22L139.11,386.5L151.29,387.89L152.63,387.96L176.62,388.3L177.95,388.3L425.35,388.3" style="vector-effect: none; fill: none; stroke: rgb(217, 30, 30); stroke-opacity: 1; stroke-width: 2px; opacity: 1;"/></g><g class="points"/><g class="text"/></g></g></g></g><path class="xlines-above crisp" d="M0,0" style="fill: none;"/><path class="ylines-above crisp" d="M0,0" style="fill: none;"/><g class="overlines-above"/><g class="xaxislayer-above"><g class="xtick"><text text-anchor="middle" x="0" y="543" transform="translate(125.65,0)" style="font-family: 'Open Sans', verdana, arial, sans-serif; font-size: 28px; fill: rgb(0, 0, 0); fill-opacity: 1; white-space: pre; opacity: 1;">0</text></g><g class="xtick"><text text-anchor="middle" x="0" y="543" style="font-family: 'Open Sans', verdana, arial, sans-serif; font-size: 28px; fill: rgb(0, 0, 0); fill-opacity: 1; white-space: pre; opacity: 1;" transform="translate(258.22,0)">1</text></g><g class="xtick"><text text-anchor="middle" x="0" y="543" style="font-family: 'Open Sans', verdana, arial, sans-serif; font-size: 28px; fill: rgb(0, 0, 0); fill-opacity: 1; white-space: pre; opacity: 1;" transform="translate(390.78,0)">2</text></g><g class="xtick"><text text-anchor="middle" x="0" y="543" style="font-family: 'Open Sans', verdana, arial, sans-serif; font-size: 28px; fill: rgb(0, 0, 0); fill-opacity: 1; white-space: pre; opacity: 1;" transform="translate(523.35,0)">3</text></g></g><g class="yaxislayer-above"><g class="ytick"><text text-anchor="end" x="97" y="9.799999999999999" transform="translate(0,488.3)" style="font-family: 'Open Sans', verdana, arial, sans-serif; font-size: 28px; fill: rgb(0, 0, 0); fill-opacity: 1; white-space: pre; opacity: 1;">0</text></g><g class="ytick"><text text-anchor="end" x="97" y="9.799999999999999" style="font-family: 'Open Sans', verdana, arial, sans-serif; font-size: 28px; fill: rgb(0, 0, 0); fill-opacity: 1; white-space: pre; opacity: 1;" transform="translate(0,414.78)">0.2</text></g><g class="ytick"><text text-anchor="end" x="97" y="9.799999999999999" style="font-family: 'Open Sans', verdana, arial, sans-serif; font-size: 28px; fill: rgb(0, 0, 0); fill-opacity: 1; white-space: pre; opacity: 1;" transform="translate(0,341.26)">0.4</text></g><g class="ytick"><text text-anchor="end" x="97" y="9.799999999999999" style="font-family: 'Open Sans', verdana, arial, sans-serif; font-size: 28px; fill: rgb(0, 0, 0); fill-opacity: 1; white-space: pre; opacity: 1;" transform="translate(0,267.74)">0.6</text></g><g class="ytick"><text text-anchor="end" x="97" y="9.799999999999999" style="font-family: 'Open Sans', verdana, arial, sans-serif; font-size: 28px; fill: rgb(0, 0, 0); fill-opacity: 1; white-space: pre; opacity: 1;" transform="translate(0,194.22)">0.8</text></g><g class="ytick"><text text-anchor="end" x="97" y="9.799999999999999" style="font-family: 'Open Sans', verdana, arial, sans-serif; font-size: 28px; fill: rgb(0, 0, 0); fill-opacity: 1; white-space: pre; opacity: 1;" transform="translate(0,120.7)">1</text></g></g><g class="overaxes-above"/></g></g><g class="polarlayer"/><g class="smithlayer"/><g class="ternarylayer"/><g class="geolayer"/><g class="funnelarealayer"/><g class="pielayer"/><g class="iciclelayer"/><g class="treemaplayer"/><g class="sunburstlayer"/><g class="glimages"/><defs id="topdefs-bbcb13"><g class="clips"/><clipPath id="legendbbcb13"><rect width="228" height="304" x="0" y="0"/></clipPath></defs><g class="layer-above"><g class="imagelayer"/><g class="shapelayer"/></g><g class="infolayer"><g class="legend" pointer-events="all" transform="translate(560.06,100)"><rect class="bg" shape-rendering="crispEdges" width="228" height="304" x="0" y="0" style="stroke: rgb(68, 68, 68); stroke-opacity: 1; fill: rgb(255, 255, 255); fill-opacity: 1; stroke-width: 0px;"/><g class="scrollbox" transform="" clip-path="url(#legendbbcb13)"><g class="groups" transform=""><g class="traces" transform="translate(0,26.650000000000002)" style="opacity: 1;"><text class="legendtext" text-anchor="start" x="5" y="12.090000000000002" style="font-family: 'Open Sans', verdana, arial, sans-serif; font-size: 31px; fill: rgb(0, 0, 0); fill-opacity: 1; white-space: pre;">Reference</text><g class="layers"><g class="legendfill"/><g class="legendlines"/><g class="legendsymbols"><g class="legendpoints"/></g></g><rect class="legendtoggle" x="0" y="-21.650000000000002" width="222.65625" height="43.300000000000004" style="fill: rgb(0, 0, 0); fill-opacity: 0;"/></g><g class="traces" transform="translate(0,68)" style="opacity: 1;"><text class="legendtext" text-anchor="start" x="40" y="10.92" style="font-family: 'Open Sans', verdana, arial, sans-serif; font-size: 28px; fill: rgb(0, 0, 0); fill-opacity: 1; white-space: pre;">Reference</text><g class="layers" style="opacity: 1;"><g class="legendfill"/><g class="legendlines"><path class="js-line" d="M5,0h30" style="fill: none; stroke: rgb(0, 0, 0); stroke-opacity: 1; stroke-width: 2px;"/></g><g class="legendsymbols"><g class="legendpoints"/></g></g><rect class="legendtoggle" x="0" y="-19.7" width="222.65625" height="39.4" style="fill: rgb(0, 0, 0); fill-opacity: 0;"/></g><g class="traces" transform="translate(0,107.4)" style="opacity: 1;"><text class="legendtext" text-anchor="start" x="40" y="10.92" style="font-family: 'Open Sans', verdana, arial, sans-serif; font-size: 28px; fill: rgb(0, 0, 0); fill-opacity: 1; white-space: pre;">Control point</text><g class="layers" style="opacity: 1;"><g class="legendfill"/><g class="legendlines"/><g class="legendsymbols"><g class="legendpoints"><path class="scatterpts" transform="translate(20,0)" d="M4,0A4,4 0 1,1 0,-4A4,4 0 0,1 4,0Z" style="opacity: 1; stroke-width: 0px; fill: rgb(0, 0, 0); fill-opacity: 1;"/></g></g></g><rect class="legendtoggle" x="0" y="-19.7" width="222.65625" height="39.4" style="fill: rgb(0, 0, 0); fill-opacity: 0;"/></g></g><g class="groups" transform="translate(0,10)"><g class="traces" transform="translate(0,148.75)" style="opacity: 1;"><text class="legendtext" text-anchor="start" x="5" y="12.090000000000002" style="font-family: 'Open Sans', verdana, arial, sans-serif; font-size: 31px; fill: rgb(0, 0, 0); fill-opacity: 1; white-space: pre;">Trajectory</text><g class="layers"><g class="legendfill"/><g class="legendlines"/><g class="legendsymbols"><g class="legendpoints"/></g></g><rect class="legendtoggle" x="0" y="-21.650000000000002" width="222.65625" height="43.300000000000004" style="fill: rgb(0, 0, 0); fill-opacity: 0;"/></g><g class="traces" transform="translate(0,190.1)" style="opacity: 1;"><text class="legendtext" text-anchor="start" x="40" y="10.92" style="font-family: 'Open Sans', verdana, arial, sans-serif; font-size: 28px; fill: rgb(0, 0, 0); fill-opacity: 1; white-space: pre;">N = 10</text><g class="layers" style="opacity: 1;"><g class="legendfill"/><g class="legendlines"><path class="js-line" d="M5,0h30" style="fill: none; stroke: rgb(242, 211, 56); stroke-opacity: 1; stroke-width: 2px;"/></g><g class="legendsymbols"><g class="legendpoints"/></g></g><rect class="legendtoggle" x="0" y="-19.7" width="222.65625" height="39.4" style="fill: rgb(0, 0, 0); fill-opacity: 0;"/></g><g class="traces" transform="translate(0,229.5)" style="opacity: 1;"><text class="legendtext" text-anchor="start" x="40" y="10.92" style="font-family: 'Open Sans', verdana, arial, sans-serif; font-size: 28px; fill: rgb(0, 0, 0); fill-opacity: 1; white-space: pre;">N = 15</text><g class="layers" style="opacity: 1;"><g class="legendfill"/><g class="legendlines"><path class="js-line" d="M5,0h30" style="fill: none; stroke: rgb(242, 143, 56); stroke-opacity: 1; stroke-width: 2px;"/></g><g class="legendsymbols"><g class="legendpoints"/></g></g><rect class="legendtoggle" x="0" y="-19.7" width="222.65625" height="39.4" style="fill: rgb(0, 0, 0); fill-opacity: 0;"/></g><g class="traces" transform="translate(0,268.90000000000003)" style="opacity: 1;"><text class="legendtext" text-anchor="start" x="40" y="10.92" style="font-family: 'Open Sans', verdana, arial, sans-serif; font-size: 28px; fill: rgb(0, 0, 0); fill-opacity: 1; white-space: pre;">N = 20</text><g class="layers" style="opacity: 1;"><g class="legendfill"/><g class="legendlines"><path class="js-line" d="M5,0h30" style="fill: none; stroke: rgb(217, 30, 30); stroke-opacity: 1; stroke-width: 2px;"/></g><g class="legendsymbols"><g class="legendpoints"/></g></g><rect class="legendtoggle" x="0" y="-19.7" width="222.65625" height="39.4" style="fill: rgb(0, 0, 0); fill-opacity: 0;"/></g></g></g><rect class="scrollbar" rx="20" ry="3" width="0" height="0" x="0" y="0" style="fill: rgb(128, 139, 164); fill-opacity: 1;"/></g><g class="g-gtitle"/><g class="g-xtitle"><text class="xtitle" x="324.5" y="587.3" text-anchor="middle" style="opacity: 1; font-family: 'Open Sans', verdana, arial, sans-serif; font-size: 34px; fill: rgb(0, 0, 0); fill-opacity: 1; white-space: pre;">East [m]</text></g><g class="g-ytitle" transform="translate(9.197265625,0)"><text class="ytitle" transform="rotate(-90,24.803124999999994,307)" x="24.803124999999994" y="307" text-anchor="middle" style="opacity: 1; font-family: 'Open Sans', verdana, arial, sans-serif; font-size: 34px; fill: rgb(0, 0, 0); fill-opacity: 1; white-space: pre;">North [m]</text></g></g></svg>