<svg class="main-svg" xmlns="http://www.w3.org/2000/svg" xmlns:xlink="http://www.w3.org/1999/xlink" width="1200" height="600" style="" viewBox="0 0 1200 600"><rect x="0" y="0" width="1200" height="600" style="fill: rgb(255, 255, 255); fill-opacity: 1;"/><defs id="defs-6ff8d0"><g class="clips"><clipPath id="clip6ff8d0xyplot" class="plotclip"><rect width="1022" height="414"/></clipPath><clipPath class="axesclip" id="clip6ff8d0x"><rect x="98" y="0" width="1022" height="600"/></clipPath><clipPath class="axesclip" id="clip6ff8d0y"><rect x="0" y="100" width="1200" height="414"/></clipPath><clipPath class="axesclip" id="clip6ff8d0xy"><rect x="98" y="100" width="1022" height="414"/></clipPath></g><g class="gradients"/><g class="patterns"/></defs><g class="bglayer"/><g class="layer-below"><g class="imagelayer"/><g class="shapelayer"/></g><g class="cartesianlayer"><g class="subplot xy"><g class="layer-subplot"><g class="shapelayer"/><g class="imagelayer"/></g><g class="minor-gridlayer"><g class="x"/><g class="y"/></g><g class="gridlayer"><g class="x"><path class="xgrid crisp" transform="translate(305.73,0)" d="M0,100v414" style="stroke: rgb(200, 200, 200); stroke-opacity: 1; stroke-width: 1px;"/><path class="xgrid crisp" transform="translate(457.37,0)" d="M0,100v414" style="stroke: rgb(200, 200, 200); stroke-opacity: 1; stroke-width: 1px;"/><path class="xgrid crisp" transform="translate(609,0)" d="M0,100v414" style="stroke: rgb(200, 200, 200); stroke-opacity: 1; stroke-width: 1px;"/><path class="xgrid crisp" transform="translate(760.63,0)" d="M0,100v414" style="stroke: rgb(200, 200, 200); stroke-opacity: 1; stroke-width: 1px;"/><path class="xgrid crisp" transform="translate(912.27,0)" d="M0,100v414" style="stroke: rgb(200, 200, 200); stroke-opacity: 1; stroke-width: 1px;"/><path class="xgrid crisp" transform="translate(1063.9,0)" d="M0,100v414" style="stroke: rgb(200, 200, 200); stroke-opacity: 1; stroke-width: 1px;"/></g><g class="y"><path class="ygrid crisp" transform="translate(0,395.92)" d="M98,0h1022" style="stroke: rgb(200, 200, 200); stroke-opacity: 1; stroke-width: 1px;"/><path class="ygrid crisp" transform="translate(0,335.26)" d="M98,0h1022" style="stroke: rgb(200, 200, 200); stroke-opacity: 1; stroke-width: 1px;"/><path class="ygrid crisp" transform="translate(0,274.61)" d="M98,0h1022" style="stroke: rgb(200, 200, 200); stroke-opacity: 1; stroke-width: 1px;"/><path class="ygrid crisp" transform="translate(0,213.95999999999998)" d="M98,0h1022" style="stroke: rgb(200, 200, 200); stroke-opacity: 1; stroke-width: 1px;"/><path class="ygrid crisp" transform="translate(0,153.3)" d="M98,0h1022" style="stroke: rgb(200, 200, 200); stroke-opacity: 1; stroke-width: 1px;"/></g></g><g class="zerolinelayer"><path class="xzl zl crisp" transform="translate(154.1,0)" d="M0,100v414" style="stroke: rgb(200, 200, 200); stroke-opacity: 1; stroke-width: 2px;"/><path class="yzl zl crisp" transform="translate(0,456.57)" d="M98,0h1022" style="stroke: rgb(200, 200, 200); stroke-opacity: 1; stroke-width: 2px;"/></g><g class="layer-between"><g class="shapelayer"/><g class="imagelayer"/></g><path class="xlines-below"/><path class="ylines-below"/><g class="overlines-below"/><g class="xaxislayer-below"/><g class="yaxislayer-below"/><g class="overaxes-below"/><g class="overplot"><g class="xy" transform="translate(98,100)" clip-path="url(#clip6ff8d0xyplot)"><g class="scatterlayer mlayer"><g class="trace scatter trace659673" style="stroke-miterlimit: 2; opacity: 1;"><g class="fills"/><g class="errorbars"/><g class="lines"><path class="js-line" d="M56.1,356.57L965.9,356.57" style="vector-effect: none; fill: none; stroke: rgb(0, 0, 0); stroke-opacity: 1; stroke-width: 2px; opacity: 1;"/></g><g class="points"/><g class="text"/></g><g class="trace scatter trace80734b" style="stroke-miterlimit: 2; opacity: 1;"><g class="fills"/><g class="errorbars"/><g class="lines"/><g class="points"><path class="point" transform="translate(56.1,356.57)" d="M4,0A4,4 0 1,1 0,-4A4,4 0 0,1 4,0Z" style="opacity: 1; stroke-width: 0px; fill: rgb(0, 0, 0); fill-opacity: 1;"/><path class="point" transform="translate(965.9,356.57)" d="M4,0A4,4 0 1,1 0,-4A4,4 0 0,1 4,0Z" style="opacity: 1; stroke-width: 0px; fill: rgb(0, 0, 0); fill-opacity: 1;"/></g><g class="text"/></g><g class="trace scatter trace9fb8d6" style="stroke-miterlimit: 2; opacity: 1;"><g class="fills"/><g class="errorbars"/><g class="lines"><path class="js-line" d="M56.1,53.3L86.53,82.73L89.57,85.56L120,112.82L123.04,115.44L153.47,140.62L156.51,143.04L189.98,168.45L193.03,170.66L226.5,193.78L229.54,195.78L259.97,214.9L263.01,216.73L296.48,235.77L299.52,237.41L333,254.48L336.04,255.94L369.51,271.15L372.55,272.45L406.02,285.9L409.07,287.04L442.54,298.84L445.58,299.84L482.09,310.97L485.14,311.82L521.65,321.26L524.69,321.98L564.25,330.48L567.29,331.07L606.85,337.93L609.89,338.4L652.49,344.17L655.53,344.53L701.18,349.1L704.22,349.35L752.9,352.68L755.95,352.84L813.76,355.15L816.8,355.24L886.79,356.37L889.83,356.39L965.9,356.57" style="vector-effect: none; fill: none; stroke: rgb(10, 119, 175); stroke-opacity: 1; stroke-width: 2px; opacity: 1;"/></g><g class="points"/><g class="text"/></g><g class="trace scatter trace5ef860" style="stroke-miterlimit: 2; opacity: 1;"><g class="fills"/><g class="errorbars"/><g class="lines"><path class="js-line" d="M56.1,53.3L72.54,84.75L75.31,89.75L92.01,118.44L94.81,123L111.75,149.05L114.6,153.19L131.77,176.75L134.65,180.48L152.03,201.67L154.94,205.02L172.52,223.98L175.47,226.96L193.23,243.82L196.21,246.46L214.14,261.35L217.14,263.67L238.26,278.75L241.28,280.73L262.58,293.54L265.63,295.22L287.09,305.98L290.16,307.37L311.75,316.27L314.84,317.41L336.55,324.64L339.66,325.57L364.57,332.06L367.69,332.77L392.7,337.67L395.83,338.2L427.15,342.55L430.28,342.9L467.89,346.25L471.02,346.46L521.04,349.27L524.16,349.42L607.97,352.73L611.06,352.83L700.39,354.99L703.46,355.05L828.86,356.35L831.91,356.37L965.9,356.57" style="vector-effect: none; fill: none; stroke: rgb(10, 136, 186); stroke-opacity: 1; stroke-width: 2px; opacity: 1;"/></g><g class="points"/><g class="text"/></g><g class="trace scatter tracebfe6f6" style="stroke-miterlimit: 2; opacity: 1;"><g class="fills"/><g class="errorbars"/><g class="lines"><path class="js-line" d="M56.1,53.3L66.13,81.16L68.24,86.49L79.22,111.98L81.5,116.86L93.36,140.11L95.81,144.55L108.47,165.68L111.07,169.7L124.46,188.84L127.21,192.47L141.26,209.72L144.13,212.98L158.77,228.46L161.75,231.39L179.99,247.83L183.08,250.39L201.93,264.71L205.12,266.93L224.46,279.33L227.72,281.25L247.45,291.92L250.76,293.56L274.09,304.1L277.44,305.47L304.32,315.39L307.68,316.51L334.52,324.6L337.86,325.51L371.01,333.69L374.3,334.41L406.87,340.86L410.1,341.43L445.36,346.78L448.54,347.19L486.41,351.27L489.54,351.54L533.11,354.44L536.2,354.58L585.4,356.11L588.46,356.17L673.79,356.57L676.83,356.57L965.9,356.57" style="vector-effect: none; fill: none; stroke: rgb(56, 151, 160); stroke-opacity: 1; stroke-width: 2px; opacity: 1;"/></g><g class="points"/><g class="text"/></g><g class="trace scatter trace6675c3" style="stroke-miterlimit: 2; opacity: 1;"><g class="fills"/><g class="errorbars"/><g class="lines"><path class="js-line" d="M56.1,53.3L62.5,76.33L64.25,81.91L71.81,103.49L73.84,108.71L84.76,133.77L87.09,138.57L99.45,161.61L102.05,166.02L115.65,187.11L118.49,191.13L133.17,210.35L136.2,214.02L151.78,231.45L154.98,234.76L171.28,250.48L174.6,253.45L191.46,267.53L194.87,270.19L215.56,285.07L219.04,287.37L239.96,300.19L243.45,302.17L264.31,313.06L267.76,314.72L291.68,325.19L295.06,326.53L318.43,334.83L321.74,335.87L344.63,342.26L347.87,343.05L373.54,348.33L376.71,348.88L401.93,352.39L405.06,352.73L433.02,355.02L436.11,355.2L472.92,356.39L475.97,356.43L564.25,356.57L567.29,356.57L965.9,356.57" style="vector-effect: none; fill: none; stroke: rgb(103, 166, 134); stroke-opacity: 1; stroke-width: 2px; opacity: 1;"/></g><g class="points"/><g class="text"/></g><g class="trace scatter trace38cdff" style="stroke-miterlimit: 2; opacity: 1;"><g class="fills"/><g class="errorbars"/><g class="lines"><path class="js-line" d="M56.1,53.3L61.6,76.81L63.19,82.57L70.38,105.12L72.37,110.64L81.07,132.2L83.42,137.45L93.45,157.95L96.11,162.94L110.22,187.03L113.19,191.68L128.69,214.01L131.91,218.29L148.48,238.76L151.88,242.66L169.21,261.17L172.72,264.67L190.47,281.13L194.04,284.21L211.87,298.52L215.43,301.15L233.04,313.21L236.52,315.39L253.7,325.21L257.09,326.97L273.86,334.77L277.18,336.14L296.85,343.19L300.09,344.18L319.33,349.11L322.51,349.77L341.4,352.96L344.53,353.36L366.23,355.4L369.31,355.59L399.93,356.51L402.97,356.53L521.65,356.57L524.69,356.57L965.9,356.57" style="vector-effect: none; fill: none; stroke: rgb(149, 181, 108); stroke-opacity: 1; stroke-width: 2px; opacity: 1;"/></g><g class="points"/><g class="text"/></g><g class="trace scatter trace0e9436" style="stroke-miterlimit: 2; opacity: 1;"><g class="fills"/><g class="errorbars"/><g class="lines"><path class="js-line" d="M56.1,53.3L60.9,77.16L62.36,83.07L69.17,106.41L71.1,112.16L79.68,134.8L82.02,140.36L92.12,162.14L94.81,167.46L106.19,188.21L109.17,193.25L124.78,217.49L128.03,222.14L144.75,244.26L148.17,248.45L165.56,268.14L169.07,271.81L186.69,288.75L190.2,291.84L207.64,305.77L211.09,308.26L228.23,319.33L231.63,321.29L248.51,329.86L251.86,331.35L268.48,337.78L271.78,338.87L291.44,344.28L294.7,345L314.08,348.47L317.29,348.92L342.78,351.54L345.94,351.78L392.93,354.32L396.03,354.44L451.48,355.86L454.54,355.91L555.11,356.5L558.15,356.5L807.67,356.57L810.72,356.57L965.9,356.57" style="vector-effect: none; fill: none; stroke: rgb(196, 196, 82); stroke-opacity: 1; stroke-width: 2px; opacity: 1;"/></g><g class="points"/><g class="text"/></g><g class="trace scatter trace8255fd" style="stroke-miterlimit: 2; opacity: 1;"><g class="fills"/><g class="errorbars"/><g class="lines"><path class="js-line" d="M56.1,53.3L60.05,77.32L61.32,83.27L67.45,106.78L69.23,112.58L77.27,135.4L79.49,140.99L89.17,162.89L91.77,168.23L102.82,189L105.73,194.03L117.88,213.45L121.03,218.12L134.01,235.99L137.34,240.25L150.89,256.35L154.32,260.13L168.17,274.26L171.65,277.53L185.61,289.62L189.11,292.4L206.65,304.96L210.16,307.22L227.71,317.33L231.21,319.12L248.7,327.11L252.19,328.51L272.98,335.79L276.42,336.83L296.87,342.15L300.24,342.9L326.8,347.91L330.07,348.42L358.99,352.06L362.15,352.37L393.42,354.59L396.51,354.74L436.36,355.88L439.41,355.92L521.64,356.53L524.69,356.54L965.9,356.57" style="vector-effect: none; fill: none; stroke: rgb(242, 211, 56); stroke-opacity: 1; stroke-width: 2px; opacity: 1;"/></g><g class="points"/><g class="text"/></g><g class="trace scatter tracea0481f" style="stroke-miterlimit: 2; opacity: 1;"><g class="fills"/><g class="errorbars"/><g class="lines"><path class="js-line" d="M56.1,53.3L59.52,77.4L60.67,83.37L66.35,107L68.03,112.83L75.7,135.76L77.85,141.39L87.25,163.39L89.8,168.75L100.66,189.59L103.54,194.63L115.6,214.07L118.74,218.73L131.73,236.54L135.08,240.76L148.73,256.7L152.21,260.44L166.32,274.44L169.9,277.71L184.34,289.89L187.98,292.72L206.29,305.64L209.97,307.98L228.34,318.6L232.01,320.51L250.22,329.06L253.83,330.58L275.15,338.46L278.63,339.58L299.09,345.27L302.43,346.06L325.33,350.45L328.54,350.94L353.79,353.75L356.9,353.99L387.65,355.47L390.71,355.55L451.65,356.45L454.7,356.47L707.26,356.57L710.3,356.57L965.9,356.57" style="vector-effect: none; fill: none; stroke: rgb(242, 197, 56); stroke-opacity: 1; stroke-width: 2px; opacity: 1;"/></g><g class="points"/><g class="text"/></g><g class="trace scatter trace69d147" style="stroke-miterlimit: 2; opacity: 1;"><g class="fills"/><g class="errorbars"/><g class="lines"><path class="js-line" d="M56.1,53.3L59.23,77.44L60.31,83.42L65.69,107.13L67.29,112.98L74.7,136.03L76.78,141.69L85.99,163.86L88.49,169.27L99.27,190.31L102.14,195.42L114.26,215.12L117.44,219.86L130.69,237.99L134.12,242.3L148.25,258.7L151.88,262.58L166.66,277.25L170.42,280.7L185.61,293.65L189.43,296.68L208.62,310.52L212.45,313.03L231.44,324.33L235.19,326.34L253.54,335.13L257.12,336.63L274.56,343.02L277.96,344.09L294.61,348.47L297.88,349.17L317.08,352.39L320.22,352.78L345,354.81L348.06,354.96L390.77,356.19L393.82,356.24L476.01,356.57L479.05,356.57L965.9,356.57" style="vector-effect: none; fill: none; stroke: rgb(242, 184, 56); stroke-opacity: 1; stroke-width: 2px; opacity: 1;"/></g><g class="points"/><g class="text"/></g><g class="trace scatter trace708d2c" style="stroke-miterlimit: 2; opacity: 1;"><g class="fills"/><g class="errorbars"/><g class="lines"><path class="js-line" d="M56.1,53.3L59.16,77.45L60.19,83.44L65.35,107.21L66.9,113.09L74.05,136.29L76.07,142L85.08,164.44L87.55,169.94L98.3,191.42L101.19,196.65L113.53,216.98L116.81,221.9L130.61,240.88L134.21,245.44L149.11,262.91L152.94,267.07L168.56,282.84L172.51,286.55L188.45,300.46L192.43,303.69L212.2,318.26L216.1,320.85L231.33,330.06L235.04,332.07L249.45,338.99L252.96,340.45L269.99,346.42L273.31,347.37L289.51,351.04L292.69,351.59L311.42,353.9L314.5,354.15L345.09,355.72L348.14,355.82L396.89,356.55L399.94,356.55L631.19,356.57L634.23,356.57L965.9,356.57" style="vector-effect: none; fill: none; stroke: rgb(242, 170, 56); stroke-opacity: 1; stroke-width: 2px; opacity: 1;"/></g><g class="points"/><g class="text"/></g><g class="trace scatter trace011810" style="stroke-miterlimit: 2; opacity: 1;"><g class="fills"/><g class="errorbars"/><g class="lines"><path class="js-line" d="M56.1,53.3L59.21,77.44L60.23,83.44L65.29,107.25L66.8,113.14L73.78,136.45L75.76,142.2L84.62,164.85L87.07,170.42L97.78,192.25L100.68,197.59L113.19,218.44L116.53,223.51L130.61,243.15L134.28,247.88L149.45,265.99L153.34,270.3L169.13,286.56L173.11,290.37L189.04,304.48L193,307.71L208.61,319.35L212.43,321.93L227.33,330.9L230.96,332.83L245.19,339.46L248.67,340.86L265.69,346.51L269.02,347.4L285.4,350.9L288.62,351.44L310.86,354.17L314,354.45L341.95,356.06L345.02,356.16L387.77,356.57L390.81,356.57L965.9,356.57" style="vector-effect: none; fill: none; stroke: rgb(242, 157, 56); stroke-opacity: 1; stroke-width: 2px; opacity: 1;"/></g><g class="points"/><g class="text"/></g><g class="trace scatter trace8022fc" style="stroke-miterlimit: 2; opacity: 1;"><g class="fills"/><g class="errorbars"/><g class="lines"><path class="js-line" d="M56.1,53.3L59.22,77.44L60.24,83.44L65.28,107.25L66.78,113.15L73.72,136.47L75.68,142.23L84.48,164.91L86.91,170.48L97.52,192.37L100.4,197.72L112.77,218.63L116.06,223.71L129.83,243.35L133.42,248.07L148.19,266.1L151.98,270.38L167.34,286.47L171.22,290.22L186.75,304.03L190.62,307.17L205.97,318.45L209.76,320.96L224.79,329.88L228.5,331.85L243.16,338.7L246.78,340.19L264.52,346.35L268,347.35L285.01,351.39L288.34,352.02L307.84,354.76L311.02,355.07L332.88,356.32L335.96,356.39L381.68,356.57L384.72,356.57L965.9,356.57" style="vector-effect: none; fill: none; stroke: rgb(242, 143, 56); stroke-opacity: 1; stroke-width: 2px; opacity: 1;"/></g><g class="points"/><g class="text"/></g><g class="trace scatter tracebc0c36" style="stroke-miterlimit: 2; opacity: 1;"><g class="fills"/><g class="errorbars"/><g class="lines"><path class="js-line" d="M56.1,53.3L59.2,77.44L60.22,83.44L65.21,107.26L66.7,113.16L73.56,136.51L75.51,142.27L84.21,164.99L86.61,170.58L97.12,192.53L99.96,197.9L112.14,218.86L115.36,223.95L128.9,243.63L132.42,248.36L146.99,266.42L150.73,270.71L166,286.86L169.88,290.63L185.54,304.57L189.48,307.77L205.24,319.43L209.17,322.07L224.79,331.54L228.65,333.64L243.86,341L247.58,342.58L262.13,347.9L265.66,348.98L282.73,353.07L286.03,353.65L302.14,355.62L305.29,355.86L326.9,356.55L329.95,356.57L965.9,356.57" style="vector-effect: none; fill: none; stroke: rgb(237, 120, 51); stroke-opacity: 1; stroke-width: 2px; opacity: 1;"/></g><g class="points"/><g class="text"/></g><g class="trace scatter trace0b43c0" style="stroke-miterlimit: 2; opacity: 1;"><g class="fills"/><g class="errorbars"/><g class="lines"><path class="js-line" d="M56.1,53.3L59.17,77.45L60.17,83.45L65.11,107.28L66.57,113.19L73.35,136.56L75.27,142.33L83.86,165.1L86.24,170.7L96.61,192.71L99.41,198.1L111.42,219.14L114.61,224.26L128.03,244.09L131.55,248.88L146.18,267.25L149.97,271.64L165.59,288.31L169.6,292.25L185.88,306.96L190,310.38L206.46,322.9L210.55,325.73L226.7,335.81L230.65,338L245.99,345.4L249.68,346.89L263.87,351.54L267.29,352.4L280.53,354.88L283.75,355.28L299.45,356.39L302.52,356.47L345.17,356.57L348.21,356.57L965.9,356.57" style="vector-effect: none; fill: none; stroke: rgb(232, 98, 46); stroke-opacity: 1; stroke-width: 2px; opacity: 1;"/></g><g class="points"/><g class="text"/></g><g class="trace scatter trace27a131" style="stroke-miterlimit: 2; opacity: 1;"><g class="fills"/><g class="errorbars"/><g class="lines"><path class="js-line" d="M56.1,53.3L59.14,77.45L60.13,83.46L65,107.3L66.45,113.21L73.13,136.61L75.02,142.39L83.49,165.21L85.83,170.82L96.05,192.91L98.82,198.33L110.72,219.55L113.9,224.74L127.41,244.97L130.98,249.9L146.01,269.01L149.95,273.63L166.33,291.42L170.55,295.66L187.66,311.56L191.96,315.24L209.01,328.56L213.2,331.51L229.44,341.57L233.33,343.62L244.52,348.64L248.11,349.96L261.86,353.78L265.17,354.42L277.99,356L281.11,356.2L302.56,356.55L305.6,356.55L965.9,356.57" style="vector-effect: none; fill: none; stroke: rgb(227, 75, 40); stroke-opacity: 1; stroke-width: 2px; opacity: 1;"/></g><g class="points"/><g class="text"/></g><g class="trace scatter trace1e69b0" style="stroke-miterlimit: 2; opacity: 1;"><g class="fills"/><g class="errorbars"/><g class="lines"><path class="js-line" d="M56.1,53.3L59.37,77.42L60.41,83.42L65.43,107.23L66.9,113.14L73.65,136.52L75.55,142.3L84,165.12L86.32,170.75L96.44,192.88L99.17,198.32L110.9,219.64L114.03,224.86L127.32,245.25L130.83,250.22L145.62,269.54L149.49,274.21L165.45,292.07L169.53,296.29L186.05,311.95L190.19,315.52L206.6,328.24L210.64,330.98L222.48,338.07L226.34,340.07L241.34,346.43L244.99,347.66L259.22,351.4L262.69,352.08L279.57,354.42L282.86,354.74L308.39,356.24L311.5,356.33L354.3,356.57L357.34,356.57L965.9,356.57" style="vector-effect: none; fill: none; stroke: rgb(222, 53, 35); stroke-opacity: 1; stroke-width: 2px; opacity: 1;"/></g><g class="points"/><g class="text"/></g><g class="trace scatter trace941df3" style="stroke-miterlimit: 2; opacity: 1;"><g class="fills"/><g class="errorbars"/><g class="lines"><path class="js-line" d="M56.1,53.3L59.51,77.4L60.58,83.39L65.68,107.19L67.16,113.1L73.92,136.47L75.82,142.26L84.22,165.1L86.52,170.73L96.53,192.92L99.23,198.37L110.79,219.78L113.88,225.03L126.95,245.56L130.4,250.57L144.9,270.03L148.67,274.72L164.22,292.51L168.19,296.68L184.33,312.05L188.39,315.52L200.6,324.93L204.65,327.72L216.73,335.03L220.73,337.14L236.44,344.15L240.3,345.58L255.35,350.13L259,351.02L276.53,354.24L279.89,354.67L299.27,356.22L302.4,356.34L339.08,356.57L342.12,356.57L965.9,356.57" style="vector-effect: none; fill: none; stroke: rgb(217, 30, 30); stroke-opacity: 1; stroke-width: 2px; opacity: 1;"/></g><g class="points"/><g class="text"/></g></g></g></g><path class="xlines-above crisp" d="M0,0" style="fill: none;"/><path class="ylines-above crisp" d="M0,0" style="fill: none;"/><g class="overlines-above"/><g class="xaxislayer-above"><g class="xtick"><text text-anchor="middle" x="0" y="543" transform="translate(154.1,0)" style="font-family: 'Open Sans', verdana, arial, sans-serif; font-size: 28px; fill: rgb(0, 0, 0); fill-opacity: 1; white-space: pre; opacity: 1;">0</text></g><g class="xtick"><text text-anchor="middle" x="0" y="543" style="font-family: 'Open Sans', verdana, arial, sans-serif; font-size: 28px; fill: rgb(0, 0, 0); fill-opacity: 1; white-space: pre; opacity: 1;" transform="translate(305.73,0)">0.5</text></g><g class="xtick"><text text-anchor="middle" x="0" y="543" style="font-family: 'Open Sans', verdana, arial, sans-serif; font-size: 28px; fill: rgb(0, 0, 0); fill-opacity: 1; white-space: pre; opacity: 1;" transform="translate(457.37,0)">1</text></g><g class="xtick"><text text-anchor="middle" x="0" y="543" style="font-family: 'Open Sans', verdana, arial, sans-serif; font-size: 28px; fill: rgb(0, 0, 0); fill-opacity: 1; white-space: pre; opacity: 1;" transform="translate(609,0)">1.5</text></g><g class="xtick"><text text-anchor="middle" x="0" y="543" style="font-family: 'Open Sans', verdana, arial, sans-serif; font-size: 28px; fill: rgb(0, 0, 0); fill-opacity: 1; white-space: pre; opacity: 1;" transform="translate(760.63,0)">2</text></g><g class="xtick"><text text-anchor="middle" x="0" y="543" style="font-family: 'Open Sans', verdana, arial, sans-serif; font-size: 28px; fill: rgb(0, 0, 0); fill-opacity: 1; white-space: pre; opacity: 1;" transform="translate(912.27,0)">2.5</text></g><g class="xtick"><text text-anchor="middle" x="0" y="543" style="font-family: 'Open Sans', verdana, arial, sans-serif; font-size: 28px; fill: rgb(0, 0, 0); fill-opacity: 1; white-space: pre; opacity: 1;" transform="translate(1063.9,0)">3</text></g></g><g class="yaxislayer-above"><g class="ytick"><text text-anchor="end" x="97" y="9.799999999999999" transform="translate(0,456.57)" style="font-family: 'Open Sans', verdana, arial, sans-serif; font-size: 28px; fill: rgb(0, 0, 0); fill-opacity: 1; white-space: pre; opacity: 1;">0</text></g><g class="ytick"><text text-anchor="end" x="97" y="9.799999999999999" style="font-family: 'Open Sans', verdana, arial, sans-serif; font-size: 28px; fill: rgb(0, 0, 0); fill-opacity: 1; white-space: pre; opacity: 1;" transform="translate(0,395.92)">0.2</text></g><g class="ytick"><text text-anchor="end" x="97" y="9.799999999999999" style="font-family: 'Open Sans', verdana, arial, sans-serif; font-size: 28px; fill: rgb(0, 0, 0); fill-opacity: 1; white-space: pre; opacity: 1;" transform="translate(0,335.26)">0.4</text></g><g class="ytick"><text text-anchor="end" x="97" y="9.799999999999999" style="font-family: 'Open Sans', verdana, arial, sans-serif; font-size: 28px; fill: rgb(0, 0, 0); fill-opacity: 1; white-space: pre; opacity: 1;" transform="translate(0,274.61)">0.6</text></g><g class="ytick"><text text-anchor="end" x="97" y="9.799999999999999" style="font-family: 'Open Sans', verdana, arial, sans-serif; font-size: 28px; fill: rgb(0, 0, 0); fill-opacity: 1; white-space: pre; opacity: 1;" transform="translate(0,213.95999999999998)">0.8</text></g><g class="ytick"><text text-anchor="end" x="97" y="9.799999999999999" style="font-family: 'Open Sans', verdana, arial, sans-serif; font-size: 28px; fill: rgb(0, 0, 0); fill-opacity: 1; white-space: pre; opacity: 1;" transform="translate(0,153.3)">1</text></g></g><g class="overaxes-above"/></g></g><g class="polarlayer"/><g class="smithlayer"/><g class="ternarylayer"/><g class="geolayer"/><g class="funnelarealayer"/><g class="pielayer"/><g class="iciclelayer"/><g class="treemaplayer"/><g class="sunburstlayer"/><g class="glimages"/><defs id="topdefs-6ff8d0"><g class="clips"/><clipPath id="legend6ff8d0"><rect width="185" height="211" x="2" y="2"/></clipPath></defs><g class="layer-above"><g class="imagelayer"/><g class="shapelayer"/></g><g class="infolayer"><g class="legend" pointer-events="all" transform="translate(920.78,91.72)"><rect class="bg" shape-rendering="crispEdges" style="stroke: rgb(0, 0, 0); stroke-opacity: 1; fill: rgb(255, 255, 255); fill-opacity: 1; stroke-width: 2px;" width="187" height="213" x="1" y="1"/><g class="scrollbox" transform="" clip-path="url(#legend6ff8d0)"><g class="groups" transform=""><g class="traces" transform="translate(2,28.650000000000002)" style="opacity: 1;"><text class="legendtext" text-anchor="start" x="5" y="12.090000000000002" style="font-family: 'Open Sans', verdana, arial, sans-serif; font-size: 31px; fill: rgb(0, 0, 0); fill-opacity: 1; white-space: pre;">Trajectory</text><g class="layers"><g class="legendfill"/><g class="legendlines"/><g class="legendsymbols"><g class="legendpoints"/></g></g><rect class="legendtoggle" x="0" y="-21.650000000000002" width="179.609375" height="43.300000000000004" style="fill: rgb(0, 0, 0); fill-opacity: 0;"/></g><g class="traces" transform="translate(2,70)" style="opacity: 1;"><text class="legendtext" text-anchor="start" x="40" y="10.92" style="font-family: 'Open Sans', verdana, arial, sans-serif; font-size: 28px; fill: rgb(0, 0, 0); fill-opacity: 1; white-space: pre;">Reference</text><g class="layers" style="opacity: 1;"><g class="legendfill"/><g class="legendlines"><path class="js-line" d="M5,0h30" style="fill: none; stroke: rgb(0, 0, 0); stroke-opacity: 1; stroke-width: 2px;"/></g><g class="legendsymbols"><g class="legendpoints"/></g></g><rect class="legendtoggle" x="0" y="-19.7" width="179.609375" height="39.4" style="fill: rgb(0, 0, 0); fill-opacity: 0;"/></g><g class="traces" transform="translate(2,109.4)" style="opacity: 1;"><text class="legendtext" text-anchor="start" x="40" y="10.92" style="font-family: 'Open Sans', verdana, arial, sans-serif; font-size: 28px; fill: rgb(0, 0, 0); fill-opacity: 1; white-space: pre;">N = 4</text><g class="layers" style="opacity: 1;"><g class="legendfill"/><g class="legendlines"><path class="js-line" d="M5,0h30" style="fill: none; stroke: rgb(10, 119, 175); stroke-opacity: 1; stroke-width: 2px;"/></g><g class="legendsymbols"><g class="legendpoints"/></g></g><rect class="legendtoggle" x="0" y="-19.7" width="179.609375" height="39.4" style="fill: rgb(0, 0, 0); fill-opacity: 0;"/></g><g class="traces" transform="translate(2,148.79999999999998)" style="opacity: 1;"><text class="legendtext" text-anchor="start" x="40" y="10.92" style="font-family: 'Open Sans', verdana, arial, sans-serif; font-size: 28px; fill: rgb(0, 0, 0); fill-opacity: 1; white-space: pre;">N = 10</text><g class="layers" style="opacity: 1;"><g class="legendfill"/><g class="legendlines"><path class="js-line" d="M5,0h30" style="fill: none; stroke: rgb(242, 211, 56); stroke-opacity: 1; stroke-width: 2px;"/></g><g class="legendsymbols"><g class="legendpoints"/></g></g><rect class="legendtoggle" x="0" y="-19.7" width="179.609375" height="39.4" style="fill: rgb(0, 0, 0); fill-opacity: 0;"/></g><g class="traces" transform="translate(2,188.2)" style="opacity: 1;"><text class="legendtext" text-anchor="start" x="40" y="10.92" style="font-family: 'Open Sans', verdana, arial, sans-serif; font-size: 28px; fill: rgb(0, 0, 0); fill-opacity: 1; white-space: pre;">N = 20</text><g class="layers" style="opacity: 1;"><g class="legendfill"/><g class="legendlines"><path class="js-line" d="M5,0h30" style="fill: none; stroke: rgb(217, 30, 30); stroke-opacity: 1; stroke-width: 2px;"/></g><g class="legendsymbols"><g class="legendpoints"/></g></g><rect class="legendtoggle" x="0" y="-19.7" width="179.609375" height="39.4" style="fill: rgb(0, 0, 0); fill-opacity: 0;"/></g></g></g><rect class="scrollbar" rx="20" ry="3" width="0" height="0" style="fill: rgb(128, 139, 164); fill-opacity: 1;" x="0" y="0"/></g><g class="g-gtitle"/><g class="g-xtitle"><text class="xtitle" x="609" y="587.3" text-anchor="middle" style="opacity: 1; font-family: 'Open Sans', verdana, arial, sans-serif; font-size: 34px; fill: rgb(0, 0, 0); fill-opacity: 1; white-space: pre;">East [m]</text></g><g class="g-ytitle" transform="translate(9.197265625,0)"><text class="ytitle" transform="rotate(-90,24.803124999999994,307)" x="24.803124999999994" y="307" text-anchor="middle" style="opacity: 1; font-family: 'Open Sans', verdana, arial, sans-serif; font-size: 34px; fill: rgb(0, 0, 0); fill-opacity: 1; white-space: pre;">North [m]</text></g></g></svg>