<svg class="main-svg" xmlns="http://www.w3.org/2000/svg" xmlns:xlink="http://www.w3.org/1999/xlink" width="1200" height="600" style="" viewBox="0 0 1200 600"><rect x="0" y="0" width="1200" height="600" style="fill: rgb(255, 255, 255); fill-opacity: 1;"/><defs id="defs-e7c3de"><g class="clips"><clipPath id="clipe7c3dexyplot" class="plotclip"><rect width="999" height="414"/></clipPath><clipPath class="axesclip" id="clipe7c3dex"><rect x="121" y="0" width="999" height="600"/></clipPath><clipPath class="axesclip" id="clipe7c3dey"><rect x="0" y="100" width="1200" height="414"/></clipPath><clipPath class="axesclip" id="clipe7c3dexy"><rect x="121" y="100" width="999" height="414"/></clipPath></g><g class="gradients"/><g class="patterns"/></defs><g class="bglayer"/><g class="layer-below"><g class="imagelayer"/><g class="shapelayer"/></g><g class="cartesianlayer"><g class="subplot xy"><g class="layer-subplot"><g class="shapelayer"/><g class="imagelayer"/></g><g class="minor-gridlayer"><g class="x"/><g class="y"/></g><g class="gridlayer"><g class="x"><path class="xgrid crisp" transform="translate(324.13,0)" d="M0,100v414" style="stroke: rgb(200, 200, 200); stroke-opacity: 1; stroke-width: 1px;"/><path class="xgrid crisp" transform="translate(472.32,0)" d="M0,100v414" style="stroke: rgb(200, 200, 200); stroke-opacity: 1; stroke-width: 1px;"/><path class="xgrid crisp" transform="translate(620.5,0)" d="M0,100v414" style="stroke: rgb(200, 200, 200); stroke-opacity: 1; stroke-width: 1px;"/><path class="xgrid crisp" transform="translate(768.68,0)" d="M0,100v414" style="stroke: rgb(200, 200, 200); stroke-opacity: 1; stroke-width: 1px;"/><path class="xgrid crisp" transform="translate(916.87,0)" d="M0,100v414" style="stroke: rgb(200, 200, 200); stroke-opacity: 1; stroke-width: 1px;"/><path class="xgrid crisp" transform="translate(1065.05,0)" d="M0,100v414" style="stroke: rgb(200, 200, 200); stroke-opacity: 1; stroke-width: 1px;"/></g><g class="y"><path class="ygrid crisp" transform="translate(0,498.18)" d="M121,0h999" style="stroke: rgb(200, 200, 200); stroke-opacity: 1; stroke-width: 1px;"/><path class="ygrid crisp" transform="translate(0,379.64)" d="M121,0h999" style="stroke: rgb(200, 200, 200); stroke-opacity: 1; stroke-width: 1px;"/><path class="ygrid crisp" transform="translate(0,320.36)" d="M121,0h999" style="stroke: rgb(200, 200, 200); stroke-opacity: 1; stroke-width: 1px;"/><path class="ygrid crisp" transform="translate(0,261.09000000000003)" d="M121,0h999" style="stroke: rgb(200, 200, 200); stroke-opacity: 1; stroke-width: 1px;"/><path class="ygrid crisp" transform="translate(0,201.82)" d="M121,0h999" style="stroke: rgb(200, 200, 200); stroke-opacity: 1; stroke-width: 1px;"/><path class="ygrid crisp" transform="translate(0,142.54)" d="M121,0h999" style="stroke: rgb(200, 200, 200); stroke-opacity: 1; stroke-width: 1px;"/></g></g><g class="zerolinelayer"><path class="xzl zl crisp" transform="translate(175.95,0)" d="M0,100v414" style="stroke: rgb(200, 200, 200); stroke-opacity: 1; stroke-width: 2px;"/><path class="yzl zl crisp" transform="translate(0,438.91)" d="M121,0h999" style="stroke: rgb(200, 200, 200); stroke-opacity: 1; stroke-width: 2px;"/></g><g class="layer-between"><g class="shapelayer"/><g class="imagelayer"/></g><path class="xlines-below"/><path class="ylines-below"/><g class="overlines-below"/><g class="xaxislayer-below"/><g class="yaxislayer-below"/><g class="overaxes-below"/><g class="overplot"><g class="xy" transform="translate(121,100)" clip-path="url(#clipe7c3dexyplot)"><g class="scatterlayer mlayer"><g class="trace scatter trace8ca6f3" style="stroke-miterlimit: 2; opacity: 1;"><g class="fills"/><g class="errorbars"/><g class="lines"><path class="js-line" d="M54.95,338.91L944.05,338.91" style="vector-effect: none; fill: none; stroke: rgb(0, 0, 0); stroke-opacity: 1; stroke-width: 2px; opacity: 1;"/></g><g class="points"/><g class="text"/></g><g class="trace scatter tracec0f144" style="stroke-miterlimit: 2; opacity: 1;"><g class="fills"/><g class="errorbars"/><g class="lines"/><g class="points"><path class="point" transform="translate(54.95,338.91)" d="M4,0A4,4 0 1,1 0,-4A4,4 0 0,1 4,0Z" style="opacity: 1; stroke-width: 0px; fill: rgb(0, 0, 0); fill-opacity: 1;"/><path class="point" transform="translate(944.05,338.91)" d="M4,0A4,4 0 1,1 0,-4A4,4 0 0,1 4,0Z" style="opacity: 1; stroke-width: 0px; fill: rgb(0, 0, 0); fill-opacity: 1;"/></g><g class="text"/></g><g class="trace scatter trace5a7484" style="stroke-miterlimit: 2; opacity: 1;"><g class="fills"/><g class="errorbars"/><g class="lines"><path class="js-line" d="M54.95,42.54L70.78,79.72L73.1,84.79L89.75,118.67L92.18,123.29L107.06,149.8L109.59,154.02L125.02,178.26L127.63,182.12L143.57,204.18L146.27,207.68L162.69,227.65L165.46,230.82L182.33,248.8L185.17,251.63L202.45,267.71L205.37,270.24L223.03,284.5L226.01,286.74L244.02,299.29L247.05,301.24L268.48,313.85L271.56,315.5L293.36,326.09L296.5,327.46L318.63,336.16L321.82,337.27L344.23,344.22L347.45,345.09L370.1,350.43L373.35,351.08L399.46,355.41L402.73,355.84L432.31,358.71L435.6,358.92L465.28,359.96L468.59,359.99L501.59,359.36L504.89,359.21L541.06,356.79L544.34,356.51L589.93,351.6L593.16,351.2L653.67,342.96L656.8,342.52L723.97,333.57L726.93,333.24L761.8,329.9L764.64,329.69L795.24,328.3L797.96,328.26L821.89,328.68L824.49,328.82L847.32,330.96L849.79,331.3L869.06,334.89L871.41,335.44L887.43,340.06L889.65,340.83L904.82,346.99L906.92,347.99L919.19,354.61L921.18,355.83" style="vector-effect: none; fill: none; stroke: rgb(10, 119, 175); stroke-opacity: 1; stroke-width: 2px; opacity: 1;"/></g><g class="points"/><g class="text"/></g><g class="trace scatter trace72a9c0" style="stroke-miterlimit: 2; opacity: 1;"><g class="fills"/><g class="errorbars"/><g class="lines"><path class="js-line" d="M54.95,42.54L63.45,70.36L65.26,75.73L74.85,101.64L76.87,106.63L87.48,130.68L89.7,135.32L101.26,157.58L103.67,161.86L116.11,182.41L118.68,186.35L131.94,205.23L134.67,208.85L148.67,226.13L151.54,229.44L169.23,248.19L172.25,251.14L190.77,267.85L193.92,270.47L213.17,285.23L216.43,287.54L236.29,300.46L239.65,302.47L260.02,313.65L263.45,315.38L284.21,324.93L287.69,326.39L312.26,335.63L315.79,336.81L340.56,344.16L344.11,345.08L368.91,350.71L372.45,351.39L400.63,355.92L404.13,356.37L431.9,359.1L435.33,359.34L465.77,360.56L469.09,360.6L498.35,360.17L501.53,360.04L532.3,358.03L535.29,357.76L569.96,353.77L572.76,353.38L613.67,346.93L616.33,346.47L700.3,332.57L702.95,332.22L735.22,328.78L737.96,328.57L765.97,327.19L768.83,327.14L795.27,327.41L798.29,327.53L826.22,329.55L829.42,329.88L855.76,333.37L859.16,333.91L887.15,339.22L890.77,340.01L920.65,347.35L924.51,348.41L956.48,357.98L960.62,359.33" style="vector-effect: none; fill: none; stroke: rgb(10, 136, 186); stroke-opacity: 1; stroke-width: 2px; opacity: 1;"/></g><g class="points"/><g class="text"/></g><g class="trace scatter trace987dd9" style="stroke-miterlimit: 2; opacity: 1;"><g class="fills"/><g class="errorbars"/><g class="lines"><path class="js-line" d="M54.95,42.54L60.2,65.46L61.68,71.07L70.02,98.33L71.87,103.64L81.98,129.39L84.17,134.39L95.88,158.62L98.37,163.32L111.52,186.02L114.28,190.41L128.69,211.57L131.69,215.65L147.19,235.27L150.39,239.03L166.81,257.09L170.18,260.55L187.36,277.05L190.86,280.19L208.63,295.11L212.23,297.94L230.41,311.28L234.07,313.79L256.19,327.74L259.89,329.88L282.08,341.58L285.77,343.34L307.74,352.8L311.37,354.18L332.85,361.37L336.38,362.37L353.7,366.59L357.09,367.27L376.97,370.24L380.2,370.55L399.12,371.46L402.2,371.45L420.31,370.59L423.26,370.32L443.52,367.48L446.35,366.96L468.6,361.87L471.34,361.14L498.23,353L500.89,352.13L566.85,330.43L569.52,329.69L591.16,324.46L593.91,323.92L613.42,320.91L616.26,320.61L633.58,319.57L636.52,319.53L654.51,320.19L657.56,320.43L679.29,323.07L682.45,323.56L711.18,328.94L714.41,329.62L798.44,347.32L801.61,347.83L823.53,350.65L826.61,350.93L844.81,351.79L847.78,351.79L865.27,350.79L868.12,350.44L882.03,347.87L884.75,347.18L897.95,342.75L900.52,341.66L910.5,336.59L912.92,335.14L922.32,328.54L924.59,326.68L933.34,318.41L935.45,316.12" style="vector-effect: none; fill: none; stroke: rgb(56, 151, 160); stroke-opacity: 1; stroke-width: 2px; opacity: 1;"/></g><g class="points"/><g class="text"/></g><g class="trace scatter trace9d52ef" style="stroke-miterlimit: 2; opacity: 1;"><g class="fills"/><g class="errorbars"/><g class="lines"><path class="js-line" d="M54.95,42.54L59.64,65.86L61.03,71.64L67.39,94.55L69.17,100.21L77.04,122.59L79.18,128.11L90.87,155.19L93.4,160.49L106.86,186.39L109.7,191.44L124.65,215.96L127.77,220.71L143.94,243.63L147.28,248.05L164.39,269.17L167.88,273.19L185.67,292.3L189.27,295.91L207.45,312.79L211.1,315.93L229.4,330.38L233.06,333.02L251.21,344.83L254.8,346.91L269.02,354.28L272.53,355.87L286.32,361.24L289.71,362.34L303.06,365.81L306.35,366.46L319.3,368.25L322.5,368.51L338.2,368.73L341.29,368.57L356.53,366.94L359.54,366.46L377.33,362.6L380.26,361.82L400.5,355.52L403.36,354.53L440.13,340.77L442.94,339.71L468.27,331.01L471.09,330.16L488.13,325.83L490.99,325.25L508.3,322.8L511.21,322.56L528.81,322.06L531.76,322.11L552.6,323.49L555.59,323.81L579.7,327.26L582.73,327.78L619.24,334.97L622.29,335.6L668.03,344.51L671.07,345L695.29,348.13L698.31,348.41L719.28,349.39L722.26,349.38L740.03,348.54L742.98,348.28L766.43,345.29L769.35,344.83L839.34,333.47L842.28,333.17L862.94,331.97L865.91,331.95L883.84,332.76L886.85,333.07L902,335.47L905.05,336.13L920.44,340.43L923.54,341.5L939.19,348.02L942.35,349.57L945.52,351.2" style="vector-effect: none; fill: none; stroke: rgb(103, 166, 134); stroke-opacity: 1; stroke-width: 2px; opacity: 1;"/></g><g class="points"/><g class="text"/></g><g class="trace scatter tracebdaca0" style="stroke-miterlimit: 2; opacity: 1;"><g class="fills"/><g class="errorbars"/><g class="lines"><path class="js-line" d="M54.95,42.54L58.34,66.08L59.43,71.93L64.72,95.1L66.27,100.83L73.29,123.46L75.24,129.04L83.81,150.97L86.12,156.36L98.69,182.58L101.39,187.67L115.68,212.31L118.69,217.06L134.39,239.81L137.65,244.16L154.42,264.74L157.87,268.62L171.86,283.3L175.4,286.75L189.72,299.61L193.33,302.59L207.79,313.49L211.41,315.95L225.86,324.74L229.46,326.68L243.81,333.45L247.38,334.91L265.16,340.93L268.7,341.88L286.27,345.59L289.76,346.12L307.09,347.9L310.53,348.09L330.97,348.26L334.34,348.15L357.61,346.49L360.89,346.15L402.31,340.99L405.4,340.6L435.42,337.67L438.35,337.48L466.99,336.41L469.81,336.38L503.15,336.77L505.91,336.85L614.02,340.2L617.04,340.2L675.51,339.49L678.62,339.43L770.42,338.1L773.36,338.11L842.51,339.09L845.38,339.14L904.58,339.28L907.67,339.23L946.17,337.94" style="vector-effect: none; fill: none; stroke: rgb(149, 181, 108); stroke-opacity: 1; stroke-width: 2px; opacity: 1;"/></g><g class="points"/><g class="text"/></g><g class="trace scatter trace85ab96" style="stroke-miterlimit: 2; opacity: 1;"><g class="fills"/><g class="errorbars"/><g class="lines"><path class="js-line" d="M54.95,42.54L57.61,66.18L58.54,72.05L63.23,95.35L64.64,101.11L71.19,123.88L73.04,129.49L81.26,151.54L83.51,156.94L93.22,178.08L95.82,183.24L106.85,203.28L109.75,208.14L121.92,226.89L125.09,231.4L138.21,248.68L141.6,252.8L155.51,268.41L159.06,272.08L173.57,285.83L177.26,289.02L192.19,300.76L195.97,303.45L211.2,313.28L215.03,315.51L230.43,323.57L234.29,325.38L253.59,333.26L257.44,334.61L276.58,340.36L280.38,341.32L299.14,345.21L302.84,345.82L324.55,348.45L328.07,348.73L351.86,349.64L355.12,349.64L379.74,348.68L382.66,348.46L407.65,345.77L410.31,345.41L482.71,335.35L485.42,335.14L507.98,334.22L510.91,334.2L541.28,334.96L544.41,335.11L595.51,338.42L598.73,338.64L646.16,341.21L649.23,341.29L679.06,341.35L681.97,341.29L727.57,339.45L730.39,339.31L781.86,337.41L784.8,337.37L817.94,337.78L821.02,337.88L903.45,339.86L906.36,339.8L931.55,338.35L934.22,338.08L942.07,337.08" style="vector-effect: none; fill: none; stroke: rgb(196, 196, 82); stroke-opacity: 1; stroke-width: 2px; opacity: 1;"/></g><g class="points"/><g class="text"/></g><g class="trace scatter trace12c0c2" style="stroke-miterlimit: 2; opacity: 1;"><g class="fills"/><g class="errorbars"/><g class="lines"><path class="js-line" d="M54.95,42.54L57.34,66.21L58.2,72.09L62.59,95.45L63.93,101.24L70.2,124.11L71.99,129.75L80,151.96L82.21,157.42L91.84,178.78L94.43,184L105.54,204.33L108.49,209.27L120.95,228.39L124.22,233L137.9,250.73L141.47,254.98L156.24,271.13L160.06,274.96L175.73,289.43L179.74,292.83L196.04,305.58L200.17,308.56L216.8,319.58L220.98,322.12L237.67,331.41L241.83,333.51L262.35,342.71L266.39,344.28L286.06,350.81L289.88,351.85L304.63,355.11L308.18,355.69L321.74,357.14L324.96,357.28L337.2,357.01L340.11,356.76L353.93,354.56L356.57,353.95L371.69,349.51L374.12,348.67L414.82,334.17L417.33,333.52L430.4,330.99L433.13,330.66L447.39,329.87L450.35,329.88L468.76,330.8L471.91,331.08L501.1,334.74L504.4,335.22L556.82,342.38L559.99,342.67L581.53,343.73L584.52,343.75L607.82,343.01L610.67,342.82L644.31,339.77L647.09,339.49L683.79,336.59L686.68,336.47L710.35,336.28L713.36,336.34L753.18,338.07L756.27,338.24L805.33,340.45L808.34,340.51L837.8,340.11L840.7,339.99L904.68,337.85L907.69,337.9L929.26,339.03L932.43,339.32L945.35,340.84" style="vector-effect: none; fill: none; stroke: rgb(242, 211, 56); stroke-opacity: 1; stroke-width: 2px; opacity: 1;"/></g><g class="points"/><g class="text"/></g><g class="trace scatter traceae6346" style="stroke-miterlimit: 2; opacity: 1;"><g class="fills"/><g class="errorbars"/><g class="lines"><path class="js-line" d="M54.95,42.54L57.7,66.17L58.61,72.05L63.12,95.4L64.46,101.19L70.71,124.13L72.48,129.8L80.42,152.2L82.61,157.72L92.21,179.45L94.81,184.78L106.04,205.69L109.05,210.81L121.87,230.78L125.27,235.64L139.64,254.53L143.42,259.1L159.14,276.71L163.2,280.93L179.84,296.99L184.07,300.79L201.19,315.03L205.49,318.34L222.65,330.48L226.91,333.23L243.67,343L247.77,345.12L263.7,352.24L267.55,353.66L282.21,357.85L285.68,358.51L295.59,359.57L298.74,359.63L310.66,358.65L313.48,358.13L324.3,355.16L326.9,354.23L341.86,347.59L344.28,346.37L368.53,334.66L371.03,333.68L381.37,330.5L384.05,329.91L395.23,328.52L398.12,328.39L413.14,328.85L416.23,329.14L435.27,331.84L438.51,332.42L496.95,343.16L500.09,343.51L518.41,344.54L521.39,344.55L541.79,343.61L544.65,343.36L575.68,339.68L578.49,339.32L606.91,336.43L609.8,336.26L633.44,335.92L636.44,335.98L672.96,337.82L676.02,338.02L724.75,340.53L727.74,340.58L757.31,340.23L760.24,340.13L836.54,337.89L839.53,337.93L923.39,339.25L926.3,339.11L943.48,337.69" style="vector-effect: none; fill: none; stroke: rgb(242, 197, 56); stroke-opacity: 1; stroke-width: 2px; opacity: 1;"/></g><g class="points"/><g class="text"/></g><g class="trace scatter trace2645bc" style="stroke-miterlimit: 2; opacity: 1;"><g class="fills"/><g class="errorbars"/><g class="lines"><path class="js-line" d="M54.95,42.54L58.47,66.07L59.54,71.92L64.62,95.15L66.08,100.92L72.69,123.76L74.53,129.41L82.65,151.76L84.87,157.28L94.47,179.02L97.05,184.37L108.1,205.41L111.04,210.57L123.52,230.8L126.82,235.74L140.6,254.96L144.18,259.6L158.96,277.42L162.74,281.67L178.17,297.69L182.08,301.43L197.82,315.25L201.77,318.39L217.5,329.6L221.41,332.04L236.79,340.23L240.57,341.86L251.66,345.73L255.28,346.67L265.92,348.58L269.4,348.94L282.97,349.14L286.29,348.93L299.28,347.25L302.47,346.66L321.13,342.29L324.18,341.49L348.06,335.79L351,335.27L365.61,333.75L368.52,333.64L385.91,334.05L388.8,334.27L411.92,336.9L414.82,337.29L446.88,341.07L449.83,341.28L470.62,341.78L473.61,341.74L500.67,340.54L503.69,340.34L557.81,337.41L560.79,337.38L593.39,337.85L596.35,337.95L667.33,339.75L670.3,339.73L801.33,338.83L804.3,338.87L869.68,339.03L872.66,339L938.07,339.06L941.02,339.15L943.97,339.25" style="vector-effect: none; fill: none; stroke: rgb(242, 184, 56); stroke-opacity: 1; stroke-width: 2px; opacity: 1;"/></g><g class="points"/><g class="text"/></g><g class="trace scatter traceb6565e" style="stroke-miterlimit: 2; opacity: 1;"><g class="fills"/><g class="errorbars"/><g class="lines"><path class="js-line" d="M54.95,42.54L59.96,71.85L61.17,77.67L68.29,106.54L69.93,112.25L79.13,140.52L81.17,146.1L92.41,173.62L94.86,179.03L108.1,205.64L110.95,210.86L122.96,231.33L126.11,236.32L139.24,255.64L142.65,260.29L156.7,277.99L160.32,282.17L175.09,297.78L178.86,301.37L194.16,314.42L198.04,317.32L209.74,325.07L213.66,327.32L225.46,333.05L229.39,334.62L241.19,338.44L245.11,339.44L260.65,342.19L264.5,342.61L279.64,343.39L283.36,343.4L304.91,342.38L308.35,342.09L353.84,338.73L356.53,338.64L390.34,338.49L392.97,338.52L492.99,338.95L496.1,338.94L944.22,338.91" style="vector-effect: none; fill: none; stroke: rgb(242, 170, 56); stroke-opacity: 1; stroke-width: 2px; opacity: 1;"/></g><g class="points"/><g class="text"/></g><g class="trace scatter trace701822" style="stroke-miterlimit: 2; opacity: 1;"><g class="fills"/><g class="errorbars"/><g class="lines"><path class="js-line" d="M54.95,42.54L60.09,71.83L61.32,77.65L68.42,106.52L70.04,112.24L79.07,140.56L81.06,146.17L91.99,173.81L94.36,179.26L107.14,206.1L109.88,211.36L121.45,231.95L124.49,236.95L137.23,256.25L140.56,260.88L154.43,278.42L158.04,282.54L173.01,297.85L176.89,301.36L188.84,311.04L192.93,313.97L205.48,321.82L209.75,324.14L222.68,330.24L227.03,332.01L244.38,337.82L248.68,338.98L265.58,342.57L269.69,343.22L289.28,345.22L292.96,345.4L309.85,345.35L312.91,345.18L329.42,343.38L331.94,342.99L370.12,336.65L372.73,336.44L389.8,336.07L392.85,336.14L421.88,337.75L425.2,337.99L467.41,340.35L470.45,340.4L496.58,339.95L499.39,339.84L553.33,338.11L556.31,338.11L679.42,338.93L682.34,338.89L741.67,338.79L744.67,338.81L857.7,338.83L860.67,338.83L943.91,338.82" style="vector-effect: none; fill: none; stroke: rgb(242, 157, 56); stroke-opacity: 1; stroke-width: 2px; opacity: 1;"/></g><g class="points"/><g class="text"/></g><g class="trace scatter trace38321b" style="stroke-miterlimit: 2; opacity: 1;"><g class="fills"/><g class="errorbars"/><g class="lines"><path class="js-line" d="M54.95,42.54L60.09,71.83L61.3,77.65L68.27,106.55L69.85,112.29L78.64,140.69L80.58,146.31L91.15,174.1L93.44,179.58L105.8,206.6L108.45,211.89L119.77,232.57L122.77,237.59L135.55,257L138.94,261.66L153.34,279.4L157.15,283.59L169.14,295.51L173.32,299.26L186.42,309.76L190.95,313L204.86,321.97L209.58,324.7L228.53,334.29L233.24,336.34L251.62,343.19L256.06,344.55L272.8,348.56L276.69,349.19L287.47,350.21L290.74,350.26L302.36,349.15L304.96,348.61L314.45,345.7L316.65,344.83L340.36,335.43L342.75,334.86L353.29,333.55L356.16,333.47L371.67,334.23L374.95,334.57L405.69,338.81L409.12,339.29L432.13,341.59L435.22,341.71L452.81,341.43L455.62,341.25L508.47,337.38L511.44,337.38L538.93,338.15L542.04,338.29L585.02,339.73L587.99,339.73L631.76,338.84L634.67,338.77L679.1,338.59L682.11,338.63L762.75,339L765.7,338.98L872.76,338.99L875.73,338.99L944.14,339.01" style="vector-effect: none; fill: none; stroke: rgb(242, 143, 56); stroke-opacity: 1; stroke-width: 2px; opacity: 1;"/></g><g class="points"/><g class="text"/></g><g class="trace scatter trace5e616b" style="stroke-miterlimit: 2; opacity: 1;"><g class="fills"/><g class="errorbars"/><g class="lines"><path class="js-line" d="M54.95,42.54L60.13,71.82L61.35,77.64L68.38,106.53L69.97,112.26L78.81,140.65L80.76,146.27L91.39,174.03L93.7,179.51L103.54,201.14L106.17,206.46L117.4,227.3L120.4,232.38L133.21,252.15L136.63,256.94L151.21,275.36L155.09,279.77L167.34,292.5L171.62,296.57L184.88,308.13L189.42,311.75L207.82,324.94L212.43,327.87L226.12,335.73L230.6,338.01L243.62,343.75L247.79,345.28L259.64,348.6L263.32,349.27L273.55,349.98L276.7,349.83L285.55,348.47L288.32,347.76L298.79,344.09L301.29,343.04L318.66,336.03L321.23,335.27L329.28,333.69L332.09,333.43L343.9,333.5L346.96,333.75L365.99,336.48L369.23,337.05L394.9,341.12L398.02,341.42L413.13,341.89L416.07,341.81L436.18,340.24L439.02,339.93L467.62,337.45L470.56,337.37L491.48,337.62L494.51,337.75L548.94,339.76L551.91,339.74L640.66,338.71L643.65,338.76L712.14,338.99L715.11,338.96L819.19,338.98L822.17,338.98L944.07,338.86" style="vector-effect: none; fill: none; stroke: rgb(237, 120, 51); stroke-opacity: 1; stroke-width: 2px; opacity: 1;"/></g><g class="points"/><g class="text"/></g><g class="trace scatter trace4a2277" style="stroke-miterlimit: 2; opacity: 1;"><g class="fills"/><g class="errorbars"/><g class="lines"><path class="js-line" d="M54.95,42.54L60.25,71.8L61.5,77.61L68.66,106.47L70.28,112.19L79.28,140.53L81.26,146.14L92.07,173.83L94.42,179.29L104.43,200.84L107.11,206.14L118.5,226.93L121.53,232.02L134.41,251.86L137.83,256.69L152.34,275.39L156.17,279.9L172.21,297.09L176.36,301.14L193.26,316L197.53,319.34L210.32,328.35L214.55,330.99L227.06,337.64L231.14,339.41L243,343.28L246.82,344.09L257.87,345.23L261.44,345.25L271.78,344.44L275.13,343.95L291.2,340.53L294.29,339.78L312.28,336.23L315.2,335.94L326.74,335.68L329.59,335.8L346.63,337.5L349.47,337.87L372.48,340.39L375.42,340.54L393.36,340.49L396.39,340.37L450.79,337.97L453.75,338L533.6,339.17L536.59,339.11L599.16,338.79L602.12,338.82L679.42,338.88L682.4,338.87L887.54,338.92L890.52,338.92L943.94,338.93" style="vector-effect: none; fill: none; stroke: rgb(232, 98, 46); stroke-opacity: 1; stroke-width: 2px; opacity: 1;"/></g><g class="points"/><g class="text"/></g><g class="trace scatter traceae162c" style="stroke-miterlimit: 2; opacity: 1;"><g class="fills"/><g class="errorbars"/><g class="lines"><path class="js-line" d="M54.95,42.54L60.32,71.79L61.58,77.6L68.8,106.44L70.43,112.16L79.46,140.49L81.45,146.09L92.28,173.78L94.63,179.24L107.33,206.09L110.06,211.36L124.75,237.13L127.9,242.16L141.2,261.81L144.71,266.6L159.41,285.03L163.23,289.4L178.99,305.68L183.03,309.4L195.34,319.52L199.49,322.52L212.04,330.26L216.25,332.38L228.86,337.3L233.05,338.48L245.49,340.86L249.58,341.31L265.5,341.81L269.34,341.68L294.07,339.63L297.24,339.34L316.92,338.4L319.49,338.38L943.54,338.91" style="vector-effect: none; fill: none; stroke: rgb(227, 75, 40); stroke-opacity: 1; stroke-width: 2px; opacity: 1;"/></g><g class="points"/><g class="text"/></g><g class="trace scatter trace84a260" style="stroke-miterlimit: 2; opacity: 1;"><g class="fills"/><g class="errorbars"/><g class="lines"><path class="js-line" d="M54.95,42.54L60.34,71.78L61.6,77.6L68.8,106.44L70.42,112.16L79.41,140.5L81.39,146.11L92.15,173.83L94.48,179.3L107.05,206.22L109.75,211.52L124.19,237.47L127.26,242.55L140.23,262.44L143.64,267.27L157.93,285.73L161.67,290.08L173.3,302.33L177.32,306.11L189.78,316.42L194.07,319.48L207.38,327.38L211.94,329.58L225.83,334.95L230.48,336.36L244.3,339.62L248.81,340.4L265.99,342.29L270,342.5L287.63,342.41L290.62,342.22L308.08,340.1L310.29,339.75L328.71,337.56L331.36,337.45L349.43,337.66L352.7,337.8L404.6,339.68L407.48,339.63L470.66,338.65L473.75,338.7L533.86,338.98L536.77,338.96L608.15,338.96L611.14,338.97L943.54,338.91" style="vector-effect: none; fill: none; stroke: rgb(222, 53, 35); stroke-opacity: 1; stroke-width: 2px; opacity: 1;"/></g><g class="points"/><g class="text"/></g><g class="trace scatter trace3bceeb" style="stroke-miterlimit: 2; opacity: 1;"><g class="fills"/><g class="errorbars"/><g class="lines"><path class="js-line" d="M54.95,42.54L60.31,71.79L61.57,77.6L68.7,106.46L70.31,112.19L79.2,140.56L81.15,146.18L91.78,173.95L94.07,179.43L106.44,206.46L109.08,211.79L123.19,237.94L126.19,243.08L138.85,263.13L142.2,267.97L152.8,281.98L156.52,286.45L168.34,299.11L172.5,303.06L185.76,313.96L190.44,317.25L205.19,326.04L210.26,328.6L225.61,335.22L230.69,337.06L245.48,341.52L250.17,342.65L263.25,344.98L267.18,345.41L277.43,345.63L280.33,345.4L290.07,343.33L292.17,342.62L308.19,336.85L310.49,336.39L318.35,335.69L321.29,335.68L337.6,336.83L341.08,337.22L375.28,340.55L378.33,340.61L395.35,339.97L398.05,339.76L425.48,338.02L428.43,338L456.16,338.74L459.29,338.87L492.61,339.33L495.52,339.28L557.36,338.82L560.38,338.86L631.75,338.84L634.71,338.84L943.53,338.91" style="vector-effect: none; fill: none; stroke: rgb(217, 30, 30); stroke-opacity: 1; stroke-width: 2px; opacity: 1;"/></g><g class="points"/><g class="text"/></g></g></g></g><path class="xlines-above crisp" d="M0,0" style="fill: none;"/><path class="ylines-above crisp" d="M0,0" style="fill: none;"/><g class="overlines-above"/><g class="xaxislayer-above"><g class="xtick"><text text-anchor="middle" x="0" y="543" transform="translate(175.95,0)" style="font-family: 'Open Sans', verdana, arial, sans-serif; font-size: 28px; fill: rgb(0, 0, 0); fill-opacity: 1; white-space: pre; opacity: 1;">0</text></g><g class="xtick"><text text-anchor="middle" x="0" y="543" style="font-family: 'Open Sans', verdana, arial, sans-serif; font-size: 28px; fill: rgb(0, 0, 0); fill-opacity: 1; white-space: pre; opacity: 1;" transform="translate(324.13,0)">0.5</text></g><g class="xtick"><text text-anchor="middle" x="0" y="543" style="font-family: 'Open Sans', verdana, arial, sans-serif; font-size: 28px; fill: rgb(0, 0, 0); fill-opacity: 1; white-space: pre; opacity: 1;" transform="translate(472.32,0)">1</text></g><g class="xtick"><text text-anchor="middle" x="0" y="543" style="font-family: 'Open Sans', verdana, arial, sans-serif; font-size: 28px; fill: rgb(0, 0, 0); fill-opacity: 1; white-space: pre; opacity: 1;" transform="translate(620.5,0)">1.5</text></g><g class="xtick"><text text-anchor="middle" x="0" y="543" style="font-family: 'Open Sans', verdana, arial, sans-serif; font-size: 28px; fill: rgb(0, 0, 0); fill-opacity: 1; white-space: pre; opacity: 1;" transform="translate(768.68,0)">2</text></g><g class="xtick"><text text-anchor="middle" x="0" y="543" style="font-family: 'Open Sans', verdana, arial, sans-serif; font-size: 28px; fill: rgb(0, 0, 0); fill-opacity: 1; white-space: pre; opacity: 1;" transform="translate(916.87,0)">2.5</text></g><g class="xtick"><text text-anchor="middle" x="0" y="543" style="font-family: 'Open Sans', verdana, arial, sans-serif; font-size: 28px; fill: rgb(0, 0, 0); fill-opacity: 1; white-space: pre; opacity: 1;" transform="translate(1065.05,0)">3</text></g></g><g class="yaxislayer-above"><g class="ytick"><text text-anchor="end" x="120" y="9.799999999999999" transform="translate(0,498.18)" style="font-family: 'Open Sans', verdana, arial, sans-serif; font-size: 28px; fill: rgb(0, 0, 0); fill-opacity: 1; white-space: pre; opacity: 1;">−0.2</text></g><g class="ytick"><text text-anchor="end" x="120" y="9.799999999999999" style="font-family: 'Open Sans', verdana, arial, sans-serif; font-size: 28px; fill: rgb(0, 0, 0); fill-opacity: 1; white-space: pre; opacity: 1;" transform="translate(0,438.91)">0</text></g><g class="ytick"><text text-anchor="end" x="120" y="9.799999999999999" style="font-family: 'Open Sans', verdana, arial, sans-serif; font-size: 28px; fill: rgb(0, 0, 0); fill-opacity: 1; white-space: pre; opacity: 1;" transform="translate(0,379.64)">0.2</text></g><g class="ytick"><text text-anchor="end" x="120" y="9.799999999999999" style="font-family: 'Open Sans', verdana, arial, sans-serif; font-size: 28px; fill: rgb(0, 0, 0); fill-opacity: 1; white-space: pre; opacity: 1;" transform="translate(0,320.36)">0.4</text></g><g class="ytick"><text text-anchor="end" x="120" y="9.799999999999999" style="font-family: 'Open Sans', verdana, arial, sans-serif; font-size: 28px; fill: rgb(0, 0, 0); fill-opacity: 1; white-space: pre; opacity: 1;" transform="translate(0,261.09000000000003)">0.6</text></g><g class="ytick"><text text-anchor="end" x="120" y="9.799999999999999" style="font-family: 'Open Sans', verdana, arial, sans-serif; font-size: 28px; fill: rgb(0, 0, 0); fill-opacity: 1; white-space: pre; opacity: 1;" transform="translate(0,201.82)">0.8</text></g><g class="ytick"><text text-anchor="end" x="120" y="9.799999999999999" style="font-family: 'Open Sans', verdana, arial, sans-serif; font-size: 28px; fill: rgb(0, 0, 0); fill-opacity: 1; white-space: pre; opacity: 1;" transform="translate(0,142.54)">1</text></g></g><g class="overaxes-above"/></g></g><g class="polarlayer"/><g class="smithlayer"/><g class="ternarylayer"/><g class="geolayer"/><g class="funnelarealayer"/><g class="pielayer"/><g class="iciclelayer"/><g class="treemaplayer"/><g class="sunburstlayer"/><g class="glimages"/><defs id="topdefs-e7c3de"><g class="clips"/><clipPath id="legende7c3de"><rect width="185" height="211" x="2" y="2"/></clipPath></defs><g class="layer-above"><g class="imagelayer"/><g class="shapelayer"/></g><g class="infolayer"><g class="legend" pointer-events="all" transform="translate(921.01,91.72)"><rect class="bg" shape-rendering="crispEdges" width="187" height="213" x="1" y="1" style="stroke: rgb(0, 0, 0); stroke-opacity: 1; fill: rgb(255, 255, 255); fill-opacity: 1; stroke-width: 2px;"/><g class="scrollbox" transform="" clip-path="url(#legende7c3de)"><g class="groups" transform=""><g class="traces" transform="translate(2,28.650000000000002)" style="opacity: 1;"><text class="legendtext" text-anchor="start" x="5" y="12.090000000000002" style="font-family: 'Open Sans', verdana, arial, sans-serif; font-size: 31px; fill: rgb(0, 0, 0); fill-opacity: 1; white-space: pre;">Trajectory</text><g class="layers"><g class="legendfill"/><g class="legendlines"/><g class="legendsymbols"><g class="legendpoints"/></g></g><rect class="legendtoggle" x="0" y="-21.650000000000002" width="179.609375" height="43.300000000000004" style="fill: rgb(0, 0, 0); fill-opacity: 0;"/></g><g class="traces" transform="translate(2,70)" style="opacity: 1;"><text class="legendtext" text-anchor="start" x="40" y="10.92" style="font-family: 'Open Sans', verdana, arial, sans-serif; font-size: 28px; fill: rgb(0, 0, 0); fill-opacity: 1; white-space: pre;">Reference</text><g class="layers" style="opacity: 1;"><g class="legendfill"/><g class="legendlines"><path class="js-line" d="M5,0h30" style="fill: none; stroke: rgb(0, 0, 0); stroke-opacity: 1; stroke-width: 2px;"/></g><g class="legendsymbols"><g class="legendpoints"/></g></g><rect class="legendtoggle" x="0" y="-19.7" width="179.609375" height="39.4" style="fill: rgb(0, 0, 0); fill-opacity: 0;"/></g><g class="traces" transform="translate(2,109.4)" style="opacity: 1;"><text class="legendtext" text-anchor="start" x="40" y="10.92" style="font-family: 'Open Sans', verdana, arial, sans-serif; font-size: 28px; fill: rgb(0, 0, 0); fill-opacity: 1; white-space: pre;">N = 4</text><g class="layers" style="opacity: 1;"><g class="legendfill"/><g class="legendlines"><path class="js-line" d="M5,0h30" style="fill: none; stroke: rgb(10, 119, 175); stroke-opacity: 1; stroke-width: 2px;"/></g><g class="legendsymbols"><g class="legendpoints"/></g></g><rect class="legendtoggle" x="0" y="-19.7" width="179.609375" height="39.4" style="fill: rgb(0, 0, 0); fill-opacity: 0;"/></g><g class="traces" transform="translate(2,148.79999999999998)" style="opacity: 1;"><text class="legendtext" text-anchor="start" x="40" y="10.92" style="font-family: 'Open Sans', verdana, arial, sans-serif; font-size: 28px; fill: rgb(0, 0, 0); fill-opacity: 1; white-space: pre;">N = 10</text><g class="layers" style="opacity: 1;"><g class="legendfill"/><g class="legendlines"><path class="js-line" d="M5,0h30" style="fill: none; stroke: rgb(242, 211, 56); stroke-opacity: 1; stroke-width: 2px;"/></g><g class="legendsymbols"><g class="legendpoints"/></g></g><rect class="legendtoggle" x="0" y="-19.7" width="179.609375" height="39.4" style="fill: rgb(0, 0, 0); fill-opacity: 0;"/></g><g class="traces" transform="translate(2,188.2)" style="opacity: 1;"><text class="legendtext" text-anchor="start" x="40" y="10.92" style="font-family: 'Open Sans', verdana, arial, sans-serif; font-size: 28px; fill: rgb(0, 0, 0); fill-opacity: 1; white-space: pre;">N = 20</text><g class="layers" style="opacity: 1;"><g class="legendfill"/><g class="legendlines"><path class="js-line" d="M5,0h30" style="fill: none; stroke: rgb(217, 30, 30); stroke-opacity: 1; stroke-width: 2px;"/></g><g class="legendsymbols"><g class="legendpoints"/></g></g><rect class="legendtoggle" x="0" y="-19.7" width="179.609375" height="39.4" style="fill: rgb(0, 0, 0); fill-opacity: 0;"/></g></g></g><rect class="scrollbar" rx="20" ry="3" width="0" height="0" x="0" y="0" style="fill: rgb(128, 139, 164); fill-opacity: 1;"/></g><g class="g-gtitle"/><g class="g-xtitle"><text class="xtitle" x="620.5" y="587.3" text-anchor="middle" style="opacity: 1; font-family: 'Open Sans', verdana, arial, sans-serif; font-size: 34px; fill: rgb(0, 0, 0); fill-opacity: 1; white-space: pre;">East [m]</text></g><g class="g-ytitle" transform="translate(9.103515625,0)"><text class="ytitle" transform="rotate(-90,24.896874999999994,307)" x="24.896874999999994" y="307" text-anchor="middle" style="opacity: 1; font-family: 'Open Sans', verdana, arial, sans-serif; font-size: 34px; fill: rgb(0, 0, 0); fill-opacity: 1; white-space: pre;">North [m]</text></g></g></svg>