<svg class="main-svg" xmlns="http://www.w3.org/2000/svg" xmlns:xlink="http://www.w3.org/1999/xlink" width="800" height="600" style="" viewBox="0 0 800 600"><rect x="0" y="0" width="800" height="600" style="fill: rgb(255, 255, 255); fill-opacity: 1;"/><defs id="defs-6bd740"><g class="clips"><clipPath id="clip6bd740xyplot" class="plotclip"><rect width="430" height="414"/></clipPath><clipPath class="axesclip" id="clip6bd740x"><rect x="121" y="0" width="430" height="600"/></clipPath><clipPath class="axesclip" id="clip6bd740y"><rect x="0" y="100" width="800" height="414"/></clipPath><clipPath class="axesclip" id="clip6bd740xy"><rect x="121" y="100" width="430" height="414"/></clipPath></g><g class="gradients"/><g class="patterns"/></defs><g class="bglayer"/><g class="layer-below"><g class="imagelayer"/><g class="shapelayer"/></g><g class="cartesianlayer"><g class="subplot xy"><g class="layer-subplot"><g class="shapelayer"/><g class="imagelayer"/></g><g class="minor-gridlayer"><g class="x"/><g class="y"/></g><g class="gridlayer"><g class="x"><path class="xgrid crisp" transform="translate(273.16999999999996,0)" d="M0,100v414" style="stroke: rgb(200, 200, 200); stroke-opacity: 1; stroke-width: 1px;"/><path class="xgrid crisp" transform="translate(398.83,0)" d="M0,100v414" style="stroke: rgb(200, 200, 200); stroke-opacity: 1; stroke-width: 1px;"/><path class="xgrid crisp" transform="translate(524.5,0)" d="M0,100v414" style="stroke: rgb(200, 200, 200); stroke-opacity: 1; stroke-width: 1px;"/></g><g class="y"><path class="ygrid crisp" transform="translate(0,493.3)" d="M121,0h430" style="stroke: rgb(200, 200, 200); stroke-opacity: 1; stroke-width: 1px;"/><path class="ygrid crisp" transform="translate(0,369.1)" d="M121,0h430" style="stroke: rgb(200, 200, 200); stroke-opacity: 1; stroke-width: 1px;"/><path class="ygrid crisp" transform="translate(0,307)" d="M121,0h430" style="stroke: rgb(200, 200, 200); stroke-opacity: 1; stroke-width: 1px;"/><path class="ygrid crisp" transform="translate(0,244.9)" d="M121,0h430" style="stroke: rgb(200, 200, 200); stroke-opacity: 1; stroke-width: 1px;"/><path class="ygrid crisp" transform="translate(0,182.8)" d="M121,0h430" style="stroke: rgb(200, 200, 200); stroke-opacity: 1; stroke-width: 1px;"/><path class="ygrid crisp" transform="translate(0,120.7)" d="M121,0h430" style="stroke: rgb(200, 200, 200); stroke-opacity: 1; stroke-width: 1px;"/></g></g><g class="zerolinelayer"><path class="xzl zl crisp" transform="translate(147.5,0)" d="M0,100v414" style="stroke: rgb(200, 200, 200); stroke-opacity: 1; stroke-width: 2px;"/><path class="yzl zl crisp" transform="translate(0,431.2)" d="M121,0h430" style="stroke: rgb(200, 200, 200); stroke-opacity: 1; stroke-width: 2px;"/></g><g class="layer-between"><g class="shapelayer"/><g class="imagelayer"/></g><path class="xlines-below"/><path class="ylines-below"/><g class="overlines-below"/><g class="xaxislayer-below"/><g class="yaxislayer-below"/><g class="overaxes-below"/><g class="overplot"><g class="xy" transform="translate(121,100)" clip-path="url(#clip6bd740xyplot)"><g class="scatterlayer mlayer"><g class="trace scatter trace18a774" style="stroke-miterlimit: 2; opacity: 1;"><g class="fills"/><g class="errorbars"/><g class="lines"><path class="js-line" d="M26.5,331.2L403.5,331.2" style="vector-effect: none; fill: none; stroke: rgb(0, 0, 0); stroke-opacity: 1; stroke-width: 2px; opacity: 1;"/></g><g class="points"/><g class="text"/></g><g class="trace scatter traceddb05f" style="stroke-miterlimit: 2; opacity: 1;"><g class="fills"/><g class="errorbars"/><g class="lines"/><g class="points"><path class="point" transform="translate(26.5,331.2)" d="M4,0A4,4 0 1,1 0,-4A4,4 0 0,1 4,0Z" style="opacity: 1; stroke-width: 0px; fill: rgb(0, 0, 0); fill-opacity: 1;"/><path class="point" transform="translate(403.5,331.2)" d="M4,0A4,4 0 1,1 0,-4A4,4 0 0,1 4,0Z" style="opacity: 1; stroke-width: 0px; fill: rgb(0, 0, 0); fill-opacity: 1;"/></g><g class="text"/></g><g class="trace scatter trace0dd0ad" style="stroke-miterlimit: 2; opacity: 1;"><g class="fills"/><g class="errorbars"/><g class="lines"><path class="js-line" d="M26.5,20.7L45.41,80.4L46.67,84.2L64.33,134.9L65.59,138.34L81.98,181.06L83.24,184.18L99.63,222.68L100.89,225.48L117.28,259.76L118.54,262.24L133.67,290.13L134.93,292.31L150.07,316.59L151.33,318.47L165.2,337.54L166.46,339.14L179.07,353.82L180.33,355.16L192.93,367.29L194.2,368.38L205.54,377.11L206.8,377.96L218.15,384.61L219.41,385.23L229.5,389.38L230.76,389.8L240.85,392.28L242.11,392.48L252.2,393.3L253.46,393.3L263.54,392.45L264.8,392.23L274.89,389.72L276.15,389.3L287.5,384.48L288.76,383.83L298.85,377.79L300.11,376.93L311.46,368.16L312.72,367.07L324.07,356.21L325.33,354.89L337.93,340.4L339.2,338.82L351.8,321.78L353.07,319.95L366.93,298.27L368.2,296.16L382.07,271.43L383.33,269.05L398.46,238.59L399.72,235.9L403.5,227.7" style="vector-effect: none; fill: none; stroke: rgb(11, 102, 164); stroke-opacity: 1; stroke-width: 2px; opacity: 1;"/></g><g class="points"/><g class="text"/></g><g class="trace scatter trace7ecf74" style="stroke-miterlimit: 2; opacity: 1;"><g class="fills"/><g class="errorbars"/><g class="lines"><path class="js-line" d="M26.5,20.7L39.92,84.65L41.05,89.69L53.61,142.15L54.76,146.65L67.58,193.18L68.76,197.14L80.63,234.28L81.83,237.74L92.69,266.93L93.91,269.95L104.95,295.09L106.18,297.66L116.14,316.61L117.4,318.77L127.49,334.48L128.76,336.24L137.71,347.32L138.99,348.72L148.05,357.29L149.35,358.33L157.2,363.65L158.51,364.38L166.44,367.82L167.77,368.23L175.78,369.78L177.12,369.89L185.21,369.55L186.57,369.34L194.74,367.12L196.1,366.6L204.35,362.49L205.74,361.65L215.46,354.58L216.85,353.49L233.37,341.69L234.73,340.8L249.6,332.01L250.94,331.3L266.87,323.94L268.18,323.43L281.22,319.07L282.51,318.72L295.33,316L296.6,315.81L309.2,314.72L310.45,314.69L322.84,315.23L324.07,315.37L336.23,317.54L337.44,317.84L350.58,322.11L351.76,322.59L363.47,328.17L364.63,328.81L377.27,336.83L378.41,337.65L390.79,347.63L391.9,348.63L399.64,356.01" style="vector-effect: none; fill: none; stroke: rgb(10, 119, 175); stroke-opacity: 1; stroke-width: 2px; opacity: 1;"/></g><g class="points"/><g class="text"/></g><g class="trace scatter tracead6af2" style="stroke-miterlimit: 2; opacity: 1;"><g class="fills"/><g class="errorbars"/><g class="lines"><path class="js-line" d="M26.5,20.7L35.02,76.92L35.92,82.23L44.33,127.59L45.3,132.36L54.43,172.74L55.48,176.95L64.19,208.63L65.31,212.34L74.59,240.04L75.78,243.25L85.63,266.96L86.89,269.68L95.97,287.13L97.3,289.4L106.83,303.75L108.22,305.58L116.74,315.39L118.18,316.83L127.03,324.32L128.53,325.37L136.16,329.81L137.71,330.53L145.58,333.31L147.18,333.7L172.04,338.78L173.55,339.03L195.55,341.94L196.97,342.07L217.7,343.17L219.04,343.18L237.23,342.58L238.49,342.48L255.57,340.3L256.75,340.08L271.61,336.64L272.72,336.32L300.3,328.7L301.46,328.49L315.59,326.61L316.79,326.5L334.1,325.93L335.37,325.95L353.56,327.11L354.89,327.26L373.96,330.15L375.36,330.42L396.76,335.45L398.23,335.85L407.08,338.43" style="vector-effect: none; fill: none; stroke: rgb(10, 136, 186); stroke-opacity: 1; stroke-width: 2px; opacity: 1;"/></g><g class="points"/><g class="text"/></g><g class="trace scatter trace3805bf" style="stroke-miterlimit: 2; opacity: 1;"><g class="fills"/><g class="errorbars"/><g class="lines"><path class="js-line" d="M26.5,20.7L32.75,72.73L33.52,78.22L40.19,120.19L41.09,125.18L48.81,163.08L49.84,167.57L58.62,201.42L59.79,205.4L68.34,231.66L69.62,235.19L79,258.3L80.4,261.38L89.09,278.65L90.59,281.33L99.9,296.24L101.5,298.53L111.43,311.07L113.13,312.96L126.68,326.56L128.34,328.09L141.23,338.94L142.81,340.12L155.05,348.23L156.54,349.07L166.71,353.9L168.13,354.44L177.79,357.14L179.13,357.37L187,357.97L188.28,357.94L195.77,356.94L196.99,356.64L204.09,354.05L205.25,353.48L211.97,349.28L213.06,348.45L222.59,339.84L223.65,338.93L233.45,331.64L234.56,330.93L244.76,325.56L245.92,325.07L255.32,321.91L256.52,321.61L266.25,319.98L267.49,319.87L277.55,319.77L278.83,319.86L289.21,321.3L290.53,321.57L302.59,325.01L303.95,325.5L327.06,333.47L328.39,333.8L341.5,336.2L342.79,336.34L354.26,336.93L355.52,336.91L366.68,336L367.9,335.82L379.93,333.06L381.12,332.69L391.62,328.64L392.77,328.1L401.83,323.23" style="vector-effect: none; fill: none; stroke: rgb(56, 151, 160); stroke-opacity: 1; stroke-width: 2px; opacity: 1;"/></g><g class="points"/><g class="text"/></g><g class="trace scatter tracedecd1a" style="stroke-miterlimit: 2; opacity: 1;"><g class="fills"/><g class="errorbars"/><g class="lines"><path class="js-line" d="M26.5,20.7L31.27,68.03L31.96,73.73L38.3,117.7L39.19,122.99L46.02,158.68L47.08,163.6L55.14,196.68L56.37,201.22L65.64,231.69L67.05,235.86L75.97,259.88L77.53,263.72L87.37,285.78L89.08,289.29L99.74,309.3L101.52,312.39L113.55,331.65L115.22,334.07L124.93,346.8L126.51,348.63L135.67,357.85L137.15,359.1L144.35,364.06L145.75,364.8L152.55,367.24L153.87,367.48L159.02,367.59L160.27,367.41L165.15,365.85L166.34,365.25L170.96,362.01L172.08,360.99L177.48,354.64L178.53,353.12L188.89,337.71L189.96,336.38L197.59,328.24L198.71,327.24L205.52,322.12L206.68,321.41L213.75,318.03L214.95,317.61L222.27,315.97L223.51,315.85L231.09,315.94L232.37,316.11L240.2,317.94L241.52,318.39L250.97,322.71L252.34,323.48L264.57,329.56L265.91,330.14L277.87,334.41L279.19,334.78L290.89,337.24L292.18,337.42L303.62,338.07L304.88,338.04L316.06,336.88L317.28,336.65L328.2,333.68L329.4,333.26L341.53,329.91L342.76,329.66L355.13,328.02L356.38,327.94L369,328.01L370.27,328.11L381.84,329.64L383.14,329.88L397.55,333.63L398.87,334.07L404.19,335.96" style="vector-effect: none; fill: none; stroke: rgb(103, 166, 134); stroke-opacity: 1; stroke-width: 2px; opacity: 1;"/></g><g class="points"/><g class="text"/></g><g class="trace scatter traced41ba7" style="stroke-miterlimit: 2; opacity: 1;"><g class="fills"/><g class="errorbars"/><g class="lines"><path class="js-line" d="M26.5,20.7L31.61,68.42L32.36,74.26L38.2,114.27L39.12,119.87L46.24,158.25L47.35,163.62L55.76,200.37L57.05,205.5L66.73,240.61L68.21,245.51L79.18,278.98L80.84,283.64L90.83,309.62L92.46,313.49L102.01,333.86L103.56,336.79L111.18,349.41L112.67,351.53L119.97,360.13L121.4,361.44L127.01,365.37L128.38,366.02L133.78,367.26L135.1,367.23L139,366.35L140.28,365.79L144.06,363.3L145.29,362.2L150.14,356.47L151.32,354.7L164.23,334.81L165.42,333.34L172.61,325.73L173.82,324.67L179.91,320.25L181.13,319.55L187.3,316.91L188.54,316.57L194.79,315.71L196.05,315.72L202.38,316.65L203.66,317.01L210.08,319.72L211.37,320.44L230.78,331.68L232.06,332.23L242.3,335.76L243.58,336.08L253.74,337.72L255,337.8L265.08,337.56L266.34,337.41L276.33,335.28L277.57,334.9L292.53,330.89L293.78,330.63L307.56,328.69L308.82,328.58L323.94,328.34L325.2,328.41L339.14,329.92L340.41,330.13L355.63,332.1L356.89,332.2L373.3,332.64L374.56,332.6L389.64,331.44L390.89,331.28L403.41,329.14" style="vector-effect: none; fill: none; stroke: rgb(149, 181, 108); stroke-opacity: 1; stroke-width: 2px; opacity: 1;"/></g><g class="points"/><g class="text"/></g><g class="trace scatter trace83babe" style="stroke-miterlimit: 2; opacity: 1;"><g class="fills"/><g class="errorbars"/><g class="lines"><path class="js-line" d="M26.5,20.7L33.08,74.1L33.9,79.94L41.99,131.67L42.98,137.32L52.58,187.39L53.74,192.86L63.55,235.95L64.86,241.25L74.38,277.13L75.77,281.77L82.77,302.68L84.19,306.4L91.31,322.69L92.75,325.49L98.54,335.15L100,337.18L105.87,343.76L107.35,345.02L111.81,347.88L113.3,348.52L117.81,349.54L119.32,349.57L123.87,348.74L125.4,348.16L130,345.48L131.54,344.28L143.63,334.82L145.09,333.84L155.08,328.17L156.47,327.53L164.58,324.65L165.9,324.33L173.6,323.3L174.85,323.28L182.13,324.1L183.31,324.39L190.18,327.04L191.31,327.56L202.86,331.71L204.04,332.03L214.88,334.06L216.11,334.19L227.36,334.6L228.63,334.55L240.3,333.33L241.62,333.11L259.91,330.64L261.2,330.52L279.06,329.71L280.32,329.72L297.75,330.56L298.99,330.65L321.4,331.76L322.65,331.79L347.94,331.5L349.22,331.45L377.11,330.88L378.36,330.89L403.38,331.66" style="vector-effect: none; fill: none; stroke: rgb(196, 196, 82); stroke-opacity: 1; stroke-width: 2px; opacity: 1;"/></g><g class="points"/><g class="text"/></g><g class="trace scatter trace474533" style="stroke-miterlimit: 2; opacity: 1;"><g class="fills"/><g class="errorbars"/><g class="lines"><path class="js-line" d="M26.5,20.7L33.78,80.18L34.58,86.06L43.36,144.08L44.31,149.81L53.49,200.79L54.58,206.39L65.03,255.26L66.27,260.15L72.76,282.27L74.11,286.24L81.14,303.75L82.6,306.79L88.63,317.42L90.18,319.69L96.56,327.25L98.2,328.75L103.24,332.34L104.95,333.23L110.2,334.97L111.99,335.25L117.45,335.15L119.28,334.93L151.01,331.79L152.35,331.7L174.83,331.09L175.87,331.09L266.29,331.21L267.51,331.2L403.59,331.2" style="vector-effect: none; fill: none; stroke: rgb(242, 211, 56); stroke-opacity: 1; stroke-width: 2px; opacity: 1;"/></g><g class="points"/><g class="text"/></g><g class="trace scatter trace2bce9d" style="stroke-miterlimit: 2; opacity: 1;"><g class="fills"/><g class="errorbars"/><g class="lines"><path class="js-line" d="M26.5,20.7L34.16,86.44L34.92,92.36L44.14,156.75L45.05,162.54L54.8,219.87L55.87,225.39L61.67,250.87L62.92,255.55L69.67,276.84L71.12,280.68L77.22,294.65L78.83,297.79L85.56,308.96L87.33,311.4L94.7,319.78L96.62,321.52L102.58,325.92L104.63,327.11L118.41,333.43L120.23,334.14L131.99,337.65L133.52,337.95L141.97,338.72L143.25,338.67L149.12,337.69L150.18,337.34L154.97,334.86L155.86,334.27L162.56,330.93L163.58,330.55L171.21,328.67L172.37,328.51L180.92,328.1L182.21,328.15L193.12,329.47L194.54,329.73L211.05,331.96L212.38,332.07L227.78,332.49L229.02,332.45L273.34,330.74L274.62,330.77L316.61,331.39L317.86,331.37L372,331.24L373.26,331.24L403.45,331.12" style="vector-effect: none; fill: none; stroke: rgb(242, 197, 56); stroke-opacity: 1; stroke-width: 2px; opacity: 1;"/></g><g class="points"/><g class="text"/></g><g class="trace scatter tracec7c406" style="stroke-miterlimit: 2; opacity: 1;"><g class="fills"/><g class="errorbars"/><g class="lines"><path class="js-line" d="M26.5,20.7L34.4,92.77L35.13,98.72L44.7,169.49L45.57,175.33L53.18,220.9L54.3,226.18L60.6,250.92L61.99,255.52L68.02,272.82L69.64,276.86L76.58,291.88L78.43,295.36L86.27,308.12L88.35,311.03L97.09,321.53L99.33,323.86L109.76,333.69L111.7,335.29L120.64,341.43L122.28,342.29L128.35,344.5L129.75,344.75L134.82,344.5L135.97,344.13L139.11,342.28L140.06,341.42L144.25,335.76L145.1,334.67L149.7,330.15L150.69,329.43L155.98,326.71L157.1,326.35L163.06,325.45L164.32,325.45L170.96,326.35L172.35,326.72L193.5,332.73L194.84,332.94L205.2,333.67L206.45,333.65L214.94,332.73L216.11,332.49L230.51,330.53L231.74,330.44L246.8,330.26L248.08,330.31L282.62,331.64L283.88,331.63L341.74,331.25L343,331.26L403.52,331.26" style="vector-effect: none; fill: none; stroke: rgb(242, 184, 56); stroke-opacity: 1; stroke-width: 2px; opacity: 1;"/></g><g class="points"/><g class="text"/></g><g class="trace scatter tracefb054a" style="stroke-miterlimit: 2; opacity: 1;"><g class="fills"/><g class="errorbars"/><g class="lines"><path class="js-line" d="M26.5,20.7L33.69,86.79L34.41,92.75L43.17,157.63L44.04,163.48L50.66,203.59L51.76,209.05L57.86,235.11L59.21,240.07L66.59,263.68L68.19,268.15L76.83,289.31L78.69,293.29L88.59,311.97L90.61,315.34L100.19,329.46L102,331.73L108.89,338.97L110.53,340.31L115.22,343.25L116.71,343.85L120.98,344.57L122.33,344.44L126.18,342.94L127.39,342.07L131.93,337.03L133.05,335.75L138.77,330.45L139.93,329.62L145.89,326.58L147.1,326.2L153.3,325.41L154.56,325.48L159.69,326.5L160.99,326.95L175.37,332.18L176.66,332.47L185.6,333.65L186.87,333.69L195.64,333.07L196.88,332.85L211.79,330.56L213.04,330.46L225.62,330.19L226.89,330.24L261.06,331.62L262.32,331.59L306.41,331.17L307.67,331.19L400.98,331.19L402.24,331.18L403.5,331.17" style="vector-effect: none; fill: none; stroke: rgb(242, 170, 56); stroke-opacity: 1; stroke-width: 2px; opacity: 1;"/></g><g class="points"/><g class="text"/></g><g class="trace scatter traceb3a602" style="stroke-miterlimit: 2; opacity: 1;"><g class="fills"/><g class="errorbars"/><g class="lines"><path class="js-line" d="M26.5,20.7L33.01,80.81L33.73,86.76L42.49,151.67L43.36,157.51L50.11,197.49L51.22,202.98L58.61,234.66L59.97,239.73L67.32,264.21L68.9,268.92L77.34,291.61L79.13,295.97L88.01,314.81L89.74,317.94L96.56,328.29L98.24,330.34L103.18,335.21L104.8,336.41L109.59,338.7L111.16,339.04L115.8,338.76L117.32,338.24L124.72,333.84L126.15,333.04L134.49,329.46L135.83,329.06L142.32,327.9L143.58,327.83L149.65,328.36L150.82,328.63L164.91,332.09L166.12,332.24L176.1,332.63L177.38,332.57L212.01,330.69L213.25,330.74L238.24,331.47L239.51,331.46L342.98,331.19L344.24,331.2L403.5,331.21" style="vector-effect: none; fill: none; stroke: rgb(242, 157, 56); stroke-opacity: 1; stroke-width: 2px; opacity: 1;"/></g><g class="points"/><g class="text"/></g><g class="trace scatter tracea7c96c" style="stroke-miterlimit: 2; opacity: 1;"><g class="fills"/><g class="errorbars"/><g class="lines"><path class="js-line" d="M26.5,20.7L33.68,86.81L34.41,92.76L42.39,151.78L43.25,157.63L49.07,191.89L50.14,197.44L57.29,229.81L58.59,235.05L67.07,265.52L68.59,270.44L76.6,293.6L78.24,297.65L84.9,311.67L86.59,314.63L93.45,324.31L95.19,326.19L100.48,330.51L102.27,331.52L107.68,333.24L109.5,333.38L124.85,332.07L126.38,331.96L146.78,331.15L147.82,331.15L403.5,331.2" style="vector-effect: none; fill: none; stroke: rgb(242, 143, 56); stroke-opacity: 1; stroke-width: 2px; opacity: 1;"/></g><g class="points"/><g class="text"/></g><g class="trace scatter trace6ac972" style="stroke-miterlimit: 2; opacity: 1;"><g class="fills"/><g class="errorbars"/><g class="lines"><path class="js-line" d="M26.5,20.7L33.55,86.91L34.26,92.87L42.97,157.87L43.86,163.67L50.94,203.27L52.06,208.79L60.73,246.38L62.08,251.61L69.27,276.78L70.8,281.34L77.26,297.58L78.96,301.14L84.24,310.64L86.07,313.4L91.75,320.51L93.7,322.48L99.77,327.21L101.86,328.38L112.08,332.32L113.95,332.9L123.9,335.03L125.34,335.17L131.65,334.87L132.73,334.61L137.33,332.51L138.23,332.08L144.22,330.19L145.32,330L152.49,329.54L153.78,329.58L166.34,331.06L167.73,331.22L182.16,331.91L183.4,331.88L218.09,331.12L219.37,331.15L252.17,331.17L253.43,331.16L403.5,331.2" style="vector-effect: none; fill: none; stroke: rgb(237, 120, 51); stroke-opacity: 1; stroke-width: 2px; opacity: 1;"/></g><g class="points"/><g class="text"/></g><g class="trace scatter trace830e80" style="stroke-miterlimit: 2; opacity: 1;"><g class="fills"/><g class="errorbars"/><g class="lines"><path class="js-line" d="M26.5,20.7L33.37,87.03L34.07,93.01L41.74,152.31L42.6,158.14L49.39,198.14L50.46,203.73L58.7,242.05L59.98,247.41L65.5,267.87L67.01,272.59L73.59,289.83L75.37,293.73L83.01,307.7L85.06,310.78L91.51,319.05L93.77,321.48L103.01,329.57L105.17,331.2L112.98,336.16L114.73,337.01L120.89,338.84L122.23,338.91L125.74,338.18L126.75,337.63L129.28,335.03L130.04,334.03L133.49,330.78L134.45,330.16L138.65,328.45L139.79,328.21L144.74,328.03L146.07,328.17L154.7,330.36L156.14,330.73L165.77,332.38L167.08,332.49L175.8,332.27L176.98,332.11L190.16,330.69L191.4,330.65L205.47,331.05L206.77,331.12L227.06,331.37L228.3,331.33L262.29,331.23L263.56,331.23L353.06,331.2L354.33,331.2L403.5,331.2" style="vector-effect: none; fill: none; stroke: rgb(232, 98, 46); stroke-opacity: 1; stroke-width: 2px; opacity: 1;"/></g><g class="points"/><g class="text"/></g><g class="trace scatter trace777e4d" style="stroke-miterlimit: 2; opacity: 1;"><g class="fills"/><g class="errorbars"/><g class="lines"><path class="js-line" d="M26.5,20.7L33.35,87.05L34.04,93.04L41.74,152.29L42.63,158.1L49.58,197.91L50.68,203.48L59.14,241.59L60.48,246.82L66.32,266.52L67.9,271.15L74.69,288.45L76.51,292.48L84.27,307.38L86.33,310.81L94.86,323.11L96.9,325.66L104.49,333.6L106.25,335.01L111.16,337.86L112.69,338.35L116.91,338.45L118.2,338.02L121.74,335.37L122.85,334.26L127.42,330.73L128.59,330.07L133.38,328.32L134.61,328.11L139.63,328.16L140.92,328.39L157.77,332.48L159.04,332.56L166.57,332.22L167.81,332.03L180.27,330.68L181.52,330.64L194.18,331.04L195.45,331.12L215.64,331.33L216.9,331.29L249.68,331.24L250.94,331.24L339.2,331.2L340.46,331.2L403.5,331.2" style="vector-effect: none; fill: none; stroke: rgb(227, 75, 40); stroke-opacity: 1; stroke-width: 2px; opacity: 1;"/></g><g class="points"/><g class="text"/></g><g class="trace scatter tracee3bbb6" style="stroke-miterlimit: 2; opacity: 1;"><g class="fills"/><g class="errorbars"/><g class="lines"><path class="js-line" d="M26.5,20.7L33.33,87.07L34.02,93.06L41.77,152.25L42.67,158.04L49.72,197.78L50.84,203.34L58.11,236L59.45,241.22L66.77,265.96L68.36,270.64L76.96,292.69L78.8,296.83L86.55,312.36L88.49,315.75L95.95,326.64L97.74,328.71L102.96,333.3L104.64,334.3L109.52,335.72L111.09,335.66L115.64,333.97L117.1,333.23L124.14,330.48L125.49,330.13L131.93,329.31L133.16,329.34L139.01,330.4L140.16,330.68L148.52,331.88L149.76,331.96L159.99,331.61L161.3,331.49L175.42,330.85L176.68,330.86L268.59,331.19L269.85,331.19L364.41,331.2L365.67,331.2L403.5,331.2" style="vector-effect: none; fill: none; stroke: rgb(222, 53, 35); stroke-opacity: 1; stroke-width: 2px; opacity: 1;"/></g><g class="points"/><g class="text"/></g><g class="trace scatter trace197410" style="stroke-miterlimit: 2; opacity: 1;"><g class="fills"/><g class="errorbars"/><g class="lines"><path class="js-line" d="M26.5,20.7L33.28,87.1L33.97,93.09L41.74,152.26L42.65,158.05L49.72,197.81L50.84,203.38L58.16,235.94L59.5,241.14L66.8,266.09L68.37,270.87L76.8,293.73L78.59,298.09L85.86,313.12L87.68,316.2L93.16,323.85L94.99,325.87L100.51,330.3L102.35,331.24L106.04,332.32L107.89,332.45L148.14,331.13L149.47,331.14L257.24,331.2L258.5,331.2L403.5,331.2" style="vector-effect: none; fill: none; stroke: rgb(217, 30, 30); stroke-opacity: 1; stroke-width: 2px; opacity: 1;"/></g><g class="points"/><g class="text"/></g></g></g></g><path class="xlines-above crisp" d="M0,0" style="fill: none;"/><path class="ylines-above crisp" d="M0,0" style="fill: none;"/><g class="overlines-above"/><g class="xaxislayer-above"><g class="xtick"><text text-anchor="middle" x="0" y="543" transform="translate(147.5,0)" style="font-family: 'Open Sans', verdana, arial, sans-serif; font-size: 28px; fill: rgb(0, 0, 0); fill-opacity: 1; white-space: pre; opacity: 1;">0</text></g><g class="xtick"><text text-anchor="middle" x="0" y="543" style="font-family: 'Open Sans', verdana, arial, sans-serif; font-size: 28px; fill: rgb(0, 0, 0); fill-opacity: 1; white-space: pre; opacity: 1;" transform="translate(273.16999999999996,0)">1</text></g><g class="xtick"><text text-anchor="middle" x="0" y="543" style="font-family: 'Open Sans', verdana, arial, sans-serif; font-size: 28px; fill: rgb(0, 0, 0); fill-opacity: 1; white-space: pre; opacity: 1;" transform="translate(398.83,0)">2</text></g><g class="xtick"><text text-anchor="middle" x="0" y="543" style="font-family: 'Open Sans', verdana, arial, sans-serif; font-size: 28px; fill: rgb(0, 0, 0); fill-opacity: 1; white-space: pre; opacity: 1;" transform="translate(524.5,0)">3</text></g></g><g class="yaxislayer-above"><g class="ytick"><text text-anchor="end" x="120" y="9.799999999999999" transform="translate(0,493.3)" style="font-family: 'Open Sans', verdana, arial, sans-serif; font-size: 28px; fill: rgb(0, 0, 0); fill-opacity: 1; white-space: pre; opacity: 1;">−0.2</text></g><g class="ytick"><text text-anchor="end" x="120" y="9.799999999999999" style="font-family: 'Open Sans', verdana, arial, sans-serif; font-size: 28px; fill: rgb(0, 0, 0); fill-opacity: 1; white-space: pre; opacity: 1;" transform="translate(0,431.2)">0</text></g><g class="ytick"><text text-anchor="end" x="120" y="9.799999999999999" style="font-family: 'Open Sans', verdana, arial, sans-serif; font-size: 28px; fill: rgb(0, 0, 0); fill-opacity: 1; white-space: pre; opacity: 1;" transform="translate(0,369.1)">0.2</text></g><g class="ytick"><text text-anchor="end" x="120" y="9.799999999999999" style="font-family: 'Open Sans', verdana, arial, sans-serif; font-size: 28px; fill: rgb(0, 0, 0); fill-opacity: 1; white-space: pre; opacity: 1;" transform="translate(0,307)">0.4</text></g><g class="ytick"><text text-anchor="end" x="120" y="9.799999999999999" style="font-family: 'Open Sans', verdana, arial, sans-serif; font-size: 28px; fill: rgb(0, 0, 0); fill-opacity: 1; white-space: pre; opacity: 1;" transform="translate(0,244.9)">0.6</text></g><g class="ytick"><text text-anchor="end" x="120" y="9.799999999999999" style="font-family: 'Open Sans', verdana, arial, sans-serif; font-size: 28px; fill: rgb(0, 0, 0); fill-opacity: 1; white-space: pre; opacity: 1;" transform="translate(0,182.8)">0.8</text></g><g class="ytick"><text text-anchor="end" x="120" y="9.799999999999999" style="font-family: 'Open Sans', verdana, arial, sans-serif; font-size: 28px; fill: rgb(0, 0, 0); fill-opacity: 1; white-space: pre; opacity: 1;" transform="translate(0,120.7)">1</text></g></g><g class="overaxes-above"/></g></g><g class="polarlayer"/><g class="smithlayer"/><g class="ternarylayer"/><g class="geolayer"/><g class="funnelarealayer"/><g class="pielayer"/><g class="iciclelayer"/><g class="treemaplayer"/><g class="sunburstlayer"/><g class="glimages"/><defs id="topdefs-6bd740"><g class="clips"/><clipPath id="legend6bd740"><rect width="228" height="343" x="0" y="0"/></clipPath></defs><g class="layer-above"><g class="imagelayer"/><g class="shapelayer"/></g><g class="infolayer"><g class="legend" pointer-events="all" transform="translate(559.6,100)"><rect class="bg" shape-rendering="crispEdges" width="228" height="343" x="0" y="0" style="stroke: rgb(68, 68, 68); stroke-opacity: 1; fill: rgb(255, 255, 255); fill-opacity: 1; stroke-width: 0px;"/><g class="scrollbox" transform="" clip-path="url(#legend6bd740)"><g class="groups" transform=""><g class="traces" transform="translate(0,26.650000000000002)" style="opacity: 1;"><text class="legendtext" text-anchor="start" x="5" y="12.090000000000002" style="font-family: 'Open Sans', verdana, arial, sans-serif; font-size: 31px; fill: rgb(0, 0, 0); fill-opacity: 1; white-space: pre;">Reference</text><g class="layers"><g class="legendfill"/><g class="legendlines"/><g class="legendsymbols"><g class="legendpoints"/></g></g><rect class="legendtoggle" x="0" y="-21.650000000000002" width="222.65625" height="43.300000000000004" style="fill: rgb(0, 0, 0); fill-opacity: 0;"/></g><g class="traces" transform="translate(0,68)" style="opacity: 1;"><text class="legendtext" text-anchor="start" x="40" y="10.92" style="font-family: 'Open Sans', verdana, arial, sans-serif; font-size: 28px; fill: rgb(0, 0, 0); fill-opacity: 1; white-space: pre;">Reference</text><g class="layers" style="opacity: 1;"><g class="legendfill"/><g class="legendlines"><path class="js-line" d="M5,0h30" style="fill: none; stroke: rgb(0, 0, 0); stroke-opacity: 1; stroke-width: 2px;"/></g><g class="legendsymbols"><g class="legendpoints"/></g></g><rect class="legendtoggle" x="0" y="-19.7" width="222.65625" height="39.4" style="fill: rgb(0, 0, 0); fill-opacity: 0;"/></g><g class="traces" transform="translate(0,107.4)" style="opacity: 1;"><text class="legendtext" text-anchor="start" x="40" y="10.92" style="font-family: 'Open Sans', verdana, arial, sans-serif; font-size: 28px; fill: rgb(0, 0, 0); fill-opacity: 1; white-space: pre;">Control point</text><g class="layers" style="opacity: 1;"><g class="legendfill"/><g class="legendlines"/><g class="legendsymbols"><g class="legendpoints"><path class="scatterpts" transform="translate(20,0)" d="M4,0A4,4 0 1,1 0,-4A4,4 0 0,1 4,0Z" style="opacity: 1; stroke-width: 0px; fill: rgb(0, 0, 0); fill-opacity: 1;"/></g></g></g><rect class="legendtoggle" x="0" y="-19.7" width="222.65625" height="39.4" style="fill: rgb(0, 0, 0); fill-opacity: 0;"/></g></g><g class="groups" transform="translate(0,10)"><g class="traces" transform="translate(0,148.75)" style="opacity: 1;"><text class="legendtext" text-anchor="start" x="5" y="12.090000000000002" style="font-family: 'Open Sans', verdana, arial, sans-serif; font-size: 31px; fill: rgb(0, 0, 0); fill-opacity: 1; white-space: pre;">Trajectory</text><g class="layers"><g class="legendfill"/><g class="legendlines"/><g class="legendsymbols"><g class="legendpoints"/></g></g><rect class="legendtoggle" x="0" y="-21.650000000000002" width="222.65625" height="43.300000000000004" style="fill: rgb(0, 0, 0); fill-opacity: 0;"/></g><g class="traces" transform="translate(0,190.1)" style="opacity: 1;"><text class="legendtext" text-anchor="start" x="40" y="10.92" style="font-family: 'Open Sans', verdana, arial, sans-serif; font-size: 28px; fill: rgb(0, 0, 0); fill-opacity: 1; white-space: pre;">N = 5</text><g class="layers" style="opacity: 1;"><g class="legendfill"/><g class="legendlines"><path class="js-line" d="M5,0h30" style="fill: none; stroke: rgb(10, 136, 186); stroke-opacity: 1; stroke-width: 2px;"/></g><g class="legendsymbols"><g class="legendpoints"/></g></g><rect class="legendtoggle" x="0" y="-19.7" width="222.65625" height="39.4" style="fill: rgb(0, 0, 0); fill-opacity: 0;"/></g><g class="traces" transform="translate(0,229.5)" style="opacity: 1;"><text class="legendtext" text-anchor="start" x="40" y="10.92" style="font-family: 'Open Sans', verdana, arial, sans-serif; font-size: 28px; fill: rgb(0, 0, 0); fill-opacity: 1; white-space: pre;">N = 10</text><g class="layers" style="opacity: 1;"><g class="legendfill"/><g class="legendlines"><path class="js-line" d="M5,0h30" style="fill: none; stroke: rgb(242, 211, 56); stroke-opacity: 1; stroke-width: 2px;"/></g><g class="legendsymbols"><g class="legendpoints"/></g></g><rect class="legendtoggle" x="0" y="-19.7" width="222.65625" height="39.4" style="fill: rgb(0, 0, 0); fill-opacity: 0;"/></g><g class="traces" transform="translate(0,268.90000000000003)" style="opacity: 1;"><text class="legendtext" text-anchor="start" x="40" y="10.92" style="font-family: 'Open Sans', verdana, arial, sans-serif; font-size: 28px; fill: rgb(0, 0, 0); fill-opacity: 1; white-space: pre;">N = 15</text><g class="layers" style="opacity: 1;"><g class="legendfill"/><g class="legendlines"><path class="js-line" d="M5,0h30" style="fill: none; stroke: rgb(242, 143, 56); stroke-opacity: 1; stroke-width: 2px;"/></g><g class="legendsymbols"><g class="legendpoints"/></g></g><rect class="legendtoggle" x="0" y="-19.7" width="222.65625" height="39.4" style="fill: rgb(0, 0, 0); fill-opacity: 0;"/></g><g class="traces" transform="translate(0,308.3)" style="opacity: 1;"><text class="legendtext" text-anchor="start" x="40" y="10.92" style="font-family: 'Open Sans', verdana, arial, sans-serif; font-size: 28px; fill: rgb(0, 0, 0); fill-opacity: 1; white-space: pre;">N = 20</text><g class="layers" style="opacity: 1;"><g class="legendfill"/><g class="legendlines"><path class="js-line" d="M5,0h30" style="fill: none; stroke: rgb(217, 30, 30); stroke-opacity: 1; stroke-width: 2px;"/></g><g class="legendsymbols"><g class="legendpoints"/></g></g><rect class="legendtoggle" x="0" y="-19.7" width="222.65625" height="39.4" style="fill: rgb(0, 0, 0); fill-opacity: 0;"/></g></g></g><rect class="scrollbar" rx="20" ry="3" width="0" height="0" x="0" y="0" style="fill: rgb(128, 139, 164); fill-opacity: 1;"/></g><g class="g-gtitle"/><g class="g-xtitle"><text class="xtitle" x="336" y="587.3" text-anchor="middle" style="opacity: 1; font-family: 'Open Sans', verdana, arial, sans-serif; font-size: 34px; fill: rgb(0, 0, 0); fill-opacity: 1; white-space: pre;">East [m]</text></g><g class="g-ytitle" transform="translate(9.103515625,0)"><text class="ytitle" transform="rotate(-90,24.896874999999994,307)" x="24.896874999999994" y="307" text-anchor="middle" style="opacity: 1; font-family: 'Open Sans', verdana, arial, sans-serif; font-size: 34px; fill: rgb(0, 0, 0); fill-opacity: 1; white-space: pre;">North [m]</text></g></g></svg>