<svg class="main-svg" xmlns="http://www.w3.org/2000/svg" xmlns:xlink="http://www.w3.org/1999/xlink" width="1200" height="600" style="" viewBox="0 0 1200 600"><rect x="0" y="0" width="1200" height="600" style="fill: rgb(255, 255, 255); fill-opacity: 1;"/><defs id="defs-6f0134"><g class="clips"><clipPath id="clip6f0134xyplot" class="plotclip"><rect width="1032" height="420"/></clipPath><clipPath class="axesclip" id="clip6f0134x"><rect x="88" y="0" width="1032" height="600"/></clipPath><clipPath class="axesclip" id="clip6f0134y"><rect x="0" y="100" width="1200" height="420"/></clipPath><clipPath class="axesclip" id="clip6f0134xy"><rect x="88" y="100" width="1032" height="420"/></clipPath></g><g class="gradients"/><g class="patterns"/></defs><g class="bglayer"/><g class="layer-below"><g class="imagelayer"/><g class="shapelayer"/></g><g class="cartesianlayer"><g class="subplot xy"><g class="layer-subplot"><g class="shapelayer"/><g class="imagelayer"/></g><g class="minor-gridlayer"><g class="x"/><g class="y"/></g><g class="gridlayer"><g class="x"><path class="xgrid crisp" transform="translate(297.73,0)" d="M0,100v420" style="stroke: rgb(200, 200, 200); stroke-opacity: 1; stroke-width: 1px;"/><path class="xgrid crisp" transform="translate(450.87,0)" d="M0,100v420" style="stroke: rgb(200, 200, 200); stroke-opacity: 1; stroke-width: 1px;"/><path class="xgrid crisp" transform="translate(604,0)" d="M0,100v420" style="stroke: rgb(200, 200, 200); stroke-opacity: 1; stroke-width: 1px;"/><path class="xgrid crisp" transform="translate(757.13,0)" d="M0,100v420" style="stroke: rgb(200, 200, 200); stroke-opacity: 1; stroke-width: 1px;"/><path class="xgrid crisp" transform="translate(910.27,0)" d="M0,100v420" style="stroke: rgb(200, 200, 200); stroke-opacity: 1; stroke-width: 1px;"/><path class="xgrid crisp" transform="translate(1063.4,0)" d="M0,100v420" style="stroke: rgb(200, 200, 200); stroke-opacity: 1; stroke-width: 1px;"/></g><g class="y"><path class="ygrid crisp" transform="translate(0,399.83)" d="M88,0h1032" style="stroke: rgb(200, 200, 200); stroke-opacity: 1; stroke-width: 1px;"/><path class="ygrid crisp" transform="translate(0,338.57)" d="M88,0h1032" style="stroke: rgb(200, 200, 200); stroke-opacity: 1; stroke-width: 1px;"/><path class="ygrid crisp" transform="translate(0,277.32)" d="M88,0h1032" style="stroke: rgb(200, 200, 200); stroke-opacity: 1; stroke-width: 1px;"/><path class="ygrid crisp" transform="translate(0,216.07)" d="M88,0h1032" style="stroke: rgb(200, 200, 200); stroke-opacity: 1; stroke-width: 1px;"/><path class="ygrid crisp" transform="translate(0,154.81)" d="M88,0h1032" style="stroke: rgb(200, 200, 200); stroke-opacity: 1; stroke-width: 1px;"/></g></g><g class="zerolinelayer"><path class="xzl zl crisp" transform="translate(144.6,0)" d="M0,100v420" style="stroke: rgb(200, 200, 200); stroke-opacity: 1; stroke-width: 2px;"/><path class="yzl zl crisp" transform="translate(0,461.08)" d="M88,0h1032" style="stroke: rgb(200, 200, 200); stroke-opacity: 1; stroke-width: 2px;"/></g><g class="layer-between"><g class="shapelayer"/><g class="imagelayer"/></g><path class="xlines-below"/><path class="ylines-below"/><g class="overlines-below"/><g class="xaxislayer-below"/><g class="yaxislayer-below"/><g class="overaxes-below"/><g class="overplot"><g class="xy" transform="translate(88,100)" clip-path="url(#clip6f0134xyplot)"><g class="scatterlayer mlayer"><g class="trace scatter trace90841c" style="stroke-miterlimit: 2; opacity: 1;"><g class="fills"/><g class="errorbars"/><g class="lines"><path class="js-line" d="M56.6,361.08L975.4,361.08" style="vector-effect: none; fill: none; stroke: rgb(0, 0, 0); stroke-opacity: 1; stroke-width: 2px; opacity: 1;"/></g><g class="points"/><g class="text"/></g><g class="trace scatter traceed5a7d" style="stroke-miterlimit: 2; opacity: 1;"><g class="fills"/><g class="errorbars"/><g class="lines"/><g class="points"><path class="point" transform="translate(56.6,361.08)" d="M4,0A4,4 0 1,1 0,-4A4,4 0 0,1 4,0Z" style="opacity: 1; stroke-width: 0px; fill: rgb(0, 0, 0); fill-opacity: 1;"/><path class="point" transform="translate(975.4,361.08)" d="M4,0A4,4 0 1,1 0,-4A4,4 0 0,1 4,0Z" style="opacity: 1; stroke-width: 0px; fill: rgb(0, 0, 0); fill-opacity: 1;"/></g><g class="text"/></g><g class="trace scatter trace261bb5" style="stroke-miterlimit: 2; opacity: 1;"><g class="fills"/><g class="errorbars"/><g class="lines"><path class="js-line" d="M56.6,54.81L154.93,87.01L158.01,87.99L259.41,119.93L262.48,120.88L376.18,155.17L379.26,156.07L499.1,190.47L502.17,191.33L609.72,220.69L612.8,221.51L741.86,254.84L744.93,255.61L849.41,281.08L852.48,281.81L963.11,307.3L966.18,307.98L975.4,310.04" style="vector-effect: none; fill: none; stroke: rgb(11, 102, 164); stroke-opacity: 1; stroke-width: 2px; opacity: 1;"/></g><g class="points"/><g class="text"/></g><g class="trace scatter trace8604f1" style="stroke-miterlimit: 2; opacity: 1;"><g class="fills"/><g class="errorbars"/><g class="lines"><path class="js-line" d="M56.6,54.81L111.91,84.8L114.99,86.43L179.52,119.45L182.59,120.97L237.9,147.59L240.97,149.02L302.43,176.77L305.51,178.11L360.82,201.44L363.89,202.69L419.2,224.46L422.28,225.63L480.66,246.91L483.73,247.98L542.12,267.53L545.19,268.52L603.58,286.33L606.65,287.22L661.96,302.49L665.04,303.3L720.35,317.01L723.42,317.73L781.81,330.51L784.88,331.13L843.26,342.18L846.34,342.71L901.65,351.57L904.72,352.02L963.11,359.68L966.18,360.04L975.4,361.08" style="vector-effect: none; fill: none; stroke: rgb(10, 119, 175); stroke-opacity: 1; stroke-width: 2px; opacity: 1;"/></g><g class="points"/><g class="text"/></g><g class="trace scatter traceca68b6" style="stroke-miterlimit: 2; opacity: 1;"><g class="fills"/><g class="errorbars"/><g class="lines"><path class="js-line" d="M56.6,54.81L96.55,87.24L99.62,89.66L142.64,122.49L145.71,124.75L188.74,155.43L191.81,157.54L231.76,184.08L234.83,186.05L274.78,210.72L277.85,212.55L314.72,233.66L317.8,235.35L357.75,256.42L360.82,257.97L397.69,275.58L400.77,276.96L434.57,291.35L437.64,292.58L474.52,306.34L477.59,307.4L511.39,318.25L514.46,319.16L551.34,329.06L554.41,329.81L588.21,337.12L591.29,337.71L625.09,343.33L628.16,343.76L661.96,347.69L665.04,347.97L735.71,353.26L738.79,353.46L809.46,357.33L812.54,357.47L880.14,359.85L883.21,359.92L953.89,361.02L956.96,361.03L975.4,361.08" style="vector-effect: none; fill: none; stroke: rgb(10, 136, 186); stroke-opacity: 1; stroke-width: 2px; opacity: 1;"/></g><g class="points"/><g class="text"/></g><g class="trace scatter trace1d38ab" style="stroke-miterlimit: 2; opacity: 1;"><g class="fills"/><g class="errorbars"/><g class="lines"><path class="js-line" d="M56.6,54.81L90.4,91.27L93.47,94.47L127.28,128.51L130.35,131.5L164.15,163.13L167.22,165.89L201.03,195.11L204.1,197.65L234.83,222.11L237.9,224.46L268.63,246.91L271.7,249.05L302.43,269.43L305.51,271.35L333.16,287.58L336.23,289.27L363.89,303.44L366.96,304.9L394.62,317.02L397.69,318.25L422.28,327.28L425.35,328.31L449.93,335.7L453.01,336.52L477.59,342.27L480.66,342.88L505.24,346.98L508.32,347.39L545.19,351.36L548.27,351.65L603.58,356.2L606.65,356.4L658.89,359.26L661.96,359.38L714.2,360.84L717.28,360.89L787.95,361.08L791.03,361.08L975.4,361.08" style="vector-effect: none; fill: none; stroke: rgb(56, 151, 160); stroke-opacity: 1; stroke-width: 2px; opacity: 1;"/></g><g class="points"/><g class="text"/></g><g class="trace scatter tracef20894" style="stroke-miterlimit: 2; opacity: 1;"><g class="fills"/><g class="errorbars"/><g class="lines"><path class="js-line" d="M56.6,54.81L84.26,92.07L87.33,96.07L114.99,130.75L118.06,134.46L145.71,166.58L148.79,170.01L176.44,199.55L179.52,202.69L207.17,229.67L210.25,232.53L237.9,256.93L240.97,259.5L262.48,276.5L265.56,278.79L287.07,293.79L290.14,295.79L311.65,308.8L314.72,310.51L336.23,321.52L339.31,322.95L360.82,331.96L363.89,333.1L385.4,340.11L388.47,340.97L409.98,345.98L413.06,346.55L437.64,350.13L440.71,350.52L486.81,355.54L489.88,355.82L535.97,359.13L539.05,359.29L582.07,360.83L585.14,360.89L655.82,361.08L658.89,361.08L975.4,361.08" style="vector-effect: none; fill: none; stroke: rgb(103, 166, 134); stroke-opacity: 1; stroke-width: 2px; opacity: 1;"/></g><g class="points"/><g class="text"/></g><g class="trace scatter trace044d1d" style="stroke-miterlimit: 2; opacity: 1;"><g class="fills"/><g class="errorbars"/><g class="lines"><path class="js-line" d="M56.6,54.81L81.18,94.47L84.26,99.24L108.84,135.94L111.91,140.34L136.5,174.08L139.57,178.11L164.15,208.89L167.22,212.55L191.81,240.37L194.88,243.66L216.39,265.53L219.46,268.46L237.9,285L240.97,287.58L259.41,301.95L262.48,304.17L280.92,316.39L283.99,318.25L302.43,328.31L305.51,329.81L323.94,337.71L327.02,338.85L345.45,344.59L348.53,345.37L366.96,348.99L370.04,349.49L406.91,354.6L409.98,354.96L446.86,358.48L449.93,358.71L489.88,360.71L492.95,360.79L535.97,361.08L539.05,361.08L975.4,361.08" style="vector-effect: none; fill: none; stroke: rgb(149, 181, 108); stroke-opacity: 1; stroke-width: 2px; opacity: 1;"/></g><g class="points"/><g class="text"/></g><g class="trace scatter trace6e2d92" style="stroke-miterlimit: 2; opacity: 1;"><g class="fills"/><g class="errorbars"/><g class="lines"><path class="js-line" d="M56.6,54.81L76.44,92.03L79.31,97.18L102.46,136.82L105.38,141.58L126.05,173.74L129.03,178.16L150.08,207.93L153.12,212.02L174.56,239.41L177.65,243.16L196.29,264.5L199.4,267.82L218.1,286.38L221.23,289.24L236.86,302.52L239.99,304.97L255.67,316.24L258.81,318.29L274.53,327.54L277.68,329.19L293.44,336.42L296.6,337.67L312.41,342.89L315.57,343.73L344,350.1L347.15,350.71L375.38,355.45L378.51,355.88L406.55,358.99L409.66,359.24L437.52,360.72L440.6,360.8L499.06,361.01L502.14,361.02L975.4,361.08" style="vector-effect: none; fill: none; stroke: rgb(196, 196, 82); stroke-opacity: 1; stroke-width: 2px; opacity: 1;"/></g><g class="points"/><g class="text"/></g><g class="trace scatter trace17b11e" style="stroke-miterlimit: 2; opacity: 1;"><g class="fills"/><g class="errorbars"/><g class="lines"><path class="js-line" d="M56.6,54.81L74.66,93.16L77.31,98.49L96.3,134.81L99.08,139.85L118.99,174.14L121.91,178.89L142.75,211.15L145.8,215.62L167.56,245.79L170.71,249.86L186.51,268.97L189.68,272.54L205.58,289.14L208.77,292.21L224.77,306.29L227.99,308.86L244.09,320.43L247.32,322.5L263.54,331.56L266.79,333.12L279.83,338.53L283.1,339.68L309.09,347.65L312.32,348.51L334.76,353.73L337.95,354.36L360.11,357.93L363.25,358.32L385.13,360.23L388.23,360.39L416.01,360.81L419.09,360.83L717.28,361.08L720.35,361.08L975.4,361.08" style="vector-effect: none; fill: none; stroke: rgb(242, 211, 56); stroke-opacity: 1; stroke-width: 2px; opacity: 1;"/></g><g class="points"/><g class="text"/></g></g></g></g><path class="xlines-above crisp" d="M0,0" style="fill: none;"/><path class="ylines-above crisp" d="M0,0" style="fill: none;"/><g class="overlines-above"/><g class="xaxislayer-above"><g class="xtick"><text text-anchor="middle" x="0" y="545" transform="translate(144.6,0)" style="font-family: 'Open Sans', verdana, arial, sans-serif; font-size: 24px; fill: rgb(0, 0, 0); fill-opacity: 1; white-space: pre; opacity: 1;">0</text></g><g class="xtick"><text text-anchor="middle" x="0" y="545" style="font-family: 'Open Sans', verdana, arial, sans-serif; font-size: 24px; fill: rgb(0, 0, 0); fill-opacity: 1; white-space: pre; opacity: 1;" transform="translate(297.73,0)">0.5</text></g><g class="xtick"><text text-anchor="middle" x="0" y="545" style="font-family: 'Open Sans', verdana, arial, sans-serif; font-size: 24px; fill: rgb(0, 0, 0); fill-opacity: 1; white-space: pre; opacity: 1;" transform="translate(450.87,0)">1</text></g><g class="xtick"><text text-anchor="middle" x="0" y="545" style="font-family: 'Open Sans', verdana, arial, sans-serif; font-size: 24px; fill: rgb(0, 0, 0); fill-opacity: 1; white-space: pre; opacity: 1;" transform="translate(604,0)">1.5</text></g><g class="xtick"><text text-anchor="middle" x="0" y="545" style="font-family: 'Open Sans', verdana, arial, sans-serif; font-size: 24px; fill: rgb(0, 0, 0); fill-opacity: 1; white-space: pre; opacity: 1;" transform="translate(757.13,0)">2</text></g><g class="xtick"><text text-anchor="middle" x="0" y="545" style="font-family: 'Open Sans', verdana, arial, sans-serif; font-size: 24px; fill: rgb(0, 0, 0); fill-opacity: 1; white-space: pre; opacity: 1;" transform="translate(910.27,0)">2.5</text></g><g class="xtick"><text text-anchor="middle" x="0" y="545" style="font-family: 'Open Sans', verdana, arial, sans-serif; font-size: 24px; fill: rgb(0, 0, 0); fill-opacity: 1; white-space: pre; opacity: 1;" transform="translate(1063.4,0)">3</text></g></g><g class="yaxislayer-above"><g class="ytick"><text text-anchor="end" x="87" y="8.399999999999999" transform="translate(0,461.08)" style="font-family: 'Open Sans', verdana, arial, sans-serif; font-size: 24px; fill: rgb(0, 0, 0); fill-opacity: 1; white-space: pre; opacity: 1;">0</text></g><g class="ytick"><text text-anchor="end" x="87" y="8.399999999999999" style="font-family: 'Open Sans', verdana, arial, sans-serif; font-size: 24px; fill: rgb(0, 0, 0); fill-opacity: 1; white-space: pre; opacity: 1;" transform="translate(0,399.83)">0.2</text></g><g class="ytick"><text text-anchor="end" x="87" y="8.399999999999999" style="font-family: 'Open Sans', verdana, arial, sans-serif; font-size: 24px; fill: rgb(0, 0, 0); fill-opacity: 1; white-space: pre; opacity: 1;" transform="translate(0,338.57)">0.4</text></g><g class="ytick"><text text-anchor="end" x="87" y="8.399999999999999" style="font-family: 'Open Sans', verdana, arial, sans-serif; font-size: 24px; fill: rgb(0, 0, 0); fill-opacity: 1; white-space: pre; opacity: 1;" transform="translate(0,277.32)">0.6</text></g><g class="ytick"><text text-anchor="end" x="87" y="8.399999999999999" style="font-family: 'Open Sans', verdana, arial, sans-serif; font-size: 24px; fill: rgb(0, 0, 0); fill-opacity: 1; white-space: pre; opacity: 1;" transform="translate(0,216.07)">0.8</text></g><g class="ytick"><text text-anchor="end" x="87" y="8.399999999999999" style="font-family: 'Open Sans', verdana, arial, sans-serif; font-size: 24px; fill: rgb(0, 0, 0); fill-opacity: 1; white-space: pre; opacity: 1;" transform="translate(0,154.81)">1</text></g></g><g class="overaxes-above"/></g></g><g class="polarlayer"/><g class="smithlayer"/><g class="ternarylayer"/><g class="geolayer"/><g class="funnelarealayer"/><g class="pielayer"/><g class="iciclelayer"/><g class="treemaplayer"/><g class="sunburstlayer"/><g class="glimages"/><defs id="topdefs-6f0134"><g class="clips"/><clipPath id="legend6f0134"><rect width="165" height="150" x="2" y="2"/></clipPath></defs><g class="layer-above"><g class="imagelayer"/><g class="shapelayer"/></g><g class="infolayer"><g class="legend" pointer-events="all" transform="translate(940.6799999999998,91.6)"><rect class="bg" shape-rendering="crispEdges" style="stroke: rgb(0, 0, 0); stroke-opacity: 1; fill: rgb(255, 255, 255); fill-opacity: 1; stroke-width: 2px;" width="167" height="152" x="1" y="1"/><g class="scrollbox" transform="" clip-path="url(#legend6f0134)"><g class="groups" transform=""><g class="traces" transform="translate(2,25.400000000000002)" style="opacity: 1;"><text class="legendtext" text-anchor="start" x="5" y="10.14" style="font-family: 'Open Sans', verdana, arial, sans-serif; font-size: 26px; fill: rgb(0, 0, 0); fill-opacity: 1; white-space: pre;">Trajectory</text><g class="layers"><g class="legendfill"/><g class="legendlines"/><g class="legendsymbols"><g class="legendpoints"/></g></g><rect class="legendtoggle" x="0" y="-18.400000000000002" width="159.671875" height="36.800000000000004" style="fill: rgb(0, 0, 0); fill-opacity: 0;"/></g><g class="traces" transform="translate(2,60.900000000000006)" style="opacity: 1;"><text class="legendtext" text-anchor="start" x="40" y="9.360000000000001" style="font-family: 'Open Sans', verdana, arial, sans-serif; font-size: 24px; fill: rgb(0, 0, 0); fill-opacity: 1; white-space: pre;">Reference</text><g class="layers" style="opacity: 1;"><g class="legendfill"/><g class="legendlines"><path class="js-line" d="M5,0h30" style="fill: none; stroke: rgb(0, 0, 0); stroke-opacity: 1; stroke-width: 2px;"/></g><g class="legendsymbols"><g class="legendpoints"/></g></g><rect class="legendtoggle" x="0" y="-17.1" width="159.671875" height="34.2" style="fill: rgb(0, 0, 0); fill-opacity: 0;"/></g><g class="traces" transform="translate(2,95.1)" style="opacity: 1;"><text class="legendtext" text-anchor="start" x="40" y="9.360000000000001" style="font-family: 'Open Sans', verdana, arial, sans-serif; font-size: 24px; fill: rgb(0, 0, 0); fill-opacity: 1; white-space: pre;">N = 3</text><g class="layers" style="opacity: 1;"><g class="legendfill"/><g class="legendlines"><path class="js-line" d="M5,0h30" style="fill: none; stroke: rgb(11, 102, 164); stroke-opacity: 1; stroke-width: 2px;"/></g><g class="legendsymbols"><g class="legendpoints"/></g></g><rect class="legendtoggle" x="0" y="-17.1" width="159.671875" height="34.2" style="fill: rgb(0, 0, 0); fill-opacity: 0;"/></g><g class="traces" transform="translate(2,129.3)" style="opacity: 1;"><text class="legendtext" text-anchor="start" x="40" y="9.360000000000001" style="font-family: 'Open Sans', verdana, arial, sans-serif; font-size: 24px; fill: rgb(0, 0, 0); fill-opacity: 1; white-space: pre;">N = 10</text><g class="layers" style="opacity: 1;"><g class="legendfill"/><g class="legendlines"><path class="js-line" d="M5,0h30" style="fill: none; stroke: rgb(242, 211, 56); stroke-opacity: 1; stroke-width: 2px;"/></g><g class="legendsymbols"><g class="legendpoints"/></g></g><rect class="legendtoggle" x="0" y="-17.1" width="159.671875" height="34.2" style="fill: rgb(0, 0, 0); fill-opacity: 0;"/></g></g></g><rect class="scrollbar" rx="20" ry="3" width="0" height="0" style="fill: rgb(128, 139, 164); fill-opacity: 1;" x="0" y="0"/></g><g class="g-gtitle"/><g class="g-xtitle"><text class="xtitle" x="604" y="584.8" text-anchor="middle" style="opacity: 1; font-family: 'Open Sans', verdana, arial, sans-serif; font-size: 29px; fill: rgb(0, 0, 0); fill-opacity: 1; white-space: pre;">East [m]</text></g><g class="g-ytitle" transform="translate(5.900390625,0)"><text class="ytitle" transform="rotate(-90,23.099999999999994,310)" x="23.099999999999994" y="310" text-anchor="middle" style="opacity: 1; font-family: 'Open Sans', verdana, arial, sans-serif; font-size: 29px; fill: rgb(0, 0, 0); fill-opacity: 1; white-space: pre;">North [m]</text></g></g></svg>