<svg class="main-svg" xmlns="http://www.w3.org/2000/svg" xmlns:xlink="http://www.w3.org/1999/xlink" width="1200" height="600" style="" viewBox="0 0 1200 600"><rect x="0" y="0" width="1200" height="600" style="fill: rgb(255, 255, 255); fill-opacity: 1;"/><defs id="defs-4fbf97"><g class="clips"><clipPath id="clip4fbf97xyplot" class="plotclip"><rect width="1013" height="420"/></clipPath><clipPath class="axesclip" id="clip4fbf97x"><rect x="107" y="0" width="1013" height="600"/></clipPath><clipPath class="axesclip" id="clip4fbf97y"><rect x="0" y="100" width="1200" height="420"/></clipPath><clipPath class="axesclip" id="clip4fbf97xy"><rect x="107" y="100" width="1013" height="420"/></clipPath></g><g class="gradients"/><g class="patterns"/></defs><g class="bglayer"/><g class="layer-below"><g class="imagelayer"/><g class="shapelayer"/></g><g class="cartesianlayer"><g class="subplot xy"><g class="layer-subplot"><g class="shapelayer"/><g class="imagelayer"/></g><g class="minor-gridlayer"><g class="x"/><g class="y"/></g><g class="gridlayer"><g class="x"><path class="xgrid crisp" transform="translate(312.93,0)" d="M0,100v420" style="stroke: rgb(200, 200, 200); stroke-opacity: 1; stroke-width: 1px;"/><path class="xgrid crisp" transform="translate(463.22,0)" d="M0,100v420" style="stroke: rgb(200, 200, 200); stroke-opacity: 1; stroke-width: 1px;"/><path class="xgrid crisp" transform="translate(613.5,0)" d="M0,100v420" style="stroke: rgb(200, 200, 200); stroke-opacity: 1; stroke-width: 1px;"/><path class="xgrid crisp" transform="translate(763.78,0)" d="M0,100v420" style="stroke: rgb(200, 200, 200); stroke-opacity: 1; stroke-width: 1px;"/><path class="xgrid crisp" transform="translate(914.07,0)" d="M0,100v420" style="stroke: rgb(200, 200, 200); stroke-opacity: 1; stroke-width: 1px;"/><path class="xgrid crisp" transform="translate(1064.35,0)" d="M0,100v420" style="stroke: rgb(200, 200, 200); stroke-opacity: 1; stroke-width: 1px;"/></g><g class="y"><path class="ygrid crisp" transform="translate(0,490.34)" d="M107,0h1013" style="stroke: rgb(200, 200, 200); stroke-opacity: 1; stroke-width: 1px;"/><path class="ygrid crisp" transform="translate(0,370.11)" d="M107,0h1013" style="stroke: rgb(200, 200, 200); stroke-opacity: 1; stroke-width: 1px;"/><path class="ygrid crisp" transform="translate(0,310)" d="M107,0h1013" style="stroke: rgb(200, 200, 200); stroke-opacity: 1; stroke-width: 1px;"/><path class="ygrid crisp" transform="translate(0,249.89)" d="M107,0h1013" style="stroke: rgb(200, 200, 200); stroke-opacity: 1; stroke-width: 1px;"/><path class="ygrid crisp" transform="translate(0,189.76999999999998)" d="M107,0h1013" style="stroke: rgb(200, 200, 200); stroke-opacity: 1; stroke-width: 1px;"/><path class="ygrid crisp" transform="translate(0,129.66)" d="M107,0h1013" style="stroke: rgb(200, 200, 200); stroke-opacity: 1; stroke-width: 1px;"/></g></g><g class="zerolinelayer"><path class="xzl zl crisp" transform="translate(162.65,0)" d="M0,100v420" style="stroke: rgb(200, 200, 200); stroke-opacity: 1; stroke-width: 2px;"/><path class="yzl zl crisp" transform="translate(0,430.23)" d="M107,0h1013" style="stroke: rgb(200, 200, 200); stroke-opacity: 1; stroke-width: 2px;"/></g><g class="layer-between"><g class="shapelayer"/><g class="imagelayer"/></g><path class="xlines-below"/><path class="ylines-below"/><g class="overlines-below"/><g class="xaxislayer-below"/><g class="yaxislayer-below"/><g class="overaxes-below"/><g class="overplot"><g class="xy" transform="translate(107,100)" clip-path="url(#clip4fbf97xyplot)"><g class="scatterlayer mlayer"><g class="trace scatter trace0929ee" style="stroke-miterlimit: 2; opacity: 1;"><g class="fills"/><g class="errorbars"/><g class="lines"><path class="js-line" d="M55.65,330.23L957.35,330.23" style="vector-effect: none; fill: none; stroke: rgb(0, 0, 0); stroke-opacity: 1; stroke-width: 2px; opacity: 1;"/></g><g class="points"/><g class="text"/></g><g class="trace scatter trace332df1" style="stroke-miterlimit: 2; opacity: 1;"><g class="fills"/><g class="errorbars"/><g class="lines"/><g class="points"><path class="point" transform="translate(55.65,330.23)" d="M4,0A4,4 0 1,1 0,-4A4,4 0 0,1 4,0Z" style="opacity: 1; stroke-width: 0px; fill: rgb(0, 0, 0); fill-opacity: 1;"/><path class="point" transform="translate(957.35,330.23)" d="M4,0A4,4 0 1,1 0,-4A4,4 0 0,1 4,0Z" style="opacity: 1; stroke-width: 0px; fill: rgb(0, 0, 0); fill-opacity: 1;"/></g><g class="text"/></g><g class="trace scatter trace639973" style="stroke-miterlimit: 2; opacity: 1;"><g class="fills"/><g class="errorbars"/><g class="lines"><path class="js-line" d="M55.65,29.66L88.82,72.54L91.84,76.3L122,112.7L125.01,116.21L155.17,150.15L158.18,153.42L188.34,184.89L191.36,187.91L221.51,216.91L224.53,219.69L251.67,243.67L254.69,246.23L281.83,268.2L284.84,270.52L311.99,290.47L315,292.58L342.14,310.51L345.16,312.39L372.3,328.31L375.32,329.96L399.44,342.41L402.46,343.86L429.6,355.95L432.61,357.18L459.76,367.24L462.77,368.25L489.91,376.3L492.93,377.08L517.06,382.53L520.07,383.11L544.2,386.95L547.21,387.33L574.35,389.73L577.37,389.88L601.5,390.31L604.51,390.27L628.64,389.08L631.65,388.83L655.78,386.04L658.79,385.59L685.94,380.52L688.95,379.85L713.08,373.64L716.09,372.77L740.22,364.95L743.23,363.87L767.36,354.44L770.38,353.16L797.52,340.63L800.53,339.13L827.67,324.58L830.69,322.86L857.83,306.3L860.85,304.34L887.99,285.77L891,283.59L918.15,262.99L921.16,260.59L948.3,237.98L951.32,235.36L957.35,230.04" style="vector-effect: none; fill: none; stroke: rgb(11, 102, 164); stroke-opacity: 1; stroke-width: 2px; opacity: 1;"/></g><g class="points"/><g class="text"/></g><g class="trace scatter trace8d89e5" style="stroke-miterlimit: 2; opacity: 1;"><g class="fills"/><g class="errorbars"/><g class="lines"><path class="js-line" d="M55.65,29.66L76.97,71.63L79.66,76.68L101.31,115.52L104.04,120.18L126.02,155.89L128.79,160.16L148.29,188.82L151.1,192.74L170.86,218.97L173.7,222.55L193.72,246.34L196.6,249.57L216.88,270.93L219.79,273.81L240.33,292.75L243.28,295.28L264.07,311.78L267.06,313.96L285.09,326.15L288.11,328.03L306.33,338.39L309.38,339.97L327.79,348.5L330.88,349.78L349.48,356.49L352.6,357.46L371.4,362.35L374.55,363.01L393.54,366.07L396.72,366.43L415.9,367.67L419.11,367.73L438.49,367.15L441.74,366.9L461.3,364.49L464.58,363.94L484.34,359.7L487.65,358.85L510.92,351.81L514.24,350.78L550.43,340.38L553.69,339.52L589.26,331.01L592.46,330.33L624.25,324.25L627.41,323.72L658.68,319.22L661.78,318.84L695.59,315.71L698.63,315.51L731.81,314.27L734.8,314.25L764.42,314.77L767.36,314.9L796.47,317.01L799.35,317.3L827.94,320.98L830.77,321.43L858.83,326.69L861.62,327.29L889.16,334.14L891.89,334.9L918.92,343.32L921.6,344.24L948.11,354.25" style="vector-effect: none; fill: none; stroke: rgb(10, 119, 175); stroke-opacity: 1; stroke-width: 2px; opacity: 1;"/></g><g class="points"/><g class="text"/></g><g class="trace scatter traceeb1b98" style="stroke-miterlimit: 2; opacity: 1;"><g class="fills"/><g class="errorbars"/><g class="lines"><path class="js-line" d="M55.65,29.66L67.65,62.95L69.72,68.32L82.51,99.36L84.71,104.34L98.3,133.13L100.63,137.75L115,164.29L117.46,168.52L132.63,192.81L135.23,196.67L151.19,218.71L153.91,222.19L170.67,241.98L173.52,245.09L188.1,259.84L191.07,262.63L206.21,275.77L209.29,278.23L225,289.76L228.19,291.91L244.46,301.83L247.77,303.66L264.61,311.97L268.03,313.48L285.43,320.18L288.97,321.36L306.93,326.46L310.58,327.32L329.12,330.82L332.88,331.35L359.45,334.05L363.21,334.38L418.11,338.5L421.67,338.72L473.52,341.09L476.88,341.19L525.69,341.82L528.84,341.8L571.65,340.81L574.61,340.69L617.53,337.93L620.29,337.69L657.59,333.54L660.16,333.19L694.23,329.19L696.92,328.94L732.82,326.4L735.65,326.26L776.35,325.14L779.33,325.12L822.14,325.69L825.27,325.79L870.18,328.03L873.47,328.25L923.92,332.52L927.37,332.87L965.91,337.22" style="vector-effect: none; fill: none; stroke: rgb(10, 136, 186); stroke-opacity: 1; stroke-width: 2px; opacity: 1;"/></g><g class="points"/><g class="text"/></g><g class="trace scatter trace3a4386" style="stroke-miterlimit: 2; opacity: 1;"><g class="fills"/><g class="errorbars"/><g class="lines"><path class="js-line" d="M55.65,29.66L65.3,63.73L67.03,69.21L78.16,100.99L80.13,106.09L90.54,130.8L92.73,135.57L104.19,158.64L106.59,163.09L119.1,184.53L121.7,188.65L135.27,208.45L138.09,212.24L152.7,230.41L155.73,233.87L171.39,250.4L174.63,253.54L191.35,268.43L194.8,271.24L212.56,284.5L216.22,286.98L235.04,298.6L238.91,300.76L258.78,310.74L262.86,312.57L291.29,324.22L295.26,325.73L326.29,336.53L330.07,337.72L355.92,344.97L359.53,345.86L384.16,351.05L387.59,351.65L411,354.77L414.26,355.07L433.35,356.1L436.45,356.14L457.58,355.4L460.51,355.14L477.64,352.85L480.42,352.34L496.63,348.5L499.26,347.73L514.56,342.35L517.06,341.38L537.5,334.36L540.1,333.58L561.32,328.05L564.02,327.45L586,323.4L588.8,322.99L611.56,320.42L614.46,320.19L640.99,319.07L643.99,319.05L671.49,319.78L674.6,319.96L703.06,322.55L706.28,322.94L738.97,327.83L742.24,328.33L774.52,332.42L777.7,332.74L809.06,335.06L812.15,335.21L842.59,335.75L845.59,335.72L875.12,334.5L878.02,334.29L906.64,331.3L909.45,330.91L937.15,326.15L939.87,325.58L953.36,322.51" style="vector-effect: none; fill: none; stroke: rgb(56, 151, 160); stroke-opacity: 1; stroke-width: 2px; opacity: 1;"/></g><g class="points"/><g class="text"/></g><g class="trace scatter tracef111eb" style="stroke-miterlimit: 2; opacity: 1;"><g class="fills"/><g class="errorbars"/><g class="lines"><path class="js-line" d="M55.65,29.66L62.39,58.63L63.89,64.29L72.19,91.91L74.01,97.3L83.87,123.56L85.99,128.67L97.41,153.58L99.85,158.43L112.83,181.98L115.58,186.56L130.11,208.75L133.17,213.06L149.26,233.9L152.64,237.93L170.29,257.42L173.98,261.19L193.19,279.32L197.18,282.81L217.95,299.59L222.26,302.81L247.6,320.49L251.71,323.16L271.79,335.26L275.72,337.43L294.84,347.1L298.58,348.79L316.75,356.03L320.29,357.23L337.51,362.03L340.86,362.75L357.13,365.12L360.29,365.35L372.6,365.46L375.6,365.28L387.28,363.77L390.12,363.19L401.16,360.05L403.84,359.07L414.25,354.31L416.77,352.92L446.6,335.24L449.16,334L464.86,327.36L467.53,326.39L483.83,321.44L486.6,320.75L503.51,317.48L506.38,317.08L523.89,315.49L526.86,315.36L544.97,315.46L548.04,315.62L566.76,317.39L569.93,317.83L589.26,321.29L592.53,322.01L621.83,328.07L625.05,328.64L653.73,332.95L656.88,333.33L684.93,335.89L688.02,336.08L715.44,336.88L718.46,336.87L742.31,336.11L745.26,335.92L771.5,333.4L774.39,333.02L806.21,329.23L809.14,328.98L838.67,327.24L841.66,327.15L871.79,327.07L874.83,327.14L905.54,328.71L908.64,328.95L943.11,332.58L946.27,333L958.99,334.83" style="vector-effect: none; fill: none; stroke: rgb(103, 166, 134); stroke-opacity: 1; stroke-width: 2px; opacity: 1;"/></g><g class="points"/><g class="text"/></g><g class="trace scatter trace454139" style="stroke-miterlimit: 2; opacity: 1;"><g class="fills"/><g class="errorbars"/><g class="lines"><path class="js-line" d="M55.65,29.66L62.88,58.74L64.5,64.48L73.37,92.71L75.31,98.27L85.84,125.66L88.11,131.05L100.27,157.59L102.87,162.81L116.68,188.5L119.61,193.56L135.06,218.4L138.31,223.28L155.41,247.27L159,251.99L177.74,275.13L181.65,279.68L201.63,301.46L205.58,305.46L221.12,320.17L224.94,323.53L239.97,335.64L243.66,338.34L258.19,347.85L261.75,349.91L275.77,356.82L279.21,358.23L292.72,362.55L296.04,363.3L305.83,364.79L309.04,365.02L318.53,364.95L321.64,364.67L330.82,363.04L333.83,362.23L342.71,359.04L345.62,357.72L354.19,352.97L357,351.13L373.77,340.01L376.59,338.35L390.77,330.92L393.63,329.61L408.01,323.9L410.91,322.93L425.49,318.95L428.43,318.32L443.21,316.06L446.19,315.78L461.18,315.24L464.19,315.31L479.38,316.49L482.43,316.9L497.82,319.81L500.91,320.56L534.99,328.92L538.08,329.53L562.64,333.55L565.7,333.94L590.06,336.13L593.1,336.29L617.26,336.66L620.27,336.59L644.24,335.14L647.23,334.84L706.89,328.82L709.89,328.64L742.93,327.42L745.94,327.38L782.19,327.88L785.21,328L867.03,331.62L870.05,331.64L906.19,331.19L909.19,331.09L948.17,328.95L951.16,328.72L957.14,328.23" style="vector-effect: none; fill: none; stroke: rgb(149, 181, 108); stroke-opacity: 1; stroke-width: 2px; opacity: 1;"/></g><g class="points"/><g class="text"/></g><g class="trace scatter trace5f4937" style="stroke-miterlimit: 2; opacity: 1;"><g class="fills"/><g class="errorbars"/><g class="lines"><path class="js-line" d="M55.65,29.66L65.78,64.28L67.61,69.99L79.43,103.86L81.55,109.44L95.06,142.55L97.45,148.01L112.65,180.37L115.32,185.7L132.21,217.31L135.17,222.51L153.74,253.37L156.98,258.45L170.17,277.88L173.49,282.38L186.87,298.87L190.24,302.62L203.82,316.13L207.24,319.14L221.01,329.67L224.48,331.93L234.94,337.83L238.45,339.49L249.02,343.6L252.56,344.67L263.25,347L266.84,347.47L277.64,348.01L281.27,347.89L292.19,346.64L295.85,345.93L306.89,342.89L310.58,341.61L335.79,333.73L339.3,332.78L363.18,327.29L366.5,326.68L385.91,323.89L389.06,323.57L407.47,322.58L410.46,322.56L427.88,323.36L430.7,323.64L447.14,326.2L449.84,326.7L474.66,330.4L477.47,330.72L503.29,332.85L506.21,332.99L533.02,333.54L536.05,333.52L567,332.29L570.16,332.07L613.91,329.68L617,329.57L659.72,328.79L662.73,328.79L704.43,329.6L707.38,329.7L766.98,330.82L769.99,330.83L827.52,330.47L830.57,330.41L903.25,329.95L906.25,329.96L957.07,330.67" style="vector-effect: none; fill: none; stroke: rgb(196, 196, 82); stroke-opacity: 1; stroke-width: 2px; opacity: 1;"/></g><g class="points"/><g class="text"/></g><g class="trace scatter trace2783fa" style="stroke-miterlimit: 2; opacity: 1;"><g class="fills"/><g class="errorbars"/><g class="lines"><path class="js-line" d="M55.65,29.66L65.7,64.36L67.49,70.1L80.93,109.91L82.98,115.55L98.24,154.64L100.55,160.18L117.64,198.56L120.21,203.99L139.13,241.63L141.98,246.81L153.79,266.03L156.85,270.46L166.29,282.87L169.52,286.7L179.48,297.32L182.89,300.56L193.37,309.4L196.95,312.04L207.95,319.09L211.7,321.14L223.22,326.4L227.15,327.86L239.19,331.33L243.29,332.19L255.84,333.88L260.12,334.14L273.19,334.05L277.56,333.83L362.94,330.55L365.99,330.48L420.54,330.13L423.13,330.14L957.56,330.23" style="vector-effect: none; fill: none; stroke: rgb(242, 211, 56); stroke-opacity: 1; stroke-width: 2px; opacity: 1;"/></g><g class="points"/><g class="text"/></g><g class="trace scatter traceb9bcac" style="stroke-miterlimit: 2; opacity: 1;"><g class="fills"/><g class="errorbars"/><g class="lines"><path class="js-line" d="M55.65,29.66L66.91,70.3L68.63,76.06L81.47,116.14L83.42,121.83L97.85,161.36L100.02,166.97L116.04,205.94L118.44,211.47L128.51,233.01L131.21,238.07L139.76,252.47L142.76,257L152.22,269.77L155.53,273.76L165.91,284.91L169.52,288.35L180.8,297.88L184.72,300.79L196.92,308.7L201.14,311.06L214.25,317.35L218.77,319.17L232.79,323.83L237.62,325.12L261.86,330.06L266.49,330.88L296.42,335.3L300.35,335.74L322.12,337.35L325.45,337.45L343.58,337.03L346.3,336.79L358.59,334.87L360.79,334.34L376.29,330.76L378.66,330.35L396.36,328.17L399.04,327.96L418.95,327.21L421.95,327.21L447.4,328.08L450.76,328.3L493.87,330.84L497.06,330.96L537.07,331.48L540.03,331.44L646.04,329.78L649.11,329.81L749.54,330.41L752.53,330.39L882.01,330.26L885.03,330.27L957.24,330.15" style="vector-effect: none; fill: none; stroke: rgb(242, 197, 56); stroke-opacity: 1; stroke-width: 2px; opacity: 1;"/></g><g class="points"/><g class="text"/></g><g class="trace scatter trace2e3930" style="stroke-miterlimit: 2; opacity: 1;"><g class="fills"/><g class="errorbars"/><g class="lines"><path class="js-line" d="M55.65,29.66L66.23,70.49L67.84,76.3L81.67,122.42L83.51,128.15L99.18,173.69L101.26,179.34L114.42,212.89L116.89,218.23L124.94,233.58L127.84,238.48L137.2,252.51L140.53,256.97L151.19,269.69L154.96,273.71L166.92,285.11L171.12,288.7L184.38,298.78L189.01,301.93L203.57,310.7L208.64,313.41L224.5,320.86L229.84,323.12L254.79,332.64L259.42,334.18L276.78,339.18L280.82,340.13L295.81,342.74L299.26,343.1L311.88,343.34L314.74,343.1L322.6,341.67L324.99,340.95L331.44,338.1L333.36,336.91L341.41,332.59L343.56,331.66L352.69,328.51L355.11,327.87L368.01,325.53L370.76,325.24L385.28,324.66L388.35,324.72L404.49,325.89L407.89,326.3L448.61,331.22L451.86,331.48L477.01,332.6L480.05,332.62L503.52,331.91L506.35,331.7L540.68,329.68L543.6,329.58L579.5,329.27L582.56,329.31L674.23,330.62L677.22,330.59L785.41,330.18L788.44,330.19L900.02,330.19L903.03,330.19L957.4,330.29" style="vector-effect: none; fill: none; stroke: rgb(242, 184, 56); stroke-opacity: 1; stroke-width: 2px; opacity: 1;"/></g><g class="points"/><g class="text"/></g><g class="trace scatter trace94edd1" style="stroke-miterlimit: 2; opacity: 1;"><g class="fills"/><g class="errorbars"/><g class="lines"><path class="js-line" d="M55.65,29.66L66.19,70.5L67.81,76.3L79.95,116.64L81.79,122.37L95.52,162.21L97.6,167.87L108.52,195.9L110.93,201.34L121.6,222.31L124.52,227.36L133.89,242.02L137.21,246.74L147.8,260.45L151.53,264.87L163.33,277.62L167.46,281.72L180.48,293.53L185.02,297.31L204.15,311.61L208.99,314.88L227.49,326.17L231.9,328.54L248.72,336.26L252.71,337.74L264.18,341.12L267.84,341.89L278.3,343.12L281.62,343.17L291.07,342.26L294.06,341.59L302.5,338.54L305.15,337.18L318.64,331.33L321.39,330.38L332.6,327.3L335.45,326.71L349.98,324.86L352.94,324.71L368.04,325.04L371.12,325.32L386.77,327.75L389.92,328.29L411.72,331.17L414.8,331.46L436.19,332.6L439.21,332.64L460.18,332.03L463.15,331.82L498.81,329.61L501.81,329.51L531.9,329.25L534.93,329.3L619.68,330.61L622.69,330.57L725.13,330.2L728.15,330.22L951.31,330.21L954.33,330.21L957.34,330.2" style="vector-effect: none; fill: none; stroke: rgb(242, 170, 56); stroke-opacity: 1; stroke-width: 2px; opacity: 1;"/></g><g class="points"/><g class="text"/></g><g class="trace scatter trace085095" style="stroke-miterlimit: 2; opacity: 1;"><g class="fills"/><g class="errorbars"/><g class="lines"><path class="js-line" d="M55.65,29.66L66.24,70.49L67.87,76.28L80.15,116.59L82.02,122.31L95.97,162.09L98.08,167.74L107.11,190L109.58,195.43L120.32,216.56L123.22,221.7L135.71,241.69L139.05,246.54L153.28,265.38L157.05,269.94L173.03,287.63L177.24,291.91L190.12,304.04L194.36,307.69L206.92,317.39L211.04,320.21L223.23,327.41L227.23,329.4L239.05,334.11L242.93,335.27L254.38,337.49L258.14,337.81L269.23,337.54L272.86,337.04L290.56,332.78L294,332.01L313.94,328.54L317.14,328.15L335.67,326.97L338.65,326.96L353,327.74L355.77,328.06L380.92,330.73L383.8,330.92L407.4,331.65L410.42,331.64L438.31,330.67L441.43,330.54L481.33,329.62L484.35,329.62L535.04,330.36L538.04,330.39L595.44,330.26L598.47,330.24L703.99,330.28L707.01,330.28L957.34,330.23" style="vector-effect: none; fill: none; stroke: rgb(242, 157, 56); stroke-opacity: 1; stroke-width: 2px; opacity: 1;"/></g><g class="points"/><g class="text"/></g><g class="trace scatter trace055483" style="stroke-miterlimit: 2; opacity: 1;"><g class="fills"/><g class="errorbars"/><g class="lines"><path class="js-line" d="M55.65,29.66L66.16,70.51L67.78,76.31L79.98,116.65L81.84,122.38L95.72,162.21L97.85,167.85L107.11,189.96L109.62,195.37L120.41,216.61L123.29,221.81L135.6,242.17L138.86,247.16L152.69,266.65L156.33,271.41L171.57,289.7L175.47,293.83L187.31,304.95L191.3,308.24L203.43,316.84L207.53,319.29L219.95,325.37L224.14,326.98L236.86,330.54L241.15,331.3L254.17,332.34L258.55,332.26L328.68,330.22L331.25,330.2L417.43,330.23L420.64,330.23L957.35,330.23" style="vector-effect: none; fill: none; stroke: rgb(242, 143, 56); stroke-opacity: 1; stroke-width: 2px; opacity: 1;"/></g><g class="points"/><g class="text"/></g><g class="trace scatter tracef02fdd" style="stroke-miterlimit: 2; opacity: 1;"><g class="fills"/><g class="errorbars"/><g class="lines"><path class="js-line" d="M55.65,29.66L65.96,70.57L67.56,76.38L79.53,116.8L81.35,122.54L95.03,162.44L97.18,168.06L106.44,190.17L108.93,195.61L119.55,217.03L122.37,222.3L134.35,243.03L137.51,248.12L150.84,268.15L154.35,272.94L165.35,286.18L169.17,290.2L181.11,301.13L185.25,304.39L198.12,313L202.57,315.49L216.39,321.79L221.15,323.51L235.9,327.5L240.98,328.44L269.14,332.37L273.32,332.81L295.36,334.13L298.53,334.13L312.17,333.22L314.46,332.86L334.65,329.47L337.21,329.25L353.96,328.61L356.99,328.62L380,329.57L383.41,329.76L418.9,330.9L421.95,330.92L459.67,330.18L462.58,330.13L507.7,330.08L510.79,330.11L577.45,330.27L580.44,330.25L809.59,330.23L812.6,330.23L957.35,330.23" style="vector-effect: none; fill: none; stroke: rgb(237, 120, 51); stroke-opacity: 1; stroke-width: 2px; opacity: 1;"/></g><g class="points"/><g class="text"/></g><g class="trace scatter trace89e145" style="stroke-miterlimit: 2; opacity: 1;"><g class="fills"/><g class="errorbars"/><g class="lines"><path class="js-line" d="M55.65,29.66L65.7,70.64L67.26,76.46L78.93,116.98L80.71,122.73L92.09,157.06L94.16,162.7L105.45,190.5L107.89,195.98L121.04,222.91L123.85,228.2L138.87,254.27L142.1,259.31L152.55,273.49L156.29,277.9L168.28,290.18L172.53,293.96L186.05,304.33L190.82,307.48L205.87,315.95L211.14,318.46L227.72,325.04L233.28,326.92L253.54,332.93L258.11,334.05L274.43,337.04L278.02,337.41L287.6,337.61L290.4,337.37L297.63,335.76L299.64,334.92L309.36,330.5L311.56,329.82L321.24,327.87L323.89,327.56L335.36,327.09L338.46,327.16L355.26,328.6L358.78,329.02L382.36,331.07L385.58,331.24L406.98,331.49L409.89,331.39L459.06,329.65L462.09,329.66L556.21,330.19L559.21,330.17L758.32,330.24L761.34,330.24L957.35,330.23" style="vector-effect: none; fill: none; stroke: rgb(232, 98, 46); stroke-opacity: 1; stroke-width: 2px; opacity: 1;"/></g><g class="points"/><g class="text"/></g><g class="trace scatter trace61bc08" style="stroke-miterlimit: 2; opacity: 1;"><g class="fills"/><g class="errorbars"/><g class="lines"><path class="js-line" d="M55.65,29.66L65.66,70.65L67.21,76.47L78.85,117.01L80.63,122.77L92.11,157.04L94.23,162.66L105.78,190.34L108.28,195.78L121.76,222.59L124.65,227.86L136.92,248.54L140.24,253.49L150.88,267.62L154.66,272.1L166.68,284.83L170.92,288.85L184.32,300.19L189.02,303.74L203.8,313.69L208.96,316.77L224.03,324.87L228.78,327.12L242.19,332.55L246.38,333.92L258.14,336.68L261.79,337.15L271.89,337.24L274.98,336.83L283.43,334.26L286.1,333.19L297.02,329.77L299.82,329.13L311.29,327.44L314.23,327.24L326.24,327.28L329.31,327.51L369.62,331.47L372.66,331.54L390.67,331.21L393.63,331.02L423.43,329.73L426.43,329.68L459.73,330.15L462.77,330.21L505.04,330.39L508.04,330.35L589.44,330.26L592.46,330.27L957.35,330.23" style="vector-effect: none; fill: none; stroke: rgb(227, 75, 40); stroke-opacity: 1; stroke-width: 2px; opacity: 1;"/></g><g class="points"/><g class="text"/></g><g class="trace scatter tracec9c2bc" style="stroke-miterlimit: 2; opacity: 1;"><g class="fills"/><g class="errorbars"/><g class="lines"><path class="js-line" d="M55.65,29.66L65.64,70.66L67.18,76.48L78.8,117.03L80.57,122.79L90.09,151.37L92.18,157L103.58,184.76L106.05,190.23L119.38,217.14L122.24,222.44L134.45,243.13L137.75,248.09L148.26,262.46L151.97,267.07L163.69,280.4L167.81,284.67L180.74,296.95L185.26,300.88L199.28,311.99L203.91,315.27L217.39,323.56L221.75,325.82L234.43,331.03L238.52,332.26L250.39,334.4L254.22,334.6L261.66,334.23L265.29,333.66L285.92,329.94L289.19,329.53L304.83,328.43L307.81,328.4L322.01,329.16L324.75,329.45L344.57,330.8L347.5,330.89L371.79,330.75L374.93,330.62L411.84,329.89L414.85,329.89L547.21,330.23L550.22,330.24L957.35,330.23" style="vector-effect: none; fill: none; stroke: rgb(222, 53, 35); stroke-opacity: 1; stroke-width: 2px; opacity: 1;"/></g><g class="points"/><g class="text"/></g><g class="trace scatter trace2d841b" style="stroke-miterlimit: 2; opacity: 1;"><g class="fills"/><g class="errorbars"/><g class="lines"><path class="js-line" d="M55.65,29.66L65.57,70.67L67.1,76.5L78.65,117.08L80.42,122.85L90,151.38L92.11,157.01L103.57,184.76L106.04,190.24L119.38,217.21L122.24,222.51L134.58,243.05L137.9,248.02L152.04,267.2L155.8,271.83L171.74,289.66L175.95,293.95L188.92,305.97L193.26,309.47L206.34,318.44L210.71,320.91L223.86,326.75L228.25,328.18L241.48,330.92L245.9,331.31L263.21,331.14L267.25,331.05L331.54,330.15L334.43,330.14L957.35,330.23" style="vector-effect: none; fill: none; stroke: rgb(217, 30, 30); stroke-opacity: 1; stroke-width: 2px; opacity: 1;"/></g><g class="points"/><g class="text"/></g></g></g></g><path class="xlines-above crisp" d="M0,0" style="fill: none;"/><path class="ylines-above crisp" d="M0,0" style="fill: none;"/><g class="overlines-above"/><g class="xaxislayer-above"><g class="xtick"><text text-anchor="middle" x="0" y="545" transform="translate(162.65,0)" style="font-family: 'Open Sans', verdana, arial, sans-serif; font-size: 24px; fill: rgb(0, 0, 0); fill-opacity: 1; white-space: pre; opacity: 1;">0</text></g><g class="xtick"><text text-anchor="middle" x="0" y="545" style="font-family: 'Open Sans', verdana, arial, sans-serif; font-size: 24px; fill: rgb(0, 0, 0); fill-opacity: 1; white-space: pre; opacity: 1;" transform="translate(312.93,0)">0.5</text></g><g class="xtick"><text text-anchor="middle" x="0" y="545" style="font-family: 'Open Sans', verdana, arial, sans-serif; font-size: 24px; fill: rgb(0, 0, 0); fill-opacity: 1; white-space: pre; opacity: 1;" transform="translate(463.22,0)">1</text></g><g class="xtick"><text text-anchor="middle" x="0" y="545" style="font-family: 'Open Sans', verdana, arial, sans-serif; font-size: 24px; fill: rgb(0, 0, 0); fill-opacity: 1; white-space: pre; opacity: 1;" transform="translate(613.5,0)">1.5</text></g><g class="xtick"><text text-anchor="middle" x="0" y="545" style="font-family: 'Open Sans', verdana, arial, sans-serif; font-size: 24px; fill: rgb(0, 0, 0); fill-opacity: 1; white-space: pre; opacity: 1;" transform="translate(763.78,0)">2</text></g><g class="xtick"><text text-anchor="middle" x="0" y="545" style="font-family: 'Open Sans', verdana, arial, sans-serif; font-size: 24px; fill: rgb(0, 0, 0); fill-opacity: 1; white-space: pre; opacity: 1;" transform="translate(914.07,0)">2.5</text></g><g class="xtick"><text text-anchor="middle" x="0" y="545" style="font-family: 'Open Sans', verdana, arial, sans-serif; font-size: 24px; fill: rgb(0, 0, 0); fill-opacity: 1; white-space: pre; opacity: 1;" transform="translate(1064.35,0)">3</text></g></g><g class="yaxislayer-above"><g class="ytick"><text text-anchor="end" x="106" y="8.399999999999999" transform="translate(0,490.34)" style="font-family: 'Open Sans', verdana, arial, sans-serif; font-size: 24px; fill: rgb(0, 0, 0); fill-opacity: 1; white-space: pre; opacity: 1;">−0.2</text></g><g class="ytick"><text text-anchor="end" x="106" y="8.399999999999999" style="font-family: 'Open Sans', verdana, arial, sans-serif; font-size: 24px; fill: rgb(0, 0, 0); fill-opacity: 1; white-space: pre; opacity: 1;" transform="translate(0,430.23)">0</text></g><g class="ytick"><text text-anchor="end" x="106" y="8.399999999999999" style="font-family: 'Open Sans', verdana, arial, sans-serif; font-size: 24px; fill: rgb(0, 0, 0); fill-opacity: 1; white-space: pre; opacity: 1;" transform="translate(0,370.11)">0.2</text></g><g class="ytick"><text text-anchor="end" x="106" y="8.399999999999999" style="font-family: 'Open Sans', verdana, arial, sans-serif; font-size: 24px; fill: rgb(0, 0, 0); fill-opacity: 1; white-space: pre; opacity: 1;" transform="translate(0,310)">0.4</text></g><g class="ytick"><text text-anchor="end" x="106" y="8.399999999999999" style="font-family: 'Open Sans', verdana, arial, sans-serif; font-size: 24px; fill: rgb(0, 0, 0); fill-opacity: 1; white-space: pre; opacity: 1;" transform="translate(0,249.89)">0.6</text></g><g class="ytick"><text text-anchor="end" x="106" y="8.399999999999999" style="font-family: 'Open Sans', verdana, arial, sans-serif; font-size: 24px; fill: rgb(0, 0, 0); fill-opacity: 1; white-space: pre; opacity: 1;" transform="translate(0,189.76999999999998)">0.8</text></g><g class="ytick"><text text-anchor="end" x="106" y="8.399999999999999" style="font-family: 'Open Sans', verdana, arial, sans-serif; font-size: 24px; fill: rgb(0, 0, 0); fill-opacity: 1; white-space: pre; opacity: 1;" transform="translate(0,129.66)">1</text></g></g><g class="overaxes-above"/></g></g><g class="polarlayer"/><g class="smithlayer"/><g class="ternarylayer"/><g class="geolayer"/><g class="funnelarealayer"/><g class="pielayer"/><g class="iciclelayer"/><g class="treemaplayer"/><g class="sunburstlayer"/><g class="glimages"/><defs id="topdefs-4fbf97"><g class="clips"/><clipPath id="legend4fbf97"><rect width="165" height="184" x="2" y="2"/></clipPath></defs><g class="layer-above"><g class="imagelayer"/><g class="shapelayer"/></g><g class="infolayer"><g class="legend" pointer-events="all" transform="translate(940.8699999999999,91.6)"><rect class="bg" shape-rendering="crispEdges" width="167" height="186" x="1" y="1" style="stroke: rgb(0, 0, 0); stroke-opacity: 1; fill: rgb(255, 255, 255); fill-opacity: 1; stroke-width: 2px;"/><g class="scrollbox" transform="" clip-path="url(#legend4fbf97)"><g class="groups" transform=""><g class="traces" transform="translate(2,25.400000000000002)" style="opacity: 1;"><text class="legendtext" text-anchor="start" x="5" y="10.14" style="font-family: 'Open Sans', verdana, arial, sans-serif; font-size: 26px; fill: rgb(0, 0, 0); fill-opacity: 1; white-space: pre;">Trajectory</text><g class="layers"><g class="legendfill"/><g class="legendlines"/><g class="legendsymbols"><g class="legendpoints"/></g></g><rect class="legendtoggle" x="0" y="-18.400000000000002" width="159.671875" height="36.800000000000004" style="fill: rgb(0, 0, 0); fill-opacity: 0;"/></g><g class="traces" transform="translate(2,60.900000000000006)" style="opacity: 1;"><text class="legendtext" text-anchor="start" x="40" y="9.360000000000001" style="font-family: 'Open Sans', verdana, arial, sans-serif; font-size: 24px; fill: rgb(0, 0, 0); fill-opacity: 1; white-space: pre;">Reference</text><g class="layers" style="opacity: 1;"><g class="legendfill"/><g class="legendlines"><path class="js-line" d="M5,0h30" style="fill: none; stroke: rgb(0, 0, 0); stroke-opacity: 1; stroke-width: 2px;"/></g><g class="legendsymbols"><g class="legendpoints"/></g></g><rect class="legendtoggle" x="0" y="-17.1" width="159.671875" height="34.2" style="fill: rgb(0, 0, 0); fill-opacity: 0;"/></g><g class="traces" transform="translate(2,95.1)" style="opacity: 1;"><text class="legendtext" text-anchor="start" x="40" y="9.360000000000001" style="font-family: 'Open Sans', verdana, arial, sans-serif; font-size: 24px; fill: rgb(0, 0, 0); fill-opacity: 1; white-space: pre;">N = 3</text><g class="layers" style="opacity: 1;"><g class="legendfill"/><g class="legendlines"><path class="js-line" d="M5,0h30" style="fill: none; stroke: rgb(11, 102, 164); stroke-opacity: 1; stroke-width: 2px;"/></g><g class="legendsymbols"><g class="legendpoints"/></g></g><rect class="legendtoggle" x="0" y="-17.1" width="159.671875" height="34.2" style="fill: rgb(0, 0, 0); fill-opacity: 0;"/></g><g class="traces" transform="translate(2,129.3)" style="opacity: 1;"><text class="legendtext" text-anchor="start" x="40" y="9.360000000000001" style="font-family: 'Open Sans', verdana, arial, sans-serif; font-size: 24px; fill: rgb(0, 0, 0); fill-opacity: 1; white-space: pre;">N = 10</text><g class="layers" style="opacity: 1;"><g class="legendfill"/><g class="legendlines"><path class="js-line" d="M5,0h30" style="fill: none; stroke: rgb(242, 211, 56); stroke-opacity: 1; stroke-width: 2px;"/></g><g class="legendsymbols"><g class="legendpoints"/></g></g><rect class="legendtoggle" x="0" y="-17.1" width="159.671875" height="34.2" style="fill: rgb(0, 0, 0); fill-opacity: 0;"/></g><g class="traces" transform="translate(2,163.5)" style="opacity: 1;"><text class="legendtext" text-anchor="start" x="40" y="9.360000000000001" style="font-family: 'Open Sans', verdana, arial, sans-serif; font-size: 24px; fill: rgb(0, 0, 0); fill-opacity: 1; white-space: pre;">N = 20</text><g class="layers" style="opacity: 1;"><g class="legendfill"/><g class="legendlines"><path class="js-line" d="M5,0h30" style="fill: none; stroke: rgb(217, 30, 30); stroke-opacity: 1; stroke-width: 2px;"/></g><g class="legendsymbols"><g class="legendpoints"/></g></g><rect class="legendtoggle" x="0" y="-17.1" width="159.671875" height="34.2" style="fill: rgb(0, 0, 0); fill-opacity: 0;"/></g></g></g><rect class="scrollbar" rx="20" ry="3" width="0" height="0" x="0" y="0" style="fill: rgb(128, 139, 164); fill-opacity: 1;"/></g><g class="g-gtitle"/><g class="g-xtitle"><text class="xtitle" x="613.5" y="584.8" text-anchor="middle" style="opacity: 1; font-family: 'Open Sans', verdana, arial, sans-serif; font-size: 29px; fill: rgb(0, 0, 0); fill-opacity: 1; white-space: pre;">East [m]</text></g><g class="g-ytitle" transform="translate(6.541015625,0)"><text class="ytitle" transform="rotate(-90,22.459374999999994,310)" x="22.459374999999994" y="310" text-anchor="middle" style="opacity: 1; font-family: 'Open Sans', verdana, arial, sans-serif; font-size: 29px; fill: rgb(0, 0, 0); fill-opacity: 1; white-space: pre;">North [m]</text></g></g></svg>