<svg class="main-svg" xmlns="http://www.w3.org/2000/svg" xmlns:xlink="http://www.w3.org/1999/xlink" width="1200" height="600" style="" viewBox="0 0 1200 600"><rect x="0" y="0" width="1200" height="600" style="fill: rgb(255, 255, 255); fill-opacity: 1;"/><defs id="defs-1b2049"><g class="clips"><clipPath id="clip1b2049xyplot" class="plotclip"><rect width="1032" height="420"/></clipPath><clipPath class="axesclip" id="clip1b2049x"><rect x="88" y="0" width="1032" height="600"/></clipPath><clipPath class="axesclip" id="clip1b2049y"><rect x="0" y="100" width="1200" height="420"/></clipPath><clipPath class="axesclip" id="clip1b2049xy"><rect x="88" y="100" width="1032" height="420"/></clipPath></g><g class="gradients"/><g class="patterns"/></defs><g class="bglayer"/><g class="layer-below"><g class="imagelayer"/><g class="shapelayer"/></g><g class="cartesianlayer"><g class="subplot xy"><g class="layer-subplot"><g class="shapelayer"/><g class="imagelayer"/></g><g class="minor-gridlayer"><g class="x"/><g class="y"/></g><g class="gridlayer"><g class="x"><path class="xgrid crisp" transform="translate(297.73,0)" d="M0,100v420" style="stroke: rgb(200, 200, 200); stroke-opacity: 1; stroke-width: 1px;"/><path class="xgrid crisp" transform="translate(450.87,0)" d="M0,100v420" style="stroke: rgb(200, 200, 200); stroke-opacity: 1; stroke-width: 1px;"/><path class="xgrid crisp" transform="translate(604,0)" d="M0,100v420" style="stroke: rgb(200, 200, 200); stroke-opacity: 1; stroke-width: 1px;"/><path class="xgrid crisp" transform="translate(757.13,0)" d="M0,100v420" style="stroke: rgb(200, 200, 200); stroke-opacity: 1; stroke-width: 1px;"/><path class="xgrid crisp" transform="translate(910.27,0)" d="M0,100v420" style="stroke: rgb(200, 200, 200); stroke-opacity: 1; stroke-width: 1px;"/><path class="xgrid crisp" transform="translate(1063.4,0)" d="M0,100v420" style="stroke: rgb(200, 200, 200); stroke-opacity: 1; stroke-width: 1px;"/></g><g class="y"><path class="ygrid crisp" transform="translate(0,399.83)" d="M88,0h1032" style="stroke: rgb(200, 200, 200); stroke-opacity: 1; stroke-width: 1px;"/><path class="ygrid crisp" transform="translate(0,338.57)" d="M88,0h1032" style="stroke: rgb(200, 200, 200); stroke-opacity: 1; stroke-width: 1px;"/><path class="ygrid crisp" transform="translate(0,277.32)" d="M88,0h1032" style="stroke: rgb(200, 200, 200); stroke-opacity: 1; stroke-width: 1px;"/><path class="ygrid crisp" transform="translate(0,216.07)" d="M88,0h1032" style="stroke: rgb(200, 200, 200); stroke-opacity: 1; stroke-width: 1px;"/><path class="ygrid crisp" transform="translate(0,154.81)" d="M88,0h1032" style="stroke: rgb(200, 200, 200); stroke-opacity: 1; stroke-width: 1px;"/></g></g><g class="zerolinelayer"><path class="xzl zl crisp" transform="translate(144.6,0)" d="M0,100v420" style="stroke: rgb(200, 200, 200); stroke-opacity: 1; stroke-width: 2px;"/><path class="yzl zl crisp" transform="translate(0,461.08)" d="M88,0h1032" style="stroke: rgb(200, 200, 200); stroke-opacity: 1; stroke-width: 2px;"/></g><g class="layer-between"><g class="shapelayer"/><g class="imagelayer"/></g><path class="xlines-below"/><path class="ylines-below"/><g class="overlines-below"/><g class="xaxislayer-below"/><g class="yaxislayer-below"/><g class="overaxes-below"/><g class="overplot"><g class="xy" transform="translate(88,100)" clip-path="url(#clip1b2049xyplot)"><g class="scatterlayer mlayer"><g class="trace scatter trace1ca7e6" style="stroke-miterlimit: 2; opacity: 1;"><g class="fills"/><g class="errorbars"/><g class="lines"><path class="js-line" d="M56.6,361.08L975.4,361.08" style="vector-effect: none; fill: none; stroke: rgb(0, 0, 0); stroke-opacity: 1; stroke-width: 2px; opacity: 1;"/></g><g class="points"/><g class="text"/></g><g class="trace scatter trace9e56f0" style="stroke-miterlimit: 2; opacity: 1;"><g class="fills"/><g class="errorbars"/><g class="lines"/><g class="points"><path class="point" transform="translate(56.6,361.08)" d="M4,0A4,4 0 1,1 0,-4A4,4 0 0,1 4,0Z" style="opacity: 1; stroke-width: 0px; fill: rgb(0, 0, 0); fill-opacity: 1;"/><path class="point" transform="translate(975.4,361.08)" d="M4,0A4,4 0 1,1 0,-4A4,4 0 0,1 4,0Z" style="opacity: 1; stroke-width: 0px; fill: rgb(0, 0, 0); fill-opacity: 1;"/></g><g class="text"/></g><g class="trace scatter trace1f98bc" style="stroke-miterlimit: 2; opacity: 1;"><g class="fills"/><g class="errorbars"/><g class="lines"><path class="js-line" d="M56.6,54.81L102.69,84.77L105.77,86.71L151.86,115.03L154.93,116.86L204.1,145.25L207.17,146.97L256.34,173.5L259.41,175.1L308.58,199.76L311.65,201.25L360.82,224.05L363.89,225.42L409.98,245.1L413.06,246.36L459.15,264.39L462.22,265.54L511.39,282.97L514.46,284L560.56,298.65L563.63,299.57L612.8,313.38L615.87,314.19L665.04,326.13L668.11,326.82L714.2,336.33L717.28,336.91L763.37,344.77L766.44,345.24L812.54,351.46L815.61,351.82L861.7,356.39L864.78,356.64L910.87,359.57L913.94,359.71L960.04,360.99L963.11,361.03L975.4,361.08" style="vector-effect: none; fill: none; stroke: rgb(11, 102, 164); stroke-opacity: 1; stroke-width: 2px; opacity: 1;"/></g><g class="points"/><g class="text"/></g><g class="trace scatter traced581de" style="stroke-miterlimit: 2; opacity: 1;"><g class="fills"/><g class="errorbars"/><g class="lines"><path class="js-line" d="M56.6,54.81L84.26,90.58L87.33,94.42L114.99,127.71L118.06,131.28L145.71,162.11L148.79,165.4L176.44,193.76L179.52,196.78L207.17,222.68L210.25,225.42L237.9,248.85L240.97,251.32L268.63,272.28L271.7,274.47L296.29,291.03L299.36,292.97L323.94,307.55L327.02,309.25L351.6,321.86L354.67,323.31L379.26,333.95L382.33,335.15L406.91,343.81L409.98,344.77L434.57,351.46L437.64,352.17L459.15,356.39L462.22,356.88L483.73,359.57L486.81,359.84L508.32,360.99L511.39,361.05L588.21,361.08L591.29,361.08L975.4,361.08" style="vector-effect: none; fill: none; stroke: rgb(10, 119, 175); stroke-opacity: 1; stroke-width: 2px; opacity: 1;"/></g><g class="points"/><g class="text"/></g><g class="trace scatter trace089d50" style="stroke-miterlimit: 2; opacity: 1;"><g class="fills"/><g class="errorbars"/><g class="lines"><path class="js-line" d="M56.6,54.81L75.96,92.02L78.74,97.13L98.38,131.43L101.2,136.12L121.11,167.52L123.97,171.79L144.15,200.28L147.05,204.15L167.5,229.73L170.45,233.17L188.2,252.77L191.17,255.85L209.13,273.26L212.14,275.98L230.3,291.22L233.34,293.57L251.71,306.63L254.79,308.62L273.36,319.49L276.47,321.12L295.25,329.82L298.39,331.08L314.2,336.64L317.37,337.6L333.32,341.6L336.53,342.24L352.63,344.69L355.86,345.02L429.83,351.6L433.02,351.84L496.61,356.1L499.77,356.28L572.05,359.48L575.17,359.58L640.38,360.94L643.47,360.97L772.59,361.08L775.66,361.08L975.4,361.08" style="vector-effect: none; fill: none; stroke: rgb(10, 136, 186); stroke-opacity: 1; stroke-width: 2px; opacity: 1;"/></g><g class="points"/><g class="text"/></g><g class="trace scatter traceddcc60" style="stroke-miterlimit: 2; opacity: 1;"><g class="fills"/><g class="errorbars"/><g class="lines"><path class="js-line" d="M56.6,54.81L69.88,88.25L72.16,93.61L86.2,124.5L88.61,129.43L103.43,157.77L105.97,162.28L121.56,188.07L124.22,192.16L137.81,211.68L140.58,215.4L154.72,233.11L157.61,236.46L172.3,252.35L175.29,255.34L190.53,269.4L193.64,272.03L209.43,284.27L212.64,286.54L228.99,296.96L232.31,298.86L249.21,307.47L252.64,309.01L270.08,315.79L273.61,317L311.99,329.2L315.44,330.22L353.01,340.27L356.39,341.09L389.85,348.35L393.16,348.99L425.94,354.45L429.18,354.91L461.29,358.58L464.46,358.86L495.9,360.74L499.01,360.83L532.9,361.08L535.97,361.08L975.4,361.08" style="vector-effect: none; fill: none; stroke: rgb(56, 151, 160); stroke-opacity: 1; stroke-width: 2px; opacity: 1;"/></g><g class="points"/><g class="text"/></g><g class="trace scatter traced6b5fb" style="stroke-miterlimit: 2; opacity: 1;"><g class="fills"/><g class="errorbars"/><g class="lines"><path class="js-line" d="M56.6,54.81L65.84,83.47L67.79,89.02L78.01,115.82L80.15,120.99L91.36,145.93L93.7,150.73L105.89,173.8L108.43,178.23L121.6,199.45L124.33,203.51L138.49,222.86L141.42,226.55L156.56,244.04L159.69,247.36L175.81,262.99L179.13,265.93L196.24,279.71L199.76,282.28L217.85,294.19L221.57,296.39L251.01,312.59L254.64,314.45L279.75,326.46L283.3,328.03L307.8,338L311.26,339.28L335.15,347.21L338.51,348.19L361.79,354.08L365.07,354.78L387.74,358.63L390.93,359.03L412.99,360.84L416.09,360.96L453.01,361.08L456.08,361.08L975.4,361.08" style="vector-effect: none; fill: none; stroke: rgb(103, 166, 134); stroke-opacity: 1; stroke-width: 2px; opacity: 1;"/></g><g class="points"/><g class="text"/></g><g class="trace scatter tracef9bdea" style="stroke-miterlimit: 2; opacity: 1;"><g class="fills"/><g class="errorbars"/><g class="lines"><path class="js-line" d="M56.6,54.81L64.65,83.92L66.4,89.58L75.88,117L77.92,122.32L88.82,148.06L91.15,153.04L103.48,177.1L106.09,181.74L119.85,204.11L122.75,208.42L137.94,229.11L141.12,233.08L157.75,252.08L161.21,255.72L179.26,273.04L183.02,276.33L202.18,291.93L205.98,294.86L228.48,311.12L232.18,313.61L254.01,327.2L257.6,329.24L278.77,340.16L282.24,341.76L299.36,348.8L302.74,350.02L319.39,355.15L322.67,355.99L338.84,359.21L342.03,359.67L357.72,360.99L360.81,361.07L594.36,361.08L597.43,361.08L975.4,361.08" style="vector-effect: none; fill: none; stroke: rgb(149, 181, 108); stroke-opacity: 1; stroke-width: 2px; opacity: 1;"/></g><g class="points"/><g class="text"/></g><g class="trace scatter traced5d910" style="stroke-miterlimit: 2; opacity: 1;"><g class="fills"/><g class="errorbars"/><g class="lines"><path class="js-line" d="M56.6,54.81L63.82,84.32L65.45,90.09L74.56,118.31L76.57,123.82L87.55,150.74L89.93,155.99L102.8,181.61L105.56,186.61L117.23,206.15L120.31,210.93L133.23,229.62L136.62,234.18L150.8,252L154.5,256.35L173.88,277.39L177.8,281.39L197.13,299.88L200.93,303.29L219.63,318.85L223.31,321.67L241.39,334.32L244.94,336.55L262.38,346.27L265.81,347.92L279.31,353.55L282.63,354.71L295.71,358.39L298.93,359.07L311.59,360.79L314.7,360.98L342.38,361.08L345.45,361.08L975.4,361.08" style="vector-effect: none; fill: none; stroke: rgb(196, 196, 82); stroke-opacity: 1; stroke-width: 2px; opacity: 1;"/></g><g class="points"/><g class="text"/></g><g class="trace scatter trace904dbe" style="stroke-miterlimit: 2; opacity: 1;"><g class="fills"/><g class="errorbars"/><g class="lines"><path class="js-line" d="M56.6,54.81L63.71,84.51L65.33,90.36L74.44,119.14L76.46,124.81L87.56,152.68L89.98,158.16L103.08,185.11L105.9,190.41L120.99,216.44L124.21,221.56L141.3,246.68L144.92,251.61L163.5,275.21L167.19,279.58L185.49,299.61L189.12,303.25L203.51,316.58L207.07,319.61L221.23,330.5L224.74,332.92L238.67,341.37L242.12,343.17L255.82,349.18L259.21,350.38L272.68,353.94L276.02,354.53L292.56,356.23L295.85,356.51L341.21,359.56L344.4,359.71L385.32,360.97L388.42,361.01L471.44,361.08L474.52,361.08L975.4,361.08" style="vector-effect: none; fill: none; stroke: rgb(242, 211, 56); stroke-opacity: 1; stroke-width: 2px; opacity: 1;"/></g><g class="points"/><g class="text"/></g><g class="trace scatter tracef2c3f2" style="stroke-miterlimit: 2; opacity: 1;"><g class="fills"/><g class="errorbars"/><g class="lines"><path class="js-line" d="M56.6,54.81L63.8,84.55L65.42,90.42L74.44,119.41L76.42,125.13L87.26,153.37L89.62,158.94L102.28,186.43L105,191.86L119.48,218.6L122.57,223.87L138.8,249.71L142.14,254.6L155.61,272.94L159.01,277.21L172.73,293.05L176.2,296.7L190.18,310.05L193.71,313.07L207.95,323.92L211.54,326.32L226.04,334.67L229.69,336.44L244.45,342.29L248.17,343.44L273.86,350.02L277.46,350.84L305.48,356.23L308.89,356.76L332.23,359.63L335.49,359.91L357.72,361.04L360.81,361.07L594.36,361.08L597.43,361.08L975.4,361.08" style="vector-effect: none; fill: none; stroke: rgb(242, 197, 56); stroke-opacity: 1; stroke-width: 2px; opacity: 1;"/></g><g class="points"/><g class="text"/></g><g class="trace scatter trace2dae9a" style="stroke-miterlimit: 2; opacity: 1;"><g class="fills"/><g class="errorbars"/><g class="lines"><path class="js-line" d="M56.6,54.81L63.65,84.62L65.23,90.52L73.98,119.69L75.9,125.46L86.34,154.01L88.6,159.66L100.74,187.58L103.34,193.1L117.17,220.39L120.1,225.78L132.26,246.34L135.39,251.18L148.3,269.37L151.62,273.62L165.28,289.44L168.8,293.1L183.22,306.55L186.92,309.62L202.09,320.71L205.98,323.19L221.91,331.91L225.99,333.8L249.87,343.71L253.73,345.14L276.18,352.45L279.81,353.46L297.41,357.54L300.83,358.17L317.42,360.4L320.64,360.66L336.23,361.08L339.31,361.08L975.4,361.08" style="vector-effect: none; fill: none; stroke: rgb(242, 184, 56); stroke-opacity: 1; stroke-width: 2px; opacity: 1;"/></g><g class="points"/><g class="text"/></g><g class="trace scatter trace22b2af" style="stroke-miterlimit: 2; opacity: 1;"><g class="fills"/><g class="errorbars"/><g class="lines"><path class="js-line" d="M56.6,54.81L63.41,84.7L64.93,90.62L73.34,119.96L75.18,125.78L85.19,154.58L87.35,160.29L98.95,188.55L101.43,194.15L114.65,221.73L117.47,227.02L129.4,247.16L132.53,251.94L145.72,270.01L149.17,274.27L163.62,290.28L167.39,294.02L183.09,307.96L187.18,311.18L204.15,323.06L208.52,325.77L229.72,337.82L233.81,339.93L253.55,348.97L257.35,350.48L272.08,355.51L275.64,356.51L289.4,359.54L292.71,360.05L305.5,361.07L308.58,361.08L975.4,361.08" style="vector-effect: none; fill: none; stroke: rgb(242, 170, 56); stroke-opacity: 1; stroke-width: 2px; opacity: 1;"/></g><g class="points"/><g class="text"/></g><g class="trace scatter traceb111fd" style="stroke-miterlimit: 2; opacity: 1;"><g class="fills"/><g class="errorbars"/><g class="lines"><path class="js-line" d="M56.6,54.81L63.13,84.78L64.59,90.72L72.64,120.21L74.4,126.06L83.97,155.08L86.04,160.83L97.14,189.37L99.51,195.04L109.69,217.22L112.45,222.57L124.38,243.17L127.58,248.12L141.28,267.11L144.93,271.66L160.4,289.05L164.48,293.19L181.72,308.97L186.25,312.71L204.5,326.56L208.92,329.66L225.96,340.61L230.06,342.98L245.83,351L249.61,352.65L264.12,357.76L267.59,358.67L277.61,360.53L280.83,360.86L296.29,361.08L299.36,361.08L975.4,361.08" style="vector-effect: none; fill: none; stroke: rgb(242, 157, 56); stroke-opacity: 1; stroke-width: 2px; opacity: 1;"/></g><g class="points"/><g class="text"/></g><g class="trace scatter tracecfc048" style="stroke-miterlimit: 2; opacity: 1;"><g class="fills"/><g class="errorbars"/><g class="lines"><path class="js-line" d="M56.6,54.81L63.12,84.78L64.58,90.73L72.6,120.25L74.36,126.11L83.9,155.18L85.95,160.95L97,189.56L99.38,195.21L109.8,217.22L112.63,222.57L124.86,243.35L128.14,248.4L142.17,267.96L145.91,272.7L161.75,291.03L165.93,295.46L183.32,312.36L187.62,316.21L204.4,329.89L208.49,332.89L224.42,343.14L228.29,345.28L239.65,350.66L243.35,352.11L254.19,355.43L257.72,356.2L271.45,357.86L274.83,358.16L311.04,360.49L314.24,360.61L348.53,361.08L351.6,361.08L975.4,361.08" style="vector-effect: none; fill: none; stroke: rgb(242, 143, 56); stroke-opacity: 1; stroke-width: 2px; opacity: 1;"/></g><g class="points"/><g class="text"/></g><g class="trace scatter trace1d7078" style="stroke-miterlimit: 2; opacity: 1;"><g class="fills"/><g class="errorbars"/><g class="lines"><path class="js-line" d="M56.6,54.81L63.17,84.78L64.63,90.73L72.69,120.26L74.45,126.12L84.01,155.21L86.07,160.99L97.16,189.59L99.59,195.2L110.13,217.15L112.97,222.51L125.16,243.46L128.42,248.58L142.26,268.53L145.92,273.4L161.41,292.35L165.42,296.87L181.4,313.21L185.38,316.86L197.29,326.77L201.25,329.73L213.09,337.57L217.03,339.83L228.81,345.59L232.72,347.16L244.43,350.84L248.31,351.77L274.38,357.06L277.95,357.63L298.56,360.16L301.87,360.42L320.87,361.08L323.94,361.08L975.4,361.08" style="vector-effect: none; fill: none; stroke: rgb(237, 120, 51); stroke-opacity: 1; stroke-width: 2px; opacity: 1;"/></g><g class="points"/><g class="text"/></g><g class="trace scatter trace8a99d8" style="stroke-miterlimit: 2; opacity: 1;"><g class="fills"/><g class="errorbars"/><g class="lines"><path class="js-line" d="M56.6,54.81L63.14,84.79L64.59,90.75L72.59,120.31L74.34,126.18L83.82,155.32L85.86,161.11L96.93,189.71L99.36,195.31L109.86,217.32L112.67,222.71L124.68,243.88L127.88,249.07L141.42,269.41L144.99,274.39L159.84,293.29L163.63,297.62L175.22,309.64L179.14,313.32L191.11,323.37L195.17,326.4L207.52,334.5L211.71,336.87L224.45,343.02L228.76,344.74L249.53,351.97L253.5,353.17L272.39,357.88L275.97,358.57L292.98,360.77L296.19,360.95L320.87,361.08L323.94,361.08L975.4,361.08" style="vector-effect: none; fill: none; stroke: rgb(232, 98, 46); stroke-opacity: 1; stroke-width: 2px; opacity: 1;"/></g><g class="points"/><g class="text"/></g><g class="trace scatter trace4851cb" style="stroke-miterlimit: 2; opacity: 1;"><g class="fills"/><g class="errorbars"/><g class="lines"><path class="js-line" d="M56.6,54.81L63.05,84.82L64.48,90.78L74.1,126.27L75.87,132.14L87.5,167.07L89.63,172.83L98.84,195.51L101.32,201.09L111.96,223.06L114.79,228.46L126.85,249.71L130.04,254.94L143.52,275.34L147.07,280.16L158.12,293.76L161.95,298.01L173.85,309.91L177.95,313.59L190.69,323.78L195.08,326.89L208.66,335.37L213.32,337.92L231.47,346.75L235.79,348.62L252.19,354.82L256.07,356.04L270.72,359.59L274.16,360.15L287.07,361.08L290.14,361.08L975.4,361.08" style="vector-effect: none; fill: none; stroke: rgb(227, 75, 40); stroke-opacity: 1; stroke-width: 2px; opacity: 1;"/></g><g class="points"/><g class="text"/></g><g class="trace scatter tracee658a5" style="stroke-miterlimit: 2; opacity: 1;"><g class="fills"/><g class="errorbars"/><g class="lines"><path class="js-line" d="M56.6,54.81L62.93,84.85L64.34,90.82L73.77,126.37L75.51,132.25L84.9,161.48L86.94,167.27L95.76,190.12L98.13,195.76L111,223.47L113.78,228.92L128.66,255.71L131.85,260.94L142.07,275.98L145.69,280.77L157.2,294.46L161.25,298.8L174.05,311.15L178.53,315.04L192.63,326.05L197.54,329.49L217.11,341.75L221.74,344.35L239.13,352.87L243.2,354.53L254.73,358.39L258.35,359.3L268.53,360.91L271.7,361.07L505.24,361.08L508.32,361.08L975.4,361.08" style="vector-effect: none; fill: none; stroke: rgb(222, 53, 35); stroke-opacity: 1; stroke-width: 2px; opacity: 1;"/></g><g class="points"/><g class="text"/></g><g class="trace scatter traced6754e" style="stroke-miterlimit: 2; opacity: 1;"><g class="fills"/><g class="errorbars"/><g class="lines"><path class="js-line" d="M56.6,54.81L64.37,90.81L65.82,96.77L75.56,132.26L77.35,138.13L87.04,167.26L89.16,173.01L100.76,201.32L103.27,206.9L116.84,234.34L119.75,239.74L132.2,260.82L135.57,265.88L146.31,280.52L150.1,285.22L162.1,298.8L166.31,303.14L179.58,315.64L184.21,319.63L202.89,334.09L207.39,337.19L220.43,345.21L224.63,347.46L236.76,352.95L240.66,354.36L251.89,357.31L255.48,357.88L282.89,360.18L286.19,360.37L311.65,361.08L314.72,361.08L975.4,361.08" style="vector-effect: none; fill: none; stroke: rgb(217, 30, 30); stroke-opacity: 1; stroke-width: 2px; opacity: 1;"/></g><g class="points"/><g class="text"/></g></g></g></g><path class="xlines-above crisp" d="M0,0" style="fill: none;"/><path class="ylines-above crisp" d="M0,0" style="fill: none;"/><g class="overlines-above"/><g class="xaxislayer-above"><g class="xtick"><text text-anchor="middle" x="0" y="545" transform="translate(144.6,0)" style="font-family: 'Open Sans', verdana, arial, sans-serif; font-size: 24px; fill: rgb(0, 0, 0); fill-opacity: 1; white-space: pre; opacity: 1;">0</text></g><g class="xtick"><text text-anchor="middle" x="0" y="545" style="font-family: 'Open Sans', verdana, arial, sans-serif; font-size: 24px; fill: rgb(0, 0, 0); fill-opacity: 1; white-space: pre; opacity: 1;" transform="translate(297.73,0)">0.5</text></g><g class="xtick"><text text-anchor="middle" x="0" y="545" style="font-family: 'Open Sans', verdana, arial, sans-serif; font-size: 24px; fill: rgb(0, 0, 0); fill-opacity: 1; white-space: pre; opacity: 1;" transform="translate(450.87,0)">1</text></g><g class="xtick"><text text-anchor="middle" x="0" y="545" style="font-family: 'Open Sans', verdana, arial, sans-serif; font-size: 24px; fill: rgb(0, 0, 0); fill-opacity: 1; white-space: pre; opacity: 1;" transform="translate(604,0)">1.5</text></g><g class="xtick"><text text-anchor="middle" x="0" y="545" style="font-family: 'Open Sans', verdana, arial, sans-serif; font-size: 24px; fill: rgb(0, 0, 0); fill-opacity: 1; white-space: pre; opacity: 1;" transform="translate(757.13,0)">2</text></g><g class="xtick"><text text-anchor="middle" x="0" y="545" style="font-family: 'Open Sans', verdana, arial, sans-serif; font-size: 24px; fill: rgb(0, 0, 0); fill-opacity: 1; white-space: pre; opacity: 1;" transform="translate(910.27,0)">2.5</text></g><g class="xtick"><text text-anchor="middle" x="0" y="545" style="font-family: 'Open Sans', verdana, arial, sans-serif; font-size: 24px; fill: rgb(0, 0, 0); fill-opacity: 1; white-space: pre; opacity: 1;" transform="translate(1063.4,0)">3</text></g></g><g class="yaxislayer-above"><g class="ytick"><text text-anchor="end" x="87" y="8.399999999999999" transform="translate(0,461.08)" style="font-family: 'Open Sans', verdana, arial, sans-serif; font-size: 24px; fill: rgb(0, 0, 0); fill-opacity: 1; white-space: pre; opacity: 1;">0</text></g><g class="ytick"><text text-anchor="end" x="87" y="8.399999999999999" style="font-family: 'Open Sans', verdana, arial, sans-serif; font-size: 24px; fill: rgb(0, 0, 0); fill-opacity: 1; white-space: pre; opacity: 1;" transform="translate(0,399.83)">0.2</text></g><g class="ytick"><text text-anchor="end" x="87" y="8.399999999999999" style="font-family: 'Open Sans', verdana, arial, sans-serif; font-size: 24px; fill: rgb(0, 0, 0); fill-opacity: 1; white-space: pre; opacity: 1;" transform="translate(0,338.57)">0.4</text></g><g class="ytick"><text text-anchor="end" x="87" y="8.399999999999999" style="font-family: 'Open Sans', verdana, arial, sans-serif; font-size: 24px; fill: rgb(0, 0, 0); fill-opacity: 1; white-space: pre; opacity: 1;" transform="translate(0,277.32)">0.6</text></g><g class="ytick"><text text-anchor="end" x="87" y="8.399999999999999" style="font-family: 'Open Sans', verdana, arial, sans-serif; font-size: 24px; fill: rgb(0, 0, 0); fill-opacity: 1; white-space: pre; opacity: 1;" transform="translate(0,216.07)">0.8</text></g><g class="ytick"><text text-anchor="end" x="87" y="8.399999999999999" style="font-family: 'Open Sans', verdana, arial, sans-serif; font-size: 24px; fill: rgb(0, 0, 0); fill-opacity: 1; white-space: pre; opacity: 1;" transform="translate(0,154.81)">1</text></g></g><g class="overaxes-above"/></g></g><g class="polarlayer"/><g class="smithlayer"/><g class="ternarylayer"/><g class="geolayer"/><g class="funnelarealayer"/><g class="pielayer"/><g class="iciclelayer"/><g class="treemaplayer"/><g class="sunburstlayer"/><g class="glimages"/><defs id="topdefs-1b2049"><g class="clips"/><clipPath id="legend1b2049"><rect width="165" height="184" x="2" y="2"/></clipPath></defs><g class="layer-above"><g class="imagelayer"/><g class="shapelayer"/></g><g class="infolayer"><g class="legend" pointer-events="all" transform="translate(940.6799999999998,91.6)"><rect class="bg" shape-rendering="crispEdges" style="stroke: rgb(0, 0, 0); stroke-opacity: 1; fill: rgb(255, 255, 255); fill-opacity: 1; stroke-width: 2px;" width="167" height="186" x="1" y="1"/><g class="scrollbox" transform="" clip-path="url(#legend1b2049)"><g class="groups" transform=""><g class="traces" transform="translate(2,25.400000000000002)" style="opacity: 1;"><text class="legendtext" text-anchor="start" x="5" y="10.14" style="font-family: 'Open Sans', verdana, arial, sans-serif; font-size: 26px; fill: rgb(0, 0, 0); fill-opacity: 1; white-space: pre;">Trajectory</text><g class="layers"><g class="legendfill"/><g class="legendlines"/><g class="legendsymbols"><g class="legendpoints"/></g></g><rect class="legendtoggle" x="0" y="-18.400000000000002" width="159.671875" height="36.800000000000004" style="fill: rgb(0, 0, 0); fill-opacity: 0;"/></g><g class="traces" transform="translate(2,60.900000000000006)" style="opacity: 1;"><text class="legendtext" text-anchor="start" x="40" y="9.360000000000001" style="font-family: 'Open Sans', verdana, arial, sans-serif; font-size: 24px; fill: rgb(0, 0, 0); fill-opacity: 1; white-space: pre;">Reference</text><g class="layers" style="opacity: 1;"><g class="legendfill"/><g class="legendlines"><path class="js-line" d="M5,0h30" style="fill: none; stroke: rgb(0, 0, 0); stroke-opacity: 1; stroke-width: 2px;"/></g><g class="legendsymbols"><g class="legendpoints"/></g></g><rect class="legendtoggle" x="0" y="-17.1" width="159.671875" height="34.2" style="fill: rgb(0, 0, 0); fill-opacity: 0;"/></g><g class="traces" transform="translate(2,95.1)" style="opacity: 1;"><text class="legendtext" text-anchor="start" x="40" y="9.360000000000001" style="font-family: 'Open Sans', verdana, arial, sans-serif; font-size: 24px; fill: rgb(0, 0, 0); fill-opacity: 1; white-space: pre;">N = 3</text><g class="layers" style="opacity: 1;"><g class="legendfill"/><g class="legendlines"><path class="js-line" d="M5,0h30" style="fill: none; stroke: rgb(11, 102, 164); stroke-opacity: 1; stroke-width: 2px;"/></g><g class="legendsymbols"><g class="legendpoints"/></g></g><rect class="legendtoggle" x="0" y="-17.1" width="159.671875" height="34.2" style="fill: rgb(0, 0, 0); fill-opacity: 0;"/></g><g class="traces" transform="translate(2,129.3)" style="opacity: 1;"><text class="legendtext" text-anchor="start" x="40" y="9.360000000000001" style="font-family: 'Open Sans', verdana, arial, sans-serif; font-size: 24px; fill: rgb(0, 0, 0); fill-opacity: 1; white-space: pre;">N = 10</text><g class="layers" style="opacity: 1;"><g class="legendfill"/><g class="legendlines"><path class="js-line" d="M5,0h30" style="fill: none; stroke: rgb(242, 211, 56); stroke-opacity: 1; stroke-width: 2px;"/></g><g class="legendsymbols"><g class="legendpoints"/></g></g><rect class="legendtoggle" x="0" y="-17.1" width="159.671875" height="34.2" style="fill: rgb(0, 0, 0); fill-opacity: 0;"/></g><g class="traces" transform="translate(2,163.5)" style="opacity: 1;"><text class="legendtext" text-anchor="start" x="40" y="9.360000000000001" style="font-family: 'Open Sans', verdana, arial, sans-serif; font-size: 24px; fill: rgb(0, 0, 0); fill-opacity: 1; white-space: pre;">N = 20</text><g class="layers" style="opacity: 1;"><g class="legendfill"/><g class="legendlines"><path class="js-line" d="M5,0h30" style="fill: none; stroke: rgb(217, 30, 30); stroke-opacity: 1; stroke-width: 2px;"/></g><g class="legendsymbols"><g class="legendpoints"/></g></g><rect class="legendtoggle" x="0" y="-17.1" width="159.671875" height="34.2" style="fill: rgb(0, 0, 0); fill-opacity: 0;"/></g></g></g><rect class="scrollbar" rx="20" ry="3" width="0" height="0" style="fill: rgb(128, 139, 164); fill-opacity: 1;" x="0" y="0"/></g><g class="g-gtitle"/><g class="g-xtitle"><text class="xtitle" x="604" y="584.8" text-anchor="middle" style="opacity: 1; font-family: 'Open Sans', verdana, arial, sans-serif; font-size: 29px; fill: rgb(0, 0, 0); fill-opacity: 1; white-space: pre;">East [m]</text></g><g class="g-ytitle" transform="translate(5.900390625,0)"><text class="ytitle" transform="rotate(-90,23.099999999999994,310)" x="23.099999999999994" y="310" text-anchor="middle" style="opacity: 1; font-family: 'Open Sans', verdana, arial, sans-serif; font-size: 29px; fill: rgb(0, 0, 0); fill-opacity: 1; white-space: pre;">North [m]</text></g></g></svg>