<svg class="main-svg" xmlns="http://www.w3.org/2000/svg" xmlns:xlink="http://www.w3.org/1999/xlink" width="800" height="600" style="" viewBox="0 0 800 600"><rect x="0" y="0" width="800" height="600" style="fill: rgb(255, 255, 255); fill-opacity: 1;"/><defs id="defs-c972e0"><g class="clips"><clipPath id="clipc972e0xyplot" class="plotclip"><rect width="453" height="414"/></clipPath><clipPath class="axesclip" id="clipc972e0x"><rect x="98" y="0" width="453" height="600"/></clipPath><clipPath class="axesclip" id="clipc972e0y"><rect x="0" y="100" width="800" height="414"/></clipPath><clipPath class="axesclip" id="clipc972e0xy"><rect x="98" y="100" width="453" height="414"/></clipPath></g><g class="gradients"/><g class="patterns"/></defs><g class="bglayer"/><g class="layer-below"><g class="imagelayer"/><g class="shapelayer"/></g><g class="cartesianlayer"><g class="subplot xy"><g class="layer-subplot"><g class="shapelayer"/><g class="imagelayer"/></g><g class="minor-gridlayer"><g class="x"/><g class="y"/></g><g class="gridlayer"><g class="x"><path class="xgrid crisp" transform="translate(258.22,0)" d="M0,100v414" style="stroke: rgb(200, 200, 200); stroke-opacity: 1; stroke-width: 1px;"/><path class="xgrid crisp" transform="translate(390.78,0)" d="M0,100v414" style="stroke: rgb(200, 200, 200); stroke-opacity: 1; stroke-width: 1px;"/><path class="xgrid crisp" transform="translate(523.35,0)" d="M0,100v414" style="stroke: rgb(200, 200, 200); stroke-opacity: 1; stroke-width: 1px;"/></g><g class="y"><path class="ygrid crisp" transform="translate(0,414.78)" d="M98,0h453" style="stroke: rgb(200, 200, 200); stroke-opacity: 1; stroke-width: 1px;"/><path class="ygrid crisp" transform="translate(0,341.26)" d="M98,0h453" style="stroke: rgb(200, 200, 200); stroke-opacity: 1; stroke-width: 1px;"/><path class="ygrid crisp" transform="translate(0,267.74)" d="M98,0h453" style="stroke: rgb(200, 200, 200); stroke-opacity: 1; stroke-width: 1px;"/><path class="ygrid crisp" transform="translate(0,194.22)" d="M98,0h453" style="stroke: rgb(200, 200, 200); stroke-opacity: 1; stroke-width: 1px;"/><path class="ygrid crisp" transform="translate(0,120.7)" d="M98,0h453" style="stroke: rgb(200, 200, 200); stroke-opacity: 1; stroke-width: 1px;"/></g></g><g class="zerolinelayer"><path class="xzl zl crisp" transform="translate(125.65,0)" d="M0,100v414" style="stroke: rgb(200, 200, 200); stroke-opacity: 1; stroke-width: 2px;"/><path class="yzl zl crisp" transform="translate(0,488.3)" d="M98,0h453" style="stroke: rgb(200, 200, 200); stroke-opacity: 1; stroke-width: 2px;"/></g><g class="layer-between"><g class="shapelayer"/><g class="imagelayer"/></g><path class="xlines-below"/><path class="ylines-below"/><g class="overlines-below"/><g class="xaxislayer-below"/><g class="yaxislayer-below"/><g class="overaxes-below"/><g class="overplot"><g class="xy" transform="translate(98,100)" clip-path="url(#clipc972e0xyplot)"><g class="scatterlayer mlayer"><g class="trace scatter trace3c2b4e" style="stroke-miterlimit: 2; opacity: 1;"><g class="fills"/><g class="errorbars"/><g class="lines"><path class="js-line" d="M27.65,388.3L425.35,388.3" style="vector-effect: none; fill: none; stroke: rgb(0, 0, 0); stroke-opacity: 1; stroke-width: 2px; opacity: 1;"/></g><g class="points"/><g class="text"/></g><g class="trace scatter tracefa9d48" style="stroke-miterlimit: 2; opacity: 1;"><g class="fills"/><g class="errorbars"/><g class="lines"/><g class="points"><path class="point" transform="translate(27.65,388.3)" d="M4,0A4,4 0 1,1 0,-4A4,4 0 0,1 4,0Z" style="opacity: 1; stroke-width: 0px; fill: rgb(0, 0, 0); fill-opacity: 1;"/><path class="point" transform="translate(425.35,388.3)" d="M4,0A4,4 0 1,1 0,-4A4,4 0 0,1 4,0Z" style="opacity: 1; stroke-width: 0px; fill: rgb(0, 0, 0); fill-opacity: 1;"/></g><g class="text"/></g><g class="trace scatter trace1e825a" style="stroke-miterlimit: 2; opacity: 1;"><g class="fills"/><g class="errorbars"/><g class="lines"><path class="js-line" d="M27.65,20.7L54.25,68.23L55.58,70.52L80.85,112.48L82.18,114.6L106.13,151.46L107.46,153.43L131.4,187.48L132.73,189.29L156.67,220.52L158,222.18L180.61,249.09L181.94,250.6L204.55,274.99L205.88,276.36L227.17,297.01L228.5,298.23L248.45,315.57L249.78,316.66L269.73,332.01L271.06,332.97L291.01,346.36L292.34,347.18L310.96,357.89L312.29,358.59L330.91,367.57L332.24,368.15L350.86,375.41L352.19,375.86L370.82,381.39L372.15,381.72L389.44,385.3L390.77,385.52L409.39,387.71L410.72,387.8L425.35,388.3" style="vector-effect: none; fill: none; stroke: rgb(11, 102, 164); stroke-opacity: 1; stroke-width: 2px; opacity: 1;"/></g><g class="points"/><g class="text"/></g><g class="trace scatter traceb01f11" style="stroke-miterlimit: 2; opacity: 1;"><g class="fills"/><g class="errorbars"/><g class="lines"><path class="js-line" d="M27.65,20.7L44.94,81.85L46.27,86.32L62.23,137.44L63.56,141.49L79.52,187.48L80.85,191.09L95.49,228.72L96.82,231.95L111.45,265.24L112.78,268.07L126.08,294.55L127.41,297.01L140.71,319.88L142.04,321.98L154.01,339.45L155.34,341.22L165.98,354.25L167.31,355.73L177.95,366.39L179.28,367.57L189.92,375.86L191.25,376.75L200.56,382.05L201.89,382.67L211.2,386.12L212.53,386.49L221.84,388.1L223.17,388.2L241.8,388.3L243.13,388.3L425.35,388.3" style="vector-effect: none; fill: none; stroke: rgb(10, 119, 175); stroke-opacity: 1; stroke-width: 2px; opacity: 1;"/></g><g class="points"/><g class="text"/></g><g class="trace scatter trace23d61b" style="stroke-miterlimit: 2; opacity: 1;"><g class="fills"/><g class="errorbars"/><g class="lines"><path class="js-line" d="M27.65,20.7L40.86,89.51L42.08,95.39L54.33,150.78L55.57,155.97L66.8,199.94L68.06,204.51L79.48,242.87L80.76,246.82L91.07,276.18L92.37,279.57L102.83,304.44L104.15,307.27L113.43,325.33L114.77,327.66L124.17,342.24L125.52,344.07L133.67,353.75L135.04,355.15L143.28,362.22L144.66,363.18L151.6,367.05L152.99,367.64L162.78,370.55L164.18,370.92L194.73,378.08L196.11,378.36L222.21,382.95L223.58,383.15L249.41,386.26L250.76,386.38L277.66,388.05L279,388.09L310.96,388.3L312.29,388.3L425.35,388.3" style="vector-effect: none; fill: none; stroke: rgb(10, 136, 186); stroke-opacity: 1; stroke-width: 2px; opacity: 1;"/></g><g class="points"/><g class="text"/></g><g class="trace scatter tracedce62e" style="stroke-miterlimit: 2; opacity: 1;"><g class="fills"/><g class="errorbars"/><g class="lines"><path class="js-line" d="M27.65,20.7L36.38,79.91L37.39,86.13L46.83,138.79L47.92,144.28L56.92,185.55L58.08,190.38L67.65,226.42L68.88,230.59L77.73,257.79L79.02,261.38L88.32,284.5L89.68,287.51L98,304.05L99.41,306.56L108.07,320.04L109.54,322.03L117.01,330.9L118.53,332.45L133.7,346.28L135.2,347.55L150.08,359.21L151.55,360.27L167.58,370.61L169.02,371.43L183.29,378.58L184.7,379.19L197.29,383.77L198.68,384.18L211.03,387L212.39,387.22L224.5,388.28L225.83,388.3L425.35,388.3" style="vector-effect: none; fill: none; stroke: rgb(56, 151, 160); stroke-opacity: 1; stroke-width: 2px; opacity: 1;"/></g><g class="points"/><g class="text"/></g><g class="trace scatter trace6de8ae" style="stroke-miterlimit: 2; opacity: 1;"><g class="fills"/><g class="errorbars"/><g class="lines"><path class="js-line" d="M27.65,20.7L34.22,74.84L35.1,81.27L42.7,130.06L43.71,135.82L51.19,174.08L52.32,179.24L60.6,213.33L61.84,217.9L70.92,247.82L72.27,251.8L80.69,274.1L82.14,277.55L91.15,296.72L92.71,299.66L102.27,315.77L103.87,318.27L118.06,338.77L119.61,340.83L131.86,355.73L133.37,357.4L145.29,369.15L146.75,370.42L156.9,378.1L158.33,379.02L168.2,384.26L169.6,384.83L177.85,387.35L179.21,387.61L187.26,388.3L188.59,388.3L425.35,388.3" style="vector-effect: none; fill: none; stroke: rgb(103, 166, 134); stroke-opacity: 1; stroke-width: 2px; opacity: 1;"/></g><g class="points"/><g class="text"/></g><g class="trace scatter tracea8ae37" style="stroke-miterlimit: 2; opacity: 1;"><g class="fills"/><g class="errorbars"/><g class="lines"><path class="js-line" d="M27.65,20.7L33.47,75.79L34.29,82.38L40.61,126.58L41.6,132.62L49.07,173.05L50.22,178.55L58.85,215.2L60.17,220.17L68.49,248.55L69.95,253.05L79.14,278.6L80.74,282.62L92.31,308.82L93.95,312.26L105.24,334.23L106.83,337.06L117.73,354.76L119.26,356.98L128.3,368.72L129.78,370.41L138.54,378.95L139.97,380.1L147.04,384.74L148.43,385.44L155.29,387.79L156.65,388.03L164.65,388.3L165.98,388.3L425.35,388.3" style="vector-effect: none; fill: none; stroke: rgb(149, 181, 108); stroke-opacity: 1; stroke-width: 2px; opacity: 1;"/></g><g class="points"/><g class="text"/></g><g class="trace scatter trace5be9ea" style="stroke-miterlimit: 2; opacity: 1;"><g class="fills"/><g class="errorbars"/><g class="lines"><path class="js-line" d="M27.65,20.7L32.22,69.92L32.98,76.74L39.06,123.06L40.04,129.47L47.65,172.89L48.84,178.89L56.58,213.77L57.97,219.4L66.85,252.11L68.42,257.38L78.41,287.85L80.11,292.64L91.76,322.9L93.39,326.76L102.97,347.42L104.53,350.46L113.73,366.21L115.23,368.42L122.6,377.75L124.05,379.26L129.75,384.14L131.15,385.07L136.67,387.61L138.02,387.95L143.37,388.3L144.7,388.3L425.35,388.3" style="vector-effect: none; fill: none; stroke: rgb(196, 196, 82); stroke-opacity: 1; stroke-width: 2px; opacity: 1;"/></g><g class="points"/><g class="text"/></g><g class="trace scatter trace221cea" style="stroke-miterlimit: 2; opacity: 1;"><g class="fills"/><g class="errorbars"/><g class="lines"><path class="js-line" d="M27.65,20.7L32.16,70.35L32.92,77.29L39.04,124.89L40.03,131.54L47.77,177.09L48.99,183.45L58.34,226.94L59.79,233.01L69.09,268.61L70.71,274.3L80.29,305.34L81.87,310L91.24,334.89L92.78,338.52L100.43,354.5L101.94,357.25L109.44,368.83L110.93,370.71L116.82,376.74L118.28,377.89L124.06,380.99L125.5,381.41L142.49,385.14L143.89,385.39L160.46,387.56L161.82,387.68L177.95,388.3L179.28,388.3L425.35,388.3" style="vector-effect: none; fill: none; stroke: rgb(242, 211, 56); stroke-opacity: 1; stroke-width: 2px; opacity: 1;"/></g><g class="points"/><g class="text"/></g><g class="trace scatter trace658772" style="stroke-miterlimit: 2; opacity: 1;"><g class="fills"/><g class="errorbars"/><g class="lines"><path class="js-line" d="M27.65,20.7L32.19,70.46L32.95,77.45L38.97,125.53L39.93,132.27L47.42,178.68L48.6,185.19L57.56,229.91L58.95,236.18L67.58,271.81L69.04,277.23L77.92,306.65L79.42,311.03L87,330.67L88.53,334.15L96.28,349.3L97.84,351.88L104.16,360.71L105.75,362.54L112.18,368.38L113.79,369.58L126.33,377.85L127.86,378.71L138.32,383.72L139.78,384.28L149.77,387.2L151.16,387.47L160.66,388.3L161.99,388.3L425.35,388.3" style="vector-effect: none; fill: none; stroke: rgb(242, 197, 56); stroke-opacity: 1; stroke-width: 2px; opacity: 1;"/></g><g class="points"/><g class="text"/></g><g class="trace scatter trace7a5573" style="stroke-miterlimit: 2; opacity: 1;"><g class="fills"/><g class="errorbars"/><g class="lines"><path class="js-line" d="M27.65,20.7L32.83,77.64L33.59,84.64L39.57,132.96L40.52,139.76L47.88,186.68L49.03,193.28L57.74,238.53L59.06,244.62L67.34,278.22L68.78,283.32L76.21,306.7L77.75,310.95L85.67,330.08L87.31,333.47L94.01,345.65L95.72,348.34L104.47,359.81L106.2,361.83L116.28,372.39L117.9,373.89L127.36,381.33L128.88,382.31L136.28,386.1L137.72,386.63L144.68,388.19L146.03,388.28L196.57,388.3L197.9,388.3L425.35,388.3" style="vector-effect: none; fill: none; stroke: rgb(242, 184, 56); stroke-opacity: 1; stroke-width: 2px; opacity: 1;"/></g><g class="points"/><g class="text"/></g><g class="trace scatter trace9c958b" style="stroke-miterlimit: 2; opacity: 1;"><g class="fills"/><g class="errorbars"/><g class="lines"><path class="js-line" d="M27.65,20.7L32.64,77.83L33.37,84.87L40.02,140.45L40.96,147.3L49.27,201.31L50.41,207.97L57.83,245.71L59.16,251.57L66.22,278.99L67.72,284.1L75.6,307.81L77.26,312.18L85.97,332.16L87.79,335.79L97.14,352.06L98.98,354.96L109.55,369.78L111.23,371.83L119.36,380.28L120.92,381.61L126.96,385.72L128.41,386.45L134.03,388.16L135.39,388.28L185.93,388.3L187.26,388.3L425.35,388.3" style="vector-effect: none; fill: none; stroke: rgb(242, 170, 56); stroke-opacity: 1; stroke-width: 2px; opacity: 1;"/></g><g class="points"/><g class="text"/></g><g class="trace scatter tracef03732" style="stroke-miterlimit: 2; opacity: 1;"><g class="fills"/><g class="errorbars"/><g class="lines"><path class="js-line" d="M27.65,20.7L32.43,78.01L33.13,85.09L39.5,141.04L40.39,147.95L48.35,202.49L49.47,209.11L55.64,240.74L56.99,246.77L64.3,275.51L65.88,280.97L74.35,306.81L76.16,311.69L85.77,334.64L87.76,338.89L97.32,357.51L99.15,360.7L107.89,374.06L109.56,376.21L115.94,383.04L117.47,384.31L123.31,387.64L124.71,388.03L130.07,388.3L131.4,388.3L425.35,388.3" style="vector-effect: none; fill: none; stroke: rgb(242, 157, 56); stroke-opacity: 1; stroke-width: 2px; opacity: 1;"/></g><g class="points"/><g class="text"/></g><g class="trace scatter trace35054d" style="stroke-miterlimit: 2; opacity: 1;"><g class="fills"/><g class="errorbars"/><g class="lines"><path class="js-line" d="M27.65,20.7L32.43,78.04L33.12,85.12L39.46,141.16L40.36,148.09L47.23,195.93L48.34,202.57L54.47,234.67L55.81,240.87L63.11,270.77L64.69,276.53L73.16,304.22L74.97,309.54L84.36,334.44L86.21,338.86L95.15,357.85L96.88,361.03L103.62,371.69L105.26,373.85L111.63,380.4L113.18,381.52L117.7,383.66L119.18,384.05L133.59,387.04L134.99,387.24L148.69,388.29L150.02,388.3L425.35,388.3" style="vector-effect: none; fill: none; stroke: rgb(242, 143, 56); stroke-opacity: 1; stroke-width: 2px; opacity: 1;"/></g><g class="points"/><g class="text"/></g><g class="trace scatter trace8ad712" style="stroke-miterlimit: 2; opacity: 1;"><g class="fills"/><g class="errorbars"/><g class="lines"><path class="js-line" d="M27.65,20.7L32.46,78.04L33.15,85.13L39.51,141.2L40.4,148.13L47.35,195.88L48.47,202.49L55.95,240.93L57.33,247.13L66.31,283.06L67.94,288.83L76.48,316.44L78.21,321.45L86.83,343.36L88.55,347.12L95.39,360.08L97.09,362.8L103.88,371.59L105.58,373.27L112.29,378.19L113.94,379.21L123.46,384.16L124.99,384.8L133.81,387.51L135.22,387.77L143.37,388.3L144.7,388.3L425.35,388.3" style="vector-effect: none; fill: none; stroke: rgb(237, 120, 51); stroke-opacity: 1; stroke-width: 2px; opacity: 1;"/></g><g class="points"/><g class="text"/></g><g class="trace scatter trace7d0420" style="stroke-miterlimit: 2; opacity: 1;"><g class="fills"/><g class="errorbars"/><g class="lines"><path class="js-line" d="M27.65,20.7L32.43,78.07L33.12,85.17L39.43,141.34L40.31,148.28L47.25,196.01L48.37,202.64L55.77,241.35L57.12,247.63L65.91,284.24L67.49,290.17L75.64,317.14L77.31,321.95L84.13,339.21L85.87,343.04L92.98,356.4L94.79,359.25L102.17,368.69L104.02,370.63L114.57,380.13L116.23,381.37L124.13,386.02L125.63,386.64L131.36,388.15L132.72,388.27L167.31,388.3L168.64,388.3L425.35,388.3" style="vector-effect: none; fill: none; stroke: rgb(232, 98, 46); stroke-opacity: 1; stroke-width: 2px; opacity: 1;"/></g><g class="points"/><g class="text"/></g><g class="trace scatter trace3ee367" style="stroke-miterlimit: 2; opacity: 1;"><g class="fills"/><g class="errorbars"/><g class="lines"><path class="js-line" d="M27.65,20.7L32.37,78.13L33.05,85.24L39.26,141.53L40.13,148.49L47.01,196.27L48.11,202.93L55.39,241.96L56.71,248.32L65.27,285.39L66.81,291.17L73.25,312.6L74.94,317.53L81.98,335.55L83.82,339.62L91.48,354.22L93.47,357.44L103.34,371.09L105.21,373.35L113.99,382.25L115.63,383.55L121.82,387.19L123.27,387.7L127.41,388.3L128.74,388.3L425.35,388.3" style="vector-effect: none; fill: none; stroke: rgb(227, 75, 40); stroke-opacity: 1; stroke-width: 2px; opacity: 1;"/></g><g class="points"/><g class="text"/></g><g class="trace scatter trace30a405" style="stroke-miterlimit: 2; opacity: 1;"><g class="fills"/><g class="errorbars"/><g class="lines"><path class="js-line" d="M27.65,20.7L32.95,85.32L33.64,92.42L39.9,148.72L40.78,155.68L47.77,203.29L48.88,209.94L57.5,255.47L58.84,261.82L64.65,286.16L66.21,291.91L72.95,313.55L74.75,318.63L82.42,337.58L84.45,341.98L92.97,358.18L95.08,361.75L102.99,373.78L104.85,376.23L111.8,383.75L113.41,385.07L117.96,387.68L119.38,388.09L124.75,388.3L126.08,388.3L425.35,388.3" style="vector-effect: none; fill: none; stroke: rgb(222, 53, 35); stroke-opacity: 1; stroke-width: 2px; opacity: 1;"/></g><g class="points"/><g class="text"/></g><g class="trace scatter trace2484a2" style="stroke-miterlimit: 2; opacity: 1;"><g class="fills"/><g class="errorbars"/><g class="lines"><path class="js-line" d="M27.65,20.7L32.29,78.2L32.97,85.32L39.07,141.76L39.93,148.73L46.76,196.55L47.85,203.24L56.27,249.11L57.59,255.5L64.88,285.86L66.48,291.61L75.14,318.76L77.01,323.87L84.94,343.23L86.98,347.71L94.83,363.08L96.71,366.29L103.91,376.6L105.63,378.54L110.59,382.85L112.18,383.78L118.27,385.7L119.76,386.06L131.25,387.96L132.63,388.08L144.7,388.3L146.03,388.3L425.35,388.3" style="vector-effect: none; fill: none; stroke: rgb(217, 30, 30); stroke-opacity: 1; stroke-width: 2px; opacity: 1;"/></g><g class="points"/><g class="text"/></g></g></g></g><path class="xlines-above crisp" d="M0,0" style="fill: none;"/><path class="ylines-above crisp" d="M0,0" style="fill: none;"/><g class="overlines-above"/><g class="xaxislayer-above"><g class="xtick"><text text-anchor="middle" x="0" y="543" transform="translate(125.65,0)" style="font-family: 'Open Sans', verdana, arial, sans-serif; font-size: 28px; fill: rgb(0, 0, 0); fill-opacity: 1; white-space: pre; opacity: 1;">0</text></g><g class="xtick"><text text-anchor="middle" x="0" y="543" style="font-family: 'Open Sans', verdana, arial, sans-serif; font-size: 28px; fill: rgb(0, 0, 0); fill-opacity: 1; white-space: pre; opacity: 1;" transform="translate(258.22,0)">1</text></g><g class="xtick"><text text-anchor="middle" x="0" y="543" style="font-family: 'Open Sans', verdana, arial, sans-serif; font-size: 28px; fill: rgb(0, 0, 0); fill-opacity: 1; white-space: pre; opacity: 1;" transform="translate(390.78,0)">2</text></g><g class="xtick"><text text-anchor="middle" x="0" y="543" style="font-family: 'Open Sans', verdana, arial, sans-serif; font-size: 28px; fill: rgb(0, 0, 0); fill-opacity: 1; white-space: pre; opacity: 1;" transform="translate(523.35,0)">3</text></g></g><g class="yaxislayer-above"><g class="ytick"><text text-anchor="end" x="97" y="9.799999999999999" transform="translate(0,488.3)" style="font-family: 'Open Sans', verdana, arial, sans-serif; font-size: 28px; fill: rgb(0, 0, 0); fill-opacity: 1; white-space: pre; opacity: 1;">0</text></g><g class="ytick"><text text-anchor="end" x="97" y="9.799999999999999" style="font-family: 'Open Sans', verdana, arial, sans-serif; font-size: 28px; fill: rgb(0, 0, 0); fill-opacity: 1; white-space: pre; opacity: 1;" transform="translate(0,414.78)">0.2</text></g><g class="ytick"><text text-anchor="end" x="97" y="9.799999999999999" style="font-family: 'Open Sans', verdana, arial, sans-serif; font-size: 28px; fill: rgb(0, 0, 0); fill-opacity: 1; white-space: pre; opacity: 1;" transform="translate(0,341.26)">0.4</text></g><g class="ytick"><text text-anchor="end" x="97" y="9.799999999999999" style="font-family: 'Open Sans', verdana, arial, sans-serif; font-size: 28px; fill: rgb(0, 0, 0); fill-opacity: 1; white-space: pre; opacity: 1;" transform="translate(0,267.74)">0.6</text></g><g class="ytick"><text text-anchor="end" x="97" y="9.799999999999999" style="font-family: 'Open Sans', verdana, arial, sans-serif; font-size: 28px; fill: rgb(0, 0, 0); fill-opacity: 1; white-space: pre; opacity: 1;" transform="translate(0,194.22)">0.8</text></g><g class="ytick"><text text-anchor="end" x="97" y="9.799999999999999" style="font-family: 'Open Sans', verdana, arial, sans-serif; font-size: 28px; fill: rgb(0, 0, 0); fill-opacity: 1; white-space: pre; opacity: 1;" transform="translate(0,120.7)">1</text></g></g><g class="overaxes-above"/></g></g><g class="polarlayer"/><g class="smithlayer"/><g class="ternarylayer"/><g class="geolayer"/><g class="funnelarealayer"/><g class="pielayer"/><g class="iciclelayer"/><g class="treemaplayer"/><g class="sunburstlayer"/><g class="glimages"/><defs id="topdefs-c972e0"><g class="clips"/><clipPath id="legendc972e0"><rect width="228" height="343" x="0" y="0"/></clipPath></defs><g class="layer-above"><g class="imagelayer"/><g class="shapelayer"/></g><g class="infolayer"><g class="legend" pointer-events="all" transform="translate(560.06,100)"><rect class="bg" shape-rendering="crispEdges" style="stroke: rgb(68, 68, 68); stroke-opacity: 1; fill: rgb(255, 255, 255); fill-opacity: 1; stroke-width: 0px;" width="228" height="343" x="0" y="0"/><g class="scrollbox" transform="" clip-path="url(#legendc972e0)"><g class="groups" transform=""><g class="traces" transform="translate(0,26.650000000000002)" style="opacity: 1;"><text class="legendtext" text-anchor="start" x="5" y="12.090000000000002" style="font-family: 'Open Sans', verdana, arial, sans-serif; font-size: 31px; fill: rgb(0, 0, 0); fill-opacity: 1; white-space: pre;">Reference</text><g class="layers"><g class="legendfill"/><g class="legendlines"/><g class="legendsymbols"><g class="legendpoints"/></g></g><rect class="legendtoggle" x="0" y="-21.650000000000002" width="222.65625" height="43.300000000000004" style="fill: rgb(0, 0, 0); fill-opacity: 0;"/></g><g class="traces" transform="translate(0,68)" style="opacity: 1;"><text class="legendtext" text-anchor="start" x="40" y="10.92" style="font-family: 'Open Sans', verdana, arial, sans-serif; font-size: 28px; fill: rgb(0, 0, 0); fill-opacity: 1; white-space: pre;">Reference</text><g class="layers" style="opacity: 1;"><g class="legendfill"/><g class="legendlines"><path class="js-line" d="M5,0h30" style="fill: none; stroke: rgb(0, 0, 0); stroke-opacity: 1; stroke-width: 2px;"/></g><g class="legendsymbols"><g class="legendpoints"/></g></g><rect class="legendtoggle" x="0" y="-19.7" width="222.65625" height="39.4" style="fill: rgb(0, 0, 0); fill-opacity: 0;"/></g><g class="traces" transform="translate(0,107.4)" style="opacity: 1;"><text class="legendtext" text-anchor="start" x="40" y="10.92" style="font-family: 'Open Sans', verdana, arial, sans-serif; font-size: 28px; fill: rgb(0, 0, 0); fill-opacity: 1; white-space: pre;">Control point</text><g class="layers" style="opacity: 1;"><g class="legendfill"/><g class="legendlines"/><g class="legendsymbols"><g class="legendpoints"><path class="scatterpts" transform="translate(20,0)" d="M4,0A4,4 0 1,1 0,-4A4,4 0 0,1 4,0Z" style="opacity: 1; stroke-width: 0px; fill: rgb(0, 0, 0); fill-opacity: 1;"/></g></g></g><rect class="legendtoggle" x="0" y="-19.7" width="222.65625" height="39.4" style="fill: rgb(0, 0, 0); fill-opacity: 0;"/></g></g><g class="groups" transform="translate(0,10)"><g class="traces" transform="translate(0,148.75)" style="opacity: 1;"><text class="legendtext" text-anchor="start" x="5" y="12.090000000000002" style="font-family: 'Open Sans', verdana, arial, sans-serif; font-size: 31px; fill: rgb(0, 0, 0); fill-opacity: 1; white-space: pre;">Trajectory</text><g class="layers"><g class="legendfill"/><g class="legendlines"/><g class="legendsymbols"><g class="legendpoints"/></g></g><rect class="legendtoggle" x="0" y="-21.650000000000002" width="222.65625" height="43.300000000000004" style="fill: rgb(0, 0, 0); fill-opacity: 0;"/></g><g class="traces" transform="translate(0,190.1)" style="opacity: 1;"><text class="legendtext" text-anchor="start" x="40" y="10.92" style="font-family: 'Open Sans', verdana, arial, sans-serif; font-size: 28px; fill: rgb(0, 0, 0); fill-opacity: 1; white-space: pre;">N = 5</text><g class="layers" style="opacity: 1;"><g class="legendfill"/><g class="legendlines"><path class="js-line" d="M5,0h30" style="fill: none; stroke: rgb(10, 136, 186); stroke-opacity: 1; stroke-width: 2px;"/></g><g class="legendsymbols"><g class="legendpoints"/></g></g><rect class="legendtoggle" x="0" y="-19.7" width="222.65625" height="39.4" style="fill: rgb(0, 0, 0); fill-opacity: 0;"/></g><g class="traces" transform="translate(0,229.5)" style="opacity: 1;"><text class="legendtext" text-anchor="start" x="40" y="10.92" style="font-family: 'Open Sans', verdana, arial, sans-serif; font-size: 28px; fill: rgb(0, 0, 0); fill-opacity: 1; white-space: pre;">N = 10</text><g class="layers" style="opacity: 1;"><g class="legendfill"/><g class="legendlines"><path class="js-line" d="M5,0h30" style="fill: none; stroke: rgb(242, 211, 56); stroke-opacity: 1; stroke-width: 2px;"/></g><g class="legendsymbols"><g class="legendpoints"/></g></g><rect class="legendtoggle" x="0" y="-19.7" width="222.65625" height="39.4" style="fill: rgb(0, 0, 0); fill-opacity: 0;"/></g><g class="traces" transform="translate(0,268.90000000000003)" style="opacity: 1;"><text class="legendtext" text-anchor="start" x="40" y="10.92" style="font-family: 'Open Sans', verdana, arial, sans-serif; font-size: 28px; fill: rgb(0, 0, 0); fill-opacity: 1; white-space: pre;">N = 15</text><g class="layers" style="opacity: 1;"><g class="legendfill"/><g class="legendlines"><path class="js-line" d="M5,0h30" style="fill: none; stroke: rgb(242, 143, 56); stroke-opacity: 1; stroke-width: 2px;"/></g><g class="legendsymbols"><g class="legendpoints"/></g></g><rect class="legendtoggle" x="0" y="-19.7" width="222.65625" height="39.4" style="fill: rgb(0, 0, 0); fill-opacity: 0;"/></g><g class="traces" transform="translate(0,308.3)" style="opacity: 1;"><text class="legendtext" text-anchor="start" x="40" y="10.92" style="font-family: 'Open Sans', verdana, arial, sans-serif; font-size: 28px; fill: rgb(0, 0, 0); fill-opacity: 1; white-space: pre;">N = 20</text><g class="layers" style="opacity: 1;"><g class="legendfill"/><g class="legendlines"><path class="js-line" d="M5,0h30" style="fill: none; stroke: rgb(217, 30, 30); stroke-opacity: 1; stroke-width: 2px;"/></g><g class="legendsymbols"><g class="legendpoints"/></g></g><rect class="legendtoggle" x="0" y="-19.7" width="222.65625" height="39.4" style="fill: rgb(0, 0, 0); fill-opacity: 0;"/></g></g></g><rect class="scrollbar" rx="20" ry="3" width="0" height="0" style="fill: rgb(128, 139, 164); fill-opacity: 1;" x="0" y="0"/></g><g class="g-gtitle"/><g class="g-xtitle"><text class="xtitle" x="324.5" y="587.3" text-anchor="middle" style="opacity: 1; font-family: 'Open Sans', verdana, arial, sans-serif; font-size: 34px; fill: rgb(0, 0, 0); fill-opacity: 1; white-space: pre;">East [m]</text></g><g class="g-ytitle" transform="translate(9.197265625,0)"><text class="ytitle" transform="rotate(-90,24.803124999999994,307)" x="24.803124999999994" y="307" text-anchor="middle" style="opacity: 1; font-family: 'Open Sans', verdana, arial, sans-serif; font-size: 34px; fill: rgb(0, 0, 0); fill-opacity: 1; white-space: pre;">North [m]</text></g></g></svg>