<svg class="main-svg" xmlns="http://www.w3.org/2000/svg" xmlns:xlink="http://www.w3.org/1999/xlink" width="800" height="600" style="" viewBox="0 0 800 600"><rect x="0" y="0" width="800" height="600" style="fill: rgb(255, 255, 255); fill-opacity: 1;"/><defs id="defs-044425"><g class="clips"><clipPath id="clip044425xyplot" class="plotclip"><rect width="453" height="414"/></clipPath><clipPath class="axesclip" id="clip044425x"><rect x="98" y="0" width="453" height="600"/></clipPath><clipPath class="axesclip" id="clip044425y"><rect x="0" y="100" width="800" height="414"/></clipPath><clipPath class="axesclip" id="clip044425xy"><rect x="98" y="100" width="453" height="414"/></clipPath></g><g class="gradients"/><g class="patterns"/></defs><g class="bglayer"/><g class="layer-below"><g class="imagelayer"/><g class="shapelayer"/></g><g class="cartesianlayer"><g class="subplot xy"><g class="layer-subplot"><g class="shapelayer"/><g class="imagelayer"/></g><g class="minor-gridlayer"><g class="x"/><g class="y"/></g><g class="gridlayer"><g class="x"><path class="xgrid crisp" transform="translate(258.22,0)" d="M0,100v414" style="stroke: rgb(200, 200, 200); stroke-opacity: 1; stroke-width: 1px;"/><path class="xgrid crisp" transform="translate(390.78,0)" d="M0,100v414" style="stroke: rgb(200, 200, 200); stroke-opacity: 1; stroke-width: 1px;"/><path class="xgrid crisp" transform="translate(523.35,0)" d="M0,100v414" style="stroke: rgb(200, 200, 200); stroke-opacity: 1; stroke-width: 1px;"/></g><g class="y"><path class="ygrid crisp" transform="translate(0,387.64)" d="M98,0h453" style="stroke: rgb(200, 200, 200); stroke-opacity: 1; stroke-width: 1px;"/><path class="ygrid crisp" transform="translate(0,320.90999999999997)" d="M98,0h453" style="stroke: rgb(200, 200, 200); stroke-opacity: 1; stroke-width: 1px;"/><path class="ygrid crisp" transform="translate(0,254.17)" d="M98,0h453" style="stroke: rgb(200, 200, 200); stroke-opacity: 1; stroke-width: 1px;"/><path class="ygrid crisp" transform="translate(0,187.44)" d="M98,0h453" style="stroke: rgb(200, 200, 200); stroke-opacity: 1; stroke-width: 1px;"/><path class="ygrid crisp" transform="translate(0,120.7)" d="M98,0h453" style="stroke: rgb(200, 200, 200); stroke-opacity: 1; stroke-width: 1px;"/></g></g><g class="zerolinelayer"><path class="xzl zl crisp" transform="translate(125.65,0)" d="M0,100v414" style="stroke: rgb(200, 200, 200); stroke-opacity: 1; stroke-width: 2px;"/><path class="yzl zl crisp" transform="translate(0,454.38)" d="M98,0h453" style="stroke: rgb(200, 200, 200); stroke-opacity: 1; stroke-width: 2px;"/></g><g class="layer-between"><g class="shapelayer"/><g class="imagelayer"/></g><path class="xlines-below"/><path class="ylines-below"/><g class="overlines-below"/><g class="xaxislayer-below"/><g class="yaxislayer-below"/><g class="overaxes-below"/><g class="overplot"><g class="xy" transform="translate(98,100)" clip-path="url(#clip044425xyplot)"><g class="scatterlayer mlayer"><g class="trace scatter tracedc8b9b" style="stroke-miterlimit: 2; opacity: 1;"><g class="fills"/><g class="errorbars"/><g class="lines"><path class="js-line" d="M27.65,354.38L425.35,354.38" style="vector-effect: none; fill: none; stroke: rgb(0, 0, 0); stroke-opacity: 1; stroke-width: 2px; opacity: 1;"/></g><g class="points"/><g class="text"/></g><g class="trace scatter tracebafcb4" style="stroke-miterlimit: 2; opacity: 1;"><g class="fills"/><g class="errorbars"/><g class="lines"/><g class="points"><path class="point" transform="translate(27.65,354.38)" d="M4,0A4,4 0 1,1 0,-4A4,4 0 0,1 4,0Z" style="opacity: 1; stroke-width: 0px; fill: rgb(0, 0, 0); fill-opacity: 1;"/><path class="point" transform="translate(425.35,354.38)" d="M4,0A4,4 0 1,1 0,-4A4,4 0 0,1 4,0Z" style="opacity: 1; stroke-width: 0px; fill: rgb(0, 0, 0); fill-opacity: 1;"/></g><g class="text"/></g><g class="trace scatter traceeebb16" style="stroke-miterlimit: 2; opacity: 1;"><g class="fills"/><g class="errorbars"/><g class="lines"><path class="js-line" d="M27.65,20.7L32.73,64.44L33.55,70.41L39.82,110.29L40.8,115.71L48.1,151.86L49.21,156.77L57.39,189.34L58.61,193.74L67.54,222.88L68.86,226.8L78.38,252.66L79.78,256.12L89.79,278.84L91.25,281.87L101.63,301.61L103.14,304.23L113.78,321.15L115.32,323.37L126.14,337.63L127.69,339.49L138.59,351.25L140.15,352.76L151.07,362.2L152.62,363.39L163.48,370.66L165.02,371.55L175.76,376.83L177.29,377.45L187.86,380.91L189.36,381.28L201.2,383.25L202.66,383.37L214.19,383.49L215.61,383.4L226.81,381.93L228.19,381.66L240.39,378.45L241.72,378.01L254.77,372.98L256.05,372.42L273.54,363.76L274.76,363.1L313.82,342.71L314.99,342.22L326.79,338.11L327.99,337.79L337.66,335.91L338.89,335.77L348.93,335.49L350.21,335.57L360.76,337.22L362.12,337.56L371.91,340.84L373.35,341.44L383.79,346.69L385.33,347.59L396.56,355.04L398.23,356.27L410.4,366.14L412.21,367.73L427.44,382.25L429.45,384.29L435.59,390.74" style="vector-effect: none; fill: none; stroke: rgb(10, 136, 186); stroke-opacity: 1; stroke-width: 2px; opacity: 1;"/></g><g class="points"/><g class="text"/></g><g class="trace scatter traceeeaf10" style="stroke-miterlimit: 2; opacity: 1;"><g class="fills"/><g class="errorbars"/><g class="lines"><path class="js-line" d="M27.65,20.7L31.23,59.56L31.96,65.9L36.98,103.03L37.93,109.06L45.29,149.84L46.45,155.45L55.11,193.16L56.42,198.32L66.08,232.64L67.52,237.29L77.92,267.98L79.44,272.1L90.33,298.99L91.91,302.55L103.09,325.51L104.7,328.51L114.36,345.02L115.97,347.52L125.6,361.06L127.2,363.08L136.72,373.72L138.29,375.26L147.62,383.09L149.16,384.17L158.25,389.32L159.74,389.97L168.54,392.62L169.98,392.86L177.08,393.28L178.48,393.21L186.71,391.79L188.05,391.39L195.97,388.17L197.27,387.5L206.15,381.91L207.4,381L218.36,371.83L219.56,370.73L248.98,343.86L250.17,342.97L259.79,336.87L261.01,336.24L269.68,332.77L270.93,332.41L279.88,330.9L281.18,330.83L290.43,331.35L291.77,331.57L301.32,334.02L302.7,334.5L313.95,339.38L315.37,340.11L329.81,348.45L331.27,349.36L361.97,368.13L363.41,368.84L373.36,372.81L374.76,373.2L381.62,374.31L382.96,374.34L388.24,373.77L389.53,373.43L394.57,371.21L395.79,370.43L400.54,366.26L401.68,364.94L406.09,358.48L407.14,356.55L411.14,347.45L412.09,344.81L416.46,329.25L417.26,325.64L419.48,313.73" style="vector-effect: none; fill: none; stroke: rgb(56, 151, 160); stroke-opacity: 1; stroke-width: 2px; opacity: 1;"/></g><g class="points"/><g class="text"/></g><g class="trace scatter trace911531" style="stroke-miterlimit: 2; opacity: 1;"><g class="fills"/><g class="errorbars"/><g class="lines"><path class="js-line" d="M27.65,20.7L29.42,53.86L29.93,60.43L33.96,99.17L34.78,105.5L40.49,142.46L41.57,148.44L48.62,183.04L49.89,188.58L57.97,220.34L59.39,225.38L68.22,253.91L69.75,258.38L79.09,283.41L80.67,287.28L90.31,308.63L91.93,311.88L101.68,329.47L103.31,332.1L113.02,345.96L114.63,347.97L124.21,358.23L125.79,359.66L133.59,365.59L135.13,366.55L142.74,370.26L144.24,370.8L151.65,372.56L153.11,372.73L161.73,372.7L163.14,372.53L171.51,370.76L172.89,370.36L185.09,365.71L186.43,365.12L221.63,349.48L222.91,349.06L234.47,346.11L235.76,345.89L246.05,344.9L247.34,344.88L258.98,345.63L260.28,345.81L272.02,348.25L273.33,348.59L295.78,355.5L297.11,355.91L311.81,359.59L313.15,359.83L325.24,361.13L326.59,361.18L337.37,360.75L338.72,360.6L350.86,358.47L352.2,358.16L373.72,352.13L375.05,351.76L388.39,348.95L389.71,348.8L397.65,348.69L398.96,348.82L405.52,350.31L406.82,350.79L413.32,354.28L414.62,355.22L421.05,361.26L422.33,362.77L424.88,366.11" style="vector-effect: none; fill: none; stroke: rgb(103, 166, 134); stroke-opacity: 1; stroke-width: 2px; opacity: 1;"/></g><g class="points"/><g class="text"/></g><g class="trace scatter trace8d0fcd" style="stroke-miterlimit: 2; opacity: 1;"><g class="fills"/><g class="errorbars"/><g class="lines"><path class="js-line" d="M27.65,20.7L28.89,54.01L29.31,60.62L32.17,93.21L32.89,99.62L38.08,137.07L39.09,143.12L45.83,178.1L47.06,183.69L54.99,215.61L56.39,220.65L65.21,249.08L66.74,253.51L76.17,278.18L77.78,281.97L87.59,302.73L89.25,305.86L99.25,322.73L100.92,325.23L110.94,338.37L112.6,340.26L122.52,349.97L124.16,351.33L132.28,357.11L133.89,358.07L143.41,362.67L144.97,363.25L154.2,365.79L155.71,366.07L166.07,367.03L167.52,367.04L178.83,366.25L180.2,366.06L193.56,363.37L194.86,363.05L239.94,351.53L241.15,351.34L257.22,349.82L258.49,349.78L274.17,350.03L275.51,350.11L296.27,352.22L297.69,352.41L337.61,357.17L338.99,357.24L353.74,357.24L355.04,357.16L371.38,355.28L372.6,355.08L394.85,352.06L396.14,352L405.6,352.33L407.02,352.51L416.04,354.43L417.63,354.91L427.91,359.06" style="vector-effect: none; fill: none; stroke: rgb(149, 181, 108); stroke-opacity: 1; stroke-width: 2px; opacity: 1;"/></g><g class="points"/><g class="text"/></g><g class="trace scatter trace8c11a1" style="stroke-miterlimit: 2; opacity: 1;"><g class="fills"/><g class="errorbars"/><g class="lines"><path class="js-line" d="M27.65,20.7L28.76,54.04L29.15,60.67L31.84,93.38L32.53,99.83L36.64,131.44L37.59,137.61L44.09,173.52L45.3,179.29L53.23,212.46L54.65,217.74L63.7,247.72L65.29,252.43L75.17,278.88L76.87,282.98L87.31,305.66L89.08,309.12L99.78,327.94L101.57,330.75L112.27,345.71L114.03,347.89L122.75,357.45L124.46,359.1L132.87,366.09L134.52,367.25L142.53,371.84L144.09,372.53L151.66,374.92L153.13,375.19L160.23,375.62L161.61,375.52L168.25,374.28L169.54,373.88L176.97,370.67L178.17,370.01L187.41,363.9L188.54,363.06L207.56,349.66L208.71,349.03L216.98,345.46L218.19,345.07L226.95,343.38L228.24,343.28L237.55,343.57L238.92,343.75L250.17,346.22L251.61,346.65L269.24,352.87L270.72,353.43L288.25,359.11L289.68,359.46L300.85,361.33L302.21,361.44L311.53,361.38L312.83,361.26L322.97,359.38L324.21,359.04L338.82,354.03L340.03,353.59L352.34,349.99L353.61,349.77L362.75,349.16L364.09,349.21L373.77,350.59L375.19,350.91L391.09,355.58L392.54,356.02L402.49,358.37L403.86,358.54L410.46,358.32L411.71,358.02L415.28,356.46L416.4,355.69L419.53,352.54L420.49,351.17L423.07,345.98" style="vector-effect: none; fill: none; stroke: rgb(196, 196, 82); stroke-opacity: 1; stroke-width: 2px; opacity: 1;"/></g><g class="points"/><g class="text"/></g><g class="trace scatter trace58b3b8" style="stroke-miterlimit: 2; opacity: 1;"><g class="fills"/><g class="errorbars"/><g class="lines"><path class="js-line" d="M27.65,20.7L29.92,60.45L30.42,67.03L34.25,105.99L35.03,112.4L40.46,150.1L41.5,156.25L48.49,192.16L49.78,197.96L58.18,231.52L59.68,236.88L69.25,267.48L70.92,272.3L81.32,299.3L83.1,303.45L93.91,326.16L95.71,329.55L104.7,344.71L106.48,347.37L115.23,358.85L116.94,360.78L125.28,368.56L126.9,369.75L133.2,373.37L134.73,373.99L140.68,375.41L142.12,375.51L147.7,374.99L149.06,374.65L155.59,371.82L156.85,371.07L164.2,365.6L165.39,364.58L184.24,348.91L185.44,348.16L192.76,344.59L194.01,344.17L200.36,342.85L201.65,342.74L209.59,343.18L210.94,343.42L219.19,345.76L220.58,346.27L236.16,353.02L237.58,353.65L251.69,359.02L253.08,359.42L262.7,361.34L264.05,361.47L272.07,361.56L273.39,361.46L282.5,359.87L283.78,359.54L299.04,354.51L300.31,354.08L311.82,350.89L313.11,350.64L323.59,349.59L324.92,349.59L334.32,350.32L335.68,350.52L349.41,353.54L350.79,353.9L367.26,357.47L368.61,357.62L377.94,357.71L379.25,357.59L388.32,355.86L389.6,355.53L406.33,351.58L407.65,351.51L413.04,351.99L414.42,352.34L420.11,354.96L421.58,355.97L426.15,360.01" style="vector-effect: none; fill: none; stroke: rgb(242, 211, 56); stroke-opacity: 1; stroke-width: 2px; opacity: 1;"/></g><g class="points"/><g class="text"/></g><g class="trace scatter trace9ff9f8" style="stroke-miterlimit: 2; opacity: 1;"><g class="fills"/><g class="errorbars"/><g class="lines"><path class="js-line" d="M27.65,20.7L33.66,99.53L34.3,106.01L38.84,144.35L39.73,150.62L45.95,187.35L47.13,193.29L53.71,222.09L55.14,227.64L62.89,254.23L64.53,259.29L73.18,283.1L74.97,287.55L84.11,308.01L85.96,311.74L95.2,328.43L97.03,331.37L106.08,344.09L107.85,346.24L116.47,355.02L118.15,356.4L124.65,360.72L126.23,361.51L132.36,363.64L133.84,363.93L139.6,364.24L141,364.14L149.1,362.33L150.42,361.89L166.95,355.13L168.2,354.65L178.26,351.71L179.53,351.47L188.49,350.67L189.78,350.67L200.25,351.59L201.57,351.79L232.37,356.22L233.71,356.29L247.12,356.26L248.46,356.18L271.13,354.08L272.46,353.96L291.05,353.08L292.38,353.09L312.28,353.98L313.61,354.07L338.87,355.24L340.2,355.24L364.17,354.33L365.5,354.25L386.79,353.84L388.12,353.88L418.7,354.54L420.03,354.38L425.38,353.37" style="vector-effect: none; fill: none; stroke: rgb(242, 197, 56); stroke-opacity: 1; stroke-width: 2px; opacity: 1;"/></g><g class="points"/><g class="text"/></g><g class="trace scatter trace9b4fde" style="stroke-miterlimit: 2; opacity: 1;"><g class="fills"/><g class="errorbars"/><g class="lines"><path class="js-line" d="M27.65,20.7L33.68,99.5L34.31,105.98L38.87,144.35L39.77,150.63L44.86,181.41L46.01,187.42L52.37,216.55L53.76,222.18L61.26,249.07L62.85,254.18L71.2,278.19L72.93,282.66L81.78,303.19L83.58,306.93L92.63,323.66L94.45,326.62L103.46,339.44L105.24,341.62L114.02,350.68L115.74,352.13L122.5,356.86L124.15,357.79L132.2,361.08L133.76,361.5L141.33,362.62L142.8,362.67L151.27,362.11L152.63,361.9L164.29,359.09L165.53,358.73L187.01,352.95L188.21,352.73L199.35,351.59L200.63,351.55L213.93,352L215.31,352.12L258.58,355.98L259.91,355.98L278.04,354.97L279.31,354.85L303.8,353.4L305.13,353.39L325.44,354.09L326.81,354.17L353.85,355L355.17,354.98L401.4,354.37L402.77,354.44L418.8,354.57L420.07,354.45L424.95,353.63" style="vector-effect: none; fill: none; stroke: rgb(242, 184, 56); stroke-opacity: 1; stroke-width: 2px; opacity: 1;"/></g><g class="points"/><g class="text"/></g><g class="trace scatter tracea3bb4d" style="stroke-miterlimit: 2; opacity: 1;"><g class="fills"/><g class="errorbars"/><g class="lines"><path class="js-line" d="M27.65,20.7L33.85,99.44L34.49,105.92L39.94,150.67L40.86,156.94L47.24,193.63L48.44,199.57L56.49,233.8L57.96,239.24L65.8,265.1L67.46,269.98L76.12,292.77L77.92,296.99L87.15,316.3L89.04,319.79L98.57,335.37L100.48,338.1L109.99,349.86L111.87,351.83L121.02,359.83L122.79,361.07L129.62,364.89L131.26,365.57L137.53,367.25L139.02,367.43L144.68,367.27L146.02,367.03L152.31,364.84L153.5,364.23L161.27,359.04L162.33,358.23L171.93,351.58L173.04,351L178.82,348.78L180.03,348.49L186.36,347.85L187.68,347.89L196.01,349.09L197.45,349.43L213.81,354.41L215.3,354.86L226.92,357.56L228.32,357.76L237.81,358.19L239.12,358.12L249.21,356.53L250.44,356.24L269.06,352.46L270.34,352.33L280.9,352.11L282.26,352.18L297.49,353.91L298.89,354.1L316.78,355.8L318.12,355.83L331.26,355.37L332.55,355.26L358.51,353.41L359.84,353.42L377.48,354.43L378.85,354.54L394.98,355.01L396.29,354.96L418.57,354.01L419.96,354.18L425.74,355.51" style="vector-effect: none; fill: none; stroke: rgb(242, 170, 56); stroke-opacity: 1; stroke-width: 2px; opacity: 1;"/></g><g class="points"/><g class="text"/></g><g class="trace scatter tracefd4763" style="stroke-miterlimit: 2; opacity: 1;"><g class="fills"/><g class="errorbars"/><g class="lines"><path class="js-line" d="M27.65,20.7L33.44,92.86L34.08,99.37L39.27,144.36L40.14,150.69L46.08,187.96L47.21,194.03L53.44,223.59L54.81,229.33L62.3,256.95L63.93,262.24L72.61,287.35L74.45,292.07L84.09,314.06L86.09,318.11L96.26,336.36L98.31,339.59L106.45,351.01L108.45,353.47L116.18,361.63L118.04,363.25L125.06,368.03L126.71,368.81L131.4,370.19L132.87,370.34L137.02,369.96L138.32,369.57L143.13,366.9L144.25,366L150.46,359.41L151.44,358.23L158.49,350.73L159.56,349.87L164.02,347.22L165.2,346.77L170.18,345.86L171.49,345.86L177.01,346.7L178.45,347.1L187.43,350.63L188.97,351.33L204.13,357.59L205.59,358.02L212.65,359.34L214.01,359.44L220.57,359.07L221.83,358.84L230.4,356.31L231.61,355.87L243.81,352.17L245.08,351.94L252.86,351.29L254.19,351.3L263.79,352.28L265.19,352.52L288.87,356.15L290.22,356.22L302.08,355.83L303.37,355.69L330.56,353.19L331.9,353.2L348.17,354.25L349.53,354.37L367.05,355.15L368.38,355.13L389.3,353.91L390.61,353.86L404.02,354.21L405.38,354.31L418.8,354.73L420.1,354.61L425.07,353.47" style="vector-effect: none; fill: none; stroke: rgb(242, 157, 56); stroke-opacity: 1; stroke-width: 2px; opacity: 1;"/></g><g class="points"/><g class="text"/></g><g class="trace scatter tracef87a15" style="stroke-miterlimit: 2; opacity: 1;"><g class="fills"/><g class="errorbars"/><g class="lines"><path class="js-line" d="M27.65,20.7L35.11,105.65L35.81,112.11L41.48,156.74L42.42,163L48.82,199.79L50.02,205.76L56.65,234.76L58.1,240.36L65.93,267.21L67.6,272.32L76.45,296.35L78.3,300.82L87.81,321.24L89.75,324.91L99.41,340.84L101.31,343.52L108.74,352.47L110.54,354.25L117.46,359.63L119.11,360.55L125.42,362.63L126.92,362.79L132.63,362.17L133.99,361.76L140.49,358.71L141.75,357.98L152.87,352.11L154.12,351.66L160.43,350.33L161.71,350.26L168.27,350.78L169.6,351.04L183.17,354.71L184.54,355.05L194.04,356.68L195.39,356.78L204.73,356.49L206.05,356.33L233.71,352.86L235.04,352.87L248.4,353.86L249.74,354L268.46,355.3L269.79,355.31L287.04,354.51L288.36,354.42L306.93,353.82L308.26,353.84L358.86,354.32L360.19,354.28L386.74,354.41L388.07,354.44L413.44,354.27L414.76,354.25L425.16,354.64" style="vector-effect: none; fill: none; stroke: rgb(242, 143, 56); stroke-opacity: 1; stroke-width: 2px; opacity: 1;"/></g><g class="points"/><g class="text"/></g><g class="trace scatter traceca9b87" style="stroke-miterlimit: 2; opacity: 1;"><g class="fills"/><g class="errorbars"/><g class="lines"><path class="js-line" d="M27.65,20.7L34.83,98.93L35.53,105.39L41.87,156.48L42.78,162.76L48.95,199.74L50.11,205.76L57.94,240.68L59.39,246.27L67.24,272.96L68.92,278.01L77.78,301.53L79.62,305.85L89.07,325.17L90.98,328.54L98.59,340.21L100.47,342.68L107.86,350.68L109.66,352.24L116.66,356.76L118.35,357.49L124.88,359.07L126.45,359.18L133.95,358.5L135.38,358.2L157.38,353.44L158.59,353.38L169.59,353.78L170.84,353.87L192.18,354.69L193.57,354.68L252.19,354.47L253.53,354.47L364.23,354.38L365.55,354.39L424.7,354.37" style="vector-effect: none; fill: none; stroke: rgb(237, 120, 51); stroke-opacity: 1; stroke-width: 2px; opacity: 1;"/></g><g class="points"/><g class="text"/></g><g class="trace scatter traced97c1c" style="stroke-miterlimit: 2; opacity: 1;"><g class="fills"/><g class="errorbars"/><g class="lines"><path class="js-line" d="M27.65,20.7L33.77,85.82L34.45,92.29L42.01,156.4L42.88,162.71L48.75,199.95L49.86,206.02L56.06,235.55L57.44,241.26L64.99,268.58L66.63,273.76L75.38,297.89L77.22,302.31L84.82,318.49L86.76,322.12L94.61,334.91L96.57,337.67L104.4,346.91L106.34,348.79L113.9,354.64L115.74,355.72L122.81,358.69L124.5,359.13L130.88,359.94L132.38,359.94L139.32,359.05L140.61,358.74L150.99,355.21L152.07,354.83L161.03,352.58L162.23,352.44L169.91,352.3L171.27,352.38L187.24,354.46L188.71,354.66L201.39,355.61L202.73,355.61L215.42,354.69L216.65,354.55L231.98,353.64L233.32,353.65L258.02,354.76L259.37,354.79L280.34,354.36L281.64,354.31L305.59,354.28L306.95,354.31L336.23,354.43L337.55,354.41L384.13,354.44L385.44,354.43L424.76,354.31" style="vector-effect: none; fill: none; stroke: rgb(232, 98, 46); stroke-opacity: 1; stroke-width: 2px; opacity: 1;"/></g><g class="points"/><g class="text"/></g><g class="trace scatter tracea13751" style="stroke-miterlimit: 2; opacity: 1;"><g class="fills"/><g class="errorbars"/><g class="lines"><path class="js-line" d="M27.65,20.7L34.12,92.5L34.78,98.98L40.77,150.34L41.62,156.67L47.41,194.06L48.5,200.16L54.57,229.91L55.91,235.68L63.28,263.43L64.88,268.72L73.53,293.62L75.37,298.25L83.1,315.43L85.11,319.37L93.35,333.58L95.45,336.74L103.86,347.67L105.94,349.97L114.04,357.42L115.98,358.84L123.25,362.76L124.92,363.32L129.57,364.03L131,363.98L134.91,363.04L136.1,362.5L140.41,359.53L141.41,358.64L149.18,351.91L150.23,351.31L154.8,349.77L156.05,349.61L161.43,349.93L162.86,350.22L172.01,353.06L173.58,353.61L184.2,356.63L185.63,356.87L192.42,357.15L193.71,357.03L201.03,355.45L202.22,355.12L211.95,352.97L213.22,352.84L221.18,352.82L222.56,352.94L248.88,355.4L250.19,355.35L282.85,353.98L284.21,354.05L307.12,354.73L308.45,354.7L346.84,354.41L348.18,354.44L394.62,354.39L395.95,354.4L424.46,354.47" style="vector-effect: none; fill: none; stroke: rgb(227, 75, 40); stroke-opacity: 1; stroke-width: 2px; opacity: 1;"/></g><g class="points"/><g class="text"/></g><g class="trace scatter trace4ada87" style="stroke-miterlimit: 2; opacity: 1;"><g class="fills"/><g class="errorbars"/><g class="lines"><path class="js-line" d="M27.65,20.7L34.01,92.57L34.68,99.05L40.84,150.31L41.72,156.62L48.79,199.96L49.93,206L57.62,241.18L59.04,246.83L66.81,273.95L68.5,279.11L75.7,298.76L77.61,303.39L85.59,320.62L87.66,324.57L96.1,338.79L98.23,341.91L106.58,352.44L108.6,354.55L114.37,359.53L116.18,360.74L121.26,363.04L122.82,363.38L127.13,363.25L128.45,362.86L132.08,360.86L133.2,359.98L143.91,350.97L145.06,350.44L150.01,349.48L151.34,349.53L156.95,350.76L158.41,351.26L174.63,356.86L176.03,357.08L182.7,357.09L183.98,356.89L195.11,353.86L196.35,353.57L204.06,352.62L205.39,352.61L214.98,353.61L216.37,353.84L230.12,355.43L231.46,355.45L243.21,354.7L244.5,354.57L258.91,353.73L260.24,353.75L298.98,354.39L300.3,354.34L324.28,354.36L325.61,354.39L354.81,354.33L356.14,354.32L404.02,354.34L405.39,354.34L424.42,354.32" style="vector-effect: none; fill: none; stroke: rgb(222, 53, 35); stroke-opacity: 1; stroke-width: 2px; opacity: 1;"/></g><g class="points"/><g class="text"/></g><g class="trace scatter tracedcdc5c" style="stroke-miterlimit: 2; opacity: 1;"><g class="fills"/><g class="errorbars"/><g class="lines"><path class="js-line" d="M27.65,20.7L33.46,86.03L34.14,92.51L40.31,143.75L41.18,150.08L48.05,193.62L49.14,199.71L56.45,235.34L57.8,241.09L65.19,268.79L66.81,274.09L75.61,299.05L77.5,303.69L85.4,320.87L87.44,324.77L95.71,338.58L97.77,341.53L105.78,351.12L107.7,352.93L113.18,356.99L114.91,357.89L119.8,359.35L121.33,359.46L125.65,358.87L127.01,358.43L143.34,352.02L144.61,351.93L151.14,352.56L152.47,352.85L167.34,355.78L168.69,355.84L176.69,355.36L178.02,355.17L193.88,353.48L195.21,353.48L209.87,354.55L211.21,354.64L224.53,354.81L225.85,354.75L252.43,354.21L253.76,354.25L277.72,354.48L279.05,354.45L312.28,354.43L313.61,354.44L406.71,354.39L408.09,354.39L424.57,354.4" style="vector-effect: none; fill: none; stroke: rgb(217, 30, 30); stroke-opacity: 1; stroke-width: 2px; opacity: 1;"/></g><g class="points"/><g class="text"/></g></g></g></g><path class="xlines-above crisp" d="M0,0" style="fill: none;"/><path class="ylines-above crisp" d="M0,0" style="fill: none;"/><g class="overlines-above"/><g class="xaxislayer-above"><g class="xtick"><text text-anchor="middle" x="0" y="543" transform="translate(125.65,0)" style="font-family: 'Open Sans', verdana, arial, sans-serif; font-size: 28px; fill: rgb(0, 0, 0); fill-opacity: 1; white-space: pre; opacity: 1;">0</text></g><g class="xtick"><text text-anchor="middle" x="0" y="543" style="font-family: 'Open Sans', verdana, arial, sans-serif; font-size: 28px; fill: rgb(0, 0, 0); fill-opacity: 1; white-space: pre; opacity: 1;" transform="translate(258.22,0)">1</text></g><g class="xtick"><text text-anchor="middle" x="0" y="543" style="font-family: 'Open Sans', verdana, arial, sans-serif; font-size: 28px; fill: rgb(0, 0, 0); fill-opacity: 1; white-space: pre; opacity: 1;" transform="translate(390.78,0)">2</text></g><g class="xtick"><text text-anchor="middle" x="0" y="543" style="font-family: 'Open Sans', verdana, arial, sans-serif; font-size: 28px; fill: rgb(0, 0, 0); fill-opacity: 1; white-space: pre; opacity: 1;" transform="translate(523.35,0)">3</text></g></g><g class="yaxislayer-above"><g class="ytick"><text text-anchor="end" x="97" y="9.799999999999999" transform="translate(0,454.38)" style="font-family: 'Open Sans', verdana, arial, sans-serif; font-size: 28px; fill: rgb(0, 0, 0); fill-opacity: 1; white-space: pre; opacity: 1;">0</text></g><g class="ytick"><text text-anchor="end" x="97" y="9.799999999999999" style="font-family: 'Open Sans', verdana, arial, sans-serif; font-size: 28px; fill: rgb(0, 0, 0); fill-opacity: 1; white-space: pre; opacity: 1;" transform="translate(0,387.64)">0.2</text></g><g class="ytick"><text text-anchor="end" x="97" y="9.799999999999999" style="font-family: 'Open Sans', verdana, arial, sans-serif; font-size: 28px; fill: rgb(0, 0, 0); fill-opacity: 1; white-space: pre; opacity: 1;" transform="translate(0,320.90999999999997)">0.4</text></g><g class="ytick"><text text-anchor="end" x="97" y="9.799999999999999" style="font-family: 'Open Sans', verdana, arial, sans-serif; font-size: 28px; fill: rgb(0, 0, 0); fill-opacity: 1; white-space: pre; opacity: 1;" transform="translate(0,254.17)">0.6</text></g><g class="ytick"><text text-anchor="end" x="97" y="9.799999999999999" style="font-family: 'Open Sans', verdana, arial, sans-serif; font-size: 28px; fill: rgb(0, 0, 0); fill-opacity: 1; white-space: pre; opacity: 1;" transform="translate(0,187.44)">0.8</text></g><g class="ytick"><text text-anchor="end" x="97" y="9.799999999999999" style="font-family: 'Open Sans', verdana, arial, sans-serif; font-size: 28px; fill: rgb(0, 0, 0); fill-opacity: 1; white-space: pre; opacity: 1;" transform="translate(0,120.7)">1</text></g></g><g class="overaxes-above"/></g></g><g class="polarlayer"/><g class="smithlayer"/><g class="ternarylayer"/><g class="geolayer"/><g class="funnelarealayer"/><g class="pielayer"/><g class="iciclelayer"/><g class="treemaplayer"/><g class="sunburstlayer"/><g class="glimages"/><defs id="topdefs-044425"><g class="clips"/><clipPath id="legend044425"><rect width="228" height="343" x="0" y="0"/></clipPath></defs><g class="layer-above"><g class="imagelayer"/><g class="shapelayer"/></g><g class="infolayer"><g class="legend" pointer-events="all" transform="translate(560.06,100)"><rect class="bg" shape-rendering="crispEdges" width="228" height="343" x="0" y="0" style="stroke: rgb(68, 68, 68); stroke-opacity: 1; fill: rgb(255, 255, 255); fill-opacity: 1; stroke-width: 0px;"/><g class="scrollbox" transform="" clip-path="url(#legend044425)"><g class="groups" transform=""><g class="traces" transform="translate(0,26.650000000000002)" style="opacity: 1;"><text class="legendtext" text-anchor="start" x="5" y="12.090000000000002" style="font-family: 'Open Sans', verdana, arial, sans-serif; font-size: 31px; fill: rgb(0, 0, 0); fill-opacity: 1; white-space: pre;">Reference</text><g class="layers"><g class="legendfill"/><g class="legendlines"/><g class="legendsymbols"><g class="legendpoints"/></g></g><rect class="legendtoggle" x="0" y="-21.650000000000002" width="222.65625" height="43.300000000000004" style="fill: rgb(0, 0, 0); fill-opacity: 0;"/></g><g class="traces" transform="translate(0,68)" style="opacity: 1;"><text class="legendtext" text-anchor="start" x="40" y="10.92" style="font-family: 'Open Sans', verdana, arial, sans-serif; font-size: 28px; fill: rgb(0, 0, 0); fill-opacity: 1; white-space: pre;">Reference</text><g class="layers" style="opacity: 1;"><g class="legendfill"/><g class="legendlines"><path class="js-line" d="M5,0h30" style="fill: none; stroke: rgb(0, 0, 0); stroke-opacity: 1; stroke-width: 2px;"/></g><g class="legendsymbols"><g class="legendpoints"/></g></g><rect class="legendtoggle" x="0" y="-19.7" width="222.65625" height="39.4" style="fill: rgb(0, 0, 0); fill-opacity: 0;"/></g><g class="traces" transform="translate(0,107.4)" style="opacity: 1;"><text class="legendtext" text-anchor="start" x="40" y="10.92" style="font-family: 'Open Sans', verdana, arial, sans-serif; font-size: 28px; fill: rgb(0, 0, 0); fill-opacity: 1; white-space: pre;">Control point</text><g class="layers" style="opacity: 1;"><g class="legendfill"/><g class="legendlines"/><g class="legendsymbols"><g class="legendpoints"><path class="scatterpts" transform="translate(20,0)" d="M4,0A4,4 0 1,1 0,-4A4,4 0 0,1 4,0Z" style="opacity: 1; stroke-width: 0px; fill: rgb(0, 0, 0); fill-opacity: 1;"/></g></g></g><rect class="legendtoggle" x="0" y="-19.7" width="222.65625" height="39.4" style="fill: rgb(0, 0, 0); fill-opacity: 0;"/></g></g><g class="groups" transform="translate(0,10)"><g class="traces" transform="translate(0,148.75)" style="opacity: 1;"><text class="legendtext" text-anchor="start" x="5" y="12.090000000000002" style="font-family: 'Open Sans', verdana, arial, sans-serif; font-size: 31px; fill: rgb(0, 0, 0); fill-opacity: 1; white-space: pre;">Trajectory</text><g class="layers"><g class="legendfill"/><g class="legendlines"/><g class="legendsymbols"><g class="legendpoints"/></g></g><rect class="legendtoggle" x="0" y="-21.650000000000002" width="222.65625" height="43.300000000000004" style="fill: rgb(0, 0, 0); fill-opacity: 0;"/></g><g class="traces" transform="translate(0,190.1)" style="opacity: 1;"><text class="legendtext" text-anchor="start" x="40" y="10.92" style="font-family: 'Open Sans', verdana, arial, sans-serif; font-size: 28px; fill: rgb(0, 0, 0); fill-opacity: 1; white-space: pre;">N = 5</text><g class="layers" style="opacity: 1;"><g class="legendfill"/><g class="legendlines"><path class="js-line" d="M5,0h30" style="fill: none; stroke: rgb(10, 136, 186); stroke-opacity: 1; stroke-width: 2px;"/></g><g class="legendsymbols"><g class="legendpoints"/></g></g><rect class="legendtoggle" x="0" y="-19.7" width="222.65625" height="39.4" style="fill: rgb(0, 0, 0); fill-opacity: 0;"/></g><g class="traces" transform="translate(0,229.5)" style="opacity: 1;"><text class="legendtext" text-anchor="start" x="40" y="10.92" style="font-family: 'Open Sans', verdana, arial, sans-serif; font-size: 28px; fill: rgb(0, 0, 0); fill-opacity: 1; white-space: pre;">N = 10</text><g class="layers" style="opacity: 1;"><g class="legendfill"/><g class="legendlines"><path class="js-line" d="M5,0h30" style="fill: none; stroke: rgb(242, 211, 56); stroke-opacity: 1; stroke-width: 2px;"/></g><g class="legendsymbols"><g class="legendpoints"/></g></g><rect class="legendtoggle" x="0" y="-19.7" width="222.65625" height="39.4" style="fill: rgb(0, 0, 0); fill-opacity: 0;"/></g><g class="traces" transform="translate(0,268.90000000000003)" style="opacity: 1;"><text class="legendtext" text-anchor="start" x="40" y="10.92" style="font-family: 'Open Sans', verdana, arial, sans-serif; font-size: 28px; fill: rgb(0, 0, 0); fill-opacity: 1; white-space: pre;">N = 15</text><g class="layers" style="opacity: 1;"><g class="legendfill"/><g class="legendlines"><path class="js-line" d="M5,0h30" style="fill: none; stroke: rgb(242, 143, 56); stroke-opacity: 1; stroke-width: 2px;"/></g><g class="legendsymbols"><g class="legendpoints"/></g></g><rect class="legendtoggle" x="0" y="-19.7" width="222.65625" height="39.4" style="fill: rgb(0, 0, 0); fill-opacity: 0;"/></g><g class="traces" transform="translate(0,308.3)" style="opacity: 1;"><text class="legendtext" text-anchor="start" x="40" y="10.92" style="font-family: 'Open Sans', verdana, arial, sans-serif; font-size: 28px; fill: rgb(0, 0, 0); fill-opacity: 1; white-space: pre;">N = 20</text><g class="layers" style="opacity: 1;"><g class="legendfill"/><g class="legendlines"><path class="js-line" d="M5,0h30" style="fill: none; stroke: rgb(217, 30, 30); stroke-opacity: 1; stroke-width: 2px;"/></g><g class="legendsymbols"><g class="legendpoints"/></g></g><rect class="legendtoggle" x="0" y="-19.7" width="222.65625" height="39.4" style="fill: rgb(0, 0, 0); fill-opacity: 0;"/></g></g></g><rect class="scrollbar" rx="20" ry="3" width="0" height="0" x="0" y="0" style="fill: rgb(128, 139, 164); fill-opacity: 1;"/></g><g class="g-gtitle"/><g class="g-xtitle"><text class="xtitle" x="324.5" y="587.3" text-anchor="middle" style="opacity: 1; font-family: 'Open Sans', verdana, arial, sans-serif; font-size: 34px; fill: rgb(0, 0, 0); fill-opacity: 1; white-space: pre;">East [m]</text></g><g class="g-ytitle" transform="translate(9.197265625,0)"><text class="ytitle" transform="rotate(-90,24.803124999999994,307)" x="24.803124999999994" y="307" text-anchor="middle" style="opacity: 1; font-family: 'Open Sans', verdana, arial, sans-serif; font-size: 34px; fill: rgb(0, 0, 0); fill-opacity: 1; white-space: pre;">North [m]</text></g></g></svg>