<svg class="main-svg" xmlns="http://www.w3.org/2000/svg" xmlns:xlink="http://www.w3.org/1999/xlink" width="800" height="600" style="" viewBox="0 0 800 600"><rect x="0" y="0" width="800" height="600" style="fill: rgb(255, 255, 255); fill-opacity: 1;"/><defs id="defs-c93aa8"><g class="clips"><clipPath id="clipc93aa8xyplot" class="plotclip"><rect width="453" height="414"/></clipPath><clipPath class="axesclip" id="clipc93aa8x"><rect x="98" y="0" width="453" height="600"/></clipPath><clipPath class="axesclip" id="clipc93aa8y"><rect x="0" y="100" width="800" height="414"/></clipPath><clipPath class="axesclip" id="clipc93aa8xy"><rect x="98" y="100" width="453" height="414"/></clipPath></g><g class="gradients"/><g class="patterns"/></defs><g class="bglayer"/><g class="layer-below"><g class="imagelayer"/><g class="shapelayer"/></g><g class="cartesianlayer"><g class="subplot xy"><g class="layer-subplot"><g class="shapelayer"/><g class="imagelayer"/></g><g class="minor-gridlayer"><g class="x"/><g class="y"/></g><g class="gridlayer"><g class="x"><path class="xgrid crisp" transform="translate(258.22,0)" d="M0,100v414" style="stroke: rgb(200, 200, 200); stroke-opacity: 1; stroke-width: 1px;"/><path class="xgrid crisp" transform="translate(390.78,0)" d="M0,100v414" style="stroke: rgb(200, 200, 200); stroke-opacity: 1; stroke-width: 1px;"/><path class="xgrid crisp" transform="translate(523.35,0)" d="M0,100v414" style="stroke: rgb(200, 200, 200); stroke-opacity: 1; stroke-width: 1px;"/></g><g class="y"><path class="ygrid crisp" transform="translate(0,396.18)" d="M98,0h453" style="stroke: rgb(200, 200, 200); stroke-opacity: 1; stroke-width: 1px;"/><path class="ygrid crisp" transform="translate(0,327.31)" d="M98,0h453" style="stroke: rgb(200, 200, 200); stroke-opacity: 1; stroke-width: 1px;"/><path class="ygrid crisp" transform="translate(0,258.44)" d="M98,0h453" style="stroke: rgb(200, 200, 200); stroke-opacity: 1; stroke-width: 1px;"/><path class="ygrid crisp" transform="translate(0,189.57)" d="M98,0h453" style="stroke: rgb(200, 200, 200); stroke-opacity: 1; stroke-width: 1px;"/><path class="ygrid crisp" transform="translate(0,120.7)" d="M98,0h453" style="stroke: rgb(200, 200, 200); stroke-opacity: 1; stroke-width: 1px;"/></g></g><g class="zerolinelayer"><path class="xzl zl crisp" transform="translate(125.65,0)" d="M0,100v414" style="stroke: rgb(200, 200, 200); stroke-opacity: 1; stroke-width: 2px;"/><path class="yzl zl crisp" transform="translate(0,465.05)" d="M98,0h453" style="stroke: rgb(200, 200, 200); stroke-opacity: 1; stroke-width: 2px;"/></g><g class="layer-between"><g class="shapelayer"/><g class="imagelayer"/></g><path class="xlines-below"/><path class="ylines-below"/><g class="overlines-below"/><g class="xaxislayer-below"/><g class="yaxislayer-below"/><g class="overaxes-below"/><g class="overplot"><g class="xy" transform="translate(98,100)" clip-path="url(#clipc93aa8xyplot)"><g class="scatterlayer mlayer"><g class="trace scatter tracedaf852" style="stroke-miterlimit: 2; opacity: 1;"><g class="fills"/><g class="errorbars"/><g class="lines"><path class="js-line" d="M27.65,365.05L425.35,365.05" style="vector-effect: none; fill: none; stroke: rgb(0, 0, 0); stroke-opacity: 1; stroke-width: 2px; opacity: 1;"/></g><g class="points"/><g class="text"/></g><g class="trace scatter traced38f16" style="stroke-miterlimit: 2; opacity: 1;"><g class="fills"/><g class="errorbars"/><g class="lines"/><g class="points"><path class="point" transform="translate(27.65,365.05)" d="M4,0A4,4 0 1,1 0,-4A4,4 0 0,1 4,0Z" style="opacity: 1; stroke-width: 0px; fill: rgb(0, 0, 0); fill-opacity: 1;"/><path class="point" transform="translate(425.35,365.05)" d="M4,0A4,4 0 1,1 0,-4A4,4 0 0,1 4,0Z" style="opacity: 1; stroke-width: 0px; fill: rgb(0, 0, 0); fill-opacity: 1;"/></g><g class="text"/></g><g class="trace scatter trace4cc4e3" style="stroke-miterlimit: 2; opacity: 1;"><g class="fills"/><g class="errorbars"/><g class="lines"><path class="js-line" d="M27.65,20.7L31.55,60.31L32.31,66.72L38.38,110L39.35,115.94L46.77,155.82L47.92,161.26L56.41,197.54L57.69,202.46L67.04,235.01L68.42,239.4L78.41,268.18L79.87,272.02L90.31,297.05L91.82,300.36L102.55,321.69L104.1,324.48L115,342.24L116.56,344.53L127.5,358.9L129.06,360.72L139.95,371.89L141.5,373.27L150.75,380.48L152.28,381.51L161.39,386.68L162.89,387.38L173.33,391.13L174.8,391.51L184.99,393.12L186.43,393.21L196.36,393L197.76,392.86L208.8,390.83L210.15,390.48L222.19,386.52L223.5,386.01L240.26,378.47L241.52,377.84L276.01,361.46L277.23,360.99L290.58,356.7L291.79,356.4L302.8,354.41L304.03,354.28L315.22,353.82L316.48,353.86L329.21,355.1L330.51,355.31L344.99,358.45L346.34,358.8L387.32,369.38L388.8,369.61L399.31,370.52L400.83,370.53L410.01,369.84L411.56,369.58L419.32,367.56L420.88,366.99L428.72,363.25L430.29,362.31" style="vector-effect: none; fill: none; stroke: rgb(56, 151, 160); stroke-opacity: 1; stroke-width: 2px; opacity: 1;"/></g><g class="points"/><g class="text"/></g><g class="trace scatter trace53a90f" style="stroke-miterlimit: 2; opacity: 1;"><g class="fills"/><g class="errorbars"/><g class="lines"><path class="js-line" d="M27.65,20.7L29.03,55.04L29.48,61.84L32.51,95.37L33.26,101.96L38.63,140.41L39.66,146.61L46.52,182.47L47.77,188.2L55.75,220.94L57.16,226.12L65.96,255.37L67.48,259.94L76.82,285.48L78.41,289.42L88.09,311.16L89.72,314.46L99.54,332.41L101.18,335.1L111,349.4L112.63,351.48L122.34,362.34L123.95,363.88L133.47,371.58L135.04,372.62L142.79,376.86L144.32,377.52L153.37,380.32L154.85,380.6L163.62,381.34L165.06,381.32L174.94,380.18L176.33,379.9L187.22,376.81L188.56,376.35L208.13,368.51L209.41,367.99L225.86,362.06L227.12,361.69L239.69,359.01L240.95,358.84L252.34,358.14L253.61,358.15L266.42,359.09L267.71,359.26L284.67,362.3L285.99,362.58L315.47,368.17L316.83,368.35L331.83,369.46L333.2,369.48L346.89,368.87L348.26,368.73L363.27,366.4L364.63,366.13L392.69,360.97L394,360.88L401.77,361.06L403.05,361.24L409.4,362.9L410.65,363.41L416.87,367.07L418.1,368.05L422.96,372.91L424.17,374.38" style="vector-effect: none; fill: none; stroke: rgb(103, 166, 134); stroke-opacity: 1; stroke-width: 2px; opacity: 1;"/></g><g class="points"/><g class="text"/></g><g class="trace scatter tracede7d48" style="stroke-miterlimit: 2; opacity: 1;"><g class="fills"/><g class="errorbars"/><g class="lines"><path class="js-line" d="M27.65,20.7L28.65,55.13L29.04,61.96L31.78,95.65L32.48,102.28L37.66,140.94L38.67,147.18L45.48,183.2L46.72,188.95L54.79,221.77L56.22,226.95L65.21,256.18L66.77,260.74L76.41,286.17L78.05,290.08L88.07,311.64L89.76,314.92L99.96,332.67L101.66,335.32L111.86,349.43L113.55,351.5L123.61,362.23L125.27,363.75L135.07,371.43L136.68,372.47L146.16,377.46L147.71,378.09L156.81,380.79L158.29,381.08L166.99,381.91L168.41,381.91L178.07,381.06L179.41,380.82L189.88,378.17L191.16,377.76L204.79,372.56L206,372.05L230.94,362.09L232.13,361.71L244.18,358.68L245.41,358.47L256.67,357.28L257.95,357.23L271.09,357.72L272.44,357.86L286.27,360.01L287.69,360.3L335.3,370.07L336.7,370.21L348.96,370.58L350.28,370.52L361.79,369.03L363.03,368.77L375.07,365.36L376.25,364.97L391.74,360.53L392.98,360.34L400.8,360.07L402.18,360.22L409.51,362.08L411.08,362.71L417.8,366.3L419.6,367.49L427.37,373.65L429.47,375.57" style="vector-effect: none; fill: none; stroke: rgb(149, 181, 108); stroke-opacity: 1; stroke-width: 2px; opacity: 1;"/></g><g class="points"/><g class="text"/></g><g class="trace scatter trace5e6f9e" style="stroke-miterlimit: 2; opacity: 1;"><g class="fills"/><g class="errorbars"/><g class="lines"><path class="js-line" d="M27.65,20.7L28.82,55.1L29.21,61.94L31.88,95.77L32.55,102.44L37.58,141.69L38.57,148.08L45.34,185.24L46.6,191.22L54.86,225.69L56.34,231.17L65.74,262.4L67.39,267.31L77.61,294.86L79.36,299.12L90.04,322.65L91.84,326.22L102.65,345.5L104.45,348.35L113.34,361.07L115.1,363.31L123.72,372.96L125.41,374.59L133.64,381.31L135.25,382.37L143.03,386.35L144.54,386.89L151.85,388.43L153.26,388.52L160.11,387.97L161.43,387.68L167.86,385.47L169.11,384.89L177.57,379.84L178.74,379.01L193.53,367.27L194.65,366.38L206.02,358.42L207.18,357.76L215.5,354.08L216.73,353.7L224.24,352.23L225.53,352.13L233.45,352.31L234.81,352.48L244.52,354.54L245.94,354.96L258.98,359.64L260.45,360.24L288.39,371.13L289.83,371.56L301.1,373.95L302.48,374.1L310.54,374.3L311.85,374.2L320.8,372.56L322.05,372.2L331.77,368.33L332.96,367.76L352.12,359.17L353.36,358.82L361.02,357.58L362.34,357.54L370.5,358.35L371.91,358.67L380.58,361.52L382.06,362.14L404.33,371.6L405.73,371.88L409.76,372L411.03,371.76L414.59,369.97L415.67,368.96L418.55,364.39L419.36,362.29L421.31,353.94L421.77,350.39" style="vector-effect: none; fill: none; stroke: rgb(196, 196, 82); stroke-opacity: 1; stroke-width: 2px; opacity: 1;"/></g><g class="points"/><g class="text"/></g><g class="trace scatter tracea26a71" style="stroke-miterlimit: 2; opacity: 1;"><g class="fills"/><g class="errorbars"/><g class="lines"><path class="js-line" d="M27.65,20.7L31.56,82.02L32.11,88.77L36.19,128.73L37,135.28L42.74,173.66L43.84,179.87L51.29,215.87L52.66,221.63L61.59,254.44L63.18,259.6L71.51,283.93L73.23,288.49L83.87,313.54L85.68,317.32L94.74,334.44L96.55,337.5L105.53,351.03L107.3,353.38L115.99,363.38L117.69,365.04L125.95,371.73L127.56,372.76L135.36,376.51L136.87,377L144.2,378.28L145.62,378.33L152.52,377.68L153.86,377.39L161.69,374.88L162.96,374.35L180.23,366.01L181.45,365.45L191.26,361.67L192.5,361.31L201.3,359.55L202.58,359.41L211.65,359.23L212.96,359.3L224.99,360.92L226.35,361.19L263.37,368.4L264.73,368.52L276.85,368.74L278.18,368.67L291.38,367.22L292.68,367.01L324,362.43L325.31,362.36L337.26,362.52L338.59,362.62L353.43,364.61L354.79,364.83L372.37,367.16L373.71,367.24L384.34,366.97L385.66,366.83L397.4,364.75L398.7,364.48L409.16,362.93L410.48,362.92L415.87,363.62L417.25,364.04L421.47,366.05L422.91,367.03L425.85,369.51" style="vector-effect: none; fill: none; stroke: rgb(242, 211, 56); stroke-opacity: 1; stroke-width: 2px; opacity: 1;"/></g><g class="points"/><g class="text"/></g><g class="trace scatter trace85fdbb" style="stroke-miterlimit: 2; opacity: 1;"><g class="fills"/><g class="errorbars"/><g class="lines"><path class="js-line" d="M27.65,20.7L32.48,95.48L33.07,102.2L37.42,141.89L38.29,148.38L43.34,180.1L44.48,186.28L50.83,216.16L52.23,221.92L59.71,249.39L61.3,254.61L69.63,279.18L71.36,283.77L80.2,305.02L82,308.92L91.05,326.6L92.85,329.78L101.84,343.85L103.62,346.31L112.36,356.9L114.08,358.69L122.47,366.09L124.1,367.28L132.08,371.89L133.63,372.56L141.18,374.86L142.64,375.13L149.79,375.64L151.18,375.59L160.61,374.3L161.92,374.01L175.85,369.86L177.08,369.45L196.63,363.8L197.86,363.54L210.32,361.81L211.59,361.72L225.89,361.67L227.22,361.74L249.14,363.93L250.54,364.1L278.36,366.81L279.73,366.87L295.79,366.86L297.1,366.8L318.95,364.92L320.22,364.8L339.63,363.66L340.95,363.65L358.56,364.45L359.94,364.57L385.93,366.14L387.24,366.11L400.09,365.06L401.35,364.91L414.29,364.09L415.66,364.2L423.02,365.81L424.62,366.42L426.27,367.15" style="vector-effect: none; fill: none; stroke: rgb(242, 197, 56); stroke-opacity: 1; stroke-width: 2px; opacity: 1;"/></g><g class="points"/><g class="text"/></g><g class="trace scatter trace5b6ec1" style="stroke-miterlimit: 2; opacity: 1;"><g class="fills"/><g class="errorbars"/><g class="lines"><path class="js-line" d="M27.65,20.7L33.54,102.04L34.18,108.74L38.78,148.36L39.68,154.84L45.98,192.74L47.17,198.86L53.73,228.44L55.15,234.13L62.78,261.25L64.4,266.39L72.86,290.56L74.61,295.07L83.64,315.89L85.48,319.71L94.78,336.97L96.66,340.05L105.97,353.66L107.82,356.02L116.9,366.04L118.67,367.7L127.31,374.32L128.98,375.33L137.02,378.87L138.57,379.29L145.94,380.18L147.34,380.13L154.05,378.89L155.33,378.47L162.64,375.08L163.81,374.4L187.32,360.03L188.48,359.59L195.73,357.77L196.98,357.62L204.81,357.57L206.16,357.7L215.97,359.55L217.41,359.92L252.47,369.39L253.87,369.56L263.35,369.93L264.66,369.86L274.84,368.37L276.08,368.09L303.29,361.9L304.58,361.8L313.87,361.77L315.23,361.87L329.2,363.93L330.62,364.2L350.29,367.35L351.65,367.44L360.95,367.39L362.24,367.27L373.56,365.3L374.8,365.03L386.14,363.14L387.45,363.06L395.55,363.42L396.95,363.62L416.64,366.85L417.9,366.65L421.33,364.99L422.33,364.01L424.05,361.19" style="vector-effect: none; fill: none; stroke: rgb(242, 184, 56); stroke-opacity: 1; stroke-width: 2px; opacity: 1;"/></g><g class="points"/><g class="text"/></g><g class="trace scatter trace32f4e2" style="stroke-miterlimit: 2; opacity: 1;"><g class="fills"/><g class="errorbars"/><g class="lines"><path class="js-line" d="M27.65,20.7L32.88,88.43L33.5,95.14L38.58,141.64L39.42,148.19L45.24,186.73L46.34,193.01L53.79,229.56L55.18,235.43L62.7,263.7L64.32,269.1L72.91,294.71L74.72,299.53L84.1,321.85L86.02,325.94L95.78,344.39L97.74,347.66L107.43,361.8L109.33,364.17L116.75,372.14L118.55,373.75L125.47,378.69L127.12,379.56L133.41,381.66L134.91,381.85L140.56,381.47L141.89,381.11L146.97,378.8L148.17,378.03L155.02,372.44L156.12,371.4L167.99,360.68L169.1,359.91L174.87,357L176.07,356.62L182.35,355.74L183.66,355.77L190.47,356.84L191.87,357.21L202.04,360.93L203.53,361.56L222.78,369.16L224.22,369.56L232.61,371L233.97,371.07L241.86,370.57L243.14,370.34L253.09,367.49L254.31,367.05L270.31,361.96L271.57,361.71L280.68,360.96L282.01,360.99L291.58,362.08L292.98,362.33L322.29,367.82L323.64,367.89L332.87,367.53L334.16,367.37L348.13,364.72L349.39,364.47L360.98,362.97L362.3,362.93L371.74,363.47L373.12,363.65L395.19,366.77L396.51,366.74L404.23,365.66L405.48,365.37L415.65,363.46L417,363.54L421.3,364.81L422.84,365.68L426.16,368.32" style="vector-effect: none; fill: none; stroke: rgb(242, 170, 56); stroke-opacity: 1; stroke-width: 2px; opacity: 1;"/></g><g class="points"/><g class="text"/></g><g class="trace scatter trace33c5be" style="stroke-miterlimit: 2; opacity: 1;"><g class="fills"/><g class="errorbars"/><g class="lines"><path class="js-line" d="M27.65,20.7L34.14,94.81L34.82,101.49L40.18,147.79L41.05,154.32L46.96,192.79L48.07,199.06L54.19,229.63L55.53,235.56L62.82,264.06L64.38,269.5L72.68,295.14L74.43,299.93L83.43,321.88L85.28,325.85L92.73,340.22L94.6,343.41L102.03,354.56L103.86,356.94L111.06,364.77L112.82,366.32L119.65,370.96L121.3,371.75L127.68,373.59L129.22,373.74L135.16,373.37L136.59,373.06L143.49,370.62L144.82,370.01L162.6,361.85L163.85,361.51L170.13,360.54L171.39,360.5L179.08,361.15L180.37,361.39L194.9,365.17L196.24,365.52L207.01,367.59L208.36,367.73L217.8,367.86L219.15,367.77L231.23,366.1L232.56,365.86L251.2,363.24L252.52,363.17L264.45,363.43L265.77,363.54L298.95,366.38L300.28,366.36L318.93,365.05L320.27,364.93L338.93,364.13L340.26,364.15L381.41,365.39L382.74,365.3L401.43,364.54L402.78,364.6L421.3,365.23L422.57,364.96L425.08,364.05" style="vector-effect: none; fill: none; stroke: rgb(242, 157, 56); stroke-opacity: 1; stroke-width: 2px; opacity: 1;"/></g><g class="points"/><g class="text"/></g><g class="trace scatter tracebf0ecd" style="stroke-miterlimit: 2; opacity: 1;"><g class="fills"/><g class="errorbars"/><g class="lines"><path class="js-line" d="M27.65,20.7L35.31,101.13L35.98,107.81L43.45,173.96L44.34,180.45L49.39,212.26L50.53,218.46L57.03,248.41L58.48,254.15L66.43,281.31L68.15,286.4L77.23,309.87L79.13,314.14L86.87,329.69L88.83,333.18L96.66,345.5L98.6,348.17L106.23,357.21L108.1,359.07L115.33,365L117.08,366.12L123.8,369.36L125.42,369.89L131.62,371.01L133.11,371.08L140.2,370.52L141.55,370.27L154.28,366.85L155.49,366.51L167.49,364.08L168.69,363.95L179.82,363.59L181.1,363.63L238.33,365.42L239.63,365.39L280.08,364.84L281.43,364.87L334.78,364.97L336.1,364.96L414.93,365.1L416.26,365.12L424.67,364.91" style="vector-effect: none; fill: none; stroke: rgb(242, 143, 56); stroke-opacity: 1; stroke-width: 2px; opacity: 1;"/></g><g class="points"/><g class="text"/></g><g class="trace scatter trace378b99" style="stroke-miterlimit: 2; opacity: 1;"><g class="fills"/><g class="errorbars"/><g class="lines"><path class="js-line" d="M27.65,20.7L34.57,94.49L35.21,101.19L42.29,167.7L43.13,174.25L47.94,206.39L49.05,212.66L55.36,243.02L56.78,248.85L64.62,276.52L66.33,281.73L75.42,305.87L77.32,310.29L87.16,330.2L89.16,333.73L97.19,346.25L99.18,348.99L107.03,358.37L108.95,360.33L116.4,366.69L118.19,367.93L125.06,371.58L126.69,372.18L132.87,373.53L134.33,373.62L141.13,372.87L142.39,372.52L149.49,369.55L150.6,368.96L163.8,362.55L164.96,362.2L172.28,361.07L173.57,361.04L181.76,361.78L183.19,362.03L212.26,367.45L213.62,367.5L222.75,367.02L224.01,366.85L249.06,363.44L250.38,363.44L264.08,364.38L265.48,364.53L284.83,366.11L286.17,366.12L300.52,365.43L301.8,365.33L321.27,364.32L322.61,364.34L365.62,365.19L366.93,365.12L387.92,364.81L389.26,364.86L410.97,365.15L412.3,365.07L423.53,365.19L424.65,365.49" style="vector-effect: none; fill: none; stroke: rgb(237, 120, 51); stroke-opacity: 1; stroke-width: 2px; opacity: 1;"/></g><g class="points"/><g class="text"/></g><g class="trace scatter tracea00590" style="stroke-miterlimit: 2; opacity: 1;"><g class="fills"/><g class="errorbars"/><g class="lines"><path class="js-line" d="M27.65,20.7L34.08,94.84L34.74,101.53L40.66,154.62L41.5,161.17L47.23,199.84L48.32,206.15L54.37,236.91L55.71,242.87L63.13,271.51L64.75,276.96L73.55,302.65L75.44,307.43L83.33,325.23L85.38,329.33L93.75,344.15L95.87,347.45L104.31,358.93L106.38,361.35L114.42,369.24L116.34,370.76L123.57,375.03L125.24,375.67L129.93,376.61L131.38,376.61L135.4,375.84L136.64,375.35L141.14,372.47L142.18,371.59L153.99,361.03L155.07,360.46L159.7,359.07L160.96,358.94L166.33,359.33L167.75,359.62L176.83,362.51L178.39,363.1L192.33,367.87L193.8,368.2L200.79,368.94L202.11,368.9L209.61,367.63L210.8,367.28L226.3,362.86L227.56,362.71L235.51,362.66L236.89,362.79L251.13,365.14L252.56,365.39L263.73,366.69L265.08,366.73L275.49,366.14L276.76,365.98L297.21,363.92L298.54,363.93L312.17,364.78L313.55,364.91L331.21,365.81L332.53,365.79L369.41,364.85L370.77,364.93L390.84,365.32L392.15,365.26L412.17,364.97L413.53,365.06L422.48,365.12L423.55,364.88L424.54,364.52" style="vector-effect: none; fill: none; stroke: rgb(232, 98, 46); stroke-opacity: 1; stroke-width: 2px; opacity: 1;"/></g><g class="points"/><g class="text"/></g><g class="trace scatter trace2c8aa0" style="stroke-miterlimit: 2; opacity: 1;"><g class="fills"/><g class="errorbars"/><g class="lines"><path class="js-line" d="M27.65,20.7L31.44,68.04L32.07,74.75L38.64,134.54L39.46,141.11L46.9,192.89L47.96,199.23L55.04,236.35L56.36,242.35L63.63,271.24L65.22,276.76L73.85,302.8L75.69,307.66L83.42,325.66L85.42,329.78L93.56,344.56L95.6,347.8L103.68,358.8L105.65,361.05L113.23,368L115.02,369.23L120.14,371.76L121.76,372.24L126.31,372.68L127.74,372.53L133.06,370.82L134.31,370.18L149.55,361.53L150.76,361.22L155.82,360.8L157.14,360.89L163.96,362.29L165.37,362.71L182.37,367.47L183.75,367.63L190.46,367.66L191.76,367.52L202,365.39L203.26,365.08L213.53,363.36L214.84,363.28L224.22,363.68L225.59,363.85L247.36,366.25L248.69,366.25L261.8,365.31L263.1,365.17L278.88,364.26L280.21,364.28L320.3,365.21L321.62,365.15L344.16,364.8L345.5,364.84L376.15,365.08L377.47,365.04L400.05,365.09L401.4,365.13L424.47,365.27" style="vector-effect: none; fill: none; stroke: rgb(227, 75, 40); stroke-opacity: 1; stroke-width: 2px; opacity: 1;"/></g><g class="points"/><g class="text"/></g><g class="trace scatter trace32ca70" style="stroke-miterlimit: 2; opacity: 1;"><g class="fills"/><g class="errorbars"/><g class="lines"><path class="js-line" d="M27.65,20.7L30.75,61.35L31.4,68.06L37.41,121.07L38.24,127.64L47.35,192.54L48.36,198.93L55.09,236.48L56.34,242.56L63.33,271.89L64.88,277.49L71.59,298.78L73.39,303.78L81,322.29L82.98,326.51L91.09,341.5L93.14,344.76L101.25,355.69L103.23,357.9L109,363.23L110.85,364.6L116.16,367.54L117.85,368.16L124.18,369.15L125.67,369.09L132.6,367.58L133.91,367.14L145.15,363.68L146.39,363.49L152.64,363.3L153.91,363.4L179.17,366.13L180.53,366.08L211.26,364.5L212.58,364.57L237.75,365.46L239.09,365.42L271.07,364.91L272.39,364.95L301.66,365.09L302.99,365.07L334.87,365.1L336.2,365.11L384.07,365.08L385.39,365.08L424.4,364.99" style="vector-effect: none; fill: none; stroke: rgb(222, 53, 35); stroke-opacity: 1; stroke-width: 2px; opacity: 1;"/></g><g class="points"/><g class="text"/></g><g class="trace scatter trace9ba061" style="stroke-miterlimit: 2; opacity: 1;"><g class="fills"/><g class="errorbars"/><g class="lines"><path class="js-line" d="M27.65,20.7L30.81,61.33L31.46,68.03L37.39,121.11L38.2,127.69L47.14,192.75L48.15,199.14L54.88,236.7L56.14,242.78L63.19,272.02L64.75,277.59L71.49,298.72L73.29,303.67L80.87,321.92L82.84,326.06L90.9,340.74L92.94,343.92L101.04,354.6L103.03,356.75L110.77,363.42L112.64,364.63L119.73,367.83L121.4,368.28L127.7,368.95L129.18,368.9L137.25,367.51L138.49,367.19L152.34,364.11L153.51,364L163.64,364L165,364.09L194.52,365.64L195.82,365.59L225.55,364.8L226.93,364.84L255.23,365.16L256.52,365.12L288.37,365.09L289.72,365.11L333.51,365.02L334.85,365.03L424.32,365.02" style="vector-effect: none; fill: none; stroke: rgb(217, 30, 30); stroke-opacity: 1; stroke-width: 2px; opacity: 1;"/></g><g class="points"/><g class="text"/></g></g></g></g><path class="xlines-above crisp" d="M0,0" style="fill: none;"/><path class="ylines-above crisp" d="M0,0" style="fill: none;"/><g class="overlines-above"/><g class="xaxislayer-above"><g class="xtick"><text text-anchor="middle" x="0" y="543" transform="translate(125.65,0)" style="font-family: 'Open Sans', verdana, arial, sans-serif; font-size: 28px; fill: rgb(0, 0, 0); fill-opacity: 1; white-space: pre; opacity: 1;">0</text></g><g class="xtick"><text text-anchor="middle" x="0" y="543" style="font-family: 'Open Sans', verdana, arial, sans-serif; font-size: 28px; fill: rgb(0, 0, 0); fill-opacity: 1; white-space: pre; opacity: 1;" transform="translate(258.22,0)">1</text></g><g class="xtick"><text text-anchor="middle" x="0" y="543" style="font-family: 'Open Sans', verdana, arial, sans-serif; font-size: 28px; fill: rgb(0, 0, 0); fill-opacity: 1; white-space: pre; opacity: 1;" transform="translate(390.78,0)">2</text></g><g class="xtick"><text text-anchor="middle" x="0" y="543" style="font-family: 'Open Sans', verdana, arial, sans-serif; font-size: 28px; fill: rgb(0, 0, 0); fill-opacity: 1; white-space: pre; opacity: 1;" transform="translate(523.35,0)">3</text></g></g><g class="yaxislayer-above"><g class="ytick"><text text-anchor="end" x="97" y="9.799999999999999" transform="translate(0,465.05)" style="font-family: 'Open Sans', verdana, arial, sans-serif; font-size: 28px; fill: rgb(0, 0, 0); fill-opacity: 1; white-space: pre; opacity: 1;">0</text></g><g class="ytick"><text text-anchor="end" x="97" y="9.799999999999999" style="font-family: 'Open Sans', verdana, arial, sans-serif; font-size: 28px; fill: rgb(0, 0, 0); fill-opacity: 1; white-space: pre; opacity: 1;" transform="translate(0,396.18)">0.2</text></g><g class="ytick"><text text-anchor="end" x="97" y="9.799999999999999" style="font-family: 'Open Sans', verdana, arial, sans-serif; font-size: 28px; fill: rgb(0, 0, 0); fill-opacity: 1; white-space: pre; opacity: 1;" transform="translate(0,327.31)">0.4</text></g><g class="ytick"><text text-anchor="end" x="97" y="9.799999999999999" style="font-family: 'Open Sans', verdana, arial, sans-serif; font-size: 28px; fill: rgb(0, 0, 0); fill-opacity: 1; white-space: pre; opacity: 1;" transform="translate(0,258.44)">0.6</text></g><g class="ytick"><text text-anchor="end" x="97" y="9.799999999999999" style="font-family: 'Open Sans', verdana, arial, sans-serif; font-size: 28px; fill: rgb(0, 0, 0); fill-opacity: 1; white-space: pre; opacity: 1;" transform="translate(0,189.57)">0.8</text></g><g class="ytick"><text text-anchor="end" x="97" y="9.799999999999999" style="font-family: 'Open Sans', verdana, arial, sans-serif; font-size: 28px; fill: rgb(0, 0, 0); fill-opacity: 1; white-space: pre; opacity: 1;" transform="translate(0,120.7)">1</text></g></g><g class="overaxes-above"/></g></g><g class="polarlayer"/><g class="smithlayer"/><g class="ternarylayer"/><g class="geolayer"/><g class="funnelarealayer"/><g class="pielayer"/><g class="iciclelayer"/><g class="treemaplayer"/><g class="sunburstlayer"/><g class="glimages"/><defs id="topdefs-c93aa8"><g class="clips"/><clipPath id="legendc93aa8"><rect width="228" height="304" x="0" y="0"/></clipPath></defs><g class="layer-above"><g class="imagelayer"/><g class="shapelayer"/></g><g class="infolayer"><g class="legend" pointer-events="all" transform="translate(560.06,100)"><rect class="bg" shape-rendering="crispEdges" width="228" height="304" x="0" y="0" style="stroke: rgb(68, 68, 68); stroke-opacity: 1; fill: rgb(255, 255, 255); fill-opacity: 1; stroke-width: 0px;"/><g class="scrollbox" transform="" clip-path="url(#legendc93aa8)"><g class="groups" transform=""><g class="traces" transform="translate(0,26.650000000000002)" style="opacity: 1;"><text class="legendtext" text-anchor="start" x="5" y="12.090000000000002" style="font-family: 'Open Sans', verdana, arial, sans-serif; font-size: 31px; fill: rgb(0, 0, 0); fill-opacity: 1; white-space: pre;">Reference</text><g class="layers"><g class="legendfill"/><g class="legendlines"/><g class="legendsymbols"><g class="legendpoints"/></g></g><rect class="legendtoggle" x="0" y="-21.650000000000002" width="222.65625" height="43.300000000000004" style="fill: rgb(0, 0, 0); fill-opacity: 0;"/></g><g class="traces" transform="translate(0,68)" style="opacity: 1;"><text class="legendtext" text-anchor="start" x="40" y="10.92" style="font-family: 'Open Sans', verdana, arial, sans-serif; font-size: 28px; fill: rgb(0, 0, 0); fill-opacity: 1; white-space: pre;">Reference</text><g class="layers" style="opacity: 1;"><g class="legendfill"/><g class="legendlines"><path class="js-line" d="M5,0h30" style="fill: none; stroke: rgb(0, 0, 0); stroke-opacity: 1; stroke-width: 2px;"/></g><g class="legendsymbols"><g class="legendpoints"/></g></g><rect class="legendtoggle" x="0" y="-19.7" width="222.65625" height="39.4" style="fill: rgb(0, 0, 0); fill-opacity: 0;"/></g><g class="traces" transform="translate(0,107.4)" style="opacity: 1;"><text class="legendtext" text-anchor="start" x="40" y="10.92" style="font-family: 'Open Sans', verdana, arial, sans-serif; font-size: 28px; fill: rgb(0, 0, 0); fill-opacity: 1; white-space: pre;">Control point</text><g class="layers" style="opacity: 1;"><g class="legendfill"/><g class="legendlines"/><g class="legendsymbols"><g class="legendpoints"><path class="scatterpts" transform="translate(20,0)" d="M4,0A4,4 0 1,1 0,-4A4,4 0 0,1 4,0Z" style="opacity: 1; stroke-width: 0px; fill: rgb(0, 0, 0); fill-opacity: 1;"/></g></g></g><rect class="legendtoggle" x="0" y="-19.7" width="222.65625" height="39.4" style="fill: rgb(0, 0, 0); fill-opacity: 0;"/></g></g><g class="groups" transform="translate(0,10)"><g class="traces" transform="translate(0,148.75)" style="opacity: 1;"><text class="legendtext" text-anchor="start" x="5" y="12.090000000000002" style="font-family: 'Open Sans', verdana, arial, sans-serif; font-size: 31px; fill: rgb(0, 0, 0); fill-opacity: 1; white-space: pre;">Trajectory</text><g class="layers"><g class="legendfill"/><g class="legendlines"/><g class="legendsymbols"><g class="legendpoints"/></g></g><rect class="legendtoggle" x="0" y="-21.650000000000002" width="222.65625" height="43.300000000000004" style="fill: rgb(0, 0, 0); fill-opacity: 0;"/></g><g class="traces" transform="translate(0,190.1)" style="opacity: 1;"><text class="legendtext" text-anchor="start" x="40" y="10.92" style="font-family: 'Open Sans', verdana, arial, sans-serif; font-size: 28px; fill: rgb(0, 0, 0); fill-opacity: 1; white-space: pre;">N = 10</text><g class="layers" style="opacity: 1;"><g class="legendfill"/><g class="legendlines"><path class="js-line" d="M5,0h30" style="fill: none; stroke: rgb(242, 211, 56); stroke-opacity: 1; stroke-width: 2px;"/></g><g class="legendsymbols"><g class="legendpoints"/></g></g><rect class="legendtoggle" x="0" y="-19.7" width="222.65625" height="39.4" style="fill: rgb(0, 0, 0); fill-opacity: 0;"/></g><g class="traces" transform="translate(0,229.5)" style="opacity: 1;"><text class="legendtext" text-anchor="start" x="40" y="10.92" style="font-family: 'Open Sans', verdana, arial, sans-serif; font-size: 28px; fill: rgb(0, 0, 0); fill-opacity: 1; white-space: pre;">N = 15</text><g class="layers" style="opacity: 1;"><g class="legendfill"/><g class="legendlines"><path class="js-line" d="M5,0h30" style="fill: none; stroke: rgb(242, 143, 56); stroke-opacity: 1; stroke-width: 2px;"/></g><g class="legendsymbols"><g class="legendpoints"/></g></g><rect class="legendtoggle" x="0" y="-19.7" width="222.65625" height="39.4" style="fill: rgb(0, 0, 0); fill-opacity: 0;"/></g><g class="traces" transform="translate(0,268.90000000000003)" style="opacity: 1;"><text class="legendtext" text-anchor="start" x="40" y="10.92" style="font-family: 'Open Sans', verdana, arial, sans-serif; font-size: 28px; fill: rgb(0, 0, 0); fill-opacity: 1; white-space: pre;">N = 20</text><g class="layers" style="opacity: 1;"><g class="legendfill"/><g class="legendlines"><path class="js-line" d="M5,0h30" style="fill: none; stroke: rgb(217, 30, 30); stroke-opacity: 1; stroke-width: 2px;"/></g><g class="legendsymbols"><g class="legendpoints"/></g></g><rect class="legendtoggle" x="0" y="-19.7" width="222.65625" height="39.4" style="fill: rgb(0, 0, 0); fill-opacity: 0;"/></g></g></g><rect class="scrollbar" rx="20" ry="3" width="0" height="0" x="0" y="0" style="fill: rgb(128, 139, 164); fill-opacity: 1;"/></g><g class="g-gtitle"/><g class="g-xtitle"><text class="xtitle" x="324.5" y="587.3" text-anchor="middle" style="opacity: 1; font-family: 'Open Sans', verdana, arial, sans-serif; font-size: 34px; fill: rgb(0, 0, 0); fill-opacity: 1; white-space: pre;">East [m]</text></g><g class="g-ytitle" transform="translate(9.197265625,0)"><text class="ytitle" transform="rotate(-90,24.803124999999994,307)" x="24.803124999999994" y="307" text-anchor="middle" style="opacity: 1; font-family: 'Open Sans', verdana, arial, sans-serif; font-size: 34px; fill: rgb(0, 0, 0); fill-opacity: 1; white-space: pre;">North [m]</text></g></g></svg>