<svg class="main-svg" xmlns="http://www.w3.org/2000/svg" xmlns:xlink="http://www.w3.org/1999/xlink" width="1200" height="400" style="" viewBox="0 0 1200 400"><rect x="0" y="0" width="1200" height="400" style="fill: rgb(255, 255, 255); fill-opacity: 1;"/><defs id="defs-0bab86"><g class="clips"><clipPath id="clip0bab86xyplot" class="plotclip"><rect width="1022" height="214"/></clipPath><clipPath class="axesclip" id="clip0bab86x"><rect x="98" y="0" width="1022" height="400"/></clipPath><clipPath class="axesclip" id="clip0bab86y"><rect x="0" y="100" width="1200" height="214"/></clipPath><clipPath class="axesclip" id="clip0bab86xy"><rect x="98" y="100" width="1022" height="214"/></clipPath></g><g class="gradients"/><g class="patterns"/></defs><g class="bglayer"/><g class="layer-below"><g class="imagelayer"/><g class="shapelayer"/></g><g class="cartesianlayer"><g class="subplot xy"><g class="layer-subplot"><g class="shapelayer"/><g class="imagelayer"/></g><g class="minor-gridlayer"><g class="x"/><g class="y"/></g><g class="gridlayer"><g class="x"><path class="xgrid crisp" transform="translate(305.73,0)" d="M0,100v214" style="stroke: rgb(200, 200, 200); stroke-opacity: 1; stroke-width: 1px;"/><path class="xgrid crisp" transform="translate(457.37,0)" d="M0,100v214" style="stroke: rgb(200, 200, 200); stroke-opacity: 1; stroke-width: 1px;"/><path class="xgrid crisp" transform="translate(609,0)" d="M0,100v214" style="stroke: rgb(200, 200, 200); stroke-opacity: 1; stroke-width: 1px;"/><path class="xgrid crisp" transform="translate(760.63,0)" d="M0,100v214" style="stroke: rgb(200, 200, 200); stroke-opacity: 1; stroke-width: 1px;"/><path class="xgrid crisp" transform="translate(912.27,0)" d="M0,100v214" style="stroke: rgb(200, 200, 200); stroke-opacity: 1; stroke-width: 1px;"/><path class="xgrid crisp" transform="translate(1063.9,0)" d="M0,100v214" style="stroke: rgb(200, 200, 200); stroke-opacity: 1; stroke-width: 1px;"/></g><g class="y"><path class="ygrid crisp" transform="translate(0,260.78)" d="M98,0h1022" style="stroke: rgb(200, 200, 200); stroke-opacity: 1; stroke-width: 1px;"/><path class="ygrid crisp" transform="translate(0,223.26)" d="M98,0h1022" style="stroke: rgb(200, 200, 200); stroke-opacity: 1; stroke-width: 1px;"/><path class="ygrid crisp" transform="translate(0,185.74)" d="M98,0h1022" style="stroke: rgb(200, 200, 200); stroke-opacity: 1; stroke-width: 1px;"/><path class="ygrid crisp" transform="translate(0,148.22)" d="M98,0h1022" style="stroke: rgb(200, 200, 200); stroke-opacity: 1; stroke-width: 1px;"/><path class="ygrid crisp" transform="translate(0,110.7)" d="M98,0h1022" style="stroke: rgb(200, 200, 200); stroke-opacity: 1; stroke-width: 1px;"/></g></g><g class="zerolinelayer"><path class="xzl zl crisp" transform="translate(154.1,0)" d="M0,100v214" style="stroke: rgb(200, 200, 200); stroke-opacity: 1; stroke-width: 2px;"/><path class="yzl zl crisp" transform="translate(0,298.3)" d="M98,0h1022" style="stroke: rgb(200, 200, 200); stroke-opacity: 1; stroke-width: 2px;"/></g><g class="layer-between"><g class="shapelayer"/><g class="imagelayer"/></g><path class="xlines-below"/><path class="ylines-below"/><g class="overlines-below"/><g class="xaxislayer-below"/><g class="yaxislayer-below"/><g class="overaxes-below"/><g class="overplot"><g class="xy" transform="translate(98,100)" clip-path="url(#clip0bab86xyplot)"><g class="scatterlayer mlayer"><g class="trace scatter trace653dfe" style="stroke-miterlimit: 2; opacity: 1;"><g class="fills"/><g class="errorbars"/><g class="lines"><path class="js-line" d="M56.1,198.3L965.9,198.3" style="vector-effect: none; fill: none; stroke: rgb(0, 0, 0); stroke-opacity: 1; stroke-width: 2px; opacity: 1;"/></g><g class="points"/><g class="text"/></g><g class="trace scatter trace94df39" style="stroke-miterlimit: 2; opacity: 1;"><g class="fills"/><g class="errorbars"/><g class="lines"/><g class="points"><path class="point" transform="translate(56.1,198.3)" d="M4,0A4,4 0 1,1 0,-4A4,4 0 0,1 4,0Z" style="opacity: 1; stroke-width: 0px; fill: rgb(0, 0, 0); fill-opacity: 1;"/><path class="point" transform="translate(965.9,198.3)" d="M4,0A4,4 0 1,1 0,-4A4,4 0 0,1 4,0Z" style="opacity: 1; stroke-width: 0px; fill: rgb(0, 0, 0); fill-opacity: 1;"/></g><g class="text"/></g><g class="trace scatter trace3f5f9f" style="stroke-miterlimit: 2; opacity: 1;"><g class="fills"/><g class="errorbars"/><g class="lines"><path class="js-line" d="M56.1,10.7L89.57,30.65L92.61,32.39L129.13,52.35L132.17,53.93L168.68,72.08L171.73,73.52L208.24,89.95L211.28,91.25L250.84,107.22L253.88,108.38L293.44,122.55L296.48,123.57L333,135.14L336.04,136.05L375.59,147.06L378.64,147.85L421.24,158.05L424.28,158.72L469.92,167.91L472.96,168.46L518.61,176.01L521.65,176.46L573.38,183.23L576.42,183.58L631.19,188.96L634.23,189.21L689,193.01L692.05,193.18L752.9,195.89L755.95,195.99L828.97,197.66L832.02,197.7L932.43,198.29L935.47,198.29L965.9,198.3" style="vector-effect: none; fill: none; stroke: rgb(10, 119, 175); stroke-opacity: 1; stroke-width: 2px; opacity: 1;"/></g><g class="points"/><g class="text"/></g><g class="trace scatter trace06114a" style="stroke-miterlimit: 2; opacity: 1;"><g class="fills"/><g class="errorbars"/><g class="lines"><path class="js-line" d="M56.1,10.7L75.31,33.25L78.07,36.3L97.62,56.59L100.44,59.34L120.3,77.49L123.16,79.94L143.32,96.08L146.22,98.25L166.65,112.5L169.58,114.4L190.26,126.89L193.23,128.55L214.14,139.4L217.14,140.83L241.28,151.39L244.32,152.59L268.69,161.37L271.75,162.36L299.4,170.34L302.49,171.13L330.34,177.36L333.44,177.96L364.57,183.14L367.69,183.58L402.09,187.55L405.22,187.85L445.95,190.82L449.09,190.99L505.44,193.3L508.56,193.4L614.16,196.05L617.25,196.1L734.12,197.65L737.18,197.67L871.54,198.26L874.58,198.26L965.9,198.3" style="vector-effect: none; fill: none; stroke: rgb(10, 136, 186); stroke-opacity: 1; stroke-width: 2px; opacity: 1;"/></g><g class="points"/><g class="text"/></g><g class="trace scatter trace2819c2" style="stroke-miterlimit: 2; opacity: 1;"><g class="fills"/><g class="errorbars"/><g class="lines"><path class="js-line" d="M56.1,10.7L66.13,27.93L68.24,31.23L79.22,47L81.5,50.01L95.81,67.14L98.29,69.84L113.7,85.15L116.36,87.56L132.77,101.17L135.58,103.3L152.86,115.33L155.81,117.21L173.85,127.77L176.91,129.42L198.76,140.07L201.93,141.47L224.46,150.52L227.72,151.71L254.08,160.32L257.4,161.29L287.51,169.12L290.87,169.9L324.47,176.75L327.82,177.35L367.72,183.68L371.01,184.14L413.33,189.27L416.55,189.61L464.38,193.66L467.54,193.88L520.72,196.57L523.82,196.68L588.46,198.05L591.52,198.08L689,198.3L692.05,198.3L965.9,198.3" style="vector-effect: none; fill: none; stroke: rgb(56, 151, 160); stroke-opacity: 1; stroke-width: 2px; opacity: 1;"/></g><g class="points"/><g class="text"/></g><g class="trace scatter trace60637c" style="stroke-miterlimit: 2; opacity: 1;"><g class="fills"/><g class="errorbars"/><g class="lines"><path class="js-line" d="M56.1,10.7L64.25,28.39L66.05,31.8L75.92,48.16L78.06,51.3L89.47,66.38L91.9,69.27L104.69,83.11L107.37,85.76L121.36,98.42L124.26,100.83L142.35,114.54L145.47,116.69L164.7,128.88L167.98,130.79L188.06,141.55L191.46,143.22L215.56,154.07L219.04,155.49L243.45,164.65L246.93,165.84L274.65,174.39L278.07,175.34L305.13,182.05L308.47,182.78L334.87,187.87L338.13,188.42L370.35,192.85L373.54,193.2L405.06,195.93L408.19,196.13L445.35,197.73L448.42,197.8L500.35,198.3L503.39,198.3L965.9,198.3" style="vector-effect: none; fill: none; stroke: rgb(103, 166, 134); stroke-opacity: 1; stroke-width: 2px; opacity: 1;"/></g><g class="points"/><g class="text"/></g><g class="trace scatter trace74bf74" style="stroke-miterlimit: 2; opacity: 1;"><g class="fills"/><g class="errorbars"/><g class="lines"><path class="js-line" d="M56.1,10.7L61.6,25.24L63.19,28.8L70.38,42.76L72.37,46.17L81.07,59.5L83.42,62.75L96.11,78.52L98.83,81.57L113.19,96.3L116.2,99.13L131.91,112.76L135.16,115.37L155.31,130.21L158.75,132.54L179.79,145.65L183.34,147.69L204.75,158.98L208.31,160.71L229.54,170.08L233.04,171.48L253.7,178.9L257.09,179.99L280.49,186.47L283.78,187.25L306.54,191.76L309.75,192.29L335.13,195.5L338.27,195.79L366.23,197.57L369.31,197.69L409.06,198.29L412.11,198.3L965.9,198.3" style="vector-effect: none; fill: none; stroke: rgb(149, 181, 108); stroke-opacity: 1; stroke-width: 2px; opacity: 1;"/></g><g class="points"/><g class="text"/></g><g class="trace scatter trace5f2897" style="stroke-miterlimit: 2; opacity: 1;"><g class="fills"/><g class="errorbars"/><g class="lines"><path class="js-line" d="M56.1,10.7L60.9,25.46L62.36,29.11L69.17,43.55L71.1,47.11L79.68,61.12L82.02,64.55L92.12,78.03L94.81,81.32L109.17,97.27L112.2,100.35L128.03,115.14L131.31,117.97L148.17,131.42L151.62,133.96L169.07,145.87L172.59,148.08L190.2,158.26L193.71,160.11L214.54,169.89L217.98,171.32L238.41,178.74L241.78,179.8L261.85,185.21L265.17,185.96L288.18,190.22L291.44,190.7L317.29,193.57L320.49,193.82L355.41,195.73L358.56,195.85L426.93,197.57L430,197.61L509.44,198.17L512.49,198.17L777.25,198.3L780.29,198.3L965.9,198.3" style="vector-effect: none; fill: none; stroke: rgb(196, 196, 82); stroke-opacity: 1; stroke-width: 2px; opacity: 1;"/></g><g class="points"/><g class="text"/></g><g class="trace scatter trace31c026" style="stroke-miterlimit: 2; opacity: 1;"><g class="fills"/><g class="errorbars"/><g class="lines"><path class="js-line" d="M56.1,10.7L60.05,25.55L61.32,29.23L67.45,43.78L69.23,47.37L77.27,61.48L79.49,64.95L89.17,78.49L91.77,81.79L105.73,97.75L108.69,100.82L124.22,115.5L127.45,118.29L144.07,131.44L147.47,133.9L164.7,145.29L168.17,147.38L185.61,156.88L189.11,158.6L206.65,166.38L210.16,167.77L231.21,175.14L234.72,176.21L259.14,182.58L262.61,183.34L290.09,188.38L293.49,188.89L323.52,192.61L326.8,192.94L362.15,195.7L365.31,195.88L405.76,197.4L408.83,197.47L482.07,198.17L485.11,198.18L749.86,198.3L752.9,198.3L965.9,198.3" style="vector-effect: none; fill: none; stroke: rgb(242, 211, 56); stroke-opacity: 1; stroke-width: 2px; opacity: 1;"/></g><g class="points"/><g class="text"/></g><g class="trace scatter trace8a5a90" style="stroke-miterlimit: 2; opacity: 1;"><g class="fills"/><g class="errorbars"/><g class="lines"><path class="js-line" d="M56.1,10.7L59.52,25.6L60.67,29.3L66.35,43.92L68.03,47.52L75.7,61.71L77.85,65.19L87.25,78.8L89.8,82.12L100.66,95.01L103.54,98.12L118.74,113.03L121.93,115.87L138.45,129.22L141.85,131.71L159.23,143.28L162.76,145.42L180.71,155.25L184.34,157.05L206.29,166.79L209.97,168.24L232.01,175.99L235.67,177.13L261,183.99L264.57,184.82L288.95,189.68L292.35,190.25L318.87,193.85L322.11,194.2L350.67,196.39L353.79,196.56L396.81,197.76L399.86,197.8L494.26,198.3L497.31,198.3L965.9,198.3" style="vector-effect: none; fill: none; stroke: rgb(242, 197, 56); stroke-opacity: 1; stroke-width: 2px; opacity: 1;"/></g><g class="points"/><g class="text"/></g><g class="trace scatter tracea33475" style="stroke-miterlimit: 2; opacity: 1;"><g class="fills"/><g class="errorbars"/><g class="lines"><path class="js-line" d="M56.1,10.7L59.23,25.63L60.31,29.33L65.69,44L67.29,47.62L74.7,61.88L76.78,65.38L85.99,79.09L88.49,82.43L99.27,95.45L102.14,98.61L117.44,113.73L120.68,116.61L137.59,130.23L141.11,132.79L159.22,144.8L162.93,147.05L181.79,157.46L185.61,159.38L208.62,169.81L212.45,171.37L235.19,179.6L238.91,180.79L260.67,186.85L264.19,187.69L284.69,191.77L288.02,192.32L310.74,195.16L313.92,195.45L341.93,197.1L345,197.21L402.96,198.17L406.01,198.19L533.82,198.3L536.86,198.3L965.9,198.3" style="vector-effect: none; fill: none; stroke: rgb(242, 184, 56); stroke-opacity: 1; stroke-width: 2px; opacity: 1;"/></g><g class="points"/><g class="text"/></g><g class="trace scatter tracebbf691" style="stroke-miterlimit: 2; opacity: 1;"><g class="fills"/><g class="errorbars"/><g class="lines"><path class="js-line" d="M56.1,10.7L59.16,25.64L60.19,29.34L65.35,44.05L66.9,47.68L74.05,62.04L76.07,65.57L85.08,79.45L87.55,82.85L98.3,96.14L101.19,99.37L113.53,111.95L116.81,114.99L130.61,126.73L134.21,129.56L152.94,142.93L156.81,145.45L176.49,157.23L180.47,159.41L200.39,169.39L204.35,171.2L223.79,179.2L227.58,180.58L245.91,186.45L249.45,187.42L269.99,192.02L273.31,192.61L295.85,195.52L298.99,195.8L326.76,197.29L329.82,197.39L381.67,198.23L384.72,198.24L506.44,198.3L509.48,198.3L965.9,198.3" style="vector-effect: none; fill: none; stroke: rgb(242, 170, 56); stroke-opacity: 1; stroke-width: 2px; opacity: 1;"/></g><g class="points"/><g class="text"/></g><g class="trace scatter tracef0d982" style="stroke-miterlimit: 2; opacity: 1;"><g class="fills"/><g class="errorbars"/><g class="lines"><path class="js-line" d="M56.1,10.7L59.21,25.63L60.23,29.34L65.29,44.07L66.8,47.72L73.78,62.13L75.76,65.69L84.62,79.7L87.07,83.15L97.78,96.65L100.68,99.95L113.19,112.85L116.53,115.99L130.61,128.14L134.28,131.06L153.34,144.93L157.25,147.54L177.1,159.64L181.08,161.86L200.86,171.84L204.75,173.6L223.66,181.15L227.33,182.42L245.19,187.71L248.67,188.58L269.02,192.63L272.33,193.14L295.03,195.71L298.22,195.97L332.69,197.75L335.78,197.84L381.68,198.3L384.72,198.3L965.9,198.3" style="vector-effect: none; fill: none; stroke: rgb(242, 157, 56); stroke-opacity: 1; stroke-width: 2px; opacity: 1;"/></g><g class="points"/><g class="text"/></g><g class="trace scatter trace6f9006" style="stroke-miterlimit: 2; opacity: 1;"><g class="fills"/><g class="errorbars"/><g class="lines"><path class="js-line" d="M56.1,10.7L59.22,25.63L60.24,29.34L65.28,44.07L66.78,47.72L73.72,62.15L75.68,65.71L84.48,79.74L86.91,83.19L97.52,96.72L100.4,100.04L112.77,112.97L116.06,116.12L133.42,131.18L137.05,134.05L155.79,147.57L159.62,150.09L178.99,161.68L182.87,163.78L202.15,173.09L205.97,174.72L224.79,181.79L228.5,183.01L250.37,189.03L253.94,189.84L274.88,193.71L278.28,194.21L301.42,196.73L304.64,196.97L332.88,198.14L335.96,198.19L399.94,198.3L402.98,198.3L965.9,198.3" style="vector-effect: none; fill: none; stroke: rgb(242, 143, 56); stroke-opacity: 1; stroke-width: 2px; opacity: 1;"/></g><g class="points"/><g class="text"/></g><g class="trace scatter trace2ffd48" style="stroke-miterlimit: 2; opacity: 1;"><g class="fills"/><g class="errorbars"/><g class="lines"><path class="js-line" d="M56.1,10.7L59.2,25.63L60.22,29.34L65.21,44.08L66.7,47.73L73.56,62.17L75.51,65.74L84.21,79.79L86.61,83.25L97.12,96.82L99.96,100.15L112.14,113.11L115.36,116.26L132.42,131.36L136,134.23L154.51,147.78L158.31,150.31L177.69,161.96L181.61,164.08L201.3,173.62L205.24,175.33L224.79,182.82L228.65,184.12L247.58,189.65L251.28,190.56L272.6,194.77L276.01,195.28L295.77,197.33L298.97,197.54L326.9,198.29L329.95,198.3L965.9,198.3" style="vector-effect: none; fill: none; stroke: rgb(237, 120, 51); stroke-opacity: 1; stroke-width: 2px; opacity: 1;"/></g><g class="points"/><g class="text"/></g><g class="trace scatter trace077fc3" style="stroke-miterlimit: 2; opacity: 1;"><g class="fills"/><g class="errorbars"/><g class="lines"><path class="js-line" d="M56.1,10.7L59.17,25.64L60.17,29.35L65.11,44.09L66.57,47.74L73.35,62.2L75.27,65.77L83.86,79.85L86.24,83.32L96.61,96.93L99.41,100.27L111.42,113.29L114.61,116.45L128.03,128.72L131.55,131.68L146.18,143.05L149.97,145.76L169.6,158.51L173.64,160.88L194.11,171.77L198.23,173.74L218.68,182.5L222.71,184.02L242.24,190.38L245.99,191.39L263.87,195.19L267.29,195.72L286.94,197.71L290.1,197.88L317.78,198.3L320.82,198.3L965.9,198.3" style="vector-effect: none; fill: none; stroke: rgb(232, 98, 46); stroke-opacity: 1; stroke-width: 2px; opacity: 1;"/></g><g class="points"/><g class="text"/></g><g class="trace scatter tracedc9cb4" style="stroke-miterlimit: 2; opacity: 1;"><g class="fills"/><g class="errorbars"/><g class="lines"><path class="js-line" d="M56.1,10.7L59.14,25.64L60.13,29.35L65,44.1L66.45,47.76L73.13,62.23L75.02,65.81L83.49,79.92L85.83,83.4L96.05,97.06L98.82,100.41L110.72,113.54L113.9,116.75L127.41,129.27L130.98,132.31L146.01,144.13L149.95,146.99L170.55,160.62L174.8,163.18L196.25,174.92L200.53,177.03L221.44,186.13L225.47,187.63L240.86,192.47L244.52,193.39L258.5,196.11L261.86,196.57L277.99,197.94L281.11,198.07L311.69,198.29L314.73,198.29L965.9,198.3" style="vector-effect: none; fill: none; stroke: rgb(227, 75, 40); stroke-opacity: 1; stroke-width: 2px; opacity: 1;"/></g><g class="points"/><g class="text"/></g><g class="trace scatter tracea544a0" style="stroke-miterlimit: 2; opacity: 1;"><g class="fills"/><g class="errorbars"/><g class="lines"><path class="js-line" d="M56.1,10.7L59.37,25.62L60.41,29.33L65.43,44.06L66.9,47.71L73.65,62.18L75.55,65.75L84,79.87L86.32,83.35L96.44,97.04L99.17,100.41L110.9,113.6L114.03,116.83L130.83,132.51L134.42,135.55L153.41,150.2L157.38,152.99L177.77,166.01L181.91,168.4L198.44,177.04L202.53,178.96L218.58,185.51L222.48,186.86L237.65,191.18L241.34,192.03L259.22,195.1L262.69,195.52L286.13,197.34L289.37,197.5L326.89,198.28L329.94,198.29L561.21,198.3L564.25,198.3L965.9,198.3" style="vector-effect: none; fill: none; stroke: rgb(222, 53, 35); stroke-opacity: 1; stroke-width: 2px; opacity: 1;"/></g><g class="points"/><g class="text"/></g><g class="trace scatter trace1f21ce" style="stroke-miterlimit: 2; opacity: 1;"><g class="fills"/><g class="errorbars"/><g class="lines"><path class="js-line" d="M56.1,10.7L59.51,25.61L60.58,29.31L65.68,44.04L67.16,47.69L73.92,62.15L75.82,65.73L84.22,79.86L86.52,83.34L96.53,97.06L99.23,100.44L110.79,113.68L113.88,116.93L126.95,129.63L130.4,132.73L148.67,147.66L152.49,150.51L172.2,163.76L176.22,166.18L192.46,174.96L196.53,176.9L212.72,183.57L216.73,184.97L232.56,189.66L236.44,190.62L255.35,194.32L259,194.86L279.89,197.13L283.21,197.36L308.59,198.25L311.66,198.27L430.37,198.3L433.41,198.3L965.9,198.3" style="vector-effect: none; fill: none; stroke: rgb(217, 30, 30); stroke-opacity: 1; stroke-width: 2px; opacity: 1;"/></g><g class="points"/><g class="text"/></g></g></g></g><path class="xlines-above crisp" d="M0,0" style="fill: none;"/><path class="ylines-above crisp" d="M0,0" style="fill: none;"/><g class="overlines-above"/><g class="xaxislayer-above"><g class="xtick"><text text-anchor="middle" x="0" y="343" transform="translate(154.1,0)" style="font-family: 'Open Sans', verdana, arial, sans-serif; font-size: 28px; fill: rgb(0, 0, 0); fill-opacity: 1; white-space: pre; opacity: 1;">0</text></g><g class="xtick"><text text-anchor="middle" x="0" y="343" style="font-family: 'Open Sans', verdana, arial, sans-serif; font-size: 28px; fill: rgb(0, 0, 0); fill-opacity: 1; white-space: pre; opacity: 1;" transform="translate(305.73,0)">0.5</text></g><g class="xtick"><text text-anchor="middle" x="0" y="343" style="font-family: 'Open Sans', verdana, arial, sans-serif; font-size: 28px; fill: rgb(0, 0, 0); fill-opacity: 1; white-space: pre; opacity: 1;" transform="translate(457.37,0)">1</text></g><g class="xtick"><text text-anchor="middle" x="0" y="343" style="font-family: 'Open Sans', verdana, arial, sans-serif; font-size: 28px; fill: rgb(0, 0, 0); fill-opacity: 1; white-space: pre; opacity: 1;" transform="translate(609,0)">1.5</text></g><g class="xtick"><text text-anchor="middle" x="0" y="343" style="font-family: 'Open Sans', verdana, arial, sans-serif; font-size: 28px; fill: rgb(0, 0, 0); fill-opacity: 1; white-space: pre; opacity: 1;" transform="translate(760.63,0)">2</text></g><g class="xtick"><text text-anchor="middle" x="0" y="343" style="font-family: 'Open Sans', verdana, arial, sans-serif; font-size: 28px; fill: rgb(0, 0, 0); fill-opacity: 1; white-space: pre; opacity: 1;" transform="translate(912.27,0)">2.5</text></g><g class="xtick"><text text-anchor="middle" x="0" y="343" style="font-family: 'Open Sans', verdana, arial, sans-serif; font-size: 28px; fill: rgb(0, 0, 0); fill-opacity: 1; white-space: pre; opacity: 1;" transform="translate(1063.9,0)">3</text></g></g><g class="yaxislayer-above"><g class="ytick"><text text-anchor="end" x="97" y="9.799999999999999" transform="translate(0,298.3)" style="font-family: 'Open Sans', verdana, arial, sans-serif; font-size: 28px; fill: rgb(0, 0, 0); fill-opacity: 1; white-space: pre; opacity: 1;">0</text></g><g class="ytick"><text text-anchor="end" x="97" y="9.799999999999999" style="font-family: 'Open Sans', verdana, arial, sans-serif; font-size: 28px; fill: rgb(0, 0, 0); fill-opacity: 1; white-space: pre; opacity: 1;" transform="translate(0,260.78)">0.2</text></g><g class="ytick"><text text-anchor="end" x="97" y="9.799999999999999" style="font-family: 'Open Sans', verdana, arial, sans-serif; font-size: 28px; fill: rgb(0, 0, 0); fill-opacity: 1; white-space: pre; opacity: 1;" transform="translate(0,223.26)">0.4</text></g><g class="ytick"><text text-anchor="end" x="97" y="9.799999999999999" style="font-family: 'Open Sans', verdana, arial, sans-serif; font-size: 28px; fill: rgb(0, 0, 0); fill-opacity: 1; white-space: pre; opacity: 1;" transform="translate(0,185.74)">0.6</text></g><g class="ytick"><text text-anchor="end" x="97" y="9.799999999999999" style="font-family: 'Open Sans', verdana, arial, sans-serif; font-size: 28px; fill: rgb(0, 0, 0); fill-opacity: 1; white-space: pre; opacity: 1;" transform="translate(0,148.22)">0.8</text></g><g class="ytick"><text text-anchor="end" x="97" y="9.799999999999999" style="font-family: 'Open Sans', verdana, arial, sans-serif; font-size: 28px; fill: rgb(0, 0, 0); fill-opacity: 1; white-space: pre; opacity: 1;" transform="translate(0,110.7)">1</text></g></g><g class="overaxes-above"/></g></g><g class="polarlayer"/><g class="smithlayer"/><g class="ternarylayer"/><g class="geolayer"/><g class="funnelarealayer"/><g class="pielayer"/><g class="iciclelayer"/><g class="treemaplayer"/><g class="sunburstlayer"/><g class="glimages"/><defs id="topdefs-0bab86"><g class="clips"/><clipPath id="legend0bab86"><rect width="228" height="196" x="2" y="2"/></clipPath></defs><g class="layer-above"><g class="imagelayer"/><g class="shapelayer"/></g><g class="infolayer"><g class="legend" pointer-events="all" transform="translate(877.78,95.72)"><rect class="bg" shape-rendering="crispEdges" width="230" height="198" x="1" y="1" style="stroke: rgb(0, 0, 0); stroke-opacity: 1; fill: rgb(255, 255, 255); fill-opacity: 1; stroke-width: 2px;"/><g class="scrollbox" transform="" clip-path="url(#legend0bab86)"><g class="groups" transform=""><g class="traces" transform="translate(2,28.650000000000002)" style="opacity: 1;"><text class="legendtext" text-anchor="start" x="5" y="12.090000000000002" style="font-family: 'Open Sans', verdana, arial, sans-serif; font-size: 31px; fill: rgb(0, 0, 0); fill-opacity: 1; white-space: pre;">Reference</text><g class="layers"><g class="legendfill"/><g class="legendlines"/><g class="legendsymbols"><g class="legendpoints"/></g></g><rect class="legendtoggle" x="0" y="-21.650000000000002" width="222.65625" height="43.300000000000004" style="fill: rgb(0, 0, 0); fill-opacity: 0;"/></g><g class="traces" transform="translate(2,70)" style="opacity: 1;"><text class="legendtext" text-anchor="start" x="40" y="10.92" style="font-family: 'Open Sans', verdana, arial, sans-serif; font-size: 28px; fill: rgb(0, 0, 0); fill-opacity: 1; white-space: pre;">Reference</text><g class="layers" style="opacity: 1;"><g class="legendfill"/><g class="legendlines"><path class="js-line" d="M5,0h30" style="fill: none; stroke: rgb(0, 0, 0); stroke-opacity: 1; stroke-width: 2px;"/></g><g class="legendsymbols"><g class="legendpoints"/></g></g><rect class="legendtoggle" x="0" y="-19.7" width="222.65625" height="39.4" style="fill: rgb(0, 0, 0); fill-opacity: 0;"/></g><g class="traces" transform="translate(2,109.4)" style="opacity: 1;"><text class="legendtext" text-anchor="start" x="40" y="10.92" style="font-family: 'Open Sans', verdana, arial, sans-serif; font-size: 28px; fill: rgb(0, 0, 0); fill-opacity: 1; white-space: pre;">Control point</text><g class="layers" style="opacity: 1;"><g class="legendfill"/><g class="legendlines"/><g class="legendsymbols"><g class="legendpoints"><path class="scatterpts" transform="translate(20,0)" d="M4,0A4,4 0 1,1 0,-4A4,4 0 0,1 4,0Z" style="opacity: 1; stroke-width: 0px; fill: rgb(0, 0, 0); fill-opacity: 1;"/></g></g></g><rect class="legendtoggle" x="0" y="-19.7" width="222.65625" height="39.4" style="fill: rgb(0, 0, 0); fill-opacity: 0;"/></g></g><g class="groups" transform="translate(0,10)"><g class="traces" transform="translate(2,150.75)" style="opacity: 1;"><text class="legendtext" text-anchor="start" x="5" y="12.090000000000002" style="font-family: 'Open Sans', verdana, arial, sans-serif; font-size: 31px; fill: rgb(0, 0, 0); fill-opacity: 1; white-space: pre;">Trajectory</text><g class="layers"><g class="legendfill"/><g class="legendlines"/><g class="legendsymbols"><g class="legendpoints"/></g></g><rect class="legendtoggle" x="0" y="-21.650000000000002" width="222.65625" height="43.300000000000004" style="fill: rgb(0, 0, 0); fill-opacity: 0;"/></g><g class="traces" transform="translate(2,192.1)" style="opacity: 1;"><text class="legendtext" text-anchor="start" x="40" y="10.92" style="font-family: 'Open Sans', verdana, arial, sans-serif; font-size: 28px; fill: rgb(0, 0, 0); fill-opacity: 1; white-space: pre;">N = 4</text><g class="layers" style="opacity: 1;"><g class="legendfill"/><g class="legendlines"><path class="js-line" d="M5,0h30" style="fill: none; stroke: rgb(10, 119, 175); stroke-opacity: 1; stroke-width: 2px;"/></g><g class="legendsymbols"><g class="legendpoints"/></g></g><rect class="legendtoggle" x="0" y="-19.7" width="222.65625" height="39.4" style="fill: rgb(0, 0, 0); fill-opacity: 0;"/></g><g class="traces" transform="translate(2,231.5)" style="opacity: 1;"><text class="legendtext" text-anchor="start" x="40" y="10.92" style="font-family: 'Open Sans', verdana, arial, sans-serif; font-size: 28px; fill: rgb(0, 0, 0); fill-opacity: 1; white-space: pre;">N = 5</text><g class="layers" style="opacity: 1;"><g class="legendfill"/><g class="legendlines"><path class="js-line" d="M5,0h30" style="fill: none; stroke: rgb(10, 136, 186); stroke-opacity: 1; stroke-width: 2px;"/></g><g class="legendsymbols"><g class="legendpoints"/></g></g><rect class="legendtoggle" x="0" y="-19.7" width="222.65625" height="39.4" style="fill: rgb(0, 0, 0); fill-opacity: 0;"/></g><g class="traces" transform="translate(2,270.90000000000003)" style="opacity: 1;"><text class="legendtext" text-anchor="start" x="40" y="10.92" style="font-family: 'Open Sans', verdana, arial, sans-serif; font-size: 28px; fill: rgb(0, 0, 0); fill-opacity: 1; white-space: pre;">N = 10</text><g class="layers" style="opacity: 1;"><g class="legendfill"/><g class="legendlines"><path class="js-line" d="M5,0h30" style="fill: none; stroke: rgb(242, 211, 56); stroke-opacity: 1; stroke-width: 2px;"/></g><g class="legendsymbols"><g class="legendpoints"/></g></g><rect class="legendtoggle" x="0" y="-19.7" width="222.65625" height="39.4" style="fill: rgb(0, 0, 0); fill-opacity: 0;"/></g><g class="traces" transform="translate(2,310.3)" style="opacity: 1;"><text class="legendtext" text-anchor="start" x="40" y="10.92" style="font-family: 'Open Sans', verdana, arial, sans-serif; font-size: 28px; fill: rgb(0, 0, 0); fill-opacity: 1; white-space: pre;">N = 15</text><g class="layers" style="opacity: 1;"><g class="legendfill"/><g class="legendlines"><path class="js-line" d="M5,0h30" style="fill: none; stroke: rgb(242, 143, 56); stroke-opacity: 1; stroke-width: 2px;"/></g><g class="legendsymbols"><g class="legendpoints"/></g></g><rect class="legendtoggle" x="0" y="-19.7" width="222.65625" height="39.4" style="fill: rgb(0, 0, 0); fill-opacity: 0;"/></g><g class="traces" transform="translate(2,349.7)" style="opacity: 1;"><text class="legendtext" text-anchor="start" x="40" y="10.92" style="font-family: 'Open Sans', verdana, arial, sans-serif; font-size: 28px; fill: rgb(0, 0, 0); fill-opacity: 1; white-space: pre;">N = 20</text><g class="layers" style="opacity: 1;"><g class="legendfill"/><g class="legendlines"><path class="js-line" d="M5,0h30" style="fill: none; stroke: rgb(217, 30, 30); stroke-opacity: 1; stroke-width: 2px;"/></g><g class="legendsymbols"><g class="legendpoints"/></g></g><rect class="legendtoggle" x="0" y="-19.7" width="222.65625" height="39.4" style="fill: rgb(0, 0, 0); fill-opacity: 0;"/></g></g></g><rect class="scrollbar" rx="20" ry="3" width="0" height="0" x="0" y="0" style="fill: rgb(128, 139, 164); fill-opacity: 1;"/></g><g class="g-gtitle"/><g class="g-xtitle"><text class="xtitle" x="609" y="387.3" text-anchor="middle" style="opacity: 1; font-family: 'Open Sans', verdana, arial, sans-serif; font-size: 34px; fill: rgb(0, 0, 0); fill-opacity: 1; white-space: pre;">East [m]</text></g><g class="g-ytitle" transform="translate(9.197265625,0)"><text class="ytitle" transform="rotate(-90,24.803124999999994,207)" x="24.803124999999994" y="207" text-anchor="middle" style="opacity: 1; font-family: 'Open Sans', verdana, arial, sans-serif; font-size: 34px; fill: rgb(0, 0, 0); fill-opacity: 1; white-space: pre;">North [m]</text></g></g></svg>