<svg class="main-svg" xmlns="http://www.w3.org/2000/svg" xmlns:xlink="http://www.w3.org/1999/xlink" width="1200" height="600" style="" viewBox="0 0 1200 600"><rect x="0" y="0" width="1200" height="600" style="fill: rgb(255, 255, 255); fill-opacity: 1;"/><defs id="defs-37dc32"><g class="clips"><clipPath id="clip37dc32xyplot" class="plotclip"><rect width="1040" height="420"/></clipPath><clipPath class="axesclip" id="clip37dc32x"><rect x="80" y="0" width="1040" height="600"/></clipPath><clipPath class="axesclip" id="clip37dc32y"><rect x="0" y="100" width="1200" height="420"/></clipPath><clipPath class="axesclip" id="clip37dc32xy"><rect x="80" y="100" width="1040" height="420"/></clipPath></g><g class="gradients"/><g class="patterns"/></defs><g class="bglayer"/><g class="layer-below"><g class="imagelayer"/><g class="shapelayer"/></g><g class="cartesianlayer"><g class="subplot xy"><g class="layer-subplot"><g class="shapelayer"/><g class="imagelayer"/></g><g class="minor-gridlayer"><g class="x"/><g class="y"/></g><g class="gridlayer"><g class="x"><path class="xgrid crisp" transform="translate(291.33000000000004,0)" d="M0,100v420" style="stroke: rgb(200, 200, 200); stroke-opacity: 1; stroke-width: 1px;"/><path class="xgrid crisp" transform="translate(445.67,0)" d="M0,100v420" style="stroke: rgb(200, 200, 200); stroke-opacity: 1; stroke-width: 1px;"/><path class="xgrid crisp" transform="translate(600,0)" d="M0,100v420" style="stroke: rgb(200, 200, 200); stroke-opacity: 1; stroke-width: 1px;"/><path class="xgrid crisp" transform="translate(754.33,0)" d="M0,100v420" style="stroke: rgb(200, 200, 200); stroke-opacity: 1; stroke-width: 1px;"/><path class="xgrid crisp" transform="translate(908.67,0)" d="M0,100v420" style="stroke: rgb(200, 200, 200); stroke-opacity: 1; stroke-width: 1px;"/><path class="xgrid crisp" transform="translate(1063,0)" d="M0,100v420" style="stroke: rgb(200, 200, 200); stroke-opacity: 1; stroke-width: 1px;"/></g><g class="y"><path class="ygrid crisp" transform="translate(0,400.53)" d="M80,0h1040" style="stroke: rgb(200, 200, 200); stroke-opacity: 1; stroke-width: 1px;"/><path class="ygrid crisp" transform="translate(0,338.8)" d="M80,0h1040" style="stroke: rgb(200, 200, 200); stroke-opacity: 1; stroke-width: 1px;"/><path class="ygrid crisp" transform="translate(0,277.06)" d="M80,0h1040" style="stroke: rgb(200, 200, 200); stroke-opacity: 1; stroke-width: 1px;"/><path class="ygrid crisp" transform="translate(0,215.32999999999998)" d="M80,0h1040" style="stroke: rgb(200, 200, 200); stroke-opacity: 1; stroke-width: 1px;"/><path class="ygrid crisp" transform="translate(0,153.6)" d="M80,0h1040" style="stroke: rgb(200, 200, 200); stroke-opacity: 1; stroke-width: 1px;"/></g></g><g class="zerolinelayer"><path class="xzl zl crisp" transform="translate(137,0)" d="M0,100v420" style="stroke: rgb(200, 200, 200); stroke-opacity: 1; stroke-width: 2px;"/><path class="yzl zl crisp" transform="translate(0,462.26)" d="M80,0h1040" style="stroke: rgb(200, 200, 200); stroke-opacity: 1; stroke-width: 2px;"/></g><g class="layer-between"><g class="shapelayer"/><g class="imagelayer"/></g><path class="xlines-below"/><path class="ylines-below"/><g class="overlines-below"/><g class="xaxislayer-below"/><g class="yaxislayer-below"/><g class="overaxes-below"/><g class="overplot"><g class="xy" transform="translate(80,100)" clip-path="url(#clip37dc32xyplot)"><g class="scatterlayer mlayer"><g class="trace scatter trace17949d" style="stroke-miterlimit: 2; opacity: 1;"><g class="fills"/><g class="errorbars"/><g class="lines"><path class="js-line" d="M57,362.26L983,362.26" style="vector-effect: none; fill: none; stroke: rgb(0, 0, 0); stroke-opacity: 1; stroke-width: 2px; opacity: 1;"/></g><g class="points"/><g class="text"/></g><g class="trace scatter trace5c73d0" style="stroke-miterlimit: 2; opacity: 1;"><g class="fills"/><g class="errorbars"/><g class="lines"/><g class="points"><path class="point" transform="translate(57,362.26)" d="M4,0A4,4 0 1,1 0,-4A4,4 0 0,1 4,0Z" style="opacity: 1; stroke-width: 0px; fill: rgb(0, 0, 0); fill-opacity: 1;"/><path class="point" transform="translate(983,362.26)" d="M4,0A4,4 0 1,1 0,-4A4,4 0 0,1 4,0Z" style="opacity: 1; stroke-width: 0px; fill: rgb(0, 0, 0); fill-opacity: 1;"/></g><g class="text"/></g><g class="trace scatter tracead327d" style="stroke-miterlimit: 2; opacity: 1;"><g class="fills"/><g class="errorbars"/><g class="lines"><path class="js-line" d="M57,53.6L91.07,86.43L94.16,89.29L128.23,119.49L131.33,122.12L162.3,147.38L165.39,149.8L199.46,175.27L202.56,177.47L233.53,198.61L236.63,200.63L267.6,219.93L270.69,221.77L304.76,240.98L307.86,242.63L338.83,258.35L341.92,259.84L375.99,275.32L379.09,276.64L413.15,290.33L416.25,291.5L453.41,304.53L456.51,305.53L490.58,315.85L493.68,316.72L530.84,326.33L533.94,327.06L574.2,335.71L577.29,336.31L617.56,343.29L620.65,343.77L664.01,349.65L667.11,350.01L710.46,354.4L713.56,354.66L763.11,358.13L766.21,358.3L821.96,360.64L825.05,360.73L893.19,361.98L896.28,362.01L983,362.26" style="vector-effect: none; fill: none; stroke: rgb(11, 78, 149); stroke-opacity: 1; stroke-width: 2px; opacity: 1;"/></g><g class="points"/><g class="text"/></g><g class="trace scatter tracecc8cd3" style="stroke-miterlimit: 2; opacity: 1;"><g class="fills"/><g class="errorbars"/><g class="lines"><path class="js-line" d="M57,53.6L73.74,85.6L76.55,90.7L93.55,119.89L96.4,124.53L113.64,151.05L116.54,155.26L134.01,179.24L136.95,183.03L154.64,204.61L157.6,208.01L175.5,227.31L178.5,230.35L196.58,247.51L199.6,250.2L217.86,265.35L220.91,267.71L239.32,280.99L242.4,283.05L260.95,294.59L264.05,296.37L285.85,307.82L288.97,309.31L310.91,318.82L314.06,320.04L336.12,327.81L339.28,328.8L364.62,335.81L367.79,336.58L396.41,342.48L399.59,343.03L428.28,347.23L431.47,347.62L466.56,351.04L469.75,351.29L517.52,354.2L520.69,354.36L606.1,357.95L609.25,358.05L697.13,360.37L700.26,360.43L812.46,361.86L815.57,361.88L983,362.26" style="vector-effect: none; fill: none; stroke: rgb(11, 85, 153); stroke-opacity: 1; stroke-width: 2px; opacity: 1;"/></g><g class="points"/><g class="text"/></g><g class="trace scatter tracece1149" style="stroke-miterlimit: 2; opacity: 1;"><g class="fills"/><g class="errorbars"/><g class="lines"><path class="js-line" d="M57,53.6L67.21,81.95L69.35,87.37L80.53,113.32L82.86,118.28L94.92,141.95L97.42,146.47L110.3,167.98L112.95,172.07L126.58,191.54L129.37,195.24L143.67,212.79L146.6,216.12L161.5,231.88L164.53,234.85L179.96,248.93L183.1,251.59L202.2,266.46L205.43,268.77L225.05,281.65L228.36,283.65L248.39,294.75L251.75,296.46L275.47,307.43L278.88,308.86L302.79,318L306.21,319.19L333.56,327.8L336.97,328.77L370.81,337.44L374.17,338.22L410.72,345.69L414.02,346.28L449.95,351.87L453.19,352.3L491.78,356.58L494.97,356.87L539.35,359.93L542.5,360.09L592.6,361.74L595.72,361.8L670.2,362.26L673.3,362.26L983,362.26" style="vector-effect: none; fill: none; stroke: rgb(11, 92, 157); stroke-opacity: 1; stroke-width: 2px; opacity: 1;"/></g><g class="points"/><g class="text"/></g><g class="trace scatter tracef9a60d" style="stroke-miterlimit: 2; opacity: 1;"><g class="fills"/><g class="errorbars"/><g class="lines"><path class="js-line" d="M57,53.6L63.51,77.04L65.29,82.71L72.99,104.68L75.06,109.99L86.17,135.49L88.55,140.39L101.12,163.83L103.77,168.32L117.61,189.78L120.5,193.88L135.44,213.44L138.53,217.17L154.39,234.91L157.64,238.28L174.23,254.28L177.61,257.31L194.77,271.64L198.24,274.35L219.3,289.49L222.84,291.83L244.13,304.88L247.68,306.89L268.92,317.98L272.43,319.67L296.77,330.33L300.21,331.69L324,340.14L327.37,341.2L350.67,347.7L353.97,348.5L380.09,353.88L383.32,354.43L408.99,358.01L412.18,358.36L440.63,360.69L443.77,360.87L481.24,362.08L484.35,362.12L574.2,362.26L577.29,362.26L983,362.26" style="vector-effect: none; fill: none; stroke: rgb(11, 99, 162); stroke-opacity: 1; stroke-width: 2px; opacity: 1;"/></g><g class="points"/><g class="text"/></g><g class="trace scatter trace0d5d70" style="stroke-miterlimit: 2; opacity: 1;"><g class="fills"/><g class="errorbars"/><g class="lines"><path class="js-line" d="M57,53.6L62.59,77.52L64.22,83.38L71.53,106.34L73.56,111.96L82.42,133.89L84.81,139.25L95.02,160.11L97.72,165.19L112.08,189.71L115.1,194.44L130.88,217.16L134.16,221.52L151.03,242.36L154.49,246.33L172.12,265.17L175.7,268.73L193.76,285.48L197.39,288.62L215.55,303.18L219.17,305.86L237.09,318.13L240.63,320.35L258.11,330.35L261.57,332.13L278.64,340.07L282.02,341.47L302.04,348.65L305.33,349.65L324.92,354.67L328.15,355.34L347.38,358.59L350.56,359L372.65,361.07L375.79,361.26L403.84,362.17L406.95,362.2L490.58,362.26L493.68,362.26L983,362.26" style="vector-effect: none; fill: none; stroke: rgb(11, 105, 166); stroke-opacity: 1; stroke-width: 2px; opacity: 1;"/></g><g class="points"/><g class="text"/></g><g class="trace scatter tracea1d01b" style="stroke-miterlimit: 2; opacity: 1;"><g class="fills"/><g class="errorbars"/><g class="lines"><path class="js-line" d="M57,53.6L61.89,77.88L63.37,83.89L70.31,107.64L72.27,113.5L81,136.55L83.39,142.21L93.66,164.37L96.4,169.79L107.98,190.9L111.01,196.03L126.9,220.71L130.21,225.44L147.22,247.96L150.71,252.22L168.41,272.26L171.98,275.99L189.91,293.23L193.49,296.38L211.23,310.56L214.75,313.09L232.2,324.36L235.66,326.35L252.83,335.08L256.24,336.6L273.16,343.14L276.52,344.25L293.22,348.97L296.53,349.75L316.3,353.53L319.57,354.02L342.33,356.62L345.56,356.89L383.98,359.27L387.16,359.42L440.69,361.21L443.82,361.27L521.51,362.06L524.61,362.07L815.76,362.26L818.86,362.26L983,362.26" style="vector-effect: none; fill: none; stroke: rgb(11, 112, 171); stroke-opacity: 1; stroke-width: 2px; opacity: 1;"/></g><g class="points"/><g class="text"/></g><g class="trace scatter trace2a8dd1" style="stroke-miterlimit: 2; opacity: 1;"><g class="fills"/><g class="errorbars"/><g class="lines"><path class="js-line" d="M57,53.6L61.02,78.04L62.32,84.09L68.55,108.03L70.37,113.93L78.55,137.15L80.81,142.85L90.66,165.14L93.31,170.57L104.55,191.71L107.51,196.83L119.88,216.6L123.09,221.35L136.3,239.54L139.69,243.87L153.48,260.26L156.97,264.11L171.06,278.49L174.61,281.82L188.82,294.12L192.38,296.95L206.65,307.36L210.23,309.74L228.09,320.42L231.66,322.32L249.48,330.78L253.03,332.28L270.71,338.86L274.23,340.01L295.16,345.94L298.61,346.78L325.84,352.33L329.19,352.9L355.56,356.63L358.81,356.99L387.68,359.52L390.85,359.72L428.49,361.26L431.61,361.33L512.25,362.17L515.34,362.18L772.4,362.26L775.5,362.26L983,362.26" style="vector-effect: none; fill: none; stroke: rgb(10, 119, 175); stroke-opacity: 1; stroke-width: 2px; opacity: 1;"/></g><g class="points"/><g class="text"/></g><g class="trace scatter trace0927ba" style="stroke-miterlimit: 2; opacity: 1;"><g class="fills"/><g class="errorbars"/><g class="lines"><path class="js-line" d="M57,53.6L60.48,78.12L61.65,84.2L67.43,108.25L69.14,114.18L76.95,137.52L79.14,143.25L88.71,165.64L91.3,171.1L102.36,192.31L105.28,197.44L117.56,217.22L120.76,221.97L133.98,240.09L137.38,244.39L151.28,260.62L154.82,264.42L169.18,278.67L172.82,282L191.23,297.28L194.94,300.07L213.6,312.81L217.35,315.12L236.04,325.56L239.77,327.44L258.25,335.81L261.91,337.29L283.49,344.97L287.02,346.06L307.72,351.57L311.1,352.32L334.3,356.53L337.55,356.99L363.16,359.64L366.32,359.86L400.67,361.3L403.77,361.38L471.99,362.2L475.09,362.21L722.85,362.26L725.95,362.26L983,362.26" style="vector-effect: none; fill: none; stroke: rgb(10, 126, 179); stroke-opacity: 1; stroke-width: 2px; opacity: 1;"/></g><g class="points"/><g class="text"/></g><g class="trace scatter trace450f26" style="stroke-miterlimit: 2; opacity: 1;"><g class="fills"/><g class="errorbars"/><g class="lines"><path class="js-line" d="M57,53.6L60.19,78.16L61.28,84.25L66.76,108.38L68.39,114.34L75.93,137.8L78.05,143.56L87.42,166.12L89.97,171.63L100.94,193.05L103.86,198.24L116.2,218.29L119.43,223.12L132.91,241.57L136.41,245.96L150.79,262.65L154.48,266.6L169.53,281.53L173.35,285.05L192.71,301.3L196.61,304.29L216.13,317.95L220.03,320.42L239.28,331.5L243.07,333.45L261.6,341.97L265.21,343.43L282.81,349.56L286.25,350.58L306.39,355.4L309.67,356.01L329.01,358.77L332.19,359.09L357.27,360.76L360.38,360.89L406.94,362.01L410.04,362.05L509.16,362.26L512.26,362.26L983,362.26" style="vector-effect: none; fill: none; stroke: rgb(10, 133, 184); stroke-opacity: 1; stroke-width: 2px; opacity: 1;"/></g><g class="points"/><g class="text"/></g><g class="trace scatter tracea213bc" style="stroke-miterlimit: 2; opacity: 1;"><g class="fills"/><g class="errorbars"/><g class="lines"><path class="js-line" d="M57,53.6L60.11,78.17L61.16,84.28L66.42,108.47L67.99,114.45L75.27,138.06L77.33,143.88L86.5,166.71L89.01,172.31L99.95,194.17L102.89,199.5L115.46,220.18L118.79,225.19L132.83,244.51L136.5,249.16L151.67,266.93L155.57,271.17L171.46,287.22L175.49,291L191.7,305.16L195.76,308.44L211.9,320.53L215.88,323.28L235.35,335.28L239.13,337.32L253.8,344.37L257.37,345.86L274.7,351.94L278.07,352.9L294.57,356.63L297.8,357.19L316.87,359.54L320,359.8L348.03,361.29L351.14,361.4L397.66,362.21L400.76,362.23L642.33,362.26L645.43,362.26L983,362.26" style="vector-effect: none; fill: none; stroke: rgb(19, 139, 181); stroke-opacity: 1; stroke-width: 2px; opacity: 1;"/></g><g class="points"/><g class="text"/></g><g class="trace scatter trace039142" style="stroke-miterlimit: 2; opacity: 1;"><g class="fills"/><g class="errorbars"/><g class="lines"><path class="js-line" d="M57,53.6L60.16,78.17L61.2,84.27L66.35,108.5L67.89,114.5L74.99,138.22L77.01,144.08L86.03,167.13L88.52,172.8L99.42,195.02L102.38,200.45L115.11,221.67L118.51,226.84L132.83,246.82L136.57,251.64L152.01,270.07L155.97,274.45L172.04,291.01L176.09,294.89L192.31,309.25L196.34,312.54L212.22,324.38L216.11,327L231.28,336.14L234.98,338.11L249.46,344.85L253,346.27L270.32,352.03L273.71,352.93L290.38,356.5L293.66,357.04L316.3,359.82L319.49,360.1L347.94,361.75L351.07,361.85L394.57,362.26L397.67,362.26L983,362.26" style="vector-effect: none; fill: none; stroke: rgb(38, 145, 170); stroke-opacity: 1; stroke-width: 2px; opacity: 1;"/></g><g class="points"/><g class="text"/></g><g class="trace scatter trace2deb88" style="stroke-miterlimit: 2; opacity: 1;"><g class="fills"/><g class="errorbars"/><g class="lines"><path class="js-line" d="M57,53.6L60.17,78.17L61.21,84.27L66.35,108.5L67.87,114.51L74.93,138.24L76.93,144.1L85.88,167.19L88.35,172.86L99.16,195.14L102.09,200.59L114.68,221.87L118.02,227.04L132.05,247.03L135.7,251.83L150.73,270.18L154.58,274.54L170.22,290.91L174.17,294.73L189.98,308.79L193.92,311.98L209.53,323.46L213.4,326.02L228.69,335.1L232.47,337.1L247.39,344.08L251.07,345.59L269.13,351.86L272.67,352.88L289.99,356.99L293.38,357.63L313.22,360.42L316.46,360.73L338.71,362.01L341.84,362.09L388.38,362.26L391.47,362.26L983,362.26" style="vector-effect: none; fill: none; stroke: rgb(56, 151, 160); stroke-opacity: 1; stroke-width: 2px; opacity: 1;"/></g><g class="points"/><g class="text"/></g><g class="trace scatter trace4eeb92" style="stroke-miterlimit: 2; opacity: 1;"><g class="fills"/><g class="errorbars"/><g class="lines"><path class="js-line" d="M57,53.6L60.16,78.17L61.19,84.27L66.28,108.52L67.79,114.52L74.77,138.28L76.76,144.15L85.61,167.28L88.05,172.96L98.75,195.3L101.64,200.77L114.03,222.1L117.32,227.29L131.09,247.31L134.68,252.12L149.51,270.51L153.32,274.88L168.86,291.31L172.81,295.15L188.75,309.34L192.75,312.59L208.8,324.46L212.8,327.15L228.69,336.79L232.62,338.93L248.1,346.42L251.89,348.03L266.7,353.44L270.29,354.54L287.66,358.7L291.03,359.29L307.42,361.3L310.62,361.54L332.62,362.24L335.73,362.26L983,362.26" style="vector-effect: none; fill: none; stroke: rgb(75, 157, 150); stroke-opacity: 1; stroke-width: 2px; opacity: 1;"/></g><g class="points"/><g class="text"/></g><g class="trace scatter trace204c8f" style="stroke-miterlimit: 2; opacity: 1;"><g class="fills"/><g class="errorbars"/><g class="lines"><path class="js-line" d="M57,53.6L60.12,78.17L61.14,84.28L66.17,108.54L67.66,114.55L74.56,138.34L76.51,144.21L85.26,167.38L87.67,173.08L98.23,195.48L101.08,200.97L113.3,222.39L116.55,227.6L130.21,247.78L133.79,252.66L148.69,271.36L152.54,275.82L168.44,292.79L172.52,296.79L189.09,311.77L193.28,315.25L210.04,327.99L214.2,330.88L230.64,341.14L234.66,343.37L250.27,350.89L254.03,352.41L268.47,357.14L271.95,358.02L285.43,360.54L288.71,360.95L304.68,362.08L307.81,362.16L351.21,362.26L354.31,362.26L983,362.26" style="vector-effect: none; fill: none; stroke: rgb(94, 163, 139); stroke-opacity: 1; stroke-width: 2px; opacity: 1;"/></g><g class="points"/><g class="text"/></g><g class="trace scatter traceae679e" style="stroke-miterlimit: 2; opacity: 1;"><g class="fills"/><g class="errorbars"/><g class="lines"><path class="js-line" d="M57,53.6L60.09,78.18L61.1,84.29L66.06,108.56L67.53,114.57L74.33,138.39L76.26,144.27L84.88,167.49L87.26,173.21L97.66,195.69L100.48,201.2L112.6,222.81L115.83,228.09L129.58,248.68L133.21,253.69L148.51,273.14L152.52,277.85L169.2,295.96L173.49,300.27L190.9,316.45L195.28,320.19L212.64,333.75L216.9,336.75L233.42,347L237.38,349.09L248.78,354.19L252.43,355.53L266.42,359.43L269.79,360.07L282.84,361.68L286.02,361.88L307.85,362.24L310.94,362.24L549.42,362.26L552.52,362.26L983,362.26" style="vector-effect: none; fill: none; stroke: rgb(112, 169, 129); stroke-opacity: 1; stroke-width: 2px; opacity: 1;"/></g><g class="points"/><g class="text"/></g><g class="trace scatter trace2fe24b" style="stroke-miterlimit: 2; opacity: 1;"><g class="fills"/><g class="errorbars"/><g class="lines"><path class="js-line" d="M57,53.6L60.33,78.15L61.39,84.25L66.5,108.49L67.99,114.5L74.86,138.3L76.79,144.18L85.39,167.41L87.76,173.13L98.05,195.66L100.84,201.2L112.78,222.9L115.96,228.21L129.49,248.96L133.06,254.02L148.11,273.68L152.05,278.44L168.3,296.61L172.45,300.91L189.26,316.85L193.47,320.48L210.18,333.42L214.29,336.22L226.35,343.44L230.27,345.47L241.79,350.56L245.54,351.94L260.17,356.21L263.73,357L281.07,359.72L284.45,360.08L307.4,361.69L310.6,361.82L341.92,362.26L345.02,362.26L983,362.26" style="vector-effect: none; fill: none; stroke: rgb(131, 175, 118); stroke-opacity: 1; stroke-width: 2px; opacity: 1;"/></g><g class="points"/><g class="text"/></g><g class="trace scatter traceafbfb8" style="stroke-miterlimit: 2; opacity: 1;"><g class="fills"/><g class="errorbars"/><g class="lines"><path class="js-line" d="M57,53.6L60.47,78.13L61.56,84.22L66.75,108.45L68.26,114.45L75.14,138.25L77.07,144.13L85.62,167.38L87.96,173.12L98.15,195.7L100.9,201.25L112.67,223.04L115.81,228.38L129.11,249.27L132.63,254.37L147.38,274.18L151.22,278.95L167.04,297.06L171.09,301.31L187.51,316.95L191.65,320.49L204.07,330.06L208.2,332.89L220.49,340.34L224.56,342.49L240.56,349.63L244.48,351.07L259.79,355.71L263.52,356.61L281.36,359.89L284.78,360.33L304.5,361.91L307.68,362.03L341.92,362.26L345.02,362.26L983,362.26" style="vector-effect: none; fill: none; stroke: rgb(149, 181, 108); stroke-opacity: 1; stroke-width: 2px; opacity: 1;"/></g><g class="points"/><g class="text"/></g><g class="trace scatter trace0a5a30" style="stroke-miterlimit: 2; opacity: 1;"><g class="fills"/><g class="errorbars"/><g class="lines"><path class="js-line" d="M57,53.6L60.54,78.12L61.64,84.21L66.86,108.43L68.37,114.43L75.24,138.23L77.17,144.12L85.66,167.39L87.98,173.14L98.04,195.77L100.75,201.34L112.35,223.23L115.43,228.6L128.51,249.64L131.96,254.78L146.41,274.67L150.17,279.44L165.76,297.5L169.78,301.73L182.09,313.59L186.26,317.25L198.98,327.26L203.26,330.28L216.13,338.39L220.4,340.79L237.26,348.94L241.38,350.63L257.25,356.04L261.04,357.07L275.42,360.07L278.85,360.57L295.28,361.99L298.46,362.1L332.63,362.26L335.73,362.26L983,362.26" style="vector-effect: none; fill: none; stroke: rgb(168, 187, 98); stroke-opacity: 1; stroke-width: 2px; opacity: 1;"/></g><g class="points"/><g class="text"/></g><g class="trace scatter trace16d213" style="stroke-miterlimit: 2; opacity: 1;"><g class="fills"/><g class="errorbars"/><g class="lines"><path class="js-line" d="M57,53.6L60.59,78.11L61.69,84.2L66.91,108.42L68.42,114.43L75.23,138.25L77.13,144.14L85.52,167.45L87.81,173.21L97.73,195.91L100.39,201.5L111.8,223.49L114.83,228.89L127.68,250.05L131.07,255.22L145.36,275.18L149.11,279.97L164.83,298.15L168.94,302.42L181.69,314.49L186.08,318.24L199.5,328.66L204.02,331.84L222.02,343.02L226.45,345.41L243.47,353.26L247.51,354.79L262.59,359.17L266.14,359.9L279.63,361.69L282.86,361.91L304.76,362.26L307.86,362.26L983,362.26" style="vector-effect: none; fill: none; stroke: rgb(186, 193, 87); stroke-opacity: 1; stroke-width: 2px; opacity: 1;"/></g><g class="points"/><g class="text"/></g><g class="trace scatter traceda688b" style="stroke-miterlimit: 2; opacity: 1;"><g class="fills"/><g class="errorbars"/><g class="lines"><path class="js-line" d="M57,53.6L60.63,78.1L61.73,84.2L66.94,108.42L68.44,114.43L75.2,138.26L77.09,144.16L85.37,167.51L87.63,173.27L97.41,196.03L100.04,201.64L111.27,223.72L114.26,229.15L126.94,250.42L130.31,255.6L144.62,275.73L148.42,280.58L160.42,294.66L164.62,299.17L177.82,312.13L182.39,316.23L196.36,327.71L201.06,331.24L215.04,340.79L219.61,343.6L232.84,350.76L237.03,352.7L248.87,357.14L252.6,358.23L266.62,360.97L269.95,361.34L285.97,362.07L289.1,362.11L382.18,362.26L385.28,362.26L983,362.26" style="vector-effect: none; fill: none; stroke: rgb(205, 199, 77); stroke-opacity: 1; stroke-width: 2px; opacity: 1;"/></g><g class="points"/><g class="text"/></g><g class="trace scatter tracedb9475" style="stroke-miterlimit: 2; opacity: 1;"><g class="fills"/><g class="errorbars"/><g class="lines"><path class="js-line" d="M57,53.6L60.75,78.08L61.88,84.17L67.18,108.38L68.69,114.38L75.5,138.2L77.39,144.1L85.68,167.44L87.94,173.21L97.69,195.98L100.31,201.6L111.48,223.71L114.44,229.15L127.07,250.44L130.42,255.63L144.71,275.78L148.5,280.65L164.66,299.33L168.94,303.77L186.62,320.35L191.12,324.14L204.64,334.49L209.11,337.56L222.21,345.5L226.44,347.69L238.67,352.96L242.61,354.34L257.73,358.28L261.36,358.94L278.77,361.03L282.11,361.29L307.81,362.22L310.93,362.24L428.64,362.26L431.74,362.26L983,362.26" style="vector-effect: none; fill: none; stroke: rgb(223, 205, 66); stroke-opacity: 1; stroke-width: 2px; opacity: 1;"/></g><g class="points"/><g class="text"/></g><g class="trace scatter traceaeefaa" style="stroke-miterlimit: 2; opacity: 1;"><g class="fills"/><g class="errorbars"/><g class="lines"><path class="js-line" d="M57,53.6L61.99,84.16L63.21,90.23L68.85,114.35L70.44,120.34L77.56,144.07L79.52,149.94L88.08,173.19L90.39,178.94L103.03,207.2L105.77,212.76L117.42,234.62L120.52,239.97L133.71,260.89L137.22,265.98L152.16,285.66L156.13,290.4L172.77,308.38L177.07,312.57L190.19,324.25L194.6,327.8L207.84,337.31L212.21,340.05L225.17,347.02L229.41,348.95L241.86,353.71L245.9,354.99L261.4,358.78L265.09,359.45L282.45,361.56L285.74,361.78L307.86,362.26L310.95,362.26L983,362.26" style="vector-effect: none; fill: none; stroke: rgb(242, 211, 56); stroke-opacity: 1; stroke-width: 2px; opacity: 1;"/></g><g class="points"/><g class="text"/></g><g class="trace scatter traceaad15c" style="stroke-miterlimit: 2; opacity: 1;"><g class="fills"/><g class="errorbars"/><g class="lines"><path class="js-line" d="M57,53.6L60.89,78.06L62.05,84.15L68.93,114.34L70.53,120.32L77.62,144.06L79.57,149.94L90.38,178.96L92.75,184.68L102.91,207.27L105.62,212.84L117.18,234.74L120.26,240.11L133.36,261.09L136.85,266.19L151.68,285.98L155.61,290.73L167.81,304.38L172.01,308.69L184.94,320.76L189.35,324.46L202.77,334.46L207.29,337.41L220.85,345.12L225.32,347.32L238.46,352.9L242.71,354.42L258.7,358.94L262.42,359.7L276.35,361.6L279.65,361.85L301.66,362.26L304.76,362.26L983,362.26" style="vector-effect: none; fill: none; stroke: rgb(242, 206, 56); stroke-opacity: 1; stroke-width: 2px; opacity: 1;"/></g><g class="points"/><g class="text"/></g><g class="trace scatter trace7e3ce9" style="stroke-miterlimit: 2; opacity: 1;"><g class="fills"/><g class="errorbars"/><g class="lines"><path class="js-line" d="M57,53.6L62.08,84.14L63.32,90.21L68.96,114.34L70.55,120.32L77.6,144.07L79.54,149.95L90.25,179.01L92.6,184.74L105.35,212.95L108.11,218.5L119.86,240.29L122.99,245.63L136.32,266.47L139.87,271.54L154.91,291.11L158.89,295.78L171.32,309.13L175.64,313.34L189.09,325.08L193.74,328.67L207.97,338.45L212.74,341.35L226.86,348.94L231.44,351.08L244.52,356.26L248.59,357.57L259.95,360.32L263.49,360.92L276.77,362.11L279.94,362.2L329.54,362.26L332.63,362.26L983,362.26" style="vector-effect: none; fill: none; stroke: rgb(242, 200, 56); stroke-opacity: 1; stroke-width: 2px; opacity: 1;"/></g><g class="points"/><g class="text"/></g><g class="trace scatter tracef7ebf6" style="stroke-miterlimit: 2; opacity: 1;"><g class="fills"/><g class="errorbars"/><g class="lines"><path class="js-line" d="M57,53.6L62.12,84.14L63.35,90.21L70.58,120.32L72.23,126.29L81.54,155.82L83.6,161.66L94.94,190.48L97.41,196.16L107.95,218.57L110.76,224.09L122.75,245.75L125.94,251.05L139.5,271.76L143.11,276.78L154.5,291.42L158.49,296.12L171.13,309.64L175.56,313.92L189.56,326.01L194.4,329.75L209.07,339.94L213.93,342.95L228.1,350.66L232.6,352.75L245.15,357.46L249.03,358.56L259.94,360.74L263.37,361.17L279.67,362.01L282.84,362.07L341.92,362.26L345.02,362.26L983,362.26" style="vector-effect: none; fill: none; stroke: rgb(242, 195, 56); stroke-opacity: 1; stroke-width: 2px; opacity: 1;"/></g><g class="points"/><g class="text"/></g><g class="trace scatter trace16d3dd" style="stroke-miterlimit: 2; opacity: 1;"><g class="fills"/><g class="errorbars"/><g class="lines"><path class="js-line" d="M57,53.6L62.18,84.13L63.43,90.19L70.71,120.29L72.38,126.26L81.73,155.78L83.8,161.61L95.17,190.42L97.64,196.1L108.2,218.5L111.02,224.02L122.99,245.69L126.17,251L139.65,271.77L143.24,276.81L158.55,296.19L162.63,300.81L175.59,314.04L180.13,318.21L194.14,329.84L198.88,333.37L213.02,342.76L217.64,345.44L230.97,351.97L235.2,353.64L247.32,357.43L251.18,358.34L265.83,360.68L269.32,361.03L289.12,362.13L292.29,362.19L354.31,362.26L357.41,362.26L983,362.26" style="vector-effect: none; fill: none; stroke: rgb(242, 189, 56); stroke-opacity: 1; stroke-width: 2px; opacity: 1;"/></g><g class="points"/><g class="text"/></g><g class="trace scatter traced245da" style="stroke-miterlimit: 2; opacity: 1;"><g class="fills"/><g class="errorbars"/><g class="lines"><path class="js-line" d="M57,53.6L62.23,84.12L63.49,90.18L70.8,120.27L72.47,126.24L81.83,155.75L83.9,161.59L95.27,190.4L97.74,196.07L111.1,224.01L113.98,229.49L126.16,251.05L129.39,256.34L143.1,276.93L146.76,281.91L158.34,296.36L162.43,300.99L175.33,314.25L179.81,318.41L193.58,329.93L198.23,333.4L212.14,342.55L216.72,345.13L230.14,351.47L234.49,353.16L247.07,357.13L251.09,358.12L266.14,360.82L269.65,361.23L286.1,362.19L289.25,362.24L406.96,362.26L410.06,362.26L983,362.26" style="vector-effect: none; fill: none; stroke: rgb(242, 184, 56); stroke-opacity: 1; stroke-width: 2px; opacity: 1;"/></g><g class="points"/><g class="text"/></g><g class="trace scatter trace9e961e" style="stroke-miterlimit: 2; opacity: 1;"><g class="fills"/><g class="errorbars"/><g class="lines"><path class="js-line" d="M57,53.6L62.26,84.11L63.52,90.18L70.84,120.27L72.51,126.23L81.86,155.75L83.93,161.59L95.27,190.4L97.74,196.08L111.04,224.05L113.89,229.54L125.97,251.17L129.16,256.48L142.77,277.12L146.41,282.11L157.97,296.6L162.04,301.24L174.87,314.49L179.31,318.63L193.02,330.08L197.69,333.53L211.84,342.62L216.57,345.22L230.53,351.79L235.06,353.58L248.01,357.8L252.06,358.85L266.82,361.42L270.21,361.74L286.18,362.26L289.27,362.26L983,362.26" style="vector-effect: none; fill: none; stroke: rgb(242, 178, 56); stroke-opacity: 1; stroke-width: 2px; opacity: 1;"/></g><g class="points"/><g class="text"/></g><g class="trace scatter traceccae8d" style="stroke-miterlimit: 2; opacity: 1;"><g class="fills"/><g class="errorbars"/><g class="lines"><path class="js-line" d="M57,53.6L62.28,84.11L63.54,90.17L70.85,120.26L72.52,126.23L81.84,155.76L83.9,161.6L95.18,190.44L97.63,196.13L110.82,224.14L113.65,229.65L125.6,251.35L128.77,256.66L142.31,277.35L145.94,282.35L157.49,296.86L161.55,301.51L174.39,314.77L178.86,318.93L192.86,330.48L197.7,334L212.56,343.43L217.52,346.17L232.04,353.13L236.66,354.99L249.45,359.14L253.33,360.05L264.02,361.7L267.34,361.97L286.18,362.26L289.27,362.26L983,362.26" style="vector-effect: none; fill: none; stroke: rgb(242, 173, 56); stroke-opacity: 1; stroke-width: 2px; opacity: 1;"/></g><g class="points"/><g class="text"/></g><g class="trace scatter trace1653df" style="stroke-miterlimit: 2; opacity: 1;"><g class="fills"/><g class="errorbars"/><g class="lines"><path class="js-line" d="M57,53.6L62.32,84.1L63.58,90.17L70.91,120.25L72.58,126.22L81.88,155.76L83.93,161.6L95.17,190.45L97.61,196.15L110.73,224.19L113.54,229.71L125.45,251.43L128.62,256.74L142.17,277.43L145.81,282.43L157.36,296.96L161.43,301.62L174.33,314.94L178.87,319.14L193.18,330.91L198.16,334.52L213.25,344.24L218.22,347.05L232.54,353.98L236.99,355.75L249.22,359.4L252.97,360.17L266.86,361.72L270.14,361.86L301.66,362.26L304.76,362.26L983,362.26" style="vector-effect: none; fill: none; stroke: rgb(242, 167, 56); stroke-opacity: 1; stroke-width: 2px; opacity: 1;"/></g><g class="points"/><g class="text"/></g><g class="trace scatter trace042fde" style="stroke-miterlimit: 2; opacity: 1;"><g class="fills"/><g class="errorbars"/><g class="lines"><path class="js-line" d="M57,53.6L62.37,84.09L63.65,90.16L71.01,120.23L72.68,126.2L82,155.73L84.05,161.57L95.29,190.43L97.73,196.12L110.83,224.18L113.64,229.7L125.56,251.4L128.73,256.71L142.31,277.39L145.95,282.4L157.49,296.94L161.55,301.6L174.42,314.95L178.95,319.16L193.16,330.97L198.03,334.57L212.66,344.14L217.46,346.87L231.27,353.42L235.62,355.06L247.97,358.6L251.86,359.41L266.46,361.34L269.89,361.61L289.26,362.25L292.37,362.26L983,362.26" style="vector-effect: none; fill: none; stroke: rgb(242, 162, 56); stroke-opacity: 1; stroke-width: 2px; opacity: 1;"/></g><g class="points"/><g class="text"/></g><g class="trace scatter traceb72d86" style="stroke-miterlimit: 2; opacity: 1;"><g class="fills"/><g class="errorbars"/><g class="lines"><path class="js-line" d="M57,53.6L62.41,84.09L63.69,90.15L71.07,120.22L72.75,126.18L82.07,155.72L84.12,161.56L95.34,190.42L97.77,196.12L110.83,224.19L113.63,229.72L125.54,251.43L128.71,256.74L142.28,277.44L145.91,282.45L157.41,297.02L161.46,301.69L174.3,315.07L178.81,319.3L192.85,331.08L197.63,334.65L212.02,344.05L216.77,346.7L230.66,353.09L235.13,354.74L247.95,358.47L251.99,359.36L266.8,361.55L270.2,361.82L289.27,362.26L292.37,362.26L983,362.26" style="vector-effect: none; fill: none; stroke: rgb(242, 157, 56); stroke-opacity: 1; stroke-width: 2px; opacity: 1;"/></g><g class="points"/><g class="text"/></g><g class="trace scatter tracea8f88c" style="stroke-miterlimit: 2; opacity: 1;"><g class="fills"/><g class="errorbars"/><g class="lines"><path class="js-line" d="M57,53.6L62.44,84.08L63.72,90.14L71.11,120.21L72.78,126.18L82.08,155.72L84.13,161.56L95.31,190.44L97.73,196.14L110.74,224.24L113.53,229.77L125.41,251.49L128.57,256.81L142.1,277.55L145.71,282.57L157.18,297.16L161.21,301.84L174.02,315.26L178.5,319.49L192.43,331.23L197.21,334.78L211.76,344.15L216.65,346.8L231.08,353.38L235.73,355.13L248.86,359.08L252.88,359.99L267.25,361.93L270.53,362.11L298.57,362.26L301.66,362.26L983,362.26" style="vector-effect: none; fill: none; stroke: rgb(242, 151, 56); stroke-opacity: 1; stroke-width: 2px; opacity: 1;"/></g><g class="points"/><g class="text"/></g><g class="trace scatter trace8323e4" style="stroke-miterlimit: 2; opacity: 1;"><g class="fills"/><g class="errorbars"/><g class="lines"><path class="js-line" d="M57,53.6L62.45,84.08L63.73,90.14L71.11,120.21L72.78,126.18L82.05,155.73L84.09,161.57L95.22,190.47L97.62,196.18L110.57,224.31L113.35,229.84L125.18,251.59L128.33,256.92L141.8,277.7L145.4,282.73L156.82,297.36L160.84,302.05L173.62,315.5L178.1,319.73L192.18,331.53L197.09,335.12L212.31,344.75L217.45,347.54L232.47,354.49L237.22,356.31L250.09,360.12L253.9,360.88L264.31,362.06L267.53,362.19L307.86,362.26L310.95,362.26L983,362.26" style="vector-effect: none; fill: none; stroke: rgb(242, 146, 56); stroke-opacity: 1; stroke-width: 2px; opacity: 1;"/></g><g class="points"/><g class="text"/></g><g class="trace scatter trace138b05" style="stroke-miterlimit: 2; opacity: 1;"><g class="fills"/><g class="errorbars"/><g class="lines"><path class="js-line" d="M57,53.6L62.48,84.07L63.77,90.13L71.16,120.2L72.83,126.17L82.1,155.72L84.14,161.57L95.25,190.47L97.65,196.18L110.57,224.32L113.35,229.85L125.18,251.61L128.33,256.94L141.79,277.72L145.39,282.75L156.82,297.37L160.84,302.07L173.62,315.54L178.11,319.78L192.33,331.68L197.32,335.33L212.7,345.14L217.81,347.97L232.52,354.87L237.08,356.58L249.43,359.98L253.19,360.65L267.01,361.87L270.29,361.99L304.76,362.26L307.86,362.26L983,362.26" style="vector-effect: none; fill: none; stroke: rgb(241, 138, 55); stroke-opacity: 1; stroke-width: 2px; opacity: 1;"/></g><g class="points"/><g class="text"/></g><g class="trace scatter trace328310" style="stroke-miterlimit: 2; opacity: 1;"><g class="fills"/><g class="errorbars"/><g class="lines"><path class="js-line" d="M57,53.6L62.52,84.07L63.82,90.13L71.23,120.19L72.9,126.16L82.18,155.7L84.22,161.55L95.32,190.46L97.72,196.17L110.64,224.31L113.42,229.84L125.26,251.59L128.41,256.92L141.89,277.68L145.5,282.71L156.93,297.35L160.95,302.05L173.7,315.53L178.18,319.79L192.38,331.71L197.32,335.37L212.33,345.1L217.28,347.86L231.52,354.45L235.99,356.06L248.52,359.4L252.44,360.12L266.9,361.75L270.27,361.94L292.37,362.26L295.47,362.26L983,362.26" style="vector-effect: none; fill: none; stroke: rgb(239, 129, 53); stroke-opacity: 1; stroke-width: 2px; opacity: 1;"/></g><g class="points"/><g class="text"/></g><g class="trace scatter trace0dad8b" style="stroke-miterlimit: 2; opacity: 1;"><g class="fills"/><g class="errorbars"/><g class="lines"><path class="js-line" d="M57,53.6L62.55,84.06L63.85,90.12L71.27,120.18L72.94,126.15L82.22,155.69L84.26,161.54L95.34,190.46L97.73,196.17L110.63,224.32L113.41,229.85L125.24,251.61L128.4,256.94L141.87,277.71L145.47,282.74L156.88,297.4L160.89,302.11L173.61,315.61L178.09,319.88L192.21,331.82L197.09,335.46L211.87,345.07L216.77,347.78L231.08,354.22L235.66,355.84L248.67,359.39L252.7,360.19L267.2,361.93L270.5,362.1L298.57,362.26L301.66,362.26L983,362.26" style="vector-effect: none; fill: none; stroke: rgb(237, 120, 51); stroke-opacity: 1; stroke-width: 2px; opacity: 1;"/></g><g class="points"/><g class="text"/></g><g class="trace scatter trace583393" style="stroke-miterlimit: 2; opacity: 1;"><g class="fills"/><g class="errorbars"/><g class="lines"><path class="js-line" d="M57,53.6L62.57,84.06L63.87,90.12L71.29,120.18L72.96,126.14L82.22,155.69L84.25,161.54L95.31,190.47L97.7,196.19L110.56,224.35L113.33,229.89L125.15,251.65L128.3,256.99L141.74,277.78L145.33,282.82L156.7,297.51L160.7,302.23L173.39,315.76L177.86,320.03L191.92,331.97L196.77,335.59L211.64,345.17L216.66,347.88L231.52,354.5L236.28,356.22L249.54,359.94L253.5,360.72L264.2,361.99L267.47,362.16L298.57,362.26L301.66,362.26L983,362.26" style="vector-effect: none; fill: none; stroke: rgb(235, 111, 49); stroke-opacity: 1; stroke-width: 2px; opacity: 1;"/></g><g class="points"/><g class="text"/></g><g class="trace scatter tracee842af" style="stroke-miterlimit: 2; opacity: 1;"><g class="fills"/><g class="errorbars"/><g class="lines"><path class="js-line" d="M57,53.6L62.72,84.03L64.04,90.08L71.52,120.13L73.2,126.1L82.42,155.66L84.43,161.52L95.36,190.49L97.72,196.21L110.43,224.45L113.17,230L124.91,251.82L128.05,257.16L141.45,277.98L145.03,283.04L156.33,297.78L160.3,302.53L172.87,316.19L177.29,320.52L191.33,332.66L196.26,336.38L211.52,346.3L216.64,349.1L231.66,355.69L236.45,357.28L249.74,360.53L253.72,361.18L267.54,362.23L270.69,362.26L983,362.26" style="vector-effect: none; fill: none; stroke: rgb(217, 30, 30); stroke-opacity: 1; stroke-width: 2px; opacity: 1;"/></g><g class="points"/><g class="text"/></g></g></g></g><path class="xlines-above crisp" d="M0,0" style="fill: none;"/><path class="ylines-above crisp" d="M0,0" style="fill: none;"/><g class="overlines-above"/><g class="xaxislayer-above"><g class="xtick"><text text-anchor="middle" x="0" y="549" transform="translate(137,0)" style="font-family: 'Open Sans', verdana, arial, sans-serif; font-size: 28px; fill: rgb(0, 0, 0); fill-opacity: 1; white-space: pre; opacity: 1;">0</text></g><g class="xtick"><text text-anchor="middle" x="0" y="549" style="font-family: 'Open Sans', verdana, arial, sans-serif; font-size: 28px; fill: rgb(0, 0, 0); fill-opacity: 1; white-space: pre; opacity: 1;" transform="translate(291.33000000000004,0)">0.5</text></g><g class="xtick"><text text-anchor="middle" x="0" y="549" style="font-family: 'Open Sans', verdana, arial, sans-serif; font-size: 28px; fill: rgb(0, 0, 0); fill-opacity: 1; white-space: pre; opacity: 1;" transform="translate(445.67,0)">1</text></g><g class="xtick"><text text-anchor="middle" x="0" y="549" style="font-family: 'Open Sans', verdana, arial, sans-serif; font-size: 28px; fill: rgb(0, 0, 0); fill-opacity: 1; white-space: pre; opacity: 1;" transform="translate(600,0)">1.5</text></g><g class="xtick"><text text-anchor="middle" x="0" y="549" style="font-family: 'Open Sans', verdana, arial, sans-serif; font-size: 28px; fill: rgb(0, 0, 0); fill-opacity: 1; white-space: pre; opacity: 1;" transform="translate(754.33,0)">2</text></g><g class="xtick"><text text-anchor="middle" x="0" y="549" style="font-family: 'Open Sans', verdana, arial, sans-serif; font-size: 28px; fill: rgb(0, 0, 0); fill-opacity: 1; white-space: pre; opacity: 1;" transform="translate(908.67,0)">2.5</text></g><g class="xtick"><text text-anchor="middle" x="0" y="549" style="font-family: 'Open Sans', verdana, arial, sans-serif; font-size: 28px; fill: rgb(0, 0, 0); fill-opacity: 1; white-space: pre; opacity: 1;" transform="translate(1063,0)">3</text></g></g><g class="yaxislayer-above"><g class="ytick"><text text-anchor="end" x="79" y="9.799999999999999" transform="translate(0,462.26)" style="font-family: 'Open Sans', verdana, arial, sans-serif; font-size: 28px; fill: rgb(0, 0, 0); fill-opacity: 1; white-space: pre; opacity: 1;">0</text></g><g class="ytick"><text text-anchor="end" x="79" y="9.799999999999999" style="font-family: 'Open Sans', verdana, arial, sans-serif; font-size: 28px; fill: rgb(0, 0, 0); fill-opacity: 1; white-space: pre; opacity: 1;" transform="translate(0,400.53)">0.2</text></g><g class="ytick"><text text-anchor="end" x="79" y="9.799999999999999" style="font-family: 'Open Sans', verdana, arial, sans-serif; font-size: 28px; fill: rgb(0, 0, 0); fill-opacity: 1; white-space: pre; opacity: 1;" transform="translate(0,338.8)">0.4</text></g><g class="ytick"><text text-anchor="end" x="79" y="9.799999999999999" style="font-family: 'Open Sans', verdana, arial, sans-serif; font-size: 28px; fill: rgb(0, 0, 0); fill-opacity: 1; white-space: pre; opacity: 1;" transform="translate(0,277.06)">0.6</text></g><g class="ytick"><text text-anchor="end" x="79" y="9.799999999999999" style="font-family: 'Open Sans', verdana, arial, sans-serif; font-size: 28px; fill: rgb(0, 0, 0); fill-opacity: 1; white-space: pre; opacity: 1;" transform="translate(0,215.32999999999998)">0.8</text></g><g class="ytick"><text text-anchor="end" x="79" y="9.799999999999999" style="font-family: 'Open Sans', verdana, arial, sans-serif; font-size: 28px; fill: rgb(0, 0, 0); fill-opacity: 1; white-space: pre; opacity: 1;" transform="translate(0,153.6)">1</text></g></g><g class="overaxes-above"/></g></g><g class="polarlayer"/><g class="smithlayer"/><g class="ternarylayer"/><g class="geolayer"/><g class="funnelarealayer"/><g class="pielayer"/><g class="iciclelayer"/><g class="treemaplayer"/><g class="sunburstlayer"/><g class="glimages"/><defs id="topdefs-37dc32"><g class="clips"/><clipPath id="legend37dc32"><rect width="185" height="290" x="2" y="2"/></clipPath></defs><g class="layer-above"><g class="imagelayer"/><g class="shapelayer"/></g><g class="infolayer"><g class="legend" pointer-events="all" transform="translate(920.5999999999999,91.6)"><rect class="bg" shape-rendering="crispEdges" style="stroke: rgb(0, 0, 0); stroke-opacity: 1; fill: rgb(255, 255, 255); fill-opacity: 1; stroke-width: 2px;" width="187" height="292" x="1" y="1"/><g class="scrollbox" transform="" clip-path="url(#legend37dc32)"><g class="groups" transform=""><g class="traces" transform="translate(2,28.650000000000002)" style="opacity: 1;"><text class="legendtext" text-anchor="start" x="5" y="12.090000000000002" style="font-family: 'Open Sans', verdana, arial, sans-serif; font-size: 31px; fill: rgb(0, 0, 0); fill-opacity: 1; white-space: pre;">Trajectory</text><g class="layers"><g class="legendfill"/><g class="legendlines"/><g class="legendsymbols"><g class="legendpoints"/></g></g><rect class="legendtoggle" x="0" y="-21.650000000000002" width="179.609375" height="43.300000000000004" style="fill: rgb(0, 0, 0); fill-opacity: 0;"/></g><g class="traces" transform="translate(2,70)" style="opacity: 1;"><text class="legendtext" text-anchor="start" x="40" y="10.92" style="font-family: 'Open Sans', verdana, arial, sans-serif; font-size: 28px; fill: rgb(0, 0, 0); fill-opacity: 1; white-space: pre;">Reference</text><g class="layers" style="opacity: 1;"><g class="legendfill"/><g class="legendlines"><path class="js-line" d="M5,0h30" style="fill: none; stroke: rgb(0, 0, 0); stroke-opacity: 1; stroke-width: 2px;"/></g><g class="legendsymbols"><g class="legendpoints"/></g></g><rect class="legendtoggle" x="0" y="-19.7" width="179.609375" height="39.4" style="fill: rgb(0, 0, 0); fill-opacity: 0;"/></g><g class="traces" transform="translate(2,109.4)" style="opacity: 1;"><text class="legendtext" text-anchor="start" x="40" y="10.92" style="font-family: 'Open Sans', verdana, arial, sans-serif; font-size: 28px; fill: rgb(0, 0, 0); fill-opacity: 1; white-space: pre;">N = 10</text><g class="layers" style="opacity: 1;"><g class="legendfill"/><g class="legendlines"><path class="js-line" d="M5,0h30" style="fill: none; stroke: rgb(10, 119, 175); stroke-opacity: 1; stroke-width: 2px;"/></g><g class="legendsymbols"><g class="legendpoints"/></g></g><rect class="legendtoggle" x="0" y="-19.7" width="179.609375" height="39.4" style="fill: rgb(0, 0, 0); fill-opacity: 0;"/></g><g class="traces" transform="translate(2,148.79999999999998)" style="opacity: 1;"><text class="legendtext" text-anchor="start" x="40" y="10.92" style="font-family: 'Open Sans', verdana, arial, sans-serif; font-size: 28px; fill: rgb(0, 0, 0); fill-opacity: 1; white-space: pre;">N = 20</text><g class="layers" style="opacity: 1;"><g class="legendfill"/><g class="legendlines"><path class="js-line" d="M5,0h30" style="fill: none; stroke: rgb(149, 181, 108); stroke-opacity: 1; stroke-width: 2px;"/></g><g class="legendsymbols"><g class="legendpoints"/></g></g><rect class="legendtoggle" x="0" y="-19.7" width="179.609375" height="39.4" style="fill: rgb(0, 0, 0); fill-opacity: 0;"/></g><g class="traces" transform="translate(2,188.2)" style="opacity: 1;"><text class="legendtext" text-anchor="start" x="40" y="10.92" style="font-family: 'Open Sans', verdana, arial, sans-serif; font-size: 28px; fill: rgb(0, 0, 0); fill-opacity: 1; white-space: pre;">N = 30</text><g class="layers" style="opacity: 1;"><g class="legendfill"/><g class="legendlines"><path class="js-line" d="M5,0h30" style="fill: none; stroke: rgb(242, 184, 56); stroke-opacity: 1; stroke-width: 2px;"/></g><g class="legendsymbols"><g class="legendpoints"/></g></g><rect class="legendtoggle" x="0" y="-19.7" width="179.609375" height="39.4" style="fill: rgb(0, 0, 0); fill-opacity: 0;"/></g><g class="traces" transform="translate(2,227.6)" style="opacity: 1;"><text class="legendtext" text-anchor="start" x="40" y="10.92" style="font-family: 'Open Sans', verdana, arial, sans-serif; font-size: 28px; fill: rgb(0, 0, 0); fill-opacity: 1; white-space: pre;">N = 40</text><g class="layers" style="opacity: 1;"><g class="legendfill"/><g class="legendlines"><path class="js-line" d="M5,0h30" style="fill: none; stroke: rgb(237, 120, 51); stroke-opacity: 1; stroke-width: 2px;"/></g><g class="legendsymbols"><g class="legendpoints"/></g></g><rect class="legendtoggle" x="0" y="-19.7" width="179.609375" height="39.4" style="fill: rgb(0, 0, 0); fill-opacity: 0;"/></g><g class="traces" transform="translate(2,267)" style="opacity: 1;"><text class="legendtext" text-anchor="start" x="40" y="10.92" style="font-family: 'Open Sans', verdana, arial, sans-serif; font-size: 28px; fill: rgb(0, 0, 0); fill-opacity: 1; white-space: pre;">N = 50</text><g class="layers" style="opacity: 1;"><g class="legendfill"/><g class="legendlines"><path class="js-line" d="M5,0h30" style="fill: none; stroke: rgb(217, 30, 30); stroke-opacity: 1; stroke-width: 2px;"/></g><g class="legendsymbols"><g class="legendpoints"/></g></g><rect class="legendtoggle" x="0" y="-19.7" width="179.609375" height="39.4" style="fill: rgb(0, 0, 0); fill-opacity: 0;"/></g></g></g><rect class="scrollbar" rx="20" ry="3" width="0" height="0" style="fill: rgb(128, 139, 164); fill-opacity: 1;" x="0" y="0"/></g><g class="g-gtitle"/><g class="g-xtitle"/><g class="g-ytitle"/></g></svg>