<svg class="main-svg" xmlns="http://www.w3.org/2000/svg" xmlns:xlink="http://www.w3.org/1999/xlink" width="800" height="600" style="" viewBox="0 0 800 600"><rect x="0" y="0" width="800" height="600" style="fill: rgb(255, 255, 255); fill-opacity: 1;"/><defs id="defs-d8fb6d"><g class="clips"><clipPath id="clipd8fb6dxyplot" class="plotclip"><rect width="453" height="414"/></clipPath><clipPath class="axesclip" id="clipd8fb6dx"><rect x="98" y="0" width="453" height="600"/></clipPath><clipPath class="axesclip" id="clipd8fb6dy"><rect x="0" y="100" width="800" height="414"/></clipPath><clipPath class="axesclip" id="clipd8fb6dxy"><rect x="98" y="100" width="453" height="414"/></clipPath></g><g class="gradients"/><g class="patterns"/></defs><g class="bglayer"/><g class="layer-below"><g class="imagelayer"/><g class="shapelayer"/></g><g class="cartesianlayer"><g class="subplot xy"><g class="layer-subplot"><g class="shapelayer"/><g class="imagelayer"/></g><g class="minor-gridlayer"><g class="x"/><g class="y"/></g><g class="gridlayer"><g class="x"><path class="xgrid crisp" transform="translate(258.22,0)" d="M0,100v414" style="stroke: rgb(200, 200, 200); stroke-opacity: 1; stroke-width: 1px;"/><path class="xgrid crisp" transform="translate(390.78,0)" d="M0,100v414" style="stroke: rgb(200, 200, 200); stroke-opacity: 1; stroke-width: 1px;"/><path class="xgrid crisp" transform="translate(523.35,0)" d="M0,100v414" style="stroke: rgb(200, 200, 200); stroke-opacity: 1; stroke-width: 1px;"/></g><g class="y"><path class="ygrid crisp" transform="translate(0,414.78)" d="M98,0h453" style="stroke: rgb(200, 200, 200); stroke-opacity: 1; stroke-width: 1px;"/><path class="ygrid crisp" transform="translate(0,341.26)" d="M98,0h453" style="stroke: rgb(200, 200, 200); stroke-opacity: 1; stroke-width: 1px;"/><path class="ygrid crisp" transform="translate(0,267.74)" d="M98,0h453" style="stroke: rgb(200, 200, 200); stroke-opacity: 1; stroke-width: 1px;"/><path class="ygrid crisp" transform="translate(0,194.22)" d="M98,0h453" style="stroke: rgb(200, 200, 200); stroke-opacity: 1; stroke-width: 1px;"/><path class="ygrid crisp" transform="translate(0,120.7)" d="M98,0h453" style="stroke: rgb(200, 200, 200); stroke-opacity: 1; stroke-width: 1px;"/></g></g><g class="zerolinelayer"><path class="xzl zl crisp" transform="translate(125.65,0)" d="M0,100v414" style="stroke: rgb(200, 200, 200); stroke-opacity: 1; stroke-width: 2px;"/><path class="yzl zl crisp" transform="translate(0,488.3)" d="M98,0h453" style="stroke: rgb(200, 200, 200); stroke-opacity: 1; stroke-width: 2px;"/></g><g class="layer-between"><g class="shapelayer"/><g class="imagelayer"/></g><path class="xlines-below"/><path class="ylines-below"/><g class="overlines-below"/><g class="xaxislayer-below"/><g class="yaxislayer-below"/><g class="overaxes-below"/><g class="overplot"><g class="xy" transform="translate(98,100)" clip-path="url(#clipd8fb6dxyplot)"><g class="scatterlayer mlayer"><g class="trace scatter trace12bb71" style="stroke-miterlimit: 2; opacity: 1;"><g class="fills"/><g class="errorbars"/><g class="lines"><path class="js-line" d="M27.65,388.3L425.35,388.3" style="vector-effect: none; fill: none; stroke: rgb(0, 0, 0); stroke-opacity: 1; stroke-width: 2px; opacity: 1;"/></g><g class="points"/><g class="text"/></g><g class="trace scatter traceb7fb3c" style="stroke-miterlimit: 2; opacity: 1;"><g class="fills"/><g class="errorbars"/><g class="lines"/><g class="points"><path class="point" transform="translate(27.65,388.3)" d="M4,0A4,4 0 1,1 0,-4A4,4 0 0,1 4,0Z" style="opacity: 1; stroke-width: 0px; fill: rgb(0, 0, 0); fill-opacity: 1;"/><path class="point" transform="translate(425.35,388.3)" d="M4,0A4,4 0 1,1 0,-4A4,4 0 0,1 4,0Z" style="opacity: 1; stroke-width: 0px; fill: rgb(0, 0, 0); fill-opacity: 1;"/></g><g class="text"/></g><g class="trace scatter trace0ea1ae" style="stroke-miterlimit: 2; opacity: 1;"><g class="fills"/><g class="errorbars"/><g class="lines"><path class="js-line" d="M27.65,20.7L42.28,71.88L43.61,76.25L58.24,121.41L59.57,125.26L72.87,161.48L74.2,164.89L88.83,199.86L90.16,202.82L103.47,230.56L104.8,233.15L118.1,257.34L119.43,259.59L132.73,280.56L134.06,282.5L147.36,300.54L148.69,302.21L161.99,317.61L163.32,319.03L177.95,333.25L179.28,334.43L193.91,346.14L195.24,347.1L208.54,355.83L209.87,356.62L224.5,364.39L225.83,365.02L243.13,372.1L244.46,372.57L263.08,378.11L264.41,378.44L284.36,382.49L285.69,382.71L308.3,385.54L309.63,385.67L341.55,387.58L342.88,387.62L389.44,388.28L390.77,388.28L425.35,388.3" style="vector-effect: none; fill: none; stroke: rgb(10, 136, 186); stroke-opacity: 1; stroke-width: 2px; opacity: 1;"/></g><g class="points"/><g class="text"/></g><g class="trace scatter trace9d6728" style="stroke-miterlimit: 2; opacity: 1;"><g class="fills"/><g class="errorbars"/><g class="lines"><path class="js-line" d="M27.65,20.7L35.49,72.57L36.52,78.59L45.1,123.34L46.22,128.53L54.26,162.41L55.45,166.92L63.92,196.35L65.15,200.26L75.27,229.06L76.56,232.37L85.73,253.84L87.05,256.67L96.45,275.04L97.81,277.46L108.78,295.16L110.16,297.18L121.31,311.88L122.71,313.55L133.97,325.71L135.38,327.08L148.12,338.24L149.54,339.35L162.3,348.34L163.71,349.23L177.86,357.21L179.27,357.92L196.15,365.37L197.55,365.91L214.27,371.66L215.66,372.08L236.34,377.47L237.71,377.78L259.54,381.82L260.9,382.03L286.59,385.1L287.93,385.22L317.45,387.12L318.79,387.18L365.48,388.19L366.81,388.2L425.35,388.3" style="vector-effect: none; fill: none; stroke: rgb(56, 151, 160); stroke-opacity: 1; stroke-width: 2px; opacity: 1;"/></g><g class="points"/><g class="text"/></g><g class="trace scatter trace396490" style="stroke-miterlimit: 2; opacity: 1;"><g class="fills"/><g class="errorbars"/><g class="lines"><path class="js-line" d="M27.65,20.7L32.05,61.85L32.88,68.37L39.39,111.38L40.42,117.16L48.12,155.21L49.29,160.31L57.93,193.77L59.21,198.24L68.55,227.45L69.92,231.34L79.75,256.67L81.18,260.03L91.33,281.81L92.8,284.68L104.6,305.66L106.08,308.04L117.94,325.33L119.42,327.28L131.19,341.3L132.65,342.86L144.27,354.04L145.71,355.27L157.14,364L158.56,364.95L169.8,371.61L171.19,372.33L183.66,377.81L185.03,378.31L198.7,382.43L200.06,382.76L216.29,385.71L217.64,385.89L237.74,387.6L239.08,387.67L268.4,388.27L269.73,388.28L425.35,388.3" style="vector-effect: none; fill: none; stroke: rgb(103, 166, 134); stroke-opacity: 1; stroke-width: 2px; opacity: 1;"/></g><g class="points"/><g class="text"/></g><g class="trace scatter tracea5025f" style="stroke-miterlimit: 2; opacity: 1;"><g class="fills"/><g class="errorbars"/><g class="lines"><path class="js-line" d="M27.65,20.7L31.45,63.37L32.23,70.31L37.74,110.68L38.78,117.18L45.61,154.75L46.84,160.75L54.64,195.12L56,200.56L65.91,236.3L67.37,241.06L77.78,271.89L79.29,275.94L89.89,301.81L91.41,305.15L101.97,326.15L103.47,328.82L113.86,345.26L115.33,347.31L124.04,358.1L125.47,359.67L134,367.84L135.41,369.01L145.19,375.85L146.57,376.65L156.19,381.24L157.56,381.76L168.42,384.97L169.77,385.27L183.2,387.26L184.54,387.39L203.22,388.21L204.55,388.23L257.76,388.3L259.09,388.3L425.35,388.3" style="vector-effect: none; fill: none; stroke: rgb(149, 181, 108); stroke-opacity: 1; stroke-width: 2px; opacity: 1;"/></g><g class="points"/><g class="text"/></g><g class="trace scatter traceb6202b" style="stroke-miterlimit: 2; opacity: 1;"><g class="fills"/><g class="errorbars"/><g class="lines"><path class="js-line" d="M27.65,20.7L29.77,57.08L30.37,64.25L34.18,99.41L35.08,106.27L41.33,146.04L42.49,152.4L50.04,188.8L51.38,194.55L59.78,227.02L61.23,232.09L71.63,264.62L73.14,268.85L83.78,295.54L85.3,298.95L94.4,317.31L95.91,320.04L104.89,334.59L106.38,336.73L115.23,348.06L116.7,349.71L125.43,358.4L126.87,359.66L136.91,367.18L138.34,368.09L148.24,373.48L149.64,374.12L162.19,378.84L163.57,379.27L178.68,382.9L180.04,383.15L197.65,385.66L199,385.8L223.12,387.41L224.45,387.46L261.74,388.14L263.07,388.15L381.46,388.3L382.79,388.3L425.35,388.3" style="vector-effect: none; fill: none; stroke: rgb(196, 196, 82); stroke-opacity: 1; stroke-width: 2px; opacity: 1;"/></g><g class="points"/><g class="text"/></g><g class="trace scatter trace194358" style="stroke-miterlimit: 2; opacity: 1;"><g class="fills"/><g class="errorbars"/><g class="lines"><path class="js-line" d="M27.65,20.7L29.37,57.24L29.9,64.46L33.41,99.83L34.26,106.73L40.27,146.69L41.4,153.07L48.8,189.5L50.13,195.24L58.46,227.55L59.9,232.57L68.8,260.45L70.31,264.72L79.48,288.16L81.02,291.71L90.29,310.98L91.84,313.88L101.1,329.5L102.64,331.83L113.35,346.16L114.87,347.95L125.39,358.83L126.87,360.17L137.16,368.24L138.62,369.22L148.66,375.05L150.07,375.75L161.27,380.32L162.65,380.78L174.98,383.98L176.34,384.25L191.16,386.35L192.5,386.47L213.85,387.69L215.18,387.74L271.06,388.3L272.39,388.3L425.35,388.3" style="vector-effect: none; fill: none; stroke: rgb(242, 211, 56); stroke-opacity: 1; stroke-width: 2px; opacity: 1;"/></g><g class="points"/><g class="text"/></g><g class="trace scatter traceb15d69" style="stroke-miterlimit: 2; opacity: 1;"><g class="fills"/><g class="errorbars"/><g class="lines"><path class="js-line" d="M27.65,20.7L29.19,57.3L29.69,64.54L33.02,100.07L33.84,107.02L38.62,140.79L39.7,147.33L46.88,184.8L48.18,190.73L56.49,224.33L57.94,229.58L66.99,258.93L68.54,263.46L78,288.5L79.6,292.32L89.22,313.21L90.83,316.36L100.43,333.38L102.01,335.91L111.43,349.38L112.98,351.36L122.13,361.67L123.64,363.15L132.48,370.72L133.93,371.78L143.9,377.82L145.3,378.51L154.98,382.32L156.35,382.74L168.53,385.47L169.88,385.68L184.58,387.2L185.91,387.28L212.53,388.16L213.86,388.17L271.06,388.3L272.39,388.3L425.35,388.3" style="vector-effect: none; fill: none; stroke: rgb(242, 197, 56); stroke-opacity: 1; stroke-width: 2px; opacity: 1;"/></g><g class="points"/><g class="text"/></g><g class="trace scatter tracec34588" style="stroke-miterlimit: 2; opacity: 1;"><g class="fills"/><g class="errorbars"/><g class="lines"><path class="js-line" d="M27.65,20.7L29.18,57.32L29.65,64.57L32.84,100.31L33.63,107.32L38.28,141.61L39.34,148.28L46.51,186.84L47.83,193L56.34,228.12L57.85,233.66L67.29,264.78L68.91,269.61L78.81,296.31L80.48,300.37L90.46,322.43L92.11,325.71L101.88,343.14L103.48,345.68L112.86,358.75L114.39,360.59L123.34,369.81L124.8,371.07L133.36,377.19L134.76,378L143.06,381.87L144.43,382.37L155.25,385.26L156.59,385.51L169.95,387.16L171.28,387.27L195.24,388.19L196.57,388.21L251.11,388.3L252.44,388.3L425.35,388.3" style="vector-effect: none; fill: none; stroke: rgb(242, 184, 56); stroke-opacity: 1; stroke-width: 2px; opacity: 1;"/></g><g class="points"/><g class="text"/></g><g class="trace scatter trace55b392" style="stroke-miterlimit: 2; opacity: 1;"><g class="fills"/><g class="errorbars"/><g class="lines"><path class="js-line" d="M27.65,20.7L29.78,64.54L30.3,71.77L34.42,114.49L35.27,121.47L41.32,162.27L42.48,168.87L50.23,206.95L51.65,213.02L60.7,247.53L62.29,252.93L72.08,282.99L73.75,287.59L83.77,312.6L85.43,316.33L95.3,336.1L96.92,338.96L106.43,353.72L107.98,355.79L115.57,364.69L117.07,366.19L125.84,373.63L127.28,374.64L135.79,379.51L137.19,380.15L146.88,383.63L148.25,384.01L160.48,386.39L161.83,386.57L177.91,387.83L179.25,387.88L216.52,388.29L217.85,388.29L425.35,388.3" style="vector-effect: none; fill: none; stroke: rgb(242, 170, 56); stroke-opacity: 1; stroke-width: 2px; opacity: 1;"/></g><g class="points"/><g class="text"/></g><g class="trace scatter tracea3d2f6" style="stroke-miterlimit: 2; opacity: 1;"><g class="fills"/><g class="errorbars"/><g class="lines"><path class="js-line" d="M27.65,20.7L32.07,85.91L32.69,93.08L37.19,135.44L38.09,142.37L43.27,176.2L44.45,182.78L50.94,214.57L52.36,220.67L59.88,249.7L61.46,255.17L69.58,280.75L71.24,285.49L81.28,311.16L82.96,314.97L91.28,332.04L92.92,335.07L101.04,348.38L102.63,350.69L110.49,360.72L112.03,362.44L121.13,371.05L122.62,372.23L131.39,378.01L132.83,378.78L141.33,382.49L142.72,382.97L153.73,385.75L155.09,385.98L168.57,387.48L169.91,387.56L192.58,388.21L193.91,388.22L248.45,388.3L249.78,388.3L425.35,388.3" style="vector-effect: none; fill: none; stroke: rgb(242, 157, 56); stroke-opacity: 1; stroke-width: 2px; opacity: 1;"/></g><g class="points"/><g class="text"/></g><g class="trace scatter trace5aa371" style="stroke-miterlimit: 2; opacity: 1;"><g class="fills"/><g class="errorbars"/><g class="lines"><path class="js-line" d="M27.65,20.7L31.91,86L32.52,93.17L37,135.57L37.9,142.5L43.08,176.35L44.25,182.93L50.7,214.7L52.1,220.79L61.07,255.18L62.65,260.53L72.39,290.02L74.05,294.5L84.1,318.64L85.78,322.22L95.79,341.07L97.44,343.79L107.19,357.85L108.79,359.83L116.62,368.36L118.15,369.8L127.15,376.85L128.62,377.78L137.23,382.15L138.64,382.71L148.34,385.52L149.7,385.79L161.88,387.39L163.22,387.49L184.59,388.24L185.93,388.25L291.01,388.3L292.34,388.3L425.35,388.3" style="vector-effect: none; fill: none; stroke: rgb(242, 143, 56); stroke-opacity: 1; stroke-width: 2px; opacity: 1;"/></g><g class="points"/><g class="text"/></g><g class="trace scatter traceccce35" style="stroke-miterlimit: 2; opacity: 1;"><g class="fills"/><g class="errorbars"/><g class="lines"><path class="js-line" d="M27.65,20.7L31.86,86.03L32.47,93.2L36.94,135.64L37.83,142.58L42.94,176.52L44.09,183.13L51.82,221.18L53.23,227.22L60.7,255.93L62.27,261.35L70.41,286.73L72.08,291.45L82.32,317.11L84.05,320.95L92.65,338.2L94.36,341.26L102.77,354.75L104.42,357.08L112.47,367.05L114.05,368.72L121.69,375.6L123.18,376.71L130.46,381.13L131.88,381.82L140.28,384.88L141.65,385.24L152.54,387.15L153.89,387.3L169.96,388.18L171.29,388.2L227.17,388.3L228.5,388.3L425.35,388.3" style="vector-effect: none; fill: none; stroke: rgb(237, 120, 51); stroke-opacity: 1; stroke-width: 2px; opacity: 1;"/></g><g class="points"/><g class="text"/></g><g class="trace scatter trace35b757" style="stroke-miterlimit: 2; opacity: 1;"><g class="fills"/><g class="errorbars"/><g class="lines"><path class="js-line" d="M27.65,20.7L29.91,64.5L30.42,71.74L34.29,114.64L35.08,121.69L40.68,163.09L41.76,169.83L49.06,209.03L50.41,215.34L57.68,245.72L59.23,251.54L67.39,279.23L69.09,284.45L77.81,308.82L79.58,313.31L88.46,333.69L90.22,337.33L98.87,353.23L100.56,355.96L108.74,367.39L110.32,369.25L117.97,376.7L119.45,377.85L126.68,382.28L128.09,382.94L136.42,385.74L137.79,386.06L148.61,387.61L149.95,387.72L168.64,388.29L169.97,388.29L425.35,388.3" style="vector-effect: none; fill: none; stroke: rgb(232, 98, 46); stroke-opacity: 1; stroke-width: 2px; opacity: 1;"/></g><g class="points"/><g class="text"/></g><g class="trace scatter tracebc1765" style="stroke-miterlimit: 2; opacity: 1;"><g class="fills"/><g class="errorbars"/><g class="lines"><path class="js-line" d="M27.65,20.7L30.51,71.7L31.06,78.92L35.13,121.7L35.94,128.73L41.65,170.05L42.74,176.77L48.81,209.57L50.14,215.94L58.93,252.57L60.51,258.38L68.82,285.87L70.55,291.04L79.36,314.9L81.14,319.25L89.98,338.71L91.73,342.14L100.27,356.92L101.93,359.42L110.01,369.79L111.58,371.47L119.21,378.22L120.69,379.28L127.96,383.37L129.39,383.98L137.77,386.54L139.14,386.82L149.98,388.04L151.32,388.1L176.62,388.3L177.95,388.3L425.35,388.3" style="vector-effect: none; fill: none; stroke: rgb(227, 75, 40); stroke-opacity: 1; stroke-width: 2px; opacity: 1;"/></g><g class="points"/><g class="text"/></g><g class="trace scatter trace50144f" style="stroke-miterlimit: 2; opacity: 1;"><g class="fills"/><g class="errorbars"/><g class="lines"><path class="js-line" d="M27.65,20.7L30.6,71.67L31.14,78.89L35.1,121.76L35.89,128.8L41.44,170.28L42.51,177.03L49.82,216.32L51.18,222.63L58.56,252.97L60.14,258.77L68.45,286.17L70.17,291.31L78.97,315.02L80.75,319.34L89.62,338.79L91.38,342.24L100.01,357.26L101.7,359.82L109.93,370.62L111.53,372.39L119.3,379.48L120.81,380.58L128.13,384.67L129.56,385.24L136.53,387.17L137.9,387.41L148.68,388.23L150.01,388.26L201.89,388.3L203.22,388.3L425.35,388.3" style="vector-effect: none; fill: none; stroke: rgb(222, 53, 35); stroke-opacity: 1; stroke-width: 2px; opacity: 1;"/></g><g class="points"/><g class="text"/></g><g class="trace scatter trace105ab3" style="stroke-miterlimit: 2; opacity: 1;"><g class="fills"/><g class="errorbars"/><g class="lines"><path class="js-line" d="M27.65,20.7L31.15,78.9L31.7,86.11L35.77,128.89L36.57,135.92L42.28,177.23L43.38,183.95L49.54,216.59L50.91,222.91L58.3,253.3L59.89,259.11L68.25,286.65L69.99,291.83L80.7,320.36L82.51,324.67L91.53,344.11L93.32,347.56L102.08,362.56L103.78,365.09L112.02,375.46L113.61,377.08L119.76,382.21L121.25,383.18L127.02,385.96L128.43,386.43L136.66,387.95L138.01,388.06L154.01,388.3L155.34,388.3L425.35,388.3" style="vector-effect: none; fill: none; stroke: rgb(217, 30, 30); stroke-opacity: 1; stroke-width: 2px; opacity: 1;"/></g><g class="points"/><g class="text"/></g></g></g></g><path class="xlines-above crisp" d="M0,0" style="fill: none;"/><path class="ylines-above crisp" d="M0,0" style="fill: none;"/><g class="overlines-above"/><g class="xaxislayer-above"><g class="xtick"><text text-anchor="middle" x="0" y="543" transform="translate(125.65,0)" style="font-family: 'Open Sans', verdana, arial, sans-serif; font-size: 28px; fill: rgb(0, 0, 0); fill-opacity: 1; white-space: pre; opacity: 1;">0</text></g><g class="xtick"><text text-anchor="middle" x="0" y="543" style="font-family: 'Open Sans', verdana, arial, sans-serif; font-size: 28px; fill: rgb(0, 0, 0); fill-opacity: 1; white-space: pre; opacity: 1;" transform="translate(258.22,0)">1</text></g><g class="xtick"><text text-anchor="middle" x="0" y="543" style="font-family: 'Open Sans', verdana, arial, sans-serif; font-size: 28px; fill: rgb(0, 0, 0); fill-opacity: 1; white-space: pre; opacity: 1;" transform="translate(390.78,0)">2</text></g><g class="xtick"><text text-anchor="middle" x="0" y="543" style="font-family: 'Open Sans', verdana, arial, sans-serif; font-size: 28px; fill: rgb(0, 0, 0); fill-opacity: 1; white-space: pre; opacity: 1;" transform="translate(523.35,0)">3</text></g></g><g class="yaxislayer-above"><g class="ytick"><text text-anchor="end" x="97" y="9.799999999999999" transform="translate(0,488.3)" style="font-family: 'Open Sans', verdana, arial, sans-serif; font-size: 28px; fill: rgb(0, 0, 0); fill-opacity: 1; white-space: pre; opacity: 1;">0</text></g><g class="ytick"><text text-anchor="end" x="97" y="9.799999999999999" style="font-family: 'Open Sans', verdana, arial, sans-serif; font-size: 28px; fill: rgb(0, 0, 0); fill-opacity: 1; white-space: pre; opacity: 1;" transform="translate(0,414.78)">0.2</text></g><g class="ytick"><text text-anchor="end" x="97" y="9.799999999999999" style="font-family: 'Open Sans', verdana, arial, sans-serif; font-size: 28px; fill: rgb(0, 0, 0); fill-opacity: 1; white-space: pre; opacity: 1;" transform="translate(0,341.26)">0.4</text></g><g class="ytick"><text text-anchor="end" x="97" y="9.799999999999999" style="font-family: 'Open Sans', verdana, arial, sans-serif; font-size: 28px; fill: rgb(0, 0, 0); fill-opacity: 1; white-space: pre; opacity: 1;" transform="translate(0,267.74)">0.6</text></g><g class="ytick"><text text-anchor="end" x="97" y="9.799999999999999" style="font-family: 'Open Sans', verdana, arial, sans-serif; font-size: 28px; fill: rgb(0, 0, 0); fill-opacity: 1; white-space: pre; opacity: 1;" transform="translate(0,194.22)">0.8</text></g><g class="ytick"><text text-anchor="end" x="97" y="9.799999999999999" style="font-family: 'Open Sans', verdana, arial, sans-serif; font-size: 28px; fill: rgb(0, 0, 0); fill-opacity: 1; white-space: pre; opacity: 1;" transform="translate(0,120.7)">1</text></g></g><g class="overaxes-above"/></g></g><g class="polarlayer"/><g class="smithlayer"/><g class="ternarylayer"/><g class="geolayer"/><g class="funnelarealayer"/><g class="pielayer"/><g class="iciclelayer"/><g class="treemaplayer"/><g class="sunburstlayer"/><g class="glimages"/><defs id="topdefs-d8fb6d"><g class="clips"/><clipPath id="legendd8fb6d"><rect width="228" height="343" x="0" y="0"/></clipPath></defs><g class="layer-above"><g class="imagelayer"/><g class="shapelayer"/></g><g class="infolayer"><g class="legend" pointer-events="all" transform="translate(560.06,100)"><rect class="bg" shape-rendering="crispEdges" style="stroke: rgb(68, 68, 68); stroke-opacity: 1; fill: rgb(255, 255, 255); fill-opacity: 1; stroke-width: 0px;" width="228" height="343" x="0" y="0"/><g class="scrollbox" transform="" clip-path="url(#legendd8fb6d)"><g class="groups" transform=""><g class="traces" transform="translate(0,26.650000000000002)" style="opacity: 1;"><text class="legendtext" text-anchor="start" x="5" y="12.090000000000002" style="font-family: 'Open Sans', verdana, arial, sans-serif; font-size: 31px; fill: rgb(0, 0, 0); fill-opacity: 1; white-space: pre;">Reference</text><g class="layers"><g class="legendfill"/><g class="legendlines"/><g class="legendsymbols"><g class="legendpoints"/></g></g><rect class="legendtoggle" x="0" y="-21.650000000000002" width="222.65625" height="43.300000000000004" style="fill: rgb(0, 0, 0); fill-opacity: 0;"/></g><g class="traces" transform="translate(0,68)" style="opacity: 1;"><text class="legendtext" text-anchor="start" x="40" y="10.92" style="font-family: 'Open Sans', verdana, arial, sans-serif; font-size: 28px; fill: rgb(0, 0, 0); fill-opacity: 1; white-space: pre;">Reference</text><g class="layers" style="opacity: 1;"><g class="legendfill"/><g class="legendlines"><path class="js-line" d="M5,0h30" style="fill: none; stroke: rgb(0, 0, 0); stroke-opacity: 1; stroke-width: 2px;"/></g><g class="legendsymbols"><g class="legendpoints"/></g></g><rect class="legendtoggle" x="0" y="-19.7" width="222.65625" height="39.4" style="fill: rgb(0, 0, 0); fill-opacity: 0;"/></g><g class="traces" transform="translate(0,107.4)" style="opacity: 1;"><text class="legendtext" text-anchor="start" x="40" y="10.92" style="font-family: 'Open Sans', verdana, arial, sans-serif; font-size: 28px; fill: rgb(0, 0, 0); fill-opacity: 1; white-space: pre;">Control point</text><g class="layers" style="opacity: 1;"><g class="legendfill"/><g class="legendlines"/><g class="legendsymbols"><g class="legendpoints"><path class="scatterpts" transform="translate(20,0)" d="M4,0A4,4 0 1,1 0,-4A4,4 0 0,1 4,0Z" style="opacity: 1; stroke-width: 0px; fill: rgb(0, 0, 0); fill-opacity: 1;"/></g></g></g><rect class="legendtoggle" x="0" y="-19.7" width="222.65625" height="39.4" style="fill: rgb(0, 0, 0); fill-opacity: 0;"/></g></g><g class="groups" transform="translate(0,10)"><g class="traces" transform="translate(0,148.75)" style="opacity: 1;"><text class="legendtext" text-anchor="start" x="5" y="12.090000000000002" style="font-family: 'Open Sans', verdana, arial, sans-serif; font-size: 31px; fill: rgb(0, 0, 0); fill-opacity: 1; white-space: pre;">Trajectory</text><g class="layers"><g class="legendfill"/><g class="legendlines"/><g class="legendsymbols"><g class="legendpoints"/></g></g><rect class="legendtoggle" x="0" y="-21.650000000000002" width="222.65625" height="43.300000000000004" style="fill: rgb(0, 0, 0); fill-opacity: 0;"/></g><g class="traces" transform="translate(0,190.1)" style="opacity: 1;"><text class="legendtext" text-anchor="start" x="40" y="10.92" style="font-family: 'Open Sans', verdana, arial, sans-serif; font-size: 28px; fill: rgb(0, 0, 0); fill-opacity: 1; white-space: pre;">N = 5</text><g class="layers" style="opacity: 1;"><g class="legendfill"/><g class="legendlines"><path class="js-line" d="M5,0h30" style="fill: none; stroke: rgb(10, 136, 186); stroke-opacity: 1; stroke-width: 2px;"/></g><g class="legendsymbols"><g class="legendpoints"/></g></g><rect class="legendtoggle" x="0" y="-19.7" width="222.65625" height="39.4" style="fill: rgb(0, 0, 0); fill-opacity: 0;"/></g><g class="traces" transform="translate(0,229.5)" style="opacity: 1;"><text class="legendtext" text-anchor="start" x="40" y="10.92" style="font-family: 'Open Sans', verdana, arial, sans-serif; font-size: 28px; fill: rgb(0, 0, 0); fill-opacity: 1; white-space: pre;">N = 10</text><g class="layers" style="opacity: 1;"><g class="legendfill"/><g class="legendlines"><path class="js-line" d="M5,0h30" style="fill: none; stroke: rgb(242, 211, 56); stroke-opacity: 1; stroke-width: 2px;"/></g><g class="legendsymbols"><g class="legendpoints"/></g></g><rect class="legendtoggle" x="0" y="-19.7" width="222.65625" height="39.4" style="fill: rgb(0, 0, 0); fill-opacity: 0;"/></g><g class="traces" transform="translate(0,268.90000000000003)" style="opacity: 1;"><text class="legendtext" text-anchor="start" x="40" y="10.92" style="font-family: 'Open Sans', verdana, arial, sans-serif; font-size: 28px; fill: rgb(0, 0, 0); fill-opacity: 1; white-space: pre;">N = 15</text><g class="layers" style="opacity: 1;"><g class="legendfill"/><g class="legendlines"><path class="js-line" d="M5,0h30" style="fill: none; stroke: rgb(242, 143, 56); stroke-opacity: 1; stroke-width: 2px;"/></g><g class="legendsymbols"><g class="legendpoints"/></g></g><rect class="legendtoggle" x="0" y="-19.7" width="222.65625" height="39.4" style="fill: rgb(0, 0, 0); fill-opacity: 0;"/></g><g class="traces" transform="translate(0,308.3)" style="opacity: 1;"><text class="legendtext" text-anchor="start" x="40" y="10.92" style="font-family: 'Open Sans', verdana, arial, sans-serif; font-size: 28px; fill: rgb(0, 0, 0); fill-opacity: 1; white-space: pre;">N = 20</text><g class="layers" style="opacity: 1;"><g class="legendfill"/><g class="legendlines"><path class="js-line" d="M5,0h30" style="fill: none; stroke: rgb(217, 30, 30); stroke-opacity: 1; stroke-width: 2px;"/></g><g class="legendsymbols"><g class="legendpoints"/></g></g><rect class="legendtoggle" x="0" y="-19.7" width="222.65625" height="39.4" style="fill: rgb(0, 0, 0); fill-opacity: 0;"/></g></g></g><rect class="scrollbar" rx="20" ry="3" width="0" height="0" style="fill: rgb(128, 139, 164); fill-opacity: 1;" x="0" y="0"/></g><g class="g-gtitle"/><g class="g-xtitle"><text class="xtitle" x="324.5" y="587.3" text-anchor="middle" style="opacity: 1; font-family: 'Open Sans', verdana, arial, sans-serif; font-size: 34px; fill: rgb(0, 0, 0); fill-opacity: 1; white-space: pre;">East [m]</text></g><g class="g-ytitle" transform="translate(9.197265625,0)"><text class="ytitle" transform="rotate(-90,24.803124999999994,307)" x="24.803124999999994" y="307" text-anchor="middle" style="opacity: 1; font-family: 'Open Sans', verdana, arial, sans-serif; font-size: 34px; fill: rgb(0, 0, 0); fill-opacity: 1; white-space: pre;">North [m]</text></g></g></svg>