<svg class="main-svg" xmlns="http://www.w3.org/2000/svg" xmlns:xlink="http://www.w3.org/1999/xlink" width="1200" height="600" style="" viewBox="0 0 1200 600"><rect x="0" y="0" width="1200" height="600" style="fill: rgb(255, 255, 255); fill-opacity: 1;"/><defs id="defs-62a415"><g class="clips"><clipPath id="clip62a415xyplot" class="plotclip"><rect width="1032" height="420"/></clipPath><clipPath class="axesclip" id="clip62a415x"><rect x="88" y="0" width="1032" height="600"/></clipPath><clipPath class="axesclip" id="clip62a415y"><rect x="0" y="100" width="1200" height="420"/></clipPath><clipPath class="axesclip" id="clip62a415xy"><rect x="88" y="100" width="1032" height="420"/></clipPath></g><g class="gradients"/><g class="patterns"/></defs><g class="bglayer"/><g class="layer-below"><g class="imagelayer"/><g class="shapelayer"/></g><g class="cartesianlayer"><g class="subplot xy"><g class="layer-subplot"><g class="shapelayer"/><g class="imagelayer"/></g><g class="minor-gridlayer"><g class="x"/><g class="y"/></g><g class="gridlayer"><g class="x"><path class="xgrid crisp" transform="translate(297.73,0)" d="M0,100v420" style="stroke: rgb(200, 200, 200); stroke-opacity: 1; stroke-width: 1px;"/><path class="xgrid crisp" transform="translate(450.87,0)" d="M0,100v420" style="stroke: rgb(200, 200, 200); stroke-opacity: 1; stroke-width: 1px;"/><path class="xgrid crisp" transform="translate(604,0)" d="M0,100v420" style="stroke: rgb(200, 200, 200); stroke-opacity: 1; stroke-width: 1px;"/><path class="xgrid crisp" transform="translate(757.13,0)" d="M0,100v420" style="stroke: rgb(200, 200, 200); stroke-opacity: 1; stroke-width: 1px;"/><path class="xgrid crisp" transform="translate(910.27,0)" d="M0,100v420" style="stroke: rgb(200, 200, 200); stroke-opacity: 1; stroke-width: 1px;"/><path class="xgrid crisp" transform="translate(1063.4,0)" d="M0,100v420" style="stroke: rgb(200, 200, 200); stroke-opacity: 1; stroke-width: 1px;"/></g><g class="y"><path class="ygrid crisp" transform="translate(0,399.83)" d="M88,0h1032" style="stroke: rgb(200, 200, 200); stroke-opacity: 1; stroke-width: 1px;"/><path class="ygrid crisp" transform="translate(0,338.57)" d="M88,0h1032" style="stroke: rgb(200, 200, 200); stroke-opacity: 1; stroke-width: 1px;"/><path class="ygrid crisp" transform="translate(0,277.32)" d="M88,0h1032" style="stroke: rgb(200, 200, 200); stroke-opacity: 1; stroke-width: 1px;"/><path class="ygrid crisp" transform="translate(0,216.07)" d="M88,0h1032" style="stroke: rgb(200, 200, 200); stroke-opacity: 1; stroke-width: 1px;"/><path class="ygrid crisp" transform="translate(0,154.81)" d="M88,0h1032" style="stroke: rgb(200, 200, 200); stroke-opacity: 1; stroke-width: 1px;"/></g></g><g class="zerolinelayer"><path class="xzl zl crisp" transform="translate(144.6,0)" d="M0,100v420" style="stroke: rgb(200, 200, 200); stroke-opacity: 1; stroke-width: 2px;"/><path class="yzl zl crisp" transform="translate(0,461.08)" d="M88,0h1032" style="stroke: rgb(200, 200, 200); stroke-opacity: 1; stroke-width: 2px;"/></g><g class="layer-between"><g class="shapelayer"/><g class="imagelayer"/></g><path class="xlines-below"/><path class="ylines-below"/><g class="overlines-below"/><g class="xaxislayer-below"/><g class="yaxislayer-below"/><g class="overaxes-below"/><g class="overplot"><g class="xy" transform="translate(88,100)" clip-path="url(#clip62a415xyplot)"><g class="scatterlayer mlayer"><g class="trace scatter tracebaa476" style="stroke-miterlimit: 2; opacity: 1;"><g class="fills"/><g class="errorbars"/><g class="lines"><path class="js-line" d="M56.6,361.08L975.4,361.08" style="vector-effect: none; fill: none; stroke: rgb(0, 0, 0); stroke-opacity: 1; stroke-width: 2px; opacity: 1;"/></g><g class="points"/><g class="text"/></g><g class="trace scatter traceb1fdfb" style="stroke-miterlimit: 2; opacity: 1;"><g class="fills"/><g class="errorbars"/><g class="lines"/><g class="points"><path class="point" transform="translate(56.6,361.08)" d="M4,0A4,4 0 1,1 0,-4A4,4 0 0,1 4,0Z" style="opacity: 1; stroke-width: 0px; fill: rgb(0, 0, 0); fill-opacity: 1;"/><path class="point" transform="translate(975.4,361.08)" d="M4,0A4,4 0 1,1 0,-4A4,4 0 0,1 4,0Z" style="opacity: 1; stroke-width: 0px; fill: rgb(0, 0, 0); fill-opacity: 1;"/></g><g class="text"/></g><g class="trace scatter tracea39820" style="stroke-miterlimit: 2; opacity: 1;"><g class="fills"/><g class="errorbars"/><g class="lines"><path class="js-line" d="M56.6,54.81L154.93,87.01L158.01,87.99L259.41,119.93L262.48,120.88L376.18,155.17L379.26,156.07L499.1,190.47L502.17,191.33L609.72,220.69L612.8,221.51L741.86,254.84L744.93,255.61L849.41,281.08L852.48,281.81L963.11,307.3L966.18,307.98L975.4,310.04" style="vector-effect: none; fill: none; stroke: rgb(11, 102, 164); stroke-opacity: 1; stroke-width: 2px; opacity: 1;"/></g><g class="points"/><g class="text"/></g><g class="trace scatter trace70ebb4" style="stroke-miterlimit: 2; opacity: 1;"><g class="fills"/><g class="errorbars"/><g class="lines"><path class="js-line" d="M56.6,54.81L111.91,84.8L114.99,86.43L179.52,119.45L182.59,120.97L237.9,147.59L240.97,149.02L302.43,176.77L305.51,178.11L360.82,201.44L363.89,202.69L419.2,224.46L422.28,225.63L480.66,246.91L483.73,247.98L542.12,267.53L545.19,268.52L603.58,286.33L606.65,287.22L661.96,302.49L665.04,303.3L720.35,317.01L723.42,317.73L781.81,330.51L784.88,331.13L843.26,342.18L846.34,342.71L901.65,351.57L904.72,352.02L963.11,359.68L966.18,360.04L975.4,361.08" style="vector-effect: none; fill: none; stroke: rgb(10, 119, 175); stroke-opacity: 1; stroke-width: 2px; opacity: 1;"/></g><g class="points"/><g class="text"/></g><g class="trace scatter trace9dff64" style="stroke-miterlimit: 2; opacity: 1;"><g class="fills"/><g class="errorbars"/><g class="lines"><path class="js-line" d="M56.6,54.81L96.55,87.24L99.62,89.66L142.64,122.49L145.71,124.75L188.74,155.43L191.81,157.54L231.76,184.08L234.83,186.05L274.78,210.72L277.85,212.55L314.72,233.66L317.8,235.35L357.75,256.42L360.82,257.97L397.69,275.58L400.77,276.96L434.57,291.35L437.64,292.58L474.52,306.34L477.59,307.4L511.39,318.25L514.46,319.16L551.34,329.06L554.41,329.81L588.21,337.12L591.29,337.71L625.09,343.33L628.16,343.76L661.96,347.69L665.04,347.97L735.71,353.26L738.79,353.46L809.46,357.33L812.54,357.47L880.14,359.85L883.21,359.92L953.89,361.02L956.96,361.03L975.4,361.08" style="vector-effect: none; fill: none; stroke: rgb(10, 136, 186); stroke-opacity: 1; stroke-width: 2px; opacity: 1;"/></g><g class="points"/><g class="text"/></g><g class="trace scatter trace58796b" style="stroke-miterlimit: 2; opacity: 1;"><g class="fills"/><g class="errorbars"/><g class="lines"><path class="js-line" d="M56.6,54.81L90.4,91.27L93.47,94.47L127.28,128.51L130.35,131.5L164.15,163.13L167.22,165.89L201.03,195.11L204.1,197.65L234.83,222.11L237.9,224.46L268.63,246.91L271.7,249.05L302.43,269.43L305.51,271.35L333.16,287.58L336.23,289.27L363.89,303.44L366.96,304.9L394.62,317.02L397.69,318.25L422.28,327.28L425.35,328.31L449.93,335.7L453.01,336.52L477.59,342.27L480.66,342.88L505.24,346.98L508.32,347.39L545.19,351.36L548.27,351.65L603.58,356.2L606.65,356.4L658.89,359.26L661.96,359.38L714.2,360.84L717.28,360.89L787.95,361.08L791.03,361.08L975.4,361.08" style="vector-effect: none; fill: none; stroke: rgb(56, 151, 160); stroke-opacity: 1; stroke-width: 2px; opacity: 1;"/></g><g class="points"/><g class="text"/></g><g class="trace scatter trace681d51" style="stroke-miterlimit: 2; opacity: 1;"><g class="fills"/><g class="errorbars"/><g class="lines"><path class="js-line" d="M56.6,54.81L84.26,92.07L87.33,96.07L114.99,130.75L118.06,134.46L145.71,166.58L148.79,170.01L176.44,199.55L179.52,202.69L207.17,229.67L210.25,232.53L237.9,256.93L240.97,259.5L262.48,276.5L265.56,278.79L287.07,293.79L290.14,295.79L311.65,308.8L314.72,310.51L336.23,321.52L339.31,322.95L360.82,331.96L363.89,333.1L385.4,340.11L388.47,340.97L409.98,345.98L413.06,346.55L437.64,350.13L440.71,350.52L486.81,355.54L489.88,355.82L535.97,359.13L539.05,359.29L582.07,360.83L585.14,360.89L655.82,361.08L658.89,361.08L975.4,361.08" style="vector-effect: none; fill: none; stroke: rgb(103, 166, 134); stroke-opacity: 1; stroke-width: 2px; opacity: 1;"/></g><g class="points"/><g class="text"/></g><g class="trace scatter trace557358" style="stroke-miterlimit: 2; opacity: 1;"><g class="fills"/><g class="errorbars"/><g class="lines"><path class="js-line" d="M56.6,54.81L81.18,94.47L84.26,99.24L108.84,135.94L111.91,140.34L136.5,174.08L139.57,178.11L164.15,208.89L167.22,212.55L191.81,240.37L194.88,243.66L216.39,265.53L219.46,268.46L237.9,285L240.97,287.58L259.41,301.95L262.48,304.17L280.92,316.39L283.99,318.25L302.43,328.31L305.51,329.81L323.94,337.71L327.02,338.85L345.45,344.59L348.53,345.37L366.96,348.99L370.04,349.49L406.91,354.6L409.98,354.96L446.86,358.48L449.93,358.71L489.88,360.71L492.95,360.79L535.97,361.08L539.05,361.08L975.4,361.08" style="vector-effect: none; fill: none; stroke: rgb(149, 181, 108); stroke-opacity: 1; stroke-width: 2px; opacity: 1;"/></g><g class="points"/><g class="text"/></g><g class="trace scatter tracea974b3" style="stroke-miterlimit: 2; opacity: 1;"><g class="fills"/><g class="errorbars"/><g class="lines"><path class="js-line" d="M56.6,54.81L76.44,92.03L79.31,97.18L102.46,136.82L105.38,141.58L126.05,173.74L129.03,178.16L150.08,207.93L153.12,212.02L174.56,239.41L177.65,243.16L196.29,264.5L199.4,267.82L218.1,286.38L221.23,289.24L236.86,302.52L239.99,304.97L255.67,316.24L258.81,318.29L274.53,327.54L277.68,329.19L293.44,336.42L296.6,337.67L312.41,342.89L315.57,343.73L344,350.1L347.15,350.71L375.38,355.45L378.51,355.88L406.55,358.99L409.66,359.24L437.52,360.72L440.6,360.8L499.06,361.01L502.14,361.02L975.4,361.08" style="vector-effect: none; fill: none; stroke: rgb(196, 196, 82); stroke-opacity: 1; stroke-width: 2px; opacity: 1;"/></g><g class="points"/><g class="text"/></g><g class="trace scatter trace3e375e" style="stroke-miterlimit: 2; opacity: 1;"><g class="fills"/><g class="errorbars"/><g class="lines"><path class="js-line" d="M56.6,54.81L74.66,93.16L77.31,98.49L96.3,134.81L99.08,139.85L118.99,174.14L121.91,178.89L142.75,211.15L145.8,215.62L167.56,245.79L170.71,249.86L186.51,268.97L189.68,272.54L205.58,289.14L208.77,292.21L224.77,306.29L227.99,308.86L244.09,320.43L247.32,322.5L263.54,331.56L266.79,333.12L279.83,338.53L283.1,339.68L309.09,347.65L312.32,348.51L334.76,353.73L337.95,354.36L360.11,357.93L363.25,358.32L385.13,360.23L388.23,360.39L416.01,360.81L419.09,360.83L717.28,361.08L720.35,361.08L975.4,361.08" style="vector-effect: none; fill: none; stroke: rgb(242, 211, 56); stroke-opacity: 1; stroke-width: 2px; opacity: 1;"/></g><g class="points"/><g class="text"/></g><g class="trace scatter trace0cb08a" style="stroke-miterlimit: 2; opacity: 1;"><g class="fills"/><g class="errorbars"/><g class="lines"><path class="js-line" d="M56.6,54.81L73.23,94.13L75.72,99.65L93.85,137.53L96.55,142.84L113.3,174.17L116.18,179.3L134.05,209.55L137.13,214.51L156.04,243.39L159.23,247.91L175.27,269.01L178.49,272.92L194.69,290.96L197.95,294.27L211.03,306.46L214.32,309.25L227.51,319.41L230.82,321.7L244.13,329.82L247.47,331.6L264.21,339.15L267.54,340.49L287.35,347.64L290.63,348.68L310.1,354L313.32,354.74L332.45,358.23L335.61,358.66L354.4,360.33L357.51,360.45L403.76,360.9L406.84,360.91L548.27,361.08L551.34,361.08L975.4,361.08" style="vector-effect: none; fill: none; stroke: rgb(242, 197, 56); stroke-opacity: 1; stroke-width: 2px; opacity: 1;"/></g><g class="points"/><g class="text"/></g><g class="trace scatter traceb0e875" style="stroke-miterlimit: 2; opacity: 1;"><g class="fills"/><g class="errorbars"/><g class="lines"><path class="js-line" d="M56.6,54.81L69.74,89.21L72.05,94.88L86.62,128.61L89.16,134.18L105.15,167.24L107.94,172.69L125.35,205.09L128.37,210.43L143.87,236.44L147.02,241.34L162.94,264.13L166.16,268.35L179.16,284.09L182.44,287.74L195.69,301.22L199.04,304.3L212.54,315.51L215.94,318.03L229.69,326.97L233.15,328.93L253.76,339.29L257.16,340.81L277.3,348.65L280.62,349.75L297.03,354.33L300.29,355.07L316.37,357.85L319.55,358.23L335.31,359.27L338.44,359.38L394.48,360.81L397.57,360.85L471.44,361.07L474.51,361.07L975.4,361.08" style="vector-effect: none; fill: none; stroke: rgb(242, 184, 56); stroke-opacity: 1; stroke-width: 2px; opacity: 1;"/></g><g class="points"/><g class="text"/></g><g class="trace scatter trace6792ef" style="stroke-miterlimit: 2; opacity: 1;"><g class="fills"/><g class="errorbars"/><g class="lines"><path class="js-line" d="M56.6,54.81L68.83,89.55L70.99,95.28L84.68,129.4L87.08,135.03L102.21,168.53L104.85,174.06L121.43,206.94L124.31,212.34L139.15,237.72L142.2,242.48L154.7,260.43L157.89,264.65L170.95,280.46L174.28,284.15L187.91,297.82L191.39,300.97L205.58,312.49L209.2,315.11L227.26,326.87L230.83,328.99L248.48,338.4L251.97,340.04L269.2,347.09L272.6,348.26L289.41,352.95L292.73,353.65L309.13,356.05L312.38,356.4L344.52,359.22L347.69,359.43L382.19,360.81L385.28,360.85L483.73,361.08L486.81,361.08L975.4,361.08" style="vector-effect: none; fill: none; stroke: rgb(242, 170, 56); stroke-opacity: 1; stroke-width: 2px; opacity: 1;"/></g><g class="points"/><g class="text"/></g><g class="trace scatter trace0e943f" style="stroke-miterlimit: 2; opacity: 1;"><g class="fills"/><g class="errorbars"/><g class="lines"><path class="js-line" d="M56.6,54.81L68.04,89.82L70.07,95.61L82.98,130.04L85.25,135.73L99.62,169.59L102.14,175.18L118.01,208.29L120.79,213.57L132.4,233.76L135.41,238.56L147.92,256.82L151.16,261.15L164.56,277.49L168.03,281.33L182.34,295.75L186.02,299.12L201.09,311.61L204.84,314.48L223.33,327.35L226.98,329.63L241.41,337.74L244.97,339.51L259.06,345.62L262.54,346.9L276.3,351.02L279.7,351.8L303.1,355.92L306.4,356.4L332.36,359.36L335.55,359.62L360.66,360.76L363.75,360.79L523.68,361.08L526.76,361.08L975.4,361.08" style="vector-effect: none; fill: none; stroke: rgb(242, 157, 56); stroke-opacity: 1; stroke-width: 2px; opacity: 1;"/></g><g class="points"/><g class="text"/></g><g class="trace scatter trace476c8a" style="stroke-miterlimit: 2; opacity: 1;"><g class="fills"/><g class="errorbars"/><g class="lines"><path class="js-line" d="M56.6,54.81L67.34,90.05L69.25,95.87L81.48,130.57L83.64,136.31L97.34,170.47L99.75,176.11L112.43,203.86L115.15,209.2L126.62,229.74L129.65,234.67L142.37,253.61L145.7,258.14L159.67,275.48L163.31,279.61L178.52,295.34L182.44,299.05L201.73,315.75L205.53,318.72L220.53,329.37L224.23,331.73L238.84,339.91L242.44,341.65L256.66,347.37L260.16,348.49L280.81,353.69L284.19,354.41L307.4,358.36L310.65,358.77L329.79,360.39L332.92,360.52L366.9,360.93L369.98,360.95L505.24,361.08L508.32,361.08L975.4,361.08" style="vector-effect: none; fill: none; stroke: rgb(242, 143, 56); stroke-opacity: 1; stroke-width: 2px; opacity: 1;"/></g><g class="points"/><g class="text"/></g><g class="trace scatter trace3bb0dc" style="stroke-miterlimit: 2; opacity: 1;"><g class="fills"/><g class="errorbars"/><g class="lines"><path class="js-line" d="M56.6,54.81L66.72,90.23L68.54,96.09L80.15,131.01L82.21,136.79L95.31,171.2L97.62,176.9L107.5,199.24L110.17,204.67L121.65,225.83L124.71,230.97L137.79,250.93L141.26,255.77L155.93,274.54L159.8,279.09L175.8,296.44L179.78,300.43L195.48,314.93L199.35,318.18L214.6,329.7L218.35,332.2L233.15,340.73L236.79,342.49L251.14,348.08L254.67,349.23L275.4,354.96L278.77,355.73L298.57,359.13L301.8,359.51L317.58,360.55L320.67,360.61L413.06,361.08L416.13,361.08L975.4,361.08" style="vector-effect: none; fill: none; stroke: rgb(237, 120, 51); stroke-opacity: 1; stroke-width: 2px; opacity: 1;"/></g><g class="points"/><g class="text"/></g><g class="trace scatter trace89300f" style="stroke-miterlimit: 2; opacity: 1;"><g class="fills"/><g class="errorbars"/><g class="lines"><path class="js-line" d="M56.6,54.81L66.52,90.3L68.29,96.17L79.62,131.2L81.63,137L94.39,171.56L96.66,177.26L106.57,199.59L109.25,205.05L120.82,226.43L123.91,231.65L137.12,252.06L140.63,257.04L155.49,276.5L159.36,281.18L174.76,298.33L178.59,302.23L193.87,316.29L197.67,319.41L212.82,330.37L216.6,332.72L227.88,338.84L231.63,340.58L250,347.99L253.59,349.25L271.14,354.43L274.57,355.24L291.32,358.18L294.59,358.54L316.99,359.91L320.15,360.05L360.77,361.02L363.85,361.03L975.4,361.08" style="vector-effect: none; fill: none; stroke: rgb(232, 98, 46); stroke-opacity: 1; stroke-width: 2px; opacity: 1;"/></g><g class="points"/><g class="text"/></g><g class="trace scatter tracee1b249" style="stroke-miterlimit: 2; opacity: 1;"><g class="fills"/><g class="errorbars"/><g class="lines"><path class="js-line" d="M56.6,54.81L68.12,96.23L69.89,102.11L83.19,142.96L85.22,148.76L95.96,177.51L98.32,183.15L108.52,205.32L111.26,210.75L123.05,232.07L126.19,237.29L139.56,257.76L143.1,262.77L157.65,281.71L161.34,286.08L176.27,302.09L180.05,305.72L195.35,318.8L199.22,321.7L210.95,329.53L214.9,331.84L234.3,341.83L238.08,343.53L252.89,349.4L256.51,350.62L270.67,354.55L274.13,355.29L290.98,357.73L294.3,358.1L323.48,360.39L326.65,360.54L357.69,361L360.77,361.01L612.8,361.08L615.87,361.08L975.4,361.08" style="vector-effect: none; fill: none; stroke: rgb(227, 75, 40); stroke-opacity: 1; stroke-width: 2px; opacity: 1;"/></g><g class="points"/><g class="text"/></g><g class="trace scatter trace6a7e67" style="stroke-miterlimit: 2; opacity: 1;"><g class="fills"/><g class="errorbars"/><g class="lines"><path class="js-line" d="M56.6,54.81L67.88,96.3L69.62,102.19L82.6,143.16L84.57,148.98L95.17,177.76L97.51,183.41L107.62,205.63L110.34,211.09L121.97,232.56L125.07,237.83L138.22,258.51L141.66,263.46L155.85,281.97L159.51,286.27L174.58,302.13L178.46,305.76L190.35,315.87L194.41,318.97L210.85,330.09L214.9,332.57L230.72,341.25L234.58,343.12L249.65,349.38L253.32,350.64L267.62,354.48L271.11,355.15L294.87,358.8L298.17,359.17L320.66,360.75L323.78,360.83L400.77,361.08L403.84,361.08L975.4,361.08" style="vector-effect: none; fill: none; stroke: rgb(222, 53, 35); stroke-opacity: 1; stroke-width: 2px; opacity: 1;"/></g><g class="points"/><g class="text"/></g><g class="trace scatter tracedf10af" style="stroke-miterlimit: 2; opacity: 1;"><g class="fills"/><g class="errorbars"/><g class="lines"><path class="js-line" d="M56.6,54.81L67.61,96.38L69.3,102.28L81.94,143.37L83.86,149.21L92.09,172.32L94.33,178.02L104.02,200.45L106.63,205.98L117.8,227.73L120.78,233.09L133.42,254.03L136.76,259.04L150.79,277.93L154.48,282.37L165.94,295.03L169.9,299.02L186.44,313.87L190.75,317.3L207.7,329.6L211.82,332.3L227.9,341.64L231.81,343.6L247.02,349.98L250.72,351.21L265.1,354.94L268.61,355.71L289.05,359.2L292.34,359.59L311.48,360.79L314.57,360.82L391.55,361.08L394.62,361.08L975.4,361.08" style="vector-effect: none; fill: none; stroke: rgb(217, 30, 30); stroke-opacity: 1; stroke-width: 2px; opacity: 1;"/></g><g class="points"/><g class="text"/></g></g></g></g><path class="xlines-above crisp" d="M0,0" style="fill: none;"/><path class="ylines-above crisp" d="M0,0" style="fill: none;"/><g class="overlines-above"/><g class="xaxislayer-above"><g class="xtick"><text text-anchor="middle" x="0" y="545" transform="translate(144.6,0)" style="font-family: 'Open Sans', verdana, arial, sans-serif; font-size: 24px; fill: rgb(0, 0, 0); fill-opacity: 1; white-space: pre; opacity: 1;">0</text></g><g class="xtick"><text text-anchor="middle" x="0" y="545" style="font-family: 'Open Sans', verdana, arial, sans-serif; font-size: 24px; fill: rgb(0, 0, 0); fill-opacity: 1; white-space: pre; opacity: 1;" transform="translate(297.73,0)">0.5</text></g><g class="xtick"><text text-anchor="middle" x="0" y="545" style="font-family: 'Open Sans', verdana, arial, sans-serif; font-size: 24px; fill: rgb(0, 0, 0); fill-opacity: 1; white-space: pre; opacity: 1;" transform="translate(450.87,0)">1</text></g><g class="xtick"><text text-anchor="middle" x="0" y="545" style="font-family: 'Open Sans', verdana, arial, sans-serif; font-size: 24px; fill: rgb(0, 0, 0); fill-opacity: 1; white-space: pre; opacity: 1;" transform="translate(604,0)">1.5</text></g><g class="xtick"><text text-anchor="middle" x="0" y="545" style="font-family: 'Open Sans', verdana, arial, sans-serif; font-size: 24px; fill: rgb(0, 0, 0); fill-opacity: 1; white-space: pre; opacity: 1;" transform="translate(757.13,0)">2</text></g><g class="xtick"><text text-anchor="middle" x="0" y="545" style="font-family: 'Open Sans', verdana, arial, sans-serif; font-size: 24px; fill: rgb(0, 0, 0); fill-opacity: 1; white-space: pre; opacity: 1;" transform="translate(910.27,0)">2.5</text></g><g class="xtick"><text text-anchor="middle" x="0" y="545" style="font-family: 'Open Sans', verdana, arial, sans-serif; font-size: 24px; fill: rgb(0, 0, 0); fill-opacity: 1; white-space: pre; opacity: 1;" transform="translate(1063.4,0)">3</text></g></g><g class="yaxislayer-above"><g class="ytick"><text text-anchor="end" x="87" y="8.399999999999999" transform="translate(0,461.08)" style="font-family: 'Open Sans', verdana, arial, sans-serif; font-size: 24px; fill: rgb(0, 0, 0); fill-opacity: 1; white-space: pre; opacity: 1;">0</text></g><g class="ytick"><text text-anchor="end" x="87" y="8.399999999999999" style="font-family: 'Open Sans', verdana, arial, sans-serif; font-size: 24px; fill: rgb(0, 0, 0); fill-opacity: 1; white-space: pre; opacity: 1;" transform="translate(0,399.83)">0.2</text></g><g class="ytick"><text text-anchor="end" x="87" y="8.399999999999999" style="font-family: 'Open Sans', verdana, arial, sans-serif; font-size: 24px; fill: rgb(0, 0, 0); fill-opacity: 1; white-space: pre; opacity: 1;" transform="translate(0,338.57)">0.4</text></g><g class="ytick"><text text-anchor="end" x="87" y="8.399999999999999" style="font-family: 'Open Sans', verdana, arial, sans-serif; font-size: 24px; fill: rgb(0, 0, 0); fill-opacity: 1; white-space: pre; opacity: 1;" transform="translate(0,277.32)">0.6</text></g><g class="ytick"><text text-anchor="end" x="87" y="8.399999999999999" style="font-family: 'Open Sans', verdana, arial, sans-serif; font-size: 24px; fill: rgb(0, 0, 0); fill-opacity: 1; white-space: pre; opacity: 1;" transform="translate(0,216.07)">0.8</text></g><g class="ytick"><text text-anchor="end" x="87" y="8.399999999999999" style="font-family: 'Open Sans', verdana, arial, sans-serif; font-size: 24px; fill: rgb(0, 0, 0); fill-opacity: 1; white-space: pre; opacity: 1;" transform="translate(0,154.81)">1</text></g></g><g class="overaxes-above"/></g></g><g class="polarlayer"/><g class="smithlayer"/><g class="ternarylayer"/><g class="geolayer"/><g class="funnelarealayer"/><g class="pielayer"/><g class="iciclelayer"/><g class="treemaplayer"/><g class="sunburstlayer"/><g class="glimages"/><defs id="topdefs-62a415"><g class="clips"/><clipPath id="legend62a415"><rect width="165" height="184" x="2" y="2"/></clipPath></defs><g class="layer-above"><g class="imagelayer"/><g class="shapelayer"/></g><g class="infolayer"><g class="legend" pointer-events="all" transform="translate(940.6799999999998,91.6)"><rect class="bg" shape-rendering="crispEdges" style="stroke: rgb(0, 0, 0); stroke-opacity: 1; fill: rgb(255, 255, 255); fill-opacity: 1; stroke-width: 2px;" width="167" height="186" x="1" y="1"/><g class="scrollbox" transform="" clip-path="url(#legend62a415)"><g class="groups" transform=""><g class="traces" transform="translate(2,25.400000000000002)" style="opacity: 1;"><text class="legendtext" text-anchor="start" x="5" y="10.14" style="font-family: 'Open Sans', verdana, arial, sans-serif; font-size: 26px; fill: rgb(0, 0, 0); fill-opacity: 1; white-space: pre;">Trajectory</text><g class="layers"><g class="legendfill"/><g class="legendlines"/><g class="legendsymbols"><g class="legendpoints"/></g></g><rect class="legendtoggle" x="0" y="-18.400000000000002" width="159.671875" height="36.800000000000004" style="fill: rgb(0, 0, 0); fill-opacity: 0;"/></g><g class="traces" transform="translate(2,60.900000000000006)" style="opacity: 1;"><text class="legendtext" text-anchor="start" x="40" y="9.360000000000001" style="font-family: 'Open Sans', verdana, arial, sans-serif; font-size: 24px; fill: rgb(0, 0, 0); fill-opacity: 1; white-space: pre;">Reference</text><g class="layers" style="opacity: 1;"><g class="legendfill"/><g class="legendlines"><path class="js-line" d="M5,0h30" style="fill: none; stroke: rgb(0, 0, 0); stroke-opacity: 1; stroke-width: 2px;"/></g><g class="legendsymbols"><g class="legendpoints"/></g></g><rect class="legendtoggle" x="0" y="-17.1" width="159.671875" height="34.2" style="fill: rgb(0, 0, 0); fill-opacity: 0;"/></g><g class="traces" transform="translate(2,95.1)" style="opacity: 1;"><text class="legendtext" text-anchor="start" x="40" y="9.360000000000001" style="font-family: 'Open Sans', verdana, arial, sans-serif; font-size: 24px; fill: rgb(0, 0, 0); fill-opacity: 1; white-space: pre;">N = 3</text><g class="layers" style="opacity: 1;"><g class="legendfill"/><g class="legendlines"><path class="js-line" d="M5,0h30" style="fill: none; stroke: rgb(11, 102, 164); stroke-opacity: 1; stroke-width: 2px;"/></g><g class="legendsymbols"><g class="legendpoints"/></g></g><rect class="legendtoggle" x="0" y="-17.1" width="159.671875" height="34.2" style="fill: rgb(0, 0, 0); fill-opacity: 0;"/></g><g class="traces" transform="translate(2,129.3)" style="opacity: 1;"><text class="legendtext" text-anchor="start" x="40" y="9.360000000000001" style="font-family: 'Open Sans', verdana, arial, sans-serif; font-size: 24px; fill: rgb(0, 0, 0); fill-opacity: 1; white-space: pre;">N = 10</text><g class="layers" style="opacity: 1;"><g class="legendfill"/><g class="legendlines"><path class="js-line" d="M5,0h30" style="fill: none; stroke: rgb(242, 211, 56); stroke-opacity: 1; stroke-width: 2px;"/></g><g class="legendsymbols"><g class="legendpoints"/></g></g><rect class="legendtoggle" x="0" y="-17.1" width="159.671875" height="34.2" style="fill: rgb(0, 0, 0); fill-opacity: 0;"/></g><g class="traces" transform="translate(2,163.5)" style="opacity: 1;"><text class="legendtext" text-anchor="start" x="40" y="9.360000000000001" style="font-family: 'Open Sans', verdana, arial, sans-serif; font-size: 24px; fill: rgb(0, 0, 0); fill-opacity: 1; white-space: pre;">N = 20</text><g class="layers" style="opacity: 1;"><g class="legendfill"/><g class="legendlines"><path class="js-line" d="M5,0h30" style="fill: none; stroke: rgb(217, 30, 30); stroke-opacity: 1; stroke-width: 2px;"/></g><g class="legendsymbols"><g class="legendpoints"/></g></g><rect class="legendtoggle" x="0" y="-17.1" width="159.671875" height="34.2" style="fill: rgb(0, 0, 0); fill-opacity: 0;"/></g></g></g><rect class="scrollbar" rx="20" ry="3" width="0" height="0" style="fill: rgb(128, 139, 164); fill-opacity: 1;" x="0" y="0"/></g><g class="g-gtitle"/><g class="g-xtitle"><text class="xtitle" x="604" y="584.8" text-anchor="middle" style="opacity: 1; font-family: 'Open Sans', verdana, arial, sans-serif; font-size: 29px; fill: rgb(0, 0, 0); fill-opacity: 1; white-space: pre;">East [m]</text></g><g class="g-ytitle" transform="translate(5.900390625,0)"><text class="ytitle" transform="rotate(-90,23.099999999999994,310)" x="23.099999999999994" y="310" text-anchor="middle" style="opacity: 1; font-family: 'Open Sans', verdana, arial, sans-serif; font-size: 29px; fill: rgb(0, 0, 0); fill-opacity: 1; white-space: pre;">North [m]</text></g></g></svg>