<svg class="main-svg" xmlns="http://www.w3.org/2000/svg" xmlns:xlink="http://www.w3.org/1999/xlink" width="1200" height="600" style="" viewBox="0 0 1200 600"><rect x="0" y="0" width="1200" height="600" style="fill: rgb(255, 255, 255); fill-opacity: 1;"/><defs id="defs-1a609b"><g class="clips"><clipPath id="clip1a609bxyplot" class="plotclip"><rect width="1032" height="420"/></clipPath><clipPath class="axesclip" id="clip1a609bx"><rect x="88" y="0" width="1032" height="600"/></clipPath><clipPath class="axesclip" id="clip1a609by"><rect x="0" y="100" width="1200" height="420"/></clipPath><clipPath class="axesclip" id="clip1a609bxy"><rect x="88" y="100" width="1032" height="420"/></clipPath></g><g class="gradients"/><g class="patterns"/></defs><g class="bglayer"/><g class="layer-below"><g class="imagelayer"/><g class="shapelayer"/></g><g class="cartesianlayer"><g class="subplot xy"><g class="layer-subplot"><g class="shapelayer"/><g class="imagelayer"/></g><g class="minor-gridlayer"><g class="x"/><g class="y"/></g><g class="gridlayer"><g class="x"><path class="xgrid crisp" transform="translate(297.73,0)" d="M0,100v420" style="stroke: rgb(200, 200, 200); stroke-opacity: 1; stroke-width: 1px;"/><path class="xgrid crisp" transform="translate(450.87,0)" d="M0,100v420" style="stroke: rgb(200, 200, 200); stroke-opacity: 1; stroke-width: 1px;"/><path class="xgrid crisp" transform="translate(604,0)" d="M0,100v420" style="stroke: rgb(200, 200, 200); stroke-opacity: 1; stroke-width: 1px;"/><path class="xgrid crisp" transform="translate(757.13,0)" d="M0,100v420" style="stroke: rgb(200, 200, 200); stroke-opacity: 1; stroke-width: 1px;"/><path class="xgrid crisp" transform="translate(910.27,0)" d="M0,100v420" style="stroke: rgb(200, 200, 200); stroke-opacity: 1; stroke-width: 1px;"/><path class="xgrid crisp" transform="translate(1063.4,0)" d="M0,100v420" style="stroke: rgb(200, 200, 200); stroke-opacity: 1; stroke-width: 1px;"/></g><g class="y"><path class="ygrid crisp" transform="translate(0,399.83)" d="M88,0h1032" style="stroke: rgb(200, 200, 200); stroke-opacity: 1; stroke-width: 1px;"/><path class="ygrid crisp" transform="translate(0,338.57)" d="M88,0h1032" style="stroke: rgb(200, 200, 200); stroke-opacity: 1; stroke-width: 1px;"/><path class="ygrid crisp" transform="translate(0,277.32)" d="M88,0h1032" style="stroke: rgb(200, 200, 200); stroke-opacity: 1; stroke-width: 1px;"/><path class="ygrid crisp" transform="translate(0,216.07)" d="M88,0h1032" style="stroke: rgb(200, 200, 200); stroke-opacity: 1; stroke-width: 1px;"/><path class="ygrid crisp" transform="translate(0,154.81)" d="M88,0h1032" style="stroke: rgb(200, 200, 200); stroke-opacity: 1; stroke-width: 1px;"/></g></g><g class="zerolinelayer"><path class="xzl zl crisp" transform="translate(144.6,0)" d="M0,100v420" style="stroke: rgb(200, 200, 200); stroke-opacity: 1; stroke-width: 2px;"/><path class="yzl zl crisp" transform="translate(0,461.08)" d="M88,0h1032" style="stroke: rgb(200, 200, 200); stroke-opacity: 1; stroke-width: 2px;"/></g><g class="layer-between"><g class="shapelayer"/><g class="imagelayer"/></g><path class="xlines-below"/><path class="ylines-below"/><g class="overlines-below"/><g class="xaxislayer-below"/><g class="yaxislayer-below"/><g class="overaxes-below"/><g class="overplot"><g class="xy" transform="translate(88,100)" clip-path="url(#clip1a609bxyplot)"><g class="scatterlayer mlayer"><g class="trace scatter trace25c478" style="stroke-miterlimit: 2; opacity: 1;"><g class="fills"/><g class="errorbars"/><g class="lines"><path class="js-line" d="M56.6,361.08L975.4,361.08" style="vector-effect: none; fill: none; stroke: rgb(0, 0, 0); stroke-opacity: 1; stroke-width: 2px; opacity: 1;"/></g><g class="points"/><g class="text"/></g><g class="trace scatter trace062a79" style="stroke-miterlimit: 2; opacity: 1;"><g class="fills"/><g class="errorbars"/><g class="lines"/><g class="points"><path class="point" transform="translate(56.6,361.08)" d="M4,0A4,4 0 1,1 0,-4A4,4 0 0,1 4,0Z" style="opacity: 1; stroke-width: 0px; fill: rgb(0, 0, 0); fill-opacity: 1;"/><path class="point" transform="translate(975.4,361.08)" d="M4,0A4,4 0 1,1 0,-4A4,4 0 0,1 4,0Z" style="opacity: 1; stroke-width: 0px; fill: rgb(0, 0, 0); fill-opacity: 1;"/></g><g class="text"/></g><g class="trace scatter tracefa1c18" style="stroke-miterlimit: 2; opacity: 1;"><g class="fills"/><g class="errorbars"/><g class="lines"><path class="js-line" d="M56.6,54.81L114.99,83.27L118.06,84.73L182.59,114.39L185.66,115.76L247.12,142.31L250.19,143.6L317.8,170.91L320.87,172.11L385.4,196.38L388.47,197.5L453.01,220.04L456.08,221.07L517.54,240.97L520.61,241.92L578.99,259.42L582.07,260.31L646.6,278.1L649.67,278.9L711.13,294.36L714.2,295.1L784.88,311.13L787.95,311.78L849.41,324.24L852.48,324.83L926.23,338L929.31,338.5L975.4,345.77" style="vector-effect: none; fill: none; stroke: rgb(10, 119, 175); stroke-opacity: 1; stroke-width: 2px; opacity: 1;"/></g><g class="points"/><g class="text"/></g><g class="trace scatter trace35463b" style="stroke-miterlimit: 2; opacity: 1;"><g class="fills"/><g class="errorbars"/><g class="lines"><path class="js-line" d="M56.6,54.81L93.47,82.55L96.55,84.78L133.42,110.73L136.5,112.82L176.44,138.98L179.52,140.91L216.39,163.32L219.46,165.12L262.48,189.23L265.56,190.87L305.51,211.38L308.58,212.89L348.53,231.65L351.6,233.03L391.55,250.12L394.62,251.38L437.64,267.99L440.71,269.12L486.81,284.98L489.88,285.97L535.97,299.92L539.05,300.78L578.99,311.4L582.07,312.17L628.16,322.82L631.23,323.48L677.33,332.52L680.4,333.08L732.64,341.53L735.71,341.97L784.88,348.31L787.95,348.66L837.12,353.56L840.19,353.83L895.5,357.79L898.58,357.96L950.82,360.35L953.89,360.45L975.4,361.08" style="vector-effect: none; fill: none; stroke: rgb(10, 136, 186); stroke-opacity: 1; stroke-width: 2px; opacity: 1;"/></g><g class="points"/><g class="text"/></g><g class="trace scatter trace231223" style="stroke-miterlimit: 2; opacity: 1;"><g class="fills"/><g class="errorbars"/><g class="lines"><path class="js-line" d="M56.6,54.81L84.26,85.88L87.33,89.2L114.99,117.91L118.06,120.98L145.71,147.41L148.79,150.22L176.44,174.44L179.52,177.02L207.17,199.11L210.25,201.45L237.9,221.49L240.97,223.61L271.7,243.57L274.78,245.44L302.43,261.41L305.51,263.09L333.16,277.24L336.23,278.71L366.96,292.4L370.04,293.66L397.69,304.25L400.77,305.34L431.49,315.34L434.57,316.26L465.3,324.6L468.37,325.36L502.17,332.84L505.24,333.44L542.12,339.87L545.19,340.34L585.14,345.63L588.21,345.98L637.38,350.68L640.45,350.92L701.91,355L704.98,355.17L781.81,358.48L784.88,358.58L877.07,360.55L880.14,360.58L975.4,361.08" style="vector-effect: none; fill: none; stroke: rgb(56, 151, 160); stroke-opacity: 1; stroke-width: 2px; opacity: 1;"/></g><g class="points"/><g class="text"/></g><g class="trace scatter trace540c41" style="stroke-miterlimit: 2; opacity: 1;"><g class="fills"/><g class="errorbars"/><g class="lines"><path class="js-line" d="M56.6,54.81L81.18,91.4L84.26,95.76L105.77,125.02L108.84,129.02L130.35,155.77L133.42,159.42L158.01,187.07L161.08,190.34L182.59,212.07L185.66,215.01L207.17,234.52L210.25,237.15L231.76,254.52L234.83,256.86L256.34,272.18L259.41,274.23L280.92,287.6L284,289.37L305.51,300.88L308.58,302.4L333.16,313.47L336.23,314.72L360.82,323.82L363.89,324.84L388.47,332.2L391.55,333.02L419.2,339.51L422.28,340.14L453.01,345.55L456.08,346.01L492.95,350.6L496.03,350.92L539.05,354.6L542.12,354.82L597.43,357.87L600.5,358L665.04,359.82L668.11,359.87L744.93,360.65L748,360.67L975.4,361.08" style="vector-effect: none; fill: none; stroke: rgb(103, 166, 134); stroke-opacity: 1; stroke-width: 2px; opacity: 1;"/></g><g class="points"/><g class="text"/></g><g class="trace scatter trace1fe1e3" style="stroke-miterlimit: 2; opacity: 1;"><g class="fills"/><g class="errorbars"/><g class="lines"><path class="js-line" d="M56.6,54.81L73.67,86.55L76.55,91.64L93.96,121.01L96.89,125.7L114.6,152.72L117.58,157.03L135.55,181.74L138.57,185.67L156.76,208.1L159.81,211.65L178.18,231.85L181.25,235.03L199.76,253.01L202.85,255.82L221.45,271.63L224.56,274.09L243.21,287.75L246.32,289.86L265,301.48L268.12,303.26L286.82,313.04L289.93,314.52L311.76,323.87L314.88,325.06L336.72,332.5L339.83,333.44L364.78,339.99L367.9,340.69L395.95,346.13L399.06,346.64L433.28,351.36L436.38,351.72L476.72,355.53L479.82,355.76L523.15,358.25L526.24,358.38L578.73,359.88L581.81,359.94L689.59,360.94L692.66,360.95L963.11,361.08L966.18,361.08L975.4,361.08" style="vector-effect: none; fill: none; stroke: rgb(149, 181, 108); stroke-opacity: 1; stroke-width: 2px; opacity: 1;"/></g><g class="points"/><g class="text"/></g><g class="trace scatter traceac0b8b" style="stroke-miterlimit: 2; opacity: 1;"><g class="fills"/><g class="errorbars"/><g class="lines"><path class="js-line" d="M56.6,54.81L71.65,87.88L74.25,93.23L90.31,124.33L93.07,129.33L110.01,158.29L112.89,162.93L130.55,189.61L133.54,193.85L151.76,218.08L154.84,221.91L173.47,243.54L176.6,246.92L195.5,265.8L198.66,268.71L214.51,282.22L217.68,284.72L236.76,298.4L239.94,300.47L259.06,311.72L262.25,313.41L281.39,322.54L284.58,323.9L303.72,331.2L306.91,332.28L329.2,338.91L332.38,339.74L357.77,345.44L360.94,346.06L392.49,351.25L395.64,351.68L430.13,355.49L433.25,355.76L470.66,358.21L473.76,358.36L526.45,360.04L529.54,360.1L612.77,361L615.85,361.01L864.78,361.08L867.85,361.08L975.4,361.08" style="vector-effect: none; fill: none; stroke: rgb(196, 196, 82); stroke-opacity: 1; stroke-width: 2px; opacity: 1;"/></g><g class="points"/><g class="text"/></g><g class="trace scatter trace4c5b84" style="stroke-miterlimit: 2; opacity: 1;"><g class="fills"/><g class="errorbars"/><g class="lines"><path class="js-line" d="M56.6,54.81L67.8,83.38L70.17,89.02L85.22,122.19L87.86,127.59L104.36,159.07L107.21,164.15L121.86,188.72L124.86,193.45L140.14,216.14L143.25,220.47L158.98,240.97L162.15,244.83L178.15,262.84L181.36,266.17L197.47,281.5L200.69,284.31L216.87,297.18L220.11,299.53L236.33,310.21L239.57,312.14L259.04,322.48L262.29,324L281.73,332.09L284.96,333.27L304.33,339.55L307.55,340.47L333.18,346.8L336.37,347.47L364.94,352.46L368.1,352.91L396.42,356.15L399.56,356.43L437.02,358.84L440.14,358.98L489.71,360.47L492.8,360.53L569.77,361.06L572.84,361.07L975.4,361.08" style="vector-effect: none; fill: none; stroke: rgb(242, 211, 56); stroke-opacity: 1; stroke-width: 2px; opacity: 1;"/></g><g class="points"/><g class="text"/></g><g class="trace scatter tracefa6b98" style="stroke-miterlimit: 2; opacity: 1;"><g class="fills"/><g class="errorbars"/><g class="lines"><path class="js-line" d="M56.6,54.81L63.5,78.39L65.41,84.21L75.91,112.84L78.19,118.45L90.43,145.78L93.03,151.09L106.7,176.75L109.56,181.69L124.33,205.28L127.37,209.76L142.93,230.9L146.1,234.86L162.14,253.17L165.38,256.54L181.7,272.02L184.99,274.85L201.53,287.82L204.85,290.18L221.53,300.98L224.88,302.95L241.63,311.92L244.99,313.56L265.1,322.42L268.45,323.76L291.78,332.21L295.1,333.3L321.51,341.03L324.79,341.88L350.91,347.81L354.15,348.45L383.15,353.27L386.35,353.71L418.09,357.17L421.24,357.43L455.64,359.5L458.74,359.62L508.21,360.68L511.29,360.71L625.09,361.08L628.16,361.08L975.4,361.08" style="vector-effect: none; fill: none; stroke: rgb(242, 197, 56); stroke-opacity: 1; stroke-width: 2px; opacity: 1;"/></g><g class="points"/><g class="text"/></g><g class="trace scatter traceb1ce1b" style="stroke-miterlimit: 2; opacity: 1;"><g class="fills"/><g class="errorbars"/><g class="lines"><path class="js-line" d="M56.6,54.81L61.17,78.96L62.61,84.92L69.45,108.44L71.42,114.22L80.2,136.85L82.61,142.37L92.98,163.83L95.74,169.03L107.37,189.06L110.4,193.87L122.93,212.19L126.15,216.54L139.25,232.89L142.57,236.72L159.36,254.31L162.75,257.54L179.86,272.37L183.3,275.09L200.6,287.59L204.08,289.88L224.93,302.4L228.4,304.3L252.59,316.43L256.02,318.02L283.22,329.61L286.59,330.91L309.97,339.19L313.29,340.25L339.53,347.61L342.78,348.39L365.32,353.02L368.52,353.57L393.84,356.97L396.98,357.29L425.05,359.33L428.15,359.48L468.29,360.56L471.37,360.61L563.63,361.08L566.7,361.08L975.4,361.08" style="vector-effect: none; fill: none; stroke: rgb(242, 184, 56); stroke-opacity: 1; stroke-width: 2px; opacity: 1;"/></g><g class="points"/><g class="text"/></g><g class="trace scatter trace241c17" style="stroke-miterlimit: 2; opacity: 1;"><g class="fills"/><g class="errorbars"/><g class="lines"><path class="js-line" d="M56.6,54.81L59.11,73.07L60.22,79.12L64.35,97.06L65.98,102.97L73.59,126.16L75.76,131.82L85.33,153.89L87.93,159.24L99.04,179.85L101.97,184.79L114.2,203.63L117.37,208.08L130.31,224.82L133.61,228.73L147.01,243.35L150.41,246.76L164.16,259.54L167.64,262.53L185.16,276.36L188.69,278.93L209.96,293.16L213.51,295.37L241.78,311.71L245.29,313.61L273.12,327.54L276.57,329.11L300.44,339.05L303.81,340.3L323.83,346.91L327.13,347.85L346.68,352.56L349.9,353.19L372.2,356.65L375.36,357.01L400.4,359.08L403.5,359.25L440.63,360.48L443.71,360.54L508.34,361.05L511.42,361.05L747.95,361.08L751.02,361.08L975.41,361.08" style="vector-effect: none; fill: none; stroke: rgb(242, 170, 56); stroke-opacity: 1; stroke-width: 2px; opacity: 1;"/></g><g class="points"/><g class="text"/></g><g class="trace scatter trace309be5" style="stroke-miterlimit: 2; opacity: 1;"><g class="fills"/><g class="errorbars"/><g class="lines"><path class="js-line" d="M56.6,54.81L58.74,73.12L59.75,79.18L63.6,97.18L65.14,103.11L72.49,126.36L74.61,132.04L84.01,154.1L86.58,159.43L97.59,179.93L100.5,184.82L112.68,203.38L115.83,207.75L128.78,224.13L132.09,227.96L145.63,242.39L149.08,245.79L166.62,261.62L170.17,264.59L191.74,281.22L195.36,283.84L224.33,303.57L227.94,305.9L253.03,321.13L256.58,323.14L277.68,334.11L281.15,335.75L298.3,343.06L301.68,344.33L318.35,349.69L321.63,350.58L341.07,354.8L344.26,355.34L366.38,358.07L369.51,358.34L397.49,359.92L400.59,360.04L446.86,360.94L449.93,360.96L582.07,361.08L585.15,361.08L975.4,361.08" style="vector-effect: none; fill: none; stroke: rgb(242, 157, 56); stroke-opacity: 1; stroke-width: 2px; opacity: 1;"/></g><g class="points"/><g class="text"/></g><g class="trace scatter trace06910a" style="stroke-miterlimit: 2; opacity: 1;"><g class="fills"/><g class="errorbars"/><g class="lines"><path class="js-line" d="M56.6,54.81L58.46,73.15L59.39,79.22L63.04,97.26L64.52,103.21L69.72,120.75L71.69,126.49L80.6,148.83L83.07,154.23L93.75,175L96.6,179.96L108.59,198.74L111.72,203.17L124.66,219.84L127.99,223.77L141.68,238.67L145.18,242.21L163.03,258.94L166.66,262.12L192.4,283.3L196.1,286.21L225.66,308.42L229.34,311.01L251.18,325.42L254.77,327.6L272.5,337.41L275.99,339.13L293.09,346.41L296.45,347.6L312.94,352.46L316.19,353.23L335.39,356.69L338.55,357.11L363.58,359.3L366.68,359.49L403.79,360.75L406.87,360.8L483.73,361.07L486.81,361.08L975.4,361.08" style="vector-effect: none; fill: none; stroke: rgb(242, 143, 56); stroke-opacity: 1; stroke-width: 2px; opacity: 1;"/></g><g class="points"/><g class="text"/></g><g class="trace scatter trace19e73e" style="stroke-miterlimit: 2; opacity: 1;"><g class="fills"/><g class="errorbars"/><g class="lines"><path class="js-line" d="M56.6,54.81L58.27,73.17L59.14,79.25L62.63,97.32L64.07,103.27L69.17,120.84L71.11,126.6L79.95,148.94L82.41,154.34L93.11,175.08L95.97,180.02L108.07,198.73L111.24,203.16L124.42,219.99L127.83,224L145.44,243.04L149.06,246.68L171.24,267.68L175,271.08L208.96,300.66L212.73,303.75L235.11,321.02L238.8,323.63L256.89,335.31L260.43,337.33L274.33,344.26L277.74,345.72L291.12,350.56L294.41,351.55L310.59,355.36L313.78,355.93L332.69,358.36L335.82,358.64L366.87,360.41L369.95,360.5L413.05,361.01L416.12,361.02L665.04,361.08L668.11,361.08L975.4,361.08" style="vector-effect: none; fill: none; stroke: rgb(237, 120, 51); stroke-opacity: 1; stroke-width: 2px; opacity: 1;"/></g><g class="points"/><g class="text"/></g><g class="trace scatter trace3a47dc" style="stroke-miterlimit: 2; opacity: 1;"><g class="fills"/><g class="errorbars"/><g class="lines"><path class="js-line" d="M56.6,54.81L58.14,73.18L58.97,79.27L62.35,97.36L63.76,103.32L68.78,120.92L70.7,126.68L77.15,143.58L79.51,149.06L89.92,170.19L92.73,175.24L104.75,194.45L107.92,199.03L121.2,216.57L124.66,220.79L142.57,241.09L146.27,245.03L176.59,275.82L180.44,279.61L207.36,305.01L211.18,308.4L230.03,323.98L233.73,326.78L248.25,336.67L251.8,338.79L265.65,345.87L269.04,347.32L282.33,352.02L285.59,352.95L301.64,356.42L304.81,356.92L326.74,359.27L329.85,359.5L360.78,360.76L363.86,360.81L425.35,361.07L428.42,361.08L975.4,361.08" style="vector-effect: none; fill: none; stroke: rgb(232, 98, 46); stroke-opacity: 1; stroke-width: 2px; opacity: 1;"/></g><g class="points"/><g class="text"/></g><g class="trace scatter trace01816a" style="stroke-miterlimit: 2; opacity: 1;"><g class="fills"/><g class="errorbars"/><g class="lines"><path class="js-line" d="M56.6,54.81L58.06,73.19L58.87,79.28L62.18,97.39L63.56,103.35L68.53,120.99L70.44,126.76L76.87,143.71L79.24,149.22L86.96,165.27L89.73,170.44L101.65,190.26L104.83,195.02L118.22,213.42L121.72,217.89L139.94,239.7L143.7,243.99L178.55,282.35L182.48,286.52L205.87,310.12L209.72,313.72L224.87,326.87L228.58,329.79L243.01,339.73L246.52,341.78L260.2,348.46L263.54,349.78L276.65,353.95L279.87,354.74L295.75,357.6L298.89,358L320.71,359.94L323.81,360.11L354.66,360.92L357.73,360.94L492.95,361.08L496.02,361.08L975.4,361.08" style="vector-effect: none; fill: none; stroke: rgb(227, 75, 40); stroke-opacity: 1; stroke-width: 2px; opacity: 1;"/></g><g class="points"/><g class="text"/></g><g class="trace scatter trace46fb5a" style="stroke-miterlimit: 2; opacity: 1;"><g class="fills"/><g class="errorbars"/><g class="lines"><path class="js-line" d="M56.6,54.81L58.07,73.19L58.88,79.28L62.19,97.39L63.57,103.36L68.54,121L70.45,126.78L76.91,143.74L79.29,149.26L87.06,165.35L89.85,170.54L101.88,190.58L105.09,195.43L122.13,219.04L125.71,223.68L155.64,260.63L159.49,265.28L186.58,296.81L190.43,301.02L205.69,316.61L209.45,320.14L224.17,332.4L227.76,334.96L238.33,341.51L241.79,343.36L255.38,349.24L258.72,350.39L271.92,353.96L275.19,354.64L294.62,357.64L297.84,358.01L323.4,359.9L326.57,360.04L367.33,360.92L370.43,360.95L505.38,361.08L508.44,361.08L975.26,361.08" style="vector-effect: none; fill: none; stroke: rgb(222, 53, 35); stroke-opacity: 1; stroke-width: 2px; opacity: 1;"/></g><g class="points"/><g class="text"/></g><g class="trace scatter tracef7493b" style="stroke-miterlimit: 2; opacity: 1;"><g class="fills"/><g class="errorbars"/><g class="lines"><path class="js-line" d="M56.6,54.81L58.12,73.18L58.95,79.27L62.35,97.35L63.77,103.31L68.83,120.89L70.76,126.64L77.25,143.49L79.62,148.96L90.07,169.99L92.89,175.05L104.91,194.7L108.07,199.5L128.05,227.84L131.5,232.55L170.55,284.5L174.15,288.95L188.61,305.53L192.22,309.31L203.06,319.55L206.67,322.56L217.48,330.43L221.07,332.69L231.84,338.54L235.43,340.21L249.75,345.72L253.32,346.85L271.2,351.51L274.77,352.29L296.05,356.09L299.57,356.59L323.72,359.22L327.1,359.48L356.49,360.94L359.67,361.02L406.12,361.34L409.17,361.33L704.64,361.08L707.71,361.08L974.74,361.08" style="vector-effect: none; fill: none; stroke: rgb(217, 30, 30); stroke-opacity: 1; stroke-width: 2px; opacity: 1;"/></g><g class="points"/><g class="text"/></g></g></g></g><path class="xlines-above crisp" d="M0,0" style="fill: none;"/><path class="ylines-above crisp" d="M0,0" style="fill: none;"/><g class="overlines-above"/><g class="xaxislayer-above"><g class="xtick"><text text-anchor="middle" x="0" y="545" transform="translate(144.6,0)" style="font-family: 'Open Sans', verdana, arial, sans-serif; font-size: 24px; fill: rgb(0, 0, 0); fill-opacity: 1; white-space: pre; opacity: 1;">0</text></g><g class="xtick"><text text-anchor="middle" x="0" y="545" style="font-family: 'Open Sans', verdana, arial, sans-serif; font-size: 24px; fill: rgb(0, 0, 0); fill-opacity: 1; white-space: pre; opacity: 1;" transform="translate(297.73,0)">0.5</text></g><g class="xtick"><text text-anchor="middle" x="0" y="545" style="font-family: 'Open Sans', verdana, arial, sans-serif; font-size: 24px; fill: rgb(0, 0, 0); fill-opacity: 1; white-space: pre; opacity: 1;" transform="translate(450.87,0)">1</text></g><g class="xtick"><text text-anchor="middle" x="0" y="545" style="font-family: 'Open Sans', verdana, arial, sans-serif; font-size: 24px; fill: rgb(0, 0, 0); fill-opacity: 1; white-space: pre; opacity: 1;" transform="translate(604,0)">1.5</text></g><g class="xtick"><text text-anchor="middle" x="0" y="545" style="font-family: 'Open Sans', verdana, arial, sans-serif; font-size: 24px; fill: rgb(0, 0, 0); fill-opacity: 1; white-space: pre; opacity: 1;" transform="translate(757.13,0)">2</text></g><g class="xtick"><text text-anchor="middle" x="0" y="545" style="font-family: 'Open Sans', verdana, arial, sans-serif; font-size: 24px; fill: rgb(0, 0, 0); fill-opacity: 1; white-space: pre; opacity: 1;" transform="translate(910.27,0)">2.5</text></g><g class="xtick"><text text-anchor="middle" x="0" y="545" style="font-family: 'Open Sans', verdana, arial, sans-serif; font-size: 24px; fill: rgb(0, 0, 0); fill-opacity: 1; white-space: pre; opacity: 1;" transform="translate(1063.4,0)">3</text></g></g><g class="yaxislayer-above"><g class="ytick"><text text-anchor="end" x="87" y="8.399999999999999" transform="translate(0,461.08)" style="font-family: 'Open Sans', verdana, arial, sans-serif; font-size: 24px; fill: rgb(0, 0, 0); fill-opacity: 1; white-space: pre; opacity: 1;">0</text></g><g class="ytick"><text text-anchor="end" x="87" y="8.399999999999999" style="font-family: 'Open Sans', verdana, arial, sans-serif; font-size: 24px; fill: rgb(0, 0, 0); fill-opacity: 1; white-space: pre; opacity: 1;" transform="translate(0,399.83)">0.2</text></g><g class="ytick"><text text-anchor="end" x="87" y="8.399999999999999" style="font-family: 'Open Sans', verdana, arial, sans-serif; font-size: 24px; fill: rgb(0, 0, 0); fill-opacity: 1; white-space: pre; opacity: 1;" transform="translate(0,338.57)">0.4</text></g><g class="ytick"><text text-anchor="end" x="87" y="8.399999999999999" style="font-family: 'Open Sans', verdana, arial, sans-serif; font-size: 24px; fill: rgb(0, 0, 0); fill-opacity: 1; white-space: pre; opacity: 1;" transform="translate(0,277.32)">0.6</text></g><g class="ytick"><text text-anchor="end" x="87" y="8.399999999999999" style="font-family: 'Open Sans', verdana, arial, sans-serif; font-size: 24px; fill: rgb(0, 0, 0); fill-opacity: 1; white-space: pre; opacity: 1;" transform="translate(0,216.07)">0.8</text></g><g class="ytick"><text text-anchor="end" x="87" y="8.399999999999999" style="font-family: 'Open Sans', verdana, arial, sans-serif; font-size: 24px; fill: rgb(0, 0, 0); fill-opacity: 1; white-space: pre; opacity: 1;" transform="translate(0,154.81)">1</text></g></g><g class="overaxes-above"/></g></g><g class="polarlayer"/><g class="smithlayer"/><g class="ternarylayer"/><g class="geolayer"/><g class="funnelarealayer"/><g class="pielayer"/><g class="iciclelayer"/><g class="treemaplayer"/><g class="sunburstlayer"/><g class="glimages"/><defs id="topdefs-1a609b"><g class="clips"/><clipPath id="legend1a609b"><rect width="165" height="184" x="2" y="2"/></clipPath></defs><g class="layer-above"><g class="imagelayer"/><g class="shapelayer"/></g><g class="infolayer"><g class="legend" pointer-events="all" transform="translate(940.6799999999998,91.6)"><rect class="bg" shape-rendering="crispEdges" style="stroke: rgb(0, 0, 0); stroke-opacity: 1; fill: rgb(255, 255, 255); fill-opacity: 1; stroke-width: 2px;" width="167" height="186" x="1" y="1"/><g class="scrollbox" transform="" clip-path="url(#legend1a609b)"><g class="groups" transform=""><g class="traces" transform="translate(2,25.400000000000002)" style="opacity: 1;"><text class="legendtext" text-anchor="start" x="5" y="10.14" style="font-family: 'Open Sans', verdana, arial, sans-serif; font-size: 26px; fill: rgb(0, 0, 0); fill-opacity: 1; white-space: pre;">Trajectory</text><g class="layers"><g class="legendfill"/><g class="legendlines"/><g class="legendsymbols"><g class="legendpoints"/></g></g><rect class="legendtoggle" x="0" y="-18.400000000000002" width="159.671875" height="36.800000000000004" style="fill: rgb(0, 0, 0); fill-opacity: 0;"/></g><g class="traces" transform="translate(2,60.900000000000006)" style="opacity: 1;"><text class="legendtext" text-anchor="start" x="40" y="9.360000000000001" style="font-family: 'Open Sans', verdana, arial, sans-serif; font-size: 24px; fill: rgb(0, 0, 0); fill-opacity: 1; white-space: pre;">Reference</text><g class="layers" style="opacity: 1;"><g class="legendfill"/><g class="legendlines"><path class="js-line" d="M5,0h30" style="fill: none; stroke: rgb(0, 0, 0); stroke-opacity: 1; stroke-width: 2px;"/></g><g class="legendsymbols"><g class="legendpoints"/></g></g><rect class="legendtoggle" x="0" y="-17.1" width="159.671875" height="34.2" style="fill: rgb(0, 0, 0); fill-opacity: 0;"/></g><g class="traces" transform="translate(2,95.1)" style="opacity: 1;"><text class="legendtext" text-anchor="start" x="40" y="9.360000000000001" style="font-family: 'Open Sans', verdana, arial, sans-serif; font-size: 24px; fill: rgb(0, 0, 0); fill-opacity: 1; white-space: pre;">N = 4</text><g class="layers" style="opacity: 1;"><g class="legendfill"/><g class="legendlines"><path class="js-line" d="M5,0h30" style="fill: none; stroke: rgb(10, 119, 175); stroke-opacity: 1; stroke-width: 2px;"/></g><g class="legendsymbols"><g class="legendpoints"/></g></g><rect class="legendtoggle" x="0" y="-17.1" width="159.671875" height="34.2" style="fill: rgb(0, 0, 0); fill-opacity: 0;"/></g><g class="traces" transform="translate(2,129.3)" style="opacity: 1;"><text class="legendtext" text-anchor="start" x="40" y="9.360000000000001" style="font-family: 'Open Sans', verdana, arial, sans-serif; font-size: 24px; fill: rgb(0, 0, 0); fill-opacity: 1; white-space: pre;">N = 10</text><g class="layers" style="opacity: 1;"><g class="legendfill"/><g class="legendlines"><path class="js-line" d="M5,0h30" style="fill: none; stroke: rgb(242, 211, 56); stroke-opacity: 1; stroke-width: 2px;"/></g><g class="legendsymbols"><g class="legendpoints"/></g></g><rect class="legendtoggle" x="0" y="-17.1" width="159.671875" height="34.2" style="fill: rgb(0, 0, 0); fill-opacity: 0;"/></g><g class="traces" transform="translate(2,163.5)" style="opacity: 1;"><text class="legendtext" text-anchor="start" x="40" y="9.360000000000001" style="font-family: 'Open Sans', verdana, arial, sans-serif; font-size: 24px; fill: rgb(0, 0, 0); fill-opacity: 1; white-space: pre;">N = 20</text><g class="layers" style="opacity: 1;"><g class="legendfill"/><g class="legendlines"><path class="js-line" d="M5,0h30" style="fill: none; stroke: rgb(217, 30, 30); stroke-opacity: 1; stroke-width: 2px;"/></g><g class="legendsymbols"><g class="legendpoints"/></g></g><rect class="legendtoggle" x="0" y="-17.1" width="159.671875" height="34.2" style="fill: rgb(0, 0, 0); fill-opacity: 0;"/></g></g></g><rect class="scrollbar" rx="20" ry="3" width="0" height="0" style="fill: rgb(128, 139, 164); fill-opacity: 1;" x="0" y="0"/></g><g class="g-gtitle"/><g class="g-xtitle"><text class="xtitle" x="604" y="584.8" text-anchor="middle" style="opacity: 1; font-family: 'Open Sans', verdana, arial, sans-serif; font-size: 29px; fill: rgb(0, 0, 0); fill-opacity: 1; white-space: pre;">East [m]</text></g><g class="g-ytitle" transform="translate(5.900390625,0)"><text class="ytitle" transform="rotate(-90,23.099999999999994,310)" x="23.099999999999994" y="310" text-anchor="middle" style="opacity: 1; font-family: 'Open Sans', verdana, arial, sans-serif; font-size: 29px; fill: rgb(0, 0, 0); fill-opacity: 1; white-space: pre;">North [m]</text></g></g></svg>