<svg class="main-svg" xmlns="http://www.w3.org/2000/svg" xmlns:xlink="http://www.w3.org/1999/xlink" width="1200" height="400" style="" viewBox="0 0 1200 400"><rect x="0" y="0" width="1200" height="400" style="fill: rgb(255, 255, 255); fill-opacity: 1;"/><defs id="defs-5b4671"><g class="clips"><clipPath id="clip5b4671xyplot" class="plotclip"><rect width="1022" height="214"/></clipPath><clipPath class="axesclip" id="clip5b4671x"><rect x="98" y="0" width="1022" height="400"/></clipPath><clipPath class="axesclip" id="clip5b4671y"><rect x="0" y="100" width="1200" height="214"/></clipPath><clipPath class="axesclip" id="clip5b4671xy"><rect x="98" y="100" width="1022" height="214"/></clipPath></g><g class="gradients"/><g class="patterns"/></defs><g class="bglayer"/><g class="layer-below"><g class="imagelayer"/><g class="shapelayer"/></g><g class="cartesianlayer"><g class="subplot xy"><g class="layer-subplot"><g class="shapelayer"/><g class="imagelayer"/></g><g class="minor-gridlayer"><g class="x"/><g class="y"/></g><g class="gridlayer"><g class="x"><path class="xgrid crisp" transform="translate(305.73,0)" d="M0,100v214" style="stroke: rgb(200, 200, 200); stroke-opacity: 1; stroke-width: 1px;"/><path class="xgrid crisp" transform="translate(457.37,0)" d="M0,100v214" style="stroke: rgb(200, 200, 200); stroke-opacity: 1; stroke-width: 1px;"/><path class="xgrid crisp" transform="translate(609,0)" d="M0,100v214" style="stroke: rgb(200, 200, 200); stroke-opacity: 1; stroke-width: 1px;"/><path class="xgrid crisp" transform="translate(760.63,0)" d="M0,100v214" style="stroke: rgb(200, 200, 200); stroke-opacity: 1; stroke-width: 1px;"/><path class="xgrid crisp" transform="translate(912.27,0)" d="M0,100v214" style="stroke: rgb(200, 200, 200); stroke-opacity: 1; stroke-width: 1px;"/><path class="xgrid crisp" transform="translate(1063.9,0)" d="M0,100v214" style="stroke: rgb(200, 200, 200); stroke-opacity: 1; stroke-width: 1px;"/></g><g class="y"><path class="ygrid crisp" transform="translate(0,249.53)" d="M98,0h1022" style="stroke: rgb(200, 200, 200); stroke-opacity: 1; stroke-width: 1px;"/><path class="ygrid crisp" transform="translate(0,214.82999999999998)" d="M98,0h1022" style="stroke: rgb(200, 200, 200); stroke-opacity: 1; stroke-width: 1px;"/><path class="ygrid crisp" transform="translate(0,180.12)" d="M98,0h1022" style="stroke: rgb(200, 200, 200); stroke-opacity: 1; stroke-width: 1px;"/><path class="ygrid crisp" transform="translate(0,145.41)" d="M98,0h1022" style="stroke: rgb(200, 200, 200); stroke-opacity: 1; stroke-width: 1px;"/><path class="ygrid crisp" transform="translate(0,110.7)" d="M98,0h1022" style="stroke: rgb(200, 200, 200); stroke-opacity: 1; stroke-width: 1px;"/></g></g><g class="zerolinelayer"><path class="xzl zl crisp" transform="translate(154.1,0)" d="M0,100v214" style="stroke: rgb(200, 200, 200); stroke-opacity: 1; stroke-width: 2px;"/><path class="yzl zl crisp" transform="translate(0,284.24)" d="M98,0h1022" style="stroke: rgb(200, 200, 200); stroke-opacity: 1; stroke-width: 2px;"/></g><g class="layer-between"><g class="shapelayer"/><g class="imagelayer"/></g><path class="xlines-below"/><path class="ylines-below"/><g class="overlines-below"/><g class="xaxislayer-below"/><g class="yaxislayer-below"/><g class="overaxes-below"/><g class="overplot"><g class="xy" transform="translate(98,100)" clip-path="url(#clip5b4671xyplot)"><g class="scatterlayer mlayer"><g class="trace scatter trace095d42" style="stroke-miterlimit: 2; opacity: 1;"><g class="fills"/><g class="errorbars"/><g class="lines"><path class="js-line" d="M56.1,184.24L965.9,184.24" style="vector-effect: none; fill: none; stroke: rgb(0, 0, 0); stroke-opacity: 1; stroke-width: 2px; opacity: 1;"/></g><g class="points"/><g class="text"/></g><g class="trace scatter trace506fca" style="stroke-miterlimit: 2; opacity: 1;"><g class="fills"/><g class="errorbars"/><g class="lines"/><g class="points"><path class="point" transform="translate(56.1,184.24)" d="M4,0A4,4 0 1,1 0,-4A4,4 0 0,1 4,0Z" style="opacity: 1; stroke-width: 0px; fill: rgb(0, 0, 0); fill-opacity: 1;"/><path class="point" transform="translate(965.9,184.24)" d="M4,0A4,4 0 1,1 0,-4A4,4 0 0,1 4,0Z" style="opacity: 1; stroke-width: 0px; fill: rgb(0, 0, 0); fill-opacity: 1;"/></g><g class="text"/></g><g class="trace scatter trace767a90" style="stroke-miterlimit: 2; opacity: 1;"><g class="fills"/><g class="errorbars"/><g class="lines"><path class="js-line" d="M56.1,10.7L72.3,32.47L74.67,35.44L91.71,55.28L94.2,57.98L112.01,75.98L114.61,78.42L133.16,94.66L135.86,96.86L155.1,111.41L157.89,113.37L177.76,126.33L180.65,128.07L201.1,139.51L204.07,141.04L225.06,151.05L228.09,152.38L252.68,162.18L255.79,163.3L280.92,171.48L284.1,172.41L309.72,179.09L312.95,179.83L342.26,185.71L345.54,186.27L375.27,190.59L378.59,190.99L411.98,194.15L415.34,194.39L448.98,196.07L452.36,196.17L492.88,196.55L496.26,196.51L540.09,195.33L543.45,195.18L600.22,191.91L603.53,191.67L687.89,185.07L691.06,184.81L764.7,179.67L767.66,179.52L810.84,178.06L813.63,178.03L846.21,178.42L848.84,178.53L874.46,180.23L876.95,180.47L901.02,183.66L903.35,184.07L923.58,188.41L925.75,188.97L942.5,194.15" style="vector-effect: none; fill: none; stroke: rgb(10, 119, 175); stroke-opacity: 1; stroke-width: 2px; opacity: 1;"/></g><g class="points"/><g class="text"/></g><g class="trace scatter trace5fcb13" style="stroke-miterlimit: 2; opacity: 1;"><g class="fills"/><g class="errorbars"/><g class="lines"><path class="js-line" d="M56.1,10.7L64.8,26.99L66.65,30.13L76.47,45.3L78.54,48.23L91.66,65.02L93.96,67.7L108.44,83.04L110.96,85.48L126.66,99.43L129.37,101.64L146.2,114.25L149.09,116.24L166.92,127.58L169.97,129.36L191.87,141.07L195.08,142.63L218,152.81L221.34,154.16L245.1,162.9L248.54,164.05L276.5,172.42L280.04,173.36L308.6,180.13L312.19,180.88L344.73,186.76L348.36,187.32L380.99,191.55L384.61,191.94L420.56,194.95L424.12,195.17L462.75,196.72L466.2,196.78L506.56,196.76L509.83,196.69L550.66,195.12L553.68,194.95L602.96,191.28L605.76,191.03L741.08,178.88L743.85,178.73L780.75,177.42L783.67,177.38L819.85,177.66L822.97,177.76L858.55,179.61L861.9,179.86L900.37,183.55L904.01,183.98L945.9,189.8L949.88,190.44L982.85,196.2" style="vector-effect: none; fill: none; stroke: rgb(10, 136, 186); stroke-opacity: 1; stroke-width: 2px; opacity: 1;"/></g><g class="points"/><g class="text"/></g><g class="trace scatter trace084c42" style="stroke-miterlimit: 2; opacity: 1;"><g class="fills"/><g class="errorbars"/><g class="lines"><path class="js-line" d="M56.1,10.7L61.47,24.12L62.99,27.4L71.52,43.37L73.41,46.47L83.76,61.55L86,64.48L97.98,78.67L100.53,81.42L113.99,94.71L116.81,97.28L134.62,112.06L137.73,114.42L157.06,127.93L160.4,130.08L180.98,142.31L184.49,144.25L206.03,155.19L209.69,156.91L235.64,168.07L239.39,169.54L265.81,178.95L269.6,180.17L296.06,187.84L299.82,188.81L325.88,194.71L329.55,195.43L354.78,199.56L358.3,200.02L382.28,202.37L385.61,202.59L411.44,203.3L414.57,203.27L438.99,202.25L441.96,202.03L468.09,199.28L470.93,198.9L501.52,194L504.25,193.5L596.43,176.83L599.21,176.47L624.68,173.9L627.57,173.7L651.21,172.89L654.24,172.9L679.03,173.77L682.2,173.97L717.74,177.26L721.03,177.63L833.03,190.51L836.22,190.73L861.28,191.76L864.35,191.78L885.29,191.2L888.2,190.99L905.22,189.08L907.97,188.64L923.95,185.18L926.52,184.46L941.3,179.2L943.66,178.17L954.94,172.24L957.1,170.9" style="vector-effect: none; fill: none; stroke: rgb(56, 151, 160); stroke-opacity: 1; stroke-width: 2px; opacity: 1;"/></g><g class="points"/><g class="text"/></g><g class="trace scatter traceb2a456" style="stroke-miterlimit: 2; opacity: 1;"><g class="fills"/><g class="errorbars"/><g class="lines"><path class="js-line" d="M56.1,10.7L60.9,24.35L62.32,27.74L68.83,41.15L70.65,44.47L80.9,60.8L83.16,64.02L95.44,79.77L98.08,82.85L112.13,97.89L115.09,100.82L130.62,115.03L133.85,117.78L150.58,131.03L154.02,133.58L175.26,148.08L178.89,150.36L200.96,163.15L204.68,165.13L227.13,176.01L230.87,177.66L253.23,186.43L256.93,187.71L278.74,194.17L282.31,195.05L303.2,199.08L306.61,199.56L326.61,201.42L329.87,201.57L349.11,201.61L352.25,201.49L373.89,199.72L376.93,199.36L400.87,195.64L403.82,195.1L441.62,187.2L444.5,186.57L481.93,179.12L484.82,178.64L508.17,175.65L511.11,175.4L531.96,174.41L534.96,174.37L559.22,174.89L562.27,175.04L593.07,177.42L596.17,177.72L658.52,184.88L661.64,185.24L702.08,189.06L705.17,189.27L732.85,190.36L735.9,190.38L763.16,189.56L766.16,189.37L802.04,186.25L805.02,185.95L858.76,181.06L861.76,180.88L888.99,180.18L892.04,180.22L913.55,181.28L916.65,181.56L938.57,184.55L941.74,185.13L960.93,189.58L964.16,190.48L967.4,191.44" style="vector-effect: none; fill: none; stroke: rgb(103, 166, 134); stroke-opacity: 1; stroke-width: 2px; opacity: 1;"/></g><g class="points"/><g class="text"/></g><g class="trace scatter trace33837a" style="stroke-miterlimit: 2; opacity: 1;"><g class="fills"/><g class="errorbars"/><g class="lines"><path class="js-line" d="M56.1,10.7L59.57,24.48L60.69,27.91L66.1,41.47L67.68,44.83L74.87,58.08L76.87,61.35L85.63,74.19L88,77.34L100.86,92.7L103.62,95.68L118.25,110.11L121.32,112.89L137.39,126.21L140.72,128.76L157.89,140.81L161.41,143.09L179.36,153.7L183,155.66L201.39,164.66L205.09,166.29L223.6,173.5L227.3,174.75L245.69,180.14L249.35,181.05L271.2,185.42L274.82,185.98L296.38,188.47L299.94,188.74L324.64,189.76L328.13,189.78L359.06,189.03L362.44,188.86L408.37,185.69L411.55,185.46L451.41,183.3L454.37,183.21L497.76,182.78L500.6,182.8L568.61,184.24L571.49,184.31L637.48,184.99L640.59,184.98L760.63,183.85L763.73,183.83L853.19,184.26L856.12,184.29L935.05,184.36L938.26,184.31L968.07,183.68" style="vector-effect: none; fill: none; stroke: rgb(149, 181, 108); stroke-opacity: 1; stroke-width: 2px; opacity: 1;"/></g><g class="points"/><g class="text"/></g><g class="trace scatter trace1e33e6" style="stroke-miterlimit: 2; opacity: 1;"><g class="fills"/><g class="errorbars"/><g class="lines"><path class="js-line" d="M56.1,10.7L58.82,24.54L59.77,27.98L64.57,41.62L66.02,44.99L72.72,58.33L74.61,61.61L83.02,74.52L85.32,77.69L97.92,93.09L100.65,96.07L115.21,110.47L118.3,113.24L134.5,126.44L137.88,128.95L155.39,140.75L159,142.96L177.48,153.16L181.25,155.03L200.4,163.48L204.28,165L223.84,171.79L227.77,173L251.47,179.22L255.42,180.1L278.99,184.5L282.89,185.09L309.76,188.29L313.52,188.61L342.71,190.25L346.22,190.35L379.29,190.28L382.38,190.19L417.01,188.26L419.73,188.05L499.39,181.92L502.21,181.82L531.8,181.52L534.88,181.55L582.93,182.9L586.21,183.03L670.44,185.71L673.53,185.73L721.22,185.19L724.13,185.12L815.09,183.34L818.17,183.35L939.02,184.51L941.89,184.42L963.87,183.17" style="vector-effect: none; fill: none; stroke: rgb(196, 196, 82); stroke-opacity: 1; stroke-width: 2px; opacity: 1;"/></g><g class="points"/><g class="text"/></g><g class="trace scatter tracebfdf1a" style="stroke-miterlimit: 2; opacity: 1;"><g class="fills"/><g class="errorbars"/><g class="lines"><path class="js-line" d="M56.1,10.7L58.55,24.56L59.42,28L63.92,41.68L65.29,45.07L71.71,58.46L73.54,61.77L81.74,74.77L84,77.97L93.85,90.47L96.5,93.53L107.87,105.44L110.89,108.33L126.99,122.23L130.4,124.89L148.33,137.53L152.08,139.92L171.59,151.13L175.63,153.22L196.27,162.94L200.47,164.73L221.72,172.93L226,174.41L251.57,182.26L255.79,183.39L280.63,189.07L284.66,189.84L307.9,193.33L311.59,193.73L332.4,195L335.63,195.03L353.7,194.28L356.53,194.02L375.17,191.4L377.7,190.93L432.16,180.4L434.83,180.1L451.72,179.04L454.68,178.98L476.33,179.35L479.54,179.49L516.02,182.08L519.4,182.37L576.12,186.59L579.32,186.72L607.06,187.02L610.05,186.97L647.78,185.4L650.63,185.24L708.51,182.71L711.52,182.68L754.8,183.27L757.95,183.36L842.24,185.18L845.25,185.15L941.19,183.93L944.36,184.04L967.23,185.37" style="vector-effect: none; fill: none; stroke: rgb(242, 211, 56); stroke-opacity: 1; stroke-width: 2px; opacity: 1;"/></g><g class="points"/><g class="text"/></g><g class="trace scatter trace86f26a" style="stroke-miterlimit: 2; opacity: 1;"><g class="fills"/><g class="errorbars"/><g class="lines"><path class="js-line" d="M56.1,10.7L58.91,24.53L59.84,27.98L64.46,41.65L65.83,45.04L72.22,58.48L74.04,61.8L82.16,74.91L84.4,78.15L94.23,90.87L96.89,93.99L108.38,106.24L111.46,109.23L124.58,120.92L128.06,123.77L146.63,137.51L150.56,140.15L171.07,152.72L175.31,155.09L196.96,166.2L201.35,168.26L223.33,177.63L227.7,179.31L249.21,186.63L253.41,187.88L273.64,192.88L277.51,193.63L292.2,195.72L295.66,196.01L308.71,196.34L311.79,196.23L326.28,194.72L329.02,194.26L344.68,190.71L347.2,190.02L382.13,180.65L384.75,180.16L398.49,178.46L401.37,178.28L419.49,178.22L422.63,178.35L448.59,180.44L451.91,180.8L514.79,187.11L517.95,187.26L542.44,187.42L545.42,187.34L577.46,185.54L580.33,185.33L626.85,182.61L629.84,182.55L660.39,182.7L663.5,182.78L762.78,185.18L765.8,185.15L874.32,183.87L877.41,183.93L941.77,184.51L944.76,184.44L965.32,183.53" style="vector-effect: none; fill: none; stroke: rgb(242, 197, 56); stroke-opacity: 1; stroke-width: 2px; opacity: 1;"/></g><g class="points"/><g class="text"/></g><g class="trace scatter tracebdbebe" style="stroke-miterlimit: 2; opacity: 1;"><g class="fills"/><g class="errorbars"/><g class="lines"><path class="js-line" d="M56.1,10.7L59.7,24.48L60.8,27.9L65.99,41.51L67.49,44.88L74.25,58.26L76.14,61.57L86.71,77.88L89.06,81.1L101.9,96.86L104.69,99.95L119.74,115.06L122.97,118.01L140.13,132.32L143.75,135.08L162.53,148.24L166.4,150.72L186.19,162.3L190.2,164.42L210.38,173.99L214.41,175.67L230.41,181.56L234.36,182.8L249.86,186.83L253.65,187.58L268.39,189.62L271.98,189.91L289.43,190.23L292.83,190.11L312.62,188.4L315.83,188L368.03,181.46L371.01,181.32L391.81,181.29L394.77,181.4L424.34,183.3L427.31,183.53L466.22,185.81L469.26,185.86L499.87,185.6L502.95,185.51L585.89,183.35L588.92,183.37L716.31,184.46L719.36,184.42L816.83,184.17L819.86,184.2L920.29,184.15L923.34,184.14L965.82,184.44" style="vector-effect: none; fill: none; stroke: rgb(242, 184, 56); stroke-opacity: 1; stroke-width: 2px; opacity: 1;"/></g><g class="points"/><g class="text"/></g><g class="trace scatter traceee752e" style="stroke-miterlimit: 2; opacity: 1;"><g class="fills"/><g class="errorbars"/><g class="lines"><path class="js-line" d="M56.1,10.7L61.22,27.86L62.47,31.27L69.75,48.17L71.43,51.52L80.84,68.07L82.93,71.34L94.43,87.45L96.94,90.62L110.49,106.2L113.4,109.26L128.91,124.17L132.19,127.06L149.37,140.87L152.95,143.49L171.42,155.72L175.21,157.97L190.68,166.25L194.61,168.11L210.49,174.72L214.49,176.14L230.58,180.81L234.61,181.73L250.68,184.55L254.68,185.06L274.44,186.6L278.33,186.73L301.03,186.68L304.69,186.56L383.41,183.93L386.04,183.93L636.64,184.24L639.73,184.24L966.07,184.24" style="vector-effect: none; fill: none; stroke: rgb(242, 170, 56); stroke-opacity: 1; stroke-width: 2px; opacity: 1;"/></g><g class="points"/><g class="text"/></g><g class="trace scatter trace763090" style="stroke-miterlimit: 2; opacity: 1;"><g class="fills"/><g class="errorbars"/><g class="lines"><path class="js-line" d="M56.1,10.7L61.36,27.85L62.62,31.25L69.89,48.16L71.54,51.51L80.78,68.1L82.82,71.38L94,87.57L96.42,90.76L109.51,106.47L112.31,109.55L127.26,124.54L130.43,127.43L147.16,141.2L150.68,143.8L165.34,153.58L169.14,155.86L184.9,164.23L188.98,166.12L205.81,172.79L210.14,174.24L227.74,179.17L232.18,180.2L254.34,184.28L258.72,184.9L284.08,187.38L288.09,187.61L310.36,188.12L313.7,188.08L336.96,186.86L339.53,186.63L384.02,182.7L386.84,182.63L411.49,182.83L414.77,182.93L493.4,185.09L496.36,185.06L594,183.98L597.15,184.02L680.18,184.36L683.17,184.34L795.66,184.3L798.72,184.31L965.75,184.19" style="vector-effect: none; fill: none; stroke: rgb(242, 157, 56); stroke-opacity: 1; stroke-width: 2px; opacity: 1;"/></g><g class="points"/><g class="text"/></g><g class="trace scatter trace270c8b" style="stroke-miterlimit: 2; opacity: 1;"><g class="fills"/><g class="errorbars"/><g class="lines"><path class="js-line" d="M56.1,10.7L61.36,27.85L62.6,31.26L69.73,48.18L71.35,51.54L80.34,68.17L82.32,71.46L93.14,87.73L95.49,90.95L108.13,106.76L110.85,109.86L122.43,121.97L125.5,124.91L138.58,136.28L142.05,139.01L156.78,149.39L160.68,151.85L177.22,161.02L181.6,163.15L199.96,170.9L204.71,172.65L224.03,178.89L228.88,180.25L252.74,185.87L257.35,186.75L279.03,189.89L283.01,190.26L297.38,190.89L300.56,190.83L314.48,189.56L316.94,189.15L332.57,185.55L334.71,185.01L348.15,182.2L350.6,181.87L364.32,181.06L367.35,181.06L390.39,182.17L393.87,182.44L445.22,185.88L448.33,185.92L474.59,185.23L477.39,185.08L520.18,183.35L523.21,183.34L567.26,184.22L570.43,184.3L613.62,184.66L616.62,184.63L716.36,184.22L719.44,184.25L819.72,184.16L822.76,184.16L965.99,184.3" style="vector-effect: none; fill: none; stroke: rgb(242, 143, 56); stroke-opacity: 1; stroke-width: 2px; opacity: 1;"/></g><g class="points"/><g class="text"/></g><g class="trace scatter trace3eb551" style="stroke-miterlimit: 2; opacity: 1;"><g class="fills"/><g class="errorbars"/><g class="lines"><path class="js-line" d="M56.1,10.7L61.4,27.84L62.65,31.25L69.84,48.17L71.47,51.52L80.52,68.15L82.51,71.44L93.39,87.69L95.75,90.9L108.51,106.68L111.27,109.77L123.07,121.86L126.22,124.81L139.68,136.24L143.27,139L158.57,149.61L162.65,152.15L179.94,161.77L184.47,164.02L203.08,172.36L207.8,174.25L226.62,180.95L231.25,182.38L249.17,187.08L253.43,187.97L269.32,190.31L272.95,190.57L286.13,190.46L289.15,190.19L303.02,187.87L305.62,187.27L331.26,181.73L334.01,181.42L345.63,180.93L348.68,180.98L367.8,182.19L371.09,182.5L413.43,185.94L416.52,185.99L440.39,185.36L443.3,185.19L487.44,183.3L490.49,183.31L530.82,184.3L533.93,184.39L570.68,184.68L573.69,184.64L667.7,184.24L670.76,184.26L740.72,184.23L743.75,184.22L847.26,184.28L850.3,184.27L965.92,184.21" style="vector-effect: none; fill: none; stroke: rgb(237, 120, 51); stroke-opacity: 1; stroke-width: 2px; opacity: 1;"/></g><g class="points"/><g class="text"/></g><g class="trace scatter trace9c9a86" style="stroke-miterlimit: 2; opacity: 1;"><g class="fills"/><g class="errorbars"/><g class="lines"><path class="js-line" d="M56.1,10.7L61.53,27.83L62.8,31.24L70.13,48.13L71.79,51.48L81,68.08L83.02,71.36L94.09,87.58L96.48,90.78L109.47,106.5L112.27,109.58L127.4,124.6L130.66,127.52L144.49,138.89L148.16,141.64L163.68,152.29L167.76,154.83L184.61,164.42L188.93,166.64L206.37,174.65L210.73,176.41L227.99,182.32L232.21,183.5L248.53,186.8L252.44,187.27L267.39,187.95L270.98,187.87L288.11,186.47L291.4,186.06L322.41,182.5L325.38,182.39L342.96,182.66L345.86,182.82L390.1,185.28L393.15,185.28L427.28,184.35L430.4,184.24L464.19,183.71L467.21,183.74L558.15,184.26L561.21,184.23L631.17,184.28L634.2,184.29L841.17,184.23L844.21,184.23L965.79,184.25" style="vector-effect: none; fill: none; stroke: rgb(232, 98, 46); stroke-opacity: 1; stroke-width: 2px; opacity: 1;"/></g><g class="points"/><g class="text"/></g><g class="trace scatter trace556596" style="stroke-miterlimit: 2; opacity: 1;"><g class="fills"/><g class="errorbars"/><g class="lines"><path class="js-line" d="M56.1,10.7L61.6,27.82L62.89,31.23L70.27,48.12L71.94,51.47L81.18,68.05L83.22,71.33L94.3,87.55L96.71,90.74L109.7,106.47L112.5,109.55L127.53,124.64L130.75,127.59L147.95,141.9L151.61,144.67L166.9,155.25L170.86,157.75L187.16,166.96L191.33,169.04L208.27,176.28L212.56,177.79L225.45,181.52L229.76,182.48L246.86,185.02L251.08,185.38L267.55,185.96L271.55,185.94L297.45,184.85L300.79,184.66L329.39,183.93L331.96,183.94L437.61,184.18L440.59,184.18L676.92,184.24L679.96,184.24L965.37,184.24" style="vector-effect: none; fill: none; stroke: rgb(227, 75, 40); stroke-opacity: 1; stroke-width: 2px; opacity: 1;"/></g><g class="points"/><g class="text"/></g><g class="trace scatter traceac7638" style="stroke-miterlimit: 2; opacity: 1;"><g class="fills"/><g class="errorbars"/><g class="lines"><path class="js-line" d="M56.1,10.7L61.62,27.82L62.91,31.23L70.28,48.12L71.93,51.47L81.13,68.06L83.15,71.35L94.16,87.58L96.55,90.78L109.41,106.54L112.17,109.64L126.95,124.84L130.1,127.82L146.85,142.29L150.41,145.08L165.31,155.65L169.2,158.12L185.5,167.15L189.75,169.17L202.93,174.54L207.47,176.08L221.46,179.94L226.2,180.99L245.18,184.11L249.86,184.66L272.05,186.22L276.16,186.35L300.15,186.05L302.9,185.89L347.78,183.35L350.92,183.39L431.11,184.43L433.92,184.37L481.49,184.09L484.65,184.12L567.07,184.18L570.09,184.18L777.23,184.24L780.27,184.24L965.38,184.24" style="vector-effect: none; fill: none; stroke: rgb(222, 53, 35); stroke-opacity: 1; stroke-width: 2px; opacity: 1;"/></g><g class="points"/><g class="text"/></g><g class="trace scatter trace402cd2" style="stroke-miterlimit: 2; opacity: 1;"><g class="fills"/><g class="errorbars"/><g class="lines"><path class="js-line" d="M56.1,10.7L61.59,27.82L62.87,31.23L70.17,48.13L71.82,51.48L80.91,68.1L82.91,71.39L93.78,87.65L96.13,90.86L108.78,106.69L111.49,109.8L125.93,125.12L129,128.13L145.38,142.7L148.9,145.49L163.95,156.07L167.98,158.54L180.78,165.47L185.3,167.6L199.67,173.38L204.71,175.1L225.5,180.89L230.73,182.08L251.06,185.77L255.87,186.43L273.28,188.05L277.05,188.19L289.48,187.83L292.04,187.54L304.89,185.05L306.85,184.6L317.59,182.76L320.1,182.56L335.03,182.5L338.38,182.64L393.04,185.21L395.96,185.15L450.68,183.82L453.85,183.87L515.83,184.36L518.78,184.32L576.39,184.23L579.48,184.25L695.11,184.26L698.16,184.26L965.36,184.24" style="vector-effect: none; fill: none; stroke: rgb(217, 30, 30); stroke-opacity: 1; stroke-width: 2px; opacity: 1;"/></g><g class="points"/><g class="text"/></g></g></g></g><path class="xlines-above crisp" d="M0,0" style="fill: none;"/><path class="ylines-above crisp" d="M0,0" style="fill: none;"/><g class="overlines-above"/><g class="xaxislayer-above"><g class="xtick"><text text-anchor="middle" x="0" y="343" transform="translate(154.1,0)" style="font-family: 'Open Sans', verdana, arial, sans-serif; font-size: 28px; fill: rgb(0, 0, 0); fill-opacity: 1; white-space: pre; opacity: 1;">0</text></g><g class="xtick"><text text-anchor="middle" x="0" y="343" style="font-family: 'Open Sans', verdana, arial, sans-serif; font-size: 28px; fill: rgb(0, 0, 0); fill-opacity: 1; white-space: pre; opacity: 1;" transform="translate(305.73,0)">0.5</text></g><g class="xtick"><text text-anchor="middle" x="0" y="343" style="font-family: 'Open Sans', verdana, arial, sans-serif; font-size: 28px; fill: rgb(0, 0, 0); fill-opacity: 1; white-space: pre; opacity: 1;" transform="translate(457.37,0)">1</text></g><g class="xtick"><text text-anchor="middle" x="0" y="343" style="font-family: 'Open Sans', verdana, arial, sans-serif; font-size: 28px; fill: rgb(0, 0, 0); fill-opacity: 1; white-space: pre; opacity: 1;" transform="translate(609,0)">1.5</text></g><g class="xtick"><text text-anchor="middle" x="0" y="343" style="font-family: 'Open Sans', verdana, arial, sans-serif; font-size: 28px; fill: rgb(0, 0, 0); fill-opacity: 1; white-space: pre; opacity: 1;" transform="translate(760.63,0)">2</text></g><g class="xtick"><text text-anchor="middle" x="0" y="343" style="font-family: 'Open Sans', verdana, arial, sans-serif; font-size: 28px; fill: rgb(0, 0, 0); fill-opacity: 1; white-space: pre; opacity: 1;" transform="translate(912.27,0)">2.5</text></g><g class="xtick"><text text-anchor="middle" x="0" y="343" style="font-family: 'Open Sans', verdana, arial, sans-serif; font-size: 28px; fill: rgb(0, 0, 0); fill-opacity: 1; white-space: pre; opacity: 1;" transform="translate(1063.9,0)">3</text></g></g><g class="yaxislayer-above"><g class="ytick"><text text-anchor="end" x="97" y="9.799999999999999" transform="translate(0,284.24)" style="font-family: 'Open Sans', verdana, arial, sans-serif; font-size: 28px; fill: rgb(0, 0, 0); fill-opacity: 1; white-space: pre; opacity: 1;">0</text></g><g class="ytick"><text text-anchor="end" x="97" y="9.799999999999999" style="font-family: 'Open Sans', verdana, arial, sans-serif; font-size: 28px; fill: rgb(0, 0, 0); fill-opacity: 1; white-space: pre; opacity: 1;" transform="translate(0,249.53)">0.2</text></g><g class="ytick"><text text-anchor="end" x="97" y="9.799999999999999" style="font-family: 'Open Sans', verdana, arial, sans-serif; font-size: 28px; fill: rgb(0, 0, 0); fill-opacity: 1; white-space: pre; opacity: 1;" transform="translate(0,214.82999999999998)">0.4</text></g><g class="ytick"><text text-anchor="end" x="97" y="9.799999999999999" style="font-family: 'Open Sans', verdana, arial, sans-serif; font-size: 28px; fill: rgb(0, 0, 0); fill-opacity: 1; white-space: pre; opacity: 1;" transform="translate(0,180.12)">0.6</text></g><g class="ytick"><text text-anchor="end" x="97" y="9.799999999999999" style="font-family: 'Open Sans', verdana, arial, sans-serif; font-size: 28px; fill: rgb(0, 0, 0); fill-opacity: 1; white-space: pre; opacity: 1;" transform="translate(0,145.41)">0.8</text></g><g class="ytick"><text text-anchor="end" x="97" y="9.799999999999999" style="font-family: 'Open Sans', verdana, arial, sans-serif; font-size: 28px; fill: rgb(0, 0, 0); fill-opacity: 1; white-space: pre; opacity: 1;" transform="translate(0,110.7)">1</text></g></g><g class="overaxes-above"/></g></g><g class="polarlayer"/><g class="smithlayer"/><g class="ternarylayer"/><g class="geolayer"/><g class="funnelarealayer"/><g class="pielayer"/><g class="iciclelayer"/><g class="treemaplayer"/><g class="sunburstlayer"/><g class="glimages"/><defs id="topdefs-5b4671"><g class="clips"/><clipPath id="legend5b4671"><rect width="228" height="196" x="2" y="2"/></clipPath></defs><g class="layer-above"><g class="imagelayer"/><g class="shapelayer"/></g><g class="infolayer"><g class="legend" pointer-events="all" transform="translate(877.78,95.72)"><rect class="bg" shape-rendering="crispEdges" style="stroke: rgb(0, 0, 0); stroke-opacity: 1; fill: rgb(255, 255, 255); fill-opacity: 1; stroke-width: 2px;" width="230" height="198" x="1" y="1"/><g class="scrollbox" transform="" clip-path="url(#legend5b4671)"><g class="groups" transform=""><g class="traces" transform="translate(2,28.650000000000002)" style="opacity: 1;"><text class="legendtext" text-anchor="start" x="5" y="12.090000000000002" style="font-family: 'Open Sans', verdana, arial, sans-serif; font-size: 31px; fill: rgb(0, 0, 0); fill-opacity: 1; white-space: pre;">Reference</text><g class="layers"><g class="legendfill"/><g class="legendlines"/><g class="legendsymbols"><g class="legendpoints"/></g></g><rect class="legendtoggle" x="0" y="-21.650000000000002" width="222.65625" height="43.300000000000004" style="fill: rgb(0, 0, 0); fill-opacity: 0;"/></g><g class="traces" transform="translate(2,70)" style="opacity: 1;"><text class="legendtext" text-anchor="start" x="40" y="10.92" style="font-family: 'Open Sans', verdana, arial, sans-serif; font-size: 28px; fill: rgb(0, 0, 0); fill-opacity: 1; white-space: pre;">Reference</text><g class="layers" style="opacity: 1;"><g class="legendfill"/><g class="legendlines"><path class="js-line" d="M5,0h30" style="fill: none; stroke: rgb(0, 0, 0); stroke-opacity: 1; stroke-width: 2px;"/></g><g class="legendsymbols"><g class="legendpoints"/></g></g><rect class="legendtoggle" x="0" y="-19.7" width="222.65625" height="39.4" style="fill: rgb(0, 0, 0); fill-opacity: 0;"/></g><g class="traces" transform="translate(2,109.4)" style="opacity: 1;"><text class="legendtext" text-anchor="start" x="40" y="10.92" style="font-family: 'Open Sans', verdana, arial, sans-serif; font-size: 28px; fill: rgb(0, 0, 0); fill-opacity: 1; white-space: pre;">Control point</text><g class="layers" style="opacity: 1;"><g class="legendfill"/><g class="legendlines"/><g class="legendsymbols"><g class="legendpoints"><path class="scatterpts" transform="translate(20,0)" d="M4,0A4,4 0 1,1 0,-4A4,4 0 0,1 4,0Z" style="opacity: 1; stroke-width: 0px; fill: rgb(0, 0, 0); fill-opacity: 1;"/></g></g></g><rect class="legendtoggle" x="0" y="-19.7" width="222.65625" height="39.4" style="fill: rgb(0, 0, 0); fill-opacity: 0;"/></g></g><g class="groups" transform="translate(0,10)"><g class="traces" transform="translate(2,150.75)" style="opacity: 1;"><text class="legendtext" text-anchor="start" x="5" y="12.090000000000002" style="font-family: 'Open Sans', verdana, arial, sans-serif; font-size: 31px; fill: rgb(0, 0, 0); fill-opacity: 1; white-space: pre;">Trajectory</text><g class="layers"><g class="legendfill"/><g class="legendlines"/><g class="legendsymbols"><g class="legendpoints"/></g></g><rect class="legendtoggle" x="0" y="-21.650000000000002" width="222.65625" height="43.300000000000004" style="fill: rgb(0, 0, 0); fill-opacity: 0;"/></g><g class="traces" transform="translate(2,192.1)" style="opacity: 1;"><text class="legendtext" text-anchor="start" x="40" y="10.92" style="font-family: 'Open Sans', verdana, arial, sans-serif; font-size: 28px; fill: rgb(0, 0, 0); fill-opacity: 1; white-space: pre;">N = 4</text><g class="layers" style="opacity: 1;"><g class="legendfill"/><g class="legendlines"><path class="js-line" d="M5,0h30" style="fill: none; stroke: rgb(10, 119, 175); stroke-opacity: 1; stroke-width: 2px;"/></g><g class="legendsymbols"><g class="legendpoints"/></g></g><rect class="legendtoggle" x="0" y="-19.7" width="222.65625" height="39.4" style="fill: rgb(0, 0, 0); fill-opacity: 0;"/></g><g class="traces" transform="translate(2,231.5)" style="opacity: 1;"><text class="legendtext" text-anchor="start" x="40" y="10.92" style="font-family: 'Open Sans', verdana, arial, sans-serif; font-size: 28px; fill: rgb(0, 0, 0); fill-opacity: 1; white-space: pre;">N = 5</text><g class="layers" style="opacity: 1;"><g class="legendfill"/><g class="legendlines"><path class="js-line" d="M5,0h30" style="fill: none; stroke: rgb(10, 136, 186); stroke-opacity: 1; stroke-width: 2px;"/></g><g class="legendsymbols"><g class="legendpoints"/></g></g><rect class="legendtoggle" x="0" y="-19.7" width="222.65625" height="39.4" style="fill: rgb(0, 0, 0); fill-opacity: 0;"/></g><g class="traces" transform="translate(2,270.90000000000003)" style="opacity: 1;"><text class="legendtext" text-anchor="start" x="40" y="10.92" style="font-family: 'Open Sans', verdana, arial, sans-serif; font-size: 28px; fill: rgb(0, 0, 0); fill-opacity: 1; white-space: pre;">N = 10</text><g class="layers" style="opacity: 1;"><g class="legendfill"/><g class="legendlines"><path class="js-line" d="M5,0h30" style="fill: none; stroke: rgb(242, 211, 56); stroke-opacity: 1; stroke-width: 2px;"/></g><g class="legendsymbols"><g class="legendpoints"/></g></g><rect class="legendtoggle" x="0" y="-19.7" width="222.65625" height="39.4" style="fill: rgb(0, 0, 0); fill-opacity: 0;"/></g><g class="traces" transform="translate(2,310.3)" style="opacity: 1;"><text class="legendtext" text-anchor="start" x="40" y="10.92" style="font-family: 'Open Sans', verdana, arial, sans-serif; font-size: 28px; fill: rgb(0, 0, 0); fill-opacity: 1; white-space: pre;">N = 15</text><g class="layers" style="opacity: 1;"><g class="legendfill"/><g class="legendlines"><path class="js-line" d="M5,0h30" style="fill: none; stroke: rgb(242, 143, 56); stroke-opacity: 1; stroke-width: 2px;"/></g><g class="legendsymbols"><g class="legendpoints"/></g></g><rect class="legendtoggle" x="0" y="-19.7" width="222.65625" height="39.4" style="fill: rgb(0, 0, 0); fill-opacity: 0;"/></g><g class="traces" transform="translate(2,349.7)" style="opacity: 1;"><text class="legendtext" text-anchor="start" x="40" y="10.92" style="font-family: 'Open Sans', verdana, arial, sans-serif; font-size: 28px; fill: rgb(0, 0, 0); fill-opacity: 1; white-space: pre;">N = 20</text><g class="layers" style="opacity: 1;"><g class="legendfill"/><g class="legendlines"><path class="js-line" d="M5,0h30" style="fill: none; stroke: rgb(217, 30, 30); stroke-opacity: 1; stroke-width: 2px;"/></g><g class="legendsymbols"><g class="legendpoints"/></g></g><rect class="legendtoggle" x="0" y="-19.7" width="222.65625" height="39.4" style="fill: rgb(0, 0, 0); fill-opacity: 0;"/></g></g></g><rect class="scrollbar" rx="20" ry="3" width="0" height="0" style="fill: rgb(128, 139, 164); fill-opacity: 1;" x="0" y="0"/></g><g class="g-gtitle"/><g class="g-xtitle"><text class="xtitle" x="609" y="387.3" text-anchor="middle" style="opacity: 1; font-family: 'Open Sans', verdana, arial, sans-serif; font-size: 34px; fill: rgb(0, 0, 0); fill-opacity: 1; white-space: pre;">East [m]</text></g><g class="g-ytitle" transform="translate(9.197265625,0)"><text class="ytitle" transform="rotate(-90,24.803124999999994,207)" x="24.803124999999994" y="207" text-anchor="middle" style="opacity: 1; font-family: 'Open Sans', verdana, arial, sans-serif; font-size: 34px; fill: rgb(0, 0, 0); fill-opacity: 1; white-space: pre;">North [m]</text></g></g></svg>