<svg class="main-svg" xmlns="http://www.w3.org/2000/svg" xmlns:xlink="http://www.w3.org/1999/xlink" width="1320" height="330" style="" viewBox="0 0 1320 330"><rect x="0" y="0" width="1320" height="330" style="fill: rgb(255, 255, 255); fill-opacity: 1;"/><defs id="defs-fc9d20"><g class="clips"><clipPath id="clipfc9d20xyplot" class="plotclip"><rect width="246.5" height="150"/></clipPath><clipPath id="clipfc9d20x2y2plot" class="plotclip"><rect width="246.49999999999997" height="150"/></clipPath><clipPath id="clipfc9d20x3y3plot" class="plotclip"><rect width="246.50000000000003" height="150"/></clipPath><clipPath id="clipfc9d20x4y4plot" class="plotclip"><rect width="246.50000000000003" height="150"/></clipPath><clipPath class="axesclip" id="clipfc9d20x"><rect x="80" y="0" width="246.5" height="330"/></clipPath><clipPath class="axesclip" id="clipfc9d20y"><rect x="0" y="100" width="1320" height="150"/></clipPath><clipPath class="axesclip" id="clipfc9d20xy"><rect x="80" y="100" width="246.5" height="150"/></clipPath><clipPath class="axesclip" id="clipfc9d20y2"><rect x="0" y="100" width="1320" height="150"/></clipPath><clipPath class="axesclip" id="clipfc9d20xy2"><rect x="80" y="100" width="246.5" height="150"/></clipPath><clipPath class="axesclip" id="clipfc9d20y3"><rect x="0" y="100" width="1320" height="150"/></clipPath><clipPath class="axesclip" id="clipfc9d20xy3"><rect x="80" y="100" width="246.5" height="150"/></clipPath><clipPath class="axesclip" id="clipfc9d20y4"><rect x="0" y="100" width="1320" height="150"/></clipPath><clipPath class="axesclip" id="clipfc9d20xy4"><rect x="80" y="100" width="246.5" height="150"/></clipPath><clipPath class="axesclip" id="clipfc9d20x2"><rect x="384.5" y="0" width="246.49999999999997" height="330"/></clipPath><clipPath class="axesclip" id="clipfc9d20x2y"><rect x="384.5" y="100" width="246.49999999999997" height="150"/></clipPath><clipPath class="axesclip" id="clipfc9d20x2y2"><rect x="384.5" y="100" width="246.49999999999997" height="150"/></clipPath><clipPath class="axesclip" id="clipfc9d20x2y3"><rect x="384.5" y="100" width="246.49999999999997" height="150"/></clipPath><clipPath class="axesclip" id="clipfc9d20x2y4"><rect x="384.5" y="100" width="246.49999999999997" height="150"/></clipPath><clipPath class="axesclip" id="clipfc9d20x3"><rect x="689" y="0" width="246.50000000000003" height="330"/></clipPath><clipPath class="axesclip" id="clipfc9d20x3y"><rect x="689" y="100" width="246.50000000000003" height="150"/></clipPath><clipPath class="axesclip" id="clipfc9d20x3y2"><rect x="689" y="100" width="246.50000000000003" height="150"/></clipPath><clipPath class="axesclip" id="clipfc9d20x3y3"><rect x="689" y="100" width="246.50000000000003" height="150"/></clipPath><clipPath class="axesclip" id="clipfc9d20x3y4"><rect x="689" y="100" width="246.50000000000003" height="150"/></clipPath><clipPath class="axesclip" id="clipfc9d20x4"><rect x="993.5" y="0" width="246.50000000000003" height="330"/></clipPath><clipPath class="axesclip" id="clipfc9d20x4y"><rect x="993.5" y="100" width="246.50000000000003" height="150"/></clipPath><clipPath class="axesclip" id="clipfc9d20x4y2"><rect x="993.5" y="100" width="246.50000000000003" height="150"/></clipPath><clipPath class="axesclip" id="clipfc9d20x4y3"><rect x="993.5" y="100" width="246.50000000000003" height="150"/></clipPath><clipPath class="axesclip" id="clipfc9d20x4y4"><rect x="993.5" y="100" width="246.50000000000003" height="150"/></clipPath></g><g class="gradients"/><g class="patterns"/></defs><g class="bglayer"/><g class="layer-below"><g class="imagelayer"/><g class="shapelayer"/></g><g class="cartesianlayer"><g class="subplot xy"><g class="layer-subplot"><g class="shapelayer"/><g class="imagelayer"/></g><g class="minor-gridlayer"><g class="x"/><g class="y"/></g><g class="gridlayer"><g class="x"><path class="xgrid crisp" transform="translate(172.53,0)" d="M0,100v150" style="stroke: rgb(200, 200, 200); stroke-opacity: 1; stroke-width: 1px;"/><path class="xgrid crisp" transform="translate(240.23,0)" d="M0,100v150" style="stroke: rgb(200, 200, 200); stroke-opacity: 1; stroke-width: 1px;"/><path class="xgrid crisp" transform="translate(307.93,0)" d="M0,100v150" style="stroke: rgb(200, 200, 200); stroke-opacity: 1; stroke-width: 1px;"/></g><g class="y"><path class="ygrid crisp" transform="translate(0,246.43)" d="M80,0h246.5" style="stroke: rgb(200, 200, 200); stroke-opacity: 1; stroke-width: 1px;"/><path class="ygrid crisp" transform="translate(0,222.62)" d="M80,0h246.5" style="stroke: rgb(200, 200, 200); stroke-opacity: 1; stroke-width: 1px;"/><path class="ygrid crisp" transform="translate(0,198.81)" d="M80,0h246.5" style="stroke: rgb(200, 200, 200); stroke-opacity: 1; stroke-width: 1px;"/><path class="ygrid crisp" transform="translate(0,151.19)" d="M80,0h246.5" style="stroke: rgb(200, 200, 200); stroke-opacity: 1; stroke-width: 1px;"/><path class="ygrid crisp" transform="translate(0,127.38)" d="M80,0h246.5" style="stroke: rgb(200, 200, 200); stroke-opacity: 1; stroke-width: 1px;"/><path class="ygrid crisp" transform="translate(0,103.57)" d="M80,0h246.5" style="stroke: rgb(200, 200, 200); stroke-opacity: 1; stroke-width: 1px;"/></g></g><g class="zerolinelayer"><path class="xzl zl crisp" transform="translate(104.83,0)" d="M0,100v150" style="stroke: rgb(200, 200, 200); stroke-opacity: 1; stroke-width: 2px;"/><path class="yzl zl crisp" transform="translate(0,175)" d="M80,0h246.5" style="stroke: rgb(0, 0, 0); stroke-opacity: 1; stroke-width: 3px;"/></g><g class="layer-between"><g class="shapelayer"/><g class="imagelayer"/></g><path class="xlines-below"/><path class="ylines-below"/><g class="overlines-below"/><g class="xaxislayer-below"/><g class="yaxislayer-below"/><g class="overaxes-below"/><g class="overplot"><g class="xy" transform="translate(80,100)" clip-path="url(#clipfc9d20xyplot)"><g class="scatterlayer mlayer"><g class="trace scatter tracea80a95" style="stroke-miterlimit: 2; opacity: 1;"><g class="fills"/><g class="errorbars"/><g class="lines"><path class="js-line" d="M24.83,75L24.83,21.57" style="vector-effect: none; fill: none; stroke: rgb(0, 0, 0); stroke-opacity: 1; stroke-width: 4px; opacity: 1;"/></g><g class="points"><path class="point" transform="translate(24.83,75)" d="M0,0Z" style="opacity: 1; stroke-width: 0px; fill: rgb(0, 0, 0); fill-opacity: 1;"/><path class="point" transform="translate(24.83,3.57)" d="M0,0L-6.180339887498949,19.02113032590307L6.180339887498949,19.02113032590307Z" style="opacity: 1; stroke-width: 0px; fill: rgb(0, 0, 0); fill-opacity: 1;"/></g><g class="text"/></g><g class="trace scatter tracecaed45" style="stroke-miterlimit: 2; opacity: 1;"><g class="fills"/><g class="errorbars"/><g class="lines"/><g class="points"><path class="point" transform="translate(92.53,75)" d="M5,0A5,5 0 1,1 0,-5A5,5 0 0,1 5,0Z" style="opacity: 1; stroke-width: 0px; fill: rgb(0, 0, 0); fill-opacity: 1;"/></g><g class="text"/></g><g class="trace scatter tracef790c8" style="stroke-miterlimit: 2; opacity: 1;"><g class="fills"/><g class="errorbars"/><g class="lines"/><g class="points"><path class="point" transform="translate(160.23,75)" d="M5,0A5,5 0 1,1 0,-5A5,5 0 0,1 5,0Z" style="opacity: 1; stroke-width: 0px; fill: rgb(0, 0, 0); fill-opacity: 1;"/></g><g class="text"/></g><g class="trace scatter trace76e2fc" style="stroke-miterlimit: 2; opacity: 1;"><g class="fills"/><g class="errorbars"/><g class="lines"/><g class="points"><path class="point" transform="translate(227.93,75)" d="M5,0A5,5 0 1,1 0,-5A5,5 0 0,1 5,0Z" style="opacity: 1; stroke-width: 0px; fill: rgb(0, 0, 0); fill-opacity: 1;"/></g><g class="text"/></g></g></g></g><path class="xlines-above crisp" d="M0,0" style="fill: none;"/><path class="ylines-above crisp" d="M0,0" style="fill: none;"/><g class="overlines-above"/><g class="xaxislayer-above"><g class="xtick"><text text-anchor="middle" x="0" y="271" transform="translate(104.83,0)" style="font-family: 'Open Sans', verdana, arial, sans-serif; font-size: 20px; fill: rgb(42, 63, 95); fill-opacity: 1; white-space: pre; opacity: 1;">\(c_1\)</text></g><g class="xtick"><text text-anchor="middle" x="0" y="271" style="font-family: 'Open Sans', verdana, arial, sans-serif; font-size: 20px; fill: rgb(42, 63, 95); fill-opacity: 1; white-space: pre; opacity: 1;" transform="translate(172.53,0)">\(c_2\)</text></g><g class="xtick"><text text-anchor="middle" x="0" y="271" style="font-family: 'Open Sans', verdana, arial, sans-serif; font-size: 20px; fill: rgb(42, 63, 95); fill-opacity: 1; white-space: pre; opacity: 1;" transform="translate(240.23,0)">\(c_3\)</text></g><g class="xtick"><text text-anchor="middle" x="0" y="271" style="font-family: 'Open Sans', verdana, arial, sans-serif; font-size: 20px; fill: rgb(42, 63, 95); fill-opacity: 1; white-space: pre; opacity: 1;" transform="translate(307.93,0)">\(c_4\)</text></g></g><g class="yaxislayer-above"/><g class="overaxes-above"/></g><g class="subplot x2y2"><g class="layer-subplot"><g class="shapelayer"/><g class="imagelayer"/></g><g class="minor-gridlayer"><g class="x2"/><g class="y2"/></g><g class="gridlayer"><g class="x2"><path class="x2grid crisp" transform="translate(472.86,0)" d="M0,100v150" style="stroke: rgb(200, 200, 200); stroke-opacity: 1; stroke-width: 1px;"/><path class="x2grid crisp" transform="translate(542.64,0)" d="M0,100v150" style="stroke: rgb(200, 200, 200); stroke-opacity: 1; stroke-width: 1px;"/><path class="x2grid crisp" transform="translate(612.42,0)" d="M0,100v150" style="stroke: rgb(200, 200, 200); stroke-opacity: 1; stroke-width: 1px;"/></g><g class="y2"><path class="y2grid crisp" transform="translate(0,246.43)" d="M384.5,0h246.49999999999997" style="stroke: rgb(200, 200, 200); stroke-opacity: 1; stroke-width: 1px;"/><path class="y2grid crisp" transform="translate(0,222.62)" d="M384.5,0h246.49999999999997" style="stroke: rgb(200, 200, 200); stroke-opacity: 1; stroke-width: 1px;"/><path class="y2grid crisp" transform="translate(0,198.81)" d="M384.5,0h246.49999999999997" style="stroke: rgb(200, 200, 200); stroke-opacity: 1; stroke-width: 1px;"/><path class="y2grid crisp" transform="translate(0,151.19)" d="M384.5,0h246.49999999999997" style="stroke: rgb(200, 200, 200); stroke-opacity: 1; stroke-width: 1px;"/><path class="y2grid crisp" transform="translate(0,127.38)" d="M384.5,0h246.49999999999997" style="stroke: rgb(200, 200, 200); stroke-opacity: 1; stroke-width: 1px;"/><path class="y2grid crisp" transform="translate(0,103.57)" d="M384.5,0h246.49999999999997" style="stroke: rgb(200, 200, 200); stroke-opacity: 1; stroke-width: 1px;"/></g></g><g class="zerolinelayer"><path class="x2zl zl crisp" transform="translate(403.07,0)" d="M0,100v150" style="stroke: rgb(200, 200, 200); stroke-opacity: 1; stroke-width: 2px;"/><path class="y2zl zl crisp" transform="translate(0,175)" d="M384.5,0h246.49999999999997" style="stroke: rgb(0, 0, 0); stroke-opacity: 1; stroke-width: 3px;"/></g><g class="layer-between"><g class="shapelayer"/><g class="imagelayer"/></g><path class="xlines-below"/><path class="ylines-below"/><g class="overlines-below"/><g class="xaxislayer-below"/><g class="yaxislayer-below"/><g class="overaxes-below"/><g class="overplot"><g class="x2y2" transform="translate(384.5,100)" clip-path="url(#clipfc9d20x2y2plot)"><g class="scatterlayer mlayer"><g class="trace scatter trace28f723" style="stroke-miterlimit: 2; opacity: 1;"><g class="fills"/><g class="errorbars"/><g class="lines"/><g class="points"><path class="point" transform="translate(18.57,75)" d="M5,0A5,5 0 1,1 0,-5A5,5 0 0,1 5,0Z" style="opacity: 1; stroke-width: 0px; fill: rgb(0, 0, 0); fill-opacity: 1;"/></g><g class="text"/></g><g class="trace scatter tracebce04b" style="stroke-miterlimit: 2; opacity: 1;"><g class="fills"/><g class="errorbars"/><g class="lines"><path class="js-line" d="M88.36,75L88.36,21.57" style="vector-effect: none; fill: none; stroke: rgb(0, 0, 0); stroke-opacity: 1; stroke-width: 4px; opacity: 1;"/></g><g class="points"><path class="point" transform="translate(88.36,75)" d="M0,0Z" style="opacity: 1; stroke-width: 0px; fill: rgb(0, 0, 0); fill-opacity: 1;"/><path class="point" transform="translate(88.36,3.57)" d="M0,0L-6.180339887498949,19.02113032590307L6.180339887498949,19.02113032590307Z" style="opacity: 1; stroke-width: 0px; fill: rgb(0, 0, 0); fill-opacity: 1;"/></g><g class="text"/></g><g class="trace scatter tracef59b4a" style="stroke-miterlimit: 2; opacity: 1;"><g class="fills"/><g class="errorbars"/><g class="lines"/><g class="points"><path class="point" transform="translate(158.14,75)" d="M5,0A5,5 0 1,1 0,-5A5,5 0 0,1 5,0Z" style="opacity: 1; stroke-width: 0px; fill: rgb(0, 0, 0); fill-opacity: 1;"/></g><g class="text"/></g><g class="trace scatter trace4f071f" style="stroke-miterlimit: 2; opacity: 1;"><g class="fills"/><g class="errorbars"/><g class="lines"/><g class="points"><path class="point" transform="translate(227.92,75)" d="M5,0A5,5 0 1,1 0,-5A5,5 0 0,1 5,0Z" style="opacity: 1; stroke-width: 0px; fill: rgb(0, 0, 0); fill-opacity: 1;"/></g><g class="text"/></g></g></g></g><path class="xlines-above crisp" d="M0,0" style="fill: none;"/><path class="ylines-above crisp" d="M0,0" style="fill: none;"/><g class="overlines-above"/><g class="xaxislayer-above"><g class="x2tick"><text text-anchor="middle" x="0" y="271" transform="translate(403.07,0)" style="font-family: 'Open Sans', verdana, arial, sans-serif; font-size: 20px; fill: rgb(42, 63, 95); fill-opacity: 1; white-space: pre; opacity: 1;">\(c_1\)</text></g><g class="x2tick"><text text-anchor="middle" x="0" y="271" style="font-family: 'Open Sans', verdana, arial, sans-serif; font-size: 20px; fill: rgb(42, 63, 95); fill-opacity: 1; white-space: pre; opacity: 1;" transform="translate(472.86,0)">\(c_2\)</text></g><g class="x2tick"><text text-anchor="middle" x="0" y="271" style="font-family: 'Open Sans', verdana, arial, sans-serif; font-size: 20px; fill: rgb(42, 63, 95); fill-opacity: 1; white-space: pre; opacity: 1;" transform="translate(542.64,0)">\(c_3\)</text></g><g class="x2tick"><text text-anchor="middle" x="0" y="271" style="font-family: 'Open Sans', verdana, arial, sans-serif; font-size: 20px; fill: rgb(42, 63, 95); fill-opacity: 1; white-space: pre; opacity: 1;" transform="translate(612.42,0)">\(c_4\)</text></g></g><g class="yaxislayer-above"/><g class="overaxes-above"/></g><g class="subplot x3y3"><g class="layer-subplot"><g class="shapelayer"/><g class="imagelayer"/></g><g class="minor-gridlayer"><g class="x3"/><g class="y3"/></g><g class="gridlayer"><g class="x3"><path class="x3grid crisp" transform="translate(777.36,0)" d="M0,100v150" style="stroke: rgb(200, 200, 200); stroke-opacity: 1; stroke-width: 1px;"/><path class="x3grid crisp" transform="translate(847.14,0)" d="M0,100v150" style="stroke: rgb(200, 200, 200); stroke-opacity: 1; stroke-width: 1px;"/><path class="x3grid crisp" transform="translate(916.9300000000001,0)" d="M0,100v150" style="stroke: rgb(200, 200, 200); stroke-opacity: 1; stroke-width: 1px;"/></g><g class="y3"><path class="y3grid crisp" transform="translate(0,246.43)" d="M689,0h246.50000000000003" style="stroke: rgb(200, 200, 200); stroke-opacity: 1; stroke-width: 1px;"/><path class="y3grid crisp" transform="translate(0,222.62)" d="M689,0h246.50000000000003" style="stroke: rgb(200, 200, 200); stroke-opacity: 1; stroke-width: 1px;"/><path class="y3grid crisp" transform="translate(0,198.81)" d="M689,0h246.50000000000003" style="stroke: rgb(200, 200, 200); stroke-opacity: 1; stroke-width: 1px;"/><path class="y3grid crisp" transform="translate(0,151.19)" d="M689,0h246.50000000000003" style="stroke: rgb(200, 200, 200); stroke-opacity: 1; stroke-width: 1px;"/><path class="y3grid crisp" transform="translate(0,127.38)" d="M689,0h246.50000000000003" style="stroke: rgb(200, 200, 200); stroke-opacity: 1; stroke-width: 1px;"/><path class="y3grid crisp" transform="translate(0,103.57)" d="M689,0h246.50000000000003" style="stroke: rgb(200, 200, 200); stroke-opacity: 1; stroke-width: 1px;"/></g></g><g class="zerolinelayer"><path class="x3zl zl crisp" transform="translate(707.58,0)" d="M0,100v150" style="stroke: rgb(200, 200, 200); stroke-opacity: 1; stroke-width: 2px;"/><path class="y3zl zl crisp" transform="translate(0,175)" d="M689,0h246.50000000000003" style="stroke: rgb(0, 0, 0); stroke-opacity: 1; stroke-width: 3px;"/></g><g class="layer-between"><g class="shapelayer"/><g class="imagelayer"/></g><path class="xlines-below"/><path class="ylines-below"/><g class="overlines-below"/><g class="xaxislayer-below"/><g class="yaxislayer-below"/><g class="overaxes-below"/><g class="overplot"><g class="x3y3" transform="translate(689,100)" clip-path="url(#clipfc9d20x3y3plot)"><g class="scatterlayer mlayer"><g class="trace scatter trace09da69" style="stroke-miterlimit: 2; opacity: 1;"><g class="fills"/><g class="errorbars"/><g class="lines"/><g class="points"><path class="point" transform="translate(18.58,75)" d="M5,0A5,5 0 1,1 0,-5A5,5 0 0,1 5,0Z" style="opacity: 1; stroke-width: 0px; fill: rgb(0, 0, 0); fill-opacity: 1;"/></g><g class="text"/></g><g class="trace scatter trace074100" style="stroke-miterlimit: 2; opacity: 1;"><g class="fills"/><g class="errorbars"/><g class="lines"/><g class="points"><path class="point" transform="translate(88.36,75)" d="M5,0A5,5 0 1,1 0,-5A5,5 0 0,1 5,0Z" style="opacity: 1; stroke-width: 0px; fill: rgb(0, 0, 0); fill-opacity: 1;"/></g><g class="text"/></g><g class="trace scatter trace547713" style="stroke-miterlimit: 2; opacity: 1;"><g class="fills"/><g class="errorbars"/><g class="lines"><path class="js-line" d="M158.14,75L158.14,21.57" style="vector-effect: none; fill: none; stroke: rgb(0, 0, 0); stroke-opacity: 1; stroke-width: 4px; opacity: 1;"/></g><g class="points"><path class="point" transform="translate(158.14,75)" d="M0,0Z" style="opacity: 1; stroke-width: 0px; fill: rgb(0, 0, 0); fill-opacity: 1;"/><path class="point" transform="translate(158.14,3.57)" d="M0,0L-6.180339887498949,19.02113032590307L6.180339887498949,19.02113032590307Z" style="opacity: 1; stroke-width: 0px; fill: rgb(0, 0, 0); fill-opacity: 1;"/></g><g class="text"/></g><g class="trace scatter tracea69f5a" style="stroke-miterlimit: 2; opacity: 1;"><g class="fills"/><g class="errorbars"/><g class="lines"/><g class="points"><path class="point" transform="translate(227.93,75)" d="M5,0A5,5 0 1,1 0,-5A5,5 0 0,1 5,0Z" style="opacity: 1; stroke-width: 0px; fill: rgb(0, 0, 0); fill-opacity: 1;"/></g><g class="text"/></g></g></g></g><path class="xlines-above crisp" d="M0,0" style="fill: none;"/><path class="ylines-above crisp" d="M0,0" style="fill: none;"/><g class="overlines-above"/><g class="xaxislayer-above"><g class="x3tick"><text text-anchor="middle" x="0" y="271" transform="translate(707.58,0)" style="font-family: 'Open Sans', verdana, arial, sans-serif; font-size: 20px; fill: rgb(42, 63, 95); fill-opacity: 1; white-space: pre; opacity: 1;">\(c_1\)</text></g><g class="x3tick"><text text-anchor="middle" x="0" y="271" style="font-family: 'Open Sans', verdana, arial, sans-serif; font-size: 20px; fill: rgb(42, 63, 95); fill-opacity: 1; white-space: pre; opacity: 1;" transform="translate(777.36,0)">\(c_2\)</text></g><g class="x3tick"><text text-anchor="middle" x="0" y="271" style="font-family: 'Open Sans', verdana, arial, sans-serif; font-size: 20px; fill: rgb(42, 63, 95); fill-opacity: 1; white-space: pre; opacity: 1;" transform="translate(847.14,0)">\(c_3\)</text></g><g class="x3tick"><text text-anchor="middle" x="0" y="271" style="font-family: 'Open Sans', verdana, arial, sans-serif; font-size: 20px; fill: rgb(42, 63, 95); fill-opacity: 1; white-space: pre; opacity: 1;" transform="translate(916.9300000000001,0)">\(c_4\)</text></g></g><g class="yaxislayer-above"/><g class="overaxes-above"/></g><g class="subplot x4y4"><g class="layer-subplot"><g class="shapelayer"/><g class="imagelayer"/></g><g class="minor-gridlayer"><g class="x4"/><g class="y4"/></g><g class="gridlayer"><g class="x4"><path class="x4grid crisp" transform="translate(1079.78,0)" d="M0,100v150" style="stroke: rgb(200, 200, 200); stroke-opacity: 1; stroke-width: 1px;"/><path class="x4grid crisp" transform="translate(1147.48,0)" d="M0,100v150" style="stroke: rgb(200, 200, 200); stroke-opacity: 1; stroke-width: 1px;"/><path class="x4grid crisp" transform="translate(1215.18,0)" d="M0,100v150" style="stroke: rgb(200, 200, 200); stroke-opacity: 1; stroke-width: 1px;"/></g><g class="y4"><path class="y4grid crisp" transform="translate(0,246.43)" d="M993.5,0h246.50000000000003" style="stroke: rgb(200, 200, 200); stroke-opacity: 1; stroke-width: 1px;"/><path class="y4grid crisp" transform="translate(0,222.62)" d="M993.5,0h246.50000000000003" style="stroke: rgb(200, 200, 200); stroke-opacity: 1; stroke-width: 1px;"/><path class="y4grid crisp" transform="translate(0,198.81)" d="M993.5,0h246.50000000000003" style="stroke: rgb(200, 200, 200); stroke-opacity: 1; stroke-width: 1px;"/><path class="y4grid crisp" transform="translate(0,151.19)" d="M993.5,0h246.50000000000003" style="stroke: rgb(200, 200, 200); stroke-opacity: 1; stroke-width: 1px;"/><path class="y4grid crisp" transform="translate(0,127.38)" d="M993.5,0h246.50000000000003" style="stroke: rgb(200, 200, 200); stroke-opacity: 1; stroke-width: 1px;"/><path class="y4grid crisp" transform="translate(0,103.57)" d="M993.5,0h246.50000000000003" style="stroke: rgb(200, 200, 200); stroke-opacity: 1; stroke-width: 1px;"/></g></g><g class="zerolinelayer"><path class="x4zl zl crisp" transform="translate(1012.08,0)" d="M0,100v150" style="stroke: rgb(200, 200, 200); stroke-opacity: 1; stroke-width: 2px;"/><path class="y4zl zl crisp" transform="translate(0,175)" d="M993.5,0h246.50000000000003" style="stroke: rgb(0, 0, 0); stroke-opacity: 1; stroke-width: 3px;"/></g><g class="layer-between"><g class="shapelayer"/><g class="imagelayer"/></g><path class="xlines-below"/><path class="ylines-below"/><g class="overlines-below"/><g class="xaxislayer-below"/><g class="yaxislayer-below"/><g class="overaxes-below"/><g class="overplot"><g class="x4y4" transform="translate(993.5,100)" clip-path="url(#clipfc9d20x4y4plot)"><g class="scatterlayer mlayer"><g class="trace scatter tracea8f060" style="stroke-miterlimit: 2; opacity: 1;"><g class="fills"/><g class="errorbars"/><g class="lines"/><g class="points"><path class="point" transform="translate(18.58,75)" d="M5,0A5,5 0 1,1 0,-5A5,5 0 0,1 5,0Z" style="opacity: 1; stroke-width: 0px; fill: rgb(0, 0, 0); fill-opacity: 1;"/></g><g class="text"/></g><g class="trace scatter trace7892ea" style="stroke-miterlimit: 2; opacity: 1;"><g class="fills"/><g class="errorbars"/><g class="lines"/><g class="points"><path class="point" transform="translate(86.28,75)" d="M5,0A5,5 0 1,1 0,-5A5,5 0 0,1 5,0Z" style="opacity: 1; stroke-width: 0px; fill: rgb(0, 0, 0); fill-opacity: 1;"/></g><g class="text"/></g><g class="trace scatter trace9767d3" style="stroke-miterlimit: 2; opacity: 1;"><g class="fills"/><g class="errorbars"/><g class="lines"/><g class="points"><path class="point" transform="translate(153.98,75)" d="M5,0A5,5 0 1,1 0,-5A5,5 0 0,1 5,0Z" style="opacity: 1; stroke-width: 0px; fill: rgb(0, 0, 0); fill-opacity: 1;"/></g><g class="text"/></g><g class="trace scatter trace84b38a" style="stroke-miterlimit: 2; opacity: 1;"><g class="fills"/><g class="errorbars"/><g class="lines"><path class="js-line" d="M221.68,75L221.68,21.57" style="vector-effect: none; fill: none; stroke: rgb(0, 0, 0); stroke-opacity: 1; stroke-width: 4px; opacity: 1;"/></g><g class="points"><path class="point" transform="translate(221.68,75)" d="M0,0Z" style="opacity: 1; stroke-width: 0px; fill: rgb(0, 0, 0); fill-opacity: 1;"/><path class="point" transform="translate(221.68,3.57)" d="M0,0L-6.180339887498949,19.02113032590307L6.180339887498949,19.02113032590307Z" style="opacity: 1; stroke-width: 0px; fill: rgb(0, 0, 0); fill-opacity: 1;"/></g><g class="text"/></g></g></g></g><path class="xlines-above crisp" d="M0,0" style="fill: none;"/><path class="ylines-above crisp" d="M0,0" style="fill: none;"/><g class="overlines-above"/><g class="xaxislayer-above"><g class="x4tick"><text text-anchor="middle" x="0" y="271" transform="translate(1012.08,0)" style="font-family: 'Open Sans', verdana, arial, sans-serif; font-size: 20px; fill: rgb(42, 63, 95); fill-opacity: 1; white-space: pre; opacity: 1;">\(c_1\)</text></g><g class="x4tick"><text text-anchor="middle" x="0" y="271" style="font-family: 'Open Sans', verdana, arial, sans-serif; font-size: 20px; fill: rgb(42, 63, 95); fill-opacity: 1; white-space: pre; opacity: 1;" transform="translate(1079.78,0)">\(c_2\)</text></g><g class="x4tick"><text text-anchor="middle" x="0" y="271" style="font-family: 'Open Sans', verdana, arial, sans-serif; font-size: 20px; fill: rgb(42, 63, 95); fill-opacity: 1; white-space: pre; opacity: 1;" transform="translate(1147.48,0)">\(c_3\)</text></g><g class="x4tick"><text text-anchor="middle" x="0" y="271" style="font-family: 'Open Sans', verdana, arial, sans-serif; font-size: 20px; fill: rgb(42, 63, 95); fill-opacity: 1; white-space: pre; opacity: 1;" transform="translate(1215.18,0)">\(c_4\)</text></g></g><g class="yaxislayer-above"/><g class="overaxes-above"/></g></g><g class="polarlayer"/><g class="smithlayer"/><g class="ternarylayer"/><g class="geolayer"/><g class="funnelarealayer"/><g class="pielayer"/><g class="iciclelayer"/><g class="treemaplayer"/><g class="sunburstlayer"/><g class="glimages"/><defs id="topdefs-fc9d20"><g class="clips"/></defs><g class="layer-above"><g class="imagelayer"/><g class="shapelayer"/></g><g class="infolayer"><g class="g-gtitle"/><g class="g-xtitle"/><g class="g-x2title"/><g class="g-x3title"/><g class="g-x4title"/><g class="g-ytitle"/><g class="g-y2title"/><g class="g-y3title"/><g class="g-y4title"/><g class="annotation" data-index="0" style="opacity: 1;"><g class="annotation-text-g" transform="rotate(0,203.25,85.99999999999999)"><g class="cursor-pointer" transform="translate(35,72)"><rect class="bg" x="0.5" y="0.5" width="336" height="27" style="stroke-width: 1px; stroke: rgb(0, 0, 0); stroke-opacity: 0; fill: rgb(0, 0, 0); fill-opacity: 0;"/><text class="annotation-text" text-anchor="middle" x="168.515625" y="22" style="font-family: 'Open Sans', verdana, arial, sans-serif; font-size: 20px; fill: rgb(42, 63, 95); fill-opacity: 1; white-space: pre;">\large{\(\hat\lambda_1=0.25\)}</text></g></g></g><g class="annotation" data-index="1" style="opacity: 1;"><g class="annotation-text-g" transform="rotate(0,507.75,85.99999999999999)"><g class="cursor-pointer" transform="translate(339,72)"><rect class="bg" x="0.5" y="0.5" width="336" height="27" style="stroke-width: 1px; stroke: rgb(0, 0, 0); stroke-opacity: 0; fill: rgb(0, 0, 0); fill-opacity: 0;"/><text class="annotation-text" text-anchor="middle" x="168.515625" y="22" style="font-family: 'Open Sans', verdana, arial, sans-serif; font-size: 20px; fill: rgb(42, 63, 95); fill-opacity: 1; white-space: pre;">\large{\(\hat\lambda_2=0.25\)}</text></g></g></g><g class="annotation" data-index="2" style="opacity: 1;"><g class="annotation-text-g" transform="rotate(0,812.2500000000001,85.99999999999999)"><g class="cursor-pointer" transform="translate(644,72)"><rect class="bg" x="0.5" y="0.5" width="336" height="27" style="stroke-width: 1px; stroke: rgb(0, 0, 0); stroke-opacity: 0; fill: rgb(0, 0, 0); fill-opacity: 0;"/><text class="annotation-text" text-anchor="middle" x="168.515625" y="22" style="font-family: 'Open Sans', verdana, arial, sans-serif; font-size: 20px; fill: rgb(42, 63, 95); fill-opacity: 1; white-space: pre;">\large{\(\hat\lambda_3=0.25\)}</text></g></g></g><g class="annotation" data-index="3" style="opacity: 1;"><g class="annotation-text-g" transform="rotate(0,1116.75,85.99999999999999)"><g class="cursor-pointer" transform="translate(948,72)"><rect class="bg" x="0.5" y="0.5" width="336" height="27" style="stroke-width: 1px; stroke: rgb(0, 0, 0); stroke-opacity: 0; fill: rgb(0, 0, 0); fill-opacity: 0;"/><text class="annotation-text" text-anchor="middle" x="168.515625" y="22" style="font-family: 'Open Sans', verdana, arial, sans-serif; font-size: 20px; fill: rgb(42, 63, 95); fill-opacity: 1; white-space: pre;">\large{\(\hat\lambda_4=0.25\)}</text></g></g></g></g></svg>