<svg class="main-svg" xmlns="http://www.w3.org/2000/svg" xmlns:xlink="http://www.w3.org/1999/xlink" width="1200" height="450" style="" viewBox="0 0 1200 450"><rect x="0" y="0" width="1200" height="450" style="fill: rgb(255, 255, 255); fill-opacity: 1;"/><defs id="defs-fdd794"><g class="clips"><clipPath id="clipfdd794xyplot" class="plotclip"><rect width="958" height="364"/></clipPath><clipPath class="axesclip" id="clipfdd794x"><rect x="121" y="0" width="958" height="450"/></clipPath><clipPath class="axesclip" id="clipfdd794y"><rect x="0" y="7" width="1200" height="364"/></clipPath><clipPath class="axesclip" id="clipfdd794xy"><rect x="121" y="7" width="958" height="364"/></clipPath></g><g class="gradients"/><g class="patterns"/></defs><g class="bglayer"/><g class="layer-below"><g class="imagelayer"/><g class="shapelayer"/></g><g class="cartesianlayer"><g class="subplot xy"><g class="layer-subplot"><g class="shapelayer"/><g class="imagelayer"/></g><g class="minor-gridlayer"><g class="x"/><g class="y"/></g><g class="gridlayer"><g class="x"><path class="xgrid crisp" transform="translate(184.3,0)" d="M0,7v364" style="stroke: rgb(200, 200, 200); stroke-opacity: 1; stroke-width: 1px;"/><path class="xgrid crisp" transform="translate(322.86,0)" d="M0,7v364" style="stroke: rgb(200, 200, 200); stroke-opacity: 1; stroke-width: 1px;"/><path class="xgrid crisp" transform="translate(461.43,0)" d="M0,7v364" style="stroke: rgb(200, 200, 200); stroke-opacity: 1; stroke-width: 1px;"/><path class="xgrid crisp" transform="translate(738.57,0)" d="M0,7v364" style="stroke: rgb(200, 200, 200); stroke-opacity: 1; stroke-width: 1px;"/><path class="xgrid crisp" transform="translate(877.14,0)" d="M0,7v364" style="stroke: rgb(200, 200, 200); stroke-opacity: 1; stroke-width: 1px;"/><path class="xgrid crisp" transform="translate(1015.7,0)" d="M0,7v364" style="stroke: rgb(200, 200, 200); stroke-opacity: 1; stroke-width: 1px;"/></g><g class="y"><path class="ygrid crisp" transform="translate(0,355.28)" d="M121,0h958" style="stroke: rgb(200, 200, 200); stroke-opacity: 1; stroke-width: 1px;"/><path class="ygrid crisp" transform="translate(0,299.85)" d="M121,0h958" style="stroke: rgb(200, 200, 200); stroke-opacity: 1; stroke-width: 1px;"/><path class="ygrid crisp" transform="translate(0,244.43)" d="M121,0h958" style="stroke: rgb(200, 200, 200); stroke-opacity: 1; stroke-width: 1px;"/><path class="ygrid crisp" transform="translate(0,133.57)" d="M121,0h958" style="stroke: rgb(200, 200, 200); stroke-opacity: 1; stroke-width: 1px;"/><path class="ygrid crisp" transform="translate(0,78.15)" d="M121,0h958" style="stroke: rgb(200, 200, 200); stroke-opacity: 1; stroke-width: 1px;"/><path class="ygrid crisp" transform="translate(0,22.72)" d="M121,0h958" style="stroke: rgb(200, 200, 200); stroke-opacity: 1; stroke-width: 1px;"/></g></g><g class="zerolinelayer"><path class="xzl zl crisp" transform="translate(600,0)" d="M0,7v364" style="stroke: rgb(200, 200, 200); stroke-opacity: 1; stroke-width: 2px;"/><path class="yzl zl crisp" transform="translate(0,189)" d="M121,0h958" style="stroke: rgb(200, 200, 200); stroke-opacity: 1; stroke-width: 2px;"/></g><g class="layer-between"><g class="shapelayer"/><g class="imagelayer"/></g><path class="xlines-below"/><path class="ylines-below"/><g class="overlines-below"/><g class="xaxislayer-below"/><g class="yaxislayer-below"/><g class="overaxes-below"/><g class="overplot"><g class="xy" transform="translate(121,7)" clip-path="url(#clipfdd794xyplot)"><g class="scatterlayer mlayer"><g class="trace scatter trace30d6f1" style="stroke-miterlimit: 2; opacity: 1;"><g class="fills"/><g class="errorbars"/><g class="lines"><path class="js-line" d="M63.3,71.15L894.7,71.15" style="vector-effect: none; fill: none; stroke: rgb(0, 0, 0); stroke-opacity: 1; stroke-width: 2px; opacity: 1;"/></g><g class="points"/><g class="text"/></g><g class="trace scatter tracecd6e24" style="stroke-miterlimit: 2; opacity: 1;"><g class="fills"/><g class="errorbars"/><g class="lines"><path class="js-line" d="M63.3,71.15L894.7,71.15" style="vector-effect: none; fill: none; stroke: rgb(100, 143, 255); stroke-opacity: 1; stroke-width: 2px; opacity: 1;"/></g><g class="points"/><g class="text"/></g><g class="trace scatter traceb1f519" style="stroke-miterlimit: 2; opacity: 1;"><g class="fills"/><g class="errorbars"/><g class="lines"/><g class="points"><path class="point" transform="translate(63.3,71.15)" d="M0,0Z" style="opacity: 1; stroke-width: 0px; fill: rgb(12, 51, 131); fill-opacity: 1;"/><path class="point" transform="translate(146.44,71.15)" d="M-3.0000000000000004,-6.93L-2.9999999999999996,6.93L6,-3.6739403974420594e-16Z" style="opacity: 1; stroke-width: 0px; fill: rgb(11, 85, 153); fill-opacity: 1;"/><path class="point" transform="translate(229.58,71.15)" d="M-3.0000000000000004,-6.93L-2.9999999999999996,6.93L6,-3.6739403974420594e-16Z" style="opacity: 1; stroke-width: 0px; fill: rgb(10, 119, 175); fill-opacity: 1;"/><path class="point" transform="translate(312.72,71.15)" d="M-3.0000000000000004,-6.93L-2.9999999999999996,6.93L6,-3.6739403974420594e-16Z" style="opacity: 1; stroke-width: 0px; fill: rgb(56, 151, 160); fill-opacity: 1;"/><path class="point" transform="translate(395.86,71.15)" d="M-3.0000000000000004,-6.93L-2.9999999999999996,6.93L6,-3.6739403974420594e-16Z" style="opacity: 1; stroke-width: 0px; fill: rgb(149, 181, 108); fill-opacity: 1;"/><path class="point" transform="translate(479,71.15)" d="M-3.0000000000000004,-6.93L-2.9999999999999996,6.93L6,-3.6739403974420594e-16Z" style="opacity: 1; stroke-width: 0px; fill: rgb(242, 211, 56); fill-opacity: 1;"/><path class="point" transform="translate(562.14,71.15)" d="M-3.0000000000000004,-6.93L-2.9999999999999996,6.93L6,-3.6739403974420594e-16Z" style="opacity: 1; stroke-width: 0px; fill: rgb(242, 184, 56); fill-opacity: 1;"/><path class="point" transform="translate(645.28,71.15)" d="M-3.0000000000000004,-6.93L-2.9999999999999996,6.93L6,-3.6739403974420594e-16Z" style="opacity: 1; stroke-width: 0px; fill: rgb(242, 157, 56); fill-opacity: 1;"/><path class="point" transform="translate(728.42,71.15)" d="M-3.0000000000000004,-6.93L-2.9999999999999996,6.93L6,-3.6739403974420594e-16Z" style="opacity: 1; stroke-width: 0px; fill: rgb(237, 120, 51); fill-opacity: 1;"/><path class="point" transform="translate(811.56,71.15)" d="M-3.0000000000000004,-6.93L-2.9999999999999996,6.93L6,-3.6739403974420594e-16Z" style="opacity: 1; stroke-width: 0px; fill: rgb(227, 75, 40); fill-opacity: 1;"/><path class="point" transform="translate(894.7,71.15)" d="M-3.0000000000000004,-6.93L-2.9999999999999996,6.93L6,-3.6739403974420594e-16Z" style="opacity: 1; stroke-width: 0px; fill: rgb(217, 30, 30); fill-opacity: 1;"/></g><g class="text"/></g><g class="trace scatter trace704e4c" style="stroke-miterlimit: 2; opacity: 1;"><g class="fills"/><g class="errorbars"/><g class="lines"><path class="js-line" d="M63.3,91.93L894.7,91.93" style="vector-effect: none; fill: none; stroke: rgb(0, 0, 0); stroke-opacity: 1; stroke-width: 2px; opacity: 1;"/></g><g class="points"/><g class="text"/></g><g class="trace scatter traceb2f3c3" style="stroke-miterlimit: 2; opacity: 1;"><g class="fills"/><g class="errorbars"/><g class="lines"><path class="js-line" d="M63.3,91.93L894.7,91.93" style="vector-effect: none; fill: none; stroke: rgb(100, 143, 255); stroke-opacity: 1; stroke-width: 2px; opacity: 1;"/></g><g class="points"/><g class="text"/></g><g class="trace scatter trace9b86d6" style="stroke-miterlimit: 2; opacity: 1;"><g class="fills"/><g class="errorbars"/><g class="lines"/><g class="points"><path class="point" transform="translate(63.3,91.93)" d="M0,0Z" style="opacity: 1; stroke-width: 0px; fill: rgb(12, 51, 131); fill-opacity: 1;"/><path class="point" transform="translate(146.44,91.93)" d="M-3.000689537384276,-6.92970145823271L-2.9993104329134894,6.930298473155128L5.9999999702977656,-0.0005970149224185792Z" style="opacity: 1; stroke-width: 0px; fill: rgb(11, 85, 153); fill-opacity: 1;"/><path class="point" transform="translate(229.58,91.93)" d="M-3.0000000000000004,-6.93L-2.9999999999999996,6.93L6,-3.6739403974420594e-16Z" style="opacity: 1; stroke-width: 0px; fill: rgb(10, 119, 175); fill-opacity: 1;"/><path class="point" transform="translate(312.72,91.93)" d="M-2.9993104329134903,-6.930298473155128L-3.0006895373842752,6.92970145823271L5.9999999702977656,0.0005970149224178445Z" style="opacity: 1; stroke-width: 0px; fill: rgb(56, 151, 160); fill-opacity: 1;"/><path class="point" transform="translate(395.86,91.93)" d="M-3.000689537384276,-6.92970145823271L-2.9993104329134894,6.930298473155128L5.9999999702977656,-0.0005970149224185792Z" style="opacity: 1; stroke-width: 0px; fill: rgb(149, 181, 108); fill-opacity: 1;"/><path class="point" transform="translate(479,91.93)" d="M-3.0000000000000004,-6.93L-2.9999999999999996,6.93L6,-3.6739403974420594e-16Z" style="opacity: 1; stroke-width: 0px; fill: rgb(242, 211, 56); fill-opacity: 1;"/><path class="point" transform="translate(562.14,91.93)" d="M-2.9993104329134903,-6.930298473155128L-3.0006895373842752,6.92970145823271L5.9999999702977656,0.0005970149224178445Z" style="opacity: 1; stroke-width: 0px; fill: rgb(242, 184, 56); fill-opacity: 1;"/><path class="point" transform="translate(645.28,91.93)" d="M-3.0000000000000004,-6.93L-2.9999999999999996,6.93L6,-3.6739403974420594e-16Z" style="opacity: 1; stroke-width: 0px; fill: rgb(242, 157, 56); fill-opacity: 1;"/><path class="point" transform="translate(728.42,91.93)" d="M-3.0000000000000004,-6.93L-2.9999999999999996,6.93L6,-3.6739403974420594e-16Z" style="opacity: 1; stroke-width: 0px; fill: rgb(237, 120, 51); fill-opacity: 1;"/><path class="point" transform="translate(811.56,91.93)" d="M-3.0000000000000004,-6.93L-2.9999999999999996,6.93L6,-3.6739403974420594e-16Z" style="opacity: 1; stroke-width: 0px; fill: rgb(227, 75, 40); fill-opacity: 1;"/><path class="point" transform="translate(894.7,91.93)" d="M-3.0000000000000004,-6.93L-2.9999999999999996,6.93L6,-3.6739403974420594e-16Z" style="opacity: 1; stroke-width: 0px; fill: rgb(217, 30, 30); fill-opacity: 1;"/></g><g class="text"/></g><g class="trace scatter trace5f381a" style="stroke-miterlimit: 2; opacity: 1;"><g class="fills"/><g class="errorbars"/><g class="lines"><path class="js-line" d="M63.3,112.72L894.7,112.72" style="vector-effect: none; fill: none; stroke: rgb(0, 0, 0); stroke-opacity: 1; stroke-width: 2px; opacity: 1;"/></g><g class="points"/><g class="text"/></g><g class="trace scatter tracedc55af" style="stroke-miterlimit: 2; opacity: 1;"><g class="fills"/><g class="errorbars"/><g class="lines"><path class="js-line" d="M63.3,112.72L190.17,113.41L193.51,113.49L226.82,115.04L230.14,115.31L256.63,118.26L259.93,118.72L279.5,122.26L282.62,123.12L294.54,127.53L297.38,128.87L308.22,135.2L310.79,137.02L320.53,145.27L322.83,147.57L336.37,161.67L338.79,163.66L346.39,168.92L349.03,170.43L357.31,174.22L360.18,175.24L369.13,177.57L372.23,178.11L381.87,178.98L385.19,179.03L522.09,179.11L525.42,179.07L541.86,177.84L545.1,177.39L561.07,174.12L564.21,173.26L579.71,167.94L582.76,166.67L622.54,149.65L625.67,148.51L647.81,141.22L651.01,140.28L683.3,131.9L686.55,131.15L719.24,124.53L722.53,123.95L748.93,120.33L752.24,120L775.48,118.43L778.81,118.32L815.53,118.04L818.87,118.03L858.94,117.95" style="vector-effect: none; fill: none; stroke: rgb(100, 143, 255); stroke-opacity: 1; stroke-width: 2px; opacity: 1;"/></g><g class="points"/><g class="text"/></g><g class="trace scatter trace90716d" style="stroke-miterlimit: 2; opacity: 1;"><g class="fills"/><g class="errorbars"/><g class="lines"/><g class="points"><path class="point" transform="translate(63.3,112.72)" d="M0,0Z" style="opacity: 1; stroke-width: 0px; fill: rgb(12, 51, 131); fill-opacity: 1;"/><path class="point" transform="translate(146.44,112.77)" d="M-2.9958621526643983,-6.931789809438326L-3.0041367780554245,6.928207720524462L5.999998930719823,0.0035820889138640536Z" style="opacity: 1; stroke-width: 0px; fill: rgb(11, 85, 153); fill-opacity: 1;"/><path class="point" transform="translate(229.48,115.26)" d="M-2.790942178157318,-7.01680424111878L-3.2063621494706225,6.836968755701764L5.9973043276279405,0.17983548541701505Z" style="opacity: 1; stroke-width: 0px; fill: rgb(10, 119, 175); fill-opacity: 1;"/><path class="point" transform="translate(307.43,134.67)" d="M-1.2361681540538543,-7.449616654224771L-4.585956694137645,5.99949174509759L5.822124848191499,1.4501249091271822Z" style="opacity: 1; stroke-width: 0px; fill: rgb(56, 151, 160); fill-opacity: 1;"/><path class="point" transform="translate(370.98,177.91)" d="M1.417507709099433,-7.417248269718607L-6.378393993706857,4.042399047724542L4.960886284607424,3.374849221994065Z" style="opacity: 1; stroke-width: 0px; fill: rgb(149, 181, 108); fill-opacity: 1;"/><path class="point" transform="translate(453.64,179.27)" d="M-2.885158573518617,-6.978592981801705L-3.1140233716781305,6.879517311602782L5.999181945196748,0.09907567019892363Z" style="opacity: 1; stroke-width: 0px; fill: rgb(242, 211, 56); fill-opacity: 1;"/><path class="point" transform="translate(536.64,178.42)" d="M-3.070975340215735,-6.898841240366881L-2.9287085680127434,6.960428587640903L5.999683908228478,-0.06158734727402237Z" style="opacity: 1; stroke-width: 0px; fill: rgb(242, 184, 56); fill-opacity: 1;"/><path class="point" transform="translate(614.16,152.87)" d="M-5.018908370614972,-5.642291978209827L-0.6794243073035178,7.520856507781885L5.69833267791849,-1.8785645295720586Z" style="opacity: 1; stroke-width: 0px; fill: rgb(242, 157, 56); fill-opacity: 1;"/><path class="point" transform="translate(693.71,129.56)" d="M-4.8272651657165015,-5.8071000525098615L-0.9307456885990186,7.493905020958989L5.75801085431552,-1.6868049684491269Z" style="opacity: 1; stroke-width: 0px; fill: rgb(237, 120, 51); fill-opacity: 1;"/><path class="point" transform="translate(775.82,118.42)" d="M-3.9040882703687467,-6.4639766999246815L-2.041485330803823,7.270298318783955L5.94557360117257,-0.8063216188592742Z" style="opacity: 1; stroke-width: 0px; fill: rgb(227, 75, 40); fill-opacity: 1;"/><path class="point" transform="translate(858.94,117.95)" d="M-3.03926730214509,-6.912868743590587L-2.9606361399847207,6.946908207729275L5.999903442129811,-0.03403946413868797Z" style="opacity: 1; stroke-width: 0px; fill: rgb(217, 30, 30); fill-opacity: 1;"/></g><g class="text"/></g><g class="trace scatter traceb51a5e" style="stroke-miterlimit: 2; opacity: 1;"><g class="fills"/><g class="errorbars"/><g class="lines"><path class="js-line" d="M63.3,133.5L894.7,133.5" style="vector-effect: none; fill: none; stroke: rgb(0, 0, 0); stroke-opacity: 1; stroke-width: 2px; opacity: 1;"/></g><g class="points"/><g class="text"/></g><g class="trace scatter tracea89af0" style="stroke-miterlimit: 2; opacity: 1;"><g class="fills"/><g class="errorbars"/><g class="lines"><path class="js-line" d="M63.3,133.5L236.91,134.24L240.24,134.35L276.86,136.22L280.1,136.63L292.66,139.25L295.7,140.16L307.44,144.75L310.28,146.14L321.2,152.7L323.83,154.58L347.13,172.27L349.88,173.81L361.31,178.88L364.26,179.88L376.51,182.81L379.67,183.27L392.74,184.07L396.08,184.08L539.61,183.8L542.91,183.59L559.22,181.61L562.45,181.03L578.4,177.24L581.55,176.3L597.14,170.69L600.23,169.43L622.11,161.41L625.27,160.38L647.64,153.95L650.87,153.15L676.98,147.62L680.26,147.01L709.89,142.21L713.19,141.75L746.36,138.06L749.68,137.79L779.64,136.07L782.97,135.97L819.69,135.67L823.03,135.67L869.77,135.63" style="vector-effect: none; fill: none; stroke: rgb(100, 143, 255); stroke-opacity: 1; stroke-width: 2px; opacity: 1;"/></g><g class="points"/><g class="text"/></g><g class="trace scatter trace2733ef" style="stroke-miterlimit: 2; opacity: 1;"><g class="fills"/><g class="errorbars"/><g class="lines"/><g class="points"><path class="point" transform="translate(63.3,133.5)" d="M0,0Z" style="opacity: 1; stroke-width: 0px; fill: rgb(12, 51, 131); fill-opacity: 1;"/><path class="point" transform="translate(146.44,133.51)" d="M-3.0000000000000004,-6.93L-2.9999999999999996,6.93L6,-3.6739403974420594e-16Z" style="opacity: 1; stroke-width: 0px; fill: rgb(11, 85, 153); fill-opacity: 1;"/><path class="point" transform="translate(229.57,134.04)" d="M-2.955804319746136,-6.94896544986159L-3.044073999385951,6.910753467333531L5.999878319132087,0.03821198252805852Z" style="opacity: 1; stroke-width: 0px; fill: rgb(10, 119, 175); fill-opacity: 1;"/><path class="point" transform="translate(309.43,145.71)" d="M-1.9662414283586491,-7.291007793536236L-3.9706817361833737,6.423284716555836L5.936923164542023,0.8677230769804003Z" style="opacity: 1; stroke-width: 0px; fill: rgb(56, 151, 160); fill-opacity: 1;"/><path class="point" transform="translate(378.4,183.1)" d="M0.6656432951938114,-7.522088739410319L-5.940301742138786,4.662372273032571L5.274658446944974,2.8597164663777477Z" style="opacity: 1; stroke-width: 0px; fill: rgb(149, 181, 108); fill-opacity: 1;"/><path class="point" transform="translate(461.19,184.21)" d="M-2.9069423493232747,-6.969547056854618L-3.0925197963680637,6.889210499692372L5.999462145691338,0.08033655716224634Z" style="opacity: 1; stroke-width: 0px; fill: rgb(242, 211, 56); fill-opacity: 1;"/><path class="point" transform="translate(544.22,183.48)" d="M-3.060641557329089,-6.903431991230896L-2.9391278456388115,6.956035329624955L5.9997694029679005,-0.05260333839405945Z" style="opacity: 1; stroke-width: 0px; fill: rgb(242, 184, 56); fill-opacity: 1;"/><path class="point" transform="translate(623.06,161.1)" d="M-4.778990482627723,-5.846892334133888L-0.9927971389303352,7.485937071665226L5.771787621558058,-1.6390447375313368Z" style="opacity: 1; stroke-width: 0px; fill: rgb(242, 157, 56); fill-opacity: 1;"/><path class="point" transform="translate(703.95,143.07)" d="M-4.435529438765877,-6.111544698179117L-1.420816796792159,7.416615105959947L5.856346235558036,-1.3050704077808302Z" style="opacity: 1; stroke-width: 0px; fill: rgb(237, 120, 51); fill-opacity: 1;"/><path class="point" transform="translate(786.64,135.87)" d="M-3.589523859074098,-6.6438105380224215L-2.387883758200217,7.164001057881245L5.977407617274315,-0.520190519858823Z" style="opacity: 1; stroke-width: 0px; fill: rgb(227, 75, 40); fill-opacity: 1;"/><path class="point" transform="translate(869.77,135.63)" d="M-3.0206751649646812,-6.9210130434616L-2.9792980978818577,6.938925193713904L5.999973262846539,-0.017912150252304408Z" style="opacity: 1; stroke-width: 0px; fill: rgb(217, 30, 30); fill-opacity: 1;"/></g><g class="text"/></g><g class="trace scatter traceae9505" style="stroke-miterlimit: 2; opacity: 1;"><g class="fills"/><g class="errorbars"/><g class="lines"><path class="js-line" d="M63.3,154.29L894.7,154.29" style="vector-effect: none; fill: none; stroke: rgb(0, 0, 0); stroke-opacity: 1; stroke-width: 2px; opacity: 1;"/></g><g class="points"/><g class="text"/></g><g class="trace scatter trace6b4960" style="stroke-miterlimit: 2; opacity: 1;"><g class="fills"/><g class="errorbars"/><g class="lines"><path class="js-line" d="M63.3,154.29L253.6,153.66L256.94,153.55L283.45,153.17L286.69,153.43L299.36,155.38L302.47,156.1L314.65,159.91L317.63,161.09L329.31,166.75L332.17,168.4L346.49,176.59L349.43,177.99L361.41,182.73L364.47,183.7L376.95,186.72L380.14,187.27L393.12,188.58L396.42,188.69L489.9,188.79L493.24,188.79L553.25,188.09L556.55,187.82L576.15,185.13L579.39,184.5L595.46,180.63L598.65,179.71L633.81,169.48L637.05,168.72L659.88,164.23L663.17,163.71L692.98,160.04L696.3,159.71L729.56,157.04L732.89,156.85L776.25,155.17L779.59,155.1L829.67,154.76L833.01,154.76L879.75,154.75" style="vector-effect: none; fill: none; stroke: rgb(100, 143, 255); stroke-opacity: 1; stroke-width: 2px; opacity: 1;"/></g><g class="points"/><g class="text"/></g><g class="trace scatter traced4e6d8" style="stroke-miterlimit: 2; opacity: 1;"><g class="fills"/><g class="errorbars"/><g class="lines"/><g class="points"><path class="point" transform="translate(63.3,154.29)" d="M0,0Z" style="opacity: 1; stroke-width: 0px; fill: rgb(12, 51, 131); fill-opacity: 1;"/><path class="point" transform="translate(146.44,154.29)" d="M-3.0000000000000004,-6.93L-2.9999999999999996,6.93L6,-3.6739403974420594e-16Z" style="opacity: 1; stroke-width: 0px; fill: rgb(11, 85, 153); fill-opacity: 1;"/><path class="point" transform="translate(229.57,154.2)" d="M-3.0075840275497217,-6.9267119412624485L-2.9924123777677383,6.933279755020882L5.99999640531746,-0.0065678137584342985Z" style="opacity: 1; stroke-width: 0px; fill: rgb(10, 119, 175); fill-opacity: 1;"/><path class="point" transform="translate(310.73,158.51)" d="M-2.627568814334226,-7.079603246364744L-3.363956670881218,6.76082062448293L5.991525485215444,0.3187826218818146Z" style="opacity: 1; stroke-width: 0px; fill: rgb(56, 151, 160); fill-opacity: 1;"/><path class="point" transform="translate(385.28,187.96)" d="M-0.2445332785667511,-7.5475230026594415L-5.3359693696585175,5.343438114740928L5.580502648225268,2.2040848879185138Z" style="opacity: 1; stroke-width: 0px; fill: rgb(149, 181, 108); fill-opacity: 1;"/><path class="point" transform="translate(468.2,188.8)" d="M-2.929324523747427,-6.960169382606425L-3.070364811196235,6.899112981113435L5.999689334943662,0.061056401492990575Z" style="opacity: 1; stroke-width: 0px; fill: rgb(242, 211, 56); fill-opacity: 1;"/><path class="point" transform="translate(551.27,188.23)" d="M-3.0475450681782137,-6.909223477166059L-2.952313299092445,6.950449351229162L5.999858367270659,-0.04122587406310305Z" style="opacity: 1; stroke-width: 0px; fill: rgb(242, 184, 56); fill-opacity: 1;"/><path class="point" transform="translate(631.55,170.03)" d="M-4.4573778291754405,-6.095628178290998L-1.3942592728360959,7.42165352735565L5.851637102011536,-1.3260253490646514Z" style="opacity: 1; stroke-width: 0px; fill: rgb(242, 157, 56); fill-opacity: 1;"/><path class="point" transform="translate(713.58,158.16)" d="M-3.961610899711992,-6.4288831906703L-1.9765311972121054,7.288225053224364L5.938142096924097,-0.8593418625540634Z" style="opacity: 1; stroke-width: 0px; fill: rgb(237, 120, 51); fill-opacity: 1;"/><path class="point" transform="translate(796.61,154.83)" d="M-3.2756101722453432,-6.804063344758251L-2.7195592533119872,7.044778028279183L5.9951694255573305,-0.24071468352093345Z" style="opacity: 1; stroke-width: 0px; fill: rgb(227, 75, 40); fill-opacity: 1;"/><path class="point" transform="translate(879.75,154.75)" d="M-3.006894033863869,-6.9270114962452505L-2.9931029959148274,6.932981642543537L5.999997029778696,-0.005970146298286557Z" style="opacity: 1; stroke-width: 0px; fill: rgb(217, 30, 30); fill-opacity: 1;"/></g><g class="text"/></g><g class="trace scatter trace94e7a5" style="stroke-miterlimit: 2; opacity: 1;"><g class="fills"/><g class="errorbars"/><g class="lines"><path class="js-line" d="M63.3,175.07L894.7,175.07" style="vector-effect: none; fill: none; stroke: rgb(0, 0, 0); stroke-opacity: 1; stroke-width: 2px; opacity: 1;"/></g><g class="points"/><g class="text"/></g><g class="trace scatter tracee05701" style="stroke-miterlimit: 2; opacity: 1;"><g class="fills"/><g class="errorbars"/><g class="lines"><path class="js-line" d="M63.3,175.07L243.55,174.99L246.89,174.84L290,172.83L293.27,172.97L309.45,174.61L312.65,175.13L328.53,178.69L331.68,179.6L360.04,187.82L363.24,188.5L379.39,191.14L382.65,191.52L399.12,192.62L402.44,192.69L556,192.44L559.32,192.29L582.49,190.33L585.79,189.91L608.75,186.07L612.02,185.39L634.96,181.16L638.25,180.67L661.38,177.98L664.7,177.71L691.35,176.39L694.69,176.28L748.1,175.26L751.43,175.25L888.33,175.08" style="vector-effect: none; fill: none; stroke: rgb(100, 143, 255); stroke-opacity: 1; stroke-width: 2px; opacity: 1;"/></g><g class="points"/><g class="text"/></g><g class="trace scatter trace96e3c2" style="stroke-miterlimit: 2; opacity: 1;"><g class="fills"/><g class="errorbars"/><g class="lines"/><g class="points"><path class="point" transform="translate(63.3,175.07)" d="M0,0Z" style="opacity: 1; stroke-width: 0px; fill: rgb(12, 51, 131); fill-opacity: 1;"/><path class="point" transform="translate(146.44,175.09)" d="M-2.9993104329134903,-6.930298473155128L-3.0006895373842752,6.92970145823271L5.9999999702977656,0.0005970149224178445Z" style="opacity: 1; stroke-width: 0px; fill: rgb(11, 85, 153); fill-opacity: 1;"/><path class="point" transform="translate(229.55,175.45)" d="M-2.9696221644954055,-6.943071668947225L-3.0303202984592503,6.916795420478029L5.999942462954656,0.026276248469197013Z" style="opacity: 1; stroke-width: 0px; fill: rgb(10, 119, 175); fill-opacity: 1;"/><path class="point" transform="translate(311.69,174.96)" d="M-3.0411256835352036,-6.912051401497426L-2.9587683904201496,6.947703909339441L5.999894073955353,-0.035652507842014694Z" style="opacity: 1; stroke-width: 0px; fill: rgb(56, 151, 160); fill-opacity: 1;"/><path class="point" transform="translate(391.18,192.25)" d="M-1.4585913783268658,-7.409278722728044L-4.404329102040758,6.134067586921165L5.862920480367624,1.2752111358068796Z" style="opacity: 1; stroke-width: 0px; fill: rgb(149, 181, 108); fill-opacity: 1;"/><path class="point" transform="translate(474.22,192.73)" d="M-2.9599047507659937,-6.947219865989049L-3.0399950744263795,6.912548730205333L5.999899825192373,0.03467113578371675Z" style="opacity: 1; stroke-width: 0px; fill: rgb(242, 211, 56); fill-opacity: 1;"/><path class="point" transform="translate(557.33,192.38)" d="M-3.028943375943097,-6.917398501266963L-2.971004198706856,6.942480396174427L5.999947574649953,-0.02508189490746371Z" style="opacity: 1; stroke-width: 0px; fill: rgb(242, 184, 56); fill-opacity: 1;"/><path class="point" transform="translate(639.24,180.52)" d="M-3.9618115422901203,-6.428759546240377L-1.9763037318076346,7.288286736925436L5.938115274097755,-0.8595271906850588Z" style="opacity: 1; stroke-width: 0px; fill: rgb(242, 157, 56); fill-opacity: 1;"/><path class="point" transform="translate(722.06,175.58)" d="M-3.407884077888312,-6.7387852103829005L-2.5814399270588364,7.096553241045012L5.989324004947148,-0.3577680306621108Z" style="opacity: 1; stroke-width: 0px; fill: rgb(237, 120, 51); fill-opacity: 1;"/><path class="point" transform="translate(805.19,175.09)" d="M-3.041318934429323,-6.91196637282631L-2.9585741403826584,6.947786629989368L5.999893074811982,-0.035820257163058436Z" style="opacity: 1; stroke-width: 0px; fill: rgb(227, 75, 40); fill-opacity: 1;"/><path class="point" transform="translate(888.33,175.08)" d="M-3.000689537384276,-6.92970145823271L-2.9993104329134894,6.930298473155128L5.9999999702977656,-0.0005970149224185792Z" style="opacity: 1; stroke-width: 0px; fill: rgb(217, 30, 30); fill-opacity: 1;"/></g><g class="text"/></g><g class="trace scatter trace37828b" style="stroke-miterlimit: 2; opacity: 1;"><g class="fills"/><g class="errorbars"/><g class="lines"><path class="js-line" d="M63.3,195.86L894.7,195.86" style="vector-effect: none; fill: none; stroke: rgb(0, 0, 0); stroke-opacity: 1; stroke-width: 2px; opacity: 1;"/></g><g class="points"/><g class="text"/></g><g class="trace scatter trace83f4c2" style="stroke-miterlimit: 2; opacity: 1;"><g class="fills"/><g class="errorbars"/><g class="lines"><path class="js-line" d="M63.3,195.86L894.7,195.86" style="vector-effect: none; fill: none; stroke: rgb(100, 143, 255); stroke-opacity: 1; stroke-width: 2px; opacity: 1;"/></g><g class="points"/><g class="text"/></g><g class="trace scatter tracef6280a" style="stroke-miterlimit: 2; opacity: 1;"><g class="fills"/><g class="errorbars"/><g class="lines"/><g class="points"><path class="point" transform="translate(63.3,195.86)" d="M0,0Z" style="opacity: 1; stroke-width: 0px; fill: rgb(12, 51, 131); fill-opacity: 1;"/><path class="point" transform="translate(146.44,195.86)" d="M-3.0000000000000004,-6.93L-2.9999999999999996,6.93L6,-3.6739403974420594e-16Z" style="opacity: 1; stroke-width: 0px; fill: rgb(11, 85, 153); fill-opacity: 1;"/><path class="point" transform="translate(229.58,195.86)" d="M-3.0000000000000004,-6.93L-2.9999999999999996,6.93L6,-3.6739403974420594e-16Z" style="opacity: 1; stroke-width: 0px; fill: rgb(10, 119, 175); fill-opacity: 1;"/><path class="point" transform="translate(312.72,195.86)" d="M-3.0000000000000004,-6.93L-2.9999999999999996,6.93L6,-3.6739403974420594e-16Z" style="opacity: 1; stroke-width: 0px; fill: rgb(56, 151, 160); fill-opacity: 1;"/><path class="point" transform="translate(395.86,195.86)" d="M-3.0000000000000004,-6.93L-2.9999999999999996,6.93L6,-3.6739403974420594e-16Z" style="opacity: 1; stroke-width: 0px; fill: rgb(149, 181, 108); fill-opacity: 1;"/><path class="point" transform="translate(479,195.86)" d="M-3.0000000000000004,-6.93L-2.9999999999999996,6.93L6,-3.6739403974420594e-16Z" style="opacity: 1; stroke-width: 0px; fill: rgb(242, 211, 56); fill-opacity: 1;"/><path class="point" transform="translate(562.14,195.86)" d="M-3.0000000000000004,-6.93L-2.9999999999999996,6.93L6,-3.6739403974420594e-16Z" style="opacity: 1; stroke-width: 0px; fill: rgb(242, 184, 56); fill-opacity: 1;"/><path class="point" transform="translate(645.28,195.86)" d="M-3.0000000000000004,-6.93L-2.9999999999999996,6.93L6,-3.6739403974420594e-16Z" style="opacity: 1; stroke-width: 0px; fill: rgb(242, 157, 56); fill-opacity: 1;"/><path class="point" transform="translate(728.42,195.86)" d="M-3.0000000000000004,-6.93L-2.9999999999999996,6.93L6,-3.6739403974420594e-16Z" style="opacity: 1; stroke-width: 0px; fill: rgb(237, 120, 51); fill-opacity: 1;"/><path class="point" transform="translate(811.56,195.86)" d="M-3.0000000000000004,-6.93L-2.9999999999999996,6.93L6,-3.6739403974420594e-16Z" style="opacity: 1; stroke-width: 0px; fill: rgb(227, 75, 40); fill-opacity: 1;"/><path class="point" transform="translate(894.7,195.86)" d="M-3.0000000000000004,-6.93L-2.9999999999999996,6.93L6,-3.6739403974420594e-16Z" style="opacity: 1; stroke-width: 0px; fill: rgb(217, 30, 30); fill-opacity: 1;"/></g><g class="text"/></g><g class="trace scatter trace51df6c" style="stroke-miterlimit: 2; opacity: 1;"><g class="fills"/><g class="errorbars"/><g class="lines"><path class="js-line" d="M63.3,216.64L894.7,216.64" style="vector-effect: none; fill: none; stroke: rgb(0, 0, 0); stroke-opacity: 1; stroke-width: 2px; opacity: 1;"/></g><g class="points"/><g class="text"/></g><g class="trace scatter tracec56e5c" style="stroke-miterlimit: 2; opacity: 1;"><g class="fills"/><g class="errorbars"/><g class="lines"><path class="js-line" d="M63.3,216.64L894.7,216.64" style="vector-effect: none; fill: none; stroke: rgb(100, 143, 255); stroke-opacity: 1; stroke-width: 2px; opacity: 1;"/></g><g class="points"/><g class="text"/></g><g class="trace scatter trace49385d" style="stroke-miterlimit: 2; opacity: 1;"><g class="fills"/><g class="errorbars"/><g class="lines"/><g class="points"><path class="point" transform="translate(63.3,216.64)" d="M0,0Z" style="opacity: 1; stroke-width: 0px; fill: rgb(12, 51, 131); fill-opacity: 1;"/><path class="point" transform="translate(146.44,216.64)" d="M-3.0000000000000004,-6.93L-2.9999999999999996,6.93L6,-3.6739403974420594e-16Z" style="opacity: 1; stroke-width: 0px; fill: rgb(11, 85, 153); fill-opacity: 1;"/><path class="point" transform="translate(229.58,216.64)" d="M-3.0000000000000004,-6.93L-2.9999999999999996,6.93L6,-3.6739403974420594e-16Z" style="opacity: 1; stroke-width: 0px; fill: rgb(10, 119, 175); fill-opacity: 1;"/><path class="point" transform="translate(312.72,216.64)" d="M-3.0000000000000004,-6.93L-2.9999999999999996,6.93L6,-3.6739403974420594e-16Z" style="opacity: 1; stroke-width: 0px; fill: rgb(56, 151, 160); fill-opacity: 1;"/><path class="point" transform="translate(395.86,216.64)" d="M-3.0000000000000004,-6.93L-2.9999999999999996,6.93L6,-3.6739403974420594e-16Z" style="opacity: 1; stroke-width: 0px; fill: rgb(149, 181, 108); fill-opacity: 1;"/><path class="point" transform="translate(479,216.64)" d="M-3.0000000000000004,-6.93L-2.9999999999999996,6.93L6,-3.6739403974420594e-16Z" style="opacity: 1; stroke-width: 0px; fill: rgb(242, 211, 56); fill-opacity: 1;"/><path class="point" transform="translate(562.14,216.64)" d="M-3.0000000000000004,-6.93L-2.9999999999999996,6.93L6,-3.6739403974420594e-16Z" style="opacity: 1; stroke-width: 0px; fill: rgb(242, 184, 56); fill-opacity: 1;"/><path class="point" transform="translate(645.28,216.64)" d="M-3.0000000000000004,-6.93L-2.9999999999999996,6.93L6,-3.6739403974420594e-16Z" style="opacity: 1; stroke-width: 0px; fill: rgb(242, 157, 56); fill-opacity: 1;"/><path class="point" transform="translate(728.42,216.64)" d="M-3.0000000000000004,-6.93L-2.9999999999999996,6.93L6,-3.6739403974420594e-16Z" style="opacity: 1; stroke-width: 0px; fill: rgb(237, 120, 51); fill-opacity: 1;"/><path class="point" transform="translate(811.56,216.64)" d="M-3.0000000000000004,-6.93L-2.9999999999999996,6.93L6,-3.6739403974420594e-16Z" style="opacity: 1; stroke-width: 0px; fill: rgb(227, 75, 40); fill-opacity: 1;"/><path class="point" transform="translate(894.7,216.64)" d="M-3.0000000000000004,-6.93L-2.9999999999999996,6.93L6,-3.6739403974420594e-16Z" style="opacity: 1; stroke-width: 0px; fill: rgb(217, 30, 30); fill-opacity: 1;"/></g><g class="text"/></g><g class="trace scatter trace9c4900" style="stroke-miterlimit: 2; opacity: 1;"><g class="fills"/><g class="errorbars"/><g class="lines"><path class="js-line" d="M63.3,237.43L894.7,237.43" style="vector-effect: none; fill: none; stroke: rgb(0, 0, 0); stroke-opacity: 1; stroke-width: 2px; opacity: 1;"/></g><g class="points"/><g class="text"/></g><g class="trace scatter traced05ae2" style="stroke-miterlimit: 2; opacity: 1;"><g class="fills"/><g class="errorbars"/><g class="lines"><path class="js-line" d="M63.3,237.43L894.7,237.43" style="vector-effect: none; fill: none; stroke: rgb(100, 143, 255); stroke-opacity: 1; stroke-width: 2px; opacity: 1;"/></g><g class="points"/><g class="text"/></g><g class="trace scatter trace5948a1" style="stroke-miterlimit: 2; opacity: 1;"><g class="fills"/><g class="errorbars"/><g class="lines"/><g class="points"><path class="point" transform="translate(63.3,237.43)" d="M0,0Z" style="opacity: 1; stroke-width: 0px; fill: rgb(12, 51, 131); fill-opacity: 1;"/><path class="point" transform="translate(146.44,237.43)" d="M-3.0000000000000004,-6.93L-2.9999999999999996,6.93L6,-3.6739403974420594e-16Z" style="opacity: 1; stroke-width: 0px; fill: rgb(11, 85, 153); fill-opacity: 1;"/><path class="point" transform="translate(229.58,237.43)" d="M-3.0000000000000004,-6.93L-2.9999999999999996,6.93L6,-3.6739403974420594e-16Z" style="opacity: 1; stroke-width: 0px; fill: rgb(10, 119, 175); fill-opacity: 1;"/><path class="point" transform="translate(312.72,237.43)" d="M-3.0000000000000004,-6.93L-2.9999999999999996,6.93L6,-3.6739403974420594e-16Z" style="opacity: 1; stroke-width: 0px; fill: rgb(56, 151, 160); fill-opacity: 1;"/><path class="point" transform="translate(395.86,237.43)" d="M-3.0000000000000004,-6.93L-2.9999999999999996,6.93L6,-3.6739403974420594e-16Z" style="opacity: 1; stroke-width: 0px; fill: rgb(149, 181, 108); fill-opacity: 1;"/><path class="point" transform="translate(479,237.43)" d="M-3.0000000000000004,-6.93L-2.9999999999999996,6.93L6,-3.6739403974420594e-16Z" style="opacity: 1; stroke-width: 0px; fill: rgb(242, 211, 56); fill-opacity: 1;"/><path class="point" transform="translate(562.14,237.43)" d="M-3.0000000000000004,-6.93L-2.9999999999999996,6.93L6,-3.6739403974420594e-16Z" style="opacity: 1; stroke-width: 0px; fill: rgb(242, 184, 56); fill-opacity: 1;"/><path class="point" transform="translate(645.28,237.43)" d="M-3.0000000000000004,-6.93L-2.9999999999999996,6.93L6,-3.6739403974420594e-16Z" style="opacity: 1; stroke-width: 0px; fill: rgb(242, 157, 56); fill-opacity: 1;"/><path class="point" transform="translate(728.42,237.43)" d="M-3.0000000000000004,-6.93L-2.9999999999999996,6.93L6,-3.6739403974420594e-16Z" style="opacity: 1; stroke-width: 0px; fill: rgb(237, 120, 51); fill-opacity: 1;"/><path class="point" transform="translate(811.56,237.43)" d="M-3.0000000000000004,-6.93L-2.9999999999999996,6.93L6,-3.6739403974420594e-16Z" style="opacity: 1; stroke-width: 0px; fill: rgb(227, 75, 40); fill-opacity: 1;"/><path class="point" transform="translate(894.7,237.43)" d="M-3.0000000000000004,-6.93L-2.9999999999999996,6.93L6,-3.6739403974420594e-16Z" style="opacity: 1; stroke-width: 0px; fill: rgb(217, 30, 30); fill-opacity: 1;"/></g><g class="text"/></g><g class="trace scatter trace7b65ec" style="stroke-miterlimit: 2; opacity: 1;"><g class="fills"/><g class="errorbars"/><g class="lines"><path class="js-line" d="M533.14,489.04L480.52,190.63L480.09,188.17L424.86,-125.04" style="vector-effect: none; fill: none; stroke: rgb(220, 38, 127); stroke-opacity: 1; stroke-width: 2px; opacity: 1;"/></g><g class="points"/><g class="text"/></g><g class="trace scatter traceb9ec2d" style="stroke-miterlimit: 2; opacity: 1;"><g class="fills"/><g class="errorbars"/><g class="lines"/><g class="points"><path class="point" transform="translate(533.14,489.04)" d="M0,0Z" style="opacity: 1; stroke-width: 0px; fill: rgb(12, 51, 131); fill-opacity: 1;"/><path class="point" transform="translate(522.31,427.63)" d="M-6.303705386966328,4.157907934807081L7.345690817258788,1.7509215908314975L-1.0419854302924605,-5.908829525638579Z" style="opacity: 1; stroke-width: 0px; fill: rgb(11, 85, 153); fill-opacity: 1;"/><path class="point" transform="translate(511.48,366.23)" d="M-6.304248590786009,4.157084279344433L7.345461985303024,1.7518813380101266L-1.0412133945170159,-5.90896561735456Z" style="opacity: 1; stroke-width: 0px; fill: rgb(10, 119, 175); fill-opacity: 1;"/><path class="point" transform="translate(500.66,304.82)" d="M-6.303705386966328,4.157907934807081L7.345690817258788,1.7509215908314975L-1.0419854302924605,-5.908829525638579Z" style="opacity: 1; stroke-width: 0px; fill: rgb(56, 151, 160); fill-opacity: 1;"/><path class="point" transform="translate(489.83,243.41)" d="M-6.303705386966335,4.157907934807071L7.345690817258786,1.75092159083151L-1.0419854302924505,-5.9088295256385805Z" style="opacity: 1; stroke-width: 0px; fill: rgb(149, 181, 108); fill-opacity: 1;"/><path class="point" transform="translate(479,182)" d="M-6.303705386966328,4.157907934807081L7.345690817258788,1.7509215908314975L-1.0419854302924605,-5.908829525638579Z" style="opacity: 1; stroke-width: 0px; fill: rgb(242, 211, 56); fill-opacity: 1;"/><path class="point" transform="translate(468.17,120.59)" d="M-6.303705386966328,4.157907934807081L7.345690817258788,1.7509215908314975L-1.0419854302924605,-5.908829525638579Z" style="opacity: 1; stroke-width: 0px; fill: rgb(242, 184, 56); fill-opacity: 1;"/><path class="point" transform="translate(457.34,59.18)" d="M-6.303705386966333,4.157907934807076L7.345690817258787,1.750921590831505L-1.041985430292455,-5.9088295256385805Z" style="opacity: 1; stroke-width: 0px; fill: rgb(242, 157, 56); fill-opacity: 1;"/><path class="point" transform="translate(446.52,-2.23)" d="M-6.303705386966333,4.157907934807076L7.345690817258787,1.750921590831505L-1.041985430292455,-5.9088295256385805Z" style="opacity: 1; stroke-width: 0px; fill: rgb(237, 120, 51); fill-opacity: 1;"/><path class="point" transform="translate(435.69,-63.63)" d="M-6.304248590786009,4.157084279344433L7.345461985303024,1.7518813380101266L-1.0412133945170159,-5.90896561735456Z" style="opacity: 1; stroke-width: 0px; fill: rgb(227, 75, 40); fill-opacity: 1;"/><path class="point" transform="translate(424.86,-125.04)" d="M-6.303705386966333,4.157907934807076L7.345690817258787,1.750921590831505L-1.041985430292455,-5.9088295256385805Z" style="opacity: 1; stroke-width: 0px; fill: rgb(217, 30, 30); fill-opacity: 1;"/></g><g class="text"/></g></g></g></g><path class="xlines-above crisp" d="M0,0" style="fill: none;"/><path class="ylines-above crisp" d="M0,0" style="fill: none;"/><g class="overlines-above"/><g class="xaxislayer-above"><g class="xtick"><text text-anchor="middle" x="0" y="400" transform="translate(184.3,0)" style="font-family: 'Open Sans', verdana, arial, sans-serif; font-size: 28px; fill: rgb(0, 0, 0); fill-opacity: 1; white-space: pre; opacity: 1;">−1500</text></g><g class="xtick"><text text-anchor="middle" x="0" y="400" style="font-family: 'Open Sans', verdana, arial, sans-serif; font-size: 28px; fill: rgb(0, 0, 0); fill-opacity: 1; white-space: pre; opacity: 1;" transform="translate(322.86,0)">−1000</text></g><g class="xtick"><text text-anchor="middle" x="0" y="400" style="font-family: 'Open Sans', verdana, arial, sans-serif; font-size: 28px; fill: rgb(0, 0, 0); fill-opacity: 1; white-space: pre; opacity: 1;" transform="translate(461.43,0)">−500</text></g><g class="xtick"><text text-anchor="middle" x="0" y="400" style="font-family: 'Open Sans', verdana, arial, sans-serif; font-size: 28px; fill: rgb(0, 0, 0); fill-opacity: 1; white-space: pre; opacity: 1;" transform="translate(600,0)">0</text></g><g class="xtick"><text text-anchor="middle" x="0" y="400" style="font-family: 'Open Sans', verdana, arial, sans-serif; font-size: 28px; fill: rgb(0, 0, 0); fill-opacity: 1; white-space: pre; opacity: 1;" transform="translate(738.57,0)">500</text></g><g class="xtick"><text text-anchor="middle" x="0" y="400" style="font-family: 'Open Sans', verdana, arial, sans-serif; font-size: 28px; fill: rgb(0, 0, 0); fill-opacity: 1; white-space: pre; opacity: 1;" transform="translate(877.14,0)">1000</text></g><g class="xtick"><text text-anchor="middle" x="0" y="400" style="font-family: 'Open Sans', verdana, arial, sans-serif; font-size: 28px; fill: rgb(0, 0, 0); fill-opacity: 1; white-space: pre; opacity: 1;" transform="translate(1015.7,0)">1500</text></g></g><g class="yaxislayer-above"><g class="ytick"><text text-anchor="end" x="120" y="9.799999999999999" transform="translate(0,355.28)" style="font-family: 'Open Sans', verdana, arial, sans-serif; font-size: 28px; fill: rgb(0, 0, 0); fill-opacity: 1; white-space: pre; opacity: 1;">−600</text></g><g class="ytick"><text text-anchor="end" x="120" y="9.799999999999999" style="font-family: 'Open Sans', verdana, arial, sans-serif; font-size: 28px; fill: rgb(0, 0, 0); fill-opacity: 1; white-space: pre; opacity: 1;" transform="translate(0,299.85)">−400</text></g><g class="ytick"><text text-anchor="end" x="120" y="9.799999999999999" style="font-family: 'Open Sans', verdana, arial, sans-serif; font-size: 28px; fill: rgb(0, 0, 0); fill-opacity: 1; white-space: pre; opacity: 1;" transform="translate(0,244.43)">−200</text></g><g class="ytick"><text text-anchor="end" x="120" y="9.799999999999999" style="font-family: 'Open Sans', verdana, arial, sans-serif; font-size: 28px; fill: rgb(0, 0, 0); fill-opacity: 1; white-space: pre; opacity: 1;" transform="translate(0,189)">0</text></g><g class="ytick"><text text-anchor="end" x="120" y="9.799999999999999" style="font-family: 'Open Sans', verdana, arial, sans-serif; font-size: 28px; fill: rgb(0, 0, 0); fill-opacity: 1; white-space: pre; opacity: 1;" transform="translate(0,133.57)">200</text></g><g class="ytick"><text text-anchor="end" x="120" y="9.799999999999999" style="font-family: 'Open Sans', verdana, arial, sans-serif; font-size: 28px; fill: rgb(0, 0, 0); fill-opacity: 1; white-space: pre; opacity: 1;" transform="translate(0,78.15)">400</text></g><g class="ytick"><text text-anchor="end" x="120" y="9.799999999999999" style="font-family: 'Open Sans', verdana, arial, sans-serif; font-size: 28px; fill: rgb(0, 0, 0); fill-opacity: 1; white-space: pre; opacity: 1;" transform="translate(0,22.72)">600</text></g></g><g class="overaxes-above"/></g></g><g class="polarlayer"/><g class="smithlayer"/><g class="ternarylayer"/><g class="geolayer"/><g class="funnelarealayer"/><g class="pielayer"/><g class="iciclelayer"/><g class="treemaplayer"/><g class="sunburstlayer"/><g class="glimages"/><defs id="topdefs-fdd794"><g class="clips"/><clipPath id="legendfdd794"><rect width="93" height="225" x="2" y="2"/></clipPath></defs><g class="layer-above"><g class="imagelayer"/><g class="shapelayer"/></g><g class="infolayer"><g class="legend" pointer-events="all" transform="translate(1098.1599999999999,7)"><rect class="bg" shape-rendering="crispEdges" style="stroke: rgb(0, 0, 0); stroke-opacity: 1; fill: rgb(255, 255, 255); fill-opacity: 1; stroke-width: 2px;" width="95" height="227" x="1" y="1"/><g class="scrollbox" transform="" clip-path="url(#legendfdd794)"><g class="groups" transform=""><g class="traces" transform="translate(2,28.650000000000002)" style="opacity: 1;"><text class="legendtext" text-anchor="start" x="5" y="12.090000000000002" style="font-family: 'Open Sans', verdana, arial, sans-serif; font-size: 31px; fill: rgb(0, 0, 0); fill-opacity: 1; white-space: pre;">OS</text><g class="layers"><g class="legendfill"/><g class="legendlines"/><g class="legendsymbols"><g class="legendpoints"/></g></g><rect class="legendtoggle" x="0" y="-21.650000000000002" width="87.796875" height="43.300000000000004" style="fill: rgb(0, 0, 0); fill-opacity: 0;"/></g><g class="traces" transform="translate(2,70)" style="opacity: 1;"><text class="legendtext" text-anchor="start" x="40" y="10.92" style="font-family: 'Open Sans', verdana, arial, sans-serif; font-size: 28px; fill: rgb(0, 0, 0); fill-opacity: 1; white-space: pre;">Ref</text><g class="layers" style="opacity: 1;"><g class="legendfill"/><g class="legendlines"><path class="js-line" d="M5,0h30" style="fill: none; stroke: rgb(0, 0, 0); stroke-opacity: 1; stroke-width: 2px;"/></g><g class="legendsymbols"><g class="legendpoints"/></g></g><rect class="legendtoggle" x="0" y="-19.7" width="87.796875" height="39.4" style="fill: rgb(0, 0, 0); fill-opacity: 0;"/></g><g class="traces" transform="translate(2,109.4)" style="opacity: 1;"><text class="legendtext" text-anchor="start" x="40" y="10.92" style="font-family: 'Open Sans', verdana, arial, sans-serif; font-size: 28px; fill: rgb(0, 0, 0); fill-opacity: 1; white-space: pre;">Pos</text><g class="layers" style="opacity: 1;"><g class="legendfill"/><g class="legendlines"><path class="js-line" d="M5,0h30" style="fill: none; stroke: rgb(100, 143, 255); stroke-opacity: 1; stroke-width: 2px;"/></g><g class="legendsymbols"><g class="legendpoints"/></g></g><rect class="legendtoggle" x="0" y="-19.7" width="87.796875" height="39.4" style="fill: rgb(0, 0, 0); fill-opacity: 0;"/></g></g><g class="groups" transform="translate(0,10)"><g class="traces" transform="translate(2,150.75)" style="opacity: 1;"><text class="legendtext" text-anchor="start" x="5" y="12.090000000000002" style="font-family: 'Open Sans', verdana, arial, sans-serif; font-size: 31px; fill: rgb(0, 0, 0); fill-opacity: 1; white-space: pre;">TS</text><g class="layers"><g class="legendfill"/><g class="legendlines"/><g class="legendsymbols"><g class="legendpoints"/></g></g><rect class="legendtoggle" x="0" y="-21.650000000000002" width="87.796875" height="43.300000000000004" style="fill: rgb(0, 0, 0); fill-opacity: 0;"/></g><g class="traces" transform="translate(2,192.1)" style="opacity: 1;"><text class="legendtext" text-anchor="start" x="40" y="10.92" style="font-family: 'Open Sans', verdana, arial, sans-serif; font-size: 28px; fill: rgb(0, 0, 0); fill-opacity: 1; white-space: pre;">Pos</text><g class="layers" style="opacity: 1;"><g class="legendfill"/><g class="legendlines"><path class="js-line" d="M5,0h30" style="fill: none; stroke: rgb(220, 38, 127); stroke-opacity: 1; stroke-width: 2px;"/></g><g class="legendsymbols"><g class="legendpoints"/></g></g><rect class="legendtoggle" x="0" y="-19.7" width="87.796875" height="39.4" style="fill: rgb(0, 0, 0); fill-opacity: 0;"/></g></g></g><rect class="scrollbar" rx="20" ry="3" width="0" height="0" style="fill: rgb(128, 139, 164); fill-opacity: 1;" x="0" y="0"/></g><g class="g-gtitle"/><g class="g-xtitle" transform="translate(0,-1.3000000000000114)"><text class="xtitle" x="600" y="444.3" text-anchor="middle" style="opacity: 1; font-family: 'Open Sans', verdana, arial, sans-serif; font-size: 34px; fill: rgb(0, 0, 0); fill-opacity: 1; white-space: pre;">East [m]</text></g><g class="g-ytitle" transform="translate(16.728515625,0)"><text class="ytitle" transform="rotate(-90,17.271874999999994,189)" x="17.271874999999994" y="189" text-anchor="middle" style="opacity: 1; font-family: 'Open Sans', verdana, arial, sans-serif; font-size: 34px; fill: rgb(0, 0, 0); fill-opacity: 1; white-space: pre;">North [m]</text></g></g></svg>