<svg class="main-svg" xmlns="http://www.w3.org/2000/svg" xmlns:xlink="http://www.w3.org/1999/xlink" width="1000" height="400" style="" viewBox="0 0 1000 400"><rect x="0" y="0" width="1000" height="400" style="fill: rgb(255, 255, 255); fill-opacity: 1;"/><defs id="defs-ac9440"><g class="clips"><clipPath id="clipac9440xyplot" class="plotclip"><rect width="806" height="220"/></clipPath><clipPath class="axesclip" id="clipac9440x"><rect x="114" y="0" width="806" height="400"/></clipPath><clipPath class="axesclip" id="clipac9440y"><rect x="0" y="100" width="1000" height="220"/></clipPath><clipPath class="axesclip" id="clipac9440xy"><rect x="114" y="100" width="806" height="220"/></clipPath></g><g class="gradients"/><g class="patterns"/></defs><g class="bglayer"/><g class="layer-below"><g class="imagelayer"/><g class="shapelayer"/></g><g class="cartesianlayer"><g class="subplot xy"><g class="layer-subplot"><g class="shapelayer"/><g class="imagelayer"/></g><g class="minor-gridlayer"><g class="x"/><g class="y"/></g><g class="gridlayer"><g class="x"><path class="xgrid crisp" transform="translate(127,0)" d="M0,100v220" style="stroke: rgb(200, 200, 200); stroke-opacity: 1; stroke-width: 1px;"/><path class="xgrid crisp" transform="translate(257,0)" d="M0,100v220" style="stroke: rgb(200, 200, 200); stroke-opacity: 1; stroke-width: 1px;"/><path class="xgrid crisp" transform="translate(387,0)" d="M0,100v220" style="stroke: rgb(200, 200, 200); stroke-opacity: 1; stroke-width: 1px;"/><path class="xgrid crisp" transform="translate(647,0)" d="M0,100v220" style="stroke: rgb(200, 200, 200); stroke-opacity: 1; stroke-width: 1px;"/><path class="xgrid crisp" transform="translate(777,0)" d="M0,100v220" style="stroke: rgb(200, 200, 200); stroke-opacity: 1; stroke-width: 1px;"/><path class="xgrid crisp" transform="translate(907,0)" d="M0,100v220" style="stroke: rgb(200, 200, 200); stroke-opacity: 1; stroke-width: 1px;"/></g><g class="y"><path class="ygrid crisp" transform="translate(0,288)" d="M114,0h806" style="stroke: rgb(200, 200, 200); stroke-opacity: 1; stroke-width: 1px;"/><path class="ygrid crisp" transform="translate(0,184)" d="M114,0h806" style="stroke: rgb(200, 200, 200); stroke-opacity: 1; stroke-width: 1px;"/><path class="ygrid crisp" transform="translate(0,132)" d="M114,0h806" style="stroke: rgb(200, 200, 200); stroke-opacity: 1; stroke-width: 1px;"/></g></g><g class="zerolinelayer"><path class="xzl zl crisp" transform="translate(517,0)" d="M0,100v220" style="stroke: rgb(200, 200, 200); stroke-opacity: 1; stroke-width: 2px;"/><path class="yzl zl crisp" transform="translate(0,236)" d="M114,0h806" style="stroke: rgb(200, 200, 200); stroke-opacity: 1; stroke-width: 2px;"/></g><g class="layer-between"><g class="shapelayer"/><g class="imagelayer"/></g><path class="xlines-below"/><path class="ylines-below"/><g class="overlines-below"/><g class="xaxislayer-below"/><g class="yaxislayer-below"/><g class="overaxes-below"/><g class="overplot"><g class="xy" transform="translate(114,100)" clip-path="url(#clipac9440xyplot)"><g class="scatterlayer mlayer"><g class="trace scatter trace8eeb96" style="stroke-miterlimit: 2; opacity: 1;"><g class="fills"/><g class="errorbars"/><g class="lines"><path class="js-line" d="M13,32L793,32" style="vector-effect: none; fill: none; stroke: rgb(0, 0, 0); stroke-opacity: 1; stroke-width: 2px; opacity: 1;"/></g><g class="points"/><g class="text"/></g><g class="trace scatter trace0305c9" style="stroke-miterlimit: 2; opacity: 1;"><g class="fills"/><g class="errorbars"/><g class="lines"><path class="js-line" d="M13,32L793,32" style="vector-effect: none; fill: none; stroke: rgb(100, 143, 255); stroke-opacity: 1; stroke-width: 2px; opacity: 1;"/></g><g class="points"/><g class="text"/></g><g class="trace scatter traceddc5f0" style="stroke-miterlimit: 2; opacity: 1;"><g class="fills"/><g class="errorbars"/><g class="lines"/><g class="points"><path class="point" transform="translate(13,32)" d="M-3.2500000000000004,-7.51L-3.2499999999999996,7.51L6.5,-3.9801020972288977e-16Z" style="opacity: 1; stroke-width: 0px; fill: rgb(12, 51, 131); fill-opacity: 1;"/><path class="point" transform="translate(106.6,32)" d="M-3.249999999999867,-7.5100000000000575L-3.250000000000133,7.509999999999942L6.5,1.1506518435129338e-13Z" style="opacity: 1; stroke-width: 0px; fill: rgb(11, 93, 159); fill-opacity: 1;"/><path class="point" transform="translate(200.2,32)" d="M-3.249999999999799,-7.510000000000087L-3.250000000000201,7.509999999999913L6.5,1.7424007156381423e-13Z" style="opacity: 1; stroke-width: 0px; fill: rgb(10, 136, 186); fill-opacity: 1;"/><path class="point" transform="translate(293.8,32)" d="M-3.250000000000202,-7.509999999999912L-3.249999999999798,7.510000000000088L6.5,-1.7503609198326002e-13Z" style="opacity: 1; stroke-width: 0px; fill: rgb(126, 174, 121); fill-opacity: 1;"/><path class="point" transform="translate(387.4,32)" d="M-3.2500000000000004,-7.51L-3.2499999999999996,7.51L6.5,-3.9801020972288977e-16Z" style="opacity: 1; stroke-width: 0px; fill: rgb(242, 211, 56); fill-opacity: 1;"/><path class="point" transform="translate(481,32)" d="M-3.250000000000469,-7.509999999999796L-3.249999999999531,7.510000000000203L6.5,-4.0596248110529255e-13Z" style="opacity: 1; stroke-width: 0px; fill: rgb(242, 177, 56); fill-opacity: 1;"/><path class="point" transform="translate(574.6,32)" d="M-3.2499999999997535,-7.510000000000106L-3.2500000000002465,7.509999999999893L6.5,2.1320889972815722e-13Z" style="opacity: 1; stroke-width: 0px; fill: rgb(242, 143, 56); fill-opacity: 1;"/><path class="point" transform="translate(668.2,32)" d="M-3.2500000000000004,-7.51L-3.2499999999999996,7.51L6.5,-3.9801020972288977e-16Z" style="opacity: 1; stroke-width: 0px; fill: rgb(230, 87, 43); fill-opacity: 1;"/><path class="point" transform="translate(761.8,32)" d="M-3.2500000000000004,-7.51L-3.2499999999999996,7.51L6.5,-3.9801020972288977e-16Z" style="opacity: 1; stroke-width: 0px; fill: rgb(217, 30, 30); fill-opacity: 1;"/></g><g class="text"/></g><g class="trace scatter trace8f7a92" style="stroke-miterlimit: 2; opacity: 1;"><g class="fills"/><g class="errorbars"/><g class="lines"><path class="js-line" d="M13,51.5L793,51.5" style="vector-effect: none; fill: none; stroke: rgb(0, 0, 0); stroke-opacity: 1; stroke-width: 2px; opacity: 1;"/></g><g class="points"/><g class="text"/></g><g class="trace scatter traceb6e3c6" style="stroke-miterlimit: 2; opacity: 1;"><g class="fills"/><g class="errorbars"/><g class="lines"><path class="js-line" d="M13,51.5L793,51.5" style="vector-effect: none; fill: none; stroke: rgb(100, 143, 255); stroke-opacity: 1; stroke-width: 2px; opacity: 1;"/></g><g class="points"/><g class="text"/></g><g class="trace scatter traced8ab46" style="stroke-miterlimit: 2; opacity: 1;"><g class="fills"/><g class="errorbars"/><g class="lines"/><g class="points"><path class="point" transform="translate(13,51.5)" d="M-3.2500000000000004,-7.51L-3.2499999999999996,7.51L6.5,-3.9801020972288977e-16Z" style="opacity: 1; stroke-width: 0px; fill: rgb(12, 51, 131); fill-opacity: 1;"/><path class="point" transform="translate(106.6,51.5)" d="M-3.2499999999999405,-7.5100000000000255L-3.2500000000000595,7.509999999999974L6.5,5.156042734273444e-14Z" style="opacity: 1; stroke-width: 0px; fill: rgb(11, 94, 159); fill-opacity: 1;"/><path class="point" transform="translate(200.2,51.5)" d="M-3.2499999999999853,-7.510000000000006L-3.2500000000000147,7.509999999999994L6.5,1.2591599178391442e-14Z" style="opacity: 1; stroke-width: 0px; fill: rgb(10, 136, 186); fill-opacity: 1;"/><path class="point" transform="translate(293.8,51.5)" d="M-3.2500000000001554,-7.509999999999932L-3.2499999999998446,7.510000000000067L6.5,-1.3462397388690432e-13Z" style="opacity: 1; stroke-width: 0px; fill: rgb(126, 174, 121); fill-opacity: 1;"/><path class="point" transform="translate(387.4,51.5)" d="M-3.2500000000000004,-7.51L-3.2499999999999996,7.51L6.5,-3.9801020972288977e-16Z" style="opacity: 1; stroke-width: 0px; fill: rgb(242, 211, 56); fill-opacity: 1;"/><path class="point" transform="translate(481,51.5)" d="M-3.250000000000998,-7.509999999999568L-3.249999999999002,7.510000000000431L6.5,-8.634853895533197e-13Z" style="opacity: 1; stroke-width: 0px; fill: rgb(242, 177, 56); fill-opacity: 1;"/><path class="point" transform="translate(574.6,51.5)" d="M-3.24999999999912,-7.510000000000381L-3.25000000000088,7.509999999999619L6.5,7.616590738929844e-13Z" style="opacity: 1; stroke-width: 0px; fill: rgb(242, 143, 56); fill-opacity: 1;"/><path class="point" transform="translate(668.2,51.5)" d="M-3.2500000000000004,-7.51L-3.2499999999999996,7.51L6.5,-3.9801020972288977e-16Z" style="opacity: 1; stroke-width: 0px; fill: rgb(230, 86, 43); fill-opacity: 1;"/><path class="point" transform="translate(761.8,51.5)" d="M-3.2500000000000004,-7.51L-3.2499999999999996,7.51L6.5,-3.9801020972288977e-16Z" style="opacity: 1; stroke-width: 0px; fill: rgb(217, 30, 30); fill-opacity: 1;"/></g><g class="text"/></g><g class="trace scatter traceaee109" style="stroke-miterlimit: 2; opacity: 1;"><g class="fills"/><g class="errorbars"/><g class="lines"><path class="js-line" d="M13,71L793,71" style="vector-effect: none; fill: none; stroke: rgb(0, 0, 0); stroke-opacity: 1; stroke-width: 2px; opacity: 1;"/></g><g class="points"/><g class="text"/></g><g class="trace scatter tracefd6c9f" style="stroke-miterlimit: 2; opacity: 1;"><g class="fills"/><g class="errorbars"/><g class="lines"><path class="js-line" d="M13,71L107.22,71.66L109.84,71.87L125.49,73.88L128.09,74.34L143.64,77.84L146.23,78.55L164.24,84.52L166.8,85.52L210.28,103.78L212.84,104.86L264.02,125.7L266.59,126.53L284.64,131.36L287.23,131.9L302.79,134.42L305.39,134.71L321.03,135.73L323.64,135.77L415.25,135.43L417.86,135.25L436.07,132.99L438.66,132.53L454.19,128.99L456.77,128.27L474.78,122.27L477.34,121.27L528.58,99.96L531.14,98.89L572.17,82.37L574.75,81.52L590.29,77.15L592.89,76.55L611.18,73.3L613.8,72.98L629.61,71.78L632.26,71.7L708.85,71.28L711.48,71.27L793,71" style="vector-effect: none; fill: none; stroke: rgb(100, 143, 255); stroke-opacity: 1; stroke-width: 2px; opacity: 1;"/></g><g class="points"/><g class="text"/></g><g class="trace scatter trace569e90" style="stroke-miterlimit: 2; opacity: 1;"><g class="fills"/><g class="errorbars"/><g class="lines"/><g class="points"><path class="point" transform="translate(13,71)" d="M-3.2500000000000004,-7.51L-3.2499999999999996,7.51L6.5,-3.9801020972288977e-16Z" style="opacity: 1; stroke-width: 0px; fill: rgb(12, 51, 131); fill-opacity: 1;"/><path class="point" transform="translate(103.89,71.44)" d="M-2.826345217058705,-7.679477372452462L-3.6635495995498513,7.317171880695309L6.489894816608556,0.3623054917571537Z" style="opacity: 1; stroke-width: 0px; fill: rgb(11, 94, 159); fill-opacity: 1;"/><path class="point" transform="translate(190.99,95.65)" d="M-0.07876595656158525,-8.182688795505237L-5.9111729703162785,5.658677770910995L5.989938926877864,2.5240110245942415Z" style="opacity: 1; stroke-width: 0px; fill: rgb(10, 136, 186); fill-opacity: 1;"/><path class="point" transform="translate(277.37,129.63)" d="M-1.272850449117239,-8.083467803745002L-5.021460801900702,6.461232963991838L6.29431125101794,1.6222348397531627Z" style="opacity: 1; stroke-width: 0px; fill: rgb(126, 174, 121); fill-opacity: 1;"/><path class="point" transform="translate(365.28,135.8)" d="M-3.2480702580103014,-7.5108348137227L-3.2519295274272597,7.509164690473017L6.499999785437561,0.0016701232496824962Z" style="opacity: 1; stroke-width: 0px; fill: rgb(242, 211, 56); fill-opacity: 1;"/><path class="point" transform="translate(453.26,129.24)" d="M-5.06425166029773,-6.427748837748071L-1.2191494597074914,8.091741134940918L6.283401120005221,-1.6639922971928462Z" style="opacity: 1; stroke-width: 0px; fill: rgb(242, 177, 56); fill-opacity: 1;"/><path class="point" transform="translate(539.76,95.29)" d="M-5.8901980526690965,-5.680507626993664L-0.10903754562503121,8.182341401679844L5.999235598294128,-2.50183377468618Z" style="opacity: 1; stroke-width: 0px; fill: rgb(242, 143, 56); fill-opacity: 1;"/><path class="point" transform="translate(627.22,71.88)" d="M-3.6057644101174056,-7.345819424593194L-2.886784391381445,7.656962575177997L6.492548801498851,-0.3111431505848033Z" style="opacity: 1; stroke-width: 0px; fill: rgb(230, 87, 43); fill-opacity: 1;"/><path class="point" transform="translate(716.28,71.25)" d="M-3.2749007775845302,-7.499174947751001L-3.2250634412620847,7.520742370260715L6.499964218846615,-0.021567422509713535Z" style="opacity: 1; stroke-width: 0px; fill: rgb(217, 30, 30); fill-opacity: 1;"/></g><g class="text"/></g><g class="trace scatter trace83dac0" style="stroke-miterlimit: 2; opacity: 1;"><g class="fills"/><g class="errorbars"/><g class="lines"><path class="js-line" d="M13,90.5L793,90.5" style="vector-effect: none; fill: none; stroke: rgb(0, 0, 0); stroke-opacity: 1; stroke-width: 2px; opacity: 1;"/></g><g class="points"/><g class="text"/></g><g class="trace scatter trace2268e1" style="stroke-miterlimit: 2; opacity: 1;"><g class="fills"/><g class="errorbars"/><g class="lines"><path class="js-line" d="M13,90.5L108.83,91.17L111.44,91.36L129.71,93.51L132.31,93.93L150.46,97.67L153.05,98.32L173.67,104.5L176.25,105.36L266.32,134.51L268.91,135.14L287.03,138.77L289.63,139.17L307.83,141.2L310.44,141.38L331.33,141.84L333.95,141.85L420.26,141.26L422.86,141.06L441.07,138.87L443.67,138.44L464.38,134.01L466.96,133.32L487.58,126.94L490.15,126.09L575.15,98.69L577.74,98.04L595.94,94.29L598.54,93.87L616.86,91.69L619.49,91.5L640.57,90.87L643.21,90.86L793,90.5" style="vector-effect: none; fill: none; stroke: rgb(100, 143, 255); stroke-opacity: 1; stroke-width: 2px; opacity: 1;"/></g><g class="points"/><g class="text"/></g><g class="trace scatter tracec9f932" style="stroke-miterlimit: 2; opacity: 1;"><g class="fills"/><g class="errorbars"/><g class="lines"/><g class="points"><path class="point" transform="translate(13,90.5)" d="M-3.2500000000000004,-7.51L-3.2499999999999996,7.51L6.5,-3.9801020972288977e-16Z" style="opacity: 1; stroke-width: 0px; fill: rgb(12, 51, 131); fill-opacity: 1;"/><path class="point" transform="translate(104.97,90.93)" d="M-2.850657398607982,-7.670485799202131L-3.6403525357978754,7.3287402338403265L6.491009934405858,0.3417455653618048Z" style="opacity: 1; stroke-width: 0px; fill: rgb(11, 94, 159); fill-opacity: 1;"/><path class="point" transform="translate(194.4,111.39)" d="M-0.7164717050747096,-8.151642061316684L-5.452014464710771,6.102305980249148L6.1684861697854805,2.0493360810675365Z" style="opacity: 1; stroke-width: 0px; fill: rgb(10, 136, 186); fill-opacity: 1;"/><path class="point" transform="translate(283.36,138.15)" d="M-1.891666368572642,-7.961419367801899L-4.508893622756052,6.8287977198530205L6.400559991328693,1.1326216479488789Z" style="opacity: 1; stroke-width: 0px; fill: rgb(126, 174, 121); fill-opacity: 1;"/><path class="point" transform="translate(373.49,141.86)" d="M-3.2490118964618775,-7.510427530883259L-3.2509880472802033,7.509572339117671L6.499999943742081,0.0008551917655871746Z" style="opacity: 1; stroke-width: 0px; fill: rgb(242, 211, 56); fill-opacity: 1;"/><path class="point" transform="translate(463.46,134.24)" d="M-5.001825038573628,-6.476445497608848L-1.2973813976406738,8.079566913458661L6.299206436214302,-1.6031214158498137Z" style="opacity: 1; stroke-width: 0px; fill: rgb(242, 177, 56); fill-opacity: 1;"/><path class="point" transform="translate(552.38,105.56)" d="M-5.4401390807837355,-6.11289512274908L-0.7323200754998136,8.15023357377075L6.172459156283549,-2.0373384510216708Z" style="opacity: 1; stroke-width: 0px; fill: rgb(242, 143, 56); fill-opacity: 1;"/><path class="point" transform="translate(642.42,90.87)" d="M-3.278521553492967,-7.4975927085486616L-3.2214314932128336,7.522298793223819L6.499953046705801,-0.024706084675157423Z" style="opacity: 1; stroke-width: 0px; fill: rgb(230, 87, 43); fill-opacity: 1;"/><path class="point" transform="translate(733.24,90.62)" d="M-3.264971476421501,-7.503503265685569L-3.235015596270498,7.516466862288866L6.499987072691999,-0.012963596603296948Z" style="opacity: 1; stroke-width: 0px; fill: rgb(217, 30, 30); fill-opacity: 1;"/></g><g class="text"/></g><g class="trace scatter trace445326" style="stroke-miterlimit: 2; opacity: 1;"><g class="fills"/><g class="errorbars"/><g class="lines"><path class="js-line" d="M13,110L793,110" style="vector-effect: none; fill: none; stroke: rgb(0, 0, 0); stroke-opacity: 1; stroke-width: 2px; opacity: 1;"/></g><g class="points"/><g class="text"/></g><g class="trace scatter tracefac42b" style="stroke-miterlimit: 2; opacity: 1;"><g class="fills"/><g class="errorbars"/><g class="lines"><path class="js-line" d="M13,110L110.58,110.6L113.2,110.76L136.68,113.11L139.28,113.48L160.04,117.12L162.63,117.67L209.17,128.65L211.76,129.27L268.66,142.09L271.26,142.52L294.64,145.5L297.25,145.73L318.11,146.83L320.72,146.87L388.69,146.92L391.31,146.92L425.27,146.17L427.87,145.99L451.28,143.41L453.88,143.02L477.2,138.59L479.79,138L580.69,114.88L583.29,114.46L604.15,111.78L606.76,111.54L630.35,110.27L632.98,110.23L756.32,110.04L758.94,110.04L793,110" style="vector-effect: none; fill: none; stroke: rgb(100, 143, 255); stroke-opacity: 1; stroke-width: 2px; opacity: 1;"/></g><g class="points"/><g class="text"/></g><g class="trace scatter trace68c630" style="stroke-miterlimit: 2; opacity: 1;"><g class="fills"/><g class="errorbars"/><g class="lines"/><g class="points"><path class="point" transform="translate(13,110)" d="M-3.2500000000000004,-7.51L-3.2499999999999996,7.51L6.5,-3.9801020972288977e-16Z" style="opacity: 1; stroke-width: 0px; fill: rgb(12, 51, 131); fill-opacity: 1;"/><path class="point" transform="translate(105.94,110.37)" d="M-2.923897304651364,-7.642867560794998L-3.5700845679307625,7.363225935540931L6.493981872582126,0.2796416252540672Z" style="opacity: 1; stroke-width: 0px; fill: rgb(11, 94, 159); fill-opacity: 1;"/><path class="point" transform="translate(197.4,125.86)" d="M-1.424424862090618,-8.058139599948497L-4.899240285068396,6.554391247794332L6.323665147159014,1.503748352154165Z" style="opacity: 1; stroke-width: 0px; fill: rgb(10, 136, 186); fill-opacity: 1;"/><path class="point" transform="translate(288.59,144.89)" d="M-2.4065483501386558,-7.821197161460956L-4.054223384133844,7.108155369119496L6.4607717342725,0.7130417923414596Z" style="opacity: 1; stroke-width: 0px; fill: rgb(126, 174, 121); fill-opacity: 1;"/><path class="point" transform="translate(380.58,146.92)" d="M-3.249504621878444,-7.51021435861791L-3.2504953639810577,7.509785608706659L6.4999999858595015,0.0004287499112508575Z" style="opacity: 1; stroke-width: 0px; fill: rgb(242, 211, 56); fill-opacity: 1;"/><path class="point" transform="translate(472.34,139.65)" d="M-4.728104643092456,-6.678894106359792L-1.632332771035451,8.018608964440386L6.360437414127906,-1.3397148580805944Z" style="opacity: 1; stroke-width: 0px; fill: rgb(242, 177, 56); fill-opacity: 1;"/><path class="point" transform="translate(563.43,118.23)" d="M-4.791119181142838,-6.633835767644928L-1.5563506856071032,8.033702293675706L6.347469866749941,-1.3998665260307774Z" style="opacity: 1; stroke-width: 0px; fill: rgb(242, 143, 56); fill-opacity: 1;"/><path class="point" transform="translate(655.53,110.17)" d="M-3.263675622313947,-7.50406699279222L-3.2363135921809256,7.515908084394393L6.499989214494873,-0.011841091602172936Z" style="opacity: 1; stroke-width: 0px; fill: rgb(230, 87, 43); fill-opacity: 1;"/><path class="point" transform="translate(747.92,110.05)" d="M-3.2578262061274184,-7.506608316055224L-3.24217026283701,7.513383524536425L6.4999964689644285,-0.00677520848120177Z" style="opacity: 1; stroke-width: 0px; fill: rgb(217, 30, 30); fill-opacity: 1;"/></g><g class="text"/></g><g class="trace scatter trace8ef6a4" style="stroke-miterlimit: 2; opacity: 1;"><g class="fills"/><g class="errorbars"/><g class="lines"><path class="js-line" d="M13,129.5L793,129.5" style="vector-effect: none; fill: none; stroke: rgb(0, 0, 0); stroke-opacity: 1; stroke-width: 2px; opacity: 1;"/></g><g class="points"/><g class="text"/></g><g class="trace scatter trace5a6fac" style="stroke-miterlimit: 2; opacity: 1;"><g class="fills"/><g class="errorbars"/><g class="lines"><path class="js-line" d="M13,129.5L117.76,130.14L120.37,130.26L151.65,132.67L154.25,132.95L193.21,138L195.81,138.35L273.73,148.22L276.33,148.44L307.6,150.21L310.21,150.29L349.4,150.48L352.01,150.48L430.38,149.84L432.98,149.71L461.62,147.53L464.23,147.26L500.59,142.61L503.19,142.26L586.32,131.76L588.93,131.54L617.64,129.89L620.25,129.81L662.15,129.56L664.77,129.56L793,129.5" style="vector-effect: none; fill: none; stroke: rgb(100, 143, 255); stroke-opacity: 1; stroke-width: 2px; opacity: 1;"/></g><g class="points"/><g class="text"/></g><g class="trace scatter traceececfd" style="stroke-miterlimit: 2; opacity: 1;"><g class="fills"/><g class="errorbars"/><g class="lines"/><g class="points"><path class="point" transform="translate(13,129.5)" d="M-3.2500000000000004,-7.51L-3.2499999999999996,7.51L6.5,-3.9801020972288977e-16Z" style="opacity: 1; stroke-width: 0px; fill: rgb(12, 51, 131); fill-opacity: 1;"/><path class="point" transform="translate(106.59,129.73)" d="M-3.0491801265570535,-7.59375404894111L-3.448522084417103,7.420936290879172L6.497702210974157,0.17281775806193891Z" style="opacity: 1; stroke-width: 0px; fill: rgb(11, 94, 159); fill-opacity: 1;"/><path class="point" transform="translate(199.58,138.86)" d="M-2.2185411146063228,-7.876590336103645L-4.223300126668031,7.009018193733398L6.4418412412743535,0.8675721423702464Z" style="opacity: 1; stroke-width: 0px; fill: rgb(10, 136, 186); fill-opacity: 1;"/><path class="point" transform="translate(292.42,149.56)" d="M-2.825988069214372,-7.679608807267335L-3.663889890854511,7.317001494307221L6.489877960068883,0.36260731296011334Z" style="opacity: 1; stroke-width: 0px; fill: rgb(126, 173, 121); fill-opacity: 1;"/><path class="point" transform="translate(385.73,150.48)" d="M-3.2497706429925852,-7.510099251537462L-3.250229353976165,7.509900741458018L6.49999999696875,0.00019851007944509885Z" style="opacity: 1; stroke-width: 0px; fill: rgb(242, 211, 56); fill-opacity: 1;"/><path class="point" transform="translate(478.85,145.53)" d="M-4.197374050732603,-7.024574796970745L-2.247628764807014,7.868339401399263L6.445002815539617,-0.8437646044285174Z" style="opacity: 1; stroke-width: 0px; fill: rgb(242, 177, 56); fill-opacity: 1;"/><path class="point" transform="translate(571.63,133.21)" d="M-4.063189983227476,-7.10303365895164L-2.396676814916633,7.824227773067516L6.459866798144109,-0.7211941141158772Z" style="opacity: 1; stroke-width: 0px; fill: rgb(242, 143, 56); fill-opacity: 1;"/><path class="point" transform="translate(664.98,129.56)" d="M-3.2549365386317675,-7.5078617548194L-3.245062056705109,7.512134999328273L6.499998595336876,-0.00427324450887334Z" style="opacity: 1; stroke-width: 0px; fill: rgb(230, 87, 43); fill-opacity: 1;"/><path class="point" transform="translate(758.48,129.51)" d="M-3.253023949558871,-7.5086906437538365L-3.246975523419698,7.511308138421255L6.499999472978569,-0.0026174946674183564Z" style="opacity: 1; stroke-width: 0px; fill: rgb(217, 30, 30); fill-opacity: 1;"/></g><g class="text"/></g><g class="trace scatter tracec42e78" style="stroke-miterlimit: 2; opacity: 1;"><g class="fills"/><g class="errorbars"/><g class="lines"><path class="js-line" d="M13,149L793,149" style="vector-effect: none; fill: none; stroke: rgb(0, 0, 0); stroke-opacity: 1; stroke-width: 2px; opacity: 1;"/></g><g class="points"/><g class="text"/></g><g class="trace scatter tracecd29bd" style="stroke-miterlimit: 2; opacity: 1;"><g class="fills"/><g class="errorbars"/><g class="lines"><path class="js-line" d="M13,149L174.74,149.74L177.35,149.79L336.47,151.59L339.08,151.59L485.17,150.87L487.78,150.83L649.51,149L652.12,149L793,149" style="vector-effect: none; fill: none; stroke: rgb(100, 143, 255); stroke-opacity: 1; stroke-width: 2px; opacity: 1;"/></g><g class="points"/><g class="text"/></g><g class="trace scatter trace7dd65f" style="stroke-miterlimit: 2; opacity: 1;"><g class="fills"/><g class="errorbars"/><g class="lines"/><g class="points"><path class="point" transform="translate(13,149)" d="M-3.2500000000000004,-7.51L-3.2499999999999996,7.51L6.5,-3.9801020972288977e-16Z" style="opacity: 1; stroke-width: 0px; fill: rgb(12, 51, 131); fill-opacity: 1;"/><path class="point" transform="translate(106.6,149.03)" d="M-3.224861152527165,-7.520829112998191L-3.275102483863045,7.499086859091186L6.49996363639021,0.02174225390700553Z" style="opacity: 1; stroke-width: 0px; fill: rgb(11, 94, 159); fill-opacity: 1;"/><path class="point" transform="translate(200.19,150.17)" d="M-3.125294031607744,-7.5627466714148905L-3.373816146056078,7.455197154509818L6.499110177663822,0.10754951690507143Z" style="opacity: 1; stroke-width: 0px; fill: rgb(10, 136, 186); fill-opacity: 1;"/><path class="point" transform="translate(293.78,151.48)" d="M-3.2001324464890306,-7.531384489250839L-3.299724664418558,7.4882853270310035L6.499857110907588,0.04309916221983534Z" style="opacity: 1; stroke-width: 0px; fill: rgb(126, 173, 121); fill-opacity: 1;"/><path class="point" transform="translate(387.38,151.59)" d="M-3.2499790384253386,-7.510009071219283L-3.250020961549342,7.50999092872221L6.499999999974681,0.000018142497071904945Z" style="opacity: 1; stroke-width: 0px; fill: rgb(242, 211, 56); fill-opacity: 1;"/><path class="point" transform="translate(480.97,150.94)" d="M-3.3736943776157995,-7.455252259075043L-3.1254175558199098,7.562695624033318L6.499111933435709,-0.10744336495827436Z" style="opacity: 1; stroke-width: 0px; fill: rgb(242, 177, 56); fill-opacity: 1;"/><path class="point" transform="translate(574.56,149.42)" d="M-3.3491797024431387,-7.4662972965682854L-3.150250184480191,7.552385303676086L6.49942988692333,-0.08608800710780018Z" style="opacity: 1; stroke-width: 0px; fill: rgb(242, 143, 56); fill-opacity: 1;"/><path class="point" transform="translate(668.16,149)" d="M-3.250282053016228,-7.509877933484712L-3.2497179423994824,7.510122055922053L6.499999995415711,-0.00024412243734013862Z" style="opacity: 1; stroke-width: 0px; fill: rgb(230, 87, 43); fill-opacity: 1;"/><path class="point" transform="translate(761.76,149)" d="M-3.2501764191427385,-7.509923651039903L-3.24982357906377,7.5100763448157535L6.499999998206508,-0.00015269377585170766Z" style="opacity: 1; stroke-width: 0px; fill: rgb(217, 30, 30); fill-opacity: 1;"/></g><g class="text"/></g><g class="trace scatter trace18371c" style="stroke-miterlimit: 2; opacity: 1;"><g class="fills"/><g class="errorbars"/><g class="lines"><path class="js-line" d="M13,168.5L793,168.5" style="vector-effect: none; fill: none; stroke: rgb(0, 0, 0); stroke-opacity: 1; stroke-width: 2px; opacity: 1;"/></g><g class="points"/><g class="text"/></g><g class="trace scatter trace8caf78" style="stroke-miterlimit: 2; opacity: 1;"><g class="fills"/><g class="errorbars"/><g class="lines"><path class="js-line" d="M13,168.5L793,168.5" style="vector-effect: none; fill: none; stroke: rgb(100, 143, 255); stroke-opacity: 1; stroke-width: 2px; opacity: 1;"/></g><g class="points"/><g class="text"/></g><g class="trace scatter trace177b8f" style="stroke-miterlimit: 2; opacity: 1;"><g class="fills"/><g class="errorbars"/><g class="lines"/><g class="points"><path class="point" transform="translate(13,168.5)" d="M-3.2500000000000004,-7.51L-3.2499999999999996,7.51L6.5,-3.9801020972288977e-16Z" style="opacity: 1; stroke-width: 0px; fill: rgb(12, 51, 131); fill-opacity: 1;"/><path class="point" transform="translate(106.6,168.5)" d="M-3.249999999999382,-7.510000000000267L-3.250000000000618,7.5099999999997324L6.5,5.350625545669901e-13Z" style="opacity: 1; stroke-width: 0px; fill: rgb(11, 94, 159); fill-opacity: 1;"/><path class="point" transform="translate(200.2,168.5)" d="M-3.249999999997929,-7.510000000000896L-3.250000000002071,7.509999999999104L6.5,1.7921680853500547e-12Z" style="opacity: 1; stroke-width: 0px; fill: rgb(10, 136, 186); fill-opacity: 1;"/><path class="point" transform="translate(293.8,168.5)" d="M-3.249999999999799,-7.510000000000087L-3.250000000000201,7.509999999999913L6.5,1.7424007156381423e-13Z" style="opacity: 1; stroke-width: 0px; fill: rgb(126, 174, 121); fill-opacity: 1;"/><path class="point" transform="translate(387.4,168.5)" d="M-3.2500000000000004,-7.51L-3.2499999999999996,7.51L6.5,-3.9801020972288977e-16Z" style="opacity: 1; stroke-width: 0px; fill: rgb(242, 211, 56); fill-opacity: 1;"/><path class="point" transform="translate(481,168.5)" d="M-3.2500000000030256,-7.509999999998691L-3.2499999999969744,7.510000000001309L6.5,-2.618525946880767e-12Z" style="opacity: 1; stroke-width: 0px; fill: rgb(242, 177, 56); fill-opacity: 1;"/><path class="point" transform="translate(574.6,168.5)" d="M-3.250000000000469,-7.509999999999796L-3.249999999999531,7.510000000000203L6.5,-4.0596248110529255e-13Z" style="opacity: 1; stroke-width: 0px; fill: rgb(242, 143, 56); fill-opacity: 1;"/><path class="point" transform="translate(668.2,168.5)" d="M-3.2500000000000004,-7.51L-3.2499999999999996,7.51L6.5,-3.9801020972288977e-16Z" style="opacity: 1; stroke-width: 0px; fill: rgb(230, 87, 43); fill-opacity: 1;"/><path class="point" transform="translate(761.8,168.5)" d="M-3.2500000000000004,-7.51L-3.2499999999999996,7.51L6.5,-3.9801020972288977e-16Z" style="opacity: 1; stroke-width: 0px; fill: rgb(217, 30, 30); fill-opacity: 1;"/></g><g class="text"/></g><g class="trace scatter trace821970" style="stroke-miterlimit: 2; opacity: 1;"><g class="fills"/><g class="errorbars"/><g class="lines"><path class="js-line" d="M13,188L793,188" style="vector-effect: none; fill: none; stroke: rgb(0, 0, 0); stroke-opacity: 1; stroke-width: 2px; opacity: 1;"/></g><g class="points"/><g class="text"/></g><g class="trace scatter trace183df5" style="stroke-miterlimit: 2; opacity: 1;"><g class="fills"/><g class="errorbars"/><g class="lines"><path class="js-line" d="M13,188L793,188" style="vector-effect: none; fill: none; stroke: rgb(100, 143, 255); stroke-opacity: 1; stroke-width: 2px; opacity: 1;"/></g><g class="points"/><g class="text"/></g><g class="trace scatter traced5d9b0" style="stroke-miterlimit: 2; opacity: 1;"><g class="fills"/><g class="errorbars"/><g class="lines"/><g class="points"><path class="point" transform="translate(13,188)" d="M-3.2500000000000004,-7.51L-3.2499999999999996,7.51L6.5,-3.9801020972288977e-16Z" style="opacity: 1; stroke-width: 0px; fill: rgb(12, 51, 131); fill-opacity: 1;"/><path class="point" transform="translate(106.6,188)" d="M-3.250000000000067,-7.5099999999999705L-3.249999999999933,7.510000000000029L6.5,-5.812960749023104e-14Z" style="opacity: 1; stroke-width: 0px; fill: rgb(11, 94, 159); fill-opacity: 1;"/><path class="point" transform="translate(200.2,188)" d="M-3.250000000000901,-7.50999999999961L-3.249999999999099,7.51000000000039L6.5,-7.797745734965829e-13Z" style="opacity: 1; stroke-width: 0px; fill: rgb(10, 136, 186); fill-opacity: 1;"/><path class="point" transform="translate(293.8,188)" d="M-3.2500000000006923,-7.5099999999997005L-3.2499999999993077,7.510000000000299L6.5,-5.993633319949949e-13Z" style="opacity: 1; stroke-width: 0px; fill: rgb(126, 174, 121); fill-opacity: 1;"/><path class="point" transform="translate(387.4,188)" d="M-3.2500000000000004,-7.51L-3.2499999999999996,7.51L6.5,-3.9801020972288977e-16Z" style="opacity: 1; stroke-width: 0px; fill: rgb(242, 211, 56); fill-opacity: 1;"/><path class="point" transform="translate(481,188)" d="M-3.2500000000012226,-7.50999999999947L-3.2499999999987774,7.510000000000529L6.5,-1.0583295303750347e-12Z" style="opacity: 1; stroke-width: 0px; fill: rgb(242, 177, 56); fill-opacity: 1;"/><path class="point" transform="translate(574.6,188)" d="M-3.2499999999973626,-7.510000000001141L-3.2500000000026374,7.5099999999988585L6.5,2.282886662234374e-12Z" style="opacity: 1; stroke-width: 0px; fill: rgb(242, 143, 56); fill-opacity: 1;"/><path class="point" transform="translate(668.2,188)" d="M-3.2500000000000004,-7.51L-3.2499999999999996,7.51L6.5,-3.9801020972288977e-16Z" style="opacity: 1; stroke-width: 0px; fill: rgb(230, 87, 43); fill-opacity: 1;"/><path class="point" transform="translate(761.8,188)" d="M-3.2500000000000004,-7.51L-3.2499999999999996,7.51L6.5,-3.9801020972288977e-16Z" style="opacity: 1; stroke-width: 0px; fill: rgb(217, 30, 30); fill-opacity: 1;"/></g><g class="text"/></g><g class="trace scatter trace7d88a4" style="stroke-miterlimit: 2; opacity: 1;"><g class="fills"/><g class="errorbars"/><g class="lines"><path class="js-line" d="M453.79,424.06L352.21,-152.06" style="vector-effect: none; fill: none; stroke: rgb(220, 38, 127); stroke-opacity: 1; stroke-width: 2px; opacity: 1;"/></g><g class="points"/><g class="text"/></g><g class="trace scatter trace98284e" style="stroke-miterlimit: 2; opacity: 1;"><g class="fills"/><g class="errorbars"/><g class="lines"/><g class="points"><path class="point" transform="translate(453.79,424.06)" d="M-6.831549647704159,4.504723011568323L7.960262802539206,1.8965273830110294L-1.128713154835047,-6.401250394579352Z" style="opacity: 1; stroke-width: 0px; fill: rgb(12, 51, 131); fill-opacity: 1;"/><path class="point" transform="translate(441.6,354.92)" d="M-6.831549647704159,4.504723011568323L7.960262802539206,1.8965273830110294L-1.128713154835047,-6.401250394579352Z" style="opacity: 1; stroke-width: 0px; fill: rgb(11, 94, 159); fill-opacity: 1;"/><path class="point" transform="translate(429.41,285.79)" d="M-6.831549647704159,4.504723011568323L7.960262802539206,1.8965273830110294L-1.128713154835047,-6.401250394579352Z" style="opacity: 1; stroke-width: 0px; fill: rgb(10, 136, 186); fill-opacity: 1;"/><path class="point" transform="translate(417.22,216.66)" d="M-6.831549647704159,4.504723011568323L7.960262802539206,1.8965273830110294L-1.128713154835047,-6.401250394579352Z" style="opacity: 1; stroke-width: 0px; fill: rgb(126, 174, 121); fill-opacity: 1;"/><path class="point" transform="translate(405.03,147.52)" d="M-6.831549647704159,4.504723011568323L7.960262802539206,1.8965273830110294L-1.128713154835047,-6.401250394579352Z" style="opacity: 1; stroke-width: 0px; fill: rgb(242, 211, 56); fill-opacity: 1;"/><path class="point" transform="translate(392.84,78.39)" d="M-6.831549647704159,4.504723011568323L7.960262802539206,1.8965273830110294L-1.128713154835047,-6.401250394579352Z" style="opacity: 1; stroke-width: 0px; fill: rgb(242, 177, 56); fill-opacity: 1;"/><path class="point" transform="translate(380.65,9.26)" d="M-6.831549647704159,4.504723011568323L7.960262802539206,1.8965273830110294L-1.128713154835047,-6.401250394579352Z" style="opacity: 1; stroke-width: 0px; fill: rgb(242, 143, 56); fill-opacity: 1;"/><path class="point" transform="translate(368.46,-59.88)" d="M-6.831549647704159,4.504723011568323L7.960262802539206,1.8965273830110294L-1.128713154835047,-6.401250394579352Z" style="opacity: 1; stroke-width: 0px; fill: rgb(230, 87, 43); fill-opacity: 1;"/><path class="point" transform="translate(356.27,-129.01)" d="M-6.831549647704159,4.504723011568323L7.960262802539206,1.8965273830110294L-1.128713154835047,-6.401250394579352Z" style="opacity: 1; stroke-width: 0px; fill: rgb(217, 30, 30); fill-opacity: 1;"/></g><g class="text"/></g></g></g></g><path class="xlines-above crisp" d="M0,0" style="fill: none;"/><path class="ylines-above crisp" d="M0,0" style="fill: none;"/><g class="overlines-above"/><g class="xaxislayer-above"><g class="xtick"><text text-anchor="middle" x="0" y="345" transform="translate(127,0)" style="font-family: 'Open Sans', verdana, arial, sans-serif; font-size: 24px; fill: rgb(0, 0, 0); fill-opacity: 1; white-space: pre; opacity: 1;">−1500</text></g><g class="xtick"><text text-anchor="middle" x="0" y="345" style="font-family: 'Open Sans', verdana, arial, sans-serif; font-size: 24px; fill: rgb(0, 0, 0); fill-opacity: 1; white-space: pre; opacity: 1;" transform="translate(257,0)">−1000</text></g><g class="xtick"><text text-anchor="middle" x="0" y="345" style="font-family: 'Open Sans', verdana, arial, sans-serif; font-size: 24px; fill: rgb(0, 0, 0); fill-opacity: 1; white-space: pre; opacity: 1;" transform="translate(387,0)">−500</text></g><g class="xtick"><text text-anchor="middle" x="0" y="345" style="font-family: 'Open Sans', verdana, arial, sans-serif; font-size: 24px; fill: rgb(0, 0, 0); fill-opacity: 1; white-space: pre; opacity: 1;" transform="translate(517,0)">0</text></g><g class="xtick"><text text-anchor="middle" x="0" y="345" style="font-family: 'Open Sans', verdana, arial, sans-serif; font-size: 24px; fill: rgb(0, 0, 0); fill-opacity: 1; white-space: pre; opacity: 1;" transform="translate(647,0)">500</text></g><g class="xtick"><text text-anchor="middle" x="0" y="345" style="font-family: 'Open Sans', verdana, arial, sans-serif; font-size: 24px; fill: rgb(0, 0, 0); fill-opacity: 1; white-space: pre; opacity: 1;" transform="translate(777,0)">1000</text></g><g class="xtick"><text text-anchor="middle" x="0" y="345" style="font-family: 'Open Sans', verdana, arial, sans-serif; font-size: 24px; fill: rgb(0, 0, 0); fill-opacity: 1; white-space: pre; opacity: 1;" transform="translate(907,0)">1500</text></g></g><g class="yaxislayer-above"><g class="ytick"><text text-anchor="end" x="113" y="8.399999999999999" transform="translate(0,288)" style="font-family: 'Open Sans', verdana, arial, sans-serif; font-size: 24px; fill: rgb(0, 0, 0); fill-opacity: 1; white-space: pre; opacity: 1;">−200</text></g><g class="ytick"><text text-anchor="end" x="113" y="8.399999999999999" style="font-family: 'Open Sans', verdana, arial, sans-serif; font-size: 24px; fill: rgb(0, 0, 0); fill-opacity: 1; white-space: pre; opacity: 1;" transform="translate(0,236)">0</text></g><g class="ytick"><text text-anchor="end" x="113" y="8.399999999999999" style="font-family: 'Open Sans', verdana, arial, sans-serif; font-size: 24px; fill: rgb(0, 0, 0); fill-opacity: 1; white-space: pre; opacity: 1;" transform="translate(0,184)">200</text></g><g class="ytick"><text text-anchor="end" x="113" y="8.399999999999999" style="font-family: 'Open Sans', verdana, arial, sans-serif; font-size: 24px; fill: rgb(0, 0, 0); fill-opacity: 1; white-space: pre; opacity: 1;" transform="translate(0,132)">400</text></g></g><g class="overaxes-above"/></g></g><g class="polarlayer"/><g class="smithlayer"/><g class="ternarylayer"/><g class="geolayer"/><g class="funnelarealayer"/><g class="pielayer"/><g class="iciclelayer"/><g class="treemaplayer"/><g class="sunburstlayer"/><g class="glimages"/><defs id="topdefs-ac9440"><g class="clips"/><clipPath id="legendac9440"><rect width="385" height="45" x="2" y="2"/></clipPath></defs><g class="layer-above"><g class="imagelayer"/><g class="shapelayer"/></g><g class="infolayer"><g class="legend" pointer-events="all" transform="translate(522.9399999999999,46.599999999999994)"><rect class="bg" shape-rendering="crispEdges" style="stroke: rgb(0, 0, 0); stroke-opacity: 1; fill: rgb(255, 255, 255); fill-opacity: 1; stroke-width: 2px;" width="387" height="47" x="1" y="1"/><g class="scrollbox" transform="" clip-path="url(#legendac9440)"><g class="groups"><g class="traces" transform="translate(2,24.1)" style="opacity: 1;"><text class="legendtext" text-anchor="start" x="40" y="9.360000000000001" style="font-family: 'Open Sans', verdana, arial, sans-serif; font-size: 24px; fill: rgb(0, 0, 0); fill-opacity: 1; white-space: pre;">OS Ref</text><g class="layers" style="opacity: 1;"><g class="legendfill"/><g class="legendlines"><path class="js-line" d="M5,0h30" style="fill: none; stroke: rgb(0, 0, 0); stroke-opacity: 1; stroke-width: 2px;"/></g><g class="legendsymbols"><g class="legendpoints"/></g></g><rect class="legendtoggle" x="0" y="-17.1" width="126.640625" height="34.2" style="fill: rgb(0, 0, 0); fill-opacity: 0;"/></g><g class="traces" transform="translate(131.140625,24.1)" style="opacity: 1;"><text class="legendtext" text-anchor="start" x="40" y="9.360000000000001" style="font-family: 'Open Sans', verdana, arial, sans-serif; font-size: 24px; fill: rgb(0, 0, 0); fill-opacity: 1; white-space: pre;">OS Pos</text><g class="layers" style="opacity: 1;"><g class="legendfill"/><g class="legendlines"><path class="js-line" d="M5,0h30" style="fill: none; stroke: rgb(100, 143, 255); stroke-opacity: 1; stroke-width: 2px;"/></g><g class="legendsymbols"><g class="legendpoints"/></g></g><rect class="legendtoggle" x="0" y="-17.1" width="127.203125" height="34.2" style="fill: rgb(0, 0, 0); fill-opacity: 0;"/></g><g class="traces" transform="translate(260.84375,24.1)" style="opacity: 1;"><text class="legendtext" text-anchor="start" x="40" y="9.360000000000001" style="font-family: 'Open Sans', verdana, arial, sans-serif; font-size: 24px; fill: rgb(0, 0, 0); fill-opacity: 1; white-space: pre;">TS Pos</text><g class="layers" style="opacity: 1;"><g class="legendfill"/><g class="legendlines"><path class="js-line" d="M5,0h30" style="fill: none; stroke: rgb(220, 38, 127); stroke-opacity: 1; stroke-width: 2px;"/></g><g class="legendsymbols"><g class="legendpoints"/></g></g><rect class="legendtoggle" x="0" y="-17.1" width="122.953125" height="34.2" style="fill: rgb(0, 0, 0); fill-opacity: 0;"/></g></g></g><rect class="scrollbar" rx="20" ry="3" width="0" height="0" style="fill: rgb(128, 139, 164); fill-opacity: 1;" x="0" y="0"/></g><g class="g-gtitle"/><g class="g-xtitle"><text class="xtitle" x="517" y="384.8" text-anchor="middle" style="opacity: 1; font-family: 'Open Sans', verdana, arial, sans-serif; font-size: 29px; fill: rgb(0, 0, 0); fill-opacity: 1; white-space: pre;">East [m]</text></g><g class="g-ytitle" transform="translate(6.072265625,0)"><text class="ytitle" transform="rotate(-90,22.928124999999994,210)" x="22.928124999999994" y="210" text-anchor="middle" style="opacity: 1; font-family: 'Open Sans', verdana, arial, sans-serif; font-size: 29px; fill: rgb(0, 0, 0); fill-opacity: 1; white-space: pre;">North [m]</text></g></g></svg>