<svg class="main-svg" xmlns="http://www.w3.org/2000/svg" xmlns:xlink="http://www.w3.org/1999/xlink" width="1200" height="450" style="" viewBox="0 0 1200 450"><rect x="0" y="0" width="1200" height="450" style="fill: rgb(255, 255, 255); fill-opacity: 1;"/><defs id="defs-48a2db"><g class="clips"><clipPath id="clip48a2dbxyplot" class="plotclip"><rect width="958" height="364"/></clipPath><clipPath class="axesclip" id="clip48a2dbx"><rect x="121" y="0" width="958" height="450"/></clipPath><clipPath class="axesclip" id="clip48a2dby"><rect x="0" y="7" width="1200" height="364"/></clipPath><clipPath class="axesclip" id="clip48a2dbxy"><rect x="121" y="7" width="958" height="364"/></clipPath></g><g class="gradients"/><g class="patterns"/></defs><g class="bglayer"/><g class="layer-below"><g class="imagelayer"/><g class="shapelayer"/></g><g class="cartesianlayer"><g class="subplot xy"><g class="layer-subplot"><g class="shapelayer"/><g class="imagelayer"/></g><g class="minor-gridlayer"><g class="x"/><g class="y"/></g><g class="gridlayer"><g class="x"><path class="xgrid crisp" transform="translate(184.3,0)" d="M0,7v364" style="stroke: rgb(200, 200, 200); stroke-opacity: 1; stroke-width: 1px;"/><path class="xgrid crisp" transform="translate(322.86,0)" d="M0,7v364" style="stroke: rgb(200, 200, 200); stroke-opacity: 1; stroke-width: 1px;"/><path class="xgrid crisp" transform="translate(461.43,0)" d="M0,7v364" style="stroke: rgb(200, 200, 200); stroke-opacity: 1; stroke-width: 1px;"/><path class="xgrid crisp" transform="translate(738.57,0)" d="M0,7v364" style="stroke: rgb(200, 200, 200); stroke-opacity: 1; stroke-width: 1px;"/><path class="xgrid crisp" transform="translate(877.14,0)" d="M0,7v364" style="stroke: rgb(200, 200, 200); stroke-opacity: 1; stroke-width: 1px;"/><path class="xgrid crisp" transform="translate(1015.7,0)" d="M0,7v364" style="stroke: rgb(200, 200, 200); stroke-opacity: 1; stroke-width: 1px;"/></g><g class="y"><path class="ygrid crisp" transform="translate(0,355.28)" d="M121,0h958" style="stroke: rgb(200, 200, 200); stroke-opacity: 1; stroke-width: 1px;"/><path class="ygrid crisp" transform="translate(0,299.85)" d="M121,0h958" style="stroke: rgb(200, 200, 200); stroke-opacity: 1; stroke-width: 1px;"/><path class="ygrid crisp" transform="translate(0,244.43)" d="M121,0h958" style="stroke: rgb(200, 200, 200); stroke-opacity: 1; stroke-width: 1px;"/><path class="ygrid crisp" transform="translate(0,133.57)" d="M121,0h958" style="stroke: rgb(200, 200, 200); stroke-opacity: 1; stroke-width: 1px;"/><path class="ygrid crisp" transform="translate(0,78.15)" d="M121,0h958" style="stroke: rgb(200, 200, 200); stroke-opacity: 1; stroke-width: 1px;"/><path class="ygrid crisp" transform="translate(0,22.72)" d="M121,0h958" style="stroke: rgb(200, 200, 200); stroke-opacity: 1; stroke-width: 1px;"/></g></g><g class="zerolinelayer"><path class="xzl zl crisp" transform="translate(600,0)" d="M0,7v364" style="stroke: rgb(200, 200, 200); stroke-opacity: 1; stroke-width: 2px;"/><path class="yzl zl crisp" transform="translate(0,189)" d="M121,0h958" style="stroke: rgb(200, 200, 200); stroke-opacity: 1; stroke-width: 2px;"/></g><g class="layer-between"><g class="shapelayer"/><g class="imagelayer"/></g><path class="xlines-below"/><path class="ylines-below"/><g class="overlines-below"/><g class="xaxislayer-below"/><g class="yaxislayer-below"/><g class="overaxes-below"/><g class="overplot"><g class="xy" transform="translate(121,7)" clip-path="url(#clip48a2dbxyplot)"><g class="scatterlayer mlayer"><g class="trace scatter trace93f9f1" style="stroke-miterlimit: 2; opacity: 1;"><g class="fills"/><g class="errorbars"/><g class="lines"><path class="js-line" d="M63.3,71.15L894.7,71.15" style="vector-effect: none; fill: none; stroke: rgb(0, 0, 0); stroke-opacity: 1; stroke-width: 2px; opacity: 1;"/></g><g class="points"/><g class="text"/></g><g class="trace scatter traceeb05c8" style="stroke-miterlimit: 2; opacity: 1;"><g class="fills"/><g class="errorbars"/><g class="lines"><path class="js-line" d="M63.3,71.15L894.7,71.15" style="vector-effect: none; fill: none; stroke: rgb(100, 143, 255); stroke-opacity: 1; stroke-width: 2px; opacity: 1;"/></g><g class="points"/><g class="text"/></g><g class="trace scatter trace2041ae" style="stroke-miterlimit: 2; opacity: 1;"><g class="fills"/><g class="errorbars"/><g class="lines"/><g class="points"><path class="point" transform="translate(63.3,71.15)" d="M-4.000000000000001,-9.24L-3.9999999999999996,9.24L8,-4.898587196589413e-16Z" style="opacity: 1; stroke-width: 0px; fill: rgb(12, 51, 131); fill-opacity: 1;"/><path class="point" transform="translate(163.06,71.15)" d="M-4.000000000000001,-9.24L-3.9999999999999996,9.24L8,-4.898587196589413e-16Z" style="opacity: 1; stroke-width: 0px; fill: rgb(11, 94, 159); fill-opacity: 1;"/><path class="point" transform="translate(262.83,71.15)" d="M-4.000000000000093,-9.23999999999996L-3.999999999999907,9.240000000000041L8,-8.042591649267021e-14Z" style="opacity: 1; stroke-width: 0px; fill: rgb(10, 136, 186); fill-opacity: 1;"/><path class="point" transform="translate(362.6,71.15)" d="M-4.000000000000001,-9.24L-3.9999999999999996,9.24L8,-4.898587196589413e-16Z" style="opacity: 1; stroke-width: 0px; fill: rgb(126, 174, 121); fill-opacity: 1;"/><path class="point" transform="translate(462.37,71.15)" d="M-3.9999999999999902,-9.240000000000004L-4.00000000000001,9.239999999999997L8,8.391925477342312e-15Z" style="opacity: 1; stroke-width: 0px; fill: rgb(242, 211, 56); fill-opacity: 1;"/><path class="point" transform="translate(562.14,71.15)" d="M-4.000000000000001,-9.24L-3.9999999999999996,9.24L8,-4.898587196589413e-16Z" style="opacity: 1; stroke-width: 0px; fill: rgb(242, 177, 56); fill-opacity: 1;"/><path class="point" transform="translate(661.91,71.15)" d="M-3.9999999999999267,-9.240000000000032L-4.000000000000074,9.239999999999968L8,6.345898749875008e-14Z" style="opacity: 1; stroke-width: 0px; fill: rgb(242, 143, 56); fill-opacity: 1;"/><path class="point" transform="translate(761.68,71.15)" d="M-4.000000000000001,-9.24L-3.9999999999999996,9.24L8,-4.898587196589413e-16Z" style="opacity: 1; stroke-width: 0px; fill: rgb(230, 87, 43); fill-opacity: 1;"/><path class="point" transform="translate(861.45,71.15)" d="M-4.000000000000001,-9.24L-3.9999999999999996,9.24L8,-4.898587196589413e-16Z" style="opacity: 1; stroke-width: 0px; fill: rgb(217, 30, 30); fill-opacity: 1;"/></g><g class="text"/></g><g class="trace scatter trace8d0397" style="stroke-miterlimit: 2; opacity: 1;"><g class="fills"/><g class="errorbars"/><g class="lines"><path class="js-line" d="M63.3,91.93L894.7,91.93" style="vector-effect: none; fill: none; stroke: rgb(0, 0, 0); stroke-opacity: 1; stroke-width: 2px; opacity: 1;"/></g><g class="points"/><g class="text"/></g><g class="trace scatter trace1694d3" style="stroke-miterlimit: 2; opacity: 1;"><g class="fills"/><g class="errorbars"/><g class="lines"><path class="js-line" d="M63.3,91.93L894.7,91.93" style="vector-effect: none; fill: none; stroke: rgb(100, 143, 255); stroke-opacity: 1; stroke-width: 2px; opacity: 1;"/></g><g class="points"/><g class="text"/></g><g class="trace scatter trace3d01ee" style="stroke-miterlimit: 2; opacity: 1;"><g class="fills"/><g class="errorbars"/><g class="lines"/><g class="points"><path class="point" transform="translate(63.3,91.93)" d="M-4.000000000000001,-9.24L-3.9999999999999996,9.24L8,-4.898587196589413e-16Z" style="opacity: 1; stroke-width: 0px; fill: rgb(12, 51, 131); fill-opacity: 1;"/><path class="point" transform="translate(163.06,91.93)" d="M-4.000000000000001,-9.24L-3.9999999999999996,9.24L8,-4.898587196589413e-16Z" style="opacity: 1; stroke-width: 0px; fill: rgb(11, 94, 159); fill-opacity: 1;"/><path class="point" transform="translate(262.83,91.93)" d="M-4.000000000000495,-9.239999999999785L-3.999999999999505,9.240000000000215L8,-4.285918570151193e-13Z" style="opacity: 1; stroke-width: 0px; fill: rgb(10, 136, 186); fill-opacity: 1;"/><path class="point" transform="translate(362.6,91.93)" d="M-4.000000000000001,-9.24L-3.9999999999999996,9.24L8,-4.898587196589413e-16Z" style="opacity: 1; stroke-width: 0px; fill: rgb(126, 174, 121); fill-opacity: 1;"/><path class="point" transform="translate(462.37,91.93)" d="M-4.000000000000001,-9.24L-3.9999999999999996,9.24L8,-4.898587196589413e-16Z" style="opacity: 1; stroke-width: 0px; fill: rgb(242, 211, 56); fill-opacity: 1;"/><path class="point" transform="translate(562.14,91.93)" d="M-4.000000000000001,-9.24L-3.9999999999999996,9.24L8,-4.898587196589413e-16Z" style="opacity: 1; stroke-width: 0px; fill: rgb(242, 177, 56); fill-opacity: 1;"/><path class="point" transform="translate(661.91,91.93)" d="M-3.9999999999996434,-9.240000000000155L-4.000000000000356,9.239999999999846L8,3.0859623133598464e-13Z" style="opacity: 1; stroke-width: 0px; fill: rgb(242, 143, 56); fill-opacity: 1;"/><path class="point" transform="translate(761.68,91.93)" d="M-4.000000000000001,-9.24L-3.9999999999999996,9.24L8,-4.898587196589413e-16Z" style="opacity: 1; stroke-width: 0px; fill: rgb(230, 87, 43); fill-opacity: 1;"/><path class="point" transform="translate(861.45,91.93)" d="M-4.000000000000001,-9.24L-3.9999999999999996,9.24L8,-4.898587196589413e-16Z" style="opacity: 1; stroke-width: 0px; fill: rgb(217, 30, 30); fill-opacity: 1;"/></g><g class="text"/></g><g class="trace scatter traceba85e3" style="stroke-miterlimit: 2; opacity: 1;"><g class="fills"/><g class="errorbars"/><g class="lines"><path class="js-line" d="M63.3,112.72L894.7,112.72" style="vector-effect: none; fill: none; stroke: rgb(0, 0, 0); stroke-opacity: 1; stroke-width: 2px; opacity: 1;"/></g><g class="points"/><g class="text"/></g><g class="trace scatter tracef536a7" style="stroke-miterlimit: 2; opacity: 1;"><g class="fills"/><g class="errorbars"/><g class="lines"><path class="js-line" d="M63.3,112.72L173.45,113.22L176.78,113.36L206.68,115.32L209.86,115.81L218.95,118.03L221.83,119.02L230.02,122.73L232.6,124.22L239.89,129.44L242.17,131.42L248.55,138.14L250.53,140.62L263.98,158.61L266.15,160.74L273.11,166.33L275.58,167.93L283.44,171.92L286.22,172.98L294.98,175.37L298.06,175.9L307.73,176.69L311.07,176.75L381.19,177.28L384.53,177.28L588.18,176.51L591.49,176.32L604.51,174.81L607.71,174.24L620.3,171.21L623.4,170.26L635.57,165.7L638.56,164.37L653.22,156.68L656.16,155.15L671.15,148.48L674.21,147.35L689.83,142.71L693.01,141.99L709.25,139.37L712.55,139.05L749.2,136.99L752.53,136.89L789.24,136.54L792.58,136.56L852.68,136.67" style="vector-effect: none; fill: none; stroke: rgb(100, 143, 255); stroke-opacity: 1; stroke-width: 2px; opacity: 1;"/></g><g class="points"/><g class="text"/></g><g class="trace scatter tracea658e1" style="stroke-miterlimit: 2; opacity: 1;"><g class="fills"/><g class="errorbars"/><g class="lines"/><g class="points"><path class="point" transform="translate(63.3,112.72)" d="M-4.000000000000001,-9.24L-3.9999999999999996,9.24L8,-4.898587196589413e-16Z" style="opacity: 1; stroke-width: 0px; fill: rgb(12, 51, 131); fill-opacity: 1;"/><path class="point" transform="translate(163.05,112.86)" d="M-3.7347457285764913,-9.35036225730745L-4.26199754976719,9.122114715666454L7.996743278343681,0.22824754164099495Z" style="opacity: 1; stroke-width: 0px; fill: rgb(11, 94, 159); fill-opacity: 1;"/><path class="point" transform="translate(250.07,140.01)" d="M4.838060353271189,-8.830106002653958L-9.749436282584,2.515172394058638L4.911375929312812,6.31493360859532Z" style="opacity: 1; stroke-width: 0px; fill: rgb(10, 136, 186); fill-opacity: 1;"/><path class="point" transform="translate(329.9,177.03)" d="M-3.8855084609491897,-9.28872563917636L-4.11388065457821,9.189863217691936L7.9993891155274,0.09886242148442458Z" style="opacity: 1; stroke-width: 0px; fill: rgb(126, 174, 121); fill-opacity: 1;"/><path class="point" transform="translate(429.67,177.24)" d="M-4.0022227876504255,-9.239037436768598L-3.9977769808462473,9.240962028458718L7.999999768496673,-0.0019245916901204632Z" style="opacity: 1; stroke-width: 0px; fill: rgb(242, 211, 56); fill-opacity: 1;"/><path class="point" transform="translate(529.44,177.3)" d="M-4.026843898015283,-9.22833290584042L-3.973122299016535,9.25158900930308L7.999966197031818,-0.023256103462661444Z" style="opacity: 1; stroke-width: 0px; fill: rgb(242, 177, 56); fill-opacity: 1;"/><path class="point" transform="translate(627.33,168.93)" d="M-6.859368187943732,-7.370662660997688L-0.6801589454185542,10.045645017069194L7.539527133362286,-2.6749823560715056Z" style="opacity: 1; stroke-width: 0px; fill: rgb(242, 143, 56); fill-opacity: 1;"/><path class="point" transform="translate(719.74,138.52)" d="M-4.628207439953239,-8.941884359169576L-3.352714676059753,9.494045728820437L7.980922116012992,-0.5521613696508599Z" style="opacity: 1; stroke-width: 0px; fill: rgb(230, 87, 43); fill-opacity: 1;"/><path class="point" transform="translate(819.43,136.65)" d="M-3.9796466266575052,-9.24878439185029L-4.020333983443874,9.231170817483896L7.999980610101379,0.01761357436639336Z" style="opacity: 1; stroke-width: 0px; fill: rgb(217, 30, 30); fill-opacity: 1;"/></g><g class="text"/></g><g class="trace scatter trace7031be" style="stroke-miterlimit: 2; opacity: 1;"><g class="fills"/><g class="errorbars"/><g class="lines"><path class="js-line" d="M63.3,133.5L894.7,133.5" style="vector-effect: none; fill: none; stroke: rgb(0, 0, 0); stroke-opacity: 1; stroke-width: 2px; opacity: 1;"/></g><g class="points"/><g class="text"/></g><g class="trace scatter trace79f4ca" style="stroke-miterlimit: 2; opacity: 1;"><g class="fills"/><g class="errorbars"/><g class="lines"><path class="js-line" d="M63.3,133.5L186.82,134.12L190.16,134.23L210.03,135.31L213.23,135.76L225.55,138.64L228.51,139.63L239.9,144.64L242.64,146.17L253.1,153.33L255.59,155.38L272.83,170.31L275.45,172.08L286.38,178.02L289.22,179.23L301.09,182.94L304.17,183.59L316.96,185.06L320.28,185.15L407.09,185.47L410.43,185.47L607.34,184.58L610.61,184.28L626.69,181.66L629.85,180.91L642.29,177.19L645.36,176.08L660.39,169.41L663.34,167.86L678.32,160.92L681.38,159.74L696.92,154.83L700.09,154.05L716.2,151.18L719.48,150.81L739.43,149.64L742.76,149.51L786.14,148.57L789.48,148.56L866.28,148.68" style="vector-effect: none; fill: none; stroke: rgb(100, 143, 255); stroke-opacity: 1; stroke-width: 2px; opacity: 1;"/></g><g class="points"/><g class="text"/></g><g class="trace scatter tracef74f70" style="stroke-miterlimit: 2; opacity: 1;"><g class="fills"/><g class="errorbars"/><g class="lines"/><g class="points"><path class="point" transform="translate(63.3,133.5)" d="M-4.000000000000001,-9.24L-3.9999999999999996,9.24L8,-4.898587196589413e-16Z" style="opacity: 1; stroke-width: 0px; fill: rgb(12, 51, 131); fill-opacity: 1;"/><path class="point" transform="translate(163.06,133.58)" d="M-3.8560264465708958,-9.301003174031598L-4.143008852298719,9.176768366357214L7.9990352988696145,0.1242348076743821Z" style="opacity: 1; stroke-width: 0px; fill: rgb(11, 94, 159); fill-opacity: 1;"/><path class="point" transform="translate(255,154.88)" d="M2.872516206973544,-9.650194331756968L-9.002290894678932,4.509585196842477L6.129774687705387,5.140609134914492Z" style="opacity: 1; stroke-width: 0px; fill: rgb(10, 136, 186); fill-opacity: 1;"/><path class="point" transform="translate(342.45,185.34)" d="M-3.9381025875205973,-9.266549951851745L-4.061718430549865,9.213036599891025L7.999821018070462,0.05351335196072184Z" style="opacity: 1; stroke-width: 0px; fill: rgb(126, 174, 121); fill-opacity: 1;"/><path class="point" transform="translate(442.22,185.45)" d="M-4.001484931860859,-9.239357030664554L-3.998514964825107,9.24064273068003L7.999999896685966,-0.0012857000154770089Z" style="opacity: 1; stroke-width: 0px; fill: rgb(242, 211, 56); fill-opacity: 1;"/><path class="point" transform="translate(541.99,185.49)" d="M-4.0172491488242645,-9.232513703010179L-3.982736900252542,9.247454070357245L7.999986049076806,-0.014940367347066023Z" style="opacity: 1; stroke-width: 0px; fill: rgb(242, 177, 56); fill-opacity: 1;"/><path class="point" transform="translate(640.07,177.95)" d="M-6.705398983335149,-7.511006888180036L-0.8878602439595689,10.029421926870763L7.593259227294718,-2.518415038690727Z" style="opacity: 1; stroke-width: 0px; fill: rgb(242, 143, 56); fill-opacity: 1;"/><path class="point" transform="translate(733.29,149.91)" d="M-4.421243779160632,-9.04600483336337L-3.570269910405509,9.414391789534417L7.9915136895661405,-0.3683869561710486Z" style="opacity: 1; stroke-width: 0px; fill: rgb(230, 87, 43); fill-opacity: 1;"/><path class="point" transform="translate(833.02,148.67)" d="M-3.985992312150839,-9.246051334892881L-4.013998501047625,9.23392744359557L7.999990813198464,0.012123891297309975Z" style="opacity: 1; stroke-width: 0px; fill: rgb(217, 30, 30); fill-opacity: 1;"/></g><g class="text"/></g><g class="trace scatter traceb0fa21" style="stroke-miterlimit: 2; opacity: 1;"><g class="fills"/><g class="errorbars"/><g class="lines"><path class="js-line" d="M63.3,154.29L894.7,154.29" style="vector-effect: none; fill: none; stroke: rgb(0, 0, 0); stroke-opacity: 1; stroke-width: 2px; opacity: 1;"/></g><g class="points"/><g class="text"/></g><g class="trace scatter tracec8d1a4" style="stroke-miterlimit: 2; opacity: 1;"><g class="fills"/><g class="errorbars"/><g class="lines"><path class="js-line" d="M63.3,154.29L203.52,154.85L206.84,154.99L219.86,156.37L223.06,156.91L235.6,159.92L238.68,160.87L250.76,165.5L253.72,166.86L265.32,173.11L268.17,174.82L279.82,180.89L282.79,182.2L294.91,186.59L298,187.48L310.6,190.21L313.8,190.69L326.88,191.75L330.2,191.81L587.3,191.86L590.64,191.85L620.58,191.14L623.86,190.83L640.02,188.29L643.22,187.59L658.96,183.11L662.07,182.02L699.22,168.2L702.39,167.38L718.45,164.18L721.7,163.73L738.18,162.38L741.52,162.29L804.95,161.51L808.28,161.52L878.4,161.58" style="vector-effect: none; fill: none; stroke: rgb(100, 143, 255); stroke-opacity: 1; stroke-width: 2px; opacity: 1;"/></g><g class="points"/><g class="text"/></g><g class="trace scatter tracea53aab" style="stroke-miterlimit: 2; opacity: 1;"><g class="fills"/><g class="errorbars"/><g class="lines"/><g class="points"><path class="point" transform="translate(63.3,154.29)" d="M-4.000000000000001,-9.24L-3.9999999999999996,9.24L8,-4.898587196589413e-16Z" style="opacity: 1; stroke-width: 0px; fill: rgb(12, 51, 131); fill-opacity: 1;"/><path class="point" transform="translate(163.06,154.32)" d="M-3.9342797964300504,-9.268173632566576L-4.065518466747248,9.211360355372985L7.999798263177299,0.05681327719359203Z" style="opacity: 1; stroke-width: 0px; fill: rgb(11, 94, 159); fill-opacity: 1;"/><path class="point" transform="translate(258.87,169.45)" d="M0.8010708326281479,-10.036726833042357L-7.866542700717255,6.284513182243481L7.065471868089107,3.752213650798876Z" style="opacity: 1; stroke-width: 0px; fill: rgb(10, 136, 186); fill-opacity: 1;"/><path class="point" transform="translate(352.37,191.89)" d="M-3.971900054511397,-9.252113810204259L-4.028063000390904,9.227800846620058L7.999963054902301,0.02431296358420206Z" style="opacity: 1; stroke-width: 0px; fill: rgb(126, 174, 121); fill-opacity: 1;"/><path class="point" transform="translate(452.14,191.94)" d="M-4.0007972324702425,-9.239654836878834L-3.9992027377512973,9.240345094332923L7.99999997022154,-0.0006902574540890377Z" style="opacity: 1; stroke-width: 0px; fill: rgb(242, 211, 56); fill-opacity: 1;"/><path class="point" transform="translate(551.91,191.96)" d="M-4.008397095980702,-9.236360361145156L-3.991599599218556,9.243632004765132L7.9999966951992585,-0.00727164361997671Z" style="opacity: 1; stroke-width: 0px; fill: rgb(242, 177, 56); fill-opacity: 1;"/><path class="point" transform="translate(650.44,185.75)" d="M-6.339798535406244,-7.82205564608568L-1.3648611378514897,9.975708199139685L7.7046596732577335,-2.1536525530540063Z" style="opacity: 1; stroke-width: 0px; fill: rgb(242, 143, 56); fill-opacity: 1;"/><path class="point" transform="translate(745.39,162.19)" d="M-4.213211164281639,-9.144749952031086L-3.7846372135764907,9.330279800821193L7.99784837785813,-0.18552984879010773Z" style="opacity: 1; stroke-width: 0px; fill: rgb(230, 87, 43); fill-opacity: 1;"/><path class="point" transform="translate(845.15,161.57)" d="M-3.9927567243754214,-9.243132247239291L-4.0072408184342505,9.236862076651054L7.999997542809672,0.006270170588237901Z" style="opacity: 1; stroke-width: 0px; fill: rgb(217, 30, 30); fill-opacity: 1;"/></g><g class="text"/></g><g class="trace scatter trace3be662" style="stroke-miterlimit: 2; opacity: 1;"><g class="fills"/><g class="errorbars"/><g class="lines"><path class="js-line" d="M63.3,175.07L894.7,175.07" style="vector-effect: none; fill: none; stroke: rgb(0, 0, 0); stroke-opacity: 1; stroke-width: 2px; opacity: 1;"/></g><g class="points"/><g class="text"/></g><g class="trace scatter trace6c44f4" style="stroke-miterlimit: 2; opacity: 1;"><g class="fills"/><g class="errorbars"/><g class="lines"><path class="js-line" d="M63.3,175.07L216.81,175.76L220.11,176.02L236.5,178.02L239.76,178.57L255.92,182.01L259.13,182.85L294.39,192.29L297.64,192.9L317.26,195.55L320.56,195.83L340.5,196.46L343.83,196.46L630.91,195.86L634.21,195.61L653.91,193.19L657.17,192.63L676.6,188.34L679.81,187.47L699.15,182.53L702.4,181.86L722,178.73L725.28,178.36L745.15,177.06L748.48,176.99L888.72,176.79" style="vector-effect: none; fill: none; stroke: rgb(100, 143, 255); stroke-opacity: 1; stroke-width: 2px; opacity: 1;"/></g><g class="points"/><g class="text"/></g><g class="trace scatter trace5b87d8" style="stroke-miterlimit: 2; opacity: 1;"><g class="fills"/><g class="errorbars"/><g class="lines"/><g class="points"><path class="point" transform="translate(63.3,175.07)" d="M-4.000000000000001,-9.24L-3.9999999999999996,9.24L8,-4.898587196589413e-16Z" style="opacity: 1; stroke-width: 0px; fill: rgb(12, 51, 131); fill-opacity: 1;"/><path class="point" transform="translate(163.06,175.08)" d="M-3.9831888044498447,-9.247259429047368L-4.016797965187396,9.23271000881466L7.999986769637241,0.014549420232706466Z" style="opacity: 1; stroke-width: 0px; fill: rgb(11, 94, 159); fill-opacity: 1;"/><path class="point" transform="translate(261.57,183.51)" d="M-1.365034497245289,-9.975684478838046L-6.339662601399358,7.82216581903109L7.7046970986446475,2.1535186598069562Z" style="opacity: 1; stroke-width: 0px; fill: rgb(10, 136, 186); fill-opacity: 1;"/><path class="point" transform="translate(359.33,196.48)" d="M-3.9928283112861584,-9.243101323505641L-4.007169279845353,9.236893112008154L7.999997591131512,0.006208211497487077Z" style="opacity: 1; stroke-width: 0px; fill: rgb(126, 174, 121); fill-opacity: 1;"/><path class="point" transform="translate(459.1,196.49)" d="M-4.000220930136357,-9.239904356112083L-3.999779067576832,9.240095638605384L7.999999997713188,-0.00019128249330083123Z" style="opacity: 1; stroke-width: 0px; fill: rgb(242, 211, 56); fill-opacity: 1;"/><path class="point" transform="translate(558.87,196.49)" d="M-4.00202023412139,-9.239125177509122L-3.99797957464661,9.240874380744957L7.999999808768,-0.001749203235835629Z" style="opacity: 1; stroke-width: 0px; fill: rgb(242, 177, 56); fill-opacity: 1;"/><path class="point" transform="translate(658.08,192.46)" d="M-5.59325133534479,-8.372164564774376L-2.2768742876641905,9.807825624376367L7.87012562300898,-1.4356610596019912Z" style="opacity: 1; stroke-width: 0px; fill: rgb(242, 143, 56); fill-opacity: 1;"/><path class="point" transform="translate(755.69,176.94)" d="M-4.052697754723479,-9.217008240685221L-3.9471718151085438,9.26269046562675L7.999869569832023,-0.04568222494153027Z" style="opacity: 1; stroke-width: 0px; fill: rgb(230, 87, 43); fill-opacity: 1;"/><path class="point" transform="translate(855.46,176.79)" d="M-3.99817779181422,-9.240788621380947L-4.001822052634006,9.239211019294459L7.999999844448227,0.0015776020864876532Z" style="opacity: 1; stroke-width: 0px; fill: rgb(217, 30, 30); fill-opacity: 1;"/></g><g class="text"/></g><g class="trace scatter trace8f41b8" style="stroke-miterlimit: 2; opacity: 1;"><g class="fills"/><g class="errorbars"/><g class="lines"><path class="js-line" d="M63.3,195.86L894.7,195.86" style="vector-effect: none; fill: none; stroke: rgb(0, 0, 0); stroke-opacity: 1; stroke-width: 2px; opacity: 1;"/></g><g class="points"/><g class="text"/></g><g class="trace scatter tracea055aa" style="stroke-miterlimit: 2; opacity: 1;"><g class="fills"/><g class="errorbars"/><g class="lines"><path class="js-line" d="M63.3,195.86L250.27,196.53L253.6,196.62L337.04,198.59L340.38,198.59L667.58,197.88L670.92,197.78L754.36,195.86L757.7,195.86L894.6,195.86" style="vector-effect: none; fill: none; stroke: rgb(100, 143, 255); stroke-opacity: 1; stroke-width: 2px; opacity: 1;"/></g><g class="points"/><g class="text"/></g><g class="trace scatter trace381841" style="stroke-miterlimit: 2; opacity: 1;"><g class="fills"/><g class="errorbars"/><g class="lines"/><g class="points"><path class="point" transform="translate(63.3,195.86)" d="M-4.000000000000001,-9.24L-3.9999999999999996,9.24L8,-4.898587196589413e-16Z" style="opacity: 1; stroke-width: 0px; fill: rgb(12, 51, 131); fill-opacity: 1;"/><path class="point" transform="translate(163.06,195.86)" d="M-3.9999575892219665,-9.2400183595286L-4.000042410693765,9.23998164027674L7.999999999915731,0.000036719251860709174Z" style="opacity: 1; stroke-width: 0px; fill: rgb(11, 94, 159); fill-opacity: 1;"/><path class="point" transform="translate(262.81,196.92)" d="M-3.676568090137181,-9.37339037267653L-4.318602393605173,9.095453444768308L7.995170483742354,0.27793692790822155Z" style="opacity: 1; stroke-width: 0px; fill: rgb(10, 136, 186); fill-opacity: 1;"/><path class="point" transform="translate(362.55,198.59)" d="M-3.9999666755671153,-9.240014426090069L-4.000033324380857,9.239985573789747L7.999999999947971,0.000028852300320794594Z" style="opacity: 1; stroke-width: 0px; fill: rgb(126, 174, 121); fill-opacity: 1;"/><path class="point" transform="translate(462.32,198.59)" d="M-4.000000848490261,-9.239999632688152L-3.999999151509705,9.24000036731177L7.999999999999966,-7.346236175389815e-7Z" style="opacity: 1; stroke-width: 0px; fill: rgb(242, 211, 56); fill-opacity: 1;"/><path class="point" transform="translate(562.09,198.59)" d="M-4.000008210975951,-9.239996445460624L-3.9999917890208905,9.240003554532079L7.999999999996842,-0.000007109071454669971Z" style="opacity: 1; stroke-width: 0px; fill: rgb(242, 177, 56); fill-opacity: 1;"/><path class="point" transform="translate(661.84,198.03)" d="M-4.231889269080747,-9.136121344106547L-3.7655632881601018,9.337994063119814L7.997452557240849,-0.20187271901326634Z" style="opacity: 1; stroke-width: 0px; fill: rgb(242, 143, 56); fill-opacity: 1;"/><path class="point" transform="translate(761.57,195.86)" d="M-4.000120254763275,-9.239947940731733L-3.9998797445592036,9.240052057703194L7.999999999322479,-0.00010411697145972654Z" style="opacity: 1; stroke-width: 0px; fill: rgb(230, 87, 43); fill-opacity: 1;"/><path class="point" transform="translate(861.34,195.86)" d="M-3.9999957490545692,-9.240001840234957L-4.000004250944585,9.23999815976309L7.999999999999154,0.0000036804718681156617Z" style="opacity: 1; stroke-width: 0px; fill: rgb(217, 30, 30); fill-opacity: 1;"/></g><g class="text"/></g><g class="trace scatter trace559a30" style="stroke-miterlimit: 2; opacity: 1;"><g class="fills"/><g class="errorbars"/><g class="lines"><path class="js-line" d="M63.3,216.64L894.7,216.64" style="vector-effect: none; fill: none; stroke: rgb(0, 0, 0); stroke-opacity: 1; stroke-width: 2px; opacity: 1;"/></g><g class="points"/><g class="text"/></g><g class="trace scatter traceb3d4cc" style="stroke-miterlimit: 2; opacity: 1;"><g class="fills"/><g class="errorbars"/><g class="lines"><path class="js-line" d="M63.3,216.64L894.7,216.64" style="vector-effect: none; fill: none; stroke: rgb(100, 143, 255); stroke-opacity: 1; stroke-width: 2px; opacity: 1;"/></g><g class="points"/><g class="text"/></g><g class="trace scatter trace121184" style="stroke-miterlimit: 2; opacity: 1;"><g class="fills"/><g class="errorbars"/><g class="lines"/><g class="points"><path class="point" transform="translate(63.3,216.64)" d="M-4.000000000000001,-9.24L-3.9999999999999996,9.24L8,-4.898587196589413e-16Z" style="opacity: 1; stroke-width: 0px; fill: rgb(12, 51, 131); fill-opacity: 1;"/><path class="point" transform="translate(163.06,216.64)" d="M-4.000000000000001,-9.24L-3.9999999999999996,9.24L8,-4.898587196589413e-16Z" style="opacity: 1; stroke-width: 0px; fill: rgb(11, 94, 159); fill-opacity: 1;"/><path class="point" transform="translate(262.83,216.64)" d="M-3.999999999998306,-9.240000000000734L-4.000000000001694,9.239999999999267L8,1.4667808906249478e-12Z" style="opacity: 1; stroke-width: 0px; fill: rgb(10, 136, 186); fill-opacity: 1;"/><path class="point" transform="translate(362.6,216.64)" d="M-4.000000000000001,-9.24L-3.9999999999999996,9.24L8,-4.898587196589413e-16Z" style="opacity: 1; stroke-width: 0px; fill: rgb(126, 174, 121); fill-opacity: 1;"/><path class="point" transform="translate(462.37,216.64)" d="M-4.000000000000001,-9.24L-3.9999999999999996,9.24L8,-4.898587196589413e-16Z" style="opacity: 1; stroke-width: 0px; fill: rgb(242, 211, 56); fill-opacity: 1;"/><path class="point" transform="translate(562.14,216.64)" d="M-4.000000000000001,-9.24L-3.9999999999999996,9.24L8,-4.898587196589413e-16Z" style="opacity: 1; stroke-width: 0px; fill: rgb(242, 177, 56); fill-opacity: 1;"/><path class="point" transform="translate(661.91,216.64)" d="M-4.000000000001238,-9.239999999999464L-3.9999999999987623,9.240000000000537L8,-1.07163303287801e-12Z" style="opacity: 1; stroke-width: 0px; fill: rgb(242, 143, 56); fill-opacity: 1;"/><path class="point" transform="translate(761.68,216.64)" d="M-4.000000000000001,-9.24L-3.9999999999999996,9.24L8,-4.898587196589413e-16Z" style="opacity: 1; stroke-width: 0px; fill: rgb(230, 87, 43); fill-opacity: 1;"/><path class="point" transform="translate(861.45,216.64)" d="M-4.000000000000001,-9.24L-3.9999999999999996,9.24L8,-4.898587196589413e-16Z" style="opacity: 1; stroke-width: 0px; fill: rgb(217, 30, 30); fill-opacity: 1;"/></g><g class="text"/></g><g class="trace scatter trace5a2170" style="stroke-miterlimit: 2; opacity: 1;"><g class="fills"/><g class="errorbars"/><g class="lines"><path class="js-line" d="M63.3,237.43L894.7,237.43" style="vector-effect: none; fill: none; stroke: rgb(0, 0, 0); stroke-opacity: 1; stroke-width: 2px; opacity: 1;"/></g><g class="points"/><g class="text"/></g><g class="trace scatter trace772213" style="stroke-miterlimit: 2; opacity: 1;"><g class="fills"/><g class="errorbars"/><g class="lines"><path class="js-line" d="M63.3,237.43L894.7,237.43" style="vector-effect: none; fill: none; stroke: rgb(100, 143, 255); stroke-opacity: 1; stroke-width: 2px; opacity: 1;"/></g><g class="points"/><g class="text"/></g><g class="trace scatter traceb7eb14" style="stroke-miterlimit: 2; opacity: 1;"><g class="fills"/><g class="errorbars"/><g class="lines"/><g class="points"><path class="point" transform="translate(63.3,237.43)" d="M-4.000000000000001,-9.24L-3.9999999999999996,9.24L8,-4.898587196589413e-16Z" style="opacity: 1; stroke-width: 0px; fill: rgb(12, 51, 131); fill-opacity: 1;"/><path class="point" transform="translate(163.06,237.43)" d="M-4.000000000000001,-9.24L-3.9999999999999996,9.24L8,-4.898587196589413e-16Z" style="opacity: 1; stroke-width: 0px; fill: rgb(11, 94, 159); fill-opacity: 1;"/><path class="point" transform="translate(262.83,237.43)" d="M-4.0000000000011005,-9.239999999999524L-3.9999999999988995,9.240000000000476L8,-9.526171246381933e-13Z" style="opacity: 1; stroke-width: 0px; fill: rgb(10, 136, 186); fill-opacity: 1;"/><path class="point" transform="translate(362.6,237.43)" d="M-4.000000000000001,-9.24L-3.9999999999999996,9.24L8,-4.898587196589413e-16Z" style="opacity: 1; stroke-width: 0px; fill: rgb(126, 174, 121); fill-opacity: 1;"/><path class="point" transform="translate(462.37,237.43)" d="M-4.000000000000001,-9.24L-3.9999999999999996,9.24L8,-4.898587196589413e-16Z" style="opacity: 1; stroke-width: 0px; fill: rgb(242, 211, 56); fill-opacity: 1;"/><path class="point" transform="translate(562.14,237.43)" d="M-4.000000000000001,-9.24L-3.9999999999999996,9.24L8,-4.898587196589413e-16Z" style="opacity: 1; stroke-width: 0px; fill: rgb(242, 177, 56); fill-opacity: 1;"/><path class="point" transform="translate(661.91,237.43)" d="M-3.9999999999992046,-9.240000000000345L-4.000000000000796,9.239999999999656L8,6.887365949676382e-13Z" style="opacity: 1; stroke-width: 0px; fill: rgb(242, 143, 56); fill-opacity: 1;"/><path class="point" transform="translate(761.68,237.43)" d="M-4.000000000000001,-9.24L-3.9999999999999996,9.24L8,-4.898587196589413e-16Z" style="opacity: 1; stroke-width: 0px; fill: rgb(230, 87, 43); fill-opacity: 1;"/><path class="point" transform="translate(861.45,237.43)" d="M-4.000000000000001,-9.24L-3.9999999999999996,9.24L8,-4.898587196589413e-16Z" style="opacity: 1; stroke-width: 0px; fill: rgb(217, 30, 30); fill-opacity: 1;"/></g><g class="text"/></g><g class="trace scatter trace9ab53a" style="stroke-miterlimit: 2; opacity: 1;"><g class="fills"/><g class="errorbars"/><g class="lines"><path class="js-line" d="M533.14,489.04L480.52,190.63L480.09,188.17L424.86,-125.04" style="vector-effect: none; fill: none; stroke: rgb(220, 38, 127); stroke-opacity: 1; stroke-width: 2px; opacity: 1;"/></g><g class="points"/><g class="text"/></g><g class="trace scatter tracefed5eb" style="stroke-miterlimit: 2; opacity: 1;"><g class="fills"/><g class="errorbars"/><g class="lines"/><g class="points"><path class="point" transform="translate(533.14,489.04)" d="M-8.40503092716508,5.543740173691268L9.794216348500525,2.334721850406396L-1.3891854213354426,-7.878462024097664Z" style="opacity: 1; stroke-width: 0px; fill: rgb(12, 51, 131); fill-opacity: 1;"/><path class="point" transform="translate(520.15,415.35)" d="M-8.40503092716508,5.543740173691268L9.794216348500525,2.334721850406396L-1.3891854213354426,-7.878462024097664Z" style="opacity: 1; stroke-width: 0px; fill: rgb(11, 94, 159); fill-opacity: 1;"/><path class="point" transform="translate(507.15,341.66)" d="M-8.40503092716508,5.543740173691268L9.794216348500525,2.334721850406396L-1.3891854213354426,-7.878462024097664Z" style="opacity: 1; stroke-width: 0px; fill: rgb(10, 136, 186); fill-opacity: 1;"/><path class="point" transform="translate(494.16,267.97)" d="M-8.40503092716508,5.543740173691268L9.794216348500525,2.334721850406396L-1.3891854213354426,-7.878462024097664Z" style="opacity: 1; stroke-width: 0px; fill: rgb(126, 174, 121); fill-opacity: 1;"/><path class="point" transform="translate(481.17,194.28)" d="M-8.40503092716508,5.543740173691268L9.794216348500525,2.334721850406396L-1.3891854213354426,-7.878462024097664Z" style="opacity: 1; stroke-width: 0px; fill: rgb(242, 211, 56); fill-opacity: 1;"/><path class="point" transform="translate(468.17,120.59)" d="M-8.40503092716508,5.543740173691268L9.794216348500525,2.334721850406396L-1.3891854213354426,-7.878462024097664Z" style="opacity: 1; stroke-width: 0px; fill: rgb(242, 177, 56); fill-opacity: 1;"/><path class="point" transform="translate(455.18,46.9)" d="M-8.40503092716508,5.543740173691268L9.794216348500525,2.334721850406396L-1.3891854213354426,-7.878462024097664Z" style="opacity: 1; stroke-width: 0px; fill: rgb(242, 143, 56); fill-opacity: 1;"/><path class="point" transform="translate(442.18,-26.79)" d="M-8.40503092716508,5.543740173691268L9.794216348500525,2.334721850406396L-1.3891854213354426,-7.878462024097664Z" style="opacity: 1; stroke-width: 0px; fill: rgb(230, 87, 43); fill-opacity: 1;"/><path class="point" transform="translate(429.19,-100.48)" d="M-8.40503092716508,5.543740173691268L9.794216348500525,2.334721850406396L-1.3891854213354426,-7.878462024097664Z" style="opacity: 1; stroke-width: 0px; fill: rgb(217, 30, 30); fill-opacity: 1;"/></g><g class="text"/></g></g></g></g><path class="xlines-above crisp" d="M0,0" style="fill: none;"/><path class="ylines-above crisp" d="M0,0" style="fill: none;"/><g class="overlines-above"/><g class="xaxislayer-above"><g class="xtick"><text text-anchor="middle" x="0" y="400" transform="translate(184.3,0)" style="font-family: 'Open Sans', verdana, arial, sans-serif; font-size: 28px; fill: rgb(0, 0, 0); fill-opacity: 1; white-space: pre; opacity: 1;">−1500</text></g><g class="xtick"><text text-anchor="middle" x="0" y="400" style="font-family: 'Open Sans', verdana, arial, sans-serif; font-size: 28px; fill: rgb(0, 0, 0); fill-opacity: 1; white-space: pre; opacity: 1;" transform="translate(322.86,0)">−1000</text></g><g class="xtick"><text text-anchor="middle" x="0" y="400" style="font-family: 'Open Sans', verdana, arial, sans-serif; font-size: 28px; fill: rgb(0, 0, 0); fill-opacity: 1; white-space: pre; opacity: 1;" transform="translate(461.43,0)">−500</text></g><g class="xtick"><text text-anchor="middle" x="0" y="400" style="font-family: 'Open Sans', verdana, arial, sans-serif; font-size: 28px; fill: rgb(0, 0, 0); fill-opacity: 1; white-space: pre; opacity: 1;" transform="translate(600,0)">0</text></g><g class="xtick"><text text-anchor="middle" x="0" y="400" style="font-family: 'Open Sans', verdana, arial, sans-serif; font-size: 28px; fill: rgb(0, 0, 0); fill-opacity: 1; white-space: pre; opacity: 1;" transform="translate(738.57,0)">500</text></g><g class="xtick"><text text-anchor="middle" x="0" y="400" style="font-family: 'Open Sans', verdana, arial, sans-serif; font-size: 28px; fill: rgb(0, 0, 0); fill-opacity: 1; white-space: pre; opacity: 1;" transform="translate(877.14,0)">1000</text></g><g class="xtick"><text text-anchor="middle" x="0" y="400" style="font-family: 'Open Sans', verdana, arial, sans-serif; font-size: 28px; fill: rgb(0, 0, 0); fill-opacity: 1; white-space: pre; opacity: 1;" transform="translate(1015.7,0)">1500</text></g></g><g class="yaxislayer-above"><g class="ytick"><text text-anchor="end" x="120" y="9.799999999999999" transform="translate(0,355.28)" style="font-family: 'Open Sans', verdana, arial, sans-serif; font-size: 28px; fill: rgb(0, 0, 0); fill-opacity: 1; white-space: pre; opacity: 1;">−600</text></g><g class="ytick"><text text-anchor="end" x="120" y="9.799999999999999" style="font-family: 'Open Sans', verdana, arial, sans-serif; font-size: 28px; fill: rgb(0, 0, 0); fill-opacity: 1; white-space: pre; opacity: 1;" transform="translate(0,299.85)">−400</text></g><g class="ytick"><text text-anchor="end" x="120" y="9.799999999999999" style="font-family: 'Open Sans', verdana, arial, sans-serif; font-size: 28px; fill: rgb(0, 0, 0); fill-opacity: 1; white-space: pre; opacity: 1;" transform="translate(0,244.43)">−200</text></g><g class="ytick"><text text-anchor="end" x="120" y="9.799999999999999" style="font-family: 'Open Sans', verdana, arial, sans-serif; font-size: 28px; fill: rgb(0, 0, 0); fill-opacity: 1; white-space: pre; opacity: 1;" transform="translate(0,189)">0</text></g><g class="ytick"><text text-anchor="end" x="120" y="9.799999999999999" style="font-family: 'Open Sans', verdana, arial, sans-serif; font-size: 28px; fill: rgb(0, 0, 0); fill-opacity: 1; white-space: pre; opacity: 1;" transform="translate(0,133.57)">200</text></g><g class="ytick"><text text-anchor="end" x="120" y="9.799999999999999" style="font-family: 'Open Sans', verdana, arial, sans-serif; font-size: 28px; fill: rgb(0, 0, 0); fill-opacity: 1; white-space: pre; opacity: 1;" transform="translate(0,78.15)">400</text></g><g class="ytick"><text text-anchor="end" x="120" y="9.799999999999999" style="font-family: 'Open Sans', verdana, arial, sans-serif; font-size: 28px; fill: rgb(0, 0, 0); fill-opacity: 1; white-space: pre; opacity: 1;" transform="translate(0,22.72)">600</text></g></g><g class="overaxes-above"/></g></g><g class="polarlayer"/><g class="smithlayer"/><g class="ternarylayer"/><g class="geolayer"/><g class="funnelarealayer"/><g class="pielayer"/><g class="iciclelayer"/><g class="treemaplayer"/><g class="sunburstlayer"/><g class="glimages"/><defs id="topdefs-48a2db"><g class="clips"/><clipPath id="legend48a2db"><rect width="93" height="225" x="2" y="2"/></clipPath></defs><g class="layer-above"><g class="imagelayer"/><g class="shapelayer"/></g><g class="infolayer"><g class="legend" pointer-events="all" transform="translate(1098.1599999999999,7)"><rect class="bg" shape-rendering="crispEdges" width="95" height="227" x="1" y="1" style="stroke: rgb(0, 0, 0); stroke-opacity: 1; fill: rgb(255, 255, 255); fill-opacity: 1; stroke-width: 2px;"/><g class="scrollbox" transform="" clip-path="url(#legend48a2db)"><g class="groups" transform=""><g class="traces" transform="translate(2,28.650000000000002)" style="opacity: 1;"><text class="legendtext" text-anchor="start" x="5" y="12.090000000000002" style="font-family: 'Open Sans', verdana, arial, sans-serif; font-size: 31px; fill: rgb(0, 0, 0); fill-opacity: 1; white-space: pre;">OS</text><g class="layers"><g class="legendfill"/><g class="legendlines"/><g class="legendsymbols"><g class="legendpoints"/></g></g><rect class="legendtoggle" x="0" y="-21.650000000000002" width="87.796875" height="43.300000000000004" style="fill: rgb(0, 0, 0); fill-opacity: 0;"/></g><g class="traces" transform="translate(2,70)" style="opacity: 1;"><text class="legendtext" text-anchor="start" x="40" y="10.92" style="font-family: 'Open Sans', verdana, arial, sans-serif; font-size: 28px; fill: rgb(0, 0, 0); fill-opacity: 1; white-space: pre;">Ref</text><g class="layers" style="opacity: 1;"><g class="legendfill"/><g class="legendlines"><path class="js-line" d="M5,0h30" style="fill: none; stroke: rgb(0, 0, 0); stroke-opacity: 1; stroke-width: 2px;"/></g><g class="legendsymbols"><g class="legendpoints"/></g></g><rect class="legendtoggle" x="0" y="-19.7" width="87.796875" height="39.4" style="fill: rgb(0, 0, 0); fill-opacity: 0;"/></g><g class="traces" transform="translate(2,109.4)" style="opacity: 1;"><text class="legendtext" text-anchor="start" x="40" y="10.92" style="font-family: 'Open Sans', verdana, arial, sans-serif; font-size: 28px; fill: rgb(0, 0, 0); fill-opacity: 1; white-space: pre;">Pos</text><g class="layers" style="opacity: 1;"><g class="legendfill"/><g class="legendlines"><path class="js-line" d="M5,0h30" style="fill: none; stroke: rgb(100, 143, 255); stroke-opacity: 1; stroke-width: 2px;"/></g><g class="legendsymbols"><g class="legendpoints"/></g></g><rect class="legendtoggle" x="0" y="-19.7" width="87.796875" height="39.4" style="fill: rgb(0, 0, 0); fill-opacity: 0;"/></g></g><g class="groups" transform="translate(0,10)"><g class="traces" transform="translate(2,150.75)" style="opacity: 1;"><text class="legendtext" text-anchor="start" x="5" y="12.090000000000002" style="font-family: 'Open Sans', verdana, arial, sans-serif; font-size: 31px; fill: rgb(0, 0, 0); fill-opacity: 1; white-space: pre;">TS</text><g class="layers"><g class="legendfill"/><g class="legendlines"/><g class="legendsymbols"><g class="legendpoints"/></g></g><rect class="legendtoggle" x="0" y="-21.650000000000002" width="87.796875" height="43.300000000000004" style="fill: rgb(0, 0, 0); fill-opacity: 0;"/></g><g class="traces" transform="translate(2,192.1)" style="opacity: 1;"><text class="legendtext" text-anchor="start" x="40" y="10.92" style="font-family: 'Open Sans', verdana, arial, sans-serif; font-size: 28px; fill: rgb(0, 0, 0); fill-opacity: 1; white-space: pre;">Pos</text><g class="layers" style="opacity: 1;"><g class="legendfill"/><g class="legendlines"><path class="js-line" d="M5,0h30" style="fill: none; stroke: rgb(220, 38, 127); stroke-opacity: 1; stroke-width: 2px;"/></g><g class="legendsymbols"><g class="legendpoints"/></g></g><rect class="legendtoggle" x="0" y="-19.7" width="87.796875" height="39.4" style="fill: rgb(0, 0, 0); fill-opacity: 0;"/></g></g></g><rect class="scrollbar" rx="20" ry="3" width="0" height="0" x="0" y="0" style="fill: rgb(128, 139, 164); fill-opacity: 1;"/></g><g class="g-gtitle"/><g class="g-xtitle" transform="translate(0,-1.3000000000000114)"><text class="xtitle" x="600" y="444.3" text-anchor="middle" style="opacity: 1; font-family: 'Open Sans', verdana, arial, sans-serif; font-size: 34px; fill: rgb(0, 0, 0); fill-opacity: 1; white-space: pre;">East [m]</text></g><g class="g-ytitle" transform="translate(16.728515625,0)"><text class="ytitle" transform="rotate(-90,17.271874999999994,189)" x="17.271874999999994" y="189" text-anchor="middle" style="opacity: 1; font-family: 'Open Sans', verdana, arial, sans-serif; font-size: 34px; fill: rgb(0, 0, 0); fill-opacity: 1; white-space: pre;">North [m]</text></g></g></svg>