<svg class="main-svg" xmlns="http://www.w3.org/2000/svg" xmlns:xlink="http://www.w3.org/1999/xlink" width="1000" height="400" style="" viewBox="0 0 1000 400"><rect x="0" y="0" width="1000" height="400" style="fill: rgb(255, 255, 255); fill-opacity: 1;"/><defs id="defs-f2d5a4"><g class="clips"><clipPath id="clipf2d5a4xyplot" class="plotclip"><rect width="806" height="220"/></clipPath><clipPath class="axesclip" id="clipf2d5a4x"><rect x="114" y="0" width="806" height="400"/></clipPath><clipPath class="axesclip" id="clipf2d5a4y"><rect x="0" y="100" width="1000" height="220"/></clipPath><clipPath class="axesclip" id="clipf2d5a4xy"><rect x="114" y="100" width="806" height="220"/></clipPath></g><g class="gradients"/><g class="patterns"/></defs><g class="bglayer"/><g class="layer-below"><g class="imagelayer"/><g class="shapelayer"/></g><g class="cartesianlayer"><g class="subplot xy"><g class="layer-subplot"><g class="shapelayer"/><g class="imagelayer"/></g><g class="minor-gridlayer"><g class="x"/><g class="y"/></g><g class="gridlayer"><g class="x"><path class="xgrid crisp" transform="translate(127,0)" d="M0,100v220" style="stroke: rgb(200, 200, 200); stroke-opacity: 1; stroke-width: 1px;"/><path class="xgrid crisp" transform="translate(257,0)" d="M0,100v220" style="stroke: rgb(200, 200, 200); stroke-opacity: 1; stroke-width: 1px;"/><path class="xgrid crisp" transform="translate(387,0)" d="M0,100v220" style="stroke: rgb(200, 200, 200); stroke-opacity: 1; stroke-width: 1px;"/><path class="xgrid crisp" transform="translate(647,0)" d="M0,100v220" style="stroke: rgb(200, 200, 200); stroke-opacity: 1; stroke-width: 1px;"/><path class="xgrid crisp" transform="translate(777,0)" d="M0,100v220" style="stroke: rgb(200, 200, 200); stroke-opacity: 1; stroke-width: 1px;"/><path class="xgrid crisp" transform="translate(907,0)" d="M0,100v220" style="stroke: rgb(200, 200, 200); stroke-opacity: 1; stroke-width: 1px;"/></g><g class="y"><path class="ygrid crisp" transform="translate(0,288)" d="M114,0h806" style="stroke: rgb(200, 200, 200); stroke-opacity: 1; stroke-width: 1px;"/><path class="ygrid crisp" transform="translate(0,184)" d="M114,0h806" style="stroke: rgb(200, 200, 200); stroke-opacity: 1; stroke-width: 1px;"/><path class="ygrid crisp" transform="translate(0,132)" d="M114,0h806" style="stroke: rgb(200, 200, 200); stroke-opacity: 1; stroke-width: 1px;"/></g></g><g class="zerolinelayer"><path class="xzl zl crisp" transform="translate(517,0)" d="M0,100v220" style="stroke: rgb(200, 200, 200); stroke-opacity: 1; stroke-width: 2px;"/><path class="yzl zl crisp" transform="translate(0,236)" d="M114,0h806" style="stroke: rgb(200, 200, 200); stroke-opacity: 1; stroke-width: 2px;"/></g><g class="layer-between"><g class="shapelayer"/><g class="imagelayer"/></g><path class="xlines-below"/><path class="ylines-below"/><g class="overlines-below"/><g class="xaxislayer-below"/><g class="yaxislayer-below"/><g class="overaxes-below"/><g class="overplot"><g class="xy" transform="translate(114,100)" clip-path="url(#clipf2d5a4xyplot)"><g class="scatterlayer mlayer"><g class="trace scatter trace06c357" style="stroke-miterlimit: 2; opacity: 1;"><g class="fills"/><g class="errorbars"/><g class="lines"><path class="js-line" d="M13,32L793,32" style="vector-effect: none; fill: none; stroke: rgb(0, 0, 0); stroke-opacity: 1; stroke-width: 2px; opacity: 1;"/></g><g class="points"/><g class="text"/></g><g class="trace scatter tracec3c499" style="stroke-miterlimit: 2; opacity: 1;"><g class="fills"/><g class="errorbars"/><g class="lines"><path class="js-line" d="M13,32L793,32" style="vector-effect: none; fill: none; stroke: rgb(100, 143, 255); stroke-opacity: 1; stroke-width: 2px; opacity: 1;"/></g><g class="points"/><g class="text"/></g><g class="trace scatter trace442dde" style="stroke-miterlimit: 2; opacity: 1;"><g class="fills"/><g class="errorbars"/><g class="lines"/><g class="points"><path class="point" transform="translate(13,32)" d="M-3.2500000000000004,-7.51L-3.2499999999999996,7.51L6.5,-3.9801020972288977e-16Z" style="opacity: 1; stroke-width: 0px; fill: rgb(12, 51, 131); fill-opacity: 1;"/><path class="point" transform="translate(106.6,32)" d="M-3.2500000000000004,-7.51L-3.2499999999999996,7.51L6.5,-3.9801020972288977e-16Z" style="opacity: 1; stroke-width: 0px; fill: rgb(11, 89, 155); fill-opacity: 1;"/><path class="point" transform="translate(200.2,32)" d="M-3.249999999999992,-7.510000000000003L-3.250000000000008,7.509999999999996L6.5,6.818439450340628e-15Z" style="opacity: 1; stroke-width: 0px; fill: rgb(10, 127, 180); fill-opacity: 1;"/><path class="point" transform="translate(293.8,32)" d="M-3.2500000000000004,-7.51L-3.2499999999999996,7.51L6.5,-3.9801020972288977e-16Z" style="opacity: 1; stroke-width: 0px; fill: rgb(87, 161, 143); fill-opacity: 1;"/><path class="point" transform="translate(387.4,32)" d="M-3.249999999999992,-7.510000000000003L-3.250000000000008,7.509999999999996L6.5,6.818439450340628e-15Z" style="opacity: 1; stroke-width: 0px; fill: rgb(190, 194, 85); fill-opacity: 1;"/><path class="point" transform="translate(481,32)" d="M-3.2500000000004623,-7.5099999999998L-3.2499999999995377,7.5100000000002L6.5,-4.0018932137724174e-13Z" style="opacity: 1; stroke-width: 0px; fill: rgb(242, 196, 56); fill-opacity: 1;"/><path class="point" transform="translate(574.6,32)" d="M-3.2499999999996203,-7.510000000000164L-3.2500000000003797,7.5099999999998355L6.5,3.2867209428917353e-13Z" style="opacity: 1; stroke-width: 0px; fill: rgb(242, 166, 56); fill-opacity: 1;"/><path class="point" transform="translate(668.2,32)" d="M-3.2500000000000004,-7.51L-3.2499999999999996,7.51L6.5,-3.9801020972288977e-16Z" style="opacity: 1; stroke-width: 0px; fill: rgb(239, 130, 53); fill-opacity: 1;"/><path class="point" transform="translate(761.8,32)" d="M-3.2500000000000004,-7.51L-3.2499999999999996,7.51L6.5,-3.9801020972288977e-16Z" style="opacity: 1; stroke-width: 0px; fill: rgb(228, 80, 42); fill-opacity: 1;"/></g><g class="text"/></g><g class="trace scatter tracef9210d" style="stroke-miterlimit: 2; opacity: 1;"><g class="fills"/><g class="errorbars"/><g class="lines"><path class="js-line" d="M13,51.5L793,51.5" style="vector-effect: none; fill: none; stroke: rgb(0, 0, 0); stroke-opacity: 1; stroke-width: 2px; opacity: 1;"/></g><g class="points"/><g class="text"/></g><g class="trace scatter traceaafff7" style="stroke-miterlimit: 2; opacity: 1;"><g class="fills"/><g class="errorbars"/><g class="lines"><path class="js-line" d="M13,51.5L793,51.5" style="vector-effect: none; fill: none; stroke: rgb(100, 143, 255); stroke-opacity: 1; stroke-width: 2px; opacity: 1;"/></g><g class="points"/><g class="text"/></g><g class="trace scatter trace9532f4" style="stroke-miterlimit: 2; opacity: 1;"><g class="fills"/><g class="errorbars"/><g class="lines"/><g class="points"><path class="point" transform="translate(13,51.5)" d="M-3.2500000000000004,-7.51L-3.2499999999999996,7.51L6.5,-3.9801020972288977e-16Z" style="opacity: 1; stroke-width: 0px; fill: rgb(12, 51, 131); fill-opacity: 1;"/><path class="point" transform="translate(106.6,51.5)" d="M-3.2500000000000004,-7.51L-3.2499999999999996,7.51L6.5,-3.9801020972288977e-16Z" style="opacity: 1; stroke-width: 0px; fill: rgb(11, 89, 155); fill-opacity: 1;"/><path class="point" transform="translate(200.2,51.5)" d="M-3.2500000000000004,-7.51L-3.2499999999999996,7.51L6.5,-3.9801020972288977e-16Z" style="opacity: 1; stroke-width: 0px; fill: rgb(10, 127, 180); fill-opacity: 1;"/><path class="point" transform="translate(293.8,51.5)" d="M-3.2500000000000004,-7.51L-3.2499999999999996,7.51L6.5,-3.9801020972288977e-16Z" style="opacity: 1; stroke-width: 0px; fill: rgb(87, 161, 143); fill-opacity: 1;"/><path class="point" transform="translate(387.4,51.5)" d="M-3.2500000000000004,-7.51L-3.2499999999999996,7.51L6.5,-3.9801020972288977e-16Z" style="opacity: 1; stroke-width: 0px; fill: rgb(190, 194, 85); fill-opacity: 1;"/><path class="point" transform="translate(481,51.5)" d="M-3.2500000000007674,-7.509999999999668L-3.2499999999992326,7.510000000000332L6.5,-6.643113789355665e-13Z" style="opacity: 1; stroke-width: 0px; fill: rgb(242, 196, 56); fill-opacity: 1;"/><path class="point" transform="translate(574.6,51.5)" d="M-3.249999999999375,-7.51000000000027L-3.250000000000625,7.50999999999973L6.5,5.408357142950409e-13Z" style="opacity: 1; stroke-width: 0px; fill: rgb(242, 166, 56); fill-opacity: 1;"/><path class="point" transform="translate(668.2,51.5)" d="M-3.2500000000000004,-7.51L-3.2499999999999996,7.51L6.5,-3.9801020972288977e-16Z" style="opacity: 1; stroke-width: 0px; fill: rgb(239, 130, 53); fill-opacity: 1;"/><path class="point" transform="translate(761.8,51.5)" d="M-3.2500000000000004,-7.51L-3.2499999999999996,7.51L6.5,-3.9801020972288977e-16Z" style="opacity: 1; stroke-width: 0px; fill: rgb(228, 80, 42); fill-opacity: 1;"/></g><g class="text"/></g><g class="trace scatter tracea84f33" style="stroke-miterlimit: 2; opacity: 1;"><g class="fills"/><g class="errorbars"/><g class="lines"><path class="js-line" d="M13,71L793,71" style="vector-effect: none; fill: none; stroke: rgb(0, 0, 0); stroke-opacity: 1; stroke-width: 2px; opacity: 1;"/></g><g class="points"/><g class="text"/></g><g class="trace scatter tracefff521" style="stroke-miterlimit: 2; opacity: 1;"><g class="fills"/><g class="errorbars"/><g class="lines"><path class="js-line" d="M13,71L57.63,70.25L60.36,70.16L92.39,69.24L94.9,69.45L104.57,71.08L106.9,71.68L115.84,74.86L117.98,75.85L126.18,80.6L128.14,81.98L135.62,88.28L137.4,90.05L146.63,98.16L148.56,99.58L158.72,105.74L160.84,106.77L169.63,110.27L171.91,110.98L183.74,113.55L186.2,113.87L206.44,115.2L208.99,115.32L242.48,116.23L245.08,116.24L396.45,116.12L399.09,116.03L423.27,114.41L426,114.13L450.89,110.83L453.69,110.37L495.6,102.61L498.38,102.03L542.74,92.06L545.51,91.43L612.08,76.77L614.87,76.32L637.32,73.45L640.14,73.19L662.79,71.9L665.62,71.81L722.7,70.92L725.31,70.92L793,71" style="vector-effect: none; fill: none; stroke: rgb(100, 143, 255); stroke-opacity: 1; stroke-width: 2px; opacity: 1;"/></g><g class="points"/><g class="text"/></g><g class="trace scatter trace08a0a0" style="stroke-miterlimit: 2; opacity: 1;"><g class="fills"/><g class="errorbars"/><g class="lines"/><g class="points"><path class="point" transform="translate(13,71)" d="M-3.2500000000000004,-7.51L-3.2499999999999996,7.51L6.5,-3.9801020972288977e-16Z" style="opacity: 1; stroke-width: 0px; fill: rgb(12, 51, 131); fill-opacity: 1;"/><path class="point" transform="translate(102.04,70.52)" d="M-1.7073342853587499,-8.00297504919505L-4.6653672495974785,6.722867574657651L6.372701534956229,1.2801074745373995Z" style="opacity: 1; stroke-width: 0px; fill: rgb(11, 89, 155); fill-opacity: 1;"/><path class="point" transform="translate(169.32,110.16)" d="M-0.7089561323712017,-8.152299135972212L-5.457638065267855,6.097276994572195L6.166594197639057,2.0550221414000167Z" style="opacity: 1; stroke-width: 0px; fill: rgb(10, 127, 180); fill-opacity: 1;"/><path class="point" transform="translate(252.36,116.25)" d="M-3.27067441516783,-7.5010191887480575L-3.2293009250841442,7.518923828264966L6.499975340251974,-0.01790463951690787Z" style="opacity: 1; stroke-width: 0px; fill: rgb(87, 161, 143); fill-opacity: 1;"/><path class="point" transform="translate(338.29,116.19)" d="M-3.233412036195295,-7.517156816522281L-3.2665721230691416,7.502806579193386L6.499984159264437,0.014350237328894903Z" style="opacity: 1; stroke-width: 0px; fill: rgb(190, 194, 85); fill-opacity: 1;"/><path class="point" transform="translate(425.04,114.23)" d="M-3.991975265100723,-7.143299901503786L-2.4747787463498496,7.79987629110969L6.466754011450573,-0.656576389605904Z" style="opacity: 1; stroke-width: 0px; fill: rgb(242, 196, 56); fill-opacity: 1;"/><path class="point" transform="translate(516.65,98.07)" d="M-4.824834590394155,-6.609354822926067L-1.5154252920359255,8.041522628473903L6.340259882430081,-1.4321678055478357Z" style="opacity: 1; stroke-width: 0px; fill: rgb(242, 166, 56); fill-opacity: 1;"/><path class="point" transform="translate(607.92,77.49)" d="M-4.525844407221613,-6.817575258229339L-1.8718820749194893,7.966094243579792L6.397726482141103,-1.1485189853504532Z" style="opacity: 1; stroke-width: 0px; fill: rgb(239, 130, 53); fill-opacity: 1;"/><path class="point" transform="translate(699.96,71.07)" d="M-3.3467514516566124,-7.467386070160987L-3.152706087793088,7.551360428690475L6.4994575394497005,-0.0839743585294879Z" style="opacity: 1; stroke-width: 0px; fill: rgb(228, 80, 42); fill-opacity: 1;"/><path class="point" transform="translate(786.13,71)" d="M-3.2511725813458083,-7.5094924493140836L-3.2488273394188747,7.5105073675913845L6.499999920764683,-0.0010149182773014004Z" style="opacity: 1; stroke-width: 0px; fill: rgb(217, 30, 30); fill-opacity: 1;"/></g><g class="text"/></g><g class="trace scatter trace0b242b" style="stroke-miterlimit: 2; opacity: 1;"><g class="fills"/><g class="errorbars"/><g class="lines"><path class="js-line" d="M13,90.5L793,90.5" style="vector-effect: none; fill: none; stroke: rgb(0, 0, 0); stroke-opacity: 1; stroke-width: 2px; opacity: 1;"/></g><g class="points"/><g class="text"/></g><g class="trace scatter tracea22810" style="stroke-miterlimit: 2; opacity: 1;"><g class="fills"/><g class="errorbars"/><g class="lines"><path class="js-line" d="M13,90.5L62.29,89.78L64.98,89.69L93.98,89.32L96.48,89.54L108.58,91.54L110.91,92.12L122.16,95.9L124.33,96.83L134.73,102.4L136.73,103.7L148.81,111.24L150.9,112.33L161.71,117.03L163.95,117.82L175.47,121.03L177.84,121.53L190.07,123.24L192.59,123.43L225.89,124.73L228.47,124.79L277.94,125L280.55,124.99L416.48,124.3L419.15,124.14L446.22,121.72L448.96,121.39L490.24,115.53L492.99,115.1L550.55,105.17L553.29,104.68L616.35,94.16L619.1,93.84L643.97,91.7L646.75,91.55L677.19,90.79L679.93,90.75L748.67,90.48L751.28,90.49L793,90.5" style="vector-effect: none; fill: none; stroke: rgb(100, 143, 255); stroke-opacity: 1; stroke-width: 2px; opacity: 1;"/></g><g class="points"/><g class="text"/></g><g class="trace scatter traced29799" style="stroke-miterlimit: 2; opacity: 1;"><g class="fills"/><g class="errorbars"/><g class="lines"/><g class="points"><path class="point" transform="translate(13,90.5)" d="M-3.2500000000000004,-7.51L-3.2499999999999996,7.51L6.5,-3.9801020972288977e-16Z" style="opacity: 1; stroke-width: 0px; fill: rgb(12, 51, 131); fill-opacity: 1;"/><path class="point" transform="translate(102.97,90.41)" d="M-1.9523312584644006,-7.9467605133930395L-4.4566808213583915,6.86298740028978L6.409012079822792,1.0837731131032582Z" style="opacity: 1; stroke-width: 0px; fill: rgb(11, 89, 155); fill-opacity: 1;"/><path class="point" transform="translate(176.17,121.18)" d="M-1.6214215029524812,-8.0208224210341L-4.737187268699915,6.672455078999591L6.3586087716523965,1.3483673420345088Z" style="opacity: 1; stroke-width: 0px; fill: rgb(10, 127, 180); fill-opacity: 1;"/><path class="point" transform="translate(262.11,125.04)" d="M-3.2779246040149075,-7.497853712256175L-3.2220303891245483,7.522042287275305L6.499954993139456,-0.02418857501913011Z" style="opacity: 1; stroke-width: 0px; fill: rgb(87, 161, 143); fill-opacity: 1;"/><path class="point" transform="translate(349.9,125.03)" d="M-3.2377160433067793,-7.515304040616979L-3.2622752676275866,7.5046758809575085L6.499991310934366,0.010628159659470475Z" style="opacity: 1; stroke-width: 0px; fill: rgb(190, 194, 85); fill-opacity: 1;"/><path class="point" transform="translate(438.68,122.54)" d="M-3.991961554920273,-7.143307563309767L-2.474793716688909,7.799871541239451L6.466755271609182,-0.656563977929685Z" style="opacity: 1; stroke-width: 0px; fill: rgb(242, 196, 56); fill-opacity: 1;"/><path class="point" transform="translate(531.06,108.64)" d="M-4.51534567538758,-6.824533202480494L-1.8841409883866456,7.9632036728870235L6.399486663774225,-1.1386704704065296Z" style="opacity: 1; stroke-width: 0px; fill: rgb(242, 166, 56); fill-opacity: 1;"/><path class="point" transform="translate(623.33,93.37)" d="M-4.0160512105657125,-7.129791909594114L-2.448450972593803,7.8081808274914115L6.4645021831595155,-0.6783889178972976Z" style="opacity: 1; stroke-width: 0px; fill: rgb(239, 130, 53); fill-opacity: 1;"/><path class="point" transform="translate(715.27,90.46)" d="M-3.269484063674622,-7.5015381061071515L-3.230494035962295,7.518411287207693L6.499978099636917,-0.016873181100541024Z" style="opacity: 1; stroke-width: 0px; fill: rgb(228, 80, 42); fill-opacity: 1;"/></g><g class="text"/></g><g class="trace scatter trace595f7f" style="stroke-miterlimit: 2; opacity: 1;"><g class="fills"/><g class="errorbars"/><g class="lines"><path class="js-line" d="M13,110L793,110" style="vector-effect: none; fill: none; stroke: rgb(0, 0, 0); stroke-opacity: 1; stroke-width: 2px; opacity: 1;"/></g><g class="points"/><g class="text"/></g><g class="trace scatter trace947b08" style="stroke-miterlimit: 2; opacity: 1;"><g class="fills"/><g class="errorbars"/><g class="lines"><path class="js-line" d="M13,110L72.16,109.26L74.81,109.19L95.62,109.34L98.13,109.53L112.82,111.55L115.2,112.02L129.07,115.75L131.31,116.52L162.51,127.63L164.85,128.21L179.18,130.96L181.63,131.29L196.66,132.6L199.22,132.7L248.31,133.7L250.91,133.71L407.48,133.59L410.11,133.52L439.34,132.11L442.02,131.92L482.58,128.01L485.29,127.72L550.2,120.04L552.9,119.71L623.24,111.81L625.95,111.62L655.84,110.32L658.56,110.28L751.27,109.99L753.88,109.99L793,110" style="vector-effect: none; fill: none; stroke: rgb(100, 143, 255); stroke-opacity: 1; stroke-width: 2px; opacity: 1;"/></g><g class="points"/><g class="text"/></g><g class="trace scatter trace0ddc3b" style="stroke-miterlimit: 2; opacity: 1;"><g class="fills"/><g class="errorbars"/><g class="lines"/><g class="points"><path class="point" transform="translate(13,110)" d="M-3.2500000000000004,-7.51L-3.2499999999999996,7.51L6.5,-3.9801020972288977e-16Z" style="opacity: 1; stroke-width: 0px; fill: rgb(12, 51, 131); fill-opacity: 1;"/><path class="point" transform="translate(104.01,110.15)" d="M-2.2866721819350686,-7.85708154039172L-4.162440983288506,7.045330727555678L6.449113165223574,0.8117508128360413Z" style="opacity: 1; stroke-width: 0px; fill: rgb(11, 89, 155); fill-opacity: 1;"/><path class="point" transform="translate(183.44,131.52)" d="M-2.3327087124155326,-7.843536833790013L-4.121053866863612,7.069619157098101L6.453762579279144,0.7739176766919117Z" style="opacity: 1; stroke-width: 0px; fill: rgb(10, 127, 180); fill-opacity: 1;"/><path class="point" transform="translate(272.05,133.7)" d="M-3.2666154539413226,-7.5027877136482894L-3.2333686223378493,7.517175490307582L6.499984076279172,-0.014387776659292719Z" style="opacity: 1; stroke-width: 0px; fill: rgb(87, 161, 143); fill-opacity: 1;"/><path class="point" transform="translate(361.7,133.71)" d="M-3.2419398004107345,-7.513482969336711L-3.2580564576773376,7.506508383968341L6.499996258088072,0.006974585368370303Z" style="opacity: 1; stroke-width: 0px; fill: rgb(190, 194, 85); fill-opacity: 1;"/><path class="point" transform="translate(452.35,131.08)" d="M-3.904544985012351,-7.191462192072966L-2.5697367739759165,7.769108887927614L6.474281758988267,-0.5776466958546488Z" style="opacity: 1; stroke-width: 0px; fill: rgb(242, 196, 56); fill-opacity: 1;"/><path class="point" transform="translate(545.34,120.64)" d="M-4.141413008425838,-7.057711972986802L-2.310092156611759,7.850227654530844L6.451505165037597,-0.7925156815440422Z" style="opacity: 1; stroke-width: 0px; fill: rgb(242, 166, 56); fill-opacity: 1;"/><path class="point" transform="translate(638.35,110.9)" d="M-3.6035594567564497,-7.346901336047814L-2.8890824395133197,7.656095784255561L6.492641896269769,-0.309194448207746Z" style="opacity: 1; stroke-width: 0px; fill: rgb(239, 130, 53); fill-opacity: 1;"/><path class="point" transform="translate(730.28,109.98)" d="M-3.244841742497916,-7.512230165945602L-3.2551567247196505,7.507766292147914L6.499998467217567,0.004463873797687855Z" style="opacity: 1; stroke-width: 0px; fill: rgb(228, 80, 42); fill-opacity: 1;"/></g><g class="text"/></g><g class="trace scatter tracecb161f" style="stroke-miterlimit: 2; opacity: 1;"><g class="fills"/><g class="errorbars"/><g class="lines"><path class="js-line" d="M13,129.5L793,129.5" style="vector-effect: none; fill: none; stroke: rgb(0, 0, 0); stroke-opacity: 1; stroke-width: 2px; opacity: 1;"/></g><g class="points"/><g class="text"/></g><g class="trace scatter traced5b115" style="stroke-miterlimit: 2; opacity: 1;"><g class="fills"/><g class="errorbars"/><g class="lines"><path class="js-line" d="M13,129.5L104.95,129.69L107.47,129.88L127.22,132.2L129.64,132.59L173.09,139.83L175.58,140.08L198.35,141.55L200.92,141.62L268.46,142.22L271.07,142.21L438.28,141.49L440.93,141.39L494.11,138.43L496.78,138.26L640.57,129.84L643.24,129.78L696.38,129.51L699.01,129.51L793,129.5" style="vector-effect: none; fill: none; stroke: rgb(100, 143, 255); stroke-opacity: 1; stroke-width: 2px; opacity: 1;"/></g><g class="points"/><g class="text"/></g><g class="trace scatter trace96db09" style="stroke-miterlimit: 2; opacity: 1;"><g class="fills"/><g class="errorbars"/><g class="lines"/><g class="points"><path class="point" transform="translate(13,129.5)" d="M-3.2500000000000004,-7.51L-3.2499999999999996,7.51L6.5,-3.9801020972288977e-16Z" style="opacity: 1; stroke-width: 0px; fill: rgb(12, 51, 131); fill-opacity: 1;"/><path class="point" transform="translate(105.16,129.71)" d="M-2.7014938033465317,-7.724281923291011L-3.781675587942729,7.256826423965094L6.483169391289261,0.4674554993259175Z" style="opacity: 1; stroke-width: 0px; fill: rgb(11, 89, 155); fill-opacity: 1;"/><path class="point" transform="translate(191.1,141.25)" d="M-2.8554028803344984,-7.6687205185074685L-3.6358172628201633,7.330991258443765L6.491220143154662,0.33772926006370324Z" style="opacity: 1; stroke-width: 0px; fill: rgb(10, 127, 180); fill-opacity: 1;"/><path class="point" transform="translate(282.17,142.2)" d="M-3.2575435743372636,-7.506730970355472L-3.242453145111758,7.513261449048267L6.499996719449022,-0.006530478692795264Z" style="opacity: 1; stroke-width: 0px; fill: rgb(87, 161, 143); fill-opacity: 1;"/><path class="point" transform="translate(373.68,142.22)" d="M-3.245946590013425,-7.511752840368233L-3.25405246343744,7.5082449723751505L6.499999053450865,0.0035078679930825893Z" style="opacity: 1; stroke-width: 0px; fill: rgb(190, 194, 85); fill-opacity: 1;"/><path class="point" transform="translate(465.93,140.14)" d="M-3.68714293416315,-7.305311559615425L-2.8015489366247746,7.68855796334375L6.488691870787925,-0.383246403728325Z" style="opacity: 1; stroke-width: 0px; fill: rgb(242, 196, 56); fill-opacity: 1;"/><path class="point" transform="translate(559.34,134.2)" d="M-3.734748401477504,-7.281088818141227L-2.751303672945776,7.706680744603028L6.48605207442328,-0.4255919264617998Z" style="opacity: 1; stroke-width: 0px; fill: rgb(242, 166, 56); fill-opacity: 1;"/><path class="point" transform="translate(652.79,129.63)" d="M-3.3349284757361772,-7.472673688963273L-3.1646538310540153,7.546361118419601L6.4995823067901926,-0.0736874294563284Z" style="opacity: 1; stroke-width: 0px; fill: rgb(239, 130, 53); fill-opacity: 1;"/><path class="point" transform="translate(745.19,129.5)" d="M-3.2490153967863624,-7.5104260166414765L-3.250984547353584,7.50957385427883L6.4999999441399465,0.0008521623626458211Z" style="opacity: 1; stroke-width: 0px; fill: rgb(228, 80, 42); fill-opacity: 1;"/></g><g class="text"/></g><g class="trace scatter trace514317" style="stroke-miterlimit: 2; opacity: 1;"><g class="fills"/><g class="errorbars"/><g class="lines"><path class="js-line" d="M13,149L793,149" style="vector-effect: none; fill: none; stroke: rgb(0, 0, 0); stroke-opacity: 1; stroke-width: 2px; opacity: 1;"/></g><g class="points"/><g class="text"/></g><g class="trace scatter trace04f55a" style="stroke-miterlimit: 2; opacity: 1;"><g class="fills"/><g class="errorbars"/><g class="lines"><path class="js-line" d="M13,149L143.21,149.65L145.8,149.71L210.65,150.49L213.26,150.49L419.33,150.53L421.94,150.52L793,149" style="vector-effect: none; fill: none; stroke: rgb(100, 143, 255); stroke-opacity: 1; stroke-width: 2px; opacity: 1;"/></g><g class="points"/><g class="text"/></g><g class="trace scatter tracee3517e" style="stroke-miterlimit: 2; opacity: 1;"><g class="fills"/><g class="errorbars"/><g class="lines"/><g class="points"><path class="point" transform="translate(13,149)" d="M-3.2500000000000004,-7.51L-3.2499999999999996,7.51L6.5,-3.9801020972288977e-16Z" style="opacity: 1; stroke-width: 0px; fill: rgb(12, 51, 131); fill-opacity: 1;"/><path class="point" transform="translate(106.43,149.04)" d="M-3.180502367253462,-7.539695265187786L-3.3192204164850905,7.479664152004991L6.4997227837385525,0.06003111318279523Z" style="opacity: 1; stroke-width: 0px; fill: rgb(11, 89, 155); fill-opacity: 1;"/><path class="point" transform="translate(199.14,150.45)" d="M-3.212587533458966,-7.526080077959843L-3.28733198355397,7.493733944430048L6.499919517012936,0.03234613352979518Z" style="opacity: 1; stroke-width: 0px; fill: rgb(10, 127, 180); fill-opacity: 1;"/><path class="point" transform="translate(292.47,150.54)" d="M-3.250753064346117,-7.509674061811493L-3.2492469029735482,7.5103258626717935L6.499999967319665,-0.0006518008602994182Z" style="opacity: 1; stroke-width: 0px; fill: rgb(87, 161, 143); fill-opacity: 1;"/><path class="point" transform="translate(385.83,150.55)" d="M-3.249550259149831,-7.510194612209411L-3.250449729195045,7.509805360858286L6.499999988344876,0.000389251351124536Z" style="opacity: 1; stroke-width: 0px; fill: rgb(190, 194, 85); fill-opacity: 1;"/><path class="point" transform="translate(479.31,150.15)" d="M-3.315386916523194,-7.481364153264218L-3.184365777564928,7.538064379844027L6.499752694088122,-0.05670022657980875Z" style="opacity: 1; stroke-width: 0px; fill: rgb(242, 196, 56); fill-opacity: 1;"/><path class="point" transform="translate(572.9,149.41)" d="M-3.304992457634569,-7.485961852359295L-3.194832720755297,7.533634175243134L6.499825178389866,-0.04767232288383911Z" style="opacity: 1; stroke-width: 0px; fill: rgb(242, 166, 56); fill-opacity: 1;"/><path class="point" transform="translate(666.5,149)" d="M-3.250226207884152,-7.5099021030625295L-3.2497737891671887,7.510097890123799L6.499999997051341,-0.000195787061269095Z" style="opacity: 1; stroke-width: 0px; fill: rgb(239, 130, 53); fill-opacity: 1;"/><path class="point" transform="translate(759.93,149)" d="M-3.249991658223957,-7.510003609950843L-3.2500083417720336,7.509996390039891L6.499999999995991,0.000007219910951805816Z" style="opacity: 1; stroke-width: 0px; fill: rgb(228, 80, 42); fill-opacity: 1;"/></g><g class="text"/></g><g class="trace scatter tracef80509" style="stroke-miterlimit: 2; opacity: 1;"><g class="fills"/><g class="errorbars"/><g class="lines"><path class="js-line" d="M13,168.5L793,168.5" style="vector-effect: none; fill: none; stroke: rgb(0, 0, 0); stroke-opacity: 1; stroke-width: 2px; opacity: 1;"/></g><g class="points"/><g class="text"/></g><g class="trace scatter traceb86cb1" style="stroke-miterlimit: 2; opacity: 1;"><g class="fills"/><g class="errorbars"/><g class="lines"><path class="js-line" d="M13,168.5L793,168.5" style="vector-effect: none; fill: none; stroke: rgb(100, 143, 255); stroke-opacity: 1; stroke-width: 2px; opacity: 1;"/></g><g class="points"/><g class="text"/></g><g class="trace scatter traceb9f08d" style="stroke-miterlimit: 2; opacity: 1;"><g class="fills"/><g class="errorbars"/><g class="lines"/><g class="points"><path class="point" transform="translate(13,168.5)" d="M-3.2500000000000004,-7.51L-3.2499999999999996,7.51L6.5,-3.9801020972288977e-16Z" style="opacity: 1; stroke-width: 0px; fill: rgb(12, 51, 131); fill-opacity: 1;"/><path class="point" transform="translate(106.6,168.5)" d="M-3.2500000000000004,-7.51L-3.2499999999999996,7.51L6.5,-3.9801020972288977e-16Z" style="opacity: 1; stroke-width: 0px; fill: rgb(11, 89, 155); fill-opacity: 1;"/><path class="point" transform="translate(200.2,168.5)" d="M-3.2500000000000004,-7.51L-3.2499999999999996,7.51L6.5,-3.9801020972288977e-16Z" style="opacity: 1; stroke-width: 0px; fill: rgb(10, 127, 180); fill-opacity: 1;"/><path class="point" transform="translate(293.8,168.5)" d="M-3.2500000000000004,-7.51L-3.2499999999999996,7.51L6.5,-3.9801020972288977e-16Z" style="opacity: 1; stroke-width: 0px; fill: rgb(87, 161, 143); fill-opacity: 1;"/><path class="point" transform="translate(387.4,168.5)" d="M-3.2500000000000004,-7.51L-3.2499999999999996,7.51L6.5,-3.9801020972288977e-16Z" style="opacity: 1; stroke-width: 0px; fill: rgb(190, 194, 85); fill-opacity: 1;"/><path class="point" transform="translate(481,168.5)" d="M-3.2500000000007008,-7.509999999999697L-3.2499999999992992,7.510000000000303L6.5,-6.065797816550584e-13Z" style="opacity: 1; stroke-width: 0px; fill: rgb(242, 196, 56); fill-opacity: 1;"/><path class="point" transform="translate(574.6,168.5)" d="M-3.249999999999442,-7.510000000000241L-3.250000000000558,7.509999999999758L6.5,4.831041170145328e-13Z" style="opacity: 1; stroke-width: 0px; fill: rgb(242, 166, 56); fill-opacity: 1;"/><path class="point" transform="translate(668.2,168.5)" d="M-3.2500000000000004,-7.51L-3.2499999999999996,7.51L6.5,-3.9801020972288977e-16Z" style="opacity: 1; stroke-width: 0px; fill: rgb(239, 130, 53); fill-opacity: 1;"/><path class="point" transform="translate(761.8,168.5)" d="M-3.2500000000000004,-7.51L-3.2499999999999996,7.51L6.5,-3.9801020972288977e-16Z" style="opacity: 1; stroke-width: 0px; fill: rgb(228, 80, 42); fill-opacity: 1;"/></g><g class="text"/></g><g class="trace scatter trace6b36b2" style="stroke-miterlimit: 2; opacity: 1;"><g class="fills"/><g class="errorbars"/><g class="lines"><path class="js-line" d="M13,188L793,188" style="vector-effect: none; fill: none; stroke: rgb(0, 0, 0); stroke-opacity: 1; stroke-width: 2px; opacity: 1;"/></g><g class="points"/><g class="text"/></g><g class="trace scatter trace14aa94" style="stroke-miterlimit: 2; opacity: 1;"><g class="fills"/><g class="errorbars"/><g class="lines"><path class="js-line" d="M13,188L793,188" style="vector-effect: none; fill: none; stroke: rgb(100, 143, 255); stroke-opacity: 1; stroke-width: 2px; opacity: 1;"/></g><g class="points"/><g class="text"/></g><g class="trace scatter tracebf1bbe" style="stroke-miterlimit: 2; opacity: 1;"><g class="fills"/><g class="errorbars"/><g class="lines"/><g class="points"><path class="point" transform="translate(13,188)" d="M-3.2500000000000004,-7.51L-3.2499999999999996,7.51L6.5,-3.9801020972288977e-16Z" style="opacity: 1; stroke-width: 0px; fill: rgb(12, 51, 131); fill-opacity: 1;"/><path class="point" transform="translate(106.6,188)" d="M-3.2500000000000004,-7.51L-3.2499999999999996,7.51L6.5,-3.9801020972288977e-16Z" style="opacity: 1; stroke-width: 0px; fill: rgb(11, 89, 155); fill-opacity: 1;"/><path class="point" transform="translate(200.2,188)" d="M-3.2500000000000004,-7.51L-3.2499999999999996,7.51L6.5,-3.9801020972288977e-16Z" style="opacity: 1; stroke-width: 0px; fill: rgb(10, 127, 180); fill-opacity: 1;"/><path class="point" transform="translate(293.8,188)" d="M-3.2500000000000004,-7.51L-3.2499999999999996,7.51L6.5,-3.9801020972288977e-16Z" style="opacity: 1; stroke-width: 0px; fill: rgb(87, 161, 143); fill-opacity: 1;"/><path class="point" transform="translate(387.4,188)" d="M-3.2500000000000004,-7.51L-3.2499999999999996,7.51L6.5,-3.9801020972288977e-16Z" style="opacity: 1; stroke-width: 0px; fill: rgb(190, 194, 85); fill-opacity: 1;"/><path class="point" transform="translate(481,188)" d="M-3.2500000000009694,-7.509999999999581L-3.2499999999990306,7.510000000000419L6.5,-8.389494607091038e-13Z" style="opacity: 1; stroke-width: 0px; fill: rgb(242, 196, 56); fill-opacity: 1;"/><path class="point" transform="translate(574.6,188)" d="M-3.2499999999992566,-7.510000000000321L-3.2500000000007434,7.509999999999678L6.5,6.433092994679428e-13Z" style="opacity: 1; stroke-width: 0px; fill: rgb(242, 166, 56); fill-opacity: 1;"/><path class="point" transform="translate(668.2,188)" d="M-3.2500000000000004,-7.51L-3.2499999999999996,7.51L6.5,-3.9801020972288977e-16Z" style="opacity: 1; stroke-width: 0px; fill: rgb(239, 130, 53); fill-opacity: 1;"/><path class="point" transform="translate(761.8,188)" d="M-3.2500000000000004,-7.51L-3.2499999999999996,7.51L6.5,-3.9801020972288977e-16Z" style="opacity: 1; stroke-width: 0px; fill: rgb(228, 80, 42); fill-opacity: 1;"/></g><g class="text"/></g><g class="trace scatter trace474f19" style="stroke-miterlimit: 2; opacity: 1;"><g class="fills"/><g class="errorbars"/><g class="lines"><path class="js-line" d="M453.79,424.06L352.21,-152.06" style="vector-effect: none; fill: none; stroke: rgb(220, 38, 127); stroke-opacity: 1; stroke-width: 2px; opacity: 1;"/></g><g class="points"/><g class="text"/></g><g class="trace scatter trace4bfda2" style="stroke-miterlimit: 2; opacity: 1;"><g class="fills"/><g class="errorbars"/><g class="lines"/><g class="points"><path class="point" transform="translate(453.79,424.06)" d="M-6.831549647704159,4.504723011568323L7.960262802539206,1.8965273830110294L-1.128713154835047,-6.401250394579352Z" style="opacity: 1; stroke-width: 0px; fill: rgb(12, 51, 131); fill-opacity: 1;"/><path class="point" transform="translate(441.6,354.92)" d="M-6.831549647704159,4.504723011568323L7.960262802539206,1.8965273830110294L-1.128713154835047,-6.401250394579352Z" style="opacity: 1; stroke-width: 0px; fill: rgb(11, 89, 155); fill-opacity: 1;"/><path class="point" transform="translate(429.41,285.79)" d="M-6.831549647704159,4.504723011568323L7.960262802539206,1.8965273830110294L-1.128713154835047,-6.401250394579352Z" style="opacity: 1; stroke-width: 0px; fill: rgb(10, 127, 180); fill-opacity: 1;"/><path class="point" transform="translate(417.22,216.66)" d="M-6.831549647704159,4.504723011568323L7.960262802539206,1.8965273830110294L-1.128713154835047,-6.401250394579352Z" style="opacity: 1; stroke-width: 0px; fill: rgb(87, 161, 143); fill-opacity: 1;"/><path class="point" transform="translate(405.03,147.52)" d="M-6.831549647704159,4.504723011568323L7.960262802539206,1.8965273830110294L-1.128713154835047,-6.401250394579352Z" style="opacity: 1; stroke-width: 0px; fill: rgb(190, 194, 85); fill-opacity: 1;"/><path class="point" transform="translate(392.84,78.39)" d="M-6.831549647704159,4.504723011568323L7.960262802539206,1.8965273830110294L-1.128713154835047,-6.401250394579352Z" style="opacity: 1; stroke-width: 0px; fill: rgb(242, 196, 56); fill-opacity: 1;"/><path class="point" transform="translate(380.65,9.26)" d="M-6.831549647704159,4.504723011568323L7.960262802539206,1.8965273830110294L-1.128713154835047,-6.401250394579352Z" style="opacity: 1; stroke-width: 0px; fill: rgb(242, 166, 56); fill-opacity: 1;"/><path class="point" transform="translate(368.46,-59.88)" d="M-6.831549647704159,4.504723011568323L7.960262802539206,1.8965273830110294L-1.128713154835047,-6.401250394579352Z" style="opacity: 1; stroke-width: 0px; fill: rgb(239, 130, 53); fill-opacity: 1;"/><path class="point" transform="translate(356.27,-129.01)" d="M-6.831549647704159,4.504723011568323L7.960262802539206,1.8965273830110294L-1.128713154835047,-6.401250394579352Z" style="opacity: 1; stroke-width: 0px; fill: rgb(228, 80, 42); fill-opacity: 1;"/></g><g class="text"/></g></g></g></g><path class="xlines-above crisp" d="M0,0" style="fill: none;"/><path class="ylines-above crisp" d="M0,0" style="fill: none;"/><g class="overlines-above"/><g class="xaxislayer-above"><g class="xtick"><text text-anchor="middle" x="0" y="345" transform="translate(127,0)" style="font-family: 'Open Sans', verdana, arial, sans-serif; font-size: 24px; fill: rgb(0, 0, 0); fill-opacity: 1; white-space: pre; opacity: 1;">−1500</text></g><g class="xtick"><text text-anchor="middle" x="0" y="345" style="font-family: 'Open Sans', verdana, arial, sans-serif; font-size: 24px; fill: rgb(0, 0, 0); fill-opacity: 1; white-space: pre; opacity: 1;" transform="translate(257,0)">−1000</text></g><g class="xtick"><text text-anchor="middle" x="0" y="345" style="font-family: 'Open Sans', verdana, arial, sans-serif; font-size: 24px; fill: rgb(0, 0, 0); fill-opacity: 1; white-space: pre; opacity: 1;" transform="translate(387,0)">−500</text></g><g class="xtick"><text text-anchor="middle" x="0" y="345" style="font-family: 'Open Sans', verdana, arial, sans-serif; font-size: 24px; fill: rgb(0, 0, 0); fill-opacity: 1; white-space: pre; opacity: 1;" transform="translate(517,0)">0</text></g><g class="xtick"><text text-anchor="middle" x="0" y="345" style="font-family: 'Open Sans', verdana, arial, sans-serif; font-size: 24px; fill: rgb(0, 0, 0); fill-opacity: 1; white-space: pre; opacity: 1;" transform="translate(647,0)">500</text></g><g class="xtick"><text text-anchor="middle" x="0" y="345" style="font-family: 'Open Sans', verdana, arial, sans-serif; font-size: 24px; fill: rgb(0, 0, 0); fill-opacity: 1; white-space: pre; opacity: 1;" transform="translate(777,0)">1000</text></g><g class="xtick"><text text-anchor="middle" x="0" y="345" style="font-family: 'Open Sans', verdana, arial, sans-serif; font-size: 24px; fill: rgb(0, 0, 0); fill-opacity: 1; white-space: pre; opacity: 1;" transform="translate(907,0)">1500</text></g></g><g class="yaxislayer-above"><g class="ytick"><text text-anchor="end" x="113" y="8.399999999999999" transform="translate(0,288)" style="font-family: 'Open Sans', verdana, arial, sans-serif; font-size: 24px; fill: rgb(0, 0, 0); fill-opacity: 1; white-space: pre; opacity: 1;">−200</text></g><g class="ytick"><text text-anchor="end" x="113" y="8.399999999999999" style="font-family: 'Open Sans', verdana, arial, sans-serif; font-size: 24px; fill: rgb(0, 0, 0); fill-opacity: 1; white-space: pre; opacity: 1;" transform="translate(0,236)">0</text></g><g class="ytick"><text text-anchor="end" x="113" y="8.399999999999999" style="font-family: 'Open Sans', verdana, arial, sans-serif; font-size: 24px; fill: rgb(0, 0, 0); fill-opacity: 1; white-space: pre; opacity: 1;" transform="translate(0,184)">200</text></g><g class="ytick"><text text-anchor="end" x="113" y="8.399999999999999" style="font-family: 'Open Sans', verdana, arial, sans-serif; font-size: 24px; fill: rgb(0, 0, 0); fill-opacity: 1; white-space: pre; opacity: 1;" transform="translate(0,132)">400</text></g></g><g class="overaxes-above"/></g></g><g class="polarlayer"/><g class="smithlayer"/><g class="ternarylayer"/><g class="geolayer"/><g class="funnelarealayer"/><g class="pielayer"/><g class="iciclelayer"/><g class="treemaplayer"/><g class="sunburstlayer"/><g class="glimages"/><defs id="topdefs-f2d5a4"><g class="clips"/><clipPath id="legendf2d5a4"><rect width="385" height="45" x="2" y="2"/></clipPath></defs><g class="layer-above"><g class="imagelayer"/><g class="shapelayer"/></g><g class="infolayer"><g class="legend" pointer-events="all" transform="translate(522.9399999999999,46.599999999999994)"><rect class="bg" shape-rendering="crispEdges" style="stroke: rgb(0, 0, 0); stroke-opacity: 1; fill: rgb(255, 255, 255); fill-opacity: 1; stroke-width: 2px;" width="387" height="47" x="1" y="1"/><g class="scrollbox" transform="" clip-path="url(#legendf2d5a4)"><g class="groups"><g class="traces" transform="translate(2,24.1)" style="opacity: 1;"><text class="legendtext" text-anchor="start" x="40" y="9.360000000000001" style="font-family: 'Open Sans', verdana, arial, sans-serif; font-size: 24px; fill: rgb(0, 0, 0); fill-opacity: 1; white-space: pre;">OS Ref</text><g class="layers" style="opacity: 1;"><g class="legendfill"/><g class="legendlines"><path class="js-line" d="M5,0h30" style="fill: none; stroke: rgb(0, 0, 0); stroke-opacity: 1; stroke-width: 2px;"/></g><g class="legendsymbols"><g class="legendpoints"/></g></g><rect class="legendtoggle" x="0" y="-17.1" width="126.640625" height="34.2" style="fill: rgb(0, 0, 0); fill-opacity: 0;"/></g><g class="traces" transform="translate(131.140625,24.1)" style="opacity: 1;"><text class="legendtext" text-anchor="start" x="40" y="9.360000000000001" style="font-family: 'Open Sans', verdana, arial, sans-serif; font-size: 24px; fill: rgb(0, 0, 0); fill-opacity: 1; white-space: pre;">OS Pos</text><g class="layers" style="opacity: 1;"><g class="legendfill"/><g class="legendlines"><path class="js-line" d="M5,0h30" style="fill: none; stroke: rgb(100, 143, 255); stroke-opacity: 1; stroke-width: 2px;"/></g><g class="legendsymbols"><g class="legendpoints"/></g></g><rect class="legendtoggle" x="0" y="-17.1" width="127.203125" height="34.2" style="fill: rgb(0, 0, 0); fill-opacity: 0;"/></g><g class="traces" transform="translate(260.84375,24.1)" style="opacity: 1;"><text class="legendtext" text-anchor="start" x="40" y="9.360000000000001" style="font-family: 'Open Sans', verdana, arial, sans-serif; font-size: 24px; fill: rgb(0, 0, 0); fill-opacity: 1; white-space: pre;">TS Pos</text><g class="layers" style="opacity: 1;"><g class="legendfill"/><g class="legendlines"><path class="js-line" d="M5,0h30" style="fill: none; stroke: rgb(220, 38, 127); stroke-opacity: 1; stroke-width: 2px;"/></g><g class="legendsymbols"><g class="legendpoints"/></g></g><rect class="legendtoggle" x="0" y="-17.1" width="122.953125" height="34.2" style="fill: rgb(0, 0, 0); fill-opacity: 0;"/></g></g></g><rect class="scrollbar" rx="20" ry="3" width="0" height="0" style="fill: rgb(128, 139, 164); fill-opacity: 1;" x="0" y="0"/></g><g class="g-gtitle"/><g class="g-xtitle"><text class="xtitle" x="517" y="384.8" text-anchor="middle" style="opacity: 1; font-family: 'Open Sans', verdana, arial, sans-serif; font-size: 29px; fill: rgb(0, 0, 0); fill-opacity: 1; white-space: pre;">East [m]</text></g><g class="g-ytitle" transform="translate(6.072265625,0)"><text class="ytitle" transform="rotate(-90,22.928124999999994,210)" x="22.928124999999994" y="210" text-anchor="middle" style="opacity: 1; font-family: 'Open Sans', verdana, arial, sans-serif; font-size: 29px; fill: rgb(0, 0, 0); fill-opacity: 1; white-space: pre;">North [m]</text></g></g></svg>