<svg class="main-svg" xmlns="http://www.w3.org/2000/svg" xmlns:xlink="http://www.w3.org/1999/xlink" width="1200" height="450" style="" viewBox="0 0 1200 450"><rect x="0" y="0" width="1200" height="450" style="fill: rgb(255, 255, 255); fill-opacity: 1;"/><defs id="defs-275493"><g class="clips"><clipPath id="clip275493xyplot" class="plotclip"><rect width="846" height="366"/></clipPath><clipPath class="axesclip" id="clip275493x"><rect x="121" y="0" width="846" height="450"/></clipPath><clipPath class="axesclip" id="clip275493y"><rect x="0" y="5" width="1200" height="366"/></clipPath><clipPath class="axesclip" id="clip275493xy"><rect x="121" y="5" width="846" height="366"/></clipPath></g><g class="gradients"/><g class="patterns"/></defs><g class="bglayer"/><g class="layer-below"><g class="imagelayer"/><g class="shapelayer"/></g><g class="cartesianlayer"><g class="subplot xy"><g class="layer-subplot"><g class="shapelayer"/><g class="imagelayer"/></g><g class="minor-gridlayer"><g class="x"/><g class="y"/></g><g class="gridlayer"><g class="x"><path class="xgrid crisp" transform="translate(169.68,0)" d="M0,5v366" style="stroke: rgb(200, 200, 200); stroke-opacity: 1; stroke-width: 1px;"/><path class="xgrid crisp" transform="translate(294.45,0)" d="M0,5v366" style="stroke: rgb(200, 200, 200); stroke-opacity: 1; stroke-width: 1px;"/><path class="xgrid crisp" transform="translate(419.23,0)" d="M0,5v366" style="stroke: rgb(200, 200, 200); stroke-opacity: 1; stroke-width: 1px;"/><path class="xgrid crisp" transform="translate(668.77,0)" d="M0,5v366" style="stroke: rgb(200, 200, 200); stroke-opacity: 1; stroke-width: 1px;"/><path class="xgrid crisp" transform="translate(793.55,0)" d="M0,5v366" style="stroke: rgb(200, 200, 200); stroke-opacity: 1; stroke-width: 1px;"/><path class="xgrid crisp" transform="translate(918.32,0)" d="M0,5v366" style="stroke: rgb(200, 200, 200); stroke-opacity: 1; stroke-width: 1px;"/></g><g class="y"><path class="ygrid crisp" transform="translate(0,337.73)" d="M121,0h846" style="stroke: rgb(200, 200, 200); stroke-opacity: 1; stroke-width: 1px;"/><path class="ygrid crisp" transform="translate(0,287.82)" d="M121,0h846" style="stroke: rgb(200, 200, 200); stroke-opacity: 1; stroke-width: 1px;"/><path class="ygrid crisp" transform="translate(0,237.91)" d="M121,0h846" style="stroke: rgb(200, 200, 200); stroke-opacity: 1; stroke-width: 1px;"/><path class="ygrid crisp" transform="translate(0,138.09)" d="M121,0h846" style="stroke: rgb(200, 200, 200); stroke-opacity: 1; stroke-width: 1px;"/><path class="ygrid crisp" transform="translate(0,88.18)" d="M121,0h846" style="stroke: rgb(200, 200, 200); stroke-opacity: 1; stroke-width: 1px;"/><path class="ygrid crisp" transform="translate(0,38.27)" d="M121,0h846" style="stroke: rgb(200, 200, 200); stroke-opacity: 1; stroke-width: 1px;"/></g></g><g class="zerolinelayer"><path class="xzl zl crisp" transform="translate(544,0)" d="M0,5v366" style="stroke: rgb(200, 200, 200); stroke-opacity: 1; stroke-width: 2px;"/><path class="yzl zl crisp" transform="translate(0,188)" d="M121,0h846" style="stroke: rgb(200, 200, 200); stroke-opacity: 1; stroke-width: 2px;"/></g><g class="layer-between"><g class="shapelayer"/><g class="imagelayer"/></g><path class="xlines-below"/><path class="ylines-below"/><g class="overlines-below"/><g class="xaxislayer-below"/><g class="yaxislayer-below"/><g class="overaxes-below"/><g class="overplot"><g class="xy" transform="translate(121,5)" clip-path="url(#clip275493xyplot)"><g class="scatterlayer mlayer"><g class="trace scatter tracedabd1e" style="stroke-miterlimit: 2; opacity: 1;"><g class="fills"/><g class="errorbars"/><g class="lines"><path class="js-line" d="M48.68,58.23L797.32,58.23" style="vector-effect: none; fill: none; stroke: rgb(0, 0, 0); stroke-opacity: 1; stroke-width: 2px; opacity: 1;"/></g><g class="points"/><g class="text"/></g><g class="trace scatter traced92789" style="stroke-miterlimit: 2; opacity: 1;"><g class="fills"/><g class="errorbars"/><g class="lines"><path class="js-line" d="M48.68,58.23L804.32,58.23" style="vector-effect: none; fill: none; stroke: rgb(100, 143, 255); stroke-opacity: 1; stroke-width: 2px; opacity: 1;"/></g><g class="points"/><g class="text"/></g><g class="trace scatter trace17eb49" style="stroke-miterlimit: 2; opacity: 1;"><g class="fills"/><g class="errorbars"/><g class="lines"/><g class="points"><path class="point" transform="translate(48.68,58.23)" d="M0,0Z" style="opacity: 1; stroke-width: 0px; fill: rgb(12, 51, 131); fill-opacity: 1;"/><path class="point" transform="translate(123.55,58.23)" d="M-3.0000000000000004,-6.93L-2.9999999999999996,6.93L6,-3.6739403974420594e-16Z" style="opacity: 1; stroke-width: 0px; fill: rgb(11, 86, 154); fill-opacity: 1;"/><path class="point" transform="translate(198.41,58.23)" d="M-3.0000000000000004,-6.93L-2.9999999999999996,6.93L6,-3.6739403974420594e-16Z" style="opacity: 1; stroke-width: 0px; fill: rgb(10, 120, 175); fill-opacity: 1;"/><path class="point" transform="translate(273.27,58.23)" d="M-3.0000000000000004,-6.93L-2.9999999999999996,6.93L6,-3.6739403974420594e-16Z" style="opacity: 1; stroke-width: 0px; fill: rgb(57, 151, 160); fill-opacity: 1;"/><path class="point" transform="translate(348.14,58.23)" d="M-3.0000000000000004,-6.93L-2.9999999999999996,6.93L6,-3.6739403974420594e-16Z" style="opacity: 1; stroke-width: 0px; fill: rgb(148, 181, 109); fill-opacity: 1;"/><path class="point" transform="translate(423,58.23)" d="M-3.0000000000000004,-6.93L-2.9999999999999996,6.93L6,-3.6739403974420594e-16Z" style="opacity: 1; stroke-width: 0px; fill: rgb(240, 210, 57); fill-opacity: 1;"/><path class="point" transform="translate(497.86,58.23)" d="M-3.0000000000000004,-6.93L-2.9999999999999996,6.93L6,-3.6739403974420594e-16Z" style="opacity: 1; stroke-width: 0px; fill: rgb(242, 185, 56); fill-opacity: 1;"/><path class="point" transform="translate(572.73,58.23)" d="M-3.0000000000000004,-6.93L-2.9999999999999996,6.93L6,-3.6739403974420594e-16Z" style="opacity: 1; stroke-width: 0px; fill: rgb(242, 158, 56); fill-opacity: 1;"/><path class="point" transform="translate(647.59,58.23)" d="M-3.0000000000000004,-6.93L-2.9999999999999996,6.93L6,-3.6739403974420594e-16Z" style="opacity: 1; stroke-width: 0px; fill: rgb(238, 124, 52); fill-opacity: 1;"/><path class="point" transform="translate(722.45,58.23)" d="M-3.0000000000000004,-6.93L-2.9999999999999996,6.93L6,-3.6739403974420594e-16Z" style="opacity: 1; stroke-width: 0px; fill: rgb(228, 79, 41); fill-opacity: 1;"/><path class="point" transform="translate(797.32,58.23)" d="M-3.0000000000000004,-6.93L-2.9999999999999996,6.93L6,-3.6739403974420594e-16Z" style="opacity: 1; stroke-width: 0px; fill: rgb(218, 35, 31); fill-opacity: 1;"/></g><g class="text"/></g><g class="trace scatter trace71bed6" style="stroke-miterlimit: 2; opacity: 1;"><g class="fills"/><g class="errorbars"/><g class="lines"><path class="js-line" d="M48.68,89.42L797.32,89.42" style="vector-effect: none; fill: none; stroke: rgb(0, 0, 0); stroke-opacity: 1; stroke-width: 2px; opacity: 1;"/></g><g class="points"/><g class="text"/></g><g class="trace scatter trace5d5343" style="stroke-miterlimit: 2; opacity: 1;"><g class="fills"/><g class="errorbars"/><g class="lines"><path class="js-line" d="M48.68,89.42L804.32,89.42" style="vector-effect: none; fill: none; stroke: rgb(100, 143, 255); stroke-opacity: 1; stroke-width: 2px; opacity: 1;"/></g><g class="points"/><g class="text"/></g><g class="trace scatter tracea2ce98" style="stroke-miterlimit: 2; opacity: 1;"><g class="fills"/><g class="errorbars"/><g class="lines"/><g class="points"><path class="point" transform="translate(48.68,89.42)" d="M0,0Z" style="opacity: 1; stroke-width: 0px; fill: rgb(12, 51, 131); fill-opacity: 1;"/><path class="point" transform="translate(123.55,89.42)" d="M-3.0000000000000004,-6.93L-2.9999999999999996,6.93L6,-3.6739403974420594e-16Z" style="opacity: 1; stroke-width: 0px; fill: rgb(11, 86, 154); fill-opacity: 1;"/><path class="point" transform="translate(198.41,89.42)" d="M-3.0000000000000004,-6.93L-2.9999999999999996,6.93L6,-3.6739403974420594e-16Z" style="opacity: 1; stroke-width: 0px; fill: rgb(10, 120, 175); fill-opacity: 1;"/><path class="point" transform="translate(273.27,89.42)" d="M-3.0000000000000004,-6.93L-2.9999999999999996,6.93L6,-3.6739403974420594e-16Z" style="opacity: 1; stroke-width: 0px; fill: rgb(57, 151, 160); fill-opacity: 1;"/><path class="point" transform="translate(348.14,89.42)" d="M-3.0000000000000004,-6.93L-2.9999999999999996,6.93L6,-3.6739403974420594e-16Z" style="opacity: 1; stroke-width: 0px; fill: rgb(148, 181, 109); fill-opacity: 1;"/><path class="point" transform="translate(423,89.42)" d="M-3.0000000000000004,-6.93L-2.9999999999999996,6.93L6,-3.6739403974420594e-16Z" style="opacity: 1; stroke-width: 0px; fill: rgb(240, 210, 57); fill-opacity: 1;"/><path class="point" transform="translate(497.86,89.42)" d="M-3.0000000000000004,-6.93L-2.9999999999999996,6.93L6,-3.6739403974420594e-16Z" style="opacity: 1; stroke-width: 0px; fill: rgb(242, 185, 56); fill-opacity: 1;"/><path class="point" transform="translate(572.73,89.42)" d="M-3.0000000000000004,-6.93L-2.9999999999999996,6.93L6,-3.6739403974420594e-16Z" style="opacity: 1; stroke-width: 0px; fill: rgb(242, 158, 56); fill-opacity: 1;"/><path class="point" transform="translate(647.59,89.42)" d="M-3.0000000000000004,-6.93L-2.9999999999999996,6.93L6,-3.6739403974420594e-16Z" style="opacity: 1; stroke-width: 0px; fill: rgb(238, 124, 52); fill-opacity: 1;"/><path class="point" transform="translate(722.45,89.42)" d="M-3.0000000000000004,-6.93L-2.9999999999999996,6.93L6,-3.6739403974420594e-16Z" style="opacity: 1; stroke-width: 0px; fill: rgb(228, 79, 41); fill-opacity: 1;"/><path class="point" transform="translate(797.32,89.42)" d="M-3.0000000000000004,-6.93L-2.9999999999999996,6.93L6,-3.6739403974420594e-16Z" style="opacity: 1; stroke-width: 0px; fill: rgb(218, 35, 31); fill-opacity: 1;"/></g><g class="text"/></g><g class="trace scatter trace21ba04" style="stroke-miterlimit: 2; opacity: 1;"><g class="fills"/><g class="errorbars"/><g class="lines"><path class="js-line" d="M48.68,120.61L797.32,120.61" style="vector-effect: none; fill: none; stroke: rgb(0, 0, 0); stroke-opacity: 1; stroke-width: 2px; opacity: 1;"/></g><g class="points"/><g class="text"/></g><g class="trace scatter trace0a64a0" style="stroke-miterlimit: 2; opacity: 1;"><g class="fills"/><g class="errorbars"/><g class="lines"><path class="js-line" d="M48.68,120.61L321.67,121.36L324.65,121.38L459.79,121.57L462.81,121.56L716.14,120.62L719.15,120.62L797.32,120.61" style="vector-effect: none; fill: none; stroke: rgb(100, 143, 255); stroke-opacity: 1; stroke-width: 2px; opacity: 1;"/></g><g class="points"/><g class="text"/></g><g class="trace scatter trace578466" style="stroke-miterlimit: 2; opacity: 1;"><g class="fills"/><g class="errorbars"/><g class="lines"/><g class="points"><path class="point" transform="translate(48.68,120.61)" d="M0,0Z" style="opacity: 1; stroke-width: 0px; fill: rgb(12, 51, 131); fill-opacity: 1;"/><path class="point" transform="translate(112.32,120.62)" d="M-3.0000000000000004,-6.93L-2.9999999999999996,6.93L6,-3.6739403974420594e-16Z" style="opacity: 1; stroke-width: 0px; fill: rgb(11, 78, 149); fill-opacity: 1;"/><path class="point" transform="translate(165.27,120.63)" d="M-2.99782266072526,-6.930942165019277L-3.002177043168237,6.929057150974699L5.999999703893497,0.001885014044578857Z" style="opacity: 1; stroke-width: 0px; fill: rgb(11, 104, 166); fill-opacity: 1;"/><path class="point" transform="translate(220.34,120.71)" d="M-2.9895298933533065,-6.934523128286975L-3.010463263224468,6.925461063407684L5.999993156577775,0.009062064879290819Z" style="opacity: 1; stroke-width: 0px; fill: rgb(10, 131, 182); fill-opacity: 1;"/><path class="point" transform="translate(277.13,120.99)" d="M-2.965450261486128,-6.944854551871613L-3.034475331957647,6.914973568983509L5.999925593443775,0.029880982888103355Z" style="opacity: 1; stroke-width: 0px; fill: rgb(66, 154, 155); fill-opacity: 1;"/><path class="point" transform="translate(333.94,121.45)" d="M-2.9440992739814873,-6.953932661806675L-3.0557061971300503,6.905617976460977L5.999805471111538,0.04831468534569813Z" style="opacity: 1; stroke-width: 0px; fill: rgb(137, 177, 115); fill-opacity: 1;"/><path class="point" transform="translate(390.91,121.72)" d="M-2.9665704034219194,-6.944376144877315L-3.033359931670177,6.915462929185428L5.999930335092096,0.028913215691886558Z" style="opacity: 1; stroke-width: 0px; fill: rgb(208, 200, 75); fill-opacity: 1;"/><path class="point" transform="translate(448.18,121.63)" d="M-3.012073856385238,-6.9247607239297855L-2.9879170303315257,6.935218224385937L5.9999908867167635,-0.010457500456152636Z" style="opacity: 1; stroke-width: 0px; fill: rgb(242, 200, 56); fill-opacity: 1;"/><path class="point" transform="translate(505.65,121.29)" d="M-3.0410651378221925,-6.912078039744812L-2.9588292481984544,6.947677991962881L5.999894386020647,-0.035599952218068505Z" style="opacity: 1; stroke-width: 0px; fill: rgb(242, 179, 56); fill-opacity: 1;"/><path class="point" transform="translate(563.17,120.9)" d="M-3.0470383636552913,-6.909446954019756L-2.952823010830884,6.950232821043309L5.9998613744861755,-0.04078586702355291Z" style="opacity: 1; stroke-width: 0px; fill: rgb(242, 158, 56); fill-opacity: 1;"/><path class="point" transform="translate(620.54,120.67)" d="M-3.0271059911399467,-6.918202752045117L-2.9728480336905223,6.9416910453132665L5.999954024830469,-0.023488293268149274Z" style="opacity: 1; stroke-width: 0px; fill: rgb(240, 134, 54); fill-opacity: 1;"/><path class="point" transform="translate(677.78,120.62)" d="M-3.006041583563547,-6.927381467617238L-2.993956135462153,6.932613263332128L5.9999977190257,-0.0052317957148890395Z" style="opacity: 1; stroke-width: 0px; fill: rgb(232, 99, 46); fill-opacity: 1;"/><path class="point" transform="translate(734.97,120.61)" d="M-3.001007821666177,-6.9295636265423255L-2.99899211488121,6.930436226882138L5.999999936547387,-0.000872600339812377Z" style="opacity: 1; stroke-width: 0px; fill: rgb(225, 65, 38); fill-opacity: 1;"/><path class="point" transform="translate(792.16,120.61)" d="M-3.0000000000000004,-6.93L-2.9999999999999996,6.93L6,-3.6739403974420594e-16Z" style="opacity: 1; stroke-width: 0px; fill: rgb(217, 30, 30); fill-opacity: 1;"/></g><g class="text"/></g><g class="trace scatter traceb6b567" style="stroke-miterlimit: 2; opacity: 1;"><g class="fills"/><g class="errorbars"/><g class="lines"><path class="js-line" d="M48.68,151.81L797.32,151.81" style="vector-effect: none; fill: none; stroke: rgb(0, 0, 0); stroke-opacity: 1; stroke-width: 2px; opacity: 1;"/></g><g class="points"/><g class="text"/></g><g class="trace scatter trace929dad" style="stroke-miterlimit: 2; opacity: 1;"><g class="fills"/><g class="errorbars"/><g class="lines"><path class="js-line" d="M48.68,151.81L800.85,151.81" style="vector-effect: none; fill: none; stroke: rgb(100, 143, 255); stroke-opacity: 1; stroke-width: 2px; opacity: 1;"/></g><g class="points"/><g class="text"/></g><g class="trace scatter tracec06a15" style="stroke-miterlimit: 2; opacity: 1;"><g class="fills"/><g class="errorbars"/><g class="lines"/><g class="points"><path class="point" transform="translate(48.68,151.81)" d="M0,0Z" style="opacity: 1; stroke-width: 0px; fill: rgb(12, 51, 131); fill-opacity: 1;"/><path class="point" transform="translate(115.81,151.81)" d="M-3.0000000000000004,-6.93L-2.9999999999999996,6.93L6,-3.6739403974420594e-16Z" style="opacity: 1; stroke-width: 0px; fill: rgb(11, 81, 150); fill-opacity: 1;"/><path class="point" transform="translate(176.69,151.82)" d="M-2.9981059279340685,-6.930819637307452L-3.0018938479893804,6.929179845075715L5.999999775923449,0.0016397922317368512Z" style="opacity: 1; stroke-width: 0px; fill: rgb(11, 110, 169); fill-opacity: 1;"/><path class="point" transform="translate(239.39,151.9)" d="M-2.990803948239479,-6.933973733956247L-3.0091907720706206,6.9260140699600825L5.9999947203101,0.007959663996165035Z" style="opacity: 1; stroke-width: 0px; fill: rgb(16, 138, 183); fill-opacity: 1;"/><path class="point" transform="translate(302.76,152.18)" d="M-2.970863787264336,-6.942540482958771L-3.0290832788801687,6.9173372398350335L5.999947066144505,0.025203243123736938Z" style="opacity: 1; stroke-width: 0px; fill: rgb(94, 163, 139); fill-opacity: 1;"/><path class="point" transform="translate(366.12,152.48)" d="M-2.966302144609977,-6.944490736323452L-3.033627069107342,6.9153457473635545L5.999929213717319,0.02914498895989831Z" style="opacity: 1; stroke-width: 0px; fill: rgb(172, 188, 95); fill-opacity: 1;"/><path class="point" transform="translate(429.67,152.54)" d="M-2.992741814785237,-6.933137560299519L-3.0072548958339533,6.92685484123081L5.9999967106191905,0.006282719068708366Z" style="opacity: 1; stroke-width: 0px; fill: rgb(242, 209, 56); fill-opacity: 1;"/><path class="point" transform="translate(493.4,152.35)" d="M-3.021692302351203,-6.920569025008816L-2.9782782631769833,6.939362981361293L5.999970565528186,-0.018793956352476125Z" style="opacity: 1; stroke-width: 0px; fill: rgb(242, 186, 56); fill-opacity: 1;"/><path class="point" transform="translate(557.23,152.04)" d="M-3.0333819101871455,-6.915453288610183L-2.9665483329834696,6.944385573113938L5.999930243170615,-0.028932284503755797Z" style="opacity: 1; stroke-width: 0px; fill: rgb(242, 163, 56); fill-opacity: 1;"/><path class="point" transform="translate(620.96,151.85)" d="M-3.0207890524063425,-6.92096333618825L-2.97918391487675,6.9389742182356935L5.999972967283092,-0.01801088204744265Z" style="opacity: 1; stroke-width: 0px; fill: rgb(241, 138, 55); fill-opacity: 1;"/><path class="point" transform="translate(684.58,151.81)" d="M-3.003624066178615,-6.928430014734409L-2.996375113195164,6.931568089619019L5.999999179373779,-0.0031380748846108206Z" style="opacity: 1; stroke-width: 0px; fill: rgb(232, 100, 46); fill-opacity: 1;"/><path class="point" transform="translate(748.17,151.81)" d="M-3.000906449147686,-6.929607527375834L-2.999093499522905,6.930392354053229L5.999999948670591,-0.000784826677394085Z" style="opacity: 1; stroke-width: 0px; fill: rgb(224, 62, 37); fill-opacity: 1;"/></g><g class="text"/></g><g class="trace scatter trace8570af" style="stroke-miterlimit: 2; opacity: 1;"><g class="fills"/><g class="errorbars"/><g class="lines"><path class="js-line" d="M48.68,183L797.32,183" style="vector-effect: none; fill: none; stroke: rgb(0, 0, 0); stroke-opacity: 1; stroke-width: 2px; opacity: 1;"/></g><g class="points"/><g class="text"/></g><g class="trace scatter trace598441" style="stroke-miterlimit: 2; opacity: 1;"><g class="fills"/><g class="errorbars"/><g class="lines"><path class="js-line" d="M48.68,183L802.93,183" style="vector-effect: none; fill: none; stroke: rgb(100, 143, 255); stroke-opacity: 1; stroke-width: 2px; opacity: 1;"/></g><g class="points"/><g class="text"/></g><g class="trace scatter trace4fd71f" style="stroke-miterlimit: 2; opacity: 1;"><g class="fills"/><g class="errorbars"/><g class="lines"/><g class="points"><path class="point" transform="translate(48.68,183)" d="M0,0Z" style="opacity: 1; stroke-width: 0px; fill: rgb(12, 51, 131); fill-opacity: 1;"/><path class="point" transform="translate(120.96,183)" d="M-3.0000000000000004,-6.93L-2.9999999999999996,6.93L6,-3.6739403974420594e-16Z" style="opacity: 1; stroke-width: 0px; fill: rgb(11, 85, 153); fill-opacity: 1;"/><path class="point" transform="translate(191.56,183.01)" d="M-2.999183532437326,-6.930353392054171L-3.0008164259226944,6.9296465117574755L5.9999999583600205,0.0007068802966960417Z" style="opacity: 1; stroke-width: 0px; fill: rgb(10, 117, 173); fill-opacity: 1;"/><path class="point" transform="translate(262.76,183.09)" d="M-2.991901217654586,-6.933500350025015L-3.0080946871488012,6.926490190070809L5.999995904803387,0.007010159954205964Z" style="opacity: 1; stroke-width: 0px; fill: rgb(44, 147, 167); fill-opacity: 1;"/><path class="point" transform="translate(334.01,183.28)" d="M-2.9813819684080625,-6.938030092068733L-3.0185964034884782,6.921919947012276L5.999978371896541,0.01611014505645702Z" style="opacity: 1; stroke-width: 0px; fill: rgb(132, 175, 118); fill-opacity: 1;"/><path class="point" transform="translate(405.3,183.41)" d="M-2.9878659017214755,-6.93524025202661L-3.012124907736375,6.924738517821025L5.9999908094578505,0.010501734205584092Z" style="opacity: 1; stroke-width: 0px; fill: rgb(219, 204, 69); fill-opacity: 1;"/><path class="point" transform="translate(476.72,183.36)" d="M-3.0048420336060553,-6.927901872361806L-2.9951565013797654,6.932094743455439L5.999998534985821,-0.004192871093631913Z" style="opacity: 1; stroke-width: 0px; fill: rgb(242, 192, 56); fill-opacity: 1;"/><path class="point" transform="translate(548.23,183.17)" d="M-3.01852938588363,-6.921949172491589L-2.9814491417088007,6.938001226246925L5.999978527592431,-0.016052053755337237Z" style="opacity: 1; stroke-width: 0px; fill: rgb(242, 167, 56); fill-opacity: 1;"/><path class="point" transform="translate(619.7,183.03)" d="M-3.0128998039019597,-6.924401401684302L-2.987089792787707,6.935574566668827L5.999989596689667,-0.011173164984524725Z" style="opacity: 1; stroke-width: 0px; fill: rgb(241, 140, 55); fill-opacity: 1;"/><path class="point" transform="translate(691.1,183)" d="M-3.003229313848898,-6.9286011350371925L-2.996770034578309,6.9313973598296545L5.999999348427207,-0.002796224792462728Z" style="opacity: 1; stroke-width: 0px; fill: rgb(232, 97, 45); fill-opacity: 1;"/><path class="point" transform="translate(762.48,183)" d="M-3.0000000000000004,-6.93L-2.9999999999999996,6.93L6,-3.6739403974420594e-16Z" style="opacity: 1; stroke-width: 0px; fill: rgb(222, 55, 36); fill-opacity: 1;"/></g><g class="text"/></g><g class="trace scatter trace95835d" style="stroke-miterlimit: 2; opacity: 1;"><g class="fills"/><g class="errorbars"/><g class="lines"><path class="js-line" d="M48.68,214.19L797.32,214.19" style="vector-effect: none; fill: none; stroke: rgb(0, 0, 0); stroke-opacity: 1; stroke-width: 2px; opacity: 1;"/></g><g class="points"/><g class="text"/></g><g class="trace scatter traceb784b5" style="stroke-miterlimit: 2; opacity: 1;"><g class="fills"/><g class="errorbars"/><g class="lines"><path class="js-line" d="M48.68,214.19L804.32,214.19" style="vector-effect: none; fill: none; stroke: rgb(100, 143, 255); stroke-opacity: 1; stroke-width: 2px; opacity: 1;"/></g><g class="points"/><g class="text"/></g><g class="trace scatter tracecf205b" style="stroke-miterlimit: 2; opacity: 1;"><g class="fills"/><g class="errorbars"/><g class="lines"/><g class="points"><path class="point" transform="translate(48.68,214.19)" d="M0,0Z" style="opacity: 1; stroke-width: 0px; fill: rgb(12, 51, 131); fill-opacity: 1;"/><path class="point" transform="translate(123.55,214.19)" d="M-3.0000000000000004,-6.93L-2.9999999999999996,6.93L6,-3.6739403974420594e-16Z" style="opacity: 1; stroke-width: 0px; fill: rgb(11, 86, 154); fill-opacity: 1;"/><path class="point" transform="translate(198.41,214.19)" d="M-3.0000000000000004,-6.93L-2.9999999999999996,6.93L6,-3.6739403974420594e-16Z" style="opacity: 1; stroke-width: 0px; fill: rgb(10, 120, 175); fill-opacity: 1;"/><path class="point" transform="translate(273.27,214.19)" d="M-3.0000000000000004,-6.93L-2.9999999999999996,6.93L6,-3.6739403974420594e-16Z" style="opacity: 1; stroke-width: 0px; fill: rgb(57, 151, 160); fill-opacity: 1;"/><path class="point" transform="translate(348.14,214.19)" d="M-3.0000000000000004,-6.93L-2.9999999999999996,6.93L6,-3.6739403974420594e-16Z" style="opacity: 1; stroke-width: 0px; fill: rgb(148, 181, 109); fill-opacity: 1;"/><path class="point" transform="translate(423,214.19)" d="M-3.0000000000000004,-6.93L-2.9999999999999996,6.93L6,-3.6739403974420594e-16Z" style="opacity: 1; stroke-width: 0px; fill: rgb(240, 210, 57); fill-opacity: 1;"/><path class="point" transform="translate(497.86,214.19)" d="M-3.0000000000000004,-6.93L-2.9999999999999996,6.93L6,-3.6739403974420594e-16Z" style="opacity: 1; stroke-width: 0px; fill: rgb(242, 185, 56); fill-opacity: 1;"/><path class="point" transform="translate(572.73,214.19)" d="M-3.0000000000000004,-6.93L-2.9999999999999996,6.93L6,-3.6739403974420594e-16Z" style="opacity: 1; stroke-width: 0px; fill: rgb(242, 158, 56); fill-opacity: 1;"/><path class="point" transform="translate(647.59,214.19)" d="M-3.0000000000000004,-6.93L-2.9999999999999996,6.93L6,-3.6739403974420594e-16Z" style="opacity: 1; stroke-width: 0px; fill: rgb(238, 124, 52); fill-opacity: 1;"/><path class="point" transform="translate(722.45,214.19)" d="M-3.0000000000000004,-6.93L-2.9999999999999996,6.93L6,-3.6739403974420594e-16Z" style="opacity: 1; stroke-width: 0px; fill: rgb(228, 79, 41); fill-opacity: 1;"/><path class="point" transform="translate(797.32,214.19)" d="M-3.0000000000000004,-6.93L-2.9999999999999996,6.93L6,-3.6739403974420594e-16Z" style="opacity: 1; stroke-width: 0px; fill: rgb(218, 35, 31); fill-opacity: 1;"/></g><g class="text"/></g><g class="trace scatter tracebc7998" style="stroke-miterlimit: 2; opacity: 1;"><g class="fills"/><g class="errorbars"/><g class="lines"><path class="js-line" d="M48.68,245.39L797.32,245.39" style="vector-effect: none; fill: none; stroke: rgb(0, 0, 0); stroke-opacity: 1; stroke-width: 2px; opacity: 1;"/></g><g class="points"/><g class="text"/></g><g class="trace scatter tracee40085" style="stroke-miterlimit: 2; opacity: 1;"><g class="fills"/><g class="errorbars"/><g class="lines"><path class="js-line" d="M48.68,245.39L804.32,245.39" style="vector-effect: none; fill: none; stroke: rgb(100, 143, 255); stroke-opacity: 1; stroke-width: 2px; opacity: 1;"/></g><g class="points"/><g class="text"/></g><g class="trace scatter trace56d60e" style="stroke-miterlimit: 2; opacity: 1;"><g class="fills"/><g class="errorbars"/><g class="lines"/><g class="points"><path class="point" transform="translate(48.68,245.39)" d="M0,0Z" style="opacity: 1; stroke-width: 0px; fill: rgb(12, 51, 131); fill-opacity: 1;"/><path class="point" transform="translate(123.55,245.39)" d="M-3.0000000000000004,-6.93L-2.9999999999999996,6.93L6,-3.6739403974420594e-16Z" style="opacity: 1; stroke-width: 0px; fill: rgb(11, 86, 154); fill-opacity: 1;"/><path class="point" transform="translate(198.41,245.39)" d="M-3.0000000000000004,-6.93L-2.9999999999999996,6.93L6,-3.6739403974420594e-16Z" style="opacity: 1; stroke-width: 0px; fill: rgb(10, 120, 175); fill-opacity: 1;"/><path class="point" transform="translate(273.27,245.39)" d="M-3.0000000000000004,-6.93L-2.9999999999999996,6.93L6,-3.6739403974420594e-16Z" style="opacity: 1; stroke-width: 0px; fill: rgb(57, 151, 160); fill-opacity: 1;"/><path class="point" transform="translate(348.14,245.39)" d="M-3.0000000000000004,-6.93L-2.9999999999999996,6.93L6,-3.6739403974420594e-16Z" style="opacity: 1; stroke-width: 0px; fill: rgb(148, 181, 109); fill-opacity: 1;"/><path class="point" transform="translate(423,245.39)" d="M-3.0000000000000004,-6.93L-2.9999999999999996,6.93L6,-3.6739403974420594e-16Z" style="opacity: 1; stroke-width: 0px; fill: rgb(240, 210, 57); fill-opacity: 1;"/><path class="point" transform="translate(497.86,245.39)" d="M-3.0000000000000004,-6.93L-2.9999999999999996,6.93L6,-3.6739403974420594e-16Z" style="opacity: 1; stroke-width: 0px; fill: rgb(242, 185, 56); fill-opacity: 1;"/><path class="point" transform="translate(572.73,245.39)" d="M-3.0000000000000004,-6.93L-2.9999999999999996,6.93L6,-3.6739403974420594e-16Z" style="opacity: 1; stroke-width: 0px; fill: rgb(242, 158, 56); fill-opacity: 1;"/><path class="point" transform="translate(647.59,245.39)" d="M-3.0000000000000004,-6.93L-2.9999999999999996,6.93L6,-3.6739403974420594e-16Z" style="opacity: 1; stroke-width: 0px; fill: rgb(238, 124, 52); fill-opacity: 1;"/><path class="point" transform="translate(722.45,245.39)" d="M-3.0000000000000004,-6.93L-2.9999999999999996,6.93L6,-3.6739403974420594e-16Z" style="opacity: 1; stroke-width: 0px; fill: rgb(228, 79, 41); fill-opacity: 1;"/><path class="point" transform="translate(797.32,245.39)" d="M-3.0000000000000004,-6.93L-2.9999999999999996,6.93L6,-3.6739403974420594e-16Z" style="opacity: 1; stroke-width: 0px; fill: rgb(218, 35, 31); fill-opacity: 1;"/></g><g class="text"/></g><g class="trace scatter trace6d3f8f" style="stroke-miterlimit: 2; opacity: 1;"><g class="fills"/><g class="errorbars"/><g class="lines"><path class="js-line" d="M48.68,276.58L797.32,276.58" style="vector-effect: none; fill: none; stroke: rgb(0, 0, 0); stroke-opacity: 1; stroke-width: 2px; opacity: 1;"/></g><g class="points"/><g class="text"/></g><g class="trace scatter trace9abf78" style="stroke-miterlimit: 2; opacity: 1;"><g class="fills"/><g class="errorbars"/><g class="lines"><path class="js-line" d="M48.68,276.58L804.32,276.58" style="vector-effect: none; fill: none; stroke: rgb(100, 143, 255); stroke-opacity: 1; stroke-width: 2px; opacity: 1;"/></g><g class="points"/><g class="text"/></g><g class="trace scatter trace805851" style="stroke-miterlimit: 2; opacity: 1;"><g class="fills"/><g class="errorbars"/><g class="lines"/><g class="points"><path class="point" transform="translate(48.68,276.58)" d="M0,0Z" style="opacity: 1; stroke-width: 0px; fill: rgb(12, 51, 131); fill-opacity: 1;"/><path class="point" transform="translate(123.55,276.58)" d="M-3.0000000000000004,-6.93L-2.9999999999999996,6.93L6,-3.6739403974420594e-16Z" style="opacity: 1; stroke-width: 0px; fill: rgb(11, 86, 154); fill-opacity: 1;"/><path class="point" transform="translate(198.41,276.58)" d="M-3.0000000000000004,-6.93L-2.9999999999999996,6.93L6,-3.6739403974420594e-16Z" style="opacity: 1; stroke-width: 0px; fill: rgb(10, 120, 175); fill-opacity: 1;"/><path class="point" transform="translate(273.27,276.58)" d="M-3.0000000000000004,-6.93L-2.9999999999999996,6.93L6,-3.6739403974420594e-16Z" style="opacity: 1; stroke-width: 0px; fill: rgb(57, 151, 160); fill-opacity: 1;"/><path class="point" transform="translate(348.14,276.58)" d="M-3.0000000000000004,-6.93L-2.9999999999999996,6.93L6,-3.6739403974420594e-16Z" style="opacity: 1; stroke-width: 0px; fill: rgb(148, 181, 109); fill-opacity: 1;"/><path class="point" transform="translate(423,276.58)" d="M-3.0000000000000004,-6.93L-2.9999999999999996,6.93L6,-3.6739403974420594e-16Z" style="opacity: 1; stroke-width: 0px; fill: rgb(240, 210, 57); fill-opacity: 1;"/><path class="point" transform="translate(497.86,276.58)" d="M-3.0000000000000004,-6.93L-2.9999999999999996,6.93L6,-3.6739403974420594e-16Z" style="opacity: 1; stroke-width: 0px; fill: rgb(242, 185, 56); fill-opacity: 1;"/><path class="point" transform="translate(572.73,276.58)" d="M-3.0000000000000004,-6.93L-2.9999999999999996,6.93L6,-3.6739403974420594e-16Z" style="opacity: 1; stroke-width: 0px; fill: rgb(242, 158, 56); fill-opacity: 1;"/><path class="point" transform="translate(647.59,276.58)" d="M-3.0000000000000004,-6.93L-2.9999999999999996,6.93L6,-3.6739403974420594e-16Z" style="opacity: 1; stroke-width: 0px; fill: rgb(238, 124, 52); fill-opacity: 1;"/><path class="point" transform="translate(722.45,276.58)" d="M-3.0000000000000004,-6.93L-2.9999999999999996,6.93L6,-3.6739403974420594e-16Z" style="opacity: 1; stroke-width: 0px; fill: rgb(228, 79, 41); fill-opacity: 1;"/><path class="point" transform="translate(797.32,276.58)" d="M-3.0000000000000004,-6.93L-2.9999999999999996,6.93L6,-3.6739403974420594e-16Z" style="opacity: 1; stroke-width: 0px; fill: rgb(218, 35, 31); fill-opacity: 1;"/></g><g class="text"/></g><g class="trace scatter traceb161ea" style="stroke-miterlimit: 2; opacity: 1;"><g class="fills"/><g class="errorbars"/><g class="lines"><path class="js-line" d="M48.68,307.77L797.32,307.77" style="vector-effect: none; fill: none; stroke: rgb(0, 0, 0); stroke-opacity: 1; stroke-width: 2px; opacity: 1;"/></g><g class="points"/><g class="text"/></g><g class="trace scatter tracea142ae" style="stroke-miterlimit: 2; opacity: 1;"><g class="fills"/><g class="errorbars"/><g class="lines"><path class="js-line" d="M48.68,307.77L804.32,307.77" style="vector-effect: none; fill: none; stroke: rgb(100, 143, 255); stroke-opacity: 1; stroke-width: 2px; opacity: 1;"/></g><g class="points"/><g class="text"/></g><g class="trace scatter tracebf2e32" style="stroke-miterlimit: 2; opacity: 1;"><g class="fills"/><g class="errorbars"/><g class="lines"/><g class="points"><path class="point" transform="translate(48.68,307.77)" d="M0,0Z" style="opacity: 1; stroke-width: 0px; fill: rgb(12, 51, 131); fill-opacity: 1;"/><path class="point" transform="translate(123.55,307.77)" d="M-3.0000000000000004,-6.93L-2.9999999999999996,6.93L6,-3.6739403974420594e-16Z" style="opacity: 1; stroke-width: 0px; fill: rgb(11, 86, 154); fill-opacity: 1;"/><path class="point" transform="translate(198.41,307.77)" d="M-3.0000000000000004,-6.93L-2.9999999999999996,6.93L6,-3.6739403974420594e-16Z" style="opacity: 1; stroke-width: 0px; fill: rgb(10, 120, 175); fill-opacity: 1;"/><path class="point" transform="translate(273.27,307.77)" d="M-3.0000000000000004,-6.93L-2.9999999999999996,6.93L6,-3.6739403974420594e-16Z" style="opacity: 1; stroke-width: 0px; fill: rgb(57, 151, 160); fill-opacity: 1;"/><path class="point" transform="translate(348.14,307.77)" d="M-3.0000000000000004,-6.93L-2.9999999999999996,6.93L6,-3.6739403974420594e-16Z" style="opacity: 1; stroke-width: 0px; fill: rgb(148, 181, 109); fill-opacity: 1;"/><path class="point" transform="translate(423,307.77)" d="M-3.0000000000000004,-6.93L-2.9999999999999996,6.93L6,-3.6739403974420594e-16Z" style="opacity: 1; stroke-width: 0px; fill: rgb(240, 210, 57); fill-opacity: 1;"/><path class="point" transform="translate(497.86,307.77)" d="M-3.0000000000000004,-6.93L-2.9999999999999996,6.93L6,-3.6739403974420594e-16Z" style="opacity: 1; stroke-width: 0px; fill: rgb(242, 185, 56); fill-opacity: 1;"/><path class="point" transform="translate(572.73,307.77)" d="M-3.0000000000000004,-6.93L-2.9999999999999996,6.93L6,-3.6739403974420594e-16Z" style="opacity: 1; stroke-width: 0px; fill: rgb(242, 158, 56); fill-opacity: 1;"/><path class="point" transform="translate(647.59,307.77)" d="M-3.0000000000000004,-6.93L-2.9999999999999996,6.93L6,-3.6739403974420594e-16Z" style="opacity: 1; stroke-width: 0px; fill: rgb(238, 124, 52); fill-opacity: 1;"/><path class="point" transform="translate(722.45,307.77)" d="M-3.0000000000000004,-6.93L-2.9999999999999996,6.93L6,-3.6739403974420594e-16Z" style="opacity: 1; stroke-width: 0px; fill: rgb(228, 79, 41); fill-opacity: 1;"/><path class="point" transform="translate(797.32,307.77)" d="M-3.0000000000000004,-6.93L-2.9999999999999996,6.93L6,-3.6739403974420594e-16Z" style="opacity: 1; stroke-width: 0px; fill: rgb(218, 35, 31); fill-opacity: 1;"/></g><g class="text"/></g><g class="trace scatter traceb572da" style="stroke-miterlimit: 2; opacity: 1;"><g class="fills"/><g class="errorbars"/><g class="lines"><path class="js-line" d="M471.75,459.47L374.26,-93.44" style="vector-effect: none; fill: none; stroke: rgb(220, 38, 127); stroke-opacity: 1; stroke-width: 2px; opacity: 1;"/></g><g class="points"/><g class="text"/></g><g class="trace scatter trace3a632f" style="stroke-miterlimit: 2; opacity: 1;"><g class="fills"/><g class="errorbars"/><g class="lines"/><g class="points"><path class="point" transform="translate(471.75,459.47)" d="M0,0Z" style="opacity: 1; stroke-width: 0px; fill: rgb(12, 51, 131); fill-opacity: 1;"/><path class="point" transform="translate(464.3,417.23)" d="M-6.303287498143342,4.158541416861187L7.3458667424122135,1.7501833626000924L-1.0425792442688722,-5.90872477946128Z" style="opacity: 1; stroke-width: 0px; fill: rgb(11, 78, 149); fill-opacity: 1;"/><path class="point" transform="translate(456.85,375)" d="M-6.3040816162856,4.157337486325825L7.345532343744781,1.7515863058951198L-1.0414507274591798,-5.9089237922209445Z" style="opacity: 1; stroke-width: 0px; fill: rgb(11, 104, 166); fill-opacity: 1;"/><path class="point" transform="translate(449.41,332.76)" d="M-6.303287498143342,4.158541416861187L7.3458667424122135,1.7501833626000924L-1.0425792442688722,-5.90872477946128Z" style="opacity: 1; stroke-width: 0px; fill: rgb(10, 131, 182); fill-opacity: 1;"/><path class="point" transform="translate(441.96,290.52)" d="M-6.303941637815479,4.157549738369498L7.345591314373003,1.7513389855216193L-1.0416496765575236,-5.908888723891118Z" style="opacity: 1; stroke-width: 0px; fill: rgb(66, 154, 155); fill-opacity: 1;"/><path class="point" transform="translate(434.51,248.28)" d="M-6.304081616285592,4.1573374863258366L7.345532343744783,1.751586305895105L-1.0414507274591913,-5.908923792220942Z" style="opacity: 1; stroke-width: 0px; fill: rgb(137, 177, 115); fill-opacity: 1;"/><path class="point" transform="translate(427.06,206.04)" d="M-6.303287498143347,4.15854141686118L7.345866742412212,1.750183362600101L-1.042579244268865,-5.908724779461281Z" style="opacity: 1; stroke-width: 0px; fill: rgb(208, 200, 75); fill-opacity: 1;"/><path class="point" transform="translate(419.61,163.8)" d="M-6.304081616285597,4.157337486325831L7.345532343744782,1.7515863058951127L-1.0414507274591855,-5.908923792220944Z" style="opacity: 1; stroke-width: 0px; fill: rgb(242, 200, 56); fill-opacity: 1;"/><path class="point" transform="translate(412.17,121.56)" d="M-6.304081616285597,4.157337486325831L7.345532343744782,1.7515863058951127L-1.0414507274591855,-5.908923792220944Z" style="opacity: 1; stroke-width: 0px; fill: rgb(242, 179, 56); fill-opacity: 1;"/><path class="point" transform="translate(404.72,79.32)" d="M-6.303287498143342,4.158541416861187L7.3458667424122135,1.7501833626000924L-1.0425792442688722,-5.90872477946128Z" style="opacity: 1; stroke-width: 0px; fill: rgb(242, 158, 56); fill-opacity: 1;"/><path class="point" transform="translate(397.27,37.08)" d="M-6.304081616285597,4.157337486325831L7.345532343744782,1.7515863058951127L-1.0414507274591855,-5.908923792220944Z" style="opacity: 1; stroke-width: 0px; fill: rgb(240, 134, 54); fill-opacity: 1;"/><path class="point" transform="translate(389.82,-5.16)" d="M-6.303287498143347,4.15854141686118L7.345866742412212,1.750183362600101L-1.042579244268865,-5.908724779461281Z" style="opacity: 1; stroke-width: 0px; fill: rgb(232, 99, 46); fill-opacity: 1;"/><path class="point" transform="translate(382.37,-47.4)" d="M-6.304081616285597,4.157337486325831L7.345532343744782,1.7515863058951127L-1.0414507274591855,-5.908923792220944Z" style="opacity: 1; stroke-width: 0px; fill: rgb(225, 65, 38); fill-opacity: 1;"/><path class="point" transform="translate(374.93,-89.64)" d="M-6.304081616285592,4.1573374863258366L7.345532343744783,1.751586305895105L-1.0414507274591913,-5.908923792220942Z" style="opacity: 1; stroke-width: 0px; fill: rgb(217, 30, 30); fill-opacity: 1;"/></g><g class="text"/></g></g></g></g><path class="xlines-above crisp" d="M0,0" style="fill: none;"/><path class="ylines-above crisp" d="M0,0" style="fill: none;"/><g class="overlines-above"/><g class="xaxislayer-above"><g class="xtick"><text text-anchor="middle" x="0" y="400" transform="translate(169.68,0)" style="font-family: 'Open Sans', verdana, arial, sans-serif; font-size: 28px; fill: rgb(0, 0, 0); fill-opacity: 1; white-space: pre; opacity: 1;">−1500</text></g><g class="xtick"><text text-anchor="middle" x="0" y="400" style="font-family: 'Open Sans', verdana, arial, sans-serif; font-size: 28px; fill: rgb(0, 0, 0); fill-opacity: 1; white-space: pre; opacity: 1;" transform="translate(294.45,0)">−1000</text></g><g class="xtick"><text text-anchor="middle" x="0" y="400" style="font-family: 'Open Sans', verdana, arial, sans-serif; font-size: 28px; fill: rgb(0, 0, 0); fill-opacity: 1; white-space: pre; opacity: 1;" transform="translate(419.23,0)">−500</text></g><g class="xtick"><text text-anchor="middle" x="0" y="400" style="font-family: 'Open Sans', verdana, arial, sans-serif; font-size: 28px; fill: rgb(0, 0, 0); fill-opacity: 1; white-space: pre; opacity: 1;" transform="translate(544,0)">0</text></g><g class="xtick"><text text-anchor="middle" x="0" y="400" style="font-family: 'Open Sans', verdana, arial, sans-serif; font-size: 28px; fill: rgb(0, 0, 0); fill-opacity: 1; white-space: pre; opacity: 1;" transform="translate(668.77,0)">500</text></g><g class="xtick"><text text-anchor="middle" x="0" y="400" style="font-family: 'Open Sans', verdana, arial, sans-serif; font-size: 28px; fill: rgb(0, 0, 0); fill-opacity: 1; white-space: pre; opacity: 1;" transform="translate(793.55,0)">1000</text></g><g class="xtick"><text text-anchor="middle" x="0" y="400" style="font-family: 'Open Sans', verdana, arial, sans-serif; font-size: 28px; fill: rgb(0, 0, 0); fill-opacity: 1; white-space: pre; opacity: 1;" transform="translate(918.32,0)">1500</text></g></g><g class="yaxislayer-above"><g class="ytick"><text text-anchor="end" x="120" y="9.799999999999999" transform="translate(0,337.73)" style="font-family: 'Open Sans', verdana, arial, sans-serif; font-size: 28px; fill: rgb(0, 0, 0); fill-opacity: 1; white-space: pre; opacity: 1;">−600</text></g><g class="ytick"><text text-anchor="end" x="120" y="9.799999999999999" style="font-family: 'Open Sans', verdana, arial, sans-serif; font-size: 28px; fill: rgb(0, 0, 0); fill-opacity: 1; white-space: pre; opacity: 1;" transform="translate(0,287.82)">−400</text></g><g class="ytick"><text text-anchor="end" x="120" y="9.799999999999999" style="font-family: 'Open Sans', verdana, arial, sans-serif; font-size: 28px; fill: rgb(0, 0, 0); fill-opacity: 1; white-space: pre; opacity: 1;" transform="translate(0,237.91)">−200</text></g><g class="ytick"><text text-anchor="end" x="120" y="9.799999999999999" style="font-family: 'Open Sans', verdana, arial, sans-serif; font-size: 28px; fill: rgb(0, 0, 0); fill-opacity: 1; white-space: pre; opacity: 1;" transform="translate(0,188)">0</text></g><g class="ytick"><text text-anchor="end" x="120" y="9.799999999999999" style="font-family: 'Open Sans', verdana, arial, sans-serif; font-size: 28px; fill: rgb(0, 0, 0); fill-opacity: 1; white-space: pre; opacity: 1;" transform="translate(0,138.09)">200</text></g><g class="ytick"><text text-anchor="end" x="120" y="9.799999999999999" style="font-family: 'Open Sans', verdana, arial, sans-serif; font-size: 28px; fill: rgb(0, 0, 0); fill-opacity: 1; white-space: pre; opacity: 1;" transform="translate(0,88.18)">400</text></g><g class="ytick"><text text-anchor="end" x="120" y="9.799999999999999" style="font-family: 'Open Sans', verdana, arial, sans-serif; font-size: 28px; fill: rgb(0, 0, 0); fill-opacity: 1; white-space: pre; opacity: 1;" transform="translate(0,38.27)">600</text></g></g><g class="overaxes-above"/></g></g><g class="polarlayer"/><g class="smithlayer"/><g class="ternarylayer"/><g class="geolayer"/><g class="funnelarealayer"/><g class="pielayer"/><g class="iciclelayer"/><g class="treemaplayer"/><g class="sunburstlayer"/><g class="glimages"/><defs id="topdefs-275493"><g class="clips"/><clipPath id="legend275493"><rect width="207" height="304" x="2" y="2"/></clipPath></defs><g class="layer-above"><g class="imagelayer"/><g class="shapelayer"/></g><g class="infolayer"><g class="legend" pointer-events="all" transform="translate(983.92,5)"><rect class="bg" shape-rendering="crispEdges" style="stroke: rgb(0, 0, 0); stroke-opacity: 1; fill: rgb(255, 255, 255); fill-opacity: 1; stroke-width: 2px;" width="209" height="306" x="1" y="1"/><g class="scrollbox" transform="" clip-path="url(#legend275493)"><g class="groups" transform=""><g class="traces" transform="translate(2,28.650000000000002)" style="opacity: 1;"><text class="legendtext" text-anchor="start" x="5" y="12.090000000000002" style="font-family: 'Open Sans', verdana, arial, sans-serif; font-size: 31px; fill: rgb(0, 0, 0); fill-opacity: 1; white-space: pre;">OS</text><g class="layers"><g class="legendfill"/><g class="legendlines"/><g class="legendsymbols"><g class="legendpoints"/></g></g><rect class="legendtoggle" x="0" y="-21.650000000000002" width="201.9375" height="43.300000000000004" style="fill: rgb(0, 0, 0); fill-opacity: 0;"/></g><g class="traces" transform="translate(2,70)" style="opacity: 1;"><text class="legendtext" text-anchor="start" x="40" y="10.92" style="font-family: 'Open Sans', verdana, arial, sans-serif; font-size: 28px; fill: rgb(0, 0, 0); fill-opacity: 1; white-space: pre;">Ref</text><g class="layers" style="opacity: 1;"><g class="legendfill"/><g class="legendlines"><path class="js-line" d="M5,0h30" style="fill: none; stroke: rgb(0, 0, 0); stroke-opacity: 1; stroke-width: 2px;"/></g><g class="legendsymbols"><g class="legendpoints"/></g></g><rect class="legendtoggle" x="0" y="-19.7" width="201.9375" height="39.4" style="fill: rgb(0, 0, 0); fill-opacity: 0;"/></g><g class="traces" transform="translate(2,109.4)" style="opacity: 1;"><text class="legendtext" text-anchor="start" x="40" y="10.92" style="font-family: 'Open Sans', verdana, arial, sans-serif; font-size: 28px; fill: rgb(0, 0, 0); fill-opacity: 1; white-space: pre;">Pos</text><g class="layers" style="opacity: 1;"><g class="legendfill"/><g class="legendlines"><path class="js-line" d="M5,0h30" style="fill: none; stroke: rgb(100, 143, 255); stroke-opacity: 1; stroke-width: 2px;"/></g><g class="legendsymbols"><g class="legendpoints"/></g></g><rect class="legendtoggle" x="0" y="-19.7" width="201.9375" height="39.4" style="fill: rgb(0, 0, 0); fill-opacity: 0;"/></g><g class="traces" transform="translate(2,148.79999999999998)" style="opacity: 1;"><text class="legendtext" text-anchor="start" x="40" y="10.92" style="font-family: 'Open Sans', verdana, arial, sans-serif; font-size: 28px; fill: rgb(0, 0, 0); fill-opacity: 1; white-space: pre;">Break point</text><g class="layers" style="opacity: 1;"><g class="legendfill"/><g class="legendlines"/><g class="legendsymbols"><g class="legendpoints"><path class="scatterpts" transform="translate(20,0)" d="M-3.0000000000000004,-6.93L-2.9999999999999996,6.93L6,-3.6739403974420594e-16Z" style="opacity: 1; stroke-width: 0px; fill: rgb(12, 51, 131); fill-opacity: 1;"/></g></g></g><rect class="legendtoggle" x="0" y="-19.7" width="201.9375" height="39.4" style="fill: rgb(0, 0, 0); fill-opacity: 0;"/></g></g><g class="groups" transform="translate(0,10)"><g class="traces" transform="translate(2,190.15)" style="opacity: 1;"><text class="legendtext" text-anchor="start" x="5" y="12.090000000000002" style="font-family: 'Open Sans', verdana, arial, sans-serif; font-size: 31px; fill: rgb(0, 0, 0); fill-opacity: 1; white-space: pre;">TS</text><g class="layers"><g class="legendfill"/><g class="legendlines"/><g class="legendsymbols"><g class="legendpoints"/></g></g><rect class="legendtoggle" x="0" y="-21.650000000000002" width="201.9375" height="43.300000000000004" style="fill: rgb(0, 0, 0); fill-opacity: 0;"/></g><g class="traces" transform="translate(2,231.5)" style="opacity: 1;"><text class="legendtext" text-anchor="start" x="40" y="10.92" style="font-family: 'Open Sans', verdana, arial, sans-serif; font-size: 28px; fill: rgb(0, 0, 0); fill-opacity: 1; white-space: pre;">Pos</text><g class="layers" style="opacity: 1;"><g class="legendfill"/><g class="legendlines"><path class="js-line" d="M5,0h30" style="fill: none; stroke: rgb(220, 38, 127); stroke-opacity: 1; stroke-width: 2px;"/></g><g class="legendsymbols"><g class="legendpoints"/></g></g><rect class="legendtoggle" x="0" y="-19.7" width="201.9375" height="39.4" style="fill: rgb(0, 0, 0); fill-opacity: 0;"/></g><g class="traces" transform="translate(2,270.90000000000003)" style="opacity: 1;"><text class="legendtext" text-anchor="start" x="40" y="10.92" style="font-family: 'Open Sans', verdana, arial, sans-serif; font-size: 28px; fill: rgb(0, 0, 0); fill-opacity: 1; white-space: pre;">Break point</text><g class="layers" style="opacity: 1;"><g class="legendfill"/><g class="legendlines"/><g class="legendsymbols"><g class="legendpoints"><path class="scatterpts" transform="translate(20,0)" d="M-3.0000000000000004,-6.93L-2.9999999999999996,6.93L6,-3.6739403974420594e-16Z" style="opacity: 1; stroke-width: 0px; fill: rgb(12, 51, 131); fill-opacity: 1;"/></g></g></g><rect class="legendtoggle" x="0" y="-19.7" width="201.9375" height="39.4" style="fill: rgb(0, 0, 0); fill-opacity: 0;"/></g></g></g><rect class="scrollbar" rx="20" ry="3" width="0" height="0" style="fill: rgb(128, 139, 164); fill-opacity: 1;" x="0" y="0"/></g><g class="g-gtitle"/><g class="g-xtitle" transform="translate(0,-1.3000000000000114)"><text class="xtitle" x="544" y="444.3" text-anchor="middle" style="opacity: 1; font-family: 'Open Sans', verdana, arial, sans-serif; font-size: 34px; fill: rgb(0, 0, 0); fill-opacity: 1; white-space: pre;">East [m]</text></g><g class="g-ytitle" transform="translate(16.728515625,0)"><text class="ytitle" transform="rotate(-90,17.271874999999994,188)" x="17.271874999999994" y="188" text-anchor="middle" style="opacity: 1; font-family: 'Open Sans', verdana, arial, sans-serif; font-size: 34px; fill: rgb(0, 0, 0); fill-opacity: 1; white-space: pre;">North [m]</text></g></g></svg>