<svg class="main-svg" xmlns="http://www.w3.org/2000/svg" xmlns:xlink="http://www.w3.org/1999/xlink" width="1200" height="450" style="" viewBox="0 0 1200 450"><rect x="0" y="0" width="1200" height="450" style="fill: rgb(255, 255, 255); fill-opacity: 1;"/><defs id="defs-38d4de"><g class="clips"><clipPath id="clip38d4dexyplot" class="plotclip"><rect width="958" height="364"/></clipPath><clipPath class="axesclip" id="clip38d4dex"><rect x="121" y="0" width="958" height="450"/></clipPath><clipPath class="axesclip" id="clip38d4dey"><rect x="0" y="7" width="1200" height="364"/></clipPath><clipPath class="axesclip" id="clip38d4dexy"><rect x="121" y="7" width="958" height="364"/></clipPath></g><g class="gradients"/><g class="patterns"/></defs><g class="bglayer"/><g class="layer-below"><g class="imagelayer"/><g class="shapelayer"/></g><g class="cartesianlayer"><g class="subplot xy"><g class="layer-subplot"><g class="shapelayer"/><g class="imagelayer"/></g><g class="minor-gridlayer"><g class="x"/><g class="y"/></g><g class="gridlayer"><g class="x"><path class="xgrid crisp" transform="translate(184.3,0)" d="M0,7v364" style="stroke: rgb(200, 200, 200); stroke-opacity: 1; stroke-width: 1px;"/><path class="xgrid crisp" transform="translate(322.86,0)" d="M0,7v364" style="stroke: rgb(200, 200, 200); stroke-opacity: 1; stroke-width: 1px;"/><path class="xgrid crisp" transform="translate(461.43,0)" d="M0,7v364" style="stroke: rgb(200, 200, 200); stroke-opacity: 1; stroke-width: 1px;"/><path class="xgrid crisp" transform="translate(738.57,0)" d="M0,7v364" style="stroke: rgb(200, 200, 200); stroke-opacity: 1; stroke-width: 1px;"/><path class="xgrid crisp" transform="translate(877.14,0)" d="M0,7v364" style="stroke: rgb(200, 200, 200); stroke-opacity: 1; stroke-width: 1px;"/><path class="xgrid crisp" transform="translate(1015.7,0)" d="M0,7v364" style="stroke: rgb(200, 200, 200); stroke-opacity: 1; stroke-width: 1px;"/></g><g class="y"><path class="ygrid crisp" transform="translate(0,355.28)" d="M121,0h958" style="stroke: rgb(200, 200, 200); stroke-opacity: 1; stroke-width: 1px;"/><path class="ygrid crisp" transform="translate(0,299.85)" d="M121,0h958" style="stroke: rgb(200, 200, 200); stroke-opacity: 1; stroke-width: 1px;"/><path class="ygrid crisp" transform="translate(0,244.43)" d="M121,0h958" style="stroke: rgb(200, 200, 200); stroke-opacity: 1; stroke-width: 1px;"/><path class="ygrid crisp" transform="translate(0,133.57)" d="M121,0h958" style="stroke: rgb(200, 200, 200); stroke-opacity: 1; stroke-width: 1px;"/><path class="ygrid crisp" transform="translate(0,78.15)" d="M121,0h958" style="stroke: rgb(200, 200, 200); stroke-opacity: 1; stroke-width: 1px;"/><path class="ygrid crisp" transform="translate(0,22.72)" d="M121,0h958" style="stroke: rgb(200, 200, 200); stroke-opacity: 1; stroke-width: 1px;"/></g></g><g class="zerolinelayer"><path class="xzl zl crisp" transform="translate(600,0)" d="M0,7v364" style="stroke: rgb(200, 200, 200); stroke-opacity: 1; stroke-width: 2px;"/><path class="yzl zl crisp" transform="translate(0,189)" d="M121,0h958" style="stroke: rgb(200, 200, 200); stroke-opacity: 1; stroke-width: 2px;"/></g><g class="layer-between"><g class="shapelayer"/><g class="imagelayer"/></g><path class="xlines-below"/><path class="ylines-below"/><g class="overlines-below"/><g class="xaxislayer-below"/><g class="yaxislayer-below"/><g class="overaxes-below"/><g class="overplot"><g class="xy" transform="translate(121,7)" clip-path="url(#clip38d4dexyplot)"><g class="scatterlayer mlayer"><g class="trace scatter trace8eb193" style="stroke-miterlimit: 2; opacity: 1;"><g class="fills"/><g class="errorbars"/><g class="lines"><path class="js-line" d="M63.3,140.43L894.7,140.43" style="vector-effect: none; fill: none; stroke: rgb(0, 0, 0); stroke-opacity: 1; stroke-width: 2px; opacity: 1;"/></g><g class="points"/><g class="text"/></g><g class="trace scatter tracec98aaf" style="stroke-miterlimit: 2; opacity: 1;"><g class="fills"/><g class="errorbars"/><g class="lines"><path class="js-line" d="M63.3,140.43L894.7,140.43" style="vector-effect: none; fill: none; stroke: rgb(100, 143, 255); stroke-opacity: 1; stroke-width: 2px; opacity: 1;"/></g><g class="points"/><g class="text"/></g><g class="trace scatter trace3c6de7" style="stroke-miterlimit: 2; opacity: 1;"><g class="fills"/><g class="errorbars"/><g class="lines"/><g class="points"><path class="point" transform="translate(63.3,140.43)" d="M-4.000000000000001,-9.24L-3.9999999999999996,9.24L8,-4.898587196589413e-16Z" style="opacity: 1; stroke-width: 0px; fill: rgb(12, 51, 131); fill-opacity: 1;"/><path class="point" transform="translate(163.06,140.43)" d="M-4.000000000000001,-9.24L-3.9999999999999996,9.24L8,-4.898587196589413e-16Z" style="opacity: 1; stroke-width: 0px; fill: rgb(11, 94, 159); fill-opacity: 1;"/><path class="point" transform="translate(262.83,140.43)" d="M-4.000000000001505,-9.239999999999348L-3.9999999999984954,9.240000000000652L8,-1.3025594220000426e-12Z" style="opacity: 1; stroke-width: 0px; fill: rgb(10, 136, 186); fill-opacity: 1;"/><path class="point" transform="translate(362.6,140.43)" d="M-4.000000000000001,-9.24L-3.9999999999999996,9.24L8,-4.898587196589413e-16Z" style="opacity: 1; stroke-width: 0px; fill: rgb(126, 174, 121); fill-opacity: 1;"/><path class="point" transform="translate(462.37,140.43)" d="M-4.000000000000001,-9.24L-3.9999999999999996,9.24L8,-4.898587196589413e-16Z" style="opacity: 1; stroke-width: 0px; fill: rgb(242, 211, 56); fill-opacity: 1;"/><path class="point" transform="translate(562.14,140.43)" d="M-4.000000000000001,-9.24L-3.9999999999999996,9.24L8,-4.898587196589413e-16Z" style="opacity: 1; stroke-width: 0px; fill: rgb(242, 177, 56); fill-opacity: 1;"/><path class="point" transform="translate(661.91,140.43)" d="M-3.999999999998911,-9.240000000000471L-4.000000000001089,9.23999999999953L8,9.42755623001874e-13Z" style="opacity: 1; stroke-width: 0px; fill: rgb(242, 143, 56); fill-opacity: 1;"/><path class="point" transform="translate(761.68,140.43)" d="M-4.000000000000001,-9.24L-3.9999999999999996,9.24L8,-4.898587196589413e-16Z" style="opacity: 1; stroke-width: 0px; fill: rgb(230, 87, 43); fill-opacity: 1;"/><path class="point" transform="translate(861.45,140.43)" d="M-4.000000000000001,-9.24L-3.9999999999999996,9.24L8,-4.898587196589413e-16Z" style="opacity: 1; stroke-width: 0px; fill: rgb(217, 30, 30); fill-opacity: 1;"/></g><g class="text"/></g><g class="trace scatter trace2de69b" style="stroke-miterlimit: 2; opacity: 1;"><g class="fills"/><g class="errorbars"/><g class="lines"><path class="js-line" d="M63.3,150.82L894.7,150.82" style="vector-effect: none; fill: none; stroke: rgb(0, 0, 0); stroke-opacity: 1; stroke-width: 2px; opacity: 1;"/></g><g class="points"/><g class="text"/></g><g class="trace scatter trace15a95d" style="stroke-miterlimit: 2; opacity: 1;"><g class="fills"/><g class="errorbars"/><g class="lines"><path class="js-line" d="M63.3,150.82L894.7,150.82" style="vector-effect: none; fill: none; stroke: rgb(100, 143, 255); stroke-opacity: 1; stroke-width: 2px; opacity: 1;"/></g><g class="points"/><g class="text"/></g><g class="trace scatter tracec7b2a4" style="stroke-miterlimit: 2; opacity: 1;"><g class="fills"/><g class="errorbars"/><g class="lines"/><g class="points"><path class="point" transform="translate(63.3,150.82)" d="M-4.000000000000001,-9.24L-3.9999999999999996,9.24L8,-4.898587196589413e-16Z" style="opacity: 1; stroke-width: 0px; fill: rgb(12, 51, 131); fill-opacity: 1;"/><path class="point" transform="translate(163.06,150.82)" d="M-4.000000000000001,-9.24L-3.9999999999999996,9.24L8,-4.898587196589413e-16Z" style="opacity: 1; stroke-width: 0px; fill: rgb(11, 94, 159); fill-opacity: 1;"/><path class="point" transform="translate(262.83,150.82)" d="M-4.0000000000024585,-9.239999999998936L-3.9999999999975415,9.240000000001064L8,-2.128565352321159e-12Z" style="opacity: 1; stroke-width: 0px; fill: rgb(10, 136, 186); fill-opacity: 1;"/><path class="point" transform="translate(362.6,150.82)" d="M-4.000000000000001,-9.24L-3.9999999999999996,9.24L8,-4.898587196589413e-16Z" style="opacity: 1; stroke-width: 0px; fill: rgb(126, 174, 121); fill-opacity: 1;"/><path class="point" transform="translate(462.37,150.82)" d="M-4.000000000000001,-9.24L-3.9999999999999996,9.24L8,-4.898587196589413e-16Z" style="opacity: 1; stroke-width: 0px; fill: rgb(242, 211, 56); fill-opacity: 1;"/><path class="point" transform="translate(562.14,150.82)" d="M-4.000000000000001,-9.24L-3.9999999999999996,9.24L8,-4.898587196589413e-16Z" style="opacity: 1; stroke-width: 0px; fill: rgb(242, 177, 56); fill-opacity: 1;"/><path class="point" transform="translate(661.91,150.82)" d="M-3.9999999999982117,-9.240000000000775L-4.000000000001789,9.239999999999226L8,1.5484933052373594e-12Z" style="opacity: 1; stroke-width: 0px; fill: rgb(242, 143, 56); fill-opacity: 1;"/><path class="point" transform="translate(761.68,150.82)" d="M-4.000000000000001,-9.24L-3.9999999999999996,9.24L8,-4.898587196589413e-16Z" style="opacity: 1; stroke-width: 0px; fill: rgb(230, 87, 43); fill-opacity: 1;"/><path class="point" transform="translate(861.45,150.82)" d="M-4.000000000000001,-9.24L-3.9999999999999996,9.24L8,-4.898587196589413e-16Z" style="opacity: 1; stroke-width: 0px; fill: rgb(217, 30, 30); fill-opacity: 1;"/></g><g class="text"/></g><g class="trace scatter tracebeb0e7" style="stroke-miterlimit: 2; opacity: 1;"><g class="fills"/><g class="errorbars"/><g class="lines"><path class="js-line" d="M63.3,161.21L894.7,161.21" style="vector-effect: none; fill: none; stroke: rgb(0, 0, 0); stroke-opacity: 1; stroke-width: 2px; opacity: 1;"/></g><g class="points"/><g class="text"/></g><g class="trace scatter trace0b6ed6" style="stroke-miterlimit: 2; opacity: 1;"><g class="fills"/><g class="errorbars"/><g class="lines"><path class="js-line" d="M63.3,161.21L894.7,161.21" style="vector-effect: none; fill: none; stroke: rgb(100, 143, 255); stroke-opacity: 1; stroke-width: 2px; opacity: 1;"/></g><g class="points"/><g class="text"/></g><g class="trace scatter tracefd80b6" style="stroke-miterlimit: 2; opacity: 1;"><g class="fills"/><g class="errorbars"/><g class="lines"/><g class="points"><path class="point" transform="translate(63.3,161.21)" d="M-4.000000000000001,-9.24L-3.9999999999999996,9.24L8,-4.898587196589413e-16Z" style="opacity: 1; stroke-width: 0px; fill: rgb(12, 51, 131); fill-opacity: 1;"/><path class="point" transform="translate(163.06,161.21)" d="M-4.000000000000001,-9.24L-3.9999999999999996,9.24L8,-4.898587196589413e-16Z" style="opacity: 1; stroke-width: 0px; fill: rgb(11, 94, 159); fill-opacity: 1;"/><path class="point" transform="translate(262.83,161.21)" d="M-4.0000000000081215,-9.239999999996485L-3.999999999991879,9.240000000003516L8,-7.03131022906585e-12Z" style="opacity: 1; stroke-width: 0px; fill: rgb(10, 136, 186); fill-opacity: 1;"/><path class="point" transform="translate(362.6,161.21)" d="M-4.000000000000001,-9.24L-3.9999999999999996,9.24L8,-4.898587196589413e-16Z" style="opacity: 1; stroke-width: 0px; fill: rgb(126, 174, 121); fill-opacity: 1;"/><path class="point" transform="translate(462.37,161.21)" d="M-4.000000000000001,-9.24L-3.9999999999999996,9.24L8,-4.898587196589413e-16Z" style="opacity: 1; stroke-width: 0px; fill: rgb(242, 211, 56); fill-opacity: 1;"/><path class="point" transform="translate(562.14,161.21)" d="M-4.000000000000001,-9.24L-3.9999999999999996,9.24L8,-4.898587196589413e-16Z" style="opacity: 1; stroke-width: 0px; fill: rgb(242, 177, 56); fill-opacity: 1;"/><path class="point" transform="translate(661.91,161.21)" d="M-3.999999999994096,-9.240000000002556L-4.000000000005905,9.239999999997444L8,5.111865125074262e-12Z" style="opacity: 1; stroke-width: 0px; fill: rgb(242, 143, 56); fill-opacity: 1;"/><path class="point" transform="translate(761.68,161.21)" d="M-4.000000000000001,-9.24L-3.9999999999999996,9.24L8,-4.898587196589413e-16Z" style="opacity: 1; stroke-width: 0px; fill: rgb(230, 87, 43); fill-opacity: 1;"/><path class="point" transform="translate(861.45,161.21)" d="M-4.000000000000001,-9.24L-3.9999999999999996,9.24L8,-4.898587196589413e-16Z" style="opacity: 1; stroke-width: 0px; fill: rgb(217, 30, 30); fill-opacity: 1;"/></g><g class="text"/></g><g class="trace scatter trace631bc2" style="stroke-miterlimit: 2; opacity: 1;"><g class="fills"/><g class="errorbars"/><g class="lines"><path class="js-line" d="M63.3,171.61L894.7,171.61" style="vector-effect: none; fill: none; stroke: rgb(0, 0, 0); stroke-opacity: 1; stroke-width: 2px; opacity: 1;"/></g><g class="points"/><g class="text"/></g><g class="trace scatter trace6de41d" style="stroke-miterlimit: 2; opacity: 1;"><g class="fills"/><g class="errorbars"/><g class="lines"><path class="js-line" d="M63.3,171.61L210.17,172.31L213.47,172.53L229.81,174.52L233.04,175.1L249.02,178.84L252.18,179.77L267.8,185.27L270.9,186.51L286.55,191.84L289.71,192.72L305.72,196.25L308.96,196.77L325.33,198.49L328.64,198.65L358.66,198.86L362,198.87L602.41,198.84L605.75,198.83L629.01,198.09L632.29,197.79L648.6,195.48L651.83,194.86L667.86,190.95L671.03,190.01L702.78,180.42L706,179.71L722.24,176.92L725.51,176.52L742.02,175.29L745.35,175.2L838.84,174.82L842.18,174.82L885.58,174.83" style="vector-effect: none; fill: none; stroke: rgb(100, 143, 255); stroke-opacity: 1; stroke-width: 2px; opacity: 1;"/></g><g class="points"/><g class="text"/></g><g class="trace scatter traceec8d74" style="stroke-miterlimit: 2; opacity: 1;"><g class="fills"/><g class="errorbars"/><g class="lines"/><g class="points"><path class="point" transform="translate(63.3,171.61)" d="M-4.000000000000001,-9.24L-3.9999999999999996,9.24L8,-4.898587196589413e-16Z" style="opacity: 1; stroke-width: 0px; fill: rgb(12, 51, 131); fill-opacity: 1;"/><path class="point" transform="translate(163.06,171.64)" d="M-3.949117532473826,-9.26186108267166L-4.050761457266033,9.217859383627415L7.999878989739859,0.04400169904424531Z" style="opacity: 1; stroke-width: 0px; fill: rgb(11, 94, 159); fill-opacity: 1;"/><path class="point" transform="translate(260.84,182.62)" d="M-0.6568602274409554,-10.047195361970735L-6.876443070674084,7.354735256675008L7.533303298115039,2.6924601052957264Z" style="opacity: 1; stroke-width: 0px; fill: rgb(10, 136, 186); fill-opacity: 1;"/><path class="point" transform="translate(357.46,198.86)" d="M-3.978166224223493,-9.249421251756642L-4.021811464190937,9.230527208480693L7.99997768841443,0.018894043275949637Z" style="opacity: 1; stroke-width: 0px; fill: rgb(126, 174, 121); fill-opacity: 1;"/><path class="point" transform="translate(457.23,198.9)" d="M-4.00058985903111,-9.239744627413545L-3.999410124667505,9.240255334930255L7.999999983698615,-0.0005107075167121111Z" style="opacity: 1; stroke-width: 0px; fill: rgb(242, 211, 56); fill-opacity: 1;"/><path class="point" transform="translate(557,198.91)" d="M-4.003755420412002,-9.238373370541023L-3.996243918727773,9.241625102871858L7.999999339139776,-0.0032517323308350957Z" style="opacity: 1; stroke-width: 0px; fill: rgb(242, 177, 56); fill-opacity: 1;"/><path class="point" transform="translate(655.95,193.98)" d="M-5.91479434422489,-8.14817819303955L-1.8935060203988527,9.888995649241297L7.808300364623743,-1.7408174562017478Z" style="opacity: 1; stroke-width: 0px; fill: rgb(242, 143, 56); fill-opacity: 1;"/><path class="point" transform="translate(752.56,175.11)" d="M-4.097359680930159,-9.197241088776998L-3.902194175860303,9.28172832040897L7.999553856790462,-0.08448723163197253Z" style="opacity: 1; stroke-width: 0px; fill: rgb(230, 87, 43); fill-opacity: 1;"/><path class="point" transform="translate(852.33,174.83)" d="M-3.996651627547407,-9.241448791613935L-4.003347847263785,9.23854999519992L7.999999474811192,0.0028987964140167032Z" style="opacity: 1; stroke-width: 0px; fill: rgb(217, 30, 30); fill-opacity: 1;"/></g><g class="text"/></g><g class="trace scatter trace809a78" style="stroke-miterlimit: 2; opacity: 1;"><g class="fills"/><g class="errorbars"/><g class="lines"><path class="js-line" d="M63.3,182L894.7,182" style="vector-effect: none; fill: none; stroke: rgb(0, 0, 0); stroke-opacity: 1; stroke-width: 2px; opacity: 1;"/></g><g class="points"/><g class="text"/></g><g class="trace scatter trace61cb40" style="stroke-miterlimit: 2; opacity: 1;"><g class="fills"/><g class="errorbars"/><g class="lines"><path class="js-line" d="M63.3,182L220.16,182.73L223.47,182.97L243.24,185.19L246.52,185.69L266.1,189.49L269.35,190.25L288.88,194.38L292.15,194.93L311.88,197.46L315.19,197.75L335.11,198.68L338.45,198.71L635.54,198.04L638.86,197.8L658.64,195.62L661.93,195.13L684.79,190.69L688.05,189.96L707.67,186.36L710.96,185.89L730.76,183.78L734.07,183.56L757.38,182.95L760.72,182.94L890.94,182.87" style="vector-effect: none; fill: none; stroke: rgb(100, 143, 255); stroke-opacity: 1; stroke-width: 2px; opacity: 1;"/></g><g class="points"/><g class="text"/></g><g class="trace scatter trace693902" style="stroke-miterlimit: 2; opacity: 1;"><g class="fills"/><g class="errorbars"/><g class="lines"/><g class="points"><path class="point" transform="translate(63.3,182)" d="M-4.000000000000001,-9.24L-3.9999999999999996,9.24L8,-4.898587196589413e-16Z" style="opacity: 1; stroke-width: 0px; fill: rgb(12, 51, 131); fill-opacity: 1;"/><path class="point" transform="translate(163.06,182.01)" d="M-3.987351983423352,-9.245465059167648L-4.012640526196326,9.234517638053807L7.999992509619678,0.010947421113841407Z" style="opacity: 1; stroke-width: 0px; fill: rgb(11, 94, 159); fill-opacity: 1;"/><path class="point" transform="translate(262.07,188.59)" d="M-1.9701446144322379,-9.87401287209125L-5.851422074528801,8.193806179408753L7.821566688961039,1.680206692682495Z" style="opacity: 1; stroke-width: 0px; fill: rgb(10, 136, 186); fill-opacity: 1;"/><path class="point" transform="translate(360.62,198.72)" d="M-3.994601698730851,-9.242335054979158L-4.00539693630733,9.237661791959038L7.99999863503818,0.004673263020120541Z" style="opacity: 1; stroke-width: 0px; fill: rgb(126, 174, 121); fill-opacity: 1;"/><path class="point" transform="translate(460.39,198.73)" d="M-4.000153132921235,-9.239933707185374L-3.9998468659801225,9.240066290276763L7.999999998901358,-0.0001325830913907195Z" style="opacity: 1; stroke-width: 0px; fill: rgb(242, 211, 56); fill-opacity: 1;"/><path class="point" transform="translate(560.16,198.73)" d="M-4.001028000594961,-9.239554910192108L-3.998971949891531,9.24044497543169L7.999999950486492,-0.000890065239580112Z" style="opacity: 1; stroke-width: 0px; fill: rgb(242, 177, 56); fill-opacity: 1;"/><path class="point" transform="translate(659.56,195.49)" d="M-5.30043537999649,-8.560548158995514L-2.6146232924601085,9.723237374379229L7.915058672456598,-1.1626892153837147Z" style="opacity: 1; stroke-width: 0px; fill: rgb(242, 143, 56); fill-opacity: 1;"/><path class="point" transform="translate(757.92,182.94)" d="M-4.026805680242263,-9.22834958232341L-3.973160613032572,9.251572555141458L7.999966293274834,-0.02322297281804804Z" style="opacity: 1; stroke-width: 0px; fill: rgb(230, 87, 43); fill-opacity: 1;"/><path class="point" transform="translate(857.68,182.87)" d="M-3.9990693803926405,-9.24040280998648L-4.000930579033949,9.239597096288945L7.99999995942659,0.0008057136975362172Z" style="opacity: 1; stroke-width: 0px; fill: rgb(217, 30, 30); fill-opacity: 1;"/></g><g class="text"/></g><g class="trace scatter trace81fbd6" style="stroke-miterlimit: 2; opacity: 1;"><g class="fills"/><g class="errorbars"/><g class="lines"><path class="js-line" d="M63.3,192.39L894.7,192.39" style="vector-effect: none; fill: none; stroke: rgb(0, 0, 0); stroke-opacity: 1; stroke-width: 2px; opacity: 1;"/></g><g class="points"/><g class="text"/></g><g class="trace scatter trace3942c2" style="stroke-miterlimit: 2; opacity: 1;"><g class="fills"/><g class="errorbars"/><g class="lines"><path class="js-line" d="M63.3,192.39L233.55,193.06L236.89,193.2L270.18,195.45L273.5,195.74L306.79,197.92L310.13,198.05L343.49,198.64L346.83,198.64L650.64,197.92L653.98,197.77L687.26,195.47L690.59,195.18L723.89,193.1L727.22,192.97L760.59,192.45L763.93,192.45L894.15,192.44" style="vector-effect: none; fill: none; stroke: rgb(100, 143, 255); stroke-opacity: 1; stroke-width: 2px; opacity: 1;"/></g><g class="points"/><g class="text"/></g><g class="trace scatter trace07e323" style="stroke-miterlimit: 2; opacity: 1;"><g class="fills"/><g class="errorbars"/><g class="lines"/><g class="points"><path class="point" transform="translate(63.3,192.39)" d="M-4.000000000000001,-9.24L-3.9999999999999996,9.24L8,-4.898587196589413e-16Z" style="opacity: 1; stroke-width: 0px; fill: rgb(12, 51, 131); fill-opacity: 1;"/><path class="point" transform="translate(163.06,192.39)" d="M-3.9993184166834155,-9.240295027864471L-4.000681561552516,9.23970492186053L7.999999978235931,0.0005901060039396689Z" style="opacity: 1; stroke-width: 0px; fill: rgb(11, 94, 159); fill-opacity: 1;"/><path class="point" transform="translate(262.72,194.82)" d="M-3.255154638241469,-9.52793620261676L-4.719683911114185,8.893940846394804L7.974838549355654,0.6339953562219549Z" style="opacity: 1; stroke-width: 0px; fill: rgb(10, 136, 186); fill-opacity: 1;"/><path class="point" transform="translate(362.32,198.64)" d="M-3.9996810879838027,-9.240138050615082L-4.000318907251325,9.239861938378061L7.999999995235127,0.0002761122370224887Z" style="opacity: 1; stroke-width: 0px; fill: rgb(126, 174, 121); fill-opacity: 1;"/><path class="point" transform="translate(462.09,198.64)" d="M-4.000009006147053,-9.23999610122983L-3.9999909938491465,9.240003898761392L7.9999999999961995,-0.0000077975315613711Z" style="opacity: 1; stroke-width: 0px; fill: rgb(242, 211, 56); fill-opacity: 1;"/><path class="point" transform="translate(561.86,198.64)" d="M-4.000065558901929,-9.239971619246814L-3.9999344408967072,9.240028380288036L7.999999999798637,-0.00005676104122188916Z" style="opacity: 1; stroke-width: 0px; fill: rgb(242, 177, 56); fill-opacity: 1;"/><path class="point" transform="translate(661.57,197.37)" d="M-4.522140436240443,-8.995990544399161L-3.4647532661324694,9.453733908082265L7.986893702372912,-0.4577433636831054Z" style="opacity: 1; stroke-width: 0px; fill: rgb(242, 143, 56); fill-opacity: 1;"/><path class="point" transform="translate(761.12,192.45)" d="M-4.001536102520525,-9.239334868929951L-3.9984637869221014,9.240664875682516L7.999999889442627,-0.001330006752564509Z" style="opacity: 1; stroke-width: 0px; fill: rgb(230, 87, 43); fill-opacity: 1;"/><path class="point" transform="translate(860.89,192.44)" d="M-3.999946262326631,-9.240023262876518L-4.000053737538077,9.239976736810958L7.999999999864708,0.00004652606556123933Z" style="opacity: 1; stroke-width: 0px; fill: rgb(217, 30, 30); fill-opacity: 1;"/></g><g class="text"/></g><g class="trace scatter trace097b51" style="stroke-miterlimit: 2; opacity: 1;"><g class="fills"/><g class="errorbars"/><g class="lines"><path class="js-line" d="M63.3,202.79L894.7,202.79" style="vector-effect: none; fill: none; stroke: rgb(0, 0, 0); stroke-opacity: 1; stroke-width: 2px; opacity: 1;"/></g><g class="points"/><g class="text"/></g><g class="trace scatter trace8c815d" style="stroke-miterlimit: 2; opacity: 1;"><g class="fills"/><g class="errorbars"/><g class="lines"><path class="js-line" d="M63.3,202.79L894.7,202.79" style="vector-effect: none; fill: none; stroke: rgb(100, 143, 255); stroke-opacity: 1; stroke-width: 2px; opacity: 1;"/></g><g class="points"/><g class="text"/></g><g class="trace scatter tracef21bba" style="stroke-miterlimit: 2; opacity: 1;"><g class="fills"/><g class="errorbars"/><g class="lines"/><g class="points"><path class="point" transform="translate(63.3,202.79)" d="M-4.000000000000001,-9.24L-3.9999999999999996,9.24L8,-4.898587196589413e-16Z" style="opacity: 1; stroke-width: 0px; fill: rgb(12, 51, 131); fill-opacity: 1;"/><path class="point" transform="translate(163.06,202.79)" d="M-4.000000000000001,-9.24L-3.9999999999999996,9.24L8,-4.898587196589413e-16Z" style="opacity: 1; stroke-width: 0px; fill: rgb(11, 94, 159); fill-opacity: 1;"/><path class="point" transform="translate(262.83,202.79)" d="M-3.999999999976864,-9.240000000010015L-4.000000000023136,9.239999999989985L8,2.0031486219196965e-11Z" style="opacity: 1; stroke-width: 0px; fill: rgb(10, 136, 186); fill-opacity: 1;"/><path class="point" transform="translate(362.6,202.79)" d="M-4.000000000000001,-9.24L-3.9999999999999996,9.24L8,-4.898587196589413e-16Z" style="opacity: 1; stroke-width: 0px; fill: rgb(126, 174, 121); fill-opacity: 1;"/><path class="point" transform="translate(462.37,202.79)" d="M-4.000000000000001,-9.24L-3.9999999999999996,9.24L8,-4.898587196589413e-16Z" style="opacity: 1; stroke-width: 0px; fill: rgb(242, 211, 56); fill-opacity: 1;"/><path class="point" transform="translate(562.14,202.79)" d="M-4.000000000000001,-9.24L-3.9999999999999996,9.24L8,-4.898587196589413e-16Z" style="opacity: 1; stroke-width: 0px; fill: rgb(242, 177, 56); fill-opacity: 1;"/><path class="point" transform="translate(661.91,202.79)" d="M-4.000000000016831,-9.239999999992714L-3.9999999999831695,9.240000000007287L8,-1.4571945012319914e-11Z" style="opacity: 1; stroke-width: 0px; fill: rgb(242, 143, 56); fill-opacity: 1;"/><path class="point" transform="translate(761.68,202.79)" d="M-4.000000000000001,-9.24L-3.9999999999999996,9.24L8,-4.898587196589413e-16Z" style="opacity: 1; stroke-width: 0px; fill: rgb(230, 87, 43); fill-opacity: 1;"/><path class="point" transform="translate(861.45,202.79)" d="M-4.000000000000001,-9.24L-3.9999999999999996,9.24L8,-4.898587196589413e-16Z" style="opacity: 1; stroke-width: 0px; fill: rgb(217, 30, 30); fill-opacity: 1;"/></g><g class="text"/></g><g class="trace scatter trace5cddf1" style="stroke-miterlimit: 2; opacity: 1;"><g class="fills"/><g class="errorbars"/><g class="lines"><path class="js-line" d="M63.3,213.18L894.7,213.18" style="vector-effect: none; fill: none; stroke: rgb(0, 0, 0); stroke-opacity: 1; stroke-width: 2px; opacity: 1;"/></g><g class="points"/><g class="text"/></g><g class="trace scatter tracedd61b2" style="stroke-miterlimit: 2; opacity: 1;"><g class="fills"/><g class="errorbars"/><g class="lines"><path class="js-line" d="M63.3,213.18L894.7,213.18" style="vector-effect: none; fill: none; stroke: rgb(100, 143, 255); stroke-opacity: 1; stroke-width: 2px; opacity: 1;"/></g><g class="points"/><g class="text"/></g><g class="trace scatter trace288963" style="stroke-miterlimit: 2; opacity: 1;"><g class="fills"/><g class="errorbars"/><g class="lines"/><g class="points"><path class="point" transform="translate(63.3,213.18)" d="M-4.000000000000001,-9.24L-3.9999999999999996,9.24L8,-4.898587196589413e-16Z" style="opacity: 1; stroke-width: 0px; fill: rgb(12, 51, 131); fill-opacity: 1;"/><path class="point" transform="translate(163.06,213.18)" d="M-4.000000000000001,-9.24L-3.9999999999999996,9.24L8,-4.898587196589413e-16Z" style="opacity: 1; stroke-width: 0px; fill: rgb(11, 94, 159); fill-opacity: 1;"/><path class="point" transform="translate(262.83,213.18)" d="M-3.9999999999976454,-9.24000000000102L-4.000000000002355,9.23999999999898L8,2.0387677929118285e-12Z" style="opacity: 1; stroke-width: 0px; fill: rgb(10, 136, 186); fill-opacity: 1;"/><path class="point" transform="translate(362.6,213.18)" d="M-4.000000000000001,-9.24L-3.9999999999999996,9.24L8,-4.898587196589413e-16Z" style="opacity: 1; stroke-width: 0px; fill: rgb(126, 174, 121); fill-opacity: 1;"/><path class="point" transform="translate(462.37,213.18)" d="M-4.000000000000001,-9.24L-3.9999999999999996,9.24L8,-4.898587196589413e-16Z" style="opacity: 1; stroke-width: 0px; fill: rgb(242, 211, 56); fill-opacity: 1;"/><path class="point" transform="translate(562.14,213.18)" d="M-4.000000000000001,-9.24L-3.9999999999999996,9.24L8,-4.898587196589413e-16Z" style="opacity: 1; stroke-width: 0px; fill: rgb(242, 177, 56); fill-opacity: 1;"/><path class="point" transform="translate(661.91,213.18)" d="M-4.000000000001716,-9.239999999999258L-3.999999999998284,9.240000000000743L8,-1.4855241764582684e-12Z" style="opacity: 1; stroke-width: 0px; fill: rgb(242, 143, 56); fill-opacity: 1;"/><path class="point" transform="translate(761.68,213.18)" d="M-4.000000000000001,-9.24L-3.9999999999999996,9.24L8,-4.898587196589413e-16Z" style="opacity: 1; stroke-width: 0px; fill: rgb(230, 87, 43); fill-opacity: 1;"/><path class="point" transform="translate(861.45,213.18)" d="M-4.000000000000001,-9.24L-3.9999999999999996,9.24L8,-4.898587196589413e-16Z" style="opacity: 1; stroke-width: 0px; fill: rgb(217, 30, 30); fill-opacity: 1;"/></g><g class="text"/></g><g class="trace scatter trace3752ce" style="stroke-miterlimit: 2; opacity: 1;"><g class="fills"/><g class="errorbars"/><g class="lines"><path class="js-line" d="M63.3,223.57L894.7,223.57" style="vector-effect: none; fill: none; stroke: rgb(0, 0, 0); stroke-opacity: 1; stroke-width: 2px; opacity: 1;"/></g><g class="points"/><g class="text"/></g><g class="trace scatter trace978a02" style="stroke-miterlimit: 2; opacity: 1;"><g class="fills"/><g class="errorbars"/><g class="lines"><path class="js-line" d="M63.3,223.57L894.7,223.57" style="vector-effect: none; fill: none; stroke: rgb(100, 143, 255); stroke-opacity: 1; stroke-width: 2px; opacity: 1;"/></g><g class="points"/><g class="text"/></g><g class="trace scatter trace2efa07" style="stroke-miterlimit: 2; opacity: 1;"><g class="fills"/><g class="errorbars"/><g class="lines"/><g class="points"><path class="point" transform="translate(63.3,223.57)" d="M-4.000000000000001,-9.24L-3.9999999999999996,9.24L8,-4.898587196589413e-16Z" style="opacity: 1; stroke-width: 0px; fill: rgb(12, 51, 131); fill-opacity: 1;"/><path class="point" transform="translate(163.06,223.57)" d="M-4.000000000000001,-9.24L-3.9999999999999996,9.24L8,-4.898587196589413e-16Z" style="opacity: 1; stroke-width: 0px; fill: rgb(11, 94, 159); fill-opacity: 1;"/><path class="point" transform="translate(262.83,223.57)" d="M-3.9999999999986158,-9.240000000000599L-4.000000000001385,9.239999999999402L8,1.19855100787551e-12Z" style="opacity: 1; stroke-width: 0px; fill: rgb(10, 136, 186); fill-opacity: 1;"/><path class="point" transform="translate(362.6,223.57)" d="M-4.000000000000001,-9.24L-3.9999999999999996,9.24L8,-4.898587196589413e-16Z" style="opacity: 1; stroke-width: 0px; fill: rgb(126, 174, 121); fill-opacity: 1;"/><path class="point" transform="translate(462.37,223.57)" d="M-4.000000000000001,-9.24L-3.9999999999999996,9.24L8,-4.898587196589413e-16Z" style="opacity: 1; stroke-width: 0px; fill: rgb(242, 211, 56); fill-opacity: 1;"/><path class="point" transform="translate(562.14,223.57)" d="M-4.000000000000001,-9.24L-3.9999999999999996,9.24L8,-4.898587196589413e-16Z" style="opacity: 1; stroke-width: 0px; fill: rgb(242, 177, 56); fill-opacity: 1;"/><path class="point" transform="translate(661.91,223.57)" d="M-4.00000000000101,-9.239999999999563L-3.99999999999899,9.240000000000437L8,-8.744574237045822e-13Z" style="opacity: 1; stroke-width: 0px; fill: rgb(242, 143, 56); fill-opacity: 1;"/><path class="point" transform="translate(761.68,223.57)" d="M-4.000000000000001,-9.24L-3.9999999999999996,9.24L8,-4.898587196589413e-16Z" style="opacity: 1; stroke-width: 0px; fill: rgb(230, 87, 43); fill-opacity: 1;"/><path class="point" transform="translate(861.45,223.57)" d="M-4.000000000000001,-9.24L-3.9999999999999996,9.24L8,-4.898587196589413e-16Z" style="opacity: 1; stroke-width: 0px; fill: rgb(217, 30, 30); fill-opacity: 1;"/></g><g class="text"/></g><g class="trace scatter trace282510" style="stroke-miterlimit: 2; opacity: 1;"><g class="fills"/><g class="errorbars"/><g class="lines"><path class="js-line" d="M788.45,144L447.93,185.81L445.44,186.12L169.55,220" style="vector-effect: none; fill: none; stroke: rgb(220, 38, 127); stroke-opacity: 1; stroke-width: 2px; opacity: 1;"/></g><g class="points"/><g class="text"/></g><g class="trace scatter tracee2d62e" style="stroke-miterlimit: 2; opacity: 1;"><g class="fills"/><g class="errorbars"/><g class="lines"/><g class="points"><path class="point" transform="translate(788.45,144)" d="M5.09625733962885,8.683649067545227L2.844111873501727,-9.658603814786405L-7.940369213130577,0.9749547472411789Z" style="opacity: 1; stroke-width: 0px; fill: rgb(12, 51, 131); fill-opacity: 1;"/><path class="point" transform="translate(714.19,153.12)" d="M5.09625733962885,8.683649067545227L2.844111873501727,-9.658603814786405L-7.940369213130577,0.9749547472411789Z" style="opacity: 1; stroke-width: 0px; fill: rgb(11, 94, 159); fill-opacity: 1;"/><path class="point" transform="translate(639.92,162.24)" d="M5.09625733962885,8.683649067545227L2.844111873501727,-9.658603814786405L-7.940369213130577,0.9749547472411789Z" style="opacity: 1; stroke-width: 0px; fill: rgb(10, 136, 186); fill-opacity: 1;"/><path class="point" transform="translate(565.65,171.36)" d="M5.09625733962885,8.683649067545227L2.844111873501727,-9.658603814786405L-7.940369213130577,0.9749547472411789Z" style="opacity: 1; stroke-width: 0px; fill: rgb(126, 174, 121); fill-opacity: 1;"/><path class="point" transform="translate(491.38,180.48)" d="M5.09625733962885,8.683649067545227L2.844111873501727,-9.658603814786405L-7.940369213130577,0.9749547472411789Z" style="opacity: 1; stroke-width: 0px; fill: rgb(242, 211, 56); fill-opacity: 1;"/><path class="point" transform="translate(417.11,189.6)" d="M5.09625733962885,8.683649067545227L2.844111873501727,-9.658603814786405L-7.940369213130577,0.9749547472411789Z" style="opacity: 1; stroke-width: 0px; fill: rgb(242, 177, 56); fill-opacity: 1;"/><path class="point" transform="translate(342.84,198.72)" d="M5.09625733962885,8.683649067545227L2.844111873501727,-9.658603814786405L-7.940369213130577,0.9749547472411789Z" style="opacity: 1; stroke-width: 0px; fill: rgb(242, 143, 56); fill-opacity: 1;"/><path class="point" transform="translate(268.57,207.84)" d="M5.09625733962885,8.683649067545227L2.844111873501727,-9.658603814786405L-7.940369213130577,0.9749547472411789Z" style="opacity: 1; stroke-width: 0px; fill: rgb(230, 87, 43); fill-opacity: 1;"/><path class="point" transform="translate(194.3,216.96)" d="M5.09625733962885,8.683649067545227L2.844111873501727,-9.658603814786405L-7.940369213130577,0.9749547472411789Z" style="opacity: 1; stroke-width: 0px; fill: rgb(217, 30, 30); fill-opacity: 1;"/></g><g class="text"/></g></g></g></g><path class="xlines-above crisp" d="M0,0" style="fill: none;"/><path class="ylines-above crisp" d="M0,0" style="fill: none;"/><g class="overlines-above"/><g class="xaxislayer-above"><g class="xtick"><text text-anchor="middle" x="0" y="400" transform="translate(184.3,0)" style="font-family: 'Open Sans', verdana, arial, sans-serif; font-size: 28px; fill: rgb(0, 0, 0); fill-opacity: 1; white-space: pre; opacity: 1;">−1500</text></g><g class="xtick"><text text-anchor="middle" x="0" y="400" style="font-family: 'Open Sans', verdana, arial, sans-serif; font-size: 28px; fill: rgb(0, 0, 0); fill-opacity: 1; white-space: pre; opacity: 1;" transform="translate(322.86,0)">−1000</text></g><g class="xtick"><text text-anchor="middle" x="0" y="400" style="font-family: 'Open Sans', verdana, arial, sans-serif; font-size: 28px; fill: rgb(0, 0, 0); fill-opacity: 1; white-space: pre; opacity: 1;" transform="translate(461.43,0)">−500</text></g><g class="xtick"><text text-anchor="middle" x="0" y="400" style="font-family: 'Open Sans', verdana, arial, sans-serif; font-size: 28px; fill: rgb(0, 0, 0); fill-opacity: 1; white-space: pre; opacity: 1;" transform="translate(600,0)">0</text></g><g class="xtick"><text text-anchor="middle" x="0" y="400" style="font-family: 'Open Sans', verdana, arial, sans-serif; font-size: 28px; fill: rgb(0, 0, 0); fill-opacity: 1; white-space: pre; opacity: 1;" transform="translate(738.57,0)">500</text></g><g class="xtick"><text text-anchor="middle" x="0" y="400" style="font-family: 'Open Sans', verdana, arial, sans-serif; font-size: 28px; fill: rgb(0, 0, 0); fill-opacity: 1; white-space: pre; opacity: 1;" transform="translate(877.14,0)">1000</text></g><g class="xtick"><text text-anchor="middle" x="0" y="400" style="font-family: 'Open Sans', verdana, arial, sans-serif; font-size: 28px; fill: rgb(0, 0, 0); fill-opacity: 1; white-space: pre; opacity: 1;" transform="translate(1015.7,0)">1500</text></g></g><g class="yaxislayer-above"><g class="ytick"><text text-anchor="end" x="120" y="9.799999999999999" transform="translate(0,355.28)" style="font-family: 'Open Sans', verdana, arial, sans-serif; font-size: 28px; fill: rgb(0, 0, 0); fill-opacity: 1; white-space: pre; opacity: 1;">−600</text></g><g class="ytick"><text text-anchor="end" x="120" y="9.799999999999999" style="font-family: 'Open Sans', verdana, arial, sans-serif; font-size: 28px; fill: rgb(0, 0, 0); fill-opacity: 1; white-space: pre; opacity: 1;" transform="translate(0,299.85)">−400</text></g><g class="ytick"><text text-anchor="end" x="120" y="9.799999999999999" style="font-family: 'Open Sans', verdana, arial, sans-serif; font-size: 28px; fill: rgb(0, 0, 0); fill-opacity: 1; white-space: pre; opacity: 1;" transform="translate(0,244.43)">−200</text></g><g class="ytick"><text text-anchor="end" x="120" y="9.799999999999999" style="font-family: 'Open Sans', verdana, arial, sans-serif; font-size: 28px; fill: rgb(0, 0, 0); fill-opacity: 1; white-space: pre; opacity: 1;" transform="translate(0,189)">0</text></g><g class="ytick"><text text-anchor="end" x="120" y="9.799999999999999" style="font-family: 'Open Sans', verdana, arial, sans-serif; font-size: 28px; fill: rgb(0, 0, 0); fill-opacity: 1; white-space: pre; opacity: 1;" transform="translate(0,133.57)">200</text></g><g class="ytick"><text text-anchor="end" x="120" y="9.799999999999999" style="font-family: 'Open Sans', verdana, arial, sans-serif; font-size: 28px; fill: rgb(0, 0, 0); fill-opacity: 1; white-space: pre; opacity: 1;" transform="translate(0,78.15)">400</text></g><g class="ytick"><text text-anchor="end" x="120" y="9.799999999999999" style="font-family: 'Open Sans', verdana, arial, sans-serif; font-size: 28px; fill: rgb(0, 0, 0); fill-opacity: 1; white-space: pre; opacity: 1;" transform="translate(0,22.72)">600</text></g></g><g class="overaxes-above"/></g></g><g class="polarlayer"/><g class="smithlayer"/><g class="ternarylayer"/><g class="geolayer"/><g class="funnelarealayer"/><g class="pielayer"/><g class="iciclelayer"/><g class="treemaplayer"/><g class="sunburstlayer"/><g class="glimages"/><defs id="topdefs-38d4de"><g class="clips"/><clipPath id="legend38d4de"><rect width="93" height="225" x="2" y="2"/></clipPath></defs><g class="layer-above"><g class="imagelayer"/><g class="shapelayer"/></g><g class="infolayer"><g class="legend" pointer-events="all" transform="translate(1098.1599999999999,7)"><rect class="bg" shape-rendering="crispEdges" style="stroke: rgb(0, 0, 0); stroke-opacity: 1; fill: rgb(255, 255, 255); fill-opacity: 1; stroke-width: 2px;" width="95" height="227" x="1" y="1"/><g class="scrollbox" transform="" clip-path="url(#legend38d4de)"><g class="groups" transform=""><g class="traces" transform="translate(2,28.650000000000002)" style="opacity: 1;"><text class="legendtext" text-anchor="start" x="5" y="12.090000000000002" style="font-family: 'Open Sans', verdana, arial, sans-serif; font-size: 31px; fill: rgb(0, 0, 0); fill-opacity: 1; white-space: pre;">OS</text><g class="layers"><g class="legendfill"/><g class="legendlines"/><g class="legendsymbols"><g class="legendpoints"/></g></g><rect class="legendtoggle" x="0" y="-21.650000000000002" width="87.796875" height="43.300000000000004" style="fill: rgb(0, 0, 0); fill-opacity: 0;"/></g><g class="traces" transform="translate(2,70)" style="opacity: 1;"><text class="legendtext" text-anchor="start" x="40" y="10.92" style="font-family: 'Open Sans', verdana, arial, sans-serif; font-size: 28px; fill: rgb(0, 0, 0); fill-opacity: 1; white-space: pre;">Ref</text><g class="layers" style="opacity: 1;"><g class="legendfill"/><g class="legendlines"><path class="js-line" d="M5,0h30" style="fill: none; stroke: rgb(0, 0, 0); stroke-opacity: 1; stroke-width: 2px;"/></g><g class="legendsymbols"><g class="legendpoints"/></g></g><rect class="legendtoggle" x="0" y="-19.7" width="87.796875" height="39.4" style="fill: rgb(0, 0, 0); fill-opacity: 0;"/></g><g class="traces" transform="translate(2,109.4)" style="opacity: 1;"><text class="legendtext" text-anchor="start" x="40" y="10.92" style="font-family: 'Open Sans', verdana, arial, sans-serif; font-size: 28px; fill: rgb(0, 0, 0); fill-opacity: 1; white-space: pre;">Pos</text><g class="layers" style="opacity: 1;"><g class="legendfill"/><g class="legendlines"><path class="js-line" d="M5,0h30" style="fill: none; stroke: rgb(100, 143, 255); stroke-opacity: 1; stroke-width: 2px;"/></g><g class="legendsymbols"><g class="legendpoints"/></g></g><rect class="legendtoggle" x="0" y="-19.7" width="87.796875" height="39.4" style="fill: rgb(0, 0, 0); fill-opacity: 0;"/></g></g><g class="groups" transform="translate(0,10)"><g class="traces" transform="translate(2,150.75)" style="opacity: 1;"><text class="legendtext" text-anchor="start" x="5" y="12.090000000000002" style="font-family: 'Open Sans', verdana, arial, sans-serif; font-size: 31px; fill: rgb(0, 0, 0); fill-opacity: 1; white-space: pre;">TS</text><g class="layers"><g class="legendfill"/><g class="legendlines"/><g class="legendsymbols"><g class="legendpoints"/></g></g><rect class="legendtoggle" x="0" y="-21.650000000000002" width="87.796875" height="43.300000000000004" style="fill: rgb(0, 0, 0); fill-opacity: 0;"/></g><g class="traces" transform="translate(2,192.1)" style="opacity: 1;"><text class="legendtext" text-anchor="start" x="40" y="10.92" style="font-family: 'Open Sans', verdana, arial, sans-serif; font-size: 28px; fill: rgb(0, 0, 0); fill-opacity: 1; white-space: pre;">Pos</text><g class="layers" style="opacity: 1;"><g class="legendfill"/><g class="legendlines"><path class="js-line" d="M5,0h30" style="fill: none; stroke: rgb(220, 38, 127); stroke-opacity: 1; stroke-width: 2px;"/></g><g class="legendsymbols"><g class="legendpoints"/></g></g><rect class="legendtoggle" x="0" y="-19.7" width="87.796875" height="39.4" style="fill: rgb(0, 0, 0); fill-opacity: 0;"/></g></g></g><rect class="scrollbar" rx="20" ry="3" width="0" height="0" style="fill: rgb(128, 139, 164); fill-opacity: 1;" x="0" y="0"/></g><g class="g-gtitle"/><g class="g-xtitle" transform="translate(0,-1.3000000000000114)"><text class="xtitle" x="600" y="444.3" text-anchor="middle" style="opacity: 1; font-family: 'Open Sans', verdana, arial, sans-serif; font-size: 34px; fill: rgb(0, 0, 0); fill-opacity: 1; white-space: pre;">East [m]</text></g><g class="g-ytitle" transform="translate(16.728515625,0)"><text class="ytitle" transform="rotate(-90,17.271874999999994,189)" x="17.271874999999994" y="189" text-anchor="middle" style="opacity: 1; font-family: 'Open Sans', verdana, arial, sans-serif; font-size: 34px; fill: rgb(0, 0, 0); fill-opacity: 1; white-space: pre;">North [m]</text></g></g></svg>