<svg class="main-svg" xmlns="http://www.w3.org/2000/svg" xmlns:xlink="http://www.w3.org/1999/xlink" width="1200" height="450" style="" viewBox="0 0 1200 450"><rect x="0" y="0" width="1200" height="450" style="fill: rgb(255, 255, 255); fill-opacity: 1;"/><defs id="defs-c0593a"><g class="clips"><clipPath id="clipc0593axyplot" class="plotclip"><rect width="958" height="366"/></clipPath><clipPath class="axesclip" id="clipc0593ax"><rect x="121" y="0" width="958" height="450"/></clipPath><clipPath class="axesclip" id="clipc0593ay"><rect x="0" y="5" width="1200" height="366"/></clipPath><clipPath class="axesclip" id="clipc0593axy"><rect x="121" y="5" width="958" height="366"/></clipPath></g><g class="gradients"/><g class="patterns"/></defs><g class="bglayer"/><g class="layer-below"><g class="imagelayer"/><g class="shapelayer"/></g><g class="cartesianlayer"><g class="subplot xy"><g class="layer-subplot"><g class="shapelayer"/><g class="imagelayer"/></g><g class="minor-gridlayer"><g class="x"/><g class="y"/></g><g class="gridlayer"><g class="x"><path class="xgrid crisp" transform="translate(234,0)" d="M0,5v366" style="stroke: rgb(200, 200, 200); stroke-opacity: 1; stroke-width: 1px;"/><path class="xgrid crisp" transform="translate(417,0)" d="M0,5v366" style="stroke: rgb(200, 200, 200); stroke-opacity: 1; stroke-width: 1px;"/><path class="xgrid crisp" transform="translate(783,0)" d="M0,5v366" style="stroke: rgb(200, 200, 200); stroke-opacity: 1; stroke-width: 1px;"/><path class="xgrid crisp" transform="translate(966,0)" d="M0,5v366" style="stroke: rgb(200, 200, 200); stroke-opacity: 1; stroke-width: 1px;"/></g><g class="y"><path class="ygrid crisp" transform="translate(0,334.4)" d="M121,0h958" style="stroke: rgb(200, 200, 200); stroke-opacity: 1; stroke-width: 1px;"/><path class="ygrid crisp" transform="translate(0,261.2)" d="M121,0h958" style="stroke: rgb(200, 200, 200); stroke-opacity: 1; stroke-width: 1px;"/><path class="ygrid crisp" transform="translate(0,114.8)" d="M121,0h958" style="stroke: rgb(200, 200, 200); stroke-opacity: 1; stroke-width: 1px;"/><path class="ygrid crisp" transform="translate(0,41.6)" d="M121,0h958" style="stroke: rgb(200, 200, 200); stroke-opacity: 1; stroke-width: 1px;"/></g></g><g class="zerolinelayer"><path class="xzl zl crisp" transform="translate(600,0)" d="M0,5v366" style="stroke: rgb(200, 200, 200); stroke-opacity: 1; stroke-width: 2px;"/><path class="yzl zl crisp" transform="translate(0,188)" d="M121,0h958" style="stroke: rgb(200, 200, 200); stroke-opacity: 1; stroke-width: 2px;"/></g><g class="layer-between"><g class="shapelayer"/><g class="imagelayer"/></g><path class="xlines-below"/><path class="ylines-below"/><g class="overlines-below"/><g class="xaxislayer-below"/><g class="yaxislayer-below"/><g class="overaxes-below"/><g class="overplot"><g class="xy" transform="translate(121,5)" clip-path="url(#clipc0593axyplot)"><g class="scatterlayer mlayer"><g class="trace scatter trace6cb547" style="stroke-miterlimit: 2; opacity: 1;"><g class="fills"/><g class="errorbars"/><g class="lines"><path class="js-line" d="M-70,128.1L1028,128.1" style="vector-effect: none; fill: none; stroke: rgb(0, 0, 0); stroke-opacity: 1; stroke-width: 2px; opacity: 1;"/></g><g class="points"/><g class="text"/></g><g class="trace scatter trace530ef8" style="stroke-miterlimit: 2; opacity: 1;"><g class="fills"/><g class="errorbars"/><g class="lines"><path class="js-line" d="M-70,128.1L1028,128.1" style="vector-effect: none; fill: none; stroke: rgb(100, 143, 255); stroke-opacity: 1; stroke-width: 2px; opacity: 1;"/></g><g class="points"/><g class="text"/></g><g class="trace scatter trace58cf83" style="stroke-miterlimit: 2; opacity: 1;"><g class="fills"/><g class="errorbars"/><g class="lines"/><g class="points"><path class="point" transform="translate(-70,128.1)" d="M0,0Z" style="opacity: 1; stroke-width: 0px; fill: rgb(12, 51, 131); fill-opacity: 1;"/><path class="point" transform="translate(39.8,128.1)" d="M-3.0000000000000004,-6.93L-2.9999999999999996,6.93L6,-3.6739403974420594e-16Z" style="opacity: 1; stroke-width: 0px; fill: rgb(11, 85, 153); fill-opacity: 1;"/><path class="point" transform="translate(149.6,128.1)" d="M-3.0000000000000004,-6.93L-2.9999999999999996,6.93L6,-3.6739403974420594e-16Z" style="opacity: 1; stroke-width: 0px; fill: rgb(10, 119, 175); fill-opacity: 1;"/><path class="point" transform="translate(259.4,128.1)" d="M-3.0000000000000004,-6.93L-2.9999999999999996,6.93L6,-3.6739403974420594e-16Z" style="opacity: 1; stroke-width: 0px; fill: rgb(56, 151, 160); fill-opacity: 1;"/><path class="point" transform="translate(369.2,128.1)" d="M-3.0000000000000004,-6.93L-2.9999999999999996,6.93L6,-3.6739403974420594e-16Z" style="opacity: 1; stroke-width: 0px; fill: rgb(149, 181, 108); fill-opacity: 1;"/><path class="point" transform="translate(479,128.1)" d="M-3.0000000000000004,-6.93L-2.9999999999999996,6.93L6,-3.6739403974420594e-16Z" style="opacity: 1; stroke-width: 0px; fill: rgb(242, 211, 56); fill-opacity: 1;"/><path class="point" transform="translate(588.8,128.1)" d="M-3.0000000000000004,-6.93L-2.9999999999999996,6.93L6,-3.6739403974420594e-16Z" style="opacity: 1; stroke-width: 0px; fill: rgb(242, 184, 56); fill-opacity: 1;"/><path class="point" transform="translate(698.6,128.1)" d="M-3.0000000000000004,-6.93L-2.9999999999999996,6.93L6,-3.6739403974420594e-16Z" style="opacity: 1; stroke-width: 0px; fill: rgb(242, 157, 56); fill-opacity: 1;"/><path class="point" transform="translate(808.4,128.1)" d="M-3.0000000000000004,-6.93L-2.9999999999999996,6.93L6,-3.6739403974420594e-16Z" style="opacity: 1; stroke-width: 0px; fill: rgb(237, 120, 51); fill-opacity: 1;"/><path class="point" transform="translate(918.2,128.1)" d="M-3.0000000000000004,-6.93L-2.9999999999999996,6.93L6,-3.6739403974420594e-16Z" style="opacity: 1; stroke-width: 0px; fill: rgb(227, 75, 40); fill-opacity: 1;"/><path class="point" transform="translate(1028,128.1)" d="M-3.0000000000000004,-6.93L-2.9999999999999996,6.93L6,-3.6739403974420594e-16Z" style="opacity: 1; stroke-width: 0px; fill: rgb(217, 30, 30); fill-opacity: 1;"/></g><g class="text"/></g><g class="trace scatter trace4efc3b" style="stroke-miterlimit: 2; opacity: 1;"><g class="fills"/><g class="errorbars"/><g class="lines"><path class="js-line" d="M-70,141.82L1028,141.82" style="vector-effect: none; fill: none; stroke: rgb(0, 0, 0); stroke-opacity: 1; stroke-width: 2px; opacity: 1;"/></g><g class="points"/><g class="text"/></g><g class="trace scatter traceeb598f" style="stroke-miterlimit: 2; opacity: 1;"><g class="fills"/><g class="errorbars"/><g class="lines"><path class="js-line" d="M-70,141.82L265.13,141.83L269.54,141.83L1028,141.82" style="vector-effect: none; fill: none; stroke: rgb(100, 143, 255); stroke-opacity: 1; stroke-width: 2px; opacity: 1;"/></g><g class="points"/><g class="text"/></g><g class="trace scatter trace31115e" style="stroke-miterlimit: 2; opacity: 1;"><g class="fills"/><g class="errorbars"/><g class="lines"/><g class="points"><path class="point" transform="translate(-70,141.82)" d="M0,0Z" style="opacity: 1; stroke-width: 0px; fill: rgb(12, 51, 131); fill-opacity: 1;"/><path class="point" transform="translate(39.8,141.83)" d="M-3.0000000000000004,-6.93L-2.9999999999999996,6.93L6,-3.6739403974420594e-16Z" style="opacity: 1; stroke-width: 0px; fill: rgb(11, 85, 153); fill-opacity: 1;"/><path class="point" transform="translate(149.6,141.83)" d="M-3.0000000000000004,-6.93L-2.9999999999999996,6.93L6,-3.6739403974420594e-16Z" style="opacity: 1; stroke-width: 0px; fill: rgb(10, 119, 175); fill-opacity: 1;"/><path class="point" transform="translate(259.4,141.83)" d="M-3.0000000000000004,-6.93L-2.9999999999999996,6.93L6,-3.6739403974420594e-16Z" style="opacity: 1; stroke-width: 0px; fill: rgb(56, 151, 160); fill-opacity: 1;"/><path class="point" transform="translate(369.2,141.83)" d="M-3.0000000000000004,-6.93L-2.9999999999999996,6.93L6,-3.6739403974420594e-16Z" style="opacity: 1; stroke-width: 0px; fill: rgb(149, 181, 108); fill-opacity: 1;"/><path class="point" transform="translate(479,141.83)" d="M-3.0000000000000004,-6.93L-2.9999999999999996,6.93L6,-3.6739403974420594e-16Z" style="opacity: 1; stroke-width: 0px; fill: rgb(242, 211, 56); fill-opacity: 1;"/><path class="point" transform="translate(588.8,141.83)" d="M-3.0000000000000004,-6.93L-2.9999999999999996,6.93L6,-3.6739403974420594e-16Z" style="opacity: 1; stroke-width: 0px; fill: rgb(242, 184, 56); fill-opacity: 1;"/><path class="point" transform="translate(698.6,141.83)" d="M-3.0000000000000004,-6.93L-2.9999999999999996,6.93L6,-3.6739403974420594e-16Z" style="opacity: 1; stroke-width: 0px; fill: rgb(242, 157, 56); fill-opacity: 1;"/><path class="point" transform="translate(808.4,141.83)" d="M-3.0000000000000004,-6.93L-2.9999999999999996,6.93L6,-3.6739403974420594e-16Z" style="opacity: 1; stroke-width: 0px; fill: rgb(237, 120, 51); fill-opacity: 1;"/><path class="point" transform="translate(918.2,141.82)" d="M-3.0000000000000004,-6.93L-2.9999999999999996,6.93L6,-3.6739403974420594e-16Z" style="opacity: 1; stroke-width: 0px; fill: rgb(227, 75, 40); fill-opacity: 1;"/><path class="point" transform="translate(1028,141.82)" d="M-3.0000000000000004,-6.93L-2.9999999999999996,6.93L6,-3.6739403974420594e-16Z" style="opacity: 1; stroke-width: 0px; fill: rgb(217, 30, 30); fill-opacity: 1;"/></g><g class="text"/></g><g class="trace scatter trace92bfc9" style="stroke-miterlimit: 2; opacity: 1;"><g class="fills"/><g class="errorbars"/><g class="lines"><path class="js-line" d="M-70,155.55L1028,155.55" style="vector-effect: none; fill: none; stroke: rgb(0, 0, 0); stroke-opacity: 1; stroke-width: 2px; opacity: 1;"/></g><g class="points"/><g class="text"/></g><g class="trace scatter trace1cc27c" style="stroke-miterlimit: 2; opacity: 1;"><g class="fills"/><g class="errorbars"/><g class="lines"><path class="js-line" d="M-70,155.55L1028,155.55" style="vector-effect: none; fill: none; stroke: rgb(100, 143, 255); stroke-opacity: 1; stroke-width: 2px; opacity: 1;"/></g><g class="points"/><g class="text"/></g><g class="trace scatter trace7fe42c" style="stroke-miterlimit: 2; opacity: 1;"><g class="fills"/><g class="errorbars"/><g class="lines"/><g class="points"><path class="point" transform="translate(-70,155.55)" d="M0,0Z" style="opacity: 1; stroke-width: 0px; fill: rgb(12, 51, 131); fill-opacity: 1;"/><path class="point" transform="translate(39.8,155.55)" d="M-3.0000000000000004,-6.93L-2.9999999999999996,6.93L6,-3.6739403974420594e-16Z" style="opacity: 1; stroke-width: 0px; fill: rgb(11, 85, 153); fill-opacity: 1;"/><path class="point" transform="translate(149.6,155.55)" d="M-3.0000000000000004,-6.93L-2.9999999999999996,6.93L6,-3.6739403974420594e-16Z" style="opacity: 1; stroke-width: 0px; fill: rgb(10, 119, 175); fill-opacity: 1;"/><path class="point" transform="translate(259.4,155.55)" d="M-3.0000000000000004,-6.93L-2.9999999999999996,6.93L6,-3.6739403974420594e-16Z" style="opacity: 1; stroke-width: 0px; fill: rgb(56, 151, 160); fill-opacity: 1;"/><path class="point" transform="translate(369.2,155.55)" d="M-3.0000000000000004,-6.93L-2.9999999999999996,6.93L6,-3.6739403974420594e-16Z" style="opacity: 1; stroke-width: 0px; fill: rgb(149, 181, 108); fill-opacity: 1;"/><path class="point" transform="translate(479,155.55)" d="M-3.0000000000000004,-6.93L-2.9999999999999996,6.93L6,-3.6739403974420594e-16Z" style="opacity: 1; stroke-width: 0px; fill: rgb(242, 211, 56); fill-opacity: 1;"/><path class="point" transform="translate(588.8,155.55)" d="M-3.0000000000000004,-6.93L-2.9999999999999996,6.93L6,-3.6739403974420594e-16Z" style="opacity: 1; stroke-width: 0px; fill: rgb(242, 184, 56); fill-opacity: 1;"/><path class="point" transform="translate(698.6,155.55)" d="M-3.0000000000000004,-6.93L-2.9999999999999996,6.93L6,-3.6739403974420594e-16Z" style="opacity: 1; stroke-width: 0px; fill: rgb(242, 157, 56); fill-opacity: 1;"/><path class="point" transform="translate(808.4,155.55)" d="M-3.0000000000000004,-6.93L-2.9999999999999996,6.93L6,-3.6739403974420594e-16Z" style="opacity: 1; stroke-width: 0px; fill: rgb(237, 120, 51); fill-opacity: 1;"/><path class="point" transform="translate(918.2,155.55)" d="M-3.0000000000000004,-6.93L-2.9999999999999996,6.93L6,-3.6739403974420594e-16Z" style="opacity: 1; stroke-width: 0px; fill: rgb(227, 75, 40); fill-opacity: 1;"/><path class="point" transform="translate(1028,155.55)" d="M-3.0000000000000004,-6.93L-2.9999999999999996,6.93L6,-3.6739403974420594e-16Z" style="opacity: 1; stroke-width: 0px; fill: rgb(217, 30, 30); fill-opacity: 1;"/></g><g class="text"/></g><g class="trace scatter tracea89d3a" style="stroke-miterlimit: 2; opacity: 1;"><g class="fills"/><g class="errorbars"/><g class="lines"><path class="js-line" d="M-70,169.28L1028,169.28" style="vector-effect: none; fill: none; stroke: rgb(0, 0, 0); stroke-opacity: 1; stroke-width: 2px; opacity: 1;"/></g><g class="points"/><g class="text"/></g><g class="trace scatter trace58ebe6" style="stroke-miterlimit: 2; opacity: 1;"><g class="fills"/><g class="errorbars"/><g class="lines"><path class="js-line" d="M-70,169.28L-21.53,170.08L-17.13,170.24L31.25,172.81L35.65,173.13L79.56,176.98L83.95,177.41L154.05,185.27L158.42,185.81L254.63,197.59L259.01,197.96L298.53,200.43L302.93,200.6L342.57,201.32L346.98,201.32L549.82,201.06L554.23,201.01L633.55,199.45L637.94,199.22L668.56,196.75L672.92,196.28L703.33,192.13L707.66,191.41L737.85,185.57L742.15,184.62L780.86,176.36L785.18,175.6L815.53,171.26L819.88,170.77L850.44,168.34L854.82,168.13L885.59,167.6L890,167.64L1022.29,168.21" style="vector-effect: none; fill: none; stroke: rgb(100, 143, 255); stroke-opacity: 1; stroke-width: 2px; opacity: 1;"/></g><g class="points"/><g class="text"/></g><g class="trace scatter tracecf57ca" style="stroke-miterlimit: 2; opacity: 1;"><g class="fills"/><g class="errorbars"/><g class="lines"/><g class="points"><path class="point" transform="translate(-70,169.28)" d="M0,0Z" style="opacity: 1; stroke-width: 0px; fill: rgb(12, 51, 131); fill-opacity: 1;"/><path class="point" transform="translate(39.6,173.42)" d="M-2.736120143430055,-7.038362491426275L-3.2595988315308047,6.81174834073331L5.99571897496086,0.2266141506929651Z" style="opacity: 1; stroke-width: 0px; fill: rgb(11, 85, 153); fill-opacity: 1;"/><path class="point" transform="translate(148.8,184.62)" d="M-2.276936346052315,-7.2000320052084446L-3.6917226959715865,6.587570381866768L5.968659042023901,0.612461623341676Z" style="opacity: 1; stroke-width: 0px; fill: rgb(10, 119, 175); fill-opacity: 1;"/><path class="point" transform="translate(257.7,197.85)" d="M-2.1426864491791386,-7.24111833769509L-3.813554711552162,6.517798743594213L5.956241160731301,0.7233195941008761Z" style="opacity: 1; stroke-width: 0px; fill: rgb(56, 151, 160); fill-opacity: 1;"/><path class="point" transform="translate(367.26,201.34)" d="M-2.7781352440810547,-7.0218846875746035L-3.218830988263255,6.8311073091407515L5.99696623234431,0.19077737843385276Z" style="opacity: 1; stroke-width: 0px; fill: rgb(149, 181, 108); fill-opacity: 1;"/><path class="point" transform="translate(477.06,201.4)" d="M-2.9957994498073144,-6.931816908757342L-3.004199448264615,6.9281805457888135L5.999998898071929,0.0036363629685283935Z" style="opacity: 1; stroke-width: 0px; fill: rgb(242, 211, 56); fill-opacity: 1;"/><path class="point" transform="translate(586.85,200.59)" d="M-3.051369791639846,-6.907535189535252L-2.9484648320139084,6.952082791104922L5.999834623653754,-0.04454760156966988Z" style="opacity: 1; stroke-width: 0px; fill: rgb(242, 184, 56); fill-opacity: 1;"/><path class="point" transform="translate(695.96,193.27)" d="M-3.456642476690053,-6.713905181661568L-2.529930792774847,7.11507907080235L5.9865732694649,-0.4011738891407819Z" style="opacity: 1; stroke-width: 0px; fill: rgb(242, 157, 56); fill-opacity: 1;"/><path class="point" transform="translate(803.37,172.79)" d="M-4.2449028793710495,-6.245454310513157L-1.6489126654140527,7.369259597940429L5.893815544785102,-1.1238052874272715Z" style="opacity: 1; stroke-width: 0px; fill: rgb(237, 120, 51); fill-opacity: 1;"/><path class="point" transform="translate(912.49,167.83)" d="M-3.3119326916650955,-6.7864572381972605L-2.681864411253346,7.059214069544338L5.993797102918442,-0.27275683134707773Z" style="opacity: 1; stroke-width: 0px; fill: rgb(227, 75, 40); fill-opacity: 1;"/><path class="point" transform="translate(1022.29,168.21)" d="M-2.975830098140939,-6.940413188492345L-3.0241334641633983,6.919502640430675L5.9999635623043375,0.020910548061670472Z" style="opacity: 1; stroke-width: 0px; fill: rgb(217, 30, 30); fill-opacity: 1;"/></g><g class="text"/></g><g class="trace scatter traceff84f5" style="stroke-miterlimit: 2; opacity: 1;"><g class="fills"/><g class="errorbars"/><g class="lines"><path class="js-line" d="M-70,183L1028,183" style="vector-effect: none; fill: none; stroke: rgb(0, 0, 0); stroke-opacity: 1; stroke-width: 2px; opacity: 1;"/></g><g class="points"/><g class="text"/></g><g class="trace scatter trace38b34a" style="stroke-miterlimit: 2; opacity: 1;"><g class="fills"/><g class="errorbars"/><g class="lines"><path class="js-line" d="M-70,183L-8.28,183.72L-3.88,183.82L57.8,186.07L62.2,186.28L150.23,191.58L154.63,191.89L273.37,199.91L277.77,200.08L326.23,201.22L330.64,201.25L449.7,201.33L454.11,201.33L617.26,200.63L621.67,200.57L661.28,199.19L665.68,198.95L705.16,195.94L709.55,195.51L748.91,190.86L753.28,190.25L788.26,186.06L792.64,185.63L827.72,182.95L832.11,182.71L867.29,181.54L871.69,181.48L933.41,181.81L937.82,181.83L1026.02,182.07" style="vector-effect: none; fill: none; stroke: rgb(100, 143, 255); stroke-opacity: 1; stroke-width: 2px; opacity: 1;"/></g><g class="points"/><g class="text"/></g><g class="trace scatter tracef5d739" style="stroke-miterlimit: 2; opacity: 1;"><g class="fills"/><g class="errorbars"/><g class="lines"/><g class="points"><path class="point" transform="translate(-70,183)" d="M0,0Z" style="opacity: 1; stroke-width: 0px; fill: rgb(12, 51, 131); fill-opacity: 1;"/><path class="point" transform="translate(39.74,185.26)" d="M-2.85651720082382,-6.9903654755239835L-3.1422080242465613,6.866689794388597L5.998725225070381,0.12367568113538585Z" style="opacity: 1; stroke-width: 0px; fill: rgb(11, 85, 153); fill-opacity: 1;"/><path class="point" transform="translate(149.35,191.52)" d="M-2.6002799243779045,-7.089671664814756L-3.389973218754303,6.747813095820644L5.9902531431322075,0.34185856899411177Z" style="opacity: 1; stroke-width: 0px; fill: rgb(10, 119, 175); fill-opacity: 1;"/><path class="point" transform="translate(258.84,199.26)" d="M-2.5041352975430824,-7.1241986504868615L-3.4809451715681163,6.7013372331600065L5.985080469111199,0.42286141732685434Z" style="opacity: 1; stroke-width: 0px; fill: rgb(56, 151, 160); fill-opacity: 1;"/><path class="point" transform="translate(368.56,201.3)" d="M-2.870252932660185,-6.984736795510308L-3.128703816851027,6.872853295860592L5.998956749511212,0.1118834996497153Z" style="opacity: 1; stroke-width: 0px; fill: rgb(149, 181, 108); fill-opacity: 1;"/><path class="point" transform="translate(478.36,201.33)" d="M-2.997899862355382,-6.930908772685554L-3.0020998621625434,6.929090590950852L5.9999997245179255,0.0018181817347018422Z" style="opacity: 1; stroke-width: 0px; fill: rgb(242, 211, 56); fill-opacity: 1;"/><path class="point" transform="translate(588.16,200.9)" d="M-3.0272765102045303,-6.9181281377814825L-2.9726769338635104,6.94176431801569L5.999953444068041,-0.023636180234207625Z" style="opacity: 1; stroke-width: 0px; fill: rgb(242, 184, 56); fill-opacity: 1;"/><path class="point" transform="translate(697.71,196.62)" d="M-3.268492876339817,-6.807485168350782L-2.7269250038167847,7.041930134810968L5.995417880156602,-0.2344449664601871Z" style="opacity: 1; stroke-width: 0px; fill: rgb(242, 157, 56); fill-opacity: 1;"/><path class="point" transform="translate(806.66,184.4)" d="M-3.7536964569162254,-6.552454723943888L-2.2089199377829134,7.221189147811123L5.962616394699139,-0.6687344238672348Z" style="opacity: 1; stroke-width: 0px; fill: rgb(237, 120, 51); fill-opacity: 1;"/><path class="point" transform="translate(916.22,181.7)" d="M-3.170035750020055,-6.853887462133791L-2.8281384541588923,7.001894949519576L5.998174204178947,-0.14800748738578476Z" style="opacity: 1; stroke-width: 0px; fill: rgb(227, 75, 40); fill-opacity: 1;"/><path class="point" transform="translate(1026.02,182.07)" d="M-2.9763559120645047,-6.940187712498753L-3.0236092172537274,6.919731736226362L5.999965129318232,0.020455976272390982Z" style="opacity: 1; stroke-width: 0px; fill: rgb(217, 30, 30); fill-opacity: 1;"/></g><g class="text"/></g><g class="trace scatter tracea0ce8c" style="stroke-miterlimit: 2; opacity: 1;"><g class="fills"/><g class="errorbars"/><g class="lines"><path class="js-line" d="M-70,196.73L1028,196.73" style="vector-effect: none; fill: none; stroke: rgb(0, 0, 0); stroke-opacity: 1; stroke-width: 2px; opacity: 1;"/></g><g class="points"/><g class="text"/></g><g class="trace scatter tracebe82fe" style="stroke-miterlimit: 2; opacity: 1;"><g class="fills"/><g class="errorbars"/><g class="lines"><path class="js-line" d="M-70,196.73L57.87,197.46L62.28,197.52L203.37,199.84L207.78,199.93L318.01,201.25L322.42,201.26L604.63,201.16L609.04,201.15L692.81,200.24L697.22,200.14L776.55,197.78L780.96,197.65L855.9,196.35L860.31,196.32L957.32,196.41L961.73,196.41L1027.87,196.45" style="vector-effect: none; fill: none; stroke: rgb(100, 143, 255); stroke-opacity: 1; stroke-width: 2px; opacity: 1;"/></g><g class="points"/><g class="text"/></g><g class="trace scatter trace2bbd2f" style="stroke-miterlimit: 2; opacity: 1;"><g class="fills"/><g class="errorbars"/><g class="lines"/><g class="points"><path class="point" transform="translate(-70,196.73)" d="M0,0Z" style="opacity: 1; stroke-width: 0px; fill: rgb(12, 51, 131); fill-opacity: 1;"/><path class="point" transform="translate(39.8,197.27)" d="M-2.9653129338199906,-6.944913189127699L-3.0346120675862296,6.91491356412067L5.99992500140622,0.029999625007029795Z" style="opacity: 1; stroke-width: 0px; fill: rgb(11, 85, 153); fill-opacity: 1;"/><path class="point" transform="translate(149.58,198.81)" d="M-2.9031032434278354,-6.971147076199066L-3.096313744766062,6.887506166528838L5.9994169881938975,0.08364090967022779Z" style="opacity: 1; stroke-width: 0px; fill: rgb(10, 119, 175); fill-opacity: 1;"/><path class="point" transform="translate(259.37,200.77)" d="M-2.8750926261464205,-6.982746049447773L-3.123940217517908,6.875019819416826L5.999032843664328,0.10772623003094693Z" style="opacity: 1; stroke-width: 0px; fill: rgb(56, 151, 160); fill-opacity: 1;"/><path class="point" transform="translate(369.16,201.29)" d="M-2.967414796277716,-6.944015367698438L-3.0325190102155877,6.915831725301092L5.999933806493304,0.028183642397347143Z" style="opacity: 1; stroke-width: 0px; fill: rgb(149, 181, 108); fill-opacity: 1;"/><path class="point" transform="translate(478.96,201.3)" d="M-2.999474991392691,-6.930227252840257L-3.0005249913896783,6.9297727073870155L5.999999982782369,0.0004545454532412466Z" style="opacity: 1; stroke-width: 0px; fill: rgb(242, 211, 56); fill-opacity: 1;"/><path class="point" transform="translate(588.76,201.2)" d="M-3.006298757728044,-6.927269864765109L-2.99369876293465,6.932724407965712L5.999997520662694,-0.0054545432006033534Z" style="opacity: 1; stroke-width: 0px; fill: rgb(242, 184, 56); fill-opacity: 1;"/><path class="point" transform="translate(698.54,200.12)" d="M-3.0681115088485886,-6.90011534463525L-2.9315974461729595,6.959212341464527L5.999708955021548,-0.059096996829276695Z" style="opacity: 1; stroke-width: 0px; fill: rgb(242, 157, 56); fill-opacity: 1;"/><path class="point" transform="translate(808.29,196.99)" d="M-3.1961921781343055,-6.84172898911036L-2.8013729306800244,7.012646412250742L5.99756510881433,-0.1709174231403816Z" style="opacity: 1; stroke-width: 0px; fill: rgb(237, 120, 51); fill-opacity: 1;"/><path class="point" transform="translate(918.07,196.34)" d="M-3.041426799483401,-6.91191891035942L-2.9584657156011653,6.947832799485928L5.999892515084566,-0.03591388912650885Z" style="opacity: 1; stroke-width: 0px; fill: rgb(227, 75, 40); fill-opacity: 1;"/><path class="point" transform="translate(1027.87,196.45)" d="M-2.9926483168075513,-6.933177918668244L-3.007348308539648,6.926814285883786L5.999996625347199,0.006363632784457568Z" style="opacity: 1; stroke-width: 0px; fill: rgb(217, 30, 30); fill-opacity: 1;"/></g><g class="text"/></g><g class="trace scatter tracedf8cac" style="stroke-miterlimit: 2; opacity: 1;"><g class="fills"/><g class="errorbars"/><g class="lines"><path class="js-line" d="M-70,210.45L1028,210.45" style="vector-effect: none; fill: none; stroke: rgb(0, 0, 0); stroke-opacity: 1; stroke-width: 2px; opacity: 1;"/></g><g class="points"/><g class="text"/></g><g class="trace scatter trace7c3706" style="stroke-miterlimit: 2; opacity: 1;"><g class="fills"/><g class="errorbars"/><g class="lines"><path class="js-line" d="M-70,210.45L1028,210.45" style="vector-effect: none; fill: none; stroke: rgb(100, 143, 255); stroke-opacity: 1; stroke-width: 2px; opacity: 1;"/></g><g class="points"/><g class="text"/></g><g class="trace scatter trace0b4ada" style="stroke-miterlimit: 2; opacity: 1;"><g class="fills"/><g class="errorbars"/><g class="lines"/><g class="points"><path class="point" transform="translate(-70,210.45)" d="M0,0Z" style="opacity: 1; stroke-width: 0px; fill: rgb(12, 51, 131); fill-opacity: 1;"/><path class="point" transform="translate(39.8,210.45)" d="M-3.0000000000000004,-6.93L-2.9999999999999996,6.93L6,-3.6739403974420594e-16Z" style="opacity: 1; stroke-width: 0px; fill: rgb(11, 85, 153); fill-opacity: 1;"/><path class="point" transform="translate(149.6,210.45)" d="M-3.0000000000000004,-6.93L-2.9999999999999996,6.93L6,-3.6739403974420594e-16Z" style="opacity: 1; stroke-width: 0px; fill: rgb(10, 119, 175); fill-opacity: 1;"/><path class="point" transform="translate(259.4,210.45)" d="M-3.0000000000000004,-6.93L-2.9999999999999996,6.93L6,-3.6739403974420594e-16Z" style="opacity: 1; stroke-width: 0px; fill: rgb(56, 151, 160); fill-opacity: 1;"/><path class="point" transform="translate(369.2,210.45)" d="M-3.0000000000000004,-6.93L-2.9999999999999996,6.93L6,-3.6739403974420594e-16Z" style="opacity: 1; stroke-width: 0px; fill: rgb(149, 181, 108); fill-opacity: 1;"/><path class="point" transform="translate(479,210.45)" d="M-3.0000000000000004,-6.93L-2.9999999999999996,6.93L6,-3.6739403974420594e-16Z" style="opacity: 1; stroke-width: 0px; fill: rgb(242, 211, 56); fill-opacity: 1;"/><path class="point" transform="translate(588.8,210.45)" d="M-3.0000000000000004,-6.93L-2.9999999999999996,6.93L6,-3.6739403974420594e-16Z" style="opacity: 1; stroke-width: 0px; fill: rgb(242, 184, 56); fill-opacity: 1;"/><path class="point" transform="translate(698.6,210.45)" d="M-3.0000000000000004,-6.93L-2.9999999999999996,6.93L6,-3.6739403974420594e-16Z" style="opacity: 1; stroke-width: 0px; fill: rgb(242, 157, 56); fill-opacity: 1;"/><path class="point" transform="translate(808.4,210.45)" d="M-3.0000000000000004,-6.93L-2.9999999999999996,6.93L6,-3.6739403974420594e-16Z" style="opacity: 1; stroke-width: 0px; fill: rgb(237, 120, 51); fill-opacity: 1;"/><path class="point" transform="translate(918.2,210.45)" d="M-3.0000000000000004,-6.93L-2.9999999999999996,6.93L6,-3.6739403974420594e-16Z" style="opacity: 1; stroke-width: 0px; fill: rgb(227, 75, 40); fill-opacity: 1;"/><path class="point" transform="translate(1028,210.45)" d="M-3.0000000000000004,-6.93L-2.9999999999999996,6.93L6,-3.6739403974420594e-16Z" style="opacity: 1; stroke-width: 0px; fill: rgb(217, 30, 30); fill-opacity: 1;"/></g><g class="text"/></g><g class="trace scatter traceb7ad6a" style="stroke-miterlimit: 2; opacity: 1;"><g class="fills"/><g class="errorbars"/><g class="lines"><path class="js-line" d="M-70,224.18L1028,224.18" style="vector-effect: none; fill: none; stroke: rgb(0, 0, 0); stroke-opacity: 1; stroke-width: 2px; opacity: 1;"/></g><g class="points"/><g class="text"/></g><g class="trace scatter trace52317a" style="stroke-miterlimit: 2; opacity: 1;"><g class="fills"/><g class="errorbars"/><g class="lines"><path class="js-line" d="M-70,224.18L1028,224.17" style="vector-effect: none; fill: none; stroke: rgb(100, 143, 255); stroke-opacity: 1; stroke-width: 2px; opacity: 1;"/></g><g class="points"/><g class="text"/></g><g class="trace scatter tracea7baec" style="stroke-miterlimit: 2; opacity: 1;"><g class="fills"/><g class="errorbars"/><g class="lines"/><g class="points"><path class="point" transform="translate(-70,224.18)" d="M0,0Z" style="opacity: 1; stroke-width: 0px; fill: rgb(12, 51, 131); fill-opacity: 1;"/><path class="point" transform="translate(39.8,224.18)" d="M-3.0000000000000004,-6.93L-2.9999999999999996,6.93L6,-3.6739403974420594e-16Z" style="opacity: 1; stroke-width: 0px; fill: rgb(11, 85, 153); fill-opacity: 1;"/><path class="point" transform="translate(149.6,224.18)" d="M-3.0000000000000004,-6.93L-2.9999999999999996,6.93L6,-3.6739403974420594e-16Z" style="opacity: 1; stroke-width: 0px; fill: rgb(10, 119, 175); fill-opacity: 1;"/><path class="point" transform="translate(259.4,224.18)" d="M-3.0000000000000004,-6.93L-2.9999999999999996,6.93L6,-3.6739403974420594e-16Z" style="opacity: 1; stroke-width: 0px; fill: rgb(56, 151, 160); fill-opacity: 1;"/><path class="point" transform="translate(369.2,224.18)" d="M-3.0000000000000004,-6.93L-2.9999999999999996,6.93L6,-3.6739403974420594e-16Z" style="opacity: 1; stroke-width: 0px; fill: rgb(149, 181, 108); fill-opacity: 1;"/><path class="point" transform="translate(479,224.18)" d="M-3.0000000000000004,-6.93L-2.9999999999999996,6.93L6,-3.6739403974420594e-16Z" style="opacity: 1; stroke-width: 0px; fill: rgb(242, 211, 56); fill-opacity: 1;"/><path class="point" transform="translate(588.8,224.18)" d="M-3.0000000000000004,-6.93L-2.9999999999999996,6.93L6,-3.6739403974420594e-16Z" style="opacity: 1; stroke-width: 0px; fill: rgb(242, 184, 56); fill-opacity: 1;"/><path class="point" transform="translate(698.6,224.17)" d="M-3.0000000000000004,-6.93L-2.9999999999999996,6.93L6,-3.6739403974420594e-16Z" style="opacity: 1; stroke-width: 0px; fill: rgb(242, 157, 56); fill-opacity: 1;"/><path class="point" transform="translate(808.4,224.17)" d="M-3.0000000000000004,-6.93L-2.9999999999999996,6.93L6,-3.6739403974420594e-16Z" style="opacity: 1; stroke-width: 0px; fill: rgb(237, 120, 51); fill-opacity: 1;"/><path class="point" transform="translate(918.2,224.17)" d="M-3.0000000000000004,-6.93L-2.9999999999999996,6.93L6,-3.6739403974420594e-16Z" style="opacity: 1; stroke-width: 0px; fill: rgb(227, 75, 40); fill-opacity: 1;"/><path class="point" transform="translate(1028,224.17)" d="M-3.0000000000000004,-6.93L-2.9999999999999996,6.93L6,-3.6739403974420594e-16Z" style="opacity: 1; stroke-width: 0px; fill: rgb(217, 30, 30); fill-opacity: 1;"/></g><g class="text"/></g><g class="trace scatter trace5580ca" style="stroke-miterlimit: 2; opacity: 1;"><g class="fills"/><g class="errorbars"/><g class="lines"><path class="js-line" d="M-70,237.9L1028,237.9" style="vector-effect: none; fill: none; stroke: rgb(0, 0, 0); stroke-opacity: 1; stroke-width: 2px; opacity: 1;"/></g><g class="points"/><g class="text"/></g><g class="trace scatter trace9b9af5" style="stroke-miterlimit: 2; opacity: 1;"><g class="fills"/><g class="errorbars"/><g class="lines"><path class="js-line" d="M-70,237.9L1028,237.9" style="vector-effect: none; fill: none; stroke: rgb(100, 143, 255); stroke-opacity: 1; stroke-width: 2px; opacity: 1;"/></g><g class="points"/><g class="text"/></g><g class="trace scatter trace391cf5" style="stroke-miterlimit: 2; opacity: 1;"><g class="fills"/><g class="errorbars"/><g class="lines"/><g class="points"><path class="point" transform="translate(-70,237.9)" d="M0,0Z" style="opacity: 1; stroke-width: 0px; fill: rgb(12, 51, 131); fill-opacity: 1;"/><path class="point" transform="translate(39.8,237.9)" d="M-3.0000000000000004,-6.93L-2.9999999999999996,6.93L6,-3.6739403974420594e-16Z" style="opacity: 1; stroke-width: 0px; fill: rgb(11, 85, 153); fill-opacity: 1;"/><path class="point" transform="translate(149.6,237.9)" d="M-3.0000000000000004,-6.93L-2.9999999999999996,6.93L6,-3.6739403974420594e-16Z" style="opacity: 1; stroke-width: 0px; fill: rgb(10, 119, 175); fill-opacity: 1;"/><path class="point" transform="translate(259.4,237.9)" d="M-3.0000000000000004,-6.93L-2.9999999999999996,6.93L6,-3.6739403974420594e-16Z" style="opacity: 1; stroke-width: 0px; fill: rgb(56, 151, 160); fill-opacity: 1;"/><path class="point" transform="translate(369.2,237.9)" d="M-3.0000000000000004,-6.93L-2.9999999999999996,6.93L6,-3.6739403974420594e-16Z" style="opacity: 1; stroke-width: 0px; fill: rgb(149, 181, 108); fill-opacity: 1;"/><path class="point" transform="translate(479,237.9)" d="M-3.0000000000000004,-6.93L-2.9999999999999996,6.93L6,-3.6739403974420594e-16Z" style="opacity: 1; stroke-width: 0px; fill: rgb(242, 211, 56); fill-opacity: 1;"/><path class="point" transform="translate(588.8,237.9)" d="M-3.0000000000000004,-6.93L-2.9999999999999996,6.93L6,-3.6739403974420594e-16Z" style="opacity: 1; stroke-width: 0px; fill: rgb(242, 184, 56); fill-opacity: 1;"/><path class="point" transform="translate(698.6,237.9)" d="M-3.0000000000000004,-6.93L-2.9999999999999996,6.93L6,-3.6739403974420594e-16Z" style="opacity: 1; stroke-width: 0px; fill: rgb(242, 157, 56); fill-opacity: 1;"/><path class="point" transform="translate(808.4,237.9)" d="M-3.0000000000000004,-6.93L-2.9999999999999996,6.93L6,-3.6739403974420594e-16Z" style="opacity: 1; stroke-width: 0px; fill: rgb(237, 120, 51); fill-opacity: 1;"/><path class="point" transform="translate(918.2,237.9)" d="M-3.0000000000000004,-6.93L-2.9999999999999996,6.93L6,-3.6739403974420594e-16Z" style="opacity: 1; stroke-width: 0px; fill: rgb(227, 75, 40); fill-opacity: 1;"/><path class="point" transform="translate(1028,237.9)" d="M-3.0000000000000004,-6.93L-2.9999999999999996,6.93L6,-3.6739403974420594e-16Z" style="opacity: 1; stroke-width: 0px; fill: rgb(217, 30, 30); fill-opacity: 1;"/></g><g class="text"/></g><g class="trace scatter tracecc3a60" style="stroke-miterlimit: 2; opacity: 1;"><g class="fills"/><g class="errorbars"/><g class="lines"><path class="js-line" d="M887.68,132.82L70.32,233.18" style="vector-effect: none; fill: none; stroke: rgb(220, 38, 127); stroke-opacity: 1; stroke-width: 2px; opacity: 1;"/></g><g class="points"/><g class="text"/></g><g class="trace scatter tracea59ee2" style="stroke-miterlimit: 2; opacity: 1;"><g class="fills"/><g class="errorbars"/><g class="lines"/><g class="points"><path class="point" transform="translate(887.68,132.82)" d="M0,0Z" style="opacity: 1; stroke-width: 0px; fill: rgb(12, 51, 131); fill-opacity: 1;"/><path class="point" transform="translate(805.94,142.86)" d="M3.8225318225670075,6.512537943495035L2.1327070379435713,-7.244063824284401L-5.955238860510579,0.7315258807893665Z" style="opacity: 1; stroke-width: 0px; fill: rgb(11, 85, 153); fill-opacity: 1;"/><path class="point" transform="translate(724.21,152.89)" d="M3.821878861177571,6.512921154941461L2.133433311639256,-7.243849964265408L-5.955312172816827,0.7309288093239461Z" style="opacity: 1; stroke-width: 0px; fill: rgb(10, 119, 175); fill-opacity: 1;"/><path class="point" transform="translate(642.47,162.93)" d="M3.8224516256048964,6.512585014409446L2.1327962426076366,-7.244037561161505L-5.955247868212533,0.7314525467520605Z" style="opacity: 1; stroke-width: 0px; fill: rgb(56, 151, 160); fill-opacity: 1;"/><path class="point" transform="translate(560.74,172.96)" d="M3.821878861177571,6.512921154941461L2.133433311639256,-7.243849964265408L-5.955312172816827,0.7309288093239461Z" style="opacity: 1; stroke-width: 0px; fill: rgb(149, 181, 108); fill-opacity: 1;"/><path class="point" transform="translate(479,183)" d="M3.8225318225670075,6.512537943495035L2.1327070379435713,-7.244063824284401L-5.955238860510579,0.7315258807893665Z" style="opacity: 1; stroke-width: 0px; fill: rgb(242, 211, 56); fill-opacity: 1;"/><path class="point" transform="translate(397.26,193.04)" d="M3.8225318225670075,6.512537943495035L2.1327070379435713,-7.244063824284401L-5.955238860510579,0.7315258807893665Z" style="opacity: 1; stroke-width: 0px; fill: rgb(242, 184, 56); fill-opacity: 1;"/><path class="point" transform="translate(315.53,203.07)" d="M3.821878861177571,6.512921154941461L2.133433311639256,-7.243849964265408L-5.955312172816827,0.7309288093239461Z" style="opacity: 1; stroke-width: 0px; fill: rgb(242, 157, 56); fill-opacity: 1;"/><path class="point" transform="translate(233.79,213.11)" d="M3.8224516256048964,6.512585014409446L2.1327962426076366,-7.244037561161505L-5.955247868212533,0.7314525467520605Z" style="opacity: 1; stroke-width: 0px; fill: rgb(237, 120, 51); fill-opacity: 1;"/><path class="point" transform="translate(152.06,223.14)" d="M3.821878861177571,6.512921154941461L2.133433311639256,-7.243849964265408L-5.955312172816827,0.7309288093239461Z" style="opacity: 1; stroke-width: 0px; fill: rgb(227, 75, 40); fill-opacity: 1;"/><path class="point" transform="translate(70.32,233.18)" d="M3.8225318225670075,6.512537943495035L2.1327070379435713,-7.244063824284401L-5.955238860510579,0.7315258807893665Z" style="opacity: 1; stroke-width: 0px; fill: rgb(217, 30, 30); fill-opacity: 1;"/></g><g class="text"/></g></g></g></g><path class="xlines-above crisp" d="M0,0" style="fill: none;"/><path class="ylines-above crisp" d="M0,0" style="fill: none;"/><g class="overlines-above"/><g class="xaxislayer-above"><g class="xtick"><text text-anchor="middle" x="0" y="400" transform="translate(234,0)" style="font-family: 'Open Sans', verdana, arial, sans-serif; font-size: 28px; fill: rgb(0, 0, 0); fill-opacity: 1; white-space: pre; opacity: 1;">−1000</text></g><g class="xtick"><text text-anchor="middle" x="0" y="400" style="font-family: 'Open Sans', verdana, arial, sans-serif; font-size: 28px; fill: rgb(0, 0, 0); fill-opacity: 1; white-space: pre; opacity: 1;" transform="translate(417,0)">−500</text></g><g class="xtick"><text text-anchor="middle" x="0" y="400" style="font-family: 'Open Sans', verdana, arial, sans-serif; font-size: 28px; fill: rgb(0, 0, 0); fill-opacity: 1; white-space: pre; opacity: 1;" transform="translate(600,0)">0</text></g><g class="xtick"><text text-anchor="middle" x="0" y="400" style="font-family: 'Open Sans', verdana, arial, sans-serif; font-size: 28px; fill: rgb(0, 0, 0); fill-opacity: 1; white-space: pre; opacity: 1;" transform="translate(783,0)">500</text></g><g class="xtick"><text text-anchor="middle" x="0" y="400" style="font-family: 'Open Sans', verdana, arial, sans-serif; font-size: 28px; fill: rgb(0, 0, 0); fill-opacity: 1; white-space: pre; opacity: 1;" transform="translate(966,0)">1000</text></g></g><g class="yaxislayer-above"><g class="ytick"><text text-anchor="end" x="120" y="9.799999999999999" transform="translate(0,334.4)" style="font-family: 'Open Sans', verdana, arial, sans-serif; font-size: 28px; fill: rgb(0, 0, 0); fill-opacity: 1; white-space: pre; opacity: 1;">−400</text></g><g class="ytick"><text text-anchor="end" x="120" y="9.799999999999999" style="font-family: 'Open Sans', verdana, arial, sans-serif; font-size: 28px; fill: rgb(0, 0, 0); fill-opacity: 1; white-space: pre; opacity: 1;" transform="translate(0,261.2)">−200</text></g><g class="ytick"><text text-anchor="end" x="120" y="9.799999999999999" style="font-family: 'Open Sans', verdana, arial, sans-serif; font-size: 28px; fill: rgb(0, 0, 0); fill-opacity: 1; white-space: pre; opacity: 1;" transform="translate(0,188)">0</text></g><g class="ytick"><text text-anchor="end" x="120" y="9.799999999999999" style="font-family: 'Open Sans', verdana, arial, sans-serif; font-size: 28px; fill: rgb(0, 0, 0); fill-opacity: 1; white-space: pre; opacity: 1;" transform="translate(0,114.8)">200</text></g><g class="ytick"><text text-anchor="end" x="120" y="9.799999999999999" style="font-family: 'Open Sans', verdana, arial, sans-serif; font-size: 28px; fill: rgb(0, 0, 0); fill-opacity: 1; white-space: pre; opacity: 1;" transform="translate(0,41.6)">400</text></g></g><g class="overaxes-above"/></g></g><g class="polarlayer"/><g class="smithlayer"/><g class="ternarylayer"/><g class="geolayer"/><g class="funnelarealayer"/><g class="pielayer"/><g class="iciclelayer"/><g class="treemaplayer"/><g class="sunburstlayer"/><g class="glimages"/><defs id="topdefs-c0593a"><g class="clips"/><clipPath id="legendc0593a"><rect width="93" height="225" x="2" y="2"/></clipPath></defs><g class="layer-above"><g class="imagelayer"/><g class="shapelayer"/></g><g class="infolayer"><g class="legend" pointer-events="all" transform="translate(1098.1599999999999,5)"><rect class="bg" shape-rendering="crispEdges" width="95" height="227" x="1" y="1" style="stroke: rgb(0, 0, 0); stroke-opacity: 1; fill: rgb(255, 255, 255); fill-opacity: 1; stroke-width: 2px;"/><g class="scrollbox" transform="" clip-path="url(#legendc0593a)"><g class="groups" transform=""><g class="traces" transform="translate(2,28.650000000000002)" style="opacity: 1;"><text class="legendtext" text-anchor="start" x="5" y="12.090000000000002" style="font-family: 'Open Sans', verdana, arial, sans-serif; font-size: 31px; fill: rgb(0, 0, 0); fill-opacity: 1; white-space: pre;">OS</text><g class="layers"><g class="legendfill"/><g class="legendlines"/><g class="legendsymbols"><g class="legendpoints"/></g></g><rect class="legendtoggle" x="0" y="-21.650000000000002" width="87.796875" height="43.300000000000004" style="fill: rgb(0, 0, 0); fill-opacity: 0;"/></g><g class="traces" transform="translate(2,70)" style="opacity: 1;"><text class="legendtext" text-anchor="start" x="40" y="10.92" style="font-family: 'Open Sans', verdana, arial, sans-serif; font-size: 28px; fill: rgb(0, 0, 0); fill-opacity: 1; white-space: pre;">Ref</text><g class="layers" style="opacity: 1;"><g class="legendfill"/><g class="legendlines"><path class="js-line" d="M5,0h30" style="fill: none; stroke: rgb(0, 0, 0); stroke-opacity: 1; stroke-width: 2px;"/></g><g class="legendsymbols"><g class="legendpoints"/></g></g><rect class="legendtoggle" x="0" y="-19.7" width="87.796875" height="39.4" style="fill: rgb(0, 0, 0); fill-opacity: 0;"/></g><g class="traces" transform="translate(2,109.4)" style="opacity: 1;"><text class="legendtext" text-anchor="start" x="40" y="10.92" style="font-family: 'Open Sans', verdana, arial, sans-serif; font-size: 28px; fill: rgb(0, 0, 0); fill-opacity: 1; white-space: pre;">Pos</text><g class="layers" style="opacity: 1;"><g class="legendfill"/><g class="legendlines"><path class="js-line" d="M5,0h30" style="fill: none; stroke: rgb(100, 143, 255); stroke-opacity: 1; stroke-width: 2px;"/></g><g class="legendsymbols"><g class="legendpoints"/></g></g><rect class="legendtoggle" x="0" y="-19.7" width="87.796875" height="39.4" style="fill: rgb(0, 0, 0); fill-opacity: 0;"/></g></g><g class="groups" transform="translate(0,10)"><g class="traces" transform="translate(2,150.75)" style="opacity: 1;"><text class="legendtext" text-anchor="start" x="5" y="12.090000000000002" style="font-family: 'Open Sans', verdana, arial, sans-serif; font-size: 31px; fill: rgb(0, 0, 0); fill-opacity: 1; white-space: pre;">TS</text><g class="layers"><g class="legendfill"/><g class="legendlines"/><g class="legendsymbols"><g class="legendpoints"/></g></g><rect class="legendtoggle" x="0" y="-21.650000000000002" width="87.796875" height="43.300000000000004" style="fill: rgb(0, 0, 0); fill-opacity: 0;"/></g><g class="traces" transform="translate(2,192.1)" style="opacity: 1;"><text class="legendtext" text-anchor="start" x="40" y="10.92" style="font-family: 'Open Sans', verdana, arial, sans-serif; font-size: 28px; fill: rgb(0, 0, 0); fill-opacity: 1; white-space: pre;">Pos</text><g class="layers" style="opacity: 1;"><g class="legendfill"/><g class="legendlines"><path class="js-line" d="M5,0h30" style="fill: none; stroke: rgb(220, 38, 127); stroke-opacity: 1; stroke-width: 2px;"/></g><g class="legendsymbols"><g class="legendpoints"/></g></g><rect class="legendtoggle" x="0" y="-19.7" width="87.796875" height="39.4" style="fill: rgb(0, 0, 0); fill-opacity: 0;"/></g></g></g><rect class="scrollbar" rx="20" ry="3" width="0" height="0" x="0" y="0" style="fill: rgb(128, 139, 164); fill-opacity: 1;"/></g><g class="g-gtitle"/><g class="g-xtitle" transform="translate(0,-1.3000000000000114)"><text class="xtitle" x="600" y="444.3" text-anchor="middle" style="opacity: 1; font-family: 'Open Sans', verdana, arial, sans-serif; font-size: 34px; fill: rgb(0, 0, 0); fill-opacity: 1; white-space: pre;">East [m]</text></g><g class="g-ytitle" transform="translate(16.728515625,0)"><text class="ytitle" transform="rotate(-90,17.271874999999994,188)" x="17.271874999999994" y="188" text-anchor="middle" style="opacity: 1; font-family: 'Open Sans', verdana, arial, sans-serif; font-size: 34px; fill: rgb(0, 0, 0); fill-opacity: 1; white-space: pre;">North [m]</text></g></g></svg>