<svg class="main-svg" xmlns="http://www.w3.org/2000/svg" xmlns:xlink="http://www.w3.org/1999/xlink" width="1000" height="300" style="" viewBox="0 0 1000 300"><rect x="0" y="0" width="1000" height="300" style="fill: rgb(255, 255, 255); fill-opacity: 1;"/><defs id="defs-a1efa0"><g class="clips"><clipPath id="clipa1efa0xyplot" class="plotclip"><rect width="887" height="182"/></clipPath><clipPath class="axesclip" id="clipa1efa0x"><rect x="102" y="0" width="887" height="300"/></clipPath><clipPath class="axesclip" id="clipa1efa0y"><rect x="0" y="53" width="1000" height="182"/></clipPath><clipPath class="axesclip" id="clipa1efa0xy"><rect x="102" y="53" width="887" height="182"/></clipPath></g><g class="gradients"/><g class="patterns"/></defs><g class="bglayer"/><g class="layer-below"><g class="imagelayer"/><g class="shapelayer"/></g><g class="cartesianlayer"><g class="subplot xy"><g class="layer-subplot"><g class="shapelayer"/><g class="imagelayer"/></g><g class="minor-gridlayer"><g class="x"/><g class="y"/></g><g class="gridlayer"><g class="x"><path class="xgrid crisp" transform="translate(154.48,0)" d="M0,53v182" style="stroke: rgb(200, 200, 200); stroke-opacity: 1; stroke-width: 1px;"/><path class="xgrid crisp" transform="translate(290.25,0)" d="M0,53v182" style="stroke: rgb(200, 200, 200); stroke-opacity: 1; stroke-width: 1px;"/><path class="xgrid crisp" transform="translate(426.02,0)" d="M0,53v182" style="stroke: rgb(200, 200, 200); stroke-opacity: 1; stroke-width: 1px;"/><path class="xgrid crisp" transform="translate(697.57,0)" d="M0,53v182" style="stroke: rgb(200, 200, 200); stroke-opacity: 1; stroke-width: 1px;"/><path class="xgrid crisp" transform="translate(833.34,0)" d="M0,53v182" style="stroke: rgb(200, 200, 200); stroke-opacity: 1; stroke-width: 1px;"/><path class="xgrid crisp" transform="translate(969.11,0)" d="M0,53v182" style="stroke: rgb(200, 200, 200); stroke-opacity: 1; stroke-width: 1px;"/></g><g class="y"><path class="ygrid crisp" transform="translate(0,198.63)" d="M102,0h887" style="stroke: rgb(200, 200, 200); stroke-opacity: 1; stroke-width: 1px;"/><path class="ygrid crisp" transform="translate(0,90.00999999999999)" d="M102,0h887" style="stroke: rgb(200, 200, 200); stroke-opacity: 1; stroke-width: 1px;"/></g></g><g class="zerolinelayer"><path class="xzl zl crisp" transform="translate(561.79,0)" d="M0,53v182" style="stroke: rgb(200, 200, 200); stroke-opacity: 1; stroke-width: 2px;"/><path class="yzl zl crisp" transform="translate(0,144.32)" d="M102,0h887" style="stroke: rgb(200, 200, 200); stroke-opacity: 1; stroke-width: 2px;"/></g><g class="layer-between"><g class="shapelayer"/><g class="imagelayer"/></g><path class="xlines-below"/><path class="ylines-below"/><g class="overlines-below"/><g class="xaxislayer-below"/><g class="yaxislayer-below"/><g class="overaxes-below"/><g class="overplot"><g class="xy" transform="translate(102,53)" clip-path="url(#clipa1efa0xyplot)"><g class="scatterlayer mlayer"><g class="trace scatter trace2015aa" style="stroke-miterlimit: 2; opacity: 1;"><g class="fills"/><g class="errorbars"/><g class="lines"><path class="js-line" d="M52.48,50.59L867.11,50.59" style="vector-effect: none; fill: none; stroke: rgb(0, 0, 0); stroke-opacity: 1; stroke-width: 2px; opacity: 1;"/></g><g class="points"/><g class="text"/></g><g class="trace scatter tracecd6432" style="stroke-miterlimit: 2; opacity: 1;"><g class="fills"/><g class="errorbars"/><g class="lines"><path class="js-line" d="M52.48,50.59L867.11,50.59" style="vector-effect: none; fill: none; stroke: rgb(100, 143, 255); stroke-opacity: 1; stroke-width: 2px; opacity: 1;"/></g><g class="points"/><g class="text"/></g><g class="trace scatter traced266cf" style="stroke-miterlimit: 2; opacity: 1;"><g class="fills"/><g class="errorbars"/><g class="lines"/><g class="points"><path class="point" transform="translate(52.48,50.59)" d="M-3.2500000000000004,-7.51L-3.2499999999999996,7.51L6.5,-3.9801020972288977e-16Z" style="opacity: 1; stroke-width: 0px; fill: rgb(12, 51, 131); fill-opacity: 1;"/><path class="point" transform="translate(150.23,50.59)" d="M-3.2500000000000306,-7.5099999999999865L-3.2499999999999694,7.510000000000013L6.5,-2.6377228985951552e-14Z" style="opacity: 1; stroke-width: 0px; fill: rgb(11, 94, 159); fill-opacity: 1;"/><path class="point" transform="translate(247.99,50.59)" d="M-3.250000000000224,-7.509999999999903L-3.249999999999776,7.510000000000097L6.5,-1.9379886109942516e-13Z" style="opacity: 1; stroke-width: 0px; fill: rgb(10, 136, 186); fill-opacity: 1;"/><path class="point" transform="translate(345.74,50.59)" d="M-3.250000000000119,-7.509999999999948L-3.249999999999881,7.510000000000051L6.5,-1.0287159538262484e-13Z" style="opacity: 1; stroke-width: 0px; fill: rgb(126, 174, 121); fill-opacity: 1;"/><path class="point" transform="translate(443.5,50.59)" d="M-3.2500000000000004,-7.51L-3.2499999999999996,7.51L6.5,-3.9801020972288977e-16Z" style="opacity: 1; stroke-width: 0px; fill: rgb(242, 211, 56); fill-opacity: 1;"/><path class="point" transform="translate(541.26,50.59)" d="M-3.2500000000000004,-7.51L-3.2499999999999996,7.51L6.5,-3.9801020972288977e-16Z" style="opacity: 1; stroke-width: 0px; fill: rgb(242, 177, 56); fill-opacity: 1;"/><path class="point" transform="translate(639.01,50.59)" d="M-3.249999999999739,-7.510000000000113L-3.250000000000261,7.509999999999887L6.5,2.2619850911627155e-13Z" style="opacity: 1; stroke-width: 0px; fill: rgb(242, 143, 56); fill-opacity: 1;"/><path class="point" transform="translate(736.77,50.59)" d="M-3.2499999999998805,-7.510000000000051L-3.2500000000001195,7.509999999999948L6.5,1.0351886489519176e-13Z" style="opacity: 1; stroke-width: 0px; fill: rgb(230, 87, 43); fill-opacity: 1;"/><path class="point" transform="translate(834.52,50.59)" d="M-3.2500000000000004,-7.51L-3.2499999999999996,7.51L6.5,-3.9801020972288977e-16Z" style="opacity: 1; stroke-width: 0px; fill: rgb(217, 30, 30); fill-opacity: 1;"/></g><g class="text"/></g><g class="trace scatter trace084320" style="stroke-miterlimit: 2; opacity: 1;"><g class="fills"/><g class="errorbars"/><g class="lines"><path class="js-line" d="M52.48,60.77L867.11,60.77" style="vector-effect: none; fill: none; stroke: rgb(0, 0, 0); stroke-opacity: 1; stroke-width: 2px; opacity: 1;"/></g><g class="points"/><g class="text"/></g><g class="trace scatter trace5c25c3" style="stroke-miterlimit: 2; opacity: 1;"><g class="fills"/><g class="errorbars"/><g class="lines"><path class="js-line" d="M52.48,60.77L867.11,60.77" style="vector-effect: none; fill: none; stroke: rgb(100, 143, 255); stroke-opacity: 1; stroke-width: 2px; opacity: 1;"/></g><g class="points"/><g class="text"/></g><g class="trace scatter trace25557d" style="stroke-miterlimit: 2; opacity: 1;"><g class="fills"/><g class="errorbars"/><g class="lines"/><g class="points"><path class="point" transform="translate(52.48,60.77)" d="M-3.2500000000000004,-7.51L-3.2499999999999996,7.51L6.5,-3.9801020972288977e-16Z" style="opacity: 1; stroke-width: 0px; fill: rgb(12, 51, 131); fill-opacity: 1;"/><path class="point" transform="translate(150.23,60.77)" d="M-3.2500000000126805,-7.509999999994513L-3.2499999999873195,7.510000000005487L6.5,-1.097517465323432e-11Z" style="opacity: 1; stroke-width: 0px; fill: rgb(11, 94, 159); fill-opacity: 1;"/><path class="point" transform="translate(247.99,60.77)" d="M-3.250000000048423,-7.509999999979044L-3.249999999951577,7.5100000000209555L6.5,-4.1910651055994604e-11Z" style="opacity: 1; stroke-width: 0px; fill: rgb(10, 136, 186); fill-opacity: 1;"/><path class="point" transform="translate(345.74,60.77)" d="M-3.2500000000103726,-7.509999999995511L-3.2499999999896274,7.510000000004489L6.5,-8.977661387328738e-12Z" style="opacity: 1; stroke-width: 0px; fill: rgb(126, 174, 121); fill-opacity: 1;"/><path class="point" transform="translate(443.5,60.77)" d="M-3.2500000000000004,-7.51L-3.2499999999999996,7.51L6.5,-3.9801020972288977e-16Z" style="opacity: 1; stroke-width: 0px; fill: rgb(242, 211, 56); fill-opacity: 1;"/><path class="point" transform="translate(541.26,60.77)" d="M-3.2500000000000004,-7.51L-3.2499999999999996,7.51L6.5,-3.9801020972288977e-16Z" style="opacity: 1; stroke-width: 0px; fill: rgb(242, 177, 56); fill-opacity: 1;"/><path class="point" transform="translate(639.01,60.77)" d="M-3.249999999950484,-7.510000000021428L-3.250000000049516,7.509999999978572L6.5,4.28566532309755e-11Z" style="opacity: 1; stroke-width: 0px; fill: rgb(242, 143, 56); fill-opacity: 1;"/><path class="point" transform="translate(736.77,60.77)" d="M-3.249999999979266,-7.510000000008972L-3.250000000020734,7.509999999991027L6.5,1.7945469004436233e-11Z" style="opacity: 1; stroke-width: 0px; fill: rgb(230, 87, 43); fill-opacity: 1;"/><path class="point" transform="translate(834.52,60.77)" d="M-3.2500000000000004,-7.51L-3.2499999999999996,7.51L6.5,-3.9801020972288977e-16Z" style="opacity: 1; stroke-width: 0px; fill: rgb(217, 30, 30); fill-opacity: 1;"/></g><g class="text"/></g><g class="trace scatter trace4ea9dc" style="stroke-miterlimit: 2; opacity: 1;"><g class="fills"/><g class="errorbars"/><g class="lines"><path class="js-line" d="M52.48,70.95L867.11,70.95" style="vector-effect: none; fill: none; stroke: rgb(0, 0, 0); stroke-opacity: 1; stroke-width: 2px; opacity: 1;"/></g><g class="points"/><g class="text"/></g><g class="trace scatter trace03046e" style="stroke-miterlimit: 2; opacity: 1;"><g class="fills"/><g class="errorbars"/><g class="lines"><path class="js-line" d="M52.48,70.95L867.11,70.95" style="vector-effect: none; fill: none; stroke: rgb(100, 143, 255); stroke-opacity: 1; stroke-width: 2px; opacity: 1;"/></g><g class="points"/><g class="text"/></g><g class="trace scatter traceff3373" style="stroke-miterlimit: 2; opacity: 1;"><g class="fills"/><g class="errorbars"/><g class="lines"/><g class="points"><path class="point" transform="translate(52.48,70.95)" d="M-3.2500000000000004,-7.51L-3.2499999999999996,7.51L6.5,-3.9801020972288977e-16Z" style="opacity: 1; stroke-width: 0px; fill: rgb(12, 51, 131); fill-opacity: 1;"/><path class="point" transform="translate(150.23,70.95)" d="M-3.250000000000351,-7.509999999999848L-3.249999999999649,7.510000000000152L6.5,-3.034888959323906e-13Z" style="opacity: 1; stroke-width: 0px; fill: rgb(11, 94, 159); fill-opacity: 1;"/><path class="point" transform="translate(247.99,70.95)" d="M-3.2500000000024882,-7.509999999998923L-3.2499999999975118,7.510000000001076L6.5,-2.1537865887726766e-12Z" style="opacity: 1; stroke-width: 0px; fill: rgb(10, 136, 186); fill-opacity: 1;"/><path class="point" transform="translate(345.74,70.95)" d="M-3.2500000000014464,-7.509999999999374L-3.2499999999985536,7.510000000000626L6.5,-1.251730381264737e-12Z" style="opacity: 1; stroke-width: 0px; fill: rgb(126, 174, 121); fill-opacity: 1;"/><path class="point" transform="translate(443.5,70.95)" d="M-3.2500000000000004,-7.51L-3.2499999999999996,7.51L6.5,-3.9801020972288977e-16Z" style="opacity: 1; stroke-width: 0px; fill: rgb(242, 211, 56); fill-opacity: 1;"/><path class="point" transform="translate(541.26,70.95)" d="M-3.2500000000000004,-7.51L-3.2499999999999996,7.51L6.5,-3.9801020972288977e-16Z" style="opacity: 1; stroke-width: 0px; fill: rgb(242, 177, 56); fill-opacity: 1;"/><path class="point" transform="translate(639.01,70.95)" d="M-3.2499999999970637,-7.510000000001271L-3.2500000000029363,7.509999999998729L6.5,2.541235560064648e-12Z" style="opacity: 1; stroke-width: 0px; fill: rgb(242, 143, 56); fill-opacity: 1;"/><path class="point" transform="translate(736.77,70.95)" d="M-3.2499999999987113,-7.510000000000558L-3.2500000000012887,7.509999999999442L6.5,1.1152651072360968e-12Z" style="opacity: 1; stroke-width: 0px; fill: rgb(230, 87, 43); fill-opacity: 1;"/><path class="point" transform="translate(834.52,70.95)" d="M-3.2500000000000004,-7.51L-3.2499999999999996,7.51L6.5,-3.9801020972288977e-16Z" style="opacity: 1; stroke-width: 0px; fill: rgb(217, 30, 30); fill-opacity: 1;"/></g><g class="text"/></g><g class="trace scatter traced7a201" style="stroke-miterlimit: 2; opacity: 1;"><g class="fills"/><g class="errorbars"/><g class="lines"><path class="js-line" d="M52.48,81.13L867.11,81.13" style="vector-effect: none; fill: none; stroke: rgb(0, 0, 0); stroke-opacity: 1; stroke-width: 2px; opacity: 1;"/></g><g class="points"/><g class="text"/></g><g class="trace scatter trace377f45" style="stroke-miterlimit: 2; opacity: 1;"><g class="fills"/><g class="errorbars"/><g class="lines"><path class="js-line" d="M52.48,81.13L161.41,81.78L164.13,81.91L193.94,84.2L196.64,84.48L229.04,88.75L231.73,89.15L274.74,96.2L277.42,96.69L325.7,104.75L328.39,105.06L352.72,107.1L355.43,107.23L379.9,107.73L382.63,107.73L565.12,107.08L567.83,106.93L594.9,104.7L597.6,104.4L627.24,100.18L629.93,99.75L729.5,84.42L732.2,84.15L759.29,82.21L762,82.1L791.94,81.73L794.67,81.73L862.78,81.73" style="vector-effect: none; fill: none; stroke: rgb(100, 143, 255); stroke-opacity: 1; stroke-width: 2px; opacity: 1;"/></g><g class="points"/><g class="text"/></g><g class="trace scatter trace85b7df" style="stroke-miterlimit: 2; opacity: 1;"><g class="fills"/><g class="errorbars"/><g class="lines"/><g class="points"><path class="point" transform="translate(52.48,81.13)" d="M-3.2500000000000004,-7.51L-3.2499999999999996,7.51L6.5,-3.9801020972288977e-16Z" style="opacity: 1; stroke-width: 0px; fill: rgb(12, 51, 131); fill-opacity: 1;"/><path class="point" transform="translate(150.22,81.36)" d="M-3.0415297468215603,-7.5968214931772335L-3.4559950967635475,7.417458991537891L6.497524843585108,0.17936250163934198Z" style="opacity: 1; stroke-width: 0px; fill: rgb(11, 94, 159); fill-opacity: 1;"/><path class="point" transform="translate(247.24,91.55)" d="M-2.022013229885939,-7.9293166476163774L-4.396265355992356,6.9018440231362375L6.418278585878295,1.0274726244801407Z" style="opacity: 1; stroke-width: 0px; fill: rgb(10, 136, 186); fill-opacity: 1;"/><path class="point" transform="translate(343.62,106.5)" d="M-2.6700642932188523,-7.735202432391651L-3.8111508168791226,7.241390022019363L6.481215110097975,0.49381241037228746Z" style="opacity: 1; stroke-width: 0px; fill: rgb(126, 174, 121); fill-opacity: 1;"/><path class="point" transform="translate(441.26,107.73)" d="M-3.249887597071581,-7.510048642079512L-3.2501124022003784,7.509951356238154L6.499999999271959,0.00009728584135734176Z" style="opacity: 1; stroke-width: 0px; fill: rgb(242, 211, 56); fill-opacity: 1;"/><path class="point" transform="translate(539.02,107.73)" d="M-3.2500567156222435,-7.509975455701486L-3.249943284192399,7.510024543870195L6.4999999998146425,-0.00004908816870767631Z" style="opacity: 1; stroke-width: 0px; fill: rgb(242, 177, 56); fill-opacity: 1;"/><path class="point" transform="translate(636.06,98.77)" d="M-4.396479498163672,-6.901707616396576L-2.0217672051170608,7.9293793810305955L6.418246703280733,-1.0276717646340197Z" style="opacity: 1; stroke-width: 0px; fill: rgb(242, 143, 56); fill-opacity: 1;"/><path class="point" transform="translate(732.63,84.1)" d="M-3.9675948580839835,-7.1568701987744285L-2.501360351692786,7.791392455202044L6.4689552097767695,-0.6345222564276154Z" style="opacity: 1; stroke-width: 0px; fill: rgb(230, 87, 43); fill-opacity: 1;"/><path class="point" transform="translate(830.19,81.73)" d="M-3.2500385777996637,-7.509983305095554L-3.2499614221145774,7.510016694706277L6.499999999914241,-0.00003338961072321814Z" style="opacity: 1; stroke-width: 0px; fill: rgb(217, 30, 30); fill-opacity: 1;"/></g><g class="text"/></g><g class="trace scatter trace375f7f" style="stroke-miterlimit: 2; opacity: 1;"><g class="fills"/><g class="errorbars"/><g class="lines"><path class="js-line" d="M52.48,91.32L867.11,91.32" style="vector-effect: none; fill: none; stroke: rgb(0, 0, 0); stroke-opacity: 1; stroke-width: 2px; opacity: 1;"/></g><g class="points"/><g class="text"/></g><g class="trace scatter trace09b96c" style="stroke-miterlimit: 2; opacity: 1;"><g class="fills"/><g class="errorbars"/><g class="lines"><path class="js-line" d="M52.48,91.32L169.6,91.98L172.32,92.08L210.37,94.34L213.09,94.56L267.33,99.67L270.04,99.96L335.06,106.36L337.77,106.52L370.4,107.62L373.13,107.64L552.94,107.56L555.66,107.52L593.73,105.96L596.45,105.78L631.72,102.73L634.43,102.46L740.21,92.83L742.93,92.68L778.3,91.67L781.02,91.66L865.48,91.65" style="vector-effect: none; fill: none; stroke: rgb(100, 143, 255); stroke-opacity: 1; stroke-width: 2px; opacity: 1;"/></g><g class="points"/><g class="text"/></g><g class="trace scatter traceea25ef" style="stroke-miterlimit: 2; opacity: 1;"><g class="fills"/><g class="errorbars"/><g class="lines"/><g class="points"><path class="point" transform="translate(52.48,91.32)" d="M-3.2500000000000004,-7.51L-3.2499999999999996,7.51L6.5,-3.9801020972288977e-16Z" style="opacity: 1; stroke-width: 0px; fill: rgb(12, 51, 131); fill-opacity: 1;"/><path class="point" transform="translate(150.23,91.46)" d="M-3.123146393961466,-7.563633822567397L-3.375932982004573,7.454238827741818L6.499079375966039,0.10939499482557903Z" style="opacity: 1; stroke-width: 0px; fill: rgb(11, 94, 159); fill-opacity: 1;"/><path class="point" transform="translate(247.71,97.68)" d="M-2.506381247186337,-7.7897787544803L-3.9629815575250578,7.159425757329722L6.469362804711395,0.6303529971505782Z" style="opacity: 1; stroke-width: 0px; fill: rgb(10, 136, 186); fill-opacity: 1;"/><path class="point" transform="translate(344.95,106.9)" d="M-2.895381053754892,-7.6537159964005195L-3.59751305616413,7.349863931443126L6.492894109919022,0.30385206495739314Z" style="opacity: 1; stroke-width: 0px; fill: rgb(126, 174, 121); fill-opacity: 1;"/><path class="point" transform="translate(442.66,107.66)" d="M-3.249933029104964,-7.510028981723881L-3.2500669706365874,7.509971017678904L6.499999999741552,0.000057964044976876494Z" style="opacity: 1; stroke-width: 0px; fill: rgb(242, 211, 56); fill-opacity: 1;"/><path class="point" transform="translate(540.41,107.66)" d="M-3.250034081812482,-7.509985250788265L-3.249965918120583,7.5100147490570635L6.499999999933065,-0.00002949826879790873Z" style="opacity: 1; stroke-width: 0px; fill: rgb(242, 177, 56); fill-opacity: 1;"/><path class="point" transform="translate(637.9,102.12)" d="M-3.9665159793664357,-7.157468196606306L-2.5025348054216816,7.791015309165621L6.469050784788117,-0.6335471125593144Z" style="opacity: 1; stroke-width: 0px; fill: rgb(242, 143, 56); fill-opacity: 1;"/><path class="point" transform="translate(735.21,93.11)" d="M-3.693193396459988,-7.302254620070731L-2.7951787661945384,7.690876131170959L6.488372162654526,-0.38862151110022775Z" style="opacity: 1; stroke-width: 0px; fill: rgb(230, 87, 43); fill-opacity: 1;"/><path class="point" transform="translate(832.89,91.65)" d="M-3.250022022911645,-7.509990469407355L-3.2499779770604076,7.510009530528063L6.499999999972053,-0.000019061120708634293Z" style="opacity: 1; stroke-width: 0px; fill: rgb(217, 30, 30); fill-opacity: 1;"/></g><g class="text"/></g><g class="trace scatter tracee6bd3b" style="stroke-miterlimit: 2; opacity: 1;"><g class="fills"/><g class="errorbars"/><g class="lines"><path class="js-line" d="M52.48,101.5L867.11,101.5" style="vector-effect: none; fill: none; stroke: rgb(0, 0, 0); stroke-opacity: 1; stroke-width: 2px; opacity: 1;"/></g><g class="points"/><g class="text"/></g><g class="trace scatter tracef939c4" style="stroke-miterlimit: 2; opacity: 1;"><g class="fills"/><g class="errorbars"/><g class="lines"><path class="js-line" d="M52.48,101.5L194.14,102.2L196.86,102.26L281.27,105.17L283.99,105.28L346.61,107.35L349.34,107.39L414.72,107.62L417.44,107.62L597.25,106.91L599.97,106.84L678.93,104.07L681.66,103.96L760.63,101.76L763.35,101.73L839.64,101.62L842.36,101.62L866.88,101.62" style="vector-effect: none; fill: none; stroke: rgb(100, 143, 255); stroke-opacity: 1; stroke-width: 2px; opacity: 1;"/></g><g class="points"/><g class="text"/></g><g class="trace scatter trace5a16e4" style="stroke-miterlimit: 2; opacity: 1;"><g class="fills"/><g class="errorbars"/><g class="lines"/><g class="points"><path class="point" transform="translate(52.48,101.5)" d="M-3.2500000000000004,-7.51L-3.2499999999999996,7.51L6.5,-3.9801020972288977e-16Z" style="opacity: 1; stroke-width: 0px; fill: rgb(12, 51, 131); fill-opacity: 1;"/><path class="point" transform="translate(150.23,101.55)" d="M-3.202822754284271,-7.530240793270751L-3.2970493386118678,7.489463642929248L6.499872092896139,0.04077715034150346Z" style="opacity: 1; stroke-width: 0px; fill: rgb(11, 94, 159); fill-opacity: 1;"/><path class="point" transform="translate(247.95,103.88)" d="M-2.975442117849654,-7.622948524247449L-3.520280075594346,7.3871664519877624L6.495722193444,0.2357820722596869Z" style="opacity: 1; stroke-width: 0px; fill: rgb(10, 136, 186); fill-opacity: 1;"/><path class="point" transform="translate(345.63,107.33)" d="M-3.1179246311496893,-7.565787863432999L-3.3810776833739267,7.451906715666186L6.499002314523616,0.11388114776681396Z" style="opacity: 1; stroke-width: 0px; fill: rgb(126, 174, 121); fill-opacity: 1;"/><path class="point" transform="translate(443.38,107.62)" d="M-3.2499753877404483,-7.510010651063108L-3.2500246122246454,7.509989348856231L6.499999999965094,0.000021302206876247128Z" style="opacity: 1; stroke-width: 0px; fill: rgb(242, 211, 56); fill-opacity: 1;"/><path class="point" transform="translate(541.14,107.62)" d="M-3.2500126045287923,-7.509994545297885L-3.2499873954620533,7.51000545468096L6.4999999999908455,-0.00001090938307596754Z" style="opacity: 1; stroke-width: 0px; fill: rgb(242, 177, 56); fill-opacity: 1;"/><path class="point" transform="translate(638.86,105.54)" d="M-3.5223653312527867,-7.3861723831216155L-2.973290042116778,7.623788187341593L6.495655373369565,-0.23761580421997722Z" style="opacity: 1; stroke-width: 0px; fill: rgb(242, 143, 56); fill-opacity: 1;"/><path class="point" transform="translate(736.55,102.17)" d="M-3.4169834185842887,-7.435511032680943L-3.081393970852701,7.580739488756531L6.49837738943699,-0.14522845607558704Z" style="opacity: 1; stroke-width: 0px; fill: rgb(230, 87, 43); fill-opacity: 1;"/><path class="point" transform="translate(834.3,101.62)" d="M-3.2500079213254134,-7.509996571991366L-3.249992078670971,7.510003428000279L6.499999999996384,-0.000006856008913211199Z" style="opacity: 1; stroke-width: 0px; fill: rgb(217, 30, 30); fill-opacity: 1;"/></g><g class="text"/></g><g class="trace scatter trace28d183" style="stroke-miterlimit: 2; opacity: 1;"><g class="fills"/><g class="errorbars"/><g class="lines"><path class="js-line" d="M52.48,111.68L867.11,111.68" style="vector-effect: none; fill: none; stroke: rgb(0, 0, 0); stroke-opacity: 1; stroke-width: 2px; opacity: 1;"/></g><g class="points"/><g class="text"/></g><g class="trace scatter trace6302f6" style="stroke-miterlimit: 2; opacity: 1;"><g class="fills"/><g class="errorbars"/><g class="lines"><path class="js-line" d="M52.48,111.68L867.11,111.68" style="vector-effect: none; fill: none; stroke: rgb(100, 143, 255); stroke-opacity: 1; stroke-width: 2px; opacity: 1;"/></g><g class="points"/><g class="text"/></g><g class="trace scatter tracec8c8d0" style="stroke-miterlimit: 2; opacity: 1;"><g class="fills"/><g class="errorbars"/><g class="lines"/><g class="points"><path class="point" transform="translate(52.48,111.68)" d="M-3.2500000000000004,-7.51L-3.2499999999999996,7.51L6.5,-3.9801020972288977e-16Z" style="opacity: 1; stroke-width: 0px; fill: rgb(12, 51, 131); fill-opacity: 1;"/><path class="point" transform="translate(150.23,111.68)" d="M-3.2499999999995968,-7.510000000000174L-3.2500000000004032,7.509999999999826L6.5,3.488781533373514e-13Z" style="opacity: 1; stroke-width: 0px; fill: rgb(11, 94, 159); fill-opacity: 1;"/><path class="point" transform="translate(247.99,111.68)" d="M-3.249999999997124,-7.510000000001244L-3.250000000002876,7.5099999999987554L6.5,2.4892771225121905e-12Z" style="opacity: 1; stroke-width: 0px; fill: rgb(10, 136, 186); fill-opacity: 1;"/><path class="point" transform="translate(345.74,111.68)" d="M-3.2499999999983245,-7.5100000000007245L-3.2500000000016755,7.509999999999275L6.5,1.450108371463044e-12Z" style="opacity: 1; stroke-width: 0px; fill: rgb(126, 174, 121); fill-opacity: 1;"/><path class="point" transform="translate(443.5,111.68)" d="M-3.2500000000000004,-7.51L-3.2499999999999996,7.51L6.5,-3.9801020972288977e-16Z" style="opacity: 1; stroke-width: 0px; fill: rgb(242, 211, 56); fill-opacity: 1;"/><path class="point" transform="translate(541.26,111.68)" d="M-3.2500000000000004,-7.51L-3.2499999999999996,7.51L6.5,-3.9801020972288977e-16Z" style="opacity: 1; stroke-width: 0px; fill: rgb(242, 177, 56); fill-opacity: 1;"/><path class="point" transform="translate(639.01,111.68)" d="M-3.250000000003384,-7.509999999998535L-3.249999999996616,7.510000000001464L6.5,-2.9288332822634984e-12Z" style="opacity: 1; stroke-width: 0px; fill: rgb(242, 143, 56); fill-opacity: 1;"/><path class="point" transform="translate(736.77,111.68)" d="M-3.2500000000014913,-7.509999999999354L-3.2499999999985087,7.5100000000006455L6.5,-1.29069920942908e-12Z" style="opacity: 1; stroke-width: 0px; fill: rgb(230, 87, 43); fill-opacity: 1;"/><path class="point" transform="translate(834.52,111.68)" d="M-3.2500000000000004,-7.51L-3.2499999999999996,7.51L6.5,-3.9801020972288977e-16Z" style="opacity: 1; stroke-width: 0px; fill: rgb(217, 30, 30); fill-opacity: 1;"/></g><g class="text"/></g><g class="trace scatter trace14b7b0" style="stroke-miterlimit: 2; opacity: 1;"><g class="fills"/><g class="errorbars"/><g class="lines"><path class="js-line" d="M52.48,121.87L867.11,121.87" style="vector-effect: none; fill: none; stroke: rgb(0, 0, 0); stroke-opacity: 1; stroke-width: 2px; opacity: 1;"/></g><g class="points"/><g class="text"/></g><g class="trace scatter trace22c59e" style="stroke-miterlimit: 2; opacity: 1;"><g class="fills"/><g class="errorbars"/><g class="lines"><path class="js-line" d="M52.48,121.87L867.11,121.87" style="vector-effect: none; fill: none; stroke: rgb(100, 143, 255); stroke-opacity: 1; stroke-width: 2px; opacity: 1;"/></g><g class="points"/><g class="text"/></g><g class="trace scatter trace1fe895" style="stroke-miterlimit: 2; opacity: 1;"><g class="fills"/><g class="errorbars"/><g class="lines"/><g class="points"><path class="point" transform="translate(52.48,121.87)" d="M-3.2500000000000004,-7.51L-3.2499999999999996,7.51L6.5,-3.9801020972288977e-16Z" style="opacity: 1; stroke-width: 0px; fill: rgb(12, 51, 131); fill-opacity: 1;"/><path class="point" transform="translate(150.23,121.87)" d="M-3.2499999999995604,-7.51000000000019L-3.2500000000004396,7.50999999999981L6.5,3.8063053184163085e-13Z" style="opacity: 1; stroke-width: 0px; fill: rgb(11, 94, 159); fill-opacity: 1;"/><path class="point" transform="translate(247.99,121.87)" d="M-3.249999999996922,-7.510000000001332L-3.250000000003078,7.5099999999986675L6.5,2.6639152042857276e-12Z" style="opacity: 1; stroke-width: 0px; fill: rgb(10, 136, 186); fill-opacity: 1;"/><path class="point" transform="translate(345.74,121.87)" d="M-3.2499999999982276,-7.510000000000766L-3.2500000000017724,7.509999999999233L6.5,1.5338191875197808e-12Z" style="opacity: 1; stroke-width: 0px; fill: rgb(126, 174, 121); fill-opacity: 1;"/><path class="point" transform="translate(443.5,121.87)" d="M-3.2500000000000004,-7.51L-3.2499999999999996,7.51L6.5,-3.9801020972288977e-16Z" style="opacity: 1; stroke-width: 0px; fill: rgb(242, 211, 56); fill-opacity: 1;"/><path class="point" transform="translate(541.26,121.87)" d="M-3.2500000000000004,-7.51L-3.2499999999999996,7.51L6.5,-3.9801020972288977e-16Z" style="opacity: 1; stroke-width: 0px; fill: rgb(242, 177, 56); fill-opacity: 1;"/><path class="point" transform="translate(639.01,121.87)" d="M-3.250000000003644,-7.509999999998422L-3.249999999996356,7.510000000001577L6.5,-3.15398651165748e-12Z" style="opacity: 1; stroke-width: 0px; fill: rgb(242, 143, 56); fill-opacity: 1;"/><path class="point" transform="translate(736.77,121.87)" d="M-3.2500000000015663,-7.509999999999322L-3.2499999999984337,7.5100000000006775L6.5,-1.3556472563696516e-12Z" style="opacity: 1; stroke-width: 0px; fill: rgb(230, 87, 43); fill-opacity: 1;"/><path class="point" transform="translate(834.53,121.87)" d="M-3.2500000000000004,-7.51L-3.2499999999999996,7.51L6.5,-3.9801020972288977e-16Z" style="opacity: 1; stroke-width: 0px; fill: rgb(217, 30, 30); fill-opacity: 1;"/></g><g class="text"/></g><g class="trace scatter trace2b80ce" style="stroke-miterlimit: 2; opacity: 1;"><g class="fills"/><g class="errorbars"/><g class="lines"><path class="js-line" d="M52.48,132.05L867.11,132.05" style="vector-effect: none; fill: none; stroke: rgb(0, 0, 0); stroke-opacity: 1; stroke-width: 2px; opacity: 1;"/></g><g class="points"/><g class="text"/></g><g class="trace scatter trace6a9139" style="stroke-miterlimit: 2; opacity: 1;"><g class="fills"/><g class="errorbars"/><g class="lines"><path class="js-line" d="M52.48,132.05L867.11,132.05" style="vector-effect: none; fill: none; stroke: rgb(100, 143, 255); stroke-opacity: 1; stroke-width: 2px; opacity: 1;"/></g><g class="points"/><g class="text"/></g><g class="trace scatter trace0c107c" style="stroke-miterlimit: 2; opacity: 1;"><g class="fills"/><g class="errorbars"/><g class="lines"/><g class="points"><path class="point" transform="translate(52.48,132.05)" d="M-3.2500000000000004,-7.51L-3.2499999999999996,7.51L6.5,-3.9801020972288977e-16Z" style="opacity: 1; stroke-width: 0px; fill: rgb(12, 51, 131); fill-opacity: 1;"/><path class="point" transform="translate(150.23,132.05)" d="M-3.250000000002772,-7.5099999999988L-3.249999999997228,7.5100000000012L6.5,-2.3991458772148362e-12Z" style="opacity: 1; stroke-width: 0px; fill: rgb(11, 94, 159); fill-opacity: 1;"/><path class="point" transform="translate(247.99,132.05)" d="M-3.2500000000185305,-7.50999999999198L-3.2499999999814695,7.510000000008019L6.5,-1.6038235734734884e-11Z" style="opacity: 1; stroke-width: 0px; fill: rgb(10, 136, 186); fill-opacity: 1;"/><path class="point" transform="translate(345.74,132.05)" d="M-3.2500000000102225,-7.509999999995576L-3.2499999999897775,7.510000000004424L6.5,-8.847765293447595e-12Z" style="opacity: 1; stroke-width: 0px; fill: rgb(126, 174, 121); fill-opacity: 1;"/><path class="point" transform="translate(443.5,132.05)" d="M-3.2500000000000004,-7.51L-3.2499999999999996,7.51L6.5,-3.9801020972288977e-16Z" style="opacity: 1; stroke-width: 0px; fill: rgb(242, 211, 56); fill-opacity: 1;"/><path class="point" transform="translate(541.26,132.05)" d="M-3.2500000000000004,-7.51L-3.2499999999999996,7.51L6.5,-3.9801020972288977e-16Z" style="opacity: 1; stroke-width: 0px; fill: rgb(242, 177, 56); fill-opacity: 1;"/><path class="point" transform="translate(639.01,132.05)" d="M-3.249999999978364,-7.510000000009363L-3.250000000021636,7.509999999990637L6.5,1.8726288857655105e-11Z" style="opacity: 1; stroke-width: 0px; fill: rgb(242, 143, 56); fill-opacity: 1;"/><path class="point" transform="translate(736.77,132.05)" d="M-3.249999999990589,-7.510000000004073L-3.250000000009411,7.509999999995927L6.5,8.145530366069976e-12Z" style="opacity: 1; stroke-width: 0px; fill: rgb(230, 87, 43); fill-opacity: 1;"/><path class="point" transform="translate(834.52,132.05)" d="M-3.2500000000000004,-7.51L-3.2499999999999996,7.51L6.5,-3.9801020972288977e-16Z" style="opacity: 1; stroke-width: 0px; fill: rgb(217, 30, 30); fill-opacity: 1;"/></g><g class="text"/></g><g class="trace scatter trace76aad9" style="stroke-miterlimit: 2; opacity: 1;"><g class="fills"/><g class="errorbars"/><g class="lines"><path class="js-line" d="M796.69,49.95L343.74,105.57L341.48,105.84L122.89,132.68" style="vector-effect: none; fill: none; stroke: rgb(220, 38, 127); stroke-opacity: 1; stroke-width: 2px; opacity: 1;"/></g><g class="points"/><g class="text"/></g><g class="trace scatter trace0a0679" style="stroke-miterlimit: 2; opacity: 1;"><g class="fills"/><g class="errorbars"/><g class="lines"/><g class="points"><path class="point" transform="translate(796.69,49.95)" d="M4.141013761806954,7.0579462327596L2.3105362238616403,-7.850096964893058L-6.451549985668594,0.7921507321334579Z" style="opacity: 1; stroke-width: 0px; fill: rgb(12, 51, 131); fill-opacity: 1;"/><path class="point" transform="translate(715.84,59.88)" d="M4.141013761806954,7.0579462327596L2.3105362238616403,-7.850096964893058L-6.451549985668594,0.7921507321334579Z" style="opacity: 1; stroke-width: 0px; fill: rgb(11, 94, 159); fill-opacity: 1;"/><path class="point" transform="translate(634.98,69.81)" d="M4.141013761806954,7.0579462327596L2.3105362238616403,-7.850096964893058L-6.451549985668594,0.7921507321334579Z" style="opacity: 1; stroke-width: 0px; fill: rgb(10, 136, 186); fill-opacity: 1;"/><path class="point" transform="translate(554.13,79.73)" d="M4.141013761806954,7.0579462327596L2.3105362238616403,-7.850096964893058L-6.451549985668594,0.7921507321334579Z" style="opacity: 1; stroke-width: 0px; fill: rgb(126, 174, 121); fill-opacity: 1;"/><path class="point" transform="translate(473.27,89.66)" d="M4.141013761806954,7.0579462327596L2.3105362238616403,-7.850096964893058L-6.451549985668594,0.7921507321334579Z" style="opacity: 1; stroke-width: 0px; fill: rgb(242, 211, 56); fill-opacity: 1;"/><path class="point" transform="translate(392.41,99.59)" d="M4.141013761806954,7.0579462327596L2.3105362238616403,-7.850096964893058L-6.451549985668594,0.7921507321334579Z" style="opacity: 1; stroke-width: 0px; fill: rgb(242, 177, 56); fill-opacity: 1;"/><path class="point" transform="translate(311.56,109.52)" d="M4.141013761806954,7.0579462327596L2.3105362238616403,-7.850096964893058L-6.451549985668594,0.7921507321334579Z" style="opacity: 1; stroke-width: 0px; fill: rgb(242, 143, 56); fill-opacity: 1;"/><path class="point" transform="translate(230.7,119.45)" d="M4.141013761806954,7.0579462327596L2.3105362238616403,-7.850096964893058L-6.451549985668594,0.7921507321334579Z" style="opacity: 1; stroke-width: 0px; fill: rgb(230, 87, 43); fill-opacity: 1;"/><path class="point" transform="translate(149.84,129.37)" d="M4.141013761806954,7.0579462327596L2.3105362238616403,-7.850096964893058L-6.451549985668594,0.7921507321334579Z" style="opacity: 1; stroke-width: 0px; fill: rgb(217, 30, 30); fill-opacity: 1;"/></g><g class="text"/></g></g></g></g><path class="xlines-above crisp" d="M0,0" style="fill: none;"/><path class="ylines-above crisp" d="M0,0" style="fill: none;"/><g class="overlines-above"/><g class="xaxislayer-above"><g class="xtick"><text text-anchor="middle" x="0" y="260" transform="translate(154.48,0)" style="font-family: 'Open Sans', verdana, arial, sans-serif; font-size: 24px; fill: rgb(0, 0, 0); fill-opacity: 1; white-space: pre; opacity: 1;">−1500</text></g><g class="xtick"><text text-anchor="middle" x="0" y="260" style="font-family: 'Open Sans', verdana, arial, sans-serif; font-size: 24px; fill: rgb(0, 0, 0); fill-opacity: 1; white-space: pre; opacity: 1;" transform="translate(290.25,0)">−1000</text></g><g class="xtick"><text text-anchor="middle" x="0" y="260" style="font-family: 'Open Sans', verdana, arial, sans-serif; font-size: 24px; fill: rgb(0, 0, 0); fill-opacity: 1; white-space: pre; opacity: 1;" transform="translate(426.02,0)">−500</text></g><g class="xtick"><text text-anchor="middle" x="0" y="260" style="font-family: 'Open Sans', verdana, arial, sans-serif; font-size: 24px; fill: rgb(0, 0, 0); fill-opacity: 1; white-space: pre; opacity: 1;" transform="translate(561.79,0)">0</text></g><g class="xtick"><text text-anchor="middle" x="0" y="260" style="font-family: 'Open Sans', verdana, arial, sans-serif; font-size: 24px; fill: rgb(0, 0, 0); fill-opacity: 1; white-space: pre; opacity: 1;" transform="translate(697.57,0)">500</text></g><g class="xtick"><text text-anchor="middle" x="0" y="260" style="font-family: 'Open Sans', verdana, arial, sans-serif; font-size: 24px; fill: rgb(0, 0, 0); fill-opacity: 1; white-space: pre; opacity: 1;" transform="translate(833.34,0)">1000</text></g><g class="xtick"><text text-anchor="middle" x="0" y="260" style="font-family: 'Open Sans', verdana, arial, sans-serif; font-size: 24px; fill: rgb(0, 0, 0); fill-opacity: 1; white-space: pre; opacity: 1;" transform="translate(969.11,0)">1500</text></g></g><g class="yaxislayer-above"><g class="ytick"><text text-anchor="end" x="101" y="8.399999999999999" transform="translate(0,198.63)" style="font-family: 'Open Sans', verdana, arial, sans-serif; font-size: 24px; fill: rgb(0, 0, 0); fill-opacity: 1; white-space: pre; opacity: 1;">−200</text></g><g class="ytick"><text text-anchor="end" x="101" y="8.399999999999999" style="font-family: 'Open Sans', verdana, arial, sans-serif; font-size: 24px; fill: rgb(0, 0, 0); fill-opacity: 1; white-space: pre; opacity: 1;" transform="translate(0,144.32)">0</text></g><g class="ytick"><text text-anchor="end" x="101" y="8.399999999999999" style="font-family: 'Open Sans', verdana, arial, sans-serif; font-size: 24px; fill: rgb(0, 0, 0); fill-opacity: 1; white-space: pre; opacity: 1;" transform="translate(0,90.00999999999999)">200</text></g></g><g class="overaxes-above"/></g></g><g class="polarlayer"/><g class="smithlayer"/><g class="ternarylayer"/><g class="geolayer"/><g class="funnelarealayer"/><g class="pielayer"/><g class="iciclelayer"/><g class="treemaplayer"/><g class="sunburstlayer"/><g class="glimages"/><defs id="topdefs-a1efa0"><g class="clips"/><clipPath id="legenda1efa0"><rect width="385" height="45" x="2" y="2"/></clipPath></defs><g class="layer-above"><g class="imagelayer"/><g class="shapelayer"/></g><g class="infolayer"><g class="legend" pointer-events="all" transform="translate(591.13,0.35999999999999943)"><rect class="bg" shape-rendering="crispEdges" style="stroke: rgb(0, 0, 0); stroke-opacity: 1; fill: rgb(255, 255, 255); fill-opacity: 1; stroke-width: 2px;" width="387" height="47" x="1" y="1"/><g class="scrollbox" transform="" clip-path="url(#legenda1efa0)"><g class="groups"><g class="traces" transform="translate(2,24.1)" style="opacity: 1;"><text class="legendtext" text-anchor="start" x="40" y="9.360000000000001" style="font-family: 'Open Sans', verdana, arial, sans-serif; font-size: 24px; fill: rgb(0, 0, 0); fill-opacity: 1; white-space: pre;">OS Ref</text><g class="layers" style="opacity: 1;"><g class="legendfill"/><g class="legendlines"><path class="js-line" d="M5,0h30" style="fill: none; stroke: rgb(0, 0, 0); stroke-opacity: 1; stroke-width: 2px;"/></g><g class="legendsymbols"><g class="legendpoints"/></g></g><rect class="legendtoggle" x="0" y="-17.1" width="126.640625" height="34.2" style="fill: rgb(0, 0, 0); fill-opacity: 0;"/></g><g class="traces" transform="translate(131.140625,24.1)" style="opacity: 1;"><text class="legendtext" text-anchor="start" x="40" y="9.360000000000001" style="font-family: 'Open Sans', verdana, arial, sans-serif; font-size: 24px; fill: rgb(0, 0, 0); fill-opacity: 1; white-space: pre;">OS Pos</text><g class="layers" style="opacity: 1;"><g class="legendfill"/><g class="legendlines"><path class="js-line" d="M5,0h30" style="fill: none; stroke: rgb(100, 143, 255); stroke-opacity: 1; stroke-width: 2px;"/></g><g class="legendsymbols"><g class="legendpoints"/></g></g><rect class="legendtoggle" x="0" y="-17.1" width="127.203125" height="34.2" style="fill: rgb(0, 0, 0); fill-opacity: 0;"/></g><g class="traces" transform="translate(260.84375,24.1)" style="opacity: 1;"><text class="legendtext" text-anchor="start" x="40" y="9.360000000000001" style="font-family: 'Open Sans', verdana, arial, sans-serif; font-size: 24px; fill: rgb(0, 0, 0); fill-opacity: 1; white-space: pre;">TS Pos</text><g class="layers" style="opacity: 1;"><g class="legendfill"/><g class="legendlines"><path class="js-line" d="M5,0h30" style="fill: none; stroke: rgb(220, 38, 127); stroke-opacity: 1; stroke-width: 2px;"/></g><g class="legendsymbols"><g class="legendpoints"/></g></g><rect class="legendtoggle" x="0" y="-17.1" width="122.953125" height="34.2" style="fill: rgb(0, 0, 0); fill-opacity: 0;"/></g></g></g><rect class="scrollbar" rx="20" ry="3" width="0" height="0" style="fill: rgb(128, 139, 164); fill-opacity: 1;" x="0" y="0"/></g><g class="g-gtitle"/><g class="g-xtitle" transform="translate(0,-5.800000000000011)"><text class="xtitle" x="545.5" y="299.8" text-anchor="middle" style="opacity: 1; font-family: 'Open Sans', verdana, arial, sans-serif; font-size: 29px; fill: rgb(0, 0, 0); fill-opacity: 1; white-space: pre;">East [m]</text></g><g class="g-ytitle" transform="translate(18.072265625,0)"><text class="ytitle" transform="rotate(-90,10.928124999999994,144)" x="10.928124999999994" y="144" text-anchor="middle" style="opacity: 1; font-family: 'Open Sans', verdana, arial, sans-serif; font-size: 29px; fill: rgb(0, 0, 0); fill-opacity: 1; white-space: pre;">North [m]</text></g></g></svg>