<svg class="main-svg" xmlns="http://www.w3.org/2000/svg" xmlns:xlink="http://www.w3.org/1999/xlink" width="1200" height="450" style="" viewBox="0 0 1200 450"><rect x="0" y="0" width="1200" height="450" style="fill: rgb(255, 255, 255); fill-opacity: 1;"/><defs id="defs-3ab980"><g class="clips"><clipPath id="clip3ab980xyplot" class="plotclip"><rect width="832" height="264"/></clipPath><clipPath class="axesclip" id="clip3ab980x"><rect x="128" y="0" width="832" height="450"/></clipPath><clipPath class="axesclip" id="clip3ab980y"><rect x="0" y="100" width="1200" height="264"/></clipPath><clipPath class="axesclip" id="clip3ab980xy"><rect x="128" y="100" width="832" height="264"/></clipPath></g><g class="gradients"/><g class="patterns"/></defs><g class="bglayer"/><g class="layer-below"><g class="imagelayer"/><g class="shapelayer"/></g><g class="cartesianlayer"><g class="subplot xy"><g class="layer-subplot"><g class="shapelayer"/><g class="imagelayer"/></g><g class="minor-gridlayer"><g class="x"/><g class="y"/></g><g class="gridlayer"><g class="x"><path class="xgrid crisp" transform="translate(177.1,0)" d="M0,100v264" style="stroke: rgb(200, 200, 200); stroke-opacity: 1; stroke-width: 1px;"/><path class="xgrid crisp" transform="translate(299.4,0)" d="M0,100v264" style="stroke: rgb(200, 200, 200); stroke-opacity: 1; stroke-width: 1px;"/><path class="xgrid crisp" transform="translate(421.7,0)" d="M0,100v264" style="stroke: rgb(200, 200, 200); stroke-opacity: 1; stroke-width: 1px;"/><path class="xgrid crisp" transform="translate(666.3,0)" d="M0,100v264" style="stroke: rgb(200, 200, 200); stroke-opacity: 1; stroke-width: 1px;"/><path class="xgrid crisp" transform="translate(788.6,0)" d="M0,100v264" style="stroke: rgb(200, 200, 200); stroke-opacity: 1; stroke-width: 1px;"/><path class="xgrid crisp" transform="translate(910.9,0)" d="M0,100v264" style="stroke: rgb(200, 200, 200); stroke-opacity: 1; stroke-width: 1px;"/></g><g class="y"><path class="ygrid crisp" transform="translate(0,329.84000000000003)" d="M128,0h832" style="stroke: rgb(200, 200, 200); stroke-opacity: 1; stroke-width: 1px;"/><path class="ygrid crisp" transform="translate(0,280.91999999999996)" d="M128,0h832" style="stroke: rgb(200, 200, 200); stroke-opacity: 1; stroke-width: 1px;"/><path class="ygrid crisp" transform="translate(0,183.07999999999998)" d="M128,0h832" style="stroke: rgb(200, 200, 200); stroke-opacity: 1; stroke-width: 1px;"/><path class="ygrid crisp" transform="translate(0,134.16)" d="M128,0h832" style="stroke: rgb(200, 200, 200); stroke-opacity: 1; stroke-width: 1px;"/></g></g><g class="zerolinelayer"><path class="xzl zl crisp" transform="translate(544,0)" d="M0,100v264" style="stroke: rgb(200, 200, 200); stroke-opacity: 1; stroke-width: 2px;"/><path class="yzl zl crisp" transform="translate(0,232)" d="M128,0h832" style="stroke: rgb(200, 200, 200); stroke-opacity: 1; stroke-width: 2px;"/></g><g class="layer-between"><g class="shapelayer"/><g class="imagelayer"/></g><path class="xlines-below"/><path class="ylines-below"/><g class="overlines-below"/><g class="xaxislayer-below"/><g class="yaxislayer-below"/><g class="overaxes-below"/><g class="overplot"><g class="xy" transform="translate(128,100)" clip-path="url(#clip3ab980xyplot)"><g class="scatterlayer mlayer"><g class="trace scatter tracec948d4" style="stroke-miterlimit: 2; opacity: 1;"><g class="fills"/><g class="errorbars"/><g class="lines"><path class="js-line" d="M49.1,95.31L782.9,95.31" style="vector-effect: none; fill: none; stroke: rgb(0, 0, 0); stroke-opacity: 1; stroke-width: 2px; opacity: 1;"/></g><g class="points"/><g class="text"/></g><g class="trace scatter trace47f0ee" style="stroke-miterlimit: 2; opacity: 1;"><g class="fills"/><g class="errorbars"/><g class="lines"><path class="js-line" d="M49.1,95.31L786.5,95.31" style="vector-effect: none; fill: none; stroke: rgb(100, 143, 255); stroke-opacity: 1; stroke-width: 2px; opacity: 1;"/></g><g class="points"/><g class="text"/></g><g class="trace scatter trace5d39c9" style="stroke-miterlimit: 2; opacity: 1;"><g class="fills"/><g class="errorbars"/><g class="lines"/><g class="points"><path class="point" transform="translate(49.1,95.31)" d="M0,0Z" style="opacity: 1; stroke-width: 0px; fill: rgb(12, 51, 131); fill-opacity: 1;"/><path class="point" transform="translate(122.48,95.31)" d="M-3.0000000000000004,-6.93L-2.9999999999999996,6.93L6,-3.6739403974420594e-16Z" style="opacity: 1; stroke-width: 0px; fill: rgb(11, 85, 153); fill-opacity: 1;"/><path class="point" transform="translate(195.86,95.31)" d="M-3.0000000000000004,-6.93L-2.9999999999999996,6.93L6,-3.6739403974420594e-16Z" style="opacity: 1; stroke-width: 0px; fill: rgb(10, 120, 175); fill-opacity: 1;"/><path class="point" transform="translate(269.24,95.31)" d="M-3.0000000000000004,-6.93L-2.9999999999999996,6.93L6,-3.6739403974420594e-16Z" style="opacity: 1; stroke-width: 0px; fill: rgb(59, 152, 159); fill-opacity: 1;"/><path class="point" transform="translate(342.62,95.31)" d="M-3.0000000000000004,-6.93L-2.9999999999999996,6.93L6,-3.6739403974420594e-16Z" style="opacity: 1; stroke-width: 0px; fill: rgb(152, 182, 106); fill-opacity: 1;"/><path class="point" transform="translate(416,95.31)" d="M-3.0000000000000004,-6.93L-2.9999999999999996,6.93L6,-3.6739403974420594e-16Z" style="opacity: 1; stroke-width: 0px; fill: rgb(242, 211, 56); fill-opacity: 1;"/><path class="point" transform="translate(489.38,95.31)" d="M-3.0000000000000004,-6.93L-2.9999999999999996,6.93L6,-3.6739403974420594e-16Z" style="opacity: 1; stroke-width: 0px; fill: rgb(242, 184, 56); fill-opacity: 1;"/><path class="point" transform="translate(562.76,95.31)" d="M-3.0000000000000004,-6.93L-2.9999999999999996,6.93L6,-3.6739403974420594e-16Z" style="opacity: 1; stroke-width: 0px; fill: rgb(242, 156, 56); fill-opacity: 1;"/><path class="point" transform="translate(636.14,95.31)" d="M-3.0000000000000004,-6.93L-2.9999999999999996,6.93L6,-3.6739403974420594e-16Z" style="opacity: 1; stroke-width: 0px; fill: rgb(237, 119, 51); fill-opacity: 1;"/><path class="point" transform="translate(709.52,95.31)" d="M-3.0000000000000004,-6.93L-2.9999999999999996,6.93L6,-3.6739403974420594e-16Z" style="opacity: 1; stroke-width: 0px; fill: rgb(227, 74, 40); fill-opacity: 1;"/><path class="point" transform="translate(782.9,95.31)" d="M-3.0000000000000004,-6.93L-2.9999999999999996,6.93L6,-3.6739403974420594e-16Z" style="opacity: 1; stroke-width: 0px; fill: rgb(217, 30, 30); fill-opacity: 1;"/></g><g class="text"/></g><g class="trace scatter traceb4c631" style="stroke-miterlimit: 2; opacity: 1;"><g class="fills"/><g class="errorbars"/><g class="lines"><path class="js-line" d="M49.1,104.48L782.9,104.48" style="vector-effect: none; fill: none; stroke: rgb(0, 0, 0); stroke-opacity: 1; stroke-width: 2px; opacity: 1;"/></g><g class="points"/><g class="text"/></g><g class="trace scatter trace9ba54a" style="stroke-miterlimit: 2; opacity: 1;"><g class="fills"/><g class="errorbars"/><g class="lines"><path class="js-line" d="M49.1,104.48L786.5,104.48" style="vector-effect: none; fill: none; stroke: rgb(100, 143, 255); stroke-opacity: 1; stroke-width: 2px; opacity: 1;"/></g><g class="points"/><g class="text"/></g><g class="trace scatter tracea6ea50" style="stroke-miterlimit: 2; opacity: 1;"><g class="fills"/><g class="errorbars"/><g class="lines"/><g class="points"><path class="point" transform="translate(49.1,104.48)" d="M0,0Z" style="opacity: 1; stroke-width: 0px; fill: rgb(12, 51, 131); fill-opacity: 1;"/><path class="point" transform="translate(122.48,104.48)" d="M-3.0000000000000004,-6.93L-2.9999999999999996,6.93L6,-3.6739403974420594e-16Z" style="opacity: 1; stroke-width: 0px; fill: rgb(11, 85, 153); fill-opacity: 1;"/><path class="point" transform="translate(195.86,104.48)" d="M-3.0000000000000004,-6.93L-2.9999999999999996,6.93L6,-3.6739403974420594e-16Z" style="opacity: 1; stroke-width: 0px; fill: rgb(10, 120, 175); fill-opacity: 1;"/><path class="point" transform="translate(269.24,104.48)" d="M-3.0000000000000004,-6.93L-2.9999999999999996,6.93L6,-3.6739403974420594e-16Z" style="opacity: 1; stroke-width: 0px; fill: rgb(59, 152, 159); fill-opacity: 1;"/><path class="point" transform="translate(342.62,104.48)" d="M-3.0000000000000004,-6.93L-2.9999999999999996,6.93L6,-3.6739403974420594e-16Z" style="opacity: 1; stroke-width: 0px; fill: rgb(152, 182, 106); fill-opacity: 1;"/><path class="point" transform="translate(416,104.48)" d="M-3.0000000000000004,-6.93L-2.9999999999999996,6.93L6,-3.6739403974420594e-16Z" style="opacity: 1; stroke-width: 0px; fill: rgb(242, 211, 56); fill-opacity: 1;"/><path class="point" transform="translate(489.38,104.48)" d="M-3.0000000000000004,-6.93L-2.9999999999999996,6.93L6,-3.6739403974420594e-16Z" style="opacity: 1; stroke-width: 0px; fill: rgb(242, 184, 56); fill-opacity: 1;"/><path class="point" transform="translate(562.76,104.48)" d="M-3.0000000000000004,-6.93L-2.9999999999999996,6.93L6,-3.6739403974420594e-16Z" style="opacity: 1; stroke-width: 0px; fill: rgb(242, 156, 56); fill-opacity: 1;"/><path class="point" transform="translate(636.14,104.48)" d="M-3.0000000000000004,-6.93L-2.9999999999999996,6.93L6,-3.6739403974420594e-16Z" style="opacity: 1; stroke-width: 0px; fill: rgb(237, 119, 51); fill-opacity: 1;"/><path class="point" transform="translate(709.52,104.48)" d="M-3.0000000000000004,-6.93L-2.9999999999999996,6.93L6,-3.6739403974420594e-16Z" style="opacity: 1; stroke-width: 0px; fill: rgb(227, 74, 40); fill-opacity: 1;"/><path class="point" transform="translate(782.9,104.48)" d="M-3.0000000000000004,-6.93L-2.9999999999999996,6.93L6,-3.6739403974420594e-16Z" style="opacity: 1; stroke-width: 0px; fill: rgb(217, 30, 30); fill-opacity: 1;"/></g><g class="text"/></g><g class="trace scatter trace7f8588" style="stroke-miterlimit: 2; opacity: 1;"><g class="fills"/><g class="errorbars"/><g class="lines"><path class="js-line" d="M49.1,113.65L782.9,113.65" style="vector-effect: none; fill: none; stroke: rgb(0, 0, 0); stroke-opacity: 1; stroke-width: 2px; opacity: 1;"/></g><g class="points"/><g class="text"/></g><g class="trace scatter tracebed66b" style="stroke-miterlimit: 2; opacity: 1;"><g class="fills"/><g class="errorbars"/><g class="lines"><path class="js-line" d="M49.1,113.65L271.21,113.66L274.17,113.66L786.5,113.65" style="vector-effect: none; fill: none; stroke: rgb(100, 143, 255); stroke-opacity: 1; stroke-width: 2px; opacity: 1;"/></g><g class="points"/><g class="text"/></g><g class="trace scatter trace4fa26b" style="stroke-miterlimit: 2; opacity: 1;"><g class="fills"/><g class="errorbars"/><g class="lines"/><g class="points"><path class="point" transform="translate(49.1,113.65)" d="M0,0Z" style="opacity: 1; stroke-width: 0px; fill: rgb(12, 51, 131); fill-opacity: 1;"/><path class="point" transform="translate(122.48,113.66)" d="M-3.0000000000000004,-6.93L-2.9999999999999996,6.93L6,-3.6739403974420594e-16Z" style="opacity: 1; stroke-width: 0px; fill: rgb(11, 85, 153); fill-opacity: 1;"/><path class="point" transform="translate(195.86,113.66)" d="M-3.0000000000000004,-6.93L-2.9999999999999996,6.93L6,-3.6739403974420594e-16Z" style="opacity: 1; stroke-width: 0px; fill: rgb(10, 120, 175); fill-opacity: 1;"/><path class="point" transform="translate(269.24,113.66)" d="M-3.0000000000000004,-6.93L-2.9999999999999996,6.93L6,-3.6739403974420594e-16Z" style="opacity: 1; stroke-width: 0px; fill: rgb(59, 152, 159); fill-opacity: 1;"/><path class="point" transform="translate(342.62,113.66)" d="M-3.0000000000000004,-6.93L-2.9999999999999996,6.93L6,-3.6739403974420594e-16Z" style="opacity: 1; stroke-width: 0px; fill: rgb(152, 182, 106); fill-opacity: 1;"/><path class="point" transform="translate(416,113.66)" d="M-3.0000000000000004,-6.93L-2.9999999999999996,6.93L6,-3.6739403974420594e-16Z" style="opacity: 1; stroke-width: 0px; fill: rgb(242, 211, 56); fill-opacity: 1;"/><path class="point" transform="translate(489.38,113.66)" d="M-3.0000000000000004,-6.93L-2.9999999999999996,6.93L6,-3.6739403974420594e-16Z" style="opacity: 1; stroke-width: 0px; fill: rgb(242, 184, 56); fill-opacity: 1;"/><path class="point" transform="translate(562.76,113.66)" d="M-3.0000000000000004,-6.93L-2.9999999999999996,6.93L6,-3.6739403974420594e-16Z" style="opacity: 1; stroke-width: 0px; fill: rgb(242, 156, 56); fill-opacity: 1;"/><path class="point" transform="translate(636.14,113.66)" d="M-3.0000000000000004,-6.93L-2.9999999999999996,6.93L6,-3.6739403974420594e-16Z" style="opacity: 1; stroke-width: 0px; fill: rgb(237, 119, 51); fill-opacity: 1;"/><path class="point" transform="translate(709.52,113.66)" d="M-3.0000000000000004,-6.93L-2.9999999999999996,6.93L6,-3.6739403974420594e-16Z" style="opacity: 1; stroke-width: 0px; fill: rgb(227, 74, 40); fill-opacity: 1;"/><path class="point" transform="translate(782.9,113.65)" d="M-3.0000000000000004,-6.93L-2.9999999999999996,6.93L6,-3.6739403974420594e-16Z" style="opacity: 1; stroke-width: 0px; fill: rgb(217, 30, 30); fill-opacity: 1;"/></g><g class="text"/></g><g class="trace scatter trace62c799" style="stroke-miterlimit: 2; opacity: 1;"><g class="fills"/><g class="errorbars"/><g class="lines"><path class="js-line" d="M49.1,122.83L782.9,122.83" style="vector-effect: none; fill: none; stroke: rgb(0, 0, 0); stroke-opacity: 1; stroke-width: 2px; opacity: 1;"/></g><g class="points"/><g class="text"/></g><g class="trace scatter trace276532" style="stroke-miterlimit: 2; opacity: 1;"><g class="fills"/><g class="errorbars"/><g class="lines"><path class="js-line" d="M49.1,122.83L188.27,123.53L191.23,123.59L232.57,125.31L235.52,125.51L267.83,128.56L270.76,128.92L311.69,134.81L314.62,135.26L358.55,141.23L361.49,141.55L390.99,143.75L393.95,143.88L423.54,144.25L426.5,144.2L453.1,142.97L456.05,142.75L485.46,139.66L488.39,139.27L535.16,132.3L538.09,131.86L573.21,127.24L576.15,126.93L605.59,124.68L608.54,124.52L646.96,123.31L649.92,123.26L735.65,122.85L738.61,122.84L782.9,122.83" style="vector-effect: none; fill: none; stroke: rgb(100, 143, 255); stroke-opacity: 1; stroke-width: 2px; opacity: 1;"/></g><g class="points"/><g class="text"/></g><g class="trace scatter tracecab6bb" style="stroke-miterlimit: 2; opacity: 1;"><g class="fills"/><g class="errorbars"/><g class="lines"/><g class="points"><path class="point" transform="translate(49.1,122.83)" d="M0,0Z" style="opacity: 1; stroke-width: 0px; fill: rgb(12, 51, 131); fill-opacity: 1;"/><path class="point" transform="translate(122.48,122.93)" d="M-2.99017480871554,-6.934245064412058L-3.0098191647089307,6.925741014198469L5.999993973424471,0.008504050213588903Z" style="opacity: 1; stroke-width: 0px; fill: rgb(11, 85, 153); fill-opacity: 1;"/><path class="point" transform="translate(195.84,123.7)" d="M-2.9265977485577412,-6.961316371070686L-3.0730672080341774,6.897909678656645L5.999664956591919,0.06340669241404161Z" style="opacity: 1; stroke-width: 0px; fill: rgb(10, 120, 175); fill-opacity: 1;"/><path class="point" transform="translate(268.81,128.68)" d="M-2.521854167736742,-7.117945739935703L-3.4642599488296684,6.709977869332704L5.9861141165664105,0.4079678706029982Z" style="opacity: 1; stroke-width: 0px; fill: rgb(59, 152, 159); fill-opacity: 1;"/><path class="point" transform="translate(341.28,139.13)" d="M-1.980350620741199,-7.287188169584339L-3.958241034214065,6.430958553362319L5.938591654955264,0.85622961622202Z" style="opacity: 1; stroke-width: 0px; fill: rgb(152, 182, 106); fill-opacity: 1;"/><path class="point" transform="translate(414.34,144.32)" d="M-2.5013210664592664,-7.125187220170925L-3.483591906837905,6.69996174814554L5.984912973297171,0.42522547202538463Z" style="opacity: 1; stroke-width: 0px; fill: rgb(242, 211, 56); fill-opacity: 1;"/><path class="point" transform="translate(487.42,139.4)" d="M-3.4583674516633436,-6.7130168009081865L-2.5281025414747877,7.115728883240895L5.986469993138131,-0.4027120823327083Z" style="opacity: 1; stroke-width: 0px; fill: rgb(242, 184, 56); fill-opacity: 1;"/><path class="point" transform="translate(559.87,128.8)" d="M-3.971501272608989,-6.42277803148024L-1.9653111278671216,7.291258613619576L5.936812400476111,-0.8684805821393367Z" style="opacity: 1; stroke-width: 0px; fill: rgb(242, 156, 56); fill-opacity: 1;"/><path class="point" transform="translate(632.84,123.6)" d="M-3.4850694060693765,-6.699193327175985L-2.499749644086367,7.125738678683781L5.9848190501557434,-0.4265453515077965Z" style="opacity: 1; stroke-width: 0px; fill: rgb(237, 119, 51); fill-opacity: 1;"/><path class="point" transform="translate(706.13,122.9)" d="M-3.0660135592377538,-6.90104780845418L-2.9337130854701607,6.958320740821103L5.9997266447079145,-0.057272932366923365Z" style="opacity: 1; stroke-width: 0px; fill: rgb(227, 74, 40); fill-opacity: 1;"/><path class="point" transform="translate(779.31,122.83)" d="M-3.0071621095342107,-6.926895123140074L-2.9928346847044485,6.933097471551227L5.999996794238659,-0.0062023484111524505Z" style="opacity: 1; stroke-width: 0px; fill: rgb(217, 30, 30); fill-opacity: 1;"/></g><g class="text"/></g><g class="trace scatter trace5eaf61" style="stroke-miterlimit: 2; opacity: 1;"><g class="fills"/><g class="errorbars"/><g class="lines"><path class="js-line" d="M49.1,132L782.9,132" style="vector-effect: none; fill: none; stroke: rgb(0, 0, 0); stroke-opacity: 1; stroke-width: 2px; opacity: 1;"/></g><g class="points"/><g class="text"/></g><g class="trace scatter trace9cec42" style="stroke-miterlimit: 2; opacity: 1;"><g class="fills"/><g class="errorbars"/><g class="lines"><path class="js-line" d="M49.1,132L211.96,132.73L214.92,132.8L262.21,134.81L265.16,135.01L318.24,139.33L321.19,139.58L371.38,143.16L374.34,143.3L412.81,144.25L415.77,144.26L454.25,143.46L457.21,143.33L495.6,140.83L498.55,140.59L584.1,133.91L587.05,133.77L628.46,132.5L631.42,132.45L696.55,132.06L699.51,132.05L785.36,132" style="vector-effect: none; fill: none; stroke: rgb(100, 143, 255); stroke-opacity: 1; stroke-width: 2px; opacity: 1;"/></g><g class="points"/><g class="text"/></g><g class="trace scatter trace084902" style="stroke-miterlimit: 2; opacity: 1;"><g class="fills"/><g class="errorbars"/><g class="lines"/><g class="points"><path class="point" transform="translate(49.1,132)" d="M0,0Z" style="opacity: 1; stroke-width: 0px; fill: rgb(12, 51, 131); fill-opacity: 1;"/><path class="point" transform="translate(122.48,132.05)" d="M-2.995534747499131,-6.931931302063322L-3.0044640073391475,6.9280658216130995L5.999998754838279,0.0038654804502235335Z" style="opacity: 1; stroke-width: 0px; fill: rgb(11, 85, 153); fill-opacity: 1;"/><path class="point" transform="translate(195.85,132.44)" d="M-2.9624488777238698,-6.946135374931342L-3.0374632429229855,6.913661623762894L5.999912120646855,0.03247375116844833Z" style="opacity: 1; stroke-width: 0px; fill: rgb(10, 120, 175); fill-opacity: 1;"/><path class="point" transform="translate(269.1,135.28)" d="M-2.7295921721042946,-7.0408967166112415L-3.2659140817352164,6.808722729758028L5.995506253839511,0.2321739868532129Z" style="opacity: 1; stroke-width: 0px; fill: rgb(59, 152, 159); fill-opacity: 1;"/><path class="point" transform="translate(342.18,141.3)" d="M-2.420643832883891,-7.152998212939885L-3.559081772701572,6.660167935962534L5.979725605585463,0.4928302769773511Z" style="opacity: 1; stroke-width: 0px; fill: rgb(152, 182, 106); fill-opacity: 1;"/><path class="point" transform="translate(415.45,144.26)" d="M-2.7179017138647037,-7.045417679156524L-3.277210911477786,6.803292485384627L5.99511262534249,0.24212519377189695Z" style="opacity: 1; stroke-width: 0px; fill: rgb(242, 211, 56); fill-opacity: 1;"/><path class="point" transform="translate(488.73,141.37)" d="M-3.2710744553936046,-6.806245066648088L-2.724254077726355,7.042963844859018L5.9953285331199595,-0.2367187782109305Z" style="opacity: 1; stroke-width: 0px; fill: rgb(242, 184, 56); fill-opacity: 1;"/><path class="point" transform="translate(561.8,135.27)" d="M-3.5659264903843306,-6.656505709843212L-2.4132893301116054,7.1554828355024L5.979215820495936,-0.4989771256591886Z" style="opacity: 1; stroke-width: 0px; fill: rgb(242, 156, 56); fill-opacity: 1;"/><path class="point" transform="translate(635.05,132.39)" d="M-3.2694238534873232,-6.8070380978989755L-2.72596190735419,7.042303009644921L5.995385760841513,-0.23526491174594538Z" style="opacity: 1; stroke-width: 0px; fill: rgb(237, 119, 51); fill-opacity: 1;"/><path class="point" transform="translate(708.41,132.04)" d="M-3.0339079209043978,-6.9152225363666755L-2.966020104193507,6.944611201609485L5.999928025097905,-0.029388665242809885Z" style="opacity: 1; stroke-width: 0px; fill: rgb(227, 74, 40); fill-opacity: 1;"/><path class="point" transform="translate(781.76,132)" d="M-3.0035726866119163,-6.928452288660063L-2.9964265158680514,6.931545869068662L5.999999202479968,-0.0030935804085996717Z" style="opacity: 1; stroke-width: 0px; fill: rgb(217, 30, 30); fill-opacity: 1;"/></g><g class="text"/></g><g class="trace scatter tracefbba43" style="stroke-miterlimit: 2; opacity: 1;"><g class="fills"/><g class="errorbars"/><g class="lines"><path class="js-line" d="M49.1,141.17L782.9,141.17" style="vector-effect: none; fill: none; stroke: rgb(0, 0, 0); stroke-opacity: 1; stroke-width: 2px; opacity: 1;"/></g><g class="points"/><g class="text"/></g><g class="trace scatter trace62eb9d" style="stroke-miterlimit: 2; opacity: 1;"><g class="fills"/><g class="errorbars"/><g class="lines"><path class="js-line" d="M49.1,141.17L265.28,141.91L268.24,141.96L428.13,144.21L431.09,144.2L502.16,143.24L505.12,143.18L611.71,141.39L614.67,141.37L753.86,141.17L756.82,141.17L786.43,141.17" style="vector-effect: none; fill: none; stroke: rgb(100, 143, 255); stroke-opacity: 1; stroke-width: 2px; opacity: 1;"/></g><g class="points"/><g class="text"/></g><g class="trace scatter tracebf5c55" style="stroke-miterlimit: 2; opacity: 1;"><g class="fills"/><g class="errorbars"/><g class="lines"/><g class="points"><path class="point" transform="translate(49.1,141.17)" d="M0,0Z" style="opacity: 1; stroke-width: 0px; fill: rgb(12, 51, 131); fill-opacity: 1;"/><path class="point" transform="translate(122.48,141.18)" d="M-2.999107048934862,-6.930386490595544L-3.0008929012586547,6.929613394351478L5.999999950193517,0.0007730962440662612Z" style="opacity: 1; stroke-width: 0px; fill: rgb(11, 85, 153); fill-opacity: 1;"/><path class="point" transform="translate(195.86,141.27)" d="M-2.991961652719171,-6.9334742711470385L-3.008034312959663,6.926516409571067L5.999995965678834,0.006957861575970654Z" style="opacity: 1; stroke-width: 0px; fill: rgb(10, 120, 175); fill-opacity: 1;"/><path class="point" transform="translate(269.23,141.98)" d="M-2.932884928223006,-6.958669844000528L-3.066834857722363,6.900682861533274L5.999719785945369,0.05798698246725414Z" style="opacity: 1; stroke-width: 0px; fill: rgb(59, 152, 159); fill-opacity: 1;"/><path class="point" transform="translate(342.59,143.49)" d="M-2.855587136196559,-6.990745461507574L-3.1431215812413145,6.866271675773913L5.998708717437873,0.12447378573366064Z" style="opacity: 1; stroke-width: 0px; fill: rgb(152, 182, 106); fill-opacity: 1;"/><path class="point" transform="translate(415.97,144.23)" d="M-2.9301947632031764,-6.959803061128718L-3.0695021590078104,6.89949682917866L5.999696922210987,0.06030623195005784Z" style="opacity: 1; stroke-width: 0px; fill: rgb(242, 211, 56); fill-opacity: 1;"/><path class="point" transform="translate(489.34,143.5)" d="M-3.069493224124767,-6.899500804192441L-2.9302037761780397,6.959799266507042L5.999697000302807,-0.06029846231460074Z" style="opacity: 1; stroke-width: 0px; fill: rgb(242, 184, 56); fill-opacity: 1;"/><path class="point" transform="translate(562.7,141.97)" d="M-3.1431215812413185,-6.866271675773911L-2.855587136196555,6.990745461507576L5.998708717437873,-0.12447378573366402Z" style="opacity: 1; stroke-width: 0px; fill: rgb(242, 156, 56); fill-opacity: 1;"/><path class="point" transform="translate(636.07,141.27)" d="M-3.0668348577223656,-6.900682861533273L-2.9328849282230034,6.958669844000529L5.999719785945369,-0.0579869824672562Z" style="opacity: 1; stroke-width: 0px; fill: rgb(237, 119, 51); fill-opacity: 1;"/><path class="point" transform="translate(709.45,141.18)" d="M-3.008034312959664,-6.926516409571067L-2.99196165271917,6.9334742711470385L5.999995965678834,-0.00695786157597139Z" style="opacity: 1; stroke-width: 0px; fill: rgb(227, 74, 40); fill-opacity: 1;"/><path class="point" transform="translate(782.83,141.17)" d="M-3.0008929012586556,-6.9296133943514775L-2.999107048934861,6.930386490595545L5.999999950193517,-0.0007730962440669958Z" style="opacity: 1; stroke-width: 0px; fill: rgb(217, 30, 30); fill-opacity: 1;"/></g><g class="text"/></g><g class="trace scatter trace74fb83" style="stroke-miterlimit: 2; opacity: 1;"><g class="fills"/><g class="errorbars"/><g class="lines"><path class="js-line" d="M49.1,150.35L782.9,150.35" style="vector-effect: none; fill: none; stroke: rgb(0, 0, 0); stroke-opacity: 1; stroke-width: 2px; opacity: 1;"/></g><g class="points"/><g class="text"/></g><g class="trace scatter tracee16a4d" style="stroke-miterlimit: 2; opacity: 1;"><g class="fills"/><g class="errorbars"/><g class="lines"><path class="js-line" d="M49.1,150.35L786.5,150.34" style="vector-effect: none; fill: none; stroke: rgb(100, 143, 255); stroke-opacity: 1; stroke-width: 2px; opacity: 1;"/></g><g class="points"/><g class="text"/></g><g class="trace scatter traced4781e" style="stroke-miterlimit: 2; opacity: 1;"><g class="fills"/><g class="errorbars"/><g class="lines"/><g class="points"><path class="point" transform="translate(49.1,150.35)" d="M0,0Z" style="opacity: 1; stroke-width: 0px; fill: rgb(12, 51, 131); fill-opacity: 1;"/><path class="point" transform="translate(122.48,150.35)" d="M-3.0000000000000004,-6.93L-2.9999999999999996,6.93L6,-3.6739403974420594e-16Z" style="opacity: 1; stroke-width: 0px; fill: rgb(11, 85, 153); fill-opacity: 1;"/><path class="point" transform="translate(195.86,150.35)" d="M-3.0000000000000004,-6.93L-2.9999999999999996,6.93L6,-3.6739403974420594e-16Z" style="opacity: 1; stroke-width: 0px; fill: rgb(10, 120, 175); fill-opacity: 1;"/><path class="point" transform="translate(269.24,150.35)" d="M-3.0000000000000004,-6.93L-2.9999999999999996,6.93L6,-3.6739403974420594e-16Z" style="opacity: 1; stroke-width: 0px; fill: rgb(59, 152, 159); fill-opacity: 1;"/><path class="point" transform="translate(342.62,150.35)" d="M-3.0000000000000004,-6.93L-2.9999999999999996,6.93L6,-3.6739403974420594e-16Z" style="opacity: 1; stroke-width: 0px; fill: rgb(152, 182, 106); fill-opacity: 1;"/><path class="point" transform="translate(416,150.35)" d="M-3.0000000000000004,-6.93L-2.9999999999999996,6.93L6,-3.6739403974420594e-16Z" style="opacity: 1; stroke-width: 0px; fill: rgb(242, 211, 56); fill-opacity: 1;"/><path class="point" transform="translate(489.38,150.35)" d="M-3.0000000000000004,-6.93L-2.9999999999999996,6.93L6,-3.6739403974420594e-16Z" style="opacity: 1; stroke-width: 0px; fill: rgb(242, 184, 56); fill-opacity: 1;"/><path class="point" transform="translate(562.76,150.35)" d="M-3.0000000000000004,-6.93L-2.9999999999999996,6.93L6,-3.6739403974420594e-16Z" style="opacity: 1; stroke-width: 0px; fill: rgb(242, 156, 56); fill-opacity: 1;"/><path class="point" transform="translate(636.14,150.34)" d="M-3.0000000000000004,-6.93L-2.9999999999999996,6.93L6,-3.6739403974420594e-16Z" style="opacity: 1; stroke-width: 0px; fill: rgb(237, 119, 51); fill-opacity: 1;"/><path class="point" transform="translate(709.52,150.34)" d="M-3.0000000000000004,-6.93L-2.9999999999999996,6.93L6,-3.6739403974420594e-16Z" style="opacity: 1; stroke-width: 0px; fill: rgb(227, 74, 40); fill-opacity: 1;"/><path class="point" transform="translate(782.9,150.34)" d="M-3.0000000000000004,-6.93L-2.9999999999999996,6.93L6,-3.6739403974420594e-16Z" style="opacity: 1; stroke-width: 0px; fill: rgb(217, 30, 30); fill-opacity: 1;"/></g><g class="text"/></g><g class="trace scatter tracee31bf2" style="stroke-miterlimit: 2; opacity: 1;"><g class="fills"/><g class="errorbars"/><g class="lines"><path class="js-line" d="M49.1,159.52L782.9,159.52" style="vector-effect: none; fill: none; stroke: rgb(0, 0, 0); stroke-opacity: 1; stroke-width: 2px; opacity: 1;"/></g><g class="points"/><g class="text"/></g><g class="trace scatter trace17d4ee" style="stroke-miterlimit: 2; opacity: 1;"><g class="fills"/><g class="errorbars"/><g class="lines"><path class="js-line" d="M49.1,159.52L786.5,159.52" style="vector-effect: none; fill: none; stroke: rgb(100, 143, 255); stroke-opacity: 1; stroke-width: 2px; opacity: 1;"/></g><g class="points"/><g class="text"/></g><g class="trace scatter traceb8c825" style="stroke-miterlimit: 2; opacity: 1;"><g class="fills"/><g class="errorbars"/><g class="lines"/><g class="points"><path class="point" transform="translate(49.1,159.52)" d="M0,0Z" style="opacity: 1; stroke-width: 0px; fill: rgb(12, 51, 131); fill-opacity: 1;"/><path class="point" transform="translate(122.48,159.52)" d="M-3.0000000000000004,-6.93L-2.9999999999999996,6.93L6,-3.6739403974420594e-16Z" style="opacity: 1; stroke-width: 0px; fill: rgb(11, 85, 153); fill-opacity: 1;"/><path class="point" transform="translate(195.86,159.52)" d="M-3.0000000000000004,-6.93L-2.9999999999999996,6.93L6,-3.6739403974420594e-16Z" style="opacity: 1; stroke-width: 0px; fill: rgb(10, 120, 175); fill-opacity: 1;"/><path class="point" transform="translate(269.24,159.52)" d="M-3.0000000000000004,-6.93L-2.9999999999999996,6.93L6,-3.6739403974420594e-16Z" style="opacity: 1; stroke-width: 0px; fill: rgb(59, 152, 159); fill-opacity: 1;"/><path class="point" transform="translate(342.62,159.52)" d="M-3.0000000000000004,-6.93L-2.9999999999999996,6.93L6,-3.6739403974420594e-16Z" style="opacity: 1; stroke-width: 0px; fill: rgb(152, 182, 106); fill-opacity: 1;"/><path class="point" transform="translate(416,159.52)" d="M-3.0000000000000004,-6.93L-2.9999999999999996,6.93L6,-3.6739403974420594e-16Z" style="opacity: 1; stroke-width: 0px; fill: rgb(242, 211, 56); fill-opacity: 1;"/><path class="point" transform="translate(489.38,159.52)" d="M-3.0000000000000004,-6.93L-2.9999999999999996,6.93L6,-3.6739403974420594e-16Z" style="opacity: 1; stroke-width: 0px; fill: rgb(242, 184, 56); fill-opacity: 1;"/><path class="point" transform="translate(562.76,159.52)" d="M-3.0000000000000004,-6.93L-2.9999999999999996,6.93L6,-3.6739403974420594e-16Z" style="opacity: 1; stroke-width: 0px; fill: rgb(242, 156, 56); fill-opacity: 1;"/><path class="point" transform="translate(636.14,159.52)" d="M-3.0000000000000004,-6.93L-2.9999999999999996,6.93L6,-3.6739403974420594e-16Z" style="opacity: 1; stroke-width: 0px; fill: rgb(237, 119, 51); fill-opacity: 1;"/><path class="point" transform="translate(709.52,159.52)" d="M-3.0000000000000004,-6.93L-2.9999999999999996,6.93L6,-3.6739403974420594e-16Z" style="opacity: 1; stroke-width: 0px; fill: rgb(227, 74, 40); fill-opacity: 1;"/><path class="point" transform="translate(782.9,159.52)" d="M-3.0000000000000004,-6.93L-2.9999999999999996,6.93L6,-3.6739403974420594e-16Z" style="opacity: 1; stroke-width: 0px; fill: rgb(217, 30, 30); fill-opacity: 1;"/></g><g class="text"/></g><g class="trace scatter trace1ec299" style="stroke-miterlimit: 2; opacity: 1;"><g class="fills"/><g class="errorbars"/><g class="lines"><path class="js-line" d="M49.1,168.69L782.9,168.69" style="vector-effect: none; fill: none; stroke: rgb(0, 0, 0); stroke-opacity: 1; stroke-width: 2px; opacity: 1;"/></g><g class="points"/><g class="text"/></g><g class="trace scatter trace0981ce" style="stroke-miterlimit: 2; opacity: 1;"><g class="fills"/><g class="errorbars"/><g class="lines"><path class="js-line" d="M49.1,168.69L786.5,168.69" style="vector-effect: none; fill: none; stroke: rgb(100, 143, 255); stroke-opacity: 1; stroke-width: 2px; opacity: 1;"/></g><g class="points"/><g class="text"/></g><g class="trace scatter trace4fd7f9" style="stroke-miterlimit: 2; opacity: 1;"><g class="fills"/><g class="errorbars"/><g class="lines"/><g class="points"><path class="point" transform="translate(49.1,168.69)" d="M0,0Z" style="opacity: 1; stroke-width: 0px; fill: rgb(12, 51, 131); fill-opacity: 1;"/><path class="point" transform="translate(122.48,168.69)" d="M-3.0000000000000004,-6.93L-2.9999999999999996,6.93L6,-3.6739403974420594e-16Z" style="opacity: 1; stroke-width: 0px; fill: rgb(11, 85, 153); fill-opacity: 1;"/><path class="point" transform="translate(195.86,168.69)" d="M-3.0000000000000004,-6.93L-2.9999999999999996,6.93L6,-3.6739403974420594e-16Z" style="opacity: 1; stroke-width: 0px; fill: rgb(10, 120, 175); fill-opacity: 1;"/><path class="point" transform="translate(269.24,168.69)" d="M-3.0000000000000004,-6.93L-2.9999999999999996,6.93L6,-3.6739403974420594e-16Z" style="opacity: 1; stroke-width: 0px; fill: rgb(59, 152, 159); fill-opacity: 1;"/><path class="point" transform="translate(342.62,168.69)" d="M-3.0000000000000004,-6.93L-2.9999999999999996,6.93L6,-3.6739403974420594e-16Z" style="opacity: 1; stroke-width: 0px; fill: rgb(152, 182, 106); fill-opacity: 1;"/><path class="point" transform="translate(416,168.69)" d="M-3.0000000000000004,-6.93L-2.9999999999999996,6.93L6,-3.6739403974420594e-16Z" style="opacity: 1; stroke-width: 0px; fill: rgb(242, 211, 56); fill-opacity: 1;"/><path class="point" transform="translate(489.38,168.69)" d="M-3.0000000000000004,-6.93L-2.9999999999999996,6.93L6,-3.6739403974420594e-16Z" style="opacity: 1; stroke-width: 0px; fill: rgb(242, 184, 56); fill-opacity: 1;"/><path class="point" transform="translate(562.76,168.69)" d="M-3.0000000000000004,-6.93L-2.9999999999999996,6.93L6,-3.6739403974420594e-16Z" style="opacity: 1; stroke-width: 0px; fill: rgb(242, 156, 56); fill-opacity: 1;"/><path class="point" transform="translate(636.14,168.69)" d="M-3.0000000000000004,-6.93L-2.9999999999999996,6.93L6,-3.6739403974420594e-16Z" style="opacity: 1; stroke-width: 0px; fill: rgb(237, 119, 51); fill-opacity: 1;"/><path class="point" transform="translate(709.52,168.69)" d="M-3.0000000000000004,-6.93L-2.9999999999999996,6.93L6,-3.6739403974420594e-16Z" style="opacity: 1; stroke-width: 0px; fill: rgb(227, 74, 40); fill-opacity: 1;"/><path class="point" transform="translate(782.9,168.69)" d="M-3.0000000000000004,-6.93L-2.9999999999999996,6.93L6,-3.6739403974420594e-16Z" style="opacity: 1; stroke-width: 0px; fill: rgb(217, 30, 30); fill-opacity: 1;"/></g><g class="text"/></g><g class="trace scatter trace02159d" style="stroke-miterlimit: 2; opacity: 1;"><g class="fills"/><g class="errorbars"/><g class="lines"><path class="js-line" d="M689.12,98.46L142.91,165.53" style="vector-effect: none; fill: none; stroke: rgb(220, 38, 127); stroke-opacity: 1; stroke-width: 2px; opacity: 1;"/></g><g class="points"/><g class="text"/></g><g class="trace scatter trace123add" style="stroke-miterlimit: 2; opacity: 1;"><g class="fills"/><g class="errorbars"/><g class="lines"/><g class="points"><path class="point" transform="translate(689.12,98.46)" d="M0,0Z" style="opacity: 1; stroke-width: 0px; fill: rgb(12, 51, 131); fill-opacity: 1;"/><path class="point" transform="translate(634.77,105.14)" d="M3.8223175064076234,6.512663731547162L2.132945423874906,-7.243993637405481L-5.9552629302825295,0.7313299058583194Z" style="opacity: 1; stroke-width: 0px; fill: rgb(11, 85, 153); fill-opacity: 1;"/><path class="point" transform="translate(580.41,111.81)" d="M3.8223175064076234,6.512663731547162L2.132945423874906,-7.243993637405481L-5.9552629302825295,0.7313299058583194Z" style="opacity: 1; stroke-width: 0px; fill: rgb(10, 120, 175); fill-opacity: 1;"/><path class="point" transform="translate(526.06,118.49)" d="M3.8223175064076234,6.512663731547162L2.132945423874906,-7.243993637405481L-5.9552629302825295,0.7313299058583194Z" style="opacity: 1; stroke-width: 0px; fill: rgb(59, 152, 159); fill-opacity: 1;"/><path class="point" transform="translate(471.7,125.16)" d="M3.8224545787592072,6.51258328110457L2.1327929577729705,-7.24403852828476L-5.955247536532178,0.7314552471801892Z" style="opacity: 1; stroke-width: 0px; fill: rgb(152, 182, 106); fill-opacity: 1;"/><path class="point" transform="translate(417.35,131.83)" d="M3.8212014228798195,6.51331863843473L2.1341867426049568,-7.243628023835103L-5.955388165484776,0.7303093854003735Z" style="opacity: 1; stroke-width: 0px; fill: rgb(242, 211, 56); fill-opacity: 1;"/><path class="point" transform="translate(362.99,138.51)" d="M3.8223175064076234,6.512663731547162L2.132945423874906,-7.243993637405481L-5.9552629302825295,0.7313299058583194Z" style="opacity: 1; stroke-width: 0px; fill: rgb(242, 184, 56); fill-opacity: 1;"/><path class="point" transform="translate(308.64,145.18)" d="M3.8223175064076234,6.512663731547162L2.132945423874906,-7.243993637405481L-5.9552629302825295,0.7313299058583194Z" style="opacity: 1; stroke-width: 0px; fill: rgb(242, 156, 56); fill-opacity: 1;"/><path class="point" transform="translate(254.28,151.86)" d="M3.8223175064076234,6.512663731547162L2.132945423874906,-7.243993637405481L-5.9552629302825295,0.7313299058583194Z" style="opacity: 1; stroke-width: 0px; fill: rgb(237, 119, 51); fill-opacity: 1;"/><path class="point" transform="translate(199.93,158.53)" d="M3.8223175064076234,6.512663731547162L2.132945423874906,-7.243993637405481L-5.9552629302825295,0.7313299058583194Z" style="opacity: 1; stroke-width: 0px; fill: rgb(227, 74, 40); fill-opacity: 1;"/><path class="point" transform="translate(145.58,165.2)" d="M3.8224545787592072,6.51258328110457L2.1327929577729705,-7.24403852828476L-5.955247536532178,0.7314552471801892Z" style="opacity: 1; stroke-width: 0px; fill: rgb(217, 30, 30); fill-opacity: 1;"/></g><g class="text"/></g></g></g></g><path class="xlines-above crisp" d="M0,0" style="fill: none;"/><path class="ylines-above crisp" d="M0,0" style="fill: none;"/><g class="overlines-above"/><g class="xaxislayer-above"><g class="xtick"><text text-anchor="middle" x="0" y="393" transform="translate(177.1,0)" style="font-family: 'Open Sans', verdana, arial, sans-serif; font-size: 28px; fill: rgb(0, 0, 0); fill-opacity: 1; white-space: pre; opacity: 1;">−1500</text></g><g class="xtick"><text text-anchor="middle" x="0" y="393" style="font-family: 'Open Sans', verdana, arial, sans-serif; font-size: 28px; fill: rgb(0, 0, 0); fill-opacity: 1; white-space: pre; opacity: 1;" transform="translate(299.4,0)">−1000</text></g><g class="xtick"><text text-anchor="middle" x="0" y="393" style="font-family: 'Open Sans', verdana, arial, sans-serif; font-size: 28px; fill: rgb(0, 0, 0); fill-opacity: 1; white-space: pre; opacity: 1;" transform="translate(421.7,0)">−500</text></g><g class="xtick"><text text-anchor="middle" x="0" y="393" style="font-family: 'Open Sans', verdana, arial, sans-serif; font-size: 28px; fill: rgb(0, 0, 0); fill-opacity: 1; white-space: pre; opacity: 1;" transform="translate(544,0)">0</text></g><g class="xtick"><text text-anchor="middle" x="0" y="393" style="font-family: 'Open Sans', verdana, arial, sans-serif; font-size: 28px; fill: rgb(0, 0, 0); fill-opacity: 1; white-space: pre; opacity: 1;" transform="translate(666.3,0)">500</text></g><g class="xtick"><text text-anchor="middle" x="0" y="393" style="font-family: 'Open Sans', verdana, arial, sans-serif; font-size: 28px; fill: rgb(0, 0, 0); fill-opacity: 1; white-space: pre; opacity: 1;" transform="translate(788.6,0)">1000</text></g><g class="xtick"><text text-anchor="middle" x="0" y="393" style="font-family: 'Open Sans', verdana, arial, sans-serif; font-size: 28px; fill: rgb(0, 0, 0); fill-opacity: 1; white-space: pre; opacity: 1;" transform="translate(910.9,0)">1500</text></g></g><g class="yaxislayer-above"><g class="ytick"><text text-anchor="end" x="127" y="9.799999999999999" transform="translate(0,329.84000000000003)" style="font-family: 'Open Sans', verdana, arial, sans-serif; font-size: 28px; fill: rgb(0, 0, 0); fill-opacity: 1; white-space: pre; opacity: 1;">−400</text></g><g class="ytick"><text text-anchor="end" x="127" y="9.799999999999999" style="font-family: 'Open Sans', verdana, arial, sans-serif; font-size: 28px; fill: rgb(0, 0, 0); fill-opacity: 1; white-space: pre; opacity: 1;" transform="translate(0,280.91999999999996)">−200</text></g><g class="ytick"><text text-anchor="end" x="127" y="9.799999999999999" style="font-family: 'Open Sans', verdana, arial, sans-serif; font-size: 28px; fill: rgb(0, 0, 0); fill-opacity: 1; white-space: pre; opacity: 1;" transform="translate(0,232)">0</text></g><g class="ytick"><text text-anchor="end" x="127" y="9.799999999999999" style="font-family: 'Open Sans', verdana, arial, sans-serif; font-size: 28px; fill: rgb(0, 0, 0); fill-opacity: 1; white-space: pre; opacity: 1;" transform="translate(0,183.07999999999998)">200</text></g><g class="ytick"><text text-anchor="end" x="127" y="9.799999999999999" style="font-family: 'Open Sans', verdana, arial, sans-serif; font-size: 28px; fill: rgb(0, 0, 0); fill-opacity: 1; white-space: pre; opacity: 1;" transform="translate(0,134.16)">400</text></g></g><g class="overaxes-above"/></g></g><g class="polarlayer"/><g class="smithlayer"/><g class="ternarylayer"/><g class="geolayer"/><g class="funnelarealayer"/><g class="pielayer"/><g class="iciclelayer"/><g class="treemaplayer"/><g class="sunburstlayer"/><g class="glimages"/><defs id="topdefs-3ab980"><g class="clips"/><clipPath id="legend3ab980"><rect width="207" height="260" x="2" y="2"/></clipPath></defs><g class="layer-above"><g class="imagelayer"/><g class="shapelayer"/></g><g class="infolayer"><g class="legend" pointer-events="all" transform="translate(976.64,100)"><rect class="bg" shape-rendering="crispEdges" width="209" height="262" x="1" y="1" style="stroke: rgb(0, 0, 0); stroke-opacity: 1; fill: rgb(255, 255, 255); fill-opacity: 1; stroke-width: 2px;"/><g class="scrollbox" transform="" clip-path="url(#legend3ab980)"><g class="groups" transform=""><g class="traces" transform="translate(2,28.650000000000002)" style="opacity: 1;"><text class="legendtext" text-anchor="start" x="5" y="12.090000000000002" style="font-family: 'Open Sans', verdana, arial, sans-serif; font-size: 31px; fill: rgb(0, 0, 0); fill-opacity: 1; white-space: pre;">OS</text><g class="layers"><g class="legendfill"/><g class="legendlines"/><g class="legendsymbols"><g class="legendpoints"/></g></g><rect class="legendtoggle" x="0" y="-21.650000000000002" width="201.9375" height="43.300000000000004" style="fill: rgb(0, 0, 0); fill-opacity: 0;"/></g><g class="traces" transform="translate(2,70)" style="opacity: 1;"><text class="legendtext" text-anchor="start" x="40" y="10.92" style="font-family: 'Open Sans', verdana, arial, sans-serif; font-size: 28px; fill: rgb(0, 0, 0); fill-opacity: 1; white-space: pre;">Ref</text><g class="layers" style="opacity: 1;"><g class="legendfill"/><g class="legendlines"><path class="js-line" d="M5,0h30" style="fill: none; stroke: rgb(0, 0, 0); stroke-opacity: 1; stroke-width: 2px;"/></g><g class="legendsymbols"><g class="legendpoints"/></g></g><rect class="legendtoggle" x="0" y="-19.7" width="201.9375" height="39.4" style="fill: rgb(0, 0, 0); fill-opacity: 0;"/></g><g class="traces" transform="translate(2,109.4)" style="opacity: 1;"><text class="legendtext" text-anchor="start" x="40" y="10.92" style="font-family: 'Open Sans', verdana, arial, sans-serif; font-size: 28px; fill: rgb(0, 0, 0); fill-opacity: 1; white-space: pre;">Pos</text><g class="layers" style="opacity: 1;"><g class="legendfill"/><g class="legendlines"><path class="js-line" d="M5,0h30" style="fill: none; stroke: rgb(100, 143, 255); stroke-opacity: 1; stroke-width: 2px;"/></g><g class="legendsymbols"><g class="legendpoints"/></g></g><rect class="legendtoggle" x="0" y="-19.7" width="201.9375" height="39.4" style="fill: rgb(0, 0, 0); fill-opacity: 0;"/></g><g class="traces" transform="translate(2,148.79999999999998)" style="opacity: 1;"><text class="legendtext" text-anchor="start" x="40" y="10.92" style="font-family: 'Open Sans', verdana, arial, sans-serif; font-size: 28px; fill: rgb(0, 0, 0); fill-opacity: 1; white-space: pre;">Break point</text><g class="layers" style="opacity: 1;"><g class="legendfill"/><g class="legendlines"/><g class="legendsymbols"><g class="legendpoints"><path class="scatterpts" transform="translate(20,0)" d="M-3.0000000000000004,-6.93L-2.9999999999999996,6.93L6,-3.6739403974420594e-16Z" style="opacity: 1; stroke-width: 0px; fill: rgb(12, 51, 131); fill-opacity: 1;"/></g></g></g><rect class="legendtoggle" x="0" y="-19.7" width="201.9375" height="39.4" style="fill: rgb(0, 0, 0); fill-opacity: 0;"/></g></g><g class="groups" transform="translate(0,10)"><g class="traces" transform="translate(2,190.15)" style="opacity: 1;"><text class="legendtext" text-anchor="start" x="5" y="12.090000000000002" style="font-family: 'Open Sans', verdana, arial, sans-serif; font-size: 31px; fill: rgb(0, 0, 0); fill-opacity: 1; white-space: pre;">TS</text><g class="layers"><g class="legendfill"/><g class="legendlines"/><g class="legendsymbols"><g class="legendpoints"/></g></g><rect class="legendtoggle" x="0" y="-21.650000000000002" width="201.9375" height="43.300000000000004" style="fill: rgb(0, 0, 0); fill-opacity: 0;"/></g><g class="traces" transform="translate(2,231.5)" style="opacity: 1;"><text class="legendtext" text-anchor="start" x="40" y="10.92" style="font-family: 'Open Sans', verdana, arial, sans-serif; font-size: 28px; fill: rgb(0, 0, 0); fill-opacity: 1; white-space: pre;">Pos</text><g class="layers" style="opacity: 1;"><g class="legendfill"/><g class="legendlines"><path class="js-line" d="M5,0h30" style="fill: none; stroke: rgb(220, 38, 127); stroke-opacity: 1; stroke-width: 2px;"/></g><g class="legendsymbols"><g class="legendpoints"/></g></g><rect class="legendtoggle" x="0" y="-19.7" width="201.9375" height="39.4" style="fill: rgb(0, 0, 0); fill-opacity: 0;"/></g><g class="traces" transform="translate(2,270.90000000000003)" style="opacity: 1;"><text class="legendtext" text-anchor="start" x="40" y="10.92" style="font-family: 'Open Sans', verdana, arial, sans-serif; font-size: 28px; fill: rgb(0, 0, 0); fill-opacity: 1; white-space: pre;">Break point</text><g class="layers" style="opacity: 1;"><g class="legendfill"/><g class="legendlines"/><g class="legendsymbols"><g class="legendpoints"><path class="scatterpts" transform="translate(20,0)" d="M-3.0000000000000004,-6.93L-2.9999999999999996,6.93L6,-3.6739403974420594e-16Z" style="opacity: 1; stroke-width: 0px; fill: rgb(12, 51, 131); fill-opacity: 1;"/></g></g></g><rect class="legendtoggle" x="0" y="-19.7" width="201.9375" height="39.4" style="fill: rgb(0, 0, 0); fill-opacity: 0;"/></g></g></g><rect class="scrollbar" rx="20" ry="3" width="0" height="0" x="0" y="0" style="fill: rgb(128, 139, 164); fill-opacity: 1;"/></g><g class="g-gtitle"/><g class="g-xtitle"><text class="xtitle" x="544" y="437.3" text-anchor="middle" style="opacity: 1; font-family: 'Open Sans', verdana, arial, sans-serif; font-size: 34px; fill: rgb(0, 0, 0); fill-opacity: 1; white-space: pre;">East [m]</text></g><g class="g-ytitle" transform="translate(9.728515625,0)"><text class="ytitle" transform="rotate(-90,24.271874999999994,232)" x="24.271874999999994" y="232" text-anchor="middle" style="opacity: 1; font-family: 'Open Sans', verdana, arial, sans-serif; font-size: 34px; fill: rgb(0, 0, 0); fill-opacity: 1; white-space: pre;">North [m]</text></g></g></svg>