<svg class="main-svg" xmlns="http://www.w3.org/2000/svg" xmlns:xlink="http://www.w3.org/1999/xlink" width="1000" height="350" style="" viewBox="0 0 1000 350"><rect x="0" y="0" width="1000" height="350" style="fill: rgb(255, 255, 255); fill-opacity: 1;"/><defs id="defs-bed1f8"><g class="clips"><clipPath id="clipbed1f8xyplot" class="plotclip"><rect width="882" height="269"/></clipPath><clipPath class="axesclip" id="clipbed1f8x"><rect x="102" y="0" width="882" height="350"/></clipPath><clipPath class="axesclip" id="clipbed1f8y"><rect x="0" y="16" width="1000" height="269"/></clipPath><clipPath class="axesclip" id="clipbed1f8xy"><rect x="102" y="16" width="882" height="269"/></clipPath></g><g class="gradients"/><g class="patterns"/></defs><g class="bglayer"/><g class="layer-below"><g class="imagelayer"/><g class="shapelayer"/></g><g class="cartesianlayer"><g class="subplot xy"><g class="layer-subplot"><g class="shapelayer"/><g class="imagelayer"/></g><g class="minor-gridlayer"><g class="x"/><g class="y"/></g><g class="gridlayer"><g class="x"><path class="xgrid crisp" transform="translate(116.23,0)" d="M0,16v269" style="stroke: rgb(200, 200, 200); stroke-opacity: 1; stroke-width: 1px;"/><path class="xgrid crisp" transform="translate(258.48,0)" d="M0,16v269" style="stroke: rgb(200, 200, 200); stroke-opacity: 1; stroke-width: 1px;"/><path class="xgrid crisp" transform="translate(400.74,0)" d="M0,16v269" style="stroke: rgb(200, 200, 200); stroke-opacity: 1; stroke-width: 1px;"/><path class="xgrid crisp" transform="translate(685.26,0)" d="M0,16v269" style="stroke: rgb(200, 200, 200); stroke-opacity: 1; stroke-width: 1px;"/><path class="xgrid crisp" transform="translate(827.52,0)" d="M0,16v269" style="stroke: rgb(200, 200, 200); stroke-opacity: 1; stroke-width: 1px;"/><path class="xgrid crisp" transform="translate(969.77,0)" d="M0,16v269" style="stroke: rgb(200, 200, 200); stroke-opacity: 1; stroke-width: 1px;"/></g><g class="y"><path class="ygrid crisp" transform="translate(0,240.17)" d="M102,0h882" style="stroke: rgb(200, 200, 200); stroke-opacity: 1; stroke-width: 1px;"/><path class="ygrid crisp" transform="translate(0,195.33)" d="M102,0h882" style="stroke: rgb(200, 200, 200); stroke-opacity: 1; stroke-width: 1px;"/><path class="ygrid crisp" transform="translate(0,105.67)" d="M102,0h882" style="stroke: rgb(200, 200, 200); stroke-opacity: 1; stroke-width: 1px;"/><path class="ygrid crisp" transform="translate(0,60.83)" d="M102,0h882" style="stroke: rgb(200, 200, 200); stroke-opacity: 1; stroke-width: 1px;"/></g></g><g class="zerolinelayer"><path class="xzl zl crisp" transform="translate(543,0)" d="M0,16v269" style="stroke: rgb(200, 200, 200); stroke-opacity: 1; stroke-width: 2px;"/><path class="yzl zl crisp" transform="translate(0,150.5)" d="M102,0h882" style="stroke: rgb(200, 200, 200); stroke-opacity: 1; stroke-width: 2px;"/></g><g class="layer-between"><g class="shapelayer"/><g class="imagelayer"/></g><path class="xlines-below"/><path class="ylines-below"/><g class="overlines-below"/><g class="xaxislayer-below"/><g class="yaxislayer-below"/><g class="overaxes-below"/><g class="overplot"><g class="xy" transform="translate(102,16)" clip-path="url(#clipbed1f8xyplot)"><g class="scatterlayer mlayer"><g class="trace scatter trace974dc9" style="stroke-miterlimit: 2; opacity: 1;"><g class="fills"/><g class="errorbars"/><g class="lines"><path class="js-line" d="M14.23,44.83L867.77,44.83" style="vector-effect: none; fill: none; stroke: rgb(0, 0, 0); stroke-opacity: 1; stroke-width: 2px; opacity: 1;"/></g><g class="points"/><g class="text"/></g><g class="trace scatter tracea0d44f" style="stroke-miterlimit: 2; opacity: 1;"><g class="fills"/><g class="errorbars"/><g class="lines"><path class="js-line" d="M14.23,44.83L867.77,44.83" style="vector-effect: none; fill: none; stroke: rgb(100, 143, 255); stroke-opacity: 1; stroke-width: 2px; opacity: 1;"/></g><g class="points"/><g class="text"/></g><g class="trace scatter trace65aa9f" style="stroke-miterlimit: 2; opacity: 1;"><g class="fills"/><g class="errorbars"/><g class="lines"/><g class="points"><path class="point" transform="translate(14.23,44.83)" d="M-3.2500000000000004,-7.51L-3.2499999999999996,7.51L6.5,-3.9801020972288977e-16Z" style="opacity: 1; stroke-width: 0px; fill: rgb(12, 51, 131); fill-opacity: 1;"/><path class="point" transform="translate(116.65,44.83)" d="M-3.2500000000001723,-7.509999999999925L-3.2499999999998277,7.510000000000074L6.5,-1.4905687320703136e-13Z" style="opacity: 1; stroke-width: 0px; fill: rgb(11, 94, 159); fill-opacity: 1;"/><path class="point" transform="translate(219.08,44.83)" d="M-3.250000000001006,-7.509999999999565L-3.249999999998994,7.510000000000435L6.5,-8.707018392133832e-13Z" style="opacity: 1; stroke-width: 0px; fill: rgb(10, 136, 186); fill-opacity: 1;"/><path class="point" transform="translate(321.5,44.83)" d="M-3.2500000000004925,-7.509999999999787L-3.2499999999995075,7.510000000000213L6.5,-4.261685401534704e-13Z" style="opacity: 1; stroke-width: 0px; fill: rgb(126, 174, 121); fill-opacity: 1;"/><path class="point" transform="translate(423.93,44.83)" d="M-3.2500000000000004,-7.51L-3.2499999999999996,7.51L6.5,-3.9801020972288977e-16Z" style="opacity: 1; stroke-width: 0px; fill: rgb(242, 211, 56); fill-opacity: 1;"/><path class="point" transform="translate(526.35,44.83)" d="M-3.2500000000000004,-7.51L-3.2499999999999996,7.51L6.5,-3.9801020972288977e-16Z" style="opacity: 1; stroke-width: 0px; fill: rgb(242, 177, 56); fill-opacity: 1;"/><path class="point" transform="translate(628.78,44.83)" d="M-3.2499999999993583,-7.510000000000278L-3.2500000000006417,7.509999999999722L6.5,5.552686136151679e-13Z" style="opacity: 1; stroke-width: 0px; fill: rgb(242, 143, 56); fill-opacity: 1;"/><path class="point" transform="translate(731.21,44.83)" d="M-3.2499999999990634,-7.510000000000405L-3.2500000000009366,7.509999999999595L6.5,8.107309315814163e-13Z" style="opacity: 1; stroke-width: 0px; fill: rgb(230, 87, 43); fill-opacity: 1;"/><path class="point" transform="translate(833.63,44.83)" d="M-3.2500000000000004,-7.51L-3.2499999999999996,7.51L6.5,-3.9801020972288977e-16Z" style="opacity: 1; stroke-width: 0px; fill: rgb(217, 30, 30); fill-opacity: 1;"/></g><g class="text"/></g><g class="trace scatter trace7d917d" style="stroke-miterlimit: 2; opacity: 1;"><g class="fills"/><g class="errorbars"/><g class="lines"><path class="js-line" d="M14.23,67.25L867.77,67.25" style="vector-effect: none; fill: none; stroke: rgb(0, 0, 0); stroke-opacity: 1; stroke-width: 2px; opacity: 1;"/></g><g class="points"/><g class="text"/></g><g class="trace scatter trace126940" style="stroke-miterlimit: 2; opacity: 1;"><g class="fills"/><g class="errorbars"/><g class="lines"><path class="js-line" d="M14.23,67.25L867.77,67.25" style="vector-effect: none; fill: none; stroke: rgb(100, 143, 255); stroke-opacity: 1; stroke-width: 2px; opacity: 1;"/></g><g class="points"/><g class="text"/></g><g class="trace scatter trace571bee" style="stroke-miterlimit: 2; opacity: 1;"><g class="fills"/><g class="errorbars"/><g class="lines"/><g class="points"><path class="point" transform="translate(14.23,67.25)" d="M-3.2500000000000004,-7.51L-3.2499999999999996,7.51L6.5,-3.9801020972288977e-16Z" style="opacity: 1; stroke-width: 0px; fill: rgb(12, 51, 131); fill-opacity: 1;"/><path class="point" transform="translate(116.65,67.25)" d="M-3.250000000001236,-7.509999999999465L-3.249999999998764,7.5100000000005345L6.5,-1.0698758498311363e-12Z" style="opacity: 1; stroke-width: 0px; fill: rgb(11, 94, 159); fill-opacity: 1;"/><path class="point" transform="translate(219.08,67.25)" d="M-3.2500000000082547,-7.5099999999964275L-3.2499999999917453,7.510000000003572L6.5,-7.144683173672605e-12Z" style="opacity: 1; stroke-width: 0px; fill: rgb(10, 136, 186); fill-opacity: 1;"/><path class="point" transform="translate(321.5,67.25)" d="M-3.2500000000045377,-7.509999999998036L-3.2499999999954623,7.5100000000019635L6.5,-3.927589915216289e-12Z" style="opacity: 1; stroke-width: 0px; fill: rgb(126, 174, 121); fill-opacity: 1;"/><path class="point" transform="translate(423.93,67.25)" d="M-3.2500000000000004,-7.51L-3.2499999999999996,7.51L6.5,-3.9801020972288977e-16Z" style="opacity: 1; stroke-width: 0px; fill: rgb(242, 211, 56); fill-opacity: 1;"/><path class="point" transform="translate(526.35,67.25)" d="M-3.2500000000000004,-7.51L-3.2499999999999996,7.51L6.5,-3.9801020972288977e-16Z" style="opacity: 1; stroke-width: 0px; fill: rgb(242, 177, 56); fill-opacity: 1;"/><path class="point" transform="translate(628.78,67.25)" d="M-3.2499999999922213,-7.510000000003366L-3.2500000000077787,7.509999999996634L6.5,6.732549522629539e-12Z" style="opacity: 1; stroke-width: 0px; fill: rgb(242, 143, 56); fill-opacity: 1;"/><path class="point" transform="translate(731.21,67.25)" d="M-3.2499999999941505,-7.510000000002531L-3.2500000000058495,7.5099999999974685L6.5,5.062663071290841e-12Z" style="opacity: 1; stroke-width: 0px; fill: rgb(230, 87, 43); fill-opacity: 1;"/><path class="point" transform="translate(833.63,67.25)" d="M-3.2500000000000004,-7.51L-3.2499999999999996,7.51L6.5,-3.9801020972288977e-16Z" style="opacity: 1; stroke-width: 0px; fill: rgb(217, 30, 30); fill-opacity: 1;"/></g><g class="text"/></g><g class="trace scatter tracebebb01" style="stroke-miterlimit: 2; opacity: 1;"><g class="fills"/><g class="errorbars"/><g class="lines"><path class="js-line" d="M14.23,89.67L867.77,89.67" style="vector-effect: none; fill: none; stroke: rgb(0, 0, 0); stroke-opacity: 1; stroke-width: 2px; opacity: 1;"/></g><g class="points"/><g class="text"/></g><g class="trace scatter traceef955d" style="stroke-miterlimit: 2; opacity: 1;"><g class="fills"/><g class="errorbars"/><g class="lines"><path class="js-line" d="M14.23,89.67L139.83,88.93L142.68,88.82L182.64,86.55L185.49,86.34L259.68,79.68L262.54,79.38L308.19,75.45L311.05,75.28L345.3,74.12L348.15,74.09L459.48,74.05L462.34,74.05L573.67,74.73L576.52,74.81L625.04,77.01L627.9,77.19L670.7,80.79L673.55,81.09L742.02,87.95L744.88,88.11L776.27,89.11L779.13,89.13L867.62,89.14" style="vector-effect: none; fill: none; stroke: rgb(100, 143, 255); stroke-opacity: 1; stroke-width: 2px; opacity: 1;"/></g><g class="points"/><g class="text"/></g><g class="trace scatter trace58f570" style="stroke-miterlimit: 2; opacity: 1;"><g class="fills"/><g class="errorbars"/><g class="lines"/><g class="points"><path class="point" transform="translate(14.23,89.67)" d="M-3.2500000000000004,-7.51L-3.2499999999999996,7.51L6.5,-3.9801020972288977e-16Z" style="opacity: 1; stroke-width: 0px; fill: rgb(12, 51, 131); fill-opacity: 1;"/><path class="point" transform="translate(116.65,89.53)" d="M-3.2867328871380677,-7.493996725953719L-3.2131891950126024,7.525823223877521L6.49992208215067,-0.03182649792380317Z" style="opacity: 1; stroke-width: 0px; fill: rgb(11, 94, 159); fill-opacity: 1;"/><path class="point" transform="translate(219.05,83.56)" d="M-3.459663253750019,-7.415748793658792L-3.0377720847512197,7.598324865462533L6.497435338501239,-0.1825760718037414Z" style="opacity: 1; stroke-width: 0px; fill: rgb(10, 136, 186); fill-opacity: 1;"/><path class="point" transform="translate(321.43,74.78)" d="M-3.3507336699740513,-7.465600034351039L-3.1486781577484058,7.553040835247622L6.499411827722457,-0.08744080089658424Z" style="opacity: 1; stroke-width: 0px; fill: rgb(126, 174, 121); fill-opacity: 1;"/><path class="point" transform="translate(423.86,74.05)" d="M-3.250031073529967,-7.509986552657045L-3.249968926414393,7.510013447214384L6.49999999994436,-0.000026894557338829476Z" style="opacity: 1; stroke-width: 0px; fill: rgb(242, 211, 56); fill-opacity: 1;"/><path class="point" transform="translate(526.28,74.05)" d="M-3.2500109348583335,-7.509995267861442L-3.249989065134776,7.510004732122636L6.4999999999931095,-0.000009464261193365391Z" style="opacity: 1; stroke-width: 0px; fill: rgb(242, 177, 56); fill-opacity: 1;"/><path class="point" transform="translate(628.7,77.24)" d="M-3.0916955126897996,-7.576543991610802L-3.4068732802790116,7.440148819218666L6.498568792968811,0.1363951723921358Z" style="opacity: 1; stroke-width: 0px; fill: rgb(242, 143, 56); fill-opacity: 1;"/><path class="point" transform="translate(731.07,87.21)" d="M-3.069630399800757,-7.585510477787175L-3.4285138802745685,7.430201381709961L6.4981442800753255,0.15530909607721524Z" style="opacity: 1; stroke-width: 0px; fill: rgb(230, 87, 43); fill-opacity: 1;"/><path class="point" transform="translate(833.48,89.14)" d="M-3.2499896391661736,-7.510004483707884L-3.2500103608276403,7.509995516277821L6.499999999993814,0.000008967430062000117Z" style="opacity: 1; stroke-width: 0px; fill: rgb(217, 30, 30); fill-opacity: 1;"/></g><g class="text"/></g><g class="trace scatter traceb62f66" style="stroke-miterlimit: 2; opacity: 1;"><g class="fills"/><g class="errorbars"/><g class="lines"><path class="js-line" d="M14.23,112.08L867.77,112.08" style="vector-effect: none; fill: none; stroke: rgb(0, 0, 0); stroke-opacity: 1; stroke-width: 2px; opacity: 1;"/></g><g class="points"/><g class="text"/></g><g class="trace scatter tracedbb93b" style="stroke-miterlimit: 2; opacity: 1;"><g class="fills"/><g class="errorbars"/><g class="lines"><path class="js-line" d="M14.23,112.08L122.7,111.44L125.55,111.27L151.22,108.9L154.07,108.54L179.72,104.42L182.57,103.87L222.44,95.2L225.28,94.53L265.12,84.49L267.96,83.72L290.73,78.21L293.57,77.64L316.36,73.99L319.21,73.65L342.02,71.87L344.88,71.76L376.28,71.59L379.13,71.59L556.12,72.23L558.97,72.36L593.21,74.78L596.07,75.05L627.44,78.99L630.29,79.46L655.91,84.64L658.76,85.31L684.34,92.35L687.18,93.24L721.26,103.43L724.11,104.1L744.02,107.84L746.87,108.24L766.82,110.18L769.67,110.33L792.51,110.6L795.36,110.6L866.73,110.6" style="vector-effect: none; fill: none; stroke: rgb(100, 143, 255); stroke-opacity: 1; stroke-width: 2px; opacity: 1;"/></g><g class="points"/><g class="text"/></g><g class="trace scatter traced8dbe9" style="stroke-miterlimit: 2; opacity: 1;"><g class="fills"/><g class="errorbars"/><g class="lines"/><g class="points"><path class="point" transform="translate(14.23,112.08)" d="M-3.2500000000000004,-7.51L-3.2499999999999996,7.51L6.5,-3.9801020972288977e-16Z" style="opacity: 1; stroke-width: 0px; fill: rgb(12, 51, 131); fill-opacity: 1;"/><path class="point" transform="translate(116.65,111.73)" d="M-3.346738601723421,-7.467391829262367L-3.152719082220299,7.5513550034814285L6.49945768394372,-0.08396317421906092Z" style="opacity: 1; stroke-width: 0px; fill: rgb(11, 94, 159); fill-opacity: 1;"/><path class="point" transform="translate(218.91,96.02)" d="M-3.789945585930777,-7.252510769084305L-2.692686714721199,7.727356485653031L6.482632300651976,-0.4748457165687258Z" style="opacity: 1; stroke-width: 0px; fill: rgb(10, 136, 186); fill-opacity: 1;"/><path class="point" transform="translate(321.03,73.45)" d="M-3.507053111404342,-7.393455110690071L-2.9890806738243154,7.6176109591767664L6.496133785228658,-0.22415584848669612Z" style="opacity: 1; stroke-width: 0px; fill: rgb(126, 174, 121); fill-opacity: 1;"/><path class="point" transform="translate(423.44,71.59)" d="M-3.2500880990983547,-7.50996187394445L-3.249911900454397,7.510038125022062L6.4999999995527515,-0.00007625107761164789Z" style="opacity: 1; stroke-width: 0px; fill: rgb(242, 211, 56); fill-opacity: 1;"/><path class="point" transform="translate(525.86,71.59)" d="M-3.250035883712975,-7.509984470994465L-3.249964116212826,7.510015528834077L6.499999999925801,-0.000031057839611716765Z" style="opacity: 1; stroke-width: 0px; fill: rgb(242, 177, 56); fill-opacity: 1;"/><path class="point" transform="translate(628.23,79.12)" d="M-2.856202211489807,-7.668422844828051L-3.63505309950474,7.331370196885503L6.491255310994547,0.33705264794254763Z" style="opacity: 1; stroke-width: 0px; fill: rgb(242, 143, 56); fill-opacity: 1;"/><path class="point" transform="translate(730.25,105.42)" d="M-2.760539590324842,-7.7033772574273645L-3.72601797564376,7.285560379626235L6.486557565968602,0.4178168778011298Z" style="opacity: 1; stroke-width: 0px; fill: rgb(230, 87, 43); fill-opacity: 1;"/><path class="point" transform="translate(832.59,110.6)" d="M-3.249971046446864,-7.510012529766982L-3.250028953504829,7.509987470121391L6.499999999951693,0.000025059645590725473Z" style="opacity: 1; stroke-width: 0px; fill: rgb(217, 30, 30); fill-opacity: 1;"/></g><g class="text"/></g><g class="trace scatter tracec8fd58" style="stroke-miterlimit: 2; opacity: 1;"><g class="fills"/><g class="errorbars"/><g class="lines"><path class="js-line" d="M14.23,134.5L867.77,134.5" style="vector-effect: none; fill: none; stroke: rgb(0, 0, 0); stroke-opacity: 1; stroke-width: 2px; opacity: 1;"/></g><g class="points"/><g class="text"/></g><g class="trace scatter trace761b96" style="stroke-miterlimit: 2; opacity: 1;"><g class="fills"/><g class="errorbars"/><g class="lines"><path class="js-line" d="M14.23,134.5L116.98,135.09L119.84,135.3L139.78,137.63L142.63,138.09L162.54,142.16L165.39,142.87L185.27,148.7L188.11,149.64L236.35,166.34L239.18,167.37L290.23,185.56L293.07,186.36L312.96,190.93L315.81,191.44L335.74,193.99L338.59,194.21L355.71,194.78L358.56,194.78L544.1,194.07L546.95,193.84L566.89,191.31L569.74,190.82L589.65,186.46L592.49,185.71L612.37,179.54L615.2,178.57L714.52,144.68L717.37,143.92L737.27,139.56L740.12,139.07L760.06,136.59L762.91,136.37L782.88,135.75L785.73,135.75L865.66,135.74" style="vector-effect: none; fill: none; stroke: rgb(100, 143, 255); stroke-opacity: 1; stroke-width: 2px; opacity: 1;"/></g><g class="points"/><g class="text"/></g><g class="trace scatter trace2c19fa" style="stroke-miterlimit: 2; opacity: 1;"><g class="fills"/><g class="errorbars"/><g class="lines"/><g class="points"><path class="point" transform="translate(14.23,134.5)" d="M-3.2500000000000004,-7.51L-3.2499999999999996,7.51L6.5,-3.9801020972288977e-16Z" style="opacity: 1; stroke-width: 0px; fill: rgb(12, 51, 131); fill-opacity: 1;"/><path class="point" transform="translate(116.64,135.07)" d="M-3.092474199251888,-7.576226192964501L-3.4061085778320113,7.440498931927831L6.498582777083899,0.1357272610366712Z" style="opacity: 1; stroke-width: 0px; fill: rgb(11, 94, 159); fill-opacity: 1;"/><path class="point" transform="translate(218.65,160.05)" d="M-2.40090137616887,-7.822932479697777L-4.05935390913986,7.105226656507935L6.4602552853087305,0.7177058231898428Z" style="opacity: 1; stroke-width: 0px; fill: rgb(10, 136, 186); fill-opacity: 1;"/><path class="point" transform="translate(320.47,192.2)" d="M-2.885174223032043,-7.65756943832385L-3.6073090078062253,7.345061042782427L6.4924832308382685,0.31250839554142373Z" style="opacity: 1; stroke-width: 0px; fill: rgb(126, 174, 121); fill-opacity: 1;"/><path class="point" transform="translate(422.85,194.78)" d="M-3.249995929079447,-7.510001761715308L-3.2500040709195983,7.509998238282486L6.499999999999045,0.0000035234328219961293Z" style="opacity: 1; stroke-width: 0px; fill: rgb(242, 211, 56); fill-opacity: 1;"/><path class="point" transform="translate(525.28,194.78)" d="M-3.250040513872183,-7.509982467235821L-3.249959486033234,7.5100175325456195L6.499999999905417,-0.00003506530979813827Z" style="opacity: 1; stroke-width: 0px; fill: rgb(242, 177, 56); fill-opacity: 1;"/><path class="point" transform="translate(627.35,174.39)" d="M-4.047842618992085,-7.111790922958246L-2.4135664247190993,7.8190342826635995L6.461409043711185,-0.7072433597053532Z" style="opacity: 1; stroke-width: 0px; fill: rgb(242, 143, 56); fill-opacity: 1;"/><path class="point" transform="translate(729.19,141.13)" d="M-3.744805087651296,-7.2759215811813815L-2.740652756906752,7.710474853474293L6.485457844558048,-0.4345532722929118Z" style="opacity: 1; stroke-width: 0px; fill: rgb(230, 87, 43); fill-opacity: 1;"/><path class="point" transform="translate(831.52,135.75)" d="M-3.2500248694233327,-7.509989237550866L-3.2499751305410274,7.510010762366778L6.49999999996436,-0.00002152481591102602Z" style="opacity: 1; stroke-width: 0px; fill: rgb(217, 30, 30); fill-opacity: 1;"/></g><g class="text"/></g><g class="trace scatter trace1bcb4a" style="stroke-miterlimit: 2; opacity: 1;"><g class="fills"/><g class="errorbars"/><g class="lines"><path class="js-line" d="M14.23,156.92L867.77,156.92" style="vector-effect: none; fill: none; stroke: rgb(0, 0, 0); stroke-opacity: 1; stroke-width: 2px; opacity: 1;"/></g><g class="points"/><g class="text"/></g><g class="trace scatter traceb646b9" style="stroke-miterlimit: 2; opacity: 1;"><g class="fills"/><g class="errorbars"/><g class="lines"><path class="js-line" d="M14.23,156.92L122.7,157.58L125.55,157.75L151.22,160.19L154.07,160.56L179.71,164.8L182.56,165.37L242.37,178.51L245.21,179.17L296.46,190.45L299.31,190.92L322.11,193.79L324.96,194.05L347.79,195.26L350.64,195.31L422.01,195.34L424.86,195.34L547.61,194.74L550.46,194.57L576.12,192.12L578.97,191.74L601.77,187.98L604.62,187.42L653.03,176.85L655.88,176.22L721.38,162.43L724.23,161.99L747.04,159.24L749.89,158.99L775.57,157.73L778.42,157.69L866.92,157.68" style="vector-effect: none; fill: none; stroke: rgb(100, 143, 255); stroke-opacity: 1; stroke-width: 2px; opacity: 1;"/></g><g class="points"/><g class="text"/></g><g class="trace scatter trace6c1126" style="stroke-miterlimit: 2; opacity: 1;"><g class="fills"/><g class="errorbars"/><g class="lines"/><g class="points"><path class="point" transform="translate(14.23,156.92)" d="M-3.2500000000000004,-7.51L-3.2499999999999996,7.51L6.5,-3.9801020972288977e-16Z" style="opacity: 1; stroke-width: 0px; fill: rgb(12, 51, 131); fill-opacity: 1;"/><path class="point" transform="translate(116.65,157.28)" d="M-3.149926072106204,-7.552520489231762L-3.349500114378372,7.466153560152595L6.499426186484576,0.08636692907916747Z" style="opacity: 1; stroke-width: 0px; fill: rgb(11, 94, 159); fill-opacity: 1;"/><path class="point" transform="translate(218.9,173.19)" d="M-2.713503423437514,-7.720071189502911L-3.7703851193565545,7.2626989509227675L6.483888542794069,0.45737223858014386Z" style="opacity: 1; stroke-width: 0px; fill: rgb(10, 136, 186); fill-opacity: 1;"/><path class="point" transform="translate(321.09,193.69)" d="M-3.018272245881321,-7.606091811813904L-3.478673407183803,7.406850297268889L6.496945653065124,0.1992415145450153Z" style="opacity: 1; stroke-width: 0px; fill: rgb(126, 174, 121); fill-opacity: 1;"/><path class="point" transform="translate(423.49,195.34)" d="M-3.2499971284210427,-7.5100012426933045L-3.250002871578482,7.509998757305597L6.499999999999525,0.0000024853877067981253Z" style="opacity: 1; stroke-width: 0px; fill: rgb(242, 211, 56); fill-opacity: 1;"/><path class="point" transform="translate(525.92,195.34)" d="M-3.2500254196658367,-7.5099889994277556L-3.249974580296929,7.510011000486204L6.499999999962766,-0.000022001058448651472Z" style="opacity: 1; stroke-width: 0px; fill: rgb(242, 177, 56); fill-opacity: 1;"/><path class="point" transform="translate(628.2,182.32)" d="M-3.763893092422871,-7.266065564582486L-2.720401605102721,7.717643105699728L6.484294697525592,-0.4515775411172419Z" style="opacity: 1; stroke-width: 0px; fill: rgb(242, 143, 56); fill-opacity: 1;"/><path class="point" transform="translate(730.39,161.11)" d="M-3.5666649947807634,-7.364882946456483L-2.927446032061337,7.641508995569417L6.4941110268421,-0.2766260491129342Z" style="opacity: 1; stroke-width: 0px; fill: rgb(230, 87, 43); fill-opacity: 1;"/><path class="point" transform="translate(832.78,157.68)" d="M-3.250015328170666,-7.509993366618623L-3.2499846718157954,7.510006633350091L6.4999999999864615,-0.00001326673146878643Z" style="opacity: 1; stroke-width: 0px; fill: rgb(217, 30, 30); fill-opacity: 1;"/></g><g class="text"/></g><g class="trace scatter trace4eec4a" style="stroke-miterlimit: 2; opacity: 1;"><g class="fills"/><g class="errorbars"/><g class="lines"><path class="js-line" d="M14.23,179.33L867.77,179.33" style="vector-effect: none; fill: none; stroke: rgb(0, 0, 0); stroke-opacity: 1; stroke-width: 2px; opacity: 1;"/></g><g class="points"/><g class="text"/></g><g class="trace scatter trace78f93b" style="stroke-miterlimit: 2; opacity: 1;"><g class="fills"/><g class="errorbars"/><g class="lines"><path class="js-line" d="M14.23,179.33L136.97,180.03L139.83,180.14L179.78,182.54L182.64,182.77L316.75,194.08L319.61,194.2L356.71,194.94L359.57,194.94L562.25,194.27L565.1,194.16L602.2,191.95L605.06,191.72L739.18,180.62L742.03,180.5L779.14,179.64L781.99,179.64L867.63,179.64" style="vector-effect: none; fill: none; stroke: rgb(100, 143, 255); stroke-opacity: 1; stroke-width: 2px; opacity: 1;"/></g><g class="points"/><g class="text"/></g><g class="trace scatter tracee70586" style="stroke-miterlimit: 2; opacity: 1;"><g class="fills"/><g class="errorbars"/><g class="lines"/><g class="points"><path class="point" transform="translate(14.23,179.33)" d="M-3.2500000000000004,-7.51L-3.2499999999999996,7.51L6.5,-3.9801020972288977e-16Z" style="opacity: 1; stroke-width: 0px; fill: rgb(12, 51, 131); fill-opacity: 1;"/><path class="point" transform="translate(116.65,179.48)" d="M-3.209400895113905,-7.527439531104987L-3.2905043448285585,7.492341500269751L6.499905239942463,0.03509803083523618Z" style="opacity: 1; stroke-width: 0px; fill: rgb(11, 94, 159); fill-opacity: 1;"/><path class="point" transform="translate(219.05,185.95)" d="M-3.033976951746688,-7.599841041513295L-3.463366394346807,7.41402004438275L6.497343346093495,0.18582099713054423Z" style="opacity: 1; stroke-width: 0px; fill: rgb(10, 136, 186); fill-opacity: 1;"/><path class="point" transform="translate(321.43,194.27)" d="M-3.156320071257276,-7.5498505685727615L-3.34317691676573,7.468987086828092L6.499496988023006,0.08086348174467045Z" style="opacity: 1; stroke-width: 0px; fill: rgb(126, 174, 121); fill-opacity: 1;"/><path class="point" transform="translate(423.86,194.94)" d="M-3.2499985267070395,-7.510000637576676L-3.2500014732928353,7.509999362423036L6.499999999999875,0.000001275153640058476Z" style="opacity: 1; stroke-width: 0px; fill: rgb(242, 211, 56); fill-opacity: 1;"/><path class="point" transform="translate(526.28,194.94)" d="M-3.2500102332686804,-7.509995571479976L-3.2499897667252853,7.510004428506079L6.499999999993966,-0.000008857026103155116Z" style="opacity: 1; stroke-width: 0px; fill: rgb(242, 177, 56); fill-opacity: 1;"/><path class="point" transform="translate(628.68,189.65)" d="M-3.460867870439607,-7.415186685671428L-3.03653772349025,7.598818240609565L6.497405593929857,-0.18363155493813713Z" style="opacity: 1; stroke-width: 0px; fill: rgb(242, 143, 56); fill-opacity: 1;"/><path class="point" transform="translate(731.07,181.03)" d="M-3.3792531186470365,-7.452734287502425L-3.11977688281422,7.565024269720356L6.499030001461256,-0.11228998221793011Z" style="opacity: 1; stroke-width: 0px; fill: rgb(230, 87, 43); fill-opacity: 1;"/><path class="point" transform="translate(833.49,179.64)" d="M-3.25000610604591,-7.509997357567065L-3.2499938939519417,7.5100026424279696L6.4999999999978515,-0.000005284860905072598Z" style="opacity: 1; stroke-width: 0px; fill: rgb(217, 30, 30); fill-opacity: 1;"/></g><g class="text"/></g><g class="trace scatter trace51a371" style="stroke-miterlimit: 2; opacity: 1;"><g class="fills"/><g class="errorbars"/><g class="lines"><path class="js-line" d="M14.23,201.75L867.77,201.75" style="vector-effect: none; fill: none; stroke: rgb(0, 0, 0); stroke-opacity: 1; stroke-width: 2px; opacity: 1;"/></g><g class="points"/><g class="text"/></g><g class="trace scatter tracee28257" style="stroke-miterlimit: 2; opacity: 1;"><g class="fills"/><g class="errorbars"/><g class="lines"><path class="js-line" d="M14.23,201.75L867.77,201.75" style="vector-effect: none; fill: none; stroke: rgb(100, 143, 255); stroke-opacity: 1; stroke-width: 2px; opacity: 1;"/></g><g class="points"/><g class="text"/></g><g class="trace scatter tracec991f2" style="stroke-miterlimit: 2; opacity: 1;"><g class="fills"/><g class="errorbars"/><g class="lines"/><g class="points"><path class="point" transform="translate(14.23,201.75)" d="M-3.2500000000000004,-7.51L-3.2499999999999996,7.51L6.5,-3.9801020972288977e-16Z" style="opacity: 1; stroke-width: 0px; fill: rgb(12, 51, 131); fill-opacity: 1;"/><path class="point" transform="translate(116.65,201.75)" d="M-3.249999999999375,-7.51000000000027L-3.250000000000625,7.50999999999973L6.5,5.408357142950409e-13Z" style="opacity: 1; stroke-width: 0px; fill: rgb(11, 94, 159); fill-opacity: 1;"/><path class="point" transform="translate(219.08,201.75)" d="M-3.2499999999961267,-7.510000000001676L-3.2500000000038733,7.509999999998324L6.5,3.3523645018557872e-12Z" style="opacity: 1; stroke-width: 0px; fill: rgb(10, 136, 186); fill-opacity: 1;"/><path class="point" transform="translate(321.5,201.75)" d="M-3.2499999999980043,-7.510000000000863L-3.2500000000019957,7.5099999999991365L6.5,1.727220038409483e-12Z" style="opacity: 1; stroke-width: 0px; fill: rgb(126, 174, 121); fill-opacity: 1;"/><path class="point" transform="translate(423.93,201.75)" d="M-3.2500000000000004,-7.51L-3.2499999999999996,7.51L6.5,-3.9801020972288977e-16Z" style="opacity: 1; stroke-width: 0px; fill: rgb(242, 211, 56); fill-opacity: 1;"/><path class="point" transform="translate(526.35,201.75)" d="M-3.2500000000000004,-7.51L-3.2499999999999996,7.51L6.5,-3.9801020972288977e-16Z" style="opacity: 1; stroke-width: 0px; fill: rgb(242, 177, 56); fill-opacity: 1;"/><path class="point" transform="translate(628.78,201.75)" d="M-3.250000000003994,-7.509999999998271L-3.249999999996006,7.510000000001728L6.5,-3.457077397380148e-12Z" style="opacity: 1; stroke-width: 0px; fill: rgb(242, 143, 56); fill-opacity: 1;"/><path class="point" transform="translate(731.21,201.75)" d="M-3.25000000000234,-7.509999999998987L-3.24999999999766,7.510000000001012L6.5,-2.025333784823546e-12Z" style="opacity: 1; stroke-width: 0px; fill: rgb(230, 87, 43); fill-opacity: 1;"/><path class="point" transform="translate(833.63,201.75)" d="M-3.2500000000000004,-7.51L-3.2499999999999996,7.51L6.5,-3.9801020972288977e-16Z" style="opacity: 1; stroke-width: 0px; fill: rgb(217, 30, 30); fill-opacity: 1;"/></g><g class="text"/></g><g class="trace scatter tracea99ea1" style="stroke-miterlimit: 2; opacity: 1;"><g class="fills"/><g class="errorbars"/><g class="lines"><path class="js-line" d="M14.23,224.17L867.77,224.17" style="vector-effect: none; fill: none; stroke: rgb(0, 0, 0); stroke-opacity: 1; stroke-width: 2px; opacity: 1;"/></g><g class="points"/><g class="text"/></g><g class="trace scatter tracefb6ceb" style="stroke-miterlimit: 2; opacity: 1;"><g class="fills"/><g class="errorbars"/><g class="lines"><path class="js-line" d="M14.23,224.17L867.77,224.17" style="vector-effect: none; fill: none; stroke: rgb(100, 143, 255); stroke-opacity: 1; stroke-width: 2px; opacity: 1;"/></g><g class="points"/><g class="text"/></g><g class="trace scatter trace18bbd5" style="stroke-miterlimit: 2; opacity: 1;"><g class="fills"/><g class="errorbars"/><g class="lines"/><g class="points"><path class="point" transform="translate(14.23,224.17)" d="M-3.2500000000000004,-7.51L-3.2499999999999996,7.51L6.5,-3.9801020972288977e-16Z" style="opacity: 1; stroke-width: 0px; fill: rgb(12, 51, 131); fill-opacity: 1;"/><path class="point" transform="translate(116.65,224.17)" d="M-3.250000018121372,-7.509999992157861L-3.249999981878628,7.510000007842138L6.5,-1.5684276831180152e-8Z" style="opacity: 1; stroke-width: 0px; fill: rgb(11, 94, 159); fill-opacity: 1;"/><path class="point" transform="translate(219.08,224.17)" d="M-3.2500000106877707,-7.509999995374799L-3.2499999893122293,7.5100000046252005L6.5,-9.2504006216029e-9Z" style="opacity: 1; stroke-width: 0px; fill: rgb(10, 136, 186); fill-opacity: 1;"/><path class="point" transform="translate(321.5,224.17)" d="M-3.249999956283916,-7.5100000189184115L-3.250000043716084,7.509999981081588L6.5,3.783682372027671e-8Z" style="opacity: 1; stroke-width: 0px; fill: rgb(126, 174, 121); fill-opacity: 1;"/><path class="point" transform="translate(423.93,224.17)" d="M-3.2500000000011178,-7.509999999999516L-3.2499999999988822,7.510000000000484L6.5,-9.674022646582344e-13Z" style="opacity: 1; stroke-width: 0px; fill: rgb(242, 211, 56); fill-opacity: 1;"/><path class="point" transform="translate(526.35,224.17)" d="M-3.2500000000002087,-7.509999999999909L-3.2499999999997913,7.51000000000009L6.5,-1.8080925171131083e-13Z" style="opacity: 1; stroke-width: 0px; fill: rgb(242, 177, 56); fill-opacity: 1;"/><path class="point" transform="translate(628.78,224.17)" d="M-3.2500000107122853,-7.509999995364191L-3.2499999892877147,7.510000004635809L6.5,-9.27161842689342e-9Z" style="opacity: 1; stroke-width: 0px; fill: rgb(242, 143, 56); fill-opacity: 1;"/><path class="point" transform="translate(731.21,224.17)" d="M-3.2500000039551407,-7.509999998288388L-3.2499999960448593,7.510000001711612L6.5,-3.42322432455658e-9Z" style="opacity: 1; stroke-width: 0px; fill: rgb(230, 87, 43); fill-opacity: 1;"/><path class="point" transform="translate(833.63,224.17)" d="M-3.2500000000002087,-7.509999999999909L-3.2499999999997913,7.51000000000009L6.5,-1.8080925171131083e-13Z" style="opacity: 1; stroke-width: 0px; fill: rgb(217, 30, 30); fill-opacity: 1;"/></g><g class="text"/></g><g class="trace scatter tracecb4359" style="stroke-miterlimit: 2; opacity: 1;"><g class="fills"/><g class="errorbars"/><g class="lines"><path class="js-line" d="M97.47,424.59L784.53,-155.59" style="vector-effect: none; fill: none; stroke: rgb(220, 38, 127); stroke-opacity: 1; stroke-width: 2px; opacity: 1;"/></g><g class="points"/><g class="text"/></g><g class="trace scatter trace31f04c" style="stroke-miterlimit: 2; opacity: 1;"><g class="fills"/><g class="errorbars"/><g class="lines"/><g class="points"><path class="point" transform="translate(97.47,424.59)" d="M-5.0829899641594025,-6.412941058847711L-1.1955279067195412,8.095264852014095L6.278517870878944,-1.6823237931663848Z" style="opacity: 1; stroke-width: 0px; fill: rgb(12, 51, 131); fill-opacity: 1;"/><path class="point" transform="translate(179.92,354.97)" d="M-5.0829899641594025,-6.412941058847711L-1.1955279067195412,8.095264852014095L6.278517870878944,-1.6823237931663848Z" style="opacity: 1; stroke-width: 0px; fill: rgb(11, 94, 159); fill-opacity: 1;"/><path class="point" transform="translate(262.37,285.35)" d="M-5.0829899641594025,-6.412941058847711L-1.1955279067195412,8.095264852014095L6.278517870878944,-1.6823237931663848Z" style="opacity: 1; stroke-width: 0px; fill: rgb(10, 136, 186); fill-opacity: 1;"/><path class="point" transform="translate(344.81,215.73)" d="M-5.0829899641594025,-6.412941058847711L-1.1955279067195412,8.095264852014095L6.278517870878944,-1.6823237931663848Z" style="opacity: 1; stroke-width: 0px; fill: rgb(126, 174, 121); fill-opacity: 1;"/><path class="point" transform="translate(427.26,146.1)" d="M-5.0829899641594025,-6.412941058847711L-1.1955279067195412,8.095264852014095L6.278517870878944,-1.6823237931663848Z" style="opacity: 1; stroke-width: 0px; fill: rgb(242, 211, 56); fill-opacity: 1;"/><path class="point" transform="translate(509.71,76.48)" d="M-5.0829899641594025,-6.412941058847711L-1.1955279067195412,8.095264852014095L6.278517870878944,-1.6823237931663848Z" style="opacity: 1; stroke-width: 0px; fill: rgb(242, 177, 56); fill-opacity: 1;"/><path class="point" transform="translate(592.15,6.86)" d="M-5.0829899641594025,-6.412941058847711L-1.1955279067195412,8.095264852014095L6.278517870878944,-1.6823237931663848Z" style="opacity: 1; stroke-width: 0px; fill: rgb(242, 143, 56); fill-opacity: 1;"/><path class="point" transform="translate(674.6,-62.76)" d="M-5.0829899641594025,-6.412941058847711L-1.1955279067195412,8.095264852014095L6.278517870878944,-1.6823237931663848Z" style="opacity: 1; stroke-width: 0px; fill: rgb(230, 87, 43); fill-opacity: 1;"/><path class="point" transform="translate(757.04,-132.39)" d="M-5.0829899641594025,-6.412941058847711L-1.1955279067195412,8.095264852014095L6.278517870878944,-1.6823237931663848Z" style="opacity: 1; stroke-width: 0px; fill: rgb(217, 30, 30); fill-opacity: 1;"/></g><g class="text"/></g></g></g></g><path class="xlines-above crisp" d="M0,0" style="fill: none;"/><path class="ylines-above crisp" d="M0,0" style="fill: none;"/><g class="overlines-above"/><g class="xaxislayer-above"><g class="xtick"><text text-anchor="middle" x="0" y="310" transform="translate(116.23,0)" style="font-family: 'Open Sans', verdana, arial, sans-serif; font-size: 24px; fill: rgb(0, 0, 0); fill-opacity: 1; white-space: pre; opacity: 1;">−1500</text></g><g class="xtick"><text text-anchor="middle" x="0" y="310" style="font-family: 'Open Sans', verdana, arial, sans-serif; font-size: 24px; fill: rgb(0, 0, 0); fill-opacity: 1; white-space: pre; opacity: 1;" transform="translate(258.48,0)">−1000</text></g><g class="xtick"><text text-anchor="middle" x="0" y="310" style="font-family: 'Open Sans', verdana, arial, sans-serif; font-size: 24px; fill: rgb(0, 0, 0); fill-opacity: 1; white-space: pre; opacity: 1;" transform="translate(400.74,0)">−500</text></g><g class="xtick"><text text-anchor="middle" x="0" y="310" style="font-family: 'Open Sans', verdana, arial, sans-serif; font-size: 24px; fill: rgb(0, 0, 0); fill-opacity: 1; white-space: pre; opacity: 1;" transform="translate(543,0)">0</text></g><g class="xtick"><text text-anchor="middle" x="0" y="310" style="font-family: 'Open Sans', verdana, arial, sans-serif; font-size: 24px; fill: rgb(0, 0, 0); fill-opacity: 1; white-space: pre; opacity: 1;" transform="translate(685.26,0)">500</text></g><g class="xtick"><text text-anchor="middle" x="0" y="310" style="font-family: 'Open Sans', verdana, arial, sans-serif; font-size: 24px; fill: rgb(0, 0, 0); fill-opacity: 1; white-space: pre; opacity: 1;" transform="translate(827.52,0)">1000</text></g><g class="xtick"><text text-anchor="middle" x="0" y="310" style="font-family: 'Open Sans', verdana, arial, sans-serif; font-size: 24px; fill: rgb(0, 0, 0); fill-opacity: 1; white-space: pre; opacity: 0;" transform="translate(969.77,0)">1500</text></g></g><g class="yaxislayer-above"><g class="ytick"><text text-anchor="end" x="101" y="8.399999999999999" transform="translate(0,285)" style="font-family: 'Open Sans', verdana, arial, sans-serif; font-size: 24px; fill: rgb(0, 0, 0); fill-opacity: 1; white-space: pre; opacity: 1;">−150</text></g><g class="ytick"><text text-anchor="end" x="101" y="8.399999999999999" style="font-family: 'Open Sans', verdana, arial, sans-serif; font-size: 24px; fill: rgb(0, 0, 0); fill-opacity: 1; white-space: pre; opacity: 1;" transform="translate(0,240.17)">−100</text></g><g class="ytick"><text text-anchor="end" x="101" y="8.399999999999999" style="font-family: 'Open Sans', verdana, arial, sans-serif; font-size: 24px; fill: rgb(0, 0, 0); fill-opacity: 1; white-space: pre; opacity: 1;" transform="translate(0,195.33)">−50</text></g><g class="ytick"><text text-anchor="end" x="101" y="8.399999999999999" style="font-family: 'Open Sans', verdana, arial, sans-serif; font-size: 24px; fill: rgb(0, 0, 0); fill-opacity: 1; white-space: pre; opacity: 1;" transform="translate(0,150.5)">0</text></g><g class="ytick"><text text-anchor="end" x="101" y="8.399999999999999" style="font-family: 'Open Sans', verdana, arial, sans-serif; font-size: 24px; fill: rgb(0, 0, 0); fill-opacity: 1; white-space: pre; opacity: 1;" transform="translate(0,105.67)">50</text></g><g class="ytick"><text text-anchor="end" x="101" y="8.399999999999999" style="font-family: 'Open Sans', verdana, arial, sans-serif; font-size: 24px; fill: rgb(0, 0, 0); fill-opacity: 1; white-space: pre; opacity: 1;" transform="translate(0,60.83)">100</text></g><g class="ytick"><text text-anchor="end" x="101" y="8.399999999999999" style="font-family: 'Open Sans', verdana, arial, sans-serif; font-size: 24px; fill: rgb(0, 0, 0); fill-opacity: 1; white-space: pre; opacity: 1;" transform="translate(0,16)">150</text></g></g><g class="overaxes-above"/></g></g><g class="polarlayer"/><g class="smithlayer"/><g class="ternarylayer"/><g class="geolayer"/><g class="funnelarealayer"/><g class="pielayer"/><g class="iciclelayer"/><g class="treemaplayer"/><g class="sunburstlayer"/><g class="glimages"/><defs id="topdefs-bed1f8"><g class="clips"/></defs><g class="layer-above"><g class="imagelayer"/><g class="shapelayer"/></g><g class="infolayer"><g class="g-gtitle"/><g class="g-xtitle" transform="translate(0,-5.800000000000011)"><text class="xtitle" x="543" y="349.8" text-anchor="middle" style="opacity: 1; font-family: 'Open Sans', verdana, arial, sans-serif; font-size: 29px; fill: rgb(0, 0, 0); fill-opacity: 1; white-space: pre;">East [m]</text></g><g class="g-ytitle" transform="translate(18.072265625,0)"><text class="ytitle" transform="rotate(-90,10.928124999999994,150.5)" x="10.928124999999994" y="150.5" text-anchor="middle" style="opacity: 1; font-family: 'Open Sans', verdana, arial, sans-serif; font-size: 29px; fill: rgb(0, 0, 0); fill-opacity: 1; white-space: pre;">North [m]</text></g></g></svg>