<svg class="main-svg" xmlns="http://www.w3.org/2000/svg" xmlns:xlink="http://www.w3.org/1999/xlink" width="1000" height="350" style="" viewBox="0 0 1000 350"><rect x="0" y="0" width="1000" height="350" style="fill: rgb(255, 255, 255); fill-opacity: 1;"/><defs id="defs-10218c"><g class="clips"><clipPath id="clip10218cxyplot" class="plotclip"><rect width="898" height="231"/></clipPath><clipPath class="axesclip" id="clip10218cx"><rect x="102" y="0" width="898" height="350"/></clipPath><clipPath class="axesclip" id="clip10218cy"><rect x="0" y="54" width="1000" height="231"/></clipPath><clipPath class="axesclip" id="clip10218cxy"><rect x="102" y="54" width="898" height="231"/></clipPath></g><g class="gradients"/><g class="patterns"/></defs><g class="bglayer"/><g class="layer-below"><g class="imagelayer"/><g class="shapelayer"/></g><g class="cartesianlayer"><g class="subplot xy"><g class="layer-subplot"><g class="shapelayer"/><g class="imagelayer"/></g><g class="minor-gridlayer"><g class="x"/><g class="y"/></g><g class="gridlayer"><g class="x"><path class="xgrid crisp" transform="translate(172.1,0)" d="M0,54v231" style="stroke: rgb(200, 200, 200); stroke-opacity: 1; stroke-width: 1px;"/><path class="xgrid crisp" transform="translate(298.4,0)" d="M0,54v231" style="stroke: rgb(200, 200, 200); stroke-opacity: 1; stroke-width: 1px;"/><path class="xgrid crisp" transform="translate(424.7,0)" d="M0,54v231" style="stroke: rgb(200, 200, 200); stroke-opacity: 1; stroke-width: 1px;"/><path class="xgrid crisp" transform="translate(677.3,0)" d="M0,54v231" style="stroke: rgb(200, 200, 200); stroke-opacity: 1; stroke-width: 1px;"/><path class="xgrid crisp" transform="translate(803.6,0)" d="M0,54v231" style="stroke: rgb(200, 200, 200); stroke-opacity: 1; stroke-width: 1px;"/><path class="xgrid crisp" transform="translate(929.9,0)" d="M0,54v231" style="stroke: rgb(200, 200, 200); stroke-opacity: 1; stroke-width: 1px;"/></g><g class="y"><path class="ygrid crisp" transform="translate(0,270.53999999999996)" d="M102,0h898" style="stroke: rgb(200, 200, 200); stroke-opacity: 1; stroke-width: 1px;"/><path class="ygrid crisp" transform="translate(0,220.02)" d="M102,0h898" style="stroke: rgb(200, 200, 200); stroke-opacity: 1; stroke-width: 1px;"/><path class="ygrid crisp" transform="translate(0,118.98)" d="M102,0h898" style="stroke: rgb(200, 200, 200); stroke-opacity: 1; stroke-width: 1px;"/><path class="ygrid crisp" transform="translate(0,68.46000000000001)" d="M102,0h898" style="stroke: rgb(200, 200, 200); stroke-opacity: 1; stroke-width: 1px;"/></g></g><g class="zerolinelayer"><path class="xzl zl crisp" transform="translate(551,0)" d="M0,54v231" style="stroke: rgb(200, 200, 200); stroke-opacity: 1; stroke-width: 2px;"/><path class="yzl zl crisp" transform="translate(0,169.5)" d="M102,0h898" style="stroke: rgb(200, 200, 200); stroke-opacity: 1; stroke-width: 2px;"/></g><g class="layer-between"><g class="shapelayer"/><g class="imagelayer"/></g><path class="xlines-below"/><path class="ylines-below"/><g class="overlines-below"/><g class="xaxislayer-below"/><g class="yaxislayer-below"/><g class="overaxes-below"/><g class="overplot"><g class="xy" transform="translate(102,54)" clip-path="url(#clip10218cxyplot)"><g class="scatterlayer mlayer"><g class="trace scatter trace742296" style="stroke-miterlimit: 2; opacity: 1;"><g class="fills"/><g class="errorbars"/><g class="lines"><path class="js-line" d="M70.1,90.24L827.9,90.24" style="vector-effect: none; fill: none; stroke: rgb(0, 0, 0); stroke-opacity: 1; stroke-width: 2px; opacity: 1;"/></g><g class="points"/><g class="text"/></g><g class="trace scatter traceee0561" style="stroke-miterlimit: 2; opacity: 1;"><g class="fills"/><g class="errorbars"/><g class="lines"><path class="js-line" d="M70.1,90.24L827.9,90.24" style="vector-effect: none; fill: none; stroke: rgb(100, 143, 255); stroke-opacity: 1; stroke-width: 2px; opacity: 1;"/></g><g class="points"/><g class="text"/></g><g class="trace scatter trace59f98b" style="stroke-miterlimit: 2; opacity: 1;"><g class="fills"/><g class="errorbars"/><g class="lines"/><g class="points"><path class="point" transform="translate(70.1,90.24)" d="M-3.2500000000000004,-7.51L-3.2499999999999996,7.51L6.5,-3.9801020972288977e-16Z" style="opacity: 1; stroke-width: 0px; fill: rgb(12, 51, 131); fill-opacity: 1;"/><path class="point" transform="translate(161.04,90.24)" d="M-3.2500000000001723,-7.509999999999925L-3.2499999999998277,7.510000000000074L6.5,-1.4905687320703136e-13Z" style="opacity: 1; stroke-width: 0px; fill: rgb(11, 94, 159); fill-opacity: 1;"/><path class="point" transform="translate(251.97,90.24)" d="M-3.250000000001006,-7.509999999999565L-3.249999999998994,7.510000000000435L6.5,-8.707018392133832e-13Z" style="opacity: 1; stroke-width: 0px; fill: rgb(10, 136, 186); fill-opacity: 1;"/><path class="point" transform="translate(342.91,90.24)" d="M-3.2500000000004925,-7.509999999999787L-3.2499999999995075,7.510000000000213L6.5,-4.261685401534704e-13Z" style="opacity: 1; stroke-width: 0px; fill: rgb(126, 174, 121); fill-opacity: 1;"/><path class="point" transform="translate(433.84,90.24)" d="M-3.2500000000000004,-7.51L-3.2499999999999996,7.51L6.5,-3.9801020972288977e-16Z" style="opacity: 1; stroke-width: 0px; fill: rgb(242, 211, 56); fill-opacity: 1;"/><path class="point" transform="translate(524.78,90.24)" d="M-3.2500000000000004,-7.51L-3.2499999999999996,7.51L6.5,-3.9801020972288977e-16Z" style="opacity: 1; stroke-width: 0px; fill: rgb(242, 177, 56); fill-opacity: 1;"/><path class="point" transform="translate(615.71,90.24)" d="M-3.2499999999993583,-7.510000000000278L-3.2500000000006417,7.509999999999722L6.5,5.552686136151679e-13Z" style="opacity: 1; stroke-width: 0px; fill: rgb(242, 143, 56); fill-opacity: 1;"/><path class="point" transform="translate(706.65,90.24)" d="M-3.2499999999990634,-7.510000000000405L-3.2500000000009366,7.509999999999595L6.5,8.107309315814163e-13Z" style="opacity: 1; stroke-width: 0px; fill: rgb(230, 87, 43); fill-opacity: 1;"/><path class="point" transform="translate(797.58,90.24)" d="M-3.2500000000000004,-7.51L-3.2499999999999996,7.51L6.5,-3.9801020972288977e-16Z" style="opacity: 1; stroke-width: 0px; fill: rgb(217, 30, 30); fill-opacity: 1;"/></g><g class="text"/></g><g class="trace scatter traceee0cdb" style="stroke-miterlimit: 2; opacity: 1;"><g class="fills"/><g class="errorbars"/><g class="lines"><path class="js-line" d="M70.1,96.56L827.9,96.56" style="vector-effect: none; fill: none; stroke: rgb(0, 0, 0); stroke-opacity: 1; stroke-width: 2px; opacity: 1;"/></g><g class="points"/><g class="text"/></g><g class="trace scatter traced06f3f" style="stroke-miterlimit: 2; opacity: 1;"><g class="fills"/><g class="errorbars"/><g class="lines"><path class="js-line" d="M70.1,96.56L827.9,96.56" style="vector-effect: none; fill: none; stroke: rgb(100, 143, 255); stroke-opacity: 1; stroke-width: 2px; opacity: 1;"/></g><g class="points"/><g class="text"/></g><g class="trace scatter trace953e64" style="stroke-miterlimit: 2; opacity: 1;"><g class="fills"/><g class="errorbars"/><g class="lines"/><g class="points"><path class="point" transform="translate(70.1,96.56)" d="M-3.2500000000000004,-7.51L-3.2499999999999996,7.51L6.5,-3.9801020972288977e-16Z" style="opacity: 1; stroke-width: 0px; fill: rgb(12, 51, 131); fill-opacity: 1;"/><path class="point" transform="translate(161.04,96.56)" d="M-3.250000000001236,-7.509999999999465L-3.249999999998764,7.5100000000005345L6.5,-1.0698758498311363e-12Z" style="opacity: 1; stroke-width: 0px; fill: rgb(11, 94, 159); fill-opacity: 1;"/><path class="point" transform="translate(251.97,96.56)" d="M-3.2500000000082547,-7.5099999999964275L-3.2499999999917453,7.510000000003572L6.5,-7.144683173672605e-12Z" style="opacity: 1; stroke-width: 0px; fill: rgb(10, 136, 186); fill-opacity: 1;"/><path class="point" transform="translate(342.91,96.56)" d="M-3.2500000000045377,-7.509999999998036L-3.2499999999954623,7.5100000000019635L6.5,-3.927589915216289e-12Z" style="opacity: 1; stroke-width: 0px; fill: rgb(126, 174, 121); fill-opacity: 1;"/><path class="point" transform="translate(433.84,96.56)" d="M-3.2500000000000004,-7.51L-3.2499999999999996,7.51L6.5,-3.9801020972288977e-16Z" style="opacity: 1; stroke-width: 0px; fill: rgb(242, 211, 56); fill-opacity: 1;"/><path class="point" transform="translate(524.78,96.56)" d="M-3.2500000000000004,-7.51L-3.2499999999999996,7.51L6.5,-3.9801020972288977e-16Z" style="opacity: 1; stroke-width: 0px; fill: rgb(242, 177, 56); fill-opacity: 1;"/><path class="point" transform="translate(615.71,96.56)" d="M-3.2499999999922213,-7.510000000003366L-3.2500000000077787,7.509999999996634L6.5,6.732549522629539e-12Z" style="opacity: 1; stroke-width: 0px; fill: rgb(242, 143, 56); fill-opacity: 1;"/><path class="point" transform="translate(706.65,96.56)" d="M-3.2499999999941505,-7.510000000002531L-3.2500000000058495,7.5099999999974685L6.5,5.062663071290841e-12Z" style="opacity: 1; stroke-width: 0px; fill: rgb(230, 87, 43); fill-opacity: 1;"/><path class="point" transform="translate(797.58,96.56)" d="M-3.2500000000000004,-7.51L-3.2499999999999996,7.51L6.5,-3.9801020972288977e-16Z" style="opacity: 1; stroke-width: 0px; fill: rgb(217, 30, 30); fill-opacity: 1;"/></g><g class="text"/></g><g class="trace scatter trace069ca2" style="stroke-miterlimit: 2; opacity: 1;"><g class="fills"/><g class="errorbars"/><g class="lines"><path class="js-line" d="M70.1,102.87L827.9,102.87" style="vector-effect: none; fill: none; stroke: rgb(0, 0, 0); stroke-opacity: 1; stroke-width: 2px; opacity: 1;"/></g><g class="points"/><g class="text"/></g><g class="trace scatter traceaf7665" style="stroke-miterlimit: 2; opacity: 1;"><g class="fills"/><g class="errorbars"/><g class="lines"><path class="js-line" d="M70.1,102.87L212.02,102.16L214.56,102.11L376.7,98.47L379.24,98.47L607.33,99.21L609.86,99.25L680.79,101.39L683.32,101.48L736.52,102.66L739.06,102.68L827.76,102.72" style="vector-effect: none; fill: none; stroke: rgb(100, 143, 255); stroke-opacity: 1; stroke-width: 2px; opacity: 1;"/></g><g class="points"/><g class="text"/></g><g class="trace scatter trace3730b1" style="stroke-miterlimit: 2; opacity: 1;"><g class="fills"/><g class="errorbars"/><g class="lines"/><g class="points"><path class="point" transform="translate(70.1,102.87)" d="M-3.2500000000000004,-7.51L-3.2499999999999996,7.51L6.5,-3.9801020972288977e-16Z" style="opacity: 1; stroke-width: 0px; fill: rgb(12, 51, 131); fill-opacity: 1;"/><path class="point" transform="translate(161.04,102.83)" d="M-3.2867328871380677,-7.493996725953719L-3.2131891950126024,7.525823223877521L6.49992208215067,-0.03182649792380317Z" style="opacity: 1; stroke-width: 0px; fill: rgb(11, 94, 159); fill-opacity: 1;"/><path class="point" transform="translate(251.95,101.15)" d="M-3.459663253750019,-7.415748793658792L-3.0377720847512197,7.598324865462533L6.497435338501239,-0.1825760718037414Z" style="opacity: 1; stroke-width: 0px; fill: rgb(10, 136, 186); fill-opacity: 1;"/><path class="point" transform="translate(342.85,98.68)" d="M-3.3507336699740513,-7.465600034351039L-3.1486781577484058,7.553040835247622L6.499411827722457,-0.08744080089658424Z" style="opacity: 1; stroke-width: 0px; fill: rgb(126, 174, 121); fill-opacity: 1;"/><path class="point" transform="translate(433.78,98.47)" d="M-3.250031073529967,-7.509986552657045L-3.249968926414393,7.510013447214384L6.49999999994436,-0.000026894557338829476Z" style="opacity: 1; stroke-width: 0px; fill: rgb(242, 211, 56); fill-opacity: 1;"/><path class="point" transform="translate(524.71,98.47)" d="M-3.2500109348583335,-7.509995267861442L-3.249989065134776,7.510004732122636L6.4999999999931095,-0.000009464261193365391Z" style="opacity: 1; stroke-width: 0px; fill: rgb(242, 177, 56); fill-opacity: 1;"/><path class="point" transform="translate(615.64,99.37)" d="M-3.0916955126897996,-7.576543991610802L-3.4068732802790116,7.440148819218666L6.498568792968811,0.1363951723921358Z" style="opacity: 1; stroke-width: 0px; fill: rgb(242, 143, 56); fill-opacity: 1;"/><path class="point" transform="translate(706.52,102.18)" d="M-3.069630399800757,-7.585510477787175L-3.4285138802745685,7.430201381709961L6.4981442800753255,0.15530909607721524Z" style="opacity: 1; stroke-width: 0px; fill: rgb(230, 87, 43); fill-opacity: 1;"/><path class="point" transform="translate(797.45,102.72)" d="M-3.2499896391661736,-7.510004483707884L-3.2500103608276403,7.509995516277821L6.499999999993814,0.000008967430062000117Z" style="opacity: 1; stroke-width: 0px; fill: rgb(217, 30, 30); fill-opacity: 1;"/></g><g class="text"/></g><g class="trace scatter tracef363ad" style="stroke-miterlimit: 2; opacity: 1;"><g class="fills"/><g class="errorbars"/><g class="lines"><path class="js-line" d="M70.1,109.19L827.9,109.19" style="vector-effect: none; fill: none; stroke: rgb(0, 0, 0); stroke-opacity: 1; stroke-width: 2px; opacity: 1;"/></g><g class="points"/><g class="text"/></g><g class="trace scatter trace727f4a" style="stroke-miterlimit: 2; opacity: 1;"><g class="fills"/><g class="errorbars"/><g class="lines"><path class="js-line" d="M70.1,109.19L186.66,108.47L189.2,108.38L229.68,106.21L232.21,106.04L305.48,100.36L308,100.17L345.94,98.19L348.47,98.12L386.47,97.78L389,97.78L579.07,98.53L581.6,98.6L632.22,100.91L634.75,101.09L675.12,104.66L677.64,104.93L710.45,107.59L712.97,107.73L743.33,108.72L745.87,108.75L826.97,108.77" style="vector-effect: none; fill: none; stroke: rgb(100, 143, 255); stroke-opacity: 1; stroke-width: 2px; opacity: 1;"/></g><g class="points"/><g class="text"/></g><g class="trace scatter tracecd511c" style="stroke-miterlimit: 2; opacity: 1;"><g class="fills"/><g class="errorbars"/><g class="lines"/><g class="points"><path class="point" transform="translate(70.1,109.19)" d="M-3.2500000000000004,-7.51L-3.2499999999999996,7.51L6.5,-3.9801020972288977e-16Z" style="opacity: 1; stroke-width: 0px; fill: rgb(12, 51, 131); fill-opacity: 1;"/><path class="point" transform="translate(161.04,109.08)" d="M-3.346738601723421,-7.467391829262367L-3.152719082220299,7.5513550034814285L6.49945768394372,-0.08396317421906092Z" style="opacity: 1; stroke-width: 0px; fill: rgb(11, 94, 159); fill-opacity: 1;"/><path class="point" transform="translate(251.82,104.66)" d="M-3.789945585930777,-7.252510769084305L-2.692686714721199,7.727356485653031L6.482632300651976,-0.4748457165687258Z" style="opacity: 1; stroke-width: 0px; fill: rgb(10, 136, 186); fill-opacity: 1;"/><path class="point" transform="translate(342.49,98.3)" d="M-3.507053111404342,-7.393455110690071L-2.9890806738243154,7.6176109591767664L6.496133785228658,-0.22415584848669612Z" style="opacity: 1; stroke-width: 0px; fill: rgb(126, 174, 121); fill-opacity: 1;"/><path class="point" transform="translate(433.41,97.78)" d="M-3.2500880990983547,-7.50996187394445L-3.249911900454397,7.510038125022062L6.4999999995527515,-0.00007625107761164789Z" style="opacity: 1; stroke-width: 0px; fill: rgb(242, 211, 56); fill-opacity: 1;"/><path class="point" transform="translate(524.34,97.78)" d="M-3.250035883712975,-7.509984470994465L-3.249964116212826,7.510015528834077L6.499999999925801,-0.000031057839611716765Z" style="opacity: 1; stroke-width: 0px; fill: rgb(242, 177, 56); fill-opacity: 1;"/><path class="point" transform="translate(615.23,99.9)" d="M-2.856202211489807,-7.668422844828051L-3.63505309950474,7.331370196885503L6.491255310994547,0.33705264794254763Z" style="opacity: 1; stroke-width: 0px; fill: rgb(242, 143, 56); fill-opacity: 1;"/><path class="point" transform="translate(705.8,107.31)" d="M-2.760539590324842,-7.7033772574273645L-3.72601797564376,7.285560379626235L6.486557565968602,0.4178168778011298Z" style="opacity: 1; stroke-width: 0px; fill: rgb(230, 87, 43); fill-opacity: 1;"/><path class="point" transform="translate(796.66,108.77)" d="M-3.249971046446864,-7.510012529766982L-3.250028953504829,7.509987470121391L6.499999999951693,0.000025059645590725473Z" style="opacity: 1; stroke-width: 0px; fill: rgb(217, 30, 30); fill-opacity: 1;"/></g><g class="text"/></g><g class="trace scatter tracee219e6" style="stroke-miterlimit: 2; opacity: 1;"><g class="fills"/><g class="errorbars"/><g class="lines"><path class="js-line" d="M70.1,115.5L827.9,115.5" style="vector-effect: none; fill: none; stroke: rgb(0, 0, 0); stroke-opacity: 1; stroke-width: 2px; opacity: 1;"/></g><g class="points"/><g class="text"/></g><g class="trace scatter traceac87d4" style="stroke-miterlimit: 2; opacity: 1;"><g class="fills"/><g class="errorbars"/><g class="lines"><path class="js-line" d="M70.1,115.5L176.52,116.15L179.04,116.26L211.88,118.51L214.4,118.74L282.41,126.22L284.93,126.52L327.75,130.91L330.28,131.08L360.61,132.37L363.14,132.41L413.83,132.48L416.36,132.48L555.71,131.75L558.24,131.63L591.06,129.24L593.58,128.99L712.03,116.93L714.56,116.79L744.92,115.87L747.46,115.86L826.02,115.85" style="vector-effect: none; fill: none; stroke: rgb(100, 143, 255); stroke-opacity: 1; stroke-width: 2px; opacity: 1;"/></g><g class="points"/><g class="text"/></g><g class="trace scatter tracec5a7a8" style="stroke-miterlimit: 2; opacity: 1;"><g class="fills"/><g class="errorbars"/><g class="lines"/><g class="points"><path class="point" transform="translate(70.1,115.5)" d="M-3.2500000000000004,-7.51L-3.2499999999999996,7.51L6.5,-3.9801020972288977e-16Z" style="opacity: 1; stroke-width: 0px; fill: rgb(12, 51, 131); fill-opacity: 1;"/><path class="point" transform="translate(161.03,115.66)" d="M-3.092474199251888,-7.576226192964501L-3.4061085778320113,7.440498931927831L6.498582777083899,0.1357272610366712Z" style="opacity: 1; stroke-width: 0px; fill: rgb(11, 94, 159); fill-opacity: 1;"/><path class="point" transform="translate(251.59,122.7)" d="M-2.40090137616887,-7.822932479697777L-4.05935390913986,7.105226656507935L6.4602552853087305,0.7177058231898428Z" style="opacity: 1; stroke-width: 0px; fill: rgb(10, 136, 186); fill-opacity: 1;"/><path class="point" transform="translate(341.99,131.75)" d="M-2.885174223032043,-7.65756943832385L-3.6073090078062253,7.345061042782427L6.4924832308382685,0.31250839554142373Z" style="opacity: 1; stroke-width: 0px; fill: rgb(126, 174, 121); fill-opacity: 1;"/><path class="point" transform="translate(432.89,132.48)" d="M-3.249995929079447,-7.510001761715308L-3.2500040709195983,7.509998238282486L6.499999999999045,0.0000035234328219961293Z" style="opacity: 1; stroke-width: 0px; fill: rgb(242, 211, 56); fill-opacity: 1;"/><path class="point" transform="translate(523.82,132.48)" d="M-3.250040513872183,-7.509982467235821L-3.249959486033234,7.5100175325456195L6.499999999905417,-0.00003506530979813827Z" style="opacity: 1; stroke-width: 0px; fill: rgb(242, 177, 56); fill-opacity: 1;"/><path class="point" transform="translate(614.44,126.74)" d="M-4.047842618992085,-7.111790922958246L-2.4135664247190993,7.8190342826635995L6.461409043711185,-0.7072433597053532Z" style="opacity: 1; stroke-width: 0px; fill: rgb(242, 143, 56); fill-opacity: 1;"/><path class="point" transform="translate(704.86,117.37)" d="M-3.744805087651296,-7.2759215811813815L-2.740652756906752,7.710474853474293L6.485457844558048,-0.4345532722929118Z" style="opacity: 1; stroke-width: 0px; fill: rgb(230, 87, 43); fill-opacity: 1;"/><path class="point" transform="translate(795.71,115.85)" d="M-3.2500248694233327,-7.509989237550866L-3.2499751305410274,7.510010762366778L6.49999999996436,-0.00002152481591102602Z" style="opacity: 1; stroke-width: 0px; fill: rgb(217, 30, 30); fill-opacity: 1;"/></g><g class="text"/></g><g class="trace scatter tracedd54ab" style="stroke-miterlimit: 2; opacity: 1;"><g class="fills"/><g class="errorbars"/><g class="lines"><path class="js-line" d="M70.1,121.81L827.9,121.81" style="vector-effect: none; fill: none; stroke: rgb(0, 0, 0); stroke-opacity: 1; stroke-width: 2px; opacity: 1;"/></g><g class="points"/><g class="text"/></g><g class="trace scatter trace0a7103" style="stroke-miterlimit: 2; opacity: 1;"><g class="fills"/><g class="errorbars"/><g class="lines"><path class="js-line" d="M70.1,121.81L186.66,122.55L189.19,122.64L232.2,125.04L234.73,125.21L340.92,132.12L343.45,132.2L383.98,132.64L386.52,132.64L563.9,131.93L566.43,131.83L606.91,129.55L609.43,129.37L718.17,122.55L720.7,122.47L763.77,122.03L766.31,122.03L827.13,122.03" style="vector-effect: none; fill: none; stroke: rgb(100, 143, 255); stroke-opacity: 1; stroke-width: 2px; opacity: 1;"/></g><g class="points"/><g class="text"/></g><g class="trace scatter trace20993b" style="stroke-miterlimit: 2; opacity: 1;"><g class="fills"/><g class="errorbars"/><g class="lines"/><g class="points"><path class="point" transform="translate(70.1,121.81)" d="M-3.2500000000000004,-7.51L-3.2499999999999996,7.51L6.5,-3.9801020972288977e-16Z" style="opacity: 1; stroke-width: 0px; fill: rgb(12, 51, 131); fill-opacity: 1;"/><path class="point" transform="translate(161.04,121.92)" d="M-3.149926072106204,-7.552520489231762L-3.349500114378372,7.466153560152595L6.499426186484576,0.08636692907916747Z" style="opacity: 1; stroke-width: 0px; fill: rgb(11, 94, 159); fill-opacity: 1;"/><path class="point" transform="translate(251.82,126.4)" d="M-2.713503423437514,-7.720071189502911L-3.7703851193565545,7.2626989509227675L6.483888542794069,0.45737223858014386Z" style="opacity: 1; stroke-width: 0px; fill: rgb(10, 136, 186); fill-opacity: 1;"/><path class="point" transform="translate(342.54,132.18)" d="M-3.018272245881321,-7.606091811813904L-3.478673407183803,7.406850297268889L6.496945653065124,0.1992415145450153Z" style="opacity: 1; stroke-width: 0px; fill: rgb(126, 174, 121); fill-opacity: 1;"/><path class="point" transform="translate(433.46,132.64)" d="M-3.2499971284210427,-7.5100012426933045L-3.250002871578482,7.509998757305597L6.499999999999525,0.0000024853877067981253Z" style="opacity: 1; stroke-width: 0px; fill: rgb(242, 211, 56); fill-opacity: 1;"/><path class="point" transform="translate(524.39,132.64)" d="M-3.2500254196658367,-7.5099889994277556L-3.249974580296929,7.510011000486204L6.499999999962766,-0.000022001058448651472Z" style="opacity: 1; stroke-width: 0px; fill: rgb(242, 177, 56); fill-opacity: 1;"/><path class="point" transform="translate(615.2,128.97)" d="M-3.763893092422871,-7.266065564582486L-2.720401605102721,7.717643105699728L6.484294697525592,-0.4515775411172419Z" style="opacity: 1; stroke-width: 0px; fill: rgb(242, 143, 56); fill-opacity: 1;"/><path class="point" transform="translate(705.92,123)" d="M-3.5666649947807634,-7.364882946456483L-2.927446032061337,7.641508995569417L6.4941110268421,-0.2766260491129342Z" style="opacity: 1; stroke-width: 0px; fill: rgb(230, 87, 43); fill-opacity: 1;"/><path class="point" transform="translate(796.82,122.03)" d="M-3.250015328170666,-7.509993366618623L-3.2499846718157954,7.510006633350091L6.4999999999864615,-0.00001326673146878643Z" style="opacity: 1; stroke-width: 0px; fill: rgb(217, 30, 30); fill-opacity: 1;"/></g><g class="text"/></g><g class="trace scatter trace43b701" style="stroke-miterlimit: 2; opacity: 1;"><g class="fills"/><g class="errorbars"/><g class="lines"><path class="js-line" d="M70.1,128.13L827.9,128.13" style="vector-effect: none; fill: none; stroke: rgb(0, 0, 0); stroke-opacity: 1; stroke-width: 2px; opacity: 1;"/></g><g class="points"/><g class="text"/></g><g class="trace scatter traceaf5bc7" style="stroke-miterlimit: 2; opacity: 1;"><g class="fills"/><g class="errorbars"/><g class="lines"><path class="js-line" d="M70.1,128.13L209.49,128.85L212.02,128.91L374.17,132.53L376.7,132.53L587.05,131.81L589.59,131.75L741.6,128.24L744.13,128.23L827.77,128.22" style="vector-effect: none; fill: none; stroke: rgb(100, 143, 255); stroke-opacity: 1; stroke-width: 2px; opacity: 1;"/></g><g class="points"/><g class="text"/></g><g class="trace scatter trace502b7e" style="stroke-miterlimit: 2; opacity: 1;"><g class="fills"/><g class="errorbars"/><g class="lines"/><g class="points"><path class="point" transform="translate(70.1,128.13)" d="M-3.2500000000000004,-7.51L-3.2499999999999996,7.51L6.5,-3.9801020972288977e-16Z" style="opacity: 1; stroke-width: 0px; fill: rgb(12, 51, 131); fill-opacity: 1;"/><path class="point" transform="translate(161.04,128.17)" d="M-3.209400895113905,-7.527439531104987L-3.2905043448285585,7.492341500269751L6.499905239942463,0.03509803083523618Z" style="opacity: 1; stroke-width: 0px; fill: rgb(11, 94, 159); fill-opacity: 1;"/><path class="point" transform="translate(251.95,129.99)" d="M-3.033976951746688,-7.599841041513295L-3.463366394346807,7.41402004438275L6.497343346093495,0.18582099713054423Z" style="opacity: 1; stroke-width: 0px; fill: rgb(10, 136, 186); fill-opacity: 1;"/><path class="point" transform="translate(342.85,132.34)" d="M-3.156320071257276,-7.5498505685727615L-3.34317691676573,7.468987086828092L6.499496988023006,0.08086348174467045Z" style="opacity: 1; stroke-width: 0px; fill: rgb(126, 174, 121); fill-opacity: 1;"/><path class="point" transform="translate(433.78,132.53)" d="M-3.2499985267070395,-7.510000637576676L-3.2500014732928353,7.509999362423036L6.499999999999875,0.000001275153640058476Z" style="opacity: 1; stroke-width: 0px; fill: rgb(242, 211, 56); fill-opacity: 1;"/><path class="point" transform="translate(524.72,132.53)" d="M-3.2500102332686804,-7.509995571479976L-3.2499897667252853,7.510004428506079L6.499999999993966,-0.000008857026103155116Z" style="opacity: 1; stroke-width: 0px; fill: rgb(242, 177, 56); fill-opacity: 1;"/><path class="point" transform="translate(615.63,131.03)" d="M-3.460867870439607,-7.415186685671428L-3.03653772349025,7.598818240609565L6.497405593929857,-0.18363155493813713Z" style="opacity: 1; stroke-width: 0px; fill: rgb(242, 143, 56); fill-opacity: 1;"/><path class="point" transform="translate(706.53,128.61)" d="M-3.3792531186470365,-7.452734287502425L-3.11977688281422,7.565024269720356L6.499030001461256,-0.11228998221793011Z" style="opacity: 1; stroke-width: 0px; fill: rgb(230, 87, 43); fill-opacity: 1;"/><path class="point" transform="translate(797.46,128.22)" d="M-3.25000610604591,-7.509997357567065L-3.2499938939519417,7.5100026424279696L6.4999999999978515,-0.000005284860905072598Z" style="opacity: 1; stroke-width: 0px; fill: rgb(217, 30, 30); fill-opacity: 1;"/></g><g class="text"/></g><g class="trace scatter trace58aa0a" style="stroke-miterlimit: 2; opacity: 1;"><g class="fills"/><g class="errorbars"/><g class="lines"><path class="js-line" d="M70.1,134.44L827.9,134.44" style="vector-effect: none; fill: none; stroke: rgb(0, 0, 0); stroke-opacity: 1; stroke-width: 2px; opacity: 1;"/></g><g class="points"/><g class="text"/></g><g class="trace scatter trace03bfd2" style="stroke-miterlimit: 2; opacity: 1;"><g class="fills"/><g class="errorbars"/><g class="lines"><path class="js-line" d="M70.1,134.44L827.9,134.44" style="vector-effect: none; fill: none; stroke: rgb(100, 143, 255); stroke-opacity: 1; stroke-width: 2px; opacity: 1;"/></g><g class="points"/><g class="text"/></g><g class="trace scatter trace8b60e7" style="stroke-miterlimit: 2; opacity: 1;"><g class="fills"/><g class="errorbars"/><g class="lines"/><g class="points"><path class="point" transform="translate(70.1,134.44)" d="M-3.2500000000000004,-7.51L-3.2499999999999996,7.51L6.5,-3.9801020972288977e-16Z" style="opacity: 1; stroke-width: 0px; fill: rgb(12, 51, 131); fill-opacity: 1;"/><path class="point" transform="translate(161.04,134.44)" d="M-3.249999999999375,-7.51000000000027L-3.250000000000625,7.50999999999973L6.5,5.408357142950409e-13Z" style="opacity: 1; stroke-width: 0px; fill: rgb(11, 94, 159); fill-opacity: 1;"/><path class="point" transform="translate(251.97,134.44)" d="M-3.2499999999961267,-7.510000000001676L-3.2500000000038733,7.509999999998324L6.5,3.3523645018557872e-12Z" style="opacity: 1; stroke-width: 0px; fill: rgb(10, 136, 186); fill-opacity: 1;"/><path class="point" transform="translate(342.91,134.44)" d="M-3.2499999999980043,-7.510000000000863L-3.2500000000019957,7.5099999999991365L6.5,1.727220038409483e-12Z" style="opacity: 1; stroke-width: 0px; fill: rgb(126, 174, 121); fill-opacity: 1;"/><path class="point" transform="translate(433.84,134.44)" d="M-3.2500000000000004,-7.51L-3.2499999999999996,7.51L6.5,-3.9801020972288977e-16Z" style="opacity: 1; stroke-width: 0px; fill: rgb(242, 211, 56); fill-opacity: 1;"/><path class="point" transform="translate(524.78,134.44)" d="M-3.2500000000000004,-7.51L-3.2499999999999996,7.51L6.5,-3.9801020972288977e-16Z" style="opacity: 1; stroke-width: 0px; fill: rgb(242, 177, 56); fill-opacity: 1;"/><path class="point" transform="translate(615.71,134.44)" d="M-3.250000000003994,-7.509999999998271L-3.249999999996006,7.510000000001728L6.5,-3.457077397380148e-12Z" style="opacity: 1; stroke-width: 0px; fill: rgb(242, 143, 56); fill-opacity: 1;"/><path class="point" transform="translate(706.65,134.44)" d="M-3.25000000000234,-7.509999999998987L-3.24999999999766,7.510000000001012L6.5,-2.025333784823546e-12Z" style="opacity: 1; stroke-width: 0px; fill: rgb(230, 87, 43); fill-opacity: 1;"/><path class="point" transform="translate(797.58,134.44)" d="M-3.2500000000000004,-7.51L-3.2499999999999996,7.51L6.5,-3.9801020972288977e-16Z" style="opacity: 1; stroke-width: 0px; fill: rgb(217, 30, 30); fill-opacity: 1;"/></g><g class="text"/></g><g class="trace scatter trace6e6b64" style="stroke-miterlimit: 2; opacity: 1;"><g class="fills"/><g class="errorbars"/><g class="lines"><path class="js-line" d="M70.1,140.76L827.9,140.76" style="vector-effect: none; fill: none; stroke: rgb(0, 0, 0); stroke-opacity: 1; stroke-width: 2px; opacity: 1;"/></g><g class="points"/><g class="text"/></g><g class="trace scatter traceacd1ba" style="stroke-miterlimit: 2; opacity: 1;"><g class="fills"/><g class="errorbars"/><g class="lines"><path class="js-line" d="M70.1,140.76L827.9,140.76" style="vector-effect: none; fill: none; stroke: rgb(100, 143, 255); stroke-opacity: 1; stroke-width: 2px; opacity: 1;"/></g><g class="points"/><g class="text"/></g><g class="trace scatter traceea386a" style="stroke-miterlimit: 2; opacity: 1;"><g class="fills"/><g class="errorbars"/><g class="lines"/><g class="points"><path class="point" transform="translate(70.1,140.76)" d="M-3.2500000000000004,-7.51L-3.2499999999999996,7.51L6.5,-3.9801020972288977e-16Z" style="opacity: 1; stroke-width: 0px; fill: rgb(12, 51, 131); fill-opacity: 1;"/><path class="point" transform="translate(161.04,140.76)" d="M-3.250000018121372,-7.509999992157861L-3.249999981878628,7.510000007842138L6.5,-1.5684276831180152e-8Z" style="opacity: 1; stroke-width: 0px; fill: rgb(11, 94, 159); fill-opacity: 1;"/><path class="point" transform="translate(251.97,140.76)" d="M-3.2500000106877707,-7.509999995374799L-3.2499999893122293,7.5100000046252005L6.5,-9.2504006216029e-9Z" style="opacity: 1; stroke-width: 0px; fill: rgb(10, 136, 186); fill-opacity: 1;"/><path class="point" transform="translate(342.91,140.76)" d="M-3.249999956283916,-7.5100000189184115L-3.250000043716084,7.509999981081588L6.5,3.783682372027671e-8Z" style="opacity: 1; stroke-width: 0px; fill: rgb(126, 174, 121); fill-opacity: 1;"/><path class="point" transform="translate(433.84,140.76)" d="M-3.2500000000011178,-7.509999999999516L-3.2499999999988822,7.510000000000484L6.5,-9.674022646582344e-13Z" style="opacity: 1; stroke-width: 0px; fill: rgb(242, 211, 56); fill-opacity: 1;"/><path class="point" transform="translate(524.78,140.76)" d="M-3.2500000000002087,-7.509999999999909L-3.2499999999997913,7.51000000000009L6.5,-1.8080925171131083e-13Z" style="opacity: 1; stroke-width: 0px; fill: rgb(242, 177, 56); fill-opacity: 1;"/><path class="point" transform="translate(615.71,140.76)" d="M-3.2500000107122853,-7.509999995364191L-3.2499999892877147,7.510000004635809L6.5,-9.27161842689342e-9Z" style="opacity: 1; stroke-width: 0px; fill: rgb(242, 143, 56); fill-opacity: 1;"/><path class="point" transform="translate(706.65,140.76)" d="M-3.2500000039551407,-7.509999998288388L-3.2499999960448593,7.510000001711612L6.5,-3.42322432455658e-9Z" style="opacity: 1; stroke-width: 0px; fill: rgb(230, 87, 43); fill-opacity: 1;"/><path class="point" transform="translate(797.58,140.76)" d="M-3.2500000000002087,-7.509999999999909L-3.2499999999997913,7.51000000000009L6.5,-1.8080925171131083e-13Z" style="opacity: 1; stroke-width: 0px; fill: rgb(217, 30, 30); fill-opacity: 1;"/></g><g class="text"/></g><g class="trace scatter tracebd9206" style="stroke-miterlimit: 2; opacity: 1;"><g class="fills"/><g class="errorbars"/><g class="lines"><path class="js-line" d="M144.01,197.22L611.18,72.04L613.22,71.5L753.99,33.78" style="vector-effect: none; fill: none; stroke: rgb(220, 38, 127); stroke-opacity: 1; stroke-width: 2px; opacity: 1;"/></g><g class="points"/><g class="text"/></g><g class="trace scatter tracece1ae5" style="stroke-miterlimit: 2; opacity: 1;"><g class="fills"/><g class="errorbars"/><g class="lines"/><g class="points"><path class="point" transform="translate(144.01,197.22)" d="M-5.0829899641594025,-6.412941058847711L-1.1955279067195412,8.095264852014095L6.278517870878944,-1.6823237931663848Z" style="opacity: 1; stroke-width: 0px; fill: rgb(12, 51, 131); fill-opacity: 1;"/><path class="point" transform="translate(217.21,177.61)" d="M-5.0829899641594025,-6.412941058847711L-1.1955279067195412,8.095264852014095L6.278517870878944,-1.6823237931663848Z" style="opacity: 1; stroke-width: 0px; fill: rgb(11, 94, 159); fill-opacity: 1;"/><path class="point" transform="translate(290.41,158)" d="M-5.0829899641594025,-6.412941058847711L-1.1955279067195412,8.095264852014095L6.278517870878944,-1.6823237931663848Z" style="opacity: 1; stroke-width: 0px; fill: rgb(10, 136, 186); fill-opacity: 1;"/><path class="point" transform="translate(363.6,138.38)" d="M-5.0829899641594025,-6.412941058847711L-1.1955279067195412,8.095264852014095L6.278517870878944,-1.6823237931663848Z" style="opacity: 1; stroke-width: 0px; fill: rgb(126, 174, 121); fill-opacity: 1;"/><path class="point" transform="translate(436.8,118.77)" d="M-5.0829899641594025,-6.412941058847711L-1.1955279067195412,8.095264852014095L6.278517870878944,-1.6823237931663848Z" style="opacity: 1; stroke-width: 0px; fill: rgb(242, 211, 56); fill-opacity: 1;"/><path class="point" transform="translate(510,99.16)" d="M-5.0829899641594025,-6.412941058847711L-1.1955279067195412,8.095264852014095L6.278517870878944,-1.6823237931663848Z" style="opacity: 1; stroke-width: 0px; fill: rgb(242, 177, 56); fill-opacity: 1;"/><path class="point" transform="translate(583.19,79.54)" d="M-5.0829899641594025,-6.412941058847711L-1.1955279067195412,8.095264852014095L6.278517870878944,-1.6823237931663848Z" style="opacity: 1; stroke-width: 0px; fill: rgb(242, 143, 56); fill-opacity: 1;"/><path class="point" transform="translate(656.39,59.93)" d="M-5.0829899641594025,-6.412941058847711L-1.1955279067195412,8.095264852014095L6.278517870878944,-1.6823237931663848Z" style="opacity: 1; stroke-width: 0px; fill: rgb(230, 87, 43); fill-opacity: 1;"/><path class="point" transform="translate(729.59,40.32)" d="M-5.0829899641594025,-6.412941058847711L-1.1955279067195412,8.095264852014095L6.278517870878944,-1.6823237931663848Z" style="opacity: 1; stroke-width: 0px; fill: rgb(217, 30, 30); fill-opacity: 1;"/></g><g class="text"/></g></g></g></g><path class="xlines-above crisp" d="M0,0" style="fill: none;"/><path class="ylines-above crisp" d="M0,0" style="fill: none;"/><g class="overlines-above"/><g class="xaxislayer-above"><g class="xtick"><text text-anchor="middle" x="0" y="310" transform="translate(172.1,0)" style="font-family: 'Open Sans', verdana, arial, sans-serif; font-size: 24px; fill: rgb(0, 0, 0); fill-opacity: 1; white-space: pre; opacity: 1;">−1500</text></g><g class="xtick"><text text-anchor="middle" x="0" y="310" style="font-family: 'Open Sans', verdana, arial, sans-serif; font-size: 24px; fill: rgb(0, 0, 0); fill-opacity: 1; white-space: pre; opacity: 1;" transform="translate(298.4,0)">−1000</text></g><g class="xtick"><text text-anchor="middle" x="0" y="310" style="font-family: 'Open Sans', verdana, arial, sans-serif; font-size: 24px; fill: rgb(0, 0, 0); fill-opacity: 1; white-space: pre; opacity: 1;" transform="translate(424.7,0)">−500</text></g><g class="xtick"><text text-anchor="middle" x="0" y="310" style="font-family: 'Open Sans', verdana, arial, sans-serif; font-size: 24px; fill: rgb(0, 0, 0); fill-opacity: 1; white-space: pre; opacity: 1;" transform="translate(551,0)">0</text></g><g class="xtick"><text text-anchor="middle" x="0" y="310" style="font-family: 'Open Sans', verdana, arial, sans-serif; font-size: 24px; fill: rgb(0, 0, 0); fill-opacity: 1; white-space: pre; opacity: 1;" transform="translate(677.3,0)">500</text></g><g class="xtick"><text text-anchor="middle" x="0" y="310" style="font-family: 'Open Sans', verdana, arial, sans-serif; font-size: 24px; fill: rgb(0, 0, 0); fill-opacity: 1; white-space: pre; opacity: 1;" transform="translate(803.6,0)">1000</text></g><g class="xtick"><text text-anchor="middle" x="0" y="310" style="font-family: 'Open Sans', verdana, arial, sans-serif; font-size: 24px; fill: rgb(0, 0, 0); fill-opacity: 1; white-space: pre; opacity: 1;" transform="translate(929.9,0)">1500</text></g></g><g class="yaxislayer-above"><g class="ytick"><text text-anchor="end" x="101" y="8.399999999999999" transform="translate(0,270.53999999999996)" style="font-family: 'Open Sans', verdana, arial, sans-serif; font-size: 24px; fill: rgb(0, 0, 0); fill-opacity: 1; white-space: pre; opacity: 1;">−400</text></g><g class="ytick"><text text-anchor="end" x="101" y="8.399999999999999" style="font-family: 'Open Sans', verdana, arial, sans-serif; font-size: 24px; fill: rgb(0, 0, 0); fill-opacity: 1; white-space: pre; opacity: 1;" transform="translate(0,220.02)">−200</text></g><g class="ytick"><text text-anchor="end" x="101" y="8.399999999999999" style="font-family: 'Open Sans', verdana, arial, sans-serif; font-size: 24px; fill: rgb(0, 0, 0); fill-opacity: 1; white-space: pre; opacity: 1;" transform="translate(0,169.5)">0</text></g><g class="ytick"><text text-anchor="end" x="101" y="8.399999999999999" style="font-family: 'Open Sans', verdana, arial, sans-serif; font-size: 24px; fill: rgb(0, 0, 0); fill-opacity: 1; white-space: pre; opacity: 1;" transform="translate(0,118.98)">200</text></g><g class="ytick"><text text-anchor="end" x="101" y="8.399999999999999" style="font-family: 'Open Sans', verdana, arial, sans-serif; font-size: 24px; fill: rgb(0, 0, 0); fill-opacity: 1; white-space: pre; opacity: 1;" transform="translate(0,68.46000000000001)">400</text></g></g><g class="overaxes-above"/></g></g><g class="polarlayer"/><g class="smithlayer"/><g class="ternarylayer"/><g class="geolayer"/><g class="funnelarealayer"/><g class="pielayer"/><g class="iciclelayer"/><g class="treemaplayer"/><g class="sunburstlayer"/><g class="glimages"/><defs id="topdefs-10218c"><g class="clips"/><clipPath id="legend10218c"><rect width="385" height="45" x="2" y="2"/></clipPath></defs><g class="layer-above"><g class="imagelayer"/><g class="shapelayer"/></g><g class="infolayer"><g class="legend" pointer-events="all" transform="translate(602.02,0.37999999999999545)"><rect class="bg" shape-rendering="crispEdges" style="stroke: rgb(0, 0, 0); stroke-opacity: 1; fill: rgb(255, 255, 255); fill-opacity: 1; stroke-width: 2px;" width="387" height="47" x="1" y="1"/><g class="scrollbox" transform="" clip-path="url(#legend10218c)"><g class="groups"><g class="traces" transform="translate(2,24.1)" style="opacity: 1;"><text class="legendtext" text-anchor="start" x="40" y="9.360000000000001" style="font-family: 'Open Sans', verdana, arial, sans-serif; font-size: 24px; fill: rgb(0, 0, 0); fill-opacity: 1; white-space: pre;">OS Ref</text><g class="layers" style="opacity: 1;"><g class="legendfill"/><g class="legendlines"><path class="js-line" d="M5,0h30" style="fill: none; stroke: rgb(0, 0, 0); stroke-opacity: 1; stroke-width: 2px;"/></g><g class="legendsymbols"><g class="legendpoints"/></g></g><rect class="legendtoggle" x="0" y="-17.1" width="126.640625" height="34.2" style="fill: rgb(0, 0, 0); fill-opacity: 0;"/></g><g class="traces" transform="translate(131.140625,24.1)" style="opacity: 1;"><text class="legendtext" text-anchor="start" x="40" y="9.360000000000001" style="font-family: 'Open Sans', verdana, arial, sans-serif; font-size: 24px; fill: rgb(0, 0, 0); fill-opacity: 1; white-space: pre;">OS Pos</text><g class="layers" style="opacity: 1;"><g class="legendfill"/><g class="legendlines"><path class="js-line" d="M5,0h30" style="fill: none; stroke: rgb(100, 143, 255); stroke-opacity: 1; stroke-width: 2px;"/></g><g class="legendsymbols"><g class="legendpoints"/></g></g><rect class="legendtoggle" x="0" y="-17.1" width="127.203125" height="34.2" style="fill: rgb(0, 0, 0); fill-opacity: 0;"/></g><g class="traces" transform="translate(260.84375,24.1)" style="opacity: 1;"><text class="legendtext" text-anchor="start" x="40" y="9.360000000000001" style="font-family: 'Open Sans', verdana, arial, sans-serif; font-size: 24px; fill: rgb(0, 0, 0); fill-opacity: 1; white-space: pre;">TS Pos</text><g class="layers" style="opacity: 1;"><g class="legendfill"/><g class="legendlines"><path class="js-line" d="M5,0h30" style="fill: none; stroke: rgb(220, 38, 127); stroke-opacity: 1; stroke-width: 2px;"/></g><g class="legendsymbols"><g class="legendpoints"/></g></g><rect class="legendtoggle" x="0" y="-17.1" width="122.953125" height="34.2" style="fill: rgb(0, 0, 0); fill-opacity: 0;"/></g></g></g><rect class="scrollbar" rx="20" ry="3" width="0" height="0" style="fill: rgb(128, 139, 164); fill-opacity: 1;" x="0" y="0"/></g><g class="g-gtitle"/><g class="g-xtitle" transform="translate(0,-5.800000000000011)"><text class="xtitle" x="551" y="349.8" text-anchor="middle" style="opacity: 1; font-family: 'Open Sans', verdana, arial, sans-serif; font-size: 29px; fill: rgb(0, 0, 0); fill-opacity: 1; white-space: pre;">East [m]</text></g><g class="g-ytitle" transform="translate(18.072265625,0)"><text class="ytitle" transform="rotate(-90,10.928124999999994,169.5)" x="10.928124999999994" y="169.5" text-anchor="middle" style="opacity: 1; font-family: 'Open Sans', verdana, arial, sans-serif; font-size: 29px; fill: rgb(0, 0, 0); fill-opacity: 1; white-space: pre;">North [m]</text></g></g></svg>