<svg class="main-svg" xmlns="http://www.w3.org/2000/svg" xmlns:xlink="http://www.w3.org/1999/xlink" width="1000" height="350" style="" viewBox="0 0 1000 350"><rect x="0" y="0" width="1000" height="350" style="fill: rgb(255, 255, 255); fill-opacity: 1;"/><defs id="defs-60b15f"><g class="clips"><clipPath id="clip60b15fxyplot" class="plotclip"><rect width="806" height="170"/></clipPath><clipPath class="axesclip" id="clip60b15fx"><rect x="114" y="0" width="806" height="350"/></clipPath><clipPath class="axesclip" id="clip60b15fy"><rect x="0" y="100" width="1000" height="170"/></clipPath><clipPath class="axesclip" id="clip60b15fxy"><rect x="114" y="100" width="806" height="170"/></clipPath></g><g class="gradients"/><g class="patterns"/></defs><g class="bglayer"/><g class="layer-below"><g class="imagelayer"/><g class="shapelayer"/></g><g class="cartesianlayer"><g class="subplot xy"><g class="layer-subplot"><g class="shapelayer"/><g class="imagelayer"/></g><g class="minor-gridlayer"><g class="x"/><g class="y"/></g><g class="gridlayer"><g class="x"><path class="xgrid crisp" transform="translate(127,0)" d="M0,100v170" style="stroke: rgb(200, 200, 200); stroke-opacity: 1; stroke-width: 1px;"/><path class="xgrid crisp" transform="translate(257,0)" d="M0,100v170" style="stroke: rgb(200, 200, 200); stroke-opacity: 1; stroke-width: 1px;"/><path class="xgrid crisp" transform="translate(387,0)" d="M0,100v170" style="stroke: rgb(200, 200, 200); stroke-opacity: 1; stroke-width: 1px;"/><path class="xgrid crisp" transform="translate(647,0)" d="M0,100v170" style="stroke: rgb(200, 200, 200); stroke-opacity: 1; stroke-width: 1px;"/><path class="xgrid crisp" transform="translate(777,0)" d="M0,100v170" style="stroke: rgb(200, 200, 200); stroke-opacity: 1; stroke-width: 1px;"/><path class="xgrid crisp" transform="translate(907,0)" d="M0,100v170" style="stroke: rgb(200, 200, 200); stroke-opacity: 1; stroke-width: 1px;"/></g><g class="y"><path class="ygrid crisp" transform="translate(0,237)" d="M114,0h806" style="stroke: rgb(200, 200, 200); stroke-opacity: 1; stroke-width: 1px;"/><path class="ygrid crisp" transform="translate(0,133)" d="M114,0h806" style="stroke: rgb(200, 200, 200); stroke-opacity: 1; stroke-width: 1px;"/></g></g><g class="zerolinelayer"><path class="xzl zl crisp" transform="translate(517,0)" d="M0,100v170" style="stroke: rgb(200, 200, 200); stroke-opacity: 1; stroke-width: 2px;"/><path class="yzl zl crisp" transform="translate(0,185)" d="M114,0h806" style="stroke: rgb(200, 200, 200); stroke-opacity: 1; stroke-width: 2px;"/></g><g class="layer-between"><g class="shapelayer"/><g class="imagelayer"/></g><path class="xlines-below"/><path class="ylines-below"/><g class="overlines-below"/><g class="xaxislayer-below"/><g class="yaxislayer-below"/><g class="overaxes-below"/><g class="overplot"><g class="xy" transform="translate(114,100)" clip-path="url(#clip60b15fxyplot)"><g class="scatterlayer mlayer"><g class="trace scatter trace2ff4b1" style="stroke-miterlimit: 2; opacity: 1;"><g class="fills"/><g class="errorbars"/><g class="lines"><path class="js-line" d="M13,59L793,59" style="vector-effect: none; fill: none; stroke: rgb(0, 0, 0); stroke-opacity: 1; stroke-width: 2px; opacity: 1;"/></g><g class="points"/><g class="text"/></g><g class="trace scatter tracecca842" style="stroke-miterlimit: 2; opacity: 1;"><g class="fills"/><g class="errorbars"/><g class="lines"><path class="js-line" d="M13,59L793,59" style="vector-effect: none; fill: none; stroke: rgb(100, 143, 255); stroke-opacity: 1; stroke-width: 2px; opacity: 1;"/></g><g class="points"/><g class="text"/></g><g class="trace scatter trace392123" style="stroke-miterlimit: 2; opacity: 1;"><g class="fills"/><g class="errorbars"/><g class="lines"/><g class="points"><path class="point" transform="translate(13,59)" d="M-3.2500000000000004,-7.51L-3.2499999999999996,7.51L6.5,-3.9801020972288977e-16Z" style="opacity: 1; stroke-width: 0px; fill: rgb(12, 51, 131); fill-opacity: 1;"/><path class="point" transform="translate(106.6,59)" d="M-3.2500000000001723,-7.509999999999925L-3.2499999999998277,7.510000000000074L6.5,-1.4905687320703136e-13Z" style="opacity: 1; stroke-width: 0px; fill: rgb(11, 94, 159); fill-opacity: 1;"/><path class="point" transform="translate(200.2,59)" d="M-3.250000000001006,-7.509999999999565L-3.249999999998994,7.510000000000435L6.5,-8.707018392133832e-13Z" style="opacity: 1; stroke-width: 0px; fill: rgb(10, 136, 186); fill-opacity: 1;"/><path class="point" transform="translate(293.8,59)" d="M-3.2500000000004925,-7.509999999999787L-3.2499999999995075,7.510000000000213L6.5,-4.261685401534704e-13Z" style="opacity: 1; stroke-width: 0px; fill: rgb(126, 174, 121); fill-opacity: 1;"/><path class="point" transform="translate(387.4,59)" d="M-3.2500000000000004,-7.51L-3.2499999999999996,7.51L6.5,-3.9801020972288977e-16Z" style="opacity: 1; stroke-width: 0px; fill: rgb(242, 211, 56); fill-opacity: 1;"/><path class="point" transform="translate(481,59)" d="M-3.2500000000000004,-7.51L-3.2499999999999996,7.51L6.5,-3.9801020972288977e-16Z" style="opacity: 1; stroke-width: 0px; fill: rgb(242, 177, 56); fill-opacity: 1;"/><path class="point" transform="translate(574.6,59)" d="M-3.2499999999993583,-7.510000000000278L-3.2500000000006417,7.509999999999722L6.5,5.552686136151679e-13Z" style="opacity: 1; stroke-width: 0px; fill: rgb(242, 143, 56); fill-opacity: 1;"/><path class="point" transform="translate(668.2,59)" d="M-3.2499999999990634,-7.510000000000405L-3.2500000000009366,7.509999999999595L6.5,8.107309315814163e-13Z" style="opacity: 1; stroke-width: 0px; fill: rgb(230, 87, 43); fill-opacity: 1;"/><path class="point" transform="translate(761.8,59)" d="M-3.2500000000000004,-7.51L-3.2499999999999996,7.51L6.5,-3.9801020972288977e-16Z" style="opacity: 1; stroke-width: 0px; fill: rgb(217, 30, 30); fill-opacity: 1;"/></g><g class="text"/></g><g class="trace scatter tracead966b" style="stroke-miterlimit: 2; opacity: 1;"><g class="fills"/><g class="errorbars"/><g class="lines"><path class="js-line" d="M13,65.5L793,65.5" style="vector-effect: none; fill: none; stroke: rgb(0, 0, 0); stroke-opacity: 1; stroke-width: 2px; opacity: 1;"/></g><g class="points"/><g class="text"/></g><g class="trace scatter trace8b462a" style="stroke-miterlimit: 2; opacity: 1;"><g class="fills"/><g class="errorbars"/><g class="lines"><path class="js-line" d="M13,65.5L793,65.5" style="vector-effect: none; fill: none; stroke: rgb(100, 143, 255); stroke-opacity: 1; stroke-width: 2px; opacity: 1;"/></g><g class="points"/><g class="text"/></g><g class="trace scatter trace365113" style="stroke-miterlimit: 2; opacity: 1;"><g class="fills"/><g class="errorbars"/><g class="lines"/><g class="points"><path class="point" transform="translate(13,65.5)" d="M-3.2500000000000004,-7.51L-3.2499999999999996,7.51L6.5,-3.9801020972288977e-16Z" style="opacity: 1; stroke-width: 0px; fill: rgb(12, 51, 131); fill-opacity: 1;"/><path class="point" transform="translate(106.6,65.5)" d="M-3.250000000001236,-7.509999999999465L-3.249999999998764,7.5100000000005345L6.5,-1.0698758498311363e-12Z" style="opacity: 1; stroke-width: 0px; fill: rgb(11, 94, 159); fill-opacity: 1;"/><path class="point" transform="translate(200.2,65.5)" d="M-3.2500000000082547,-7.5099999999964275L-3.2499999999917453,7.510000000003572L6.5,-7.144683173672605e-12Z" style="opacity: 1; stroke-width: 0px; fill: rgb(10, 136, 186); fill-opacity: 1;"/><path class="point" transform="translate(293.8,65.5)" d="M-3.2500000000045377,-7.509999999998036L-3.2499999999954623,7.5100000000019635L6.5,-3.927589915216289e-12Z" style="opacity: 1; stroke-width: 0px; fill: rgb(126, 174, 121); fill-opacity: 1;"/><path class="point" transform="translate(387.4,65.5)" d="M-3.2500000000000004,-7.51L-3.2499999999999996,7.51L6.5,-3.9801020972288977e-16Z" style="opacity: 1; stroke-width: 0px; fill: rgb(242, 211, 56); fill-opacity: 1;"/><path class="point" transform="translate(481,65.5)" d="M-3.2500000000000004,-7.51L-3.2499999999999996,7.51L6.5,-3.9801020972288977e-16Z" style="opacity: 1; stroke-width: 0px; fill: rgb(242, 177, 56); fill-opacity: 1;"/><path class="point" transform="translate(574.6,65.5)" d="M-3.2499999999922213,-7.510000000003366L-3.2500000000077787,7.509999999996634L6.5,6.732549522629539e-12Z" style="opacity: 1; stroke-width: 0px; fill: rgb(242, 143, 56); fill-opacity: 1;"/><path class="point" transform="translate(668.2,65.5)" d="M-3.2499999999941505,-7.510000000002531L-3.2500000000058495,7.5099999999974685L6.5,5.062663071290841e-12Z" style="opacity: 1; stroke-width: 0px; fill: rgb(230, 87, 43); fill-opacity: 1;"/><path class="point" transform="translate(761.8,65.5)" d="M-3.2500000000000004,-7.51L-3.2499999999999996,7.51L6.5,-3.9801020972288977e-16Z" style="opacity: 1; stroke-width: 0px; fill: rgb(217, 30, 30); fill-opacity: 1;"/></g><g class="text"/></g><g class="trace scatter trace9e767b" style="stroke-miterlimit: 2; opacity: 1;"><g class="fills"/><g class="errorbars"/><g class="lines"><path class="js-line" d="M13,72L793,72" style="vector-effect: none; fill: none; stroke: rgb(0, 0, 0); stroke-opacity: 1; stroke-width: 2px; opacity: 1;"/></g><g class="points"/><g class="text"/></g><g class="trace scatter trace27b257" style="stroke-miterlimit: 2; opacity: 1;"><g class="fills"/><g class="errorbars"/><g class="lines"><path class="js-line" d="M13,72L159.08,71.27L161.69,71.22L328.58,67.47L331.19,67.47L563.36,68.18L565.97,68.23L636.37,70.27L638.98,70.38L691.12,71.7L693.73,71.73L769.38,71.85L771.99,71.85L792.86,71.85" style="vector-effect: none; fill: none; stroke: rgb(100, 143, 255); stroke-opacity: 1; stroke-width: 2px; opacity: 1;"/></g><g class="points"/><g class="text"/></g><g class="trace scatter trace8da822" style="stroke-miterlimit: 2; opacity: 1;"><g class="fills"/><g class="errorbars"/><g class="lines"/><g class="points"><path class="point" transform="translate(13,72)" d="M-3.2500000000000004,-7.51L-3.2499999999999996,7.51L6.5,-3.9801020972288977e-16Z" style="opacity: 1; stroke-width: 0px; fill: rgb(12, 51, 131); fill-opacity: 1;"/><path class="point" transform="translate(106.6,71.96)" d="M-3.2867328871380677,-7.493996725953719L-3.2131891950126024,7.525823223877521L6.49992208215067,-0.03182649792380317Z" style="opacity: 1; stroke-width: 0px; fill: rgb(11, 94, 159); fill-opacity: 1;"/><path class="point" transform="translate(200.18,70.23)" d="M-3.459663253750019,-7.415748793658792L-3.0377720847512197,7.598324865462533L6.497435338501239,-0.1825760718037414Z" style="opacity: 1; stroke-width: 0px; fill: rgb(10, 136, 186); fill-opacity: 1;"/><path class="point" transform="translate(293.74,67.68)" d="M-3.3507336699740513,-7.465600034351039L-3.1486781577484058,7.553040835247622L6.499411827722457,-0.08744080089658424Z" style="opacity: 1; stroke-width: 0px; fill: rgb(126, 174, 121); fill-opacity: 1;"/><path class="point" transform="translate(387.33,67.47)" d="M-3.250031073529967,-7.509986552657045L-3.249968926414393,7.510013447214384L6.49999999994436,-0.000026894557338829476Z" style="opacity: 1; stroke-width: 0px; fill: rgb(242, 211, 56); fill-opacity: 1;"/><path class="point" transform="translate(480.93,67.47)" d="M-3.2500109348583335,-7.509995267861442L-3.249989065134776,7.510004732122636L6.4999999999931095,-0.000009464261193365391Z" style="opacity: 1; stroke-width: 0px; fill: rgb(242, 177, 56); fill-opacity: 1;"/><path class="point" transform="translate(574.52,68.4)" d="M-3.0916955126897996,-7.576543991610802L-3.4068732802790116,7.440148819218666L6.498568792968811,0.1363951723921358Z" style="opacity: 1; stroke-width: 0px; fill: rgb(242, 143, 56); fill-opacity: 1;"/><path class="point" transform="translate(668.07,71.29)" d="M-3.069630399800757,-7.585510477787175L-3.4285138802745685,7.430201381709961L6.4981442800753255,0.15530909607721524Z" style="opacity: 1; stroke-width: 0px; fill: rgb(230, 87, 43); fill-opacity: 1;"/><path class="point" transform="translate(761.66,71.85)" d="M-3.2499896391661736,-7.510004483707884L-3.2500103608276403,7.509995516277821L6.499999999993814,0.000008967430062000117Z" style="opacity: 1; stroke-width: 0px; fill: rgb(217, 30, 30); fill-opacity: 1;"/></g><g class="text"/></g><g class="trace scatter trace10f0b6" style="stroke-miterlimit: 2; opacity: 1;"><g class="fills"/><g class="errorbars"/><g class="lines"><path class="js-line" d="M13,78.5L793,78.5" style="vector-effect: none; fill: none; stroke: rgb(0, 0, 0); stroke-opacity: 1; stroke-width: 2px; opacity: 1;"/></g><g class="points"/><g class="text"/></g><g class="trace scatter tracea1c044" style="stroke-miterlimit: 2; opacity: 1;"><g class="fills"/><g class="errorbars"/><g class="lines"><path class="js-line" d="M13,78.5L132.98,77.77L135.58,77.68L179.85,75.26L182.45,75.09L296.91,67.18L299.52,67.11L338.64,66.76L341.24,66.76L534.27,67.46L536.88,67.53L588.99,69.81L591.59,69.99L633.16,73.57L635.75,73.84L666.91,76.54L669.51,76.71L703.35,77.99L705.96,78.03L792.04,78.07" style="vector-effect: none; fill: none; stroke: rgb(100, 143, 255); stroke-opacity: 1; stroke-width: 2px; opacity: 1;"/></g><g class="points"/><g class="text"/></g><g class="trace scatter tracef7f21e" style="stroke-miterlimit: 2; opacity: 1;"><g class="fills"/><g class="errorbars"/><g class="lines"/><g class="points"><path class="point" transform="translate(13,78.5)" d="M-3.2500000000000004,-7.51L-3.2499999999999996,7.51L6.5,-3.9801020972288977e-16Z" style="opacity: 1; stroke-width: 0px; fill: rgb(12, 51, 131); fill-opacity: 1;"/><path class="point" transform="translate(106.6,78.4)" d="M-3.346738601723421,-7.467391829262367L-3.152719082220299,7.5513550034814285L6.49945768394372,-0.08396317421906092Z" style="opacity: 1; stroke-width: 0px; fill: rgb(11, 94, 159); fill-opacity: 1;"/><path class="point" transform="translate(200.04,73.84)" d="M-3.789945585930777,-7.252510769084305L-2.692686714721199,7.727356485653031L6.482632300651976,-0.4748457165687258Z" style="opacity: 1; stroke-width: 0px; fill: rgb(10, 136, 186); fill-opacity: 1;"/><path class="point" transform="translate(293.37,67.3)" d="M-3.507053111404342,-7.393455110690071L-2.9890806738243154,7.6176109591767664L6.496133785228658,-0.22415584848669612Z" style="opacity: 1; stroke-width: 0px; fill: rgb(126, 174, 121); fill-opacity: 1;"/><path class="point" transform="translate(386.95,66.76)" d="M-3.2500880990983547,-7.50996187394445L-3.249911900454397,7.510038125022062L6.4999999995527515,-0.00007625107761164789Z" style="opacity: 1; stroke-width: 0px; fill: rgb(242, 211, 56); fill-opacity: 1;"/><path class="point" transform="translate(480.55,66.76)" d="M-3.250035883712975,-7.509984470994465L-3.249964116212826,7.510015528834077L6.499999999925801,-0.000031057839611716765Z" style="opacity: 1; stroke-width: 0px; fill: rgb(242, 177, 56); fill-opacity: 1;"/><path class="point" transform="translate(574.1,68.94)" d="M-2.856202211489807,-7.668422844828051L-3.63505309950474,7.331370196885503L6.491255310994547,0.33705264794254763Z" style="opacity: 1; stroke-width: 0px; fill: rgb(242, 143, 56); fill-opacity: 1;"/><path class="point" transform="translate(667.33,76.57)" d="M-2.760539590324842,-7.7033772574273645L-3.72601797564376,7.285560379626235L6.486557565968602,0.4178168778011298Z" style="opacity: 1; stroke-width: 0px; fill: rgb(230, 87, 43); fill-opacity: 1;"/><path class="point" transform="translate(760.84,78.07)" d="M-3.249971046446864,-7.510012529766982L-3.250028953504829,7.509987470121391L6.499999999951693,0.000025059645590725473Z" style="opacity: 1; stroke-width: 0px; fill: rgb(217, 30, 30); fill-opacity: 1;"/></g><g class="text"/></g><g class="trace scatter trace963585" style="stroke-miterlimit: 2; opacity: 1;"><g class="fills"/><g class="errorbars"/><g class="lines"><path class="js-line" d="M13,85L793,85" style="vector-effect: none; fill: none; stroke: rgb(0, 0, 0); stroke-opacity: 1; stroke-width: 2px; opacity: 1;"/></g><g class="points"/><g class="text"/></g><g class="trace scatter tracee822eb" style="stroke-miterlimit: 2; opacity: 1;"><g class="fills"/><g class="errorbars"/><g class="lines"><path class="js-line" d="M13,85L122.53,85.67L125.13,85.78L161.52,88.34L164.12,88.59L234.12,96.34L236.71,96.65L275.6,100.67L278.2,100.86L309.41,102.31L312.02,102.37L366.8,102.48L369.4,102.48L512.84,101.73L515.44,101.61L549.22,99.14L551.82,98.88L629.61,90.34L632.2,90.05L665.94,86.95L668.54,86.78L702.38,85.44L704.99,85.41L772.81,85.36L775.42,85.36L791.07,85.36" style="vector-effect: none; fill: none; stroke: rgb(100, 143, 255); stroke-opacity: 1; stroke-width: 2px; opacity: 1;"/></g><g class="points"/><g class="text"/></g><g class="trace scatter tracee37a5b" style="stroke-miterlimit: 2; opacity: 1;"><g class="fills"/><g class="errorbars"/><g class="lines"/><g class="points"><path class="point" transform="translate(13,85)" d="M-3.2500000000000004,-7.51L-3.2499999999999996,7.51L6.5,-3.9801020972288977e-16Z" style="opacity: 1; stroke-width: 0px; fill: rgb(12, 51, 131); fill-opacity: 1;"/><path class="point" transform="translate(106.59,85.17)" d="M-3.092474199251888,-7.576226192964501L-3.4061085778320113,7.440498931927831L6.498582777083899,0.1357272610366712Z" style="opacity: 1; stroke-width: 0px; fill: rgb(11, 94, 159); fill-opacity: 1;"/><path class="point" transform="translate(199.81,92.41)" d="M-2.40090137616887,-7.822932479697777L-4.05935390913986,7.105226656507935L6.4602552853087305,0.7177058231898428Z" style="opacity: 1; stroke-width: 0px; fill: rgb(10, 136, 186); fill-opacity: 1;"/><path class="point" transform="translate(292.86,101.73)" d="M-2.885174223032043,-7.65756943832385L-3.6073090078062253,7.345061042782427L6.4924832308382685,0.31250839554142373Z" style="opacity: 1; stroke-width: 0px; fill: rgb(126, 174, 121); fill-opacity: 1;"/><path class="point" transform="translate(386.41,102.48)" d="M-3.249995929079447,-7.510001761715308L-3.2500040709195983,7.509998238282486L6.499999999999045,0.0000035234328219961293Z" style="opacity: 1; stroke-width: 0px; fill: rgb(242, 211, 56); fill-opacity: 1;"/><path class="point" transform="translate(480.01,102.48)" d="M-3.250040513872183,-7.509982467235821L-3.249959486033234,7.5100175325456195L6.499999999905417,-0.00003506530979813827Z" style="opacity: 1; stroke-width: 0px; fill: rgb(242, 177, 56); fill-opacity: 1;"/><path class="point" transform="translate(573.29,96.57)" d="M-4.047842618992085,-7.111790922958246L-2.4135664247190993,7.8190342826635995L6.461409043711185,-0.7072433597053532Z" style="opacity: 1; stroke-width: 0px; fill: rgb(242, 143, 56); fill-opacity: 1;"/><path class="point" transform="translate(666.36,86.92)" d="M-3.744805087651296,-7.2759215811813815L-2.740652756906752,7.710474853474293L6.485457844558048,-0.4345532722929118Z" style="opacity: 1; stroke-width: 0px; fill: rgb(230, 87, 43); fill-opacity: 1;"/><path class="point" transform="translate(759.87,85.36)" d="M-3.2500248694233327,-7.509989237550866L-3.2499751305410274,7.510010762366778L6.49999999996436,-0.00002152481591102602Z" style="opacity: 1; stroke-width: 0px; fill: rgb(217, 30, 30); fill-opacity: 1;"/></g><g class="text"/></g><g class="trace scatter trace82f3e0" style="stroke-miterlimit: 2; opacity: 1;"><g class="fills"/><g class="errorbars"/><g class="lines"><path class="js-line" d="M13,91.5L793,91.5" style="vector-effect: none; fill: none; stroke: rgb(0, 0, 0); stroke-opacity: 1; stroke-width: 2px; opacity: 1;"/></g><g class="points"/><g class="text"/></g><g class="trace scatter trace10fc9d" style="stroke-miterlimit: 2; opacity: 1;"><g class="fills"/><g class="errorbars"/><g class="lines"><path class="js-line" d="M13,91.5L132.98,92.25L135.58,92.35L177.24,94.64L179.85,94.82L291.75,102.11L294.36,102.19L330.86,102.64L333.47,102.64L521.27,101.91L523.88,101.81L565.53,99.46L568.14,99.28L677.46,92.34L680.06,92.25L721.78,91.72L724.39,91.72L792.22,91.72" style="vector-effect: none; fill: none; stroke: rgb(100, 143, 255); stroke-opacity: 1; stroke-width: 2px; opacity: 1;"/></g><g class="points"/><g class="text"/></g><g class="trace scatter tracedbe4f6" style="stroke-miterlimit: 2; opacity: 1;"><g class="fills"/><g class="errorbars"/><g class="lines"/><g class="points"><path class="point" transform="translate(13,91.5)" d="M-3.2500000000000004,-7.51L-3.2499999999999996,7.51L6.5,-3.9801020972288977e-16Z" style="opacity: 1; stroke-width: 0px; fill: rgb(12, 51, 131); fill-opacity: 1;"/><path class="point" transform="translate(106.6,91.61)" d="M-3.149926072106204,-7.552520489231762L-3.349500114378372,7.466153560152595L6.499426186484576,0.08636692907916747Z" style="opacity: 1; stroke-width: 0px; fill: rgb(11, 94, 159); fill-opacity: 1;"/><path class="point" transform="translate(200.04,96.22)" d="M-2.713503423437514,-7.720071189502911L-3.7703851193565545,7.2626989509227675L6.483888542794069,0.45737223858014386Z" style="opacity: 1; stroke-width: 0px; fill: rgb(10, 136, 186); fill-opacity: 1;"/><path class="point" transform="translate(293.42,102.16)" d="M-3.018272245881321,-7.606091811813904L-3.478673407183803,7.406850297268889L6.496945653065124,0.1992415145450153Z" style="opacity: 1; stroke-width: 0px; fill: rgb(126, 174, 121); fill-opacity: 1;"/><path class="point" transform="translate(387,102.64)" d="M-3.2499971284210427,-7.5100012426933045L-3.250002871578482,7.509998757305597L6.499999999999525,0.0000024853877067981253Z" style="opacity: 1; stroke-width: 0px; fill: rgb(242, 211, 56); fill-opacity: 1;"/><path class="point" transform="translate(480.6,102.64)" d="M-3.2500254196658367,-7.5099889994277556L-3.249974580296929,7.510011000486204L6.499999999962766,-0.000022001058448651472Z" style="opacity: 1; stroke-width: 0px; fill: rgb(242, 177, 56); fill-opacity: 1;"/><path class="point" transform="translate(574.07,98.87)" d="M-3.763893092422871,-7.266065564582486L-2.720401605102721,7.717643105699728L6.484294697525592,-0.4515775411172419Z" style="opacity: 1; stroke-width: 0px; fill: rgb(242, 143, 56); fill-opacity: 1;"/><path class="point" transform="translate(667.45,92.72)" d="M-3.5666649947807634,-7.364882946456483L-2.927446032061337,7.641508995569417L6.4941110268421,-0.2766260491129342Z" style="opacity: 1; stroke-width: 0px; fill: rgb(230, 87, 43); fill-opacity: 1;"/><path class="point" transform="translate(761.02,91.72)" d="M-3.250015328170666,-7.509993366618623L-3.2499846718157954,7.510006633350091L6.4999999999864615,-0.00001326673146878643Z" style="opacity: 1; stroke-width: 0px; fill: rgb(217, 30, 30); fill-opacity: 1;"/></g><g class="text"/></g><g class="trace scatter trace82682d" style="stroke-miterlimit: 2; opacity: 1;"><g class="fills"/><g class="errorbars"/><g class="lines"><path class="js-line" d="M13,98L793,98" style="vector-effect: none; fill: none; stroke: rgb(0, 0, 0); stroke-opacity: 1; stroke-width: 2px; opacity: 1;"/></g><g class="points"/><g class="text"/></g><g class="trace scatter tracef629ce" style="stroke-miterlimit: 2; opacity: 1;"><g class="fills"/><g class="errorbars"/><g class="lines"><path class="js-line" d="M13,98L156.47,98.74L159.08,98.8L328.59,102.53L331.19,102.53L545.1,101.78L547.71,101.72L714.61,98.09L717.22,98.09L792.87,98.09" style="vector-effect: none; fill: none; stroke: rgb(100, 143, 255); stroke-opacity: 1; stroke-width: 2px; opacity: 1;"/></g><g class="points"/><g class="text"/></g><g class="trace scatter trace57d339" style="stroke-miterlimit: 2; opacity: 1;"><g class="fills"/><g class="errorbars"/><g class="lines"/><g class="points"><path class="point" transform="translate(13,98)" d="M-3.2500000000000004,-7.51L-3.2499999999999996,7.51L6.5,-3.9801020972288977e-16Z" style="opacity: 1; stroke-width: 0px; fill: rgb(12, 51, 131); fill-opacity: 1;"/><path class="point" transform="translate(106.6,98.04)" d="M-3.209400895113905,-7.527439531104987L-3.2905043448285585,7.492341500269751L6.499905239942463,0.03509803083523618Z" style="opacity: 1; stroke-width: 0px; fill: rgb(11, 94, 159); fill-opacity: 1;"/><path class="point" transform="translate(200.17,99.92)" d="M-3.033976951746688,-7.599841041513295L-3.463366394346807,7.41402004438275L6.497343346093495,0.18582099713054423Z" style="opacity: 1; stroke-width: 0px; fill: rgb(10, 136, 186); fill-opacity: 1;"/><path class="point" transform="translate(293.74,102.33)" d="M-3.156320071257276,-7.5498505685727615L-3.34317691676573,7.468987086828092L6.499496988023006,0.08086348174467045Z" style="opacity: 1; stroke-width: 0px; fill: rgb(126, 174, 121); fill-opacity: 1;"/><path class="point" transform="translate(387.33,102.53)" d="M-3.2499985267070395,-7.510000637576676L-3.2500014732928353,7.509999362423036L6.499999999999875,0.000001275153640058476Z" style="opacity: 1; stroke-width: 0px; fill: rgb(242, 211, 56); fill-opacity: 1;"/><path class="point" transform="translate(480.93,102.53)" d="M-3.2500102332686804,-7.509995571479976L-3.2499897667252853,7.510004428506079L6.499999999993966,-0.000008857026103155116Z" style="opacity: 1; stroke-width: 0px; fill: rgb(242, 177, 56); fill-opacity: 1;"/><path class="point" transform="translate(574.51,100.99)" d="M-3.460867870439607,-7.415186685671428L-3.03653772349025,7.598818240609565L6.497405593929857,-0.18363155493813713Z" style="opacity: 1; stroke-width: 0px; fill: rgb(242, 143, 56); fill-opacity: 1;"/><path class="point" transform="translate(668.08,98.49)" d="M-3.3792531186470365,-7.452734287502425L-3.11977688281422,7.565024269720356L6.499030001461256,-0.11228998221793011Z" style="opacity: 1; stroke-width: 0px; fill: rgb(230, 87, 43); fill-opacity: 1;"/><path class="point" transform="translate(761.67,98.09)" d="M-3.25000610604591,-7.509997357567065L-3.2499938939519417,7.5100026424279696L6.4999999999978515,-0.000005284860905072598Z" style="opacity: 1; stroke-width: 0px; fill: rgb(217, 30, 30); fill-opacity: 1;"/></g><g class="text"/></g><g class="trace scatter traceea6790" style="stroke-miterlimit: 2; opacity: 1;"><g class="fills"/><g class="errorbars"/><g class="lines"><path class="js-line" d="M13,104.5L793,104.5" style="vector-effect: none; fill: none; stroke: rgb(0, 0, 0); stroke-opacity: 1; stroke-width: 2px; opacity: 1;"/></g><g class="points"/><g class="text"/></g><g class="trace scatter trace57e4d3" style="stroke-miterlimit: 2; opacity: 1;"><g class="fills"/><g class="errorbars"/><g class="lines"><path class="js-line" d="M13,104.5L793,104.5" style="vector-effect: none; fill: none; stroke: rgb(100, 143, 255); stroke-opacity: 1; stroke-width: 2px; opacity: 1;"/></g><g class="points"/><g class="text"/></g><g class="trace scatter tracee85f92" style="stroke-miterlimit: 2; opacity: 1;"><g class="fills"/><g class="errorbars"/><g class="lines"/><g class="points"><path class="point" transform="translate(13,104.5)" d="M-3.2500000000000004,-7.51L-3.2499999999999996,7.51L6.5,-3.9801020972288977e-16Z" style="opacity: 1; stroke-width: 0px; fill: rgb(12, 51, 131); fill-opacity: 1;"/><path class="point" transform="translate(106.6,104.5)" d="M-3.249999999999375,-7.51000000000027L-3.250000000000625,7.50999999999973L6.5,5.408357142950409e-13Z" style="opacity: 1; stroke-width: 0px; fill: rgb(11, 94, 159); fill-opacity: 1;"/><path class="point" transform="translate(200.2,104.5)" d="M-3.2499999999961267,-7.510000000001676L-3.2500000000038733,7.509999999998324L6.5,3.3523645018557872e-12Z" style="opacity: 1; stroke-width: 0px; fill: rgb(10, 136, 186); fill-opacity: 1;"/><path class="point" transform="translate(293.8,104.5)" d="M-3.2499999999980043,-7.510000000000863L-3.2500000000019957,7.5099999999991365L6.5,1.727220038409483e-12Z" style="opacity: 1; stroke-width: 0px; fill: rgb(126, 174, 121); fill-opacity: 1;"/><path class="point" transform="translate(387.4,104.5)" d="M-3.2500000000000004,-7.51L-3.2499999999999996,7.51L6.5,-3.9801020972288977e-16Z" style="opacity: 1; stroke-width: 0px; fill: rgb(242, 211, 56); fill-opacity: 1;"/><path class="point" transform="translate(481,104.5)" d="M-3.2500000000000004,-7.51L-3.2499999999999996,7.51L6.5,-3.9801020972288977e-16Z" style="opacity: 1; stroke-width: 0px; fill: rgb(242, 177, 56); fill-opacity: 1;"/><path class="point" transform="translate(574.6,104.5)" d="M-3.250000000003994,-7.509999999998271L-3.249999999996006,7.510000000001728L6.5,-3.457077397380148e-12Z" style="opacity: 1; stroke-width: 0px; fill: rgb(242, 143, 56); fill-opacity: 1;"/><path class="point" transform="translate(668.2,104.5)" d="M-3.25000000000234,-7.509999999998987L-3.24999999999766,7.510000000001012L6.5,-2.025333784823546e-12Z" style="opacity: 1; stroke-width: 0px; fill: rgb(230, 87, 43); fill-opacity: 1;"/><path class="point" transform="translate(761.8,104.5)" d="M-3.2500000000000004,-7.51L-3.2499999999999996,7.51L6.5,-3.9801020972288977e-16Z" style="opacity: 1; stroke-width: 0px; fill: rgb(217, 30, 30); fill-opacity: 1;"/></g><g class="text"/></g><g class="trace scatter trace042aa4" style="stroke-miterlimit: 2; opacity: 1;"><g class="fills"/><g class="errorbars"/><g class="lines"><path class="js-line" d="M13,111L793,111" style="vector-effect: none; fill: none; stroke: rgb(0, 0, 0); stroke-opacity: 1; stroke-width: 2px; opacity: 1;"/></g><g class="points"/><g class="text"/></g><g class="trace scatter trace78839a" style="stroke-miterlimit: 2; opacity: 1;"><g class="fills"/><g class="errorbars"/><g class="lines"><path class="js-line" d="M13,111L793,111" style="vector-effect: none; fill: none; stroke: rgb(100, 143, 255); stroke-opacity: 1; stroke-width: 2px; opacity: 1;"/></g><g class="points"/><g class="text"/></g><g class="trace scatter trace127222" style="stroke-miterlimit: 2; opacity: 1;"><g class="fills"/><g class="errorbars"/><g class="lines"/><g class="points"><path class="point" transform="translate(13,111)" d="M-3.2500000000000004,-7.51L-3.2499999999999996,7.51L6.5,-3.9801020972288977e-16Z" style="opacity: 1; stroke-width: 0px; fill: rgb(12, 51, 131); fill-opacity: 1;"/><path class="point" transform="translate(106.6,111)" d="M-3.250000018121372,-7.509999992157861L-3.249999981878628,7.510000007842138L6.5,-1.5684276831180152e-8Z" style="opacity: 1; stroke-width: 0px; fill: rgb(11, 94, 159); fill-opacity: 1;"/><path class="point" transform="translate(200.2,111)" d="M-3.2500000106877707,-7.509999995374799L-3.2499999893122293,7.5100000046252005L6.5,-9.2504006216029e-9Z" style="opacity: 1; stroke-width: 0px; fill: rgb(10, 136, 186); fill-opacity: 1;"/><path class="point" transform="translate(293.8,111)" d="M-3.249999956283916,-7.5100000189184115L-3.250000043716084,7.509999981081588L6.5,3.783682372027671e-8Z" style="opacity: 1; stroke-width: 0px; fill: rgb(126, 174, 121); fill-opacity: 1;"/><path class="point" transform="translate(387.4,111)" d="M-3.2500000000011178,-7.509999999999516L-3.2499999999988822,7.510000000000484L6.5,-9.674022646582344e-13Z" style="opacity: 1; stroke-width: 0px; fill: rgb(242, 211, 56); fill-opacity: 1;"/><path class="point" transform="translate(481,111)" d="M-3.2500000000002087,-7.509999999999909L-3.2499999999997913,7.51000000000009L6.5,-1.8080925171131083e-13Z" style="opacity: 1; stroke-width: 0px; fill: rgb(242, 177, 56); fill-opacity: 1;"/><path class="point" transform="translate(574.6,111)" d="M-3.2500000107122853,-7.509999995364191L-3.2499999892877147,7.510000004635809L6.5,-9.27161842689342e-9Z" style="opacity: 1; stroke-width: 0px; fill: rgb(242, 143, 56); fill-opacity: 1;"/><path class="point" transform="translate(668.2,111)" d="M-3.2500000039551407,-7.509999998288388L-3.2499999960448593,7.510000001711612L6.5,-3.42322432455658e-9Z" style="opacity: 1; stroke-width: 0px; fill: rgb(230, 87, 43); fill-opacity: 1;"/><path class="point" transform="translate(761.8,111)" d="M-3.2500000000002087,-7.509999999999909L-3.2499999999997913,7.51000000000009L6.5,-1.8080925171131083e-13Z" style="opacity: 1; stroke-width: 0px; fill: rgb(217, 30, 30); fill-opacity: 1;"/></g><g class="text"/></g><g class="trace scatter trace1c7693" style="stroke-miterlimit: 2; opacity: 1;"><g class="fills"/><g class="errorbars"/><g class="lines"><path class="js-line" d="M89.07,169.12L309.56,110.04L311.66,109.48L536.34,49.27L538.44,48.71L716.93,0.88" style="vector-effect: none; fill: none; stroke: rgb(220, 38, 127); stroke-opacity: 1; stroke-width: 2px; opacity: 1;"/></g><g class="points"/><g class="text"/></g><g class="trace scatter trace219f92" style="stroke-miterlimit: 2; opacity: 1;"><g class="fills"/><g class="errorbars"/><g class="lines"/><g class="points"><path class="point" transform="translate(89.07,169.12)" d="M-5.0829899641594025,-6.412941058847711L-1.1955279067195412,8.095264852014095L6.278517870878944,-1.6823237931663848Z" style="opacity: 1; stroke-width: 0px; fill: rgb(12, 51, 131); fill-opacity: 1;"/><path class="point" transform="translate(164.42,148.93)" d="M-5.0829899641594025,-6.412941058847711L-1.1955279067195412,8.095264852014095L6.278517870878944,-1.6823237931663848Z" style="opacity: 1; stroke-width: 0px; fill: rgb(11, 94, 159); fill-opacity: 1;"/><path class="point" transform="translate(239.76,128.74)" d="M-5.0829899641594025,-6.412941058847711L-1.1955279067195412,8.095264852014095L6.278517870878944,-1.6823237931663848Z" style="opacity: 1; stroke-width: 0px; fill: rgb(10, 136, 186); fill-opacity: 1;"/><path class="point" transform="translate(315.1,108.55)" d="M-5.0829899641594025,-6.412941058847711L-1.1955279067195412,8.095264852014095L6.278517870878944,-1.6823237931663848Z" style="opacity: 1; stroke-width: 0px; fill: rgb(126, 174, 121); fill-opacity: 1;"/><path class="point" transform="translate(390.44,88.36)" d="M-5.0829899641594025,-6.412941058847711L-1.1955279067195412,8.095264852014095L6.278517870878944,-1.6823237931663848Z" style="opacity: 1; stroke-width: 0px; fill: rgb(242, 211, 56); fill-opacity: 1;"/><path class="point" transform="translate(465.79,68.18)" d="M-5.0829899641594025,-6.412941058847711L-1.1955279067195412,8.095264852014095L6.278517870878944,-1.6823237931663848Z" style="opacity: 1; stroke-width: 0px; fill: rgb(242, 177, 56); fill-opacity: 1;"/><path class="point" transform="translate(541.13,47.99)" d="M-5.0829899641594025,-6.412941058847711L-1.1955279067195412,8.095264852014095L6.278517870878944,-1.6823237931663848Z" style="opacity: 1; stroke-width: 0px; fill: rgb(242, 143, 56); fill-opacity: 1;"/><path class="point" transform="translate(616.47,27.8)" d="M-5.0829899641594025,-6.412941058847711L-1.1955279067195412,8.095264852014095L6.278517870878944,-1.6823237931663848Z" style="opacity: 1; stroke-width: 0px; fill: rgb(230, 87, 43); fill-opacity: 1;"/><path class="point" transform="translate(691.81,7.61)" d="M-5.0829899641594025,-6.412941058847711L-1.1955279067195412,8.095264852014095L6.278517870878944,-1.6823237931663848Z" style="opacity: 1; stroke-width: 0px; fill: rgb(217, 30, 30); fill-opacity: 1;"/></g><g class="text"/></g></g></g></g><path class="xlines-above crisp" d="M0,0" style="fill: none;"/><path class="ylines-above crisp" d="M0,0" style="fill: none;"/><g class="overlines-above"/><g class="xaxislayer-above"><g class="xtick"><text text-anchor="middle" x="0" y="295" transform="translate(127,0)" style="font-family: 'Open Sans', verdana, arial, sans-serif; font-size: 24px; fill: rgb(0, 0, 0); fill-opacity: 1; white-space: pre; opacity: 1;">−1500</text></g><g class="xtick"><text text-anchor="middle" x="0" y="295" style="font-family: 'Open Sans', verdana, arial, sans-serif; font-size: 24px; fill: rgb(0, 0, 0); fill-opacity: 1; white-space: pre; opacity: 1;" transform="translate(257,0)">−1000</text></g><g class="xtick"><text text-anchor="middle" x="0" y="295" style="font-family: 'Open Sans', verdana, arial, sans-serif; font-size: 24px; fill: rgb(0, 0, 0); fill-opacity: 1; white-space: pre; opacity: 1;" transform="translate(387,0)">−500</text></g><g class="xtick"><text text-anchor="middle" x="0" y="295" style="font-family: 'Open Sans', verdana, arial, sans-serif; font-size: 24px; fill: rgb(0, 0, 0); fill-opacity: 1; white-space: pre; opacity: 1;" transform="translate(517,0)">0</text></g><g class="xtick"><text text-anchor="middle" x="0" y="295" style="font-family: 'Open Sans', verdana, arial, sans-serif; font-size: 24px; fill: rgb(0, 0, 0); fill-opacity: 1; white-space: pre; opacity: 1;" transform="translate(647,0)">500</text></g><g class="xtick"><text text-anchor="middle" x="0" y="295" style="font-family: 'Open Sans', verdana, arial, sans-serif; font-size: 24px; fill: rgb(0, 0, 0); fill-opacity: 1; white-space: pre; opacity: 1;" transform="translate(777,0)">1000</text></g><g class="xtick"><text text-anchor="middle" x="0" y="295" style="font-family: 'Open Sans', verdana, arial, sans-serif; font-size: 24px; fill: rgb(0, 0, 0); fill-opacity: 1; white-space: pre; opacity: 1;" transform="translate(907,0)">1500</text></g></g><g class="yaxislayer-above"><g class="ytick"><text text-anchor="end" x="113" y="8.399999999999999" transform="translate(0,237)" style="font-family: 'Open Sans', verdana, arial, sans-serif; font-size: 24px; fill: rgb(0, 0, 0); fill-opacity: 1; white-space: pre; opacity: 1;">−200</text></g><g class="ytick"><text text-anchor="end" x="113" y="8.399999999999999" style="font-family: 'Open Sans', verdana, arial, sans-serif; font-size: 24px; fill: rgb(0, 0, 0); fill-opacity: 1; white-space: pre; opacity: 1;" transform="translate(0,185)">0</text></g><g class="ytick"><text text-anchor="end" x="113" y="8.399999999999999" style="font-family: 'Open Sans', verdana, arial, sans-serif; font-size: 24px; fill: rgb(0, 0, 0); fill-opacity: 1; white-space: pre; opacity: 1;" transform="translate(0,133)">200</text></g></g><g class="overaxes-above"/></g></g><g class="polarlayer"/><g class="smithlayer"/><g class="ternarylayer"/><g class="geolayer"/><g class="funnelarealayer"/><g class="pielayer"/><g class="iciclelayer"/><g class="treemaplayer"/><g class="sunburstlayer"/><g class="glimages"/><defs id="topdefs-60b15f"><g class="clips"/><clipPath id="legend60b15f"><rect width="385" height="45" x="2" y="2"/></clipPath></defs><g class="layer-above"><g class="imagelayer"/><g class="shapelayer"/></g><g class="infolayer"><g class="legend" pointer-events="all" transform="translate(522.9399999999999,47.599999999999994)"><rect class="bg" shape-rendering="crispEdges" style="stroke: rgb(0, 0, 0); stroke-opacity: 1; fill: rgb(255, 255, 255); fill-opacity: 1; stroke-width: 2px;" width="387" height="47" x="1" y="1"/><g class="scrollbox" transform="" clip-path="url(#legend60b15f)"><g class="groups"><g class="traces" transform="translate(2,24.1)" style="opacity: 1;"><text class="legendtext" text-anchor="start" x="40" y="9.360000000000001" style="font-family: 'Open Sans', verdana, arial, sans-serif; font-size: 24px; fill: rgb(0, 0, 0); fill-opacity: 1; white-space: pre;">OS Ref</text><g class="layers" style="opacity: 1;"><g class="legendfill"/><g class="legendlines"><path class="js-line" d="M5,0h30" style="fill: none; stroke: rgb(0, 0, 0); stroke-opacity: 1; stroke-width: 2px;"/></g><g class="legendsymbols"><g class="legendpoints"/></g></g><rect class="legendtoggle" x="0" y="-17.1" width="126.640625" height="34.2" style="fill: rgb(0, 0, 0); fill-opacity: 0;"/></g><g class="traces" transform="translate(131.140625,24.1)" style="opacity: 1;"><text class="legendtext" text-anchor="start" x="40" y="9.360000000000001" style="font-family: 'Open Sans', verdana, arial, sans-serif; font-size: 24px; fill: rgb(0, 0, 0); fill-opacity: 1; white-space: pre;">OS Pos</text><g class="layers" style="opacity: 1;"><g class="legendfill"/><g class="legendlines"><path class="js-line" d="M5,0h30" style="fill: none; stroke: rgb(100, 143, 255); stroke-opacity: 1; stroke-width: 2px;"/></g><g class="legendsymbols"><g class="legendpoints"/></g></g><rect class="legendtoggle" x="0" y="-17.1" width="127.203125" height="34.2" style="fill: rgb(0, 0, 0); fill-opacity: 0;"/></g><g class="traces" transform="translate(260.84375,24.1)" style="opacity: 1;"><text class="legendtext" text-anchor="start" x="40" y="9.360000000000001" style="font-family: 'Open Sans', verdana, arial, sans-serif; font-size: 24px; fill: rgb(0, 0, 0); fill-opacity: 1; white-space: pre;">TS Pos</text><g class="layers" style="opacity: 1;"><g class="legendfill"/><g class="legendlines"><path class="js-line" d="M5,0h30" style="fill: none; stroke: rgb(220, 38, 127); stroke-opacity: 1; stroke-width: 2px;"/></g><g class="legendsymbols"><g class="legendpoints"/></g></g><rect class="legendtoggle" x="0" y="-17.1" width="122.953125" height="34.2" style="fill: rgb(0, 0, 0); fill-opacity: 0;"/></g></g></g><rect class="scrollbar" rx="20" ry="3" width="0" height="0" style="fill: rgb(128, 139, 164); fill-opacity: 1;" x="0" y="0"/></g><g class="g-gtitle"/><g class="g-xtitle"><text class="xtitle" x="517" y="334.8" text-anchor="middle" style="opacity: 1; font-family: 'Open Sans', verdana, arial, sans-serif; font-size: 29px; fill: rgb(0, 0, 0); fill-opacity: 1; white-space: pre;">East [m]</text></g><g class="g-ytitle" transform="translate(6.072265625,0)"><text class="ytitle" transform="rotate(-90,22.928124999999994,185)" x="22.928124999999994" y="185" text-anchor="middle" style="opacity: 1; font-family: 'Open Sans', verdana, arial, sans-serif; font-size: 29px; fill: rgb(0, 0, 0); fill-opacity: 1; white-space: pre;">North [m]</text></g></g></svg>