<svg class="main-svg" xmlns="http://www.w3.org/2000/svg" xmlns:xlink="http://www.w3.org/1999/xlink" width="1200" height="450" style="" viewBox="0 0 1200 450"><rect x="0" y="0" width="1200" height="450" style="fill: rgb(255, 255, 255); fill-opacity: 1;"/><defs id="defs-dcbb52"><g class="clips"><clipPath id="clipdcbb52xyplot" class="plotclip"><rect width="958" height="364"/></clipPath><clipPath class="axesclip" id="clipdcbb52x"><rect x="121" y="0" width="958" height="450"/></clipPath><clipPath class="axesclip" id="clipdcbb52y"><rect x="0" y="7" width="1200" height="364"/></clipPath><clipPath class="axesclip" id="clipdcbb52xy"><rect x="121" y="7" width="958" height="364"/></clipPath></g><g class="gradients"/><g class="patterns"/></defs><g class="bglayer"/><g class="layer-below"><g class="imagelayer"/><g class="shapelayer"/></g><g class="cartesianlayer"><g class="subplot xy"><g class="layer-subplot"><g class="shapelayer"/><g class="imagelayer"/></g><g class="minor-gridlayer"><g class="x"/><g class="y"/></g><g class="gridlayer"><g class="x"><path class="xgrid crisp" transform="translate(184.3,0)" d="M0,7v364" style="stroke: rgb(200, 200, 200); stroke-opacity: 1; stroke-width: 1px;"/><path class="xgrid crisp" transform="translate(322.86,0)" d="M0,7v364" style="stroke: rgb(200, 200, 200); stroke-opacity: 1; stroke-width: 1px;"/><path class="xgrid crisp" transform="translate(461.43,0)" d="M0,7v364" style="stroke: rgb(200, 200, 200); stroke-opacity: 1; stroke-width: 1px;"/><path class="xgrid crisp" transform="translate(738.57,0)" d="M0,7v364" style="stroke: rgb(200, 200, 200); stroke-opacity: 1; stroke-width: 1px;"/><path class="xgrid crisp" transform="translate(877.14,0)" d="M0,7v364" style="stroke: rgb(200, 200, 200); stroke-opacity: 1; stroke-width: 1px;"/><path class="xgrid crisp" transform="translate(1015.7,0)" d="M0,7v364" style="stroke: rgb(200, 200, 200); stroke-opacity: 1; stroke-width: 1px;"/></g><g class="y"><path class="ygrid crisp" transform="translate(0,355.28)" d="M121,0h958" style="stroke: rgb(200, 200, 200); stroke-opacity: 1; stroke-width: 1px;"/><path class="ygrid crisp" transform="translate(0,299.85)" d="M121,0h958" style="stroke: rgb(200, 200, 200); stroke-opacity: 1; stroke-width: 1px;"/><path class="ygrid crisp" transform="translate(0,244.43)" d="M121,0h958" style="stroke: rgb(200, 200, 200); stroke-opacity: 1; stroke-width: 1px;"/><path class="ygrid crisp" transform="translate(0,133.57)" d="M121,0h958" style="stroke: rgb(200, 200, 200); stroke-opacity: 1; stroke-width: 1px;"/><path class="ygrid crisp" transform="translate(0,78.15)" d="M121,0h958" style="stroke: rgb(200, 200, 200); stroke-opacity: 1; stroke-width: 1px;"/><path class="ygrid crisp" transform="translate(0,22.72)" d="M121,0h958" style="stroke: rgb(200, 200, 200); stroke-opacity: 1; stroke-width: 1px;"/></g></g><g class="zerolinelayer"><path class="xzl zl crisp" transform="translate(600,0)" d="M0,7v364" style="stroke: rgb(200, 200, 200); stroke-opacity: 1; stroke-width: 2px;"/><path class="yzl zl crisp" transform="translate(0,189)" d="M121,0h958" style="stroke: rgb(200, 200, 200); stroke-opacity: 1; stroke-width: 2px;"/></g><g class="layer-between"><g class="shapelayer"/><g class="imagelayer"/></g><path class="xlines-below"/><path class="ylines-below"/><g class="overlines-below"/><g class="xaxislayer-below"/><g class="yaxislayer-below"/><g class="overaxes-below"/><g class="overplot"><g class="xy" transform="translate(121,7)" clip-path="url(#clipdcbb52xyplot)"><g class="scatterlayer mlayer"><g class="trace scatter trace39c9f9" style="stroke-miterlimit: 2; opacity: 1;"><g class="fills"/><g class="errorbars"/><g class="lines"><path class="js-line" d="M63.3,154.29L894.7,154.29" style="vector-effect: none; fill: none; stroke: rgb(0, 0, 0); stroke-opacity: 1; stroke-width: 2px; opacity: 1;"/></g><g class="points"/><g class="text"/></g><g class="trace scatter trace82b63a" style="stroke-miterlimit: 2; opacity: 1;"><g class="fills"/><g class="errorbars"/><g class="lines"><path class="js-line" d="M63.3,154.29L894.7,154.29" style="vector-effect: none; fill: none; stroke: rgb(100, 143, 255); stroke-opacity: 1; stroke-width: 2px; opacity: 1;"/></g><g class="points"/><g class="text"/></g><g class="trace scatter traced8f39c" style="stroke-miterlimit: 2; opacity: 1;"><g class="fills"/><g class="errorbars"/><g class="lines"/><g class="points"><path class="point" transform="translate(63.3,154.29)" d="M0,0Z" style="opacity: 1; stroke-width: 0px; fill: rgb(12, 51, 131); fill-opacity: 1;"/><path class="point" transform="translate(146.44,154.29)" d="M-3.0000000000000004,-6.93L-2.9999999999999996,6.93L6,-3.6739403974420594e-16Z" style="opacity: 1; stroke-width: 0px; fill: rgb(11, 85, 153); fill-opacity: 1;"/><path class="point" transform="translate(229.58,154.29)" d="M-3.0000000000000004,-6.93L-2.9999999999999996,6.93L6,-3.6739403974420594e-16Z" style="opacity: 1; stroke-width: 0px; fill: rgb(10, 119, 175); fill-opacity: 1;"/><path class="point" transform="translate(312.72,154.29)" d="M-3.0000000000000004,-6.93L-2.9999999999999996,6.93L6,-3.6739403974420594e-16Z" style="opacity: 1; stroke-width: 0px; fill: rgb(56, 151, 160); fill-opacity: 1;"/><path class="point" transform="translate(395.86,154.29)" d="M-3.0000000000000004,-6.93L-2.9999999999999996,6.93L6,-3.6739403974420594e-16Z" style="opacity: 1; stroke-width: 0px; fill: rgb(149, 181, 108); fill-opacity: 1;"/><path class="point" transform="translate(479,154.29)" d="M-3.0000000000000004,-6.93L-2.9999999999999996,6.93L6,-3.6739403974420594e-16Z" style="opacity: 1; stroke-width: 0px; fill: rgb(242, 211, 56); fill-opacity: 1;"/><path class="point" transform="translate(562.14,154.29)" d="M-3.0000000000000004,-6.93L-2.9999999999999996,6.93L6,-3.6739403974420594e-16Z" style="opacity: 1; stroke-width: 0px; fill: rgb(242, 184, 56); fill-opacity: 1;"/><path class="point" transform="translate(645.28,154.29)" d="M-3.0000000000000004,-6.93L-2.9999999999999996,6.93L6,-3.6739403974420594e-16Z" style="opacity: 1; stroke-width: 0px; fill: rgb(242, 157, 56); fill-opacity: 1;"/><path class="point" transform="translate(728.42,154.29)" d="M-3.0000000000000004,-6.93L-2.9999999999999996,6.93L6,-3.6739403974420594e-16Z" style="opacity: 1; stroke-width: 0px; fill: rgb(237, 120, 51); fill-opacity: 1;"/><path class="point" transform="translate(811.56,154.29)" d="M-3.0000000000000004,-6.93L-2.9999999999999996,6.93L6,-3.6739403974420594e-16Z" style="opacity: 1; stroke-width: 0px; fill: rgb(227, 75, 40); fill-opacity: 1;"/><path class="point" transform="translate(894.7,154.29)" d="M-3.0000000000000004,-6.93L-2.9999999999999996,6.93L6,-3.6739403974420594e-16Z" style="opacity: 1; stroke-width: 0px; fill: rgb(217, 30, 30); fill-opacity: 1;"/></g><g class="text"/></g><g class="trace scatter trace575b07" style="stroke-miterlimit: 2; opacity: 1;"><g class="fills"/><g class="errorbars"/><g class="lines"><path class="js-line" d="M63.3,161.21L894.7,161.21" style="vector-effect: none; fill: none; stroke: rgb(0, 0, 0); stroke-opacity: 1; stroke-width: 2px; opacity: 1;"/></g><g class="points"/><g class="text"/></g><g class="trace scatter trace391b3d" style="stroke-miterlimit: 2; opacity: 1;"><g class="fills"/><g class="errorbars"/><g class="lines"><path class="js-line" d="M63.3,161.21L894.7,161.21" style="vector-effect: none; fill: none; stroke: rgb(100, 143, 255); stroke-opacity: 1; stroke-width: 2px; opacity: 1;"/></g><g class="points"/><g class="text"/></g><g class="trace scatter trace91fb3f" style="stroke-miterlimit: 2; opacity: 1;"><g class="fills"/><g class="errorbars"/><g class="lines"/><g class="points"><path class="point" transform="translate(63.3,161.21)" d="M0,0Z" style="opacity: 1; stroke-width: 0px; fill: rgb(12, 51, 131); fill-opacity: 1;"/><path class="point" transform="translate(146.44,161.21)" d="M-3.0000000000000004,-6.93L-2.9999999999999996,6.93L6,-3.6739403974420594e-16Z" style="opacity: 1; stroke-width: 0px; fill: rgb(11, 85, 153); fill-opacity: 1;"/><path class="point" transform="translate(229.58,161.21)" d="M-3.0000000000000004,-6.93L-2.9999999999999996,6.93L6,-3.6739403974420594e-16Z" style="opacity: 1; stroke-width: 0px; fill: rgb(10, 119, 175); fill-opacity: 1;"/><path class="point" transform="translate(312.72,161.21)" d="M-3.0000000000000004,-6.93L-2.9999999999999996,6.93L6,-3.6739403974420594e-16Z" style="opacity: 1; stroke-width: 0px; fill: rgb(56, 151, 160); fill-opacity: 1;"/><path class="point" transform="translate(395.86,161.21)" d="M-3.000689537384276,-6.92970145823271L-2.9993104329134894,6.930298473155128L5.9999999702977656,-0.0005970149224185792Z" style="opacity: 1; stroke-width: 0px; fill: rgb(149, 181, 108); fill-opacity: 1;"/><path class="point" transform="translate(479,161.21)" d="M-3.0000000000000004,-6.93L-2.9999999999999996,6.93L6,-3.6739403974420594e-16Z" style="opacity: 1; stroke-width: 0px; fill: rgb(242, 211, 56); fill-opacity: 1;"/><path class="point" transform="translate(562.14,161.21)" d="M-3.0000000000000004,-6.93L-2.9999999999999996,6.93L6,-3.6739403974420594e-16Z" style="opacity: 1; stroke-width: 0px; fill: rgb(242, 184, 56); fill-opacity: 1;"/><path class="point" transform="translate(645.28,161.21)" d="M-2.9993104329134903,-6.930298473155128L-3.0006895373842752,6.92970145823271L5.9999999702977656,0.0005970149224178445Z" style="opacity: 1; stroke-width: 0px; fill: rgb(242, 157, 56); fill-opacity: 1;"/><path class="point" transform="translate(728.42,161.21)" d="M-3.0000000000000004,-6.93L-2.9999999999999996,6.93L6,-3.6739403974420594e-16Z" style="opacity: 1; stroke-width: 0px; fill: rgb(237, 120, 51); fill-opacity: 1;"/><path class="point" transform="translate(811.56,161.21)" d="M-3.0000000000000004,-6.93L-2.9999999999999996,6.93L6,-3.6739403974420594e-16Z" style="opacity: 1; stroke-width: 0px; fill: rgb(227, 75, 40); fill-opacity: 1;"/><path class="point" transform="translate(894.7,161.21)" d="M-3.0000000000000004,-6.93L-2.9999999999999996,6.93L6,-3.6739403974420594e-16Z" style="opacity: 1; stroke-width: 0px; fill: rgb(217, 30, 30); fill-opacity: 1;"/></g><g class="text"/></g><g class="trace scatter tracea76460" style="stroke-miterlimit: 2; opacity: 1;"><g class="fills"/><g class="errorbars"/><g class="lines"><path class="js-line" d="M63.3,168.14L894.7,168.14" style="vector-effect: none; fill: none; stroke: rgb(0, 0, 0); stroke-opacity: 1; stroke-width: 2px; opacity: 1;"/></g><g class="points"/><g class="text"/></g><g class="trace scatter trace00a038" style="stroke-miterlimit: 2; opacity: 1;"><g class="fills"/><g class="errorbars"/><g class="lines"><path class="js-line" d="M63.3,168.14L894.7,168.14" style="vector-effect: none; fill: none; stroke: rgb(100, 143, 255); stroke-opacity: 1; stroke-width: 2px; opacity: 1;"/></g><g class="points"/><g class="text"/></g><g class="trace scatter trace33834d" style="stroke-miterlimit: 2; opacity: 1;"><g class="fills"/><g class="errorbars"/><g class="lines"/><g class="points"><path class="point" transform="translate(63.3,168.14)" d="M0,0Z" style="opacity: 1; stroke-width: 0px; fill: rgb(12, 51, 131); fill-opacity: 1;"/><path class="point" transform="translate(146.44,168.14)" d="M-3.0000000000000004,-6.93L-2.9999999999999996,6.93L6,-3.6739403974420594e-16Z" style="opacity: 1; stroke-width: 0px; fill: rgb(11, 85, 153); fill-opacity: 1;"/><path class="point" transform="translate(229.58,168.14)" d="M-3.0000000000000004,-6.93L-2.9999999999999996,6.93L6,-3.6739403974420594e-16Z" style="opacity: 1; stroke-width: 0px; fill: rgb(10, 119, 175); fill-opacity: 1;"/><path class="point" transform="translate(312.72,168.14)" d="M-3.0000000000000004,-6.93L-2.9999999999999996,6.93L6,-3.6739403974420594e-16Z" style="opacity: 1; stroke-width: 0px; fill: rgb(56, 151, 160); fill-opacity: 1;"/><path class="point" transform="translate(395.86,168.14)" d="M-3.0000000000000004,-6.93L-2.9999999999999996,6.93L6,-3.6739403974420594e-16Z" style="opacity: 1; stroke-width: 0px; fill: rgb(149, 181, 108); fill-opacity: 1;"/><path class="point" transform="translate(479,168.14)" d="M-3.0000000000000004,-6.93L-2.9999999999999996,6.93L6,-3.6739403974420594e-16Z" style="opacity: 1; stroke-width: 0px; fill: rgb(242, 211, 56); fill-opacity: 1;"/><path class="point" transform="translate(562.14,168.14)" d="M-3.0000000000000004,-6.93L-2.9999999999999996,6.93L6,-3.6739403974420594e-16Z" style="opacity: 1; stroke-width: 0px; fill: rgb(242, 184, 56); fill-opacity: 1;"/><path class="point" transform="translate(645.28,168.14)" d="M-3.0000000000000004,-6.93L-2.9999999999999996,6.93L6,-3.6739403974420594e-16Z" style="opacity: 1; stroke-width: 0px; fill: rgb(242, 157, 56); fill-opacity: 1;"/><path class="point" transform="translate(728.42,168.14)" d="M-3.0000000000000004,-6.93L-2.9999999999999996,6.93L6,-3.6739403974420594e-16Z" style="opacity: 1; stroke-width: 0px; fill: rgb(237, 120, 51); fill-opacity: 1;"/><path class="point" transform="translate(811.56,168.14)" d="M-3.0000000000000004,-6.93L-2.9999999999999996,6.93L6,-3.6739403974420594e-16Z" style="opacity: 1; stroke-width: 0px; fill: rgb(227, 75, 40); fill-opacity: 1;"/><path class="point" transform="translate(894.7,168.14)" d="M-3.0000000000000004,-6.93L-2.9999999999999996,6.93L6,-3.6739403974420594e-16Z" style="opacity: 1; stroke-width: 0px; fill: rgb(217, 30, 30); fill-opacity: 1;"/></g><g class="text"/></g><g class="trace scatter tracecd3bba" style="stroke-miterlimit: 2; opacity: 1;"><g class="fills"/><g class="errorbars"/><g class="lines"><path class="js-line" d="M63.3,175.07L894.7,175.07" style="vector-effect: none; fill: none; stroke: rgb(0, 0, 0); stroke-opacity: 1; stroke-width: 2px; opacity: 1;"/></g><g class="points"/><g class="text"/></g><g class="trace scatter trace52b08f" style="stroke-miterlimit: 2; opacity: 1;"><g class="fills"/><g class="errorbars"/><g class="lines"><path class="js-line" d="M63.3,175.07L290.33,174.39L293.67,174.28L330.3,172.14L333.63,171.86L376.89,168.74L380.22,168.6L413.59,168.01L416.92,168.01L577.15,168.74L580.48,168.92L610.39,171.36L613.7,171.73L643.58,174.56L646.91,174.77L673.54,175.62L676.88,175.63L893.9,175.08" style="vector-effect: none; fill: none; stroke: rgb(100, 143, 255); stroke-opacity: 1; stroke-width: 2px; opacity: 1;"/></g><g class="points"/><g class="text"/></g><g class="trace scatter trace3d1799" style="stroke-miterlimit: 2; opacity: 1;"><g class="fills"/><g class="errorbars"/><g class="lines"/><g class="points"><path class="point" transform="translate(63.3,175.07)" d="M0,0Z" style="opacity: 1; stroke-width: 0px; fill: rgb(12, 51, 131); fill-opacity: 1;"/><path class="point" transform="translate(146.44,175.07)" d="M-3.000689537384276,-6.92970145823271L-2.9993104329134894,6.930298473155128L5.9999999702977656,-0.0005970149224185792Z" style="opacity: 1; stroke-width: 0px; fill: rgb(11, 85, 153); fill-opacity: 1;"/><path class="point" transform="translate(229.58,174.99)" d="M-3.006204764720987,-6.927310655122148L-2.993792829399418,6.9326837872959866L5.999997594120405,-0.0053731321738392165Z" style="opacity: 1; stroke-width: 0px; fill: rgb(10, 119, 175); fill-opacity: 1;"/><path class="point" transform="translate(312.66,173.38)" d="M-3.134649538536247,-6.870143540753315L-2.86420815552679,6.987217732532301L5.998857694063037,-0.11707419177898551Z" style="opacity: 1; stroke-width: 0px; fill: rgb(56, 151, 160); fill-opacity: 1;"/><path class="point" transform="translate(395.56,168.15)" d="M-3.42957432836286,-6.727772285551469L-2.5585661075477955,7.104832121402145L5.988140435910656,-0.37705983585067726Z" style="opacity: 1; stroke-width: 0px; fill: rgb(149, 181, 108); fill-opacity: 1;"/><path class="point" transform="translate(478.7,168)" d="M-3.0130974105716053,-6.924315417021865L-2.98689186481613,6.935659809123803L5.999989275387735,-0.011344392101937361Z" style="opacity: 1; stroke-width: 0px; fill: rgb(242, 211, 56); fill-opacity: 1;"/><path class="point" transform="translate(561.83,168.18)" d="M-2.9848211881408733,-6.9365511945653004L-3.015164433167729,6.923415590657571L5.9999856213086025,0.013135603907729648Z" style="opacity: 1; stroke-width: 0px; fill: rgb(242, 184, 56); fill-opacity: 1;"/><path class="point" transform="translate(644.58,174.62)" d="M-2.452888047406973,-7.142005336520549L-3.528999983012194,6.676156013747725L5.981888030419167,0.46584932277282315Z" style="opacity: 1; stroke-width: 0px; fill: rgb(242, 157, 56); fill-opacity: 1;"/><path class="point" transform="translate(727.62,175.02)" d="M-2.9668280053000773,-6.944266094193623L-3.033103398209131,6.915575447912647L5.999931403509208,0.02869064628097558Z" style="opacity: 1; stroke-width: 0px; fill: rgb(237, 120, 51); fill-opacity: 1;"/><path class="point" transform="translate(810.76,175.08)" d="M-2.9944826333662147,-6.932385863356723L-3.005515465691643,6.927609745466928L5.999998099057858,0.0047761178897957005Z" style="opacity: 1; stroke-width: 0px; fill: rgb(227, 75, 40); fill-opacity: 1;"/><path class="point" transform="translate(893.9,175.08)" d="M-3.0000000000000004,-6.93L-2.9999999999999996,6.93L6,-3.6739403974420594e-16Z" style="opacity: 1; stroke-width: 0px; fill: rgb(217, 30, 30); fill-opacity: 1;"/></g><g class="text"/></g><g class="trace scatter trace95cd17" style="stroke-miterlimit: 2; opacity: 1;"><g class="fills"/><g class="errorbars"/><g class="lines"><path class="js-line" d="M63.3,182L894.7,182" style="vector-effect: none; fill: none; stroke: rgb(0, 0, 0); stroke-opacity: 1; stroke-width: 2px; opacity: 1;"/></g><g class="points"/><g class="text"/></g><g class="trace scatter tracefa3d95" style="stroke-miterlimit: 2; opacity: 1;"><g class="fills"/><g class="errorbars"/><g class="lines"><path class="js-line" d="M63.3,182L250.24,181.74L253.58,181.61L293.47,180.45L296.77,180.6L316.46,182.42L319.73,182.89L339.22,186.69L342.46,187.44L361.99,191.18L365.26,191.68L385,193.86L388.31,194.1L411.59,194.73L414.93,194.73L568.47,194.07L571.79,193.86L594.96,191.63L598.26,191.2L654.36,183.55L657.68,183.3L684.32,182.27L687.65,182.25L797.84,182L801.18,182L891.33,182" style="vector-effect: none; fill: none; stroke: rgb(100, 143, 255); stroke-opacity: 1; stroke-width: 2px; opacity: 1;"/></g><g class="points"/><g class="text"/></g><g class="trace scatter tracecebd67" style="stroke-miterlimit: 2; opacity: 1;"><g class="fills"/><g class="errorbars"/><g class="lines"/><g class="points"><path class="point" transform="translate(63.3,182)" d="M0,0Z" style="opacity: 1; stroke-width: 0px; fill: rgb(12, 51, 131); fill-opacity: 1;"/><path class="point" transform="translate(146.44,182.01)" d="M-2.9993104329134903,-6.930298473155128L-3.0006895373842752,6.92970145823271L5.9999999702977656,0.0005970149224178445Z" style="opacity: 1; stroke-width: 0px; fill: rgb(11, 85, 153); fill-opacity: 1;"/><path class="point" transform="translate(229.56,182.31)" d="M-2.974461322793568,-6.940999916381295L-3.025497999071415,6.918906117126816L5.999959321864983,0.022093799254479175Z" style="opacity: 1; stroke-width: 0px; fill: rgb(10, 119, 175); fill-opacity: 1;"/><path class="point" transform="translate(312.21,181.89)" d="M-3.036027340819656,-6.9142922982613L-2.963891394617998,6.945519980599681L5.999918735437654,-0.031227682338380126Z" style="opacity: 1; stroke-width: 0px; fill: rgb(56, 151, 160); fill-opacity: 1;"/><path class="point" transform="translate(393.61,194.39)" d="M-1.9125863181826033,-7.305266153638805L-4.017797082675415,6.393919502343215L5.930383400858018,0.9113466512955892Z" style="opacity: 1; stroke-width: 0px; fill: rgb(149, 181, 108); fill-opacity: 1;"/><path class="point" transform="translate(476.7,194.75)" d="M-2.9703043209463966,-6.942779864072255L-3.029640694742531,6.917093122169167L5.999945015688928,0.025686741903088367Z" style="opacity: 1; stroke-width: 0px; fill: rgb(242, 211, 56); fill-opacity: 1;"/><path class="point" transform="translate(559.82,194.47)" d="M-3.0234344643664675,-6.919808092691665L-2.976531179636693,6.940112544955636L5.999965644003161,-0.020304452263971474Z" style="opacity: 1; stroke-width: 0px; fill: rgb(242, 184, 56); fill-opacity: 1;"/><path class="point" transform="translate(642.1,184.7)" d="M-3.795483920234472,-6.528338365253562L-2.162738186099141,7.235154700377082L5.958222106333613,-0.70681633512352Z" style="opacity: 1; stroke-width: 0px; fill: rgb(242, 157, 56); fill-opacity: 1;"/><path class="point" transform="translate(725.05,182.04)" d="M-3.2209066197988956,-6.830128882132141L-2.7760013638264076,7.022728560042309L5.996907983625303,-0.19259967791016805Z" style="opacity: 1; stroke-width: 0px; fill: rgb(237, 120, 51); fill-opacity: 1;"/><path class="point" transform="translate(808.19,182)" d="M-3.0034473894894704,-6.928506605219401L-2.99655186795479,6.9314916794768395L5.99999925744426,-0.0029850742574374037Z" style="opacity: 1; stroke-width: 0px; fill: rgb(227, 75, 40); fill-opacity: 1;"/><path class="point" transform="translate(891.33,182)" d="M-3.0000000000000004,-6.93L-2.9999999999999996,6.93L6,-3.6739403974420594e-16Z" style="opacity: 1; stroke-width: 0px; fill: rgb(217, 30, 30); fill-opacity: 1;"/></g><g class="text"/></g><g class="trace scatter trace8ffd28" style="stroke-miterlimit: 2; opacity: 1;"><g class="fills"/><g class="errorbars"/><g class="lines"><path class="js-line" d="M63.3,188.93L894.7,188.93" style="vector-effect: none; fill: none; stroke: rgb(0, 0, 0); stroke-opacity: 1; stroke-width: 2px; opacity: 1;"/></g><g class="points"/><g class="text"/></g><g class="trace scatter tracebf2d3b" style="stroke-miterlimit: 2; opacity: 1;"><g class="fills"/><g class="errorbars"/><g class="lines"><path class="js-line" d="M63.3,188.93L266.96,188.42L270.3,188.32L296.92,188.22L300.23,188.31L326.66,189.9L329.95,190.2L376.08,194.37L379.4,194.54L409.34,195.26L412.68,195.26L576.26,194.64L579.59,194.49L609.54,192.45L612.86,192.14L646.12,189.55L649.45,189.39L679.46,188.67L682.8,188.68L846.41,188.93L849.74,188.93L893.15,188.93" style="vector-effect: none; fill: none; stroke: rgb(100, 143, 255); stroke-opacity: 1; stroke-width: 2px; opacity: 1;"/></g><g class="points"/><g class="text"/></g><g class="trace scatter trace880e2c" style="stroke-miterlimit: 2; opacity: 1;"><g class="fills"/><g class="errorbars"/><g class="lines"/><g class="points"><path class="point" transform="translate(63.3,188.93)" d="M0,0Z" style="opacity: 1; stroke-width: 0px; fill: rgb(12, 51, 131); fill-opacity: 1;"/><path class="point" transform="translate(146.44,188.93)" d="M-3.0000000000000004,-6.93L-2.9999999999999996,6.93L6,-3.6739403974420594e-16Z" style="opacity: 1; stroke-width: 0px; fill: rgb(11, 85, 153); fill-opacity: 1;"/><path class="point" transform="translate(229.57,189.1)" d="M-2.9862030421027477,-6.935956415040127L-3.013785077038504,6.924016140176163L5.999988119141252,0.01194027486396393Z" style="opacity: 1; stroke-width: 0px; fill: rgb(10, 119, 175); fill-opacity: 1;"/><path class="point" transform="translate(312.48,188.86)" d="M-3.0200422386603307,-6.921289249605704L-2.9799326371306165,6.938652713471382L5.999974875790947,-0.01736346386567726Z" style="opacity: 1; stroke-width: 0px; fill: rgb(56, 151, 160); fill-opacity: 1;"/><path class="point" transform="translate(394.67,195.1)" d="M-2.4670191847935916,-7.137136424495496L-3.5157791692027747,6.68312777323611L5.982798353996366,0.4540086512593864Z" style="opacity: 1; stroke-width: 0px; fill: rgb(149, 181, 108); fill-opacity: 1;"/><path class="point" transform="translate(477.79,195.27)" d="M-2.985508557535948,-6.936255376849934L-3.014478335997707,6.923714347212809L5.999986893533655,0.012541029637124973Z" style="opacity: 1; stroke-width: 0px; fill: rgb(242, 211, 56); fill-opacity: 1;"/><path class="point" transform="translate(560.92,195.12)" d="M-3.0124083428184663,-6.924615222242871L-2.9875820317651107,6.93536254304519L5.999990374583577,-0.010747320802318362Z" style="opacity: 1; stroke-width: 0px; fill: rgb(242, 184, 56); fill-opacity: 1;"/><path class="point" transform="translate(643.79,189.68)" d="M-3.447789601374962,-6.718455690458237L-2.5393072709387616,7.111738084586463L5.987096872313724,-0.3932823941282253Z" style="opacity: 1; stroke-width: 0px; fill: rgb(242, 157, 56); fill-opacity: 1;"/><path class="point" transform="translate(726.87,188.93)" d="M-3.061986168796405,-6.9028357000655545L-2.9377728741315274,6.956607689097969L5.999759042927932,-0.05377198903241451Z" style="opacity: 1; stroke-width: 0px; fill: rgb(237, 120, 51); fill-opacity: 1;"/><path class="point" transform="translate(810.01,188.93)" d="M-3.000689537384276,-6.92970145823271L-2.9993104329134894,6.930298473155128L5.9999999702977656,-0.0005970149224185792Z" style="opacity: 1; stroke-width: 0px; fill: rgb(227, 75, 40); fill-opacity: 1;"/><path class="point" transform="translate(893.15,188.93)" d="M-3.0000000000000004,-6.93L-2.9999999999999996,6.93L6,-3.6739403974420594e-16Z" style="opacity: 1; stroke-width: 0px; fill: rgb(217, 30, 30); fill-opacity: 1;"/></g><g class="text"/></g><g class="trace scatter trace3c1340" style="stroke-miterlimit: 2; opacity: 1;"><g class="fills"/><g class="errorbars"/><g class="lines"><path class="js-line" d="M63.3,195.86L894.7,195.86" style="vector-effect: none; fill: none; stroke: rgb(0, 0, 0); stroke-opacity: 1; stroke-width: 2px; opacity: 1;"/></g><g class="points"/><g class="text"/></g><g class="trace scatter trace2f4b48" style="stroke-miterlimit: 2; opacity: 1;"><g class="fills"/><g class="errorbars"/><g class="lines"><path class="js-line" d="M63.3,195.86L894.7,195.86" style="vector-effect: none; fill: none; stroke: rgb(100, 143, 255); stroke-opacity: 1; stroke-width: 2px; opacity: 1;"/></g><g class="points"/><g class="text"/></g><g class="trace scatter trace965290" style="stroke-miterlimit: 2; opacity: 1;"><g class="fills"/><g class="errorbars"/><g class="lines"/><g class="points"><path class="point" transform="translate(63.3,195.86)" d="M0,0Z" style="opacity: 1; stroke-width: 0px; fill: rgb(12, 51, 131); fill-opacity: 1;"/><path class="point" transform="translate(146.44,195.86)" d="M-3.0000000000000004,-6.93L-2.9999999999999996,6.93L6,-3.6739403974420594e-16Z" style="opacity: 1; stroke-width: 0px; fill: rgb(11, 85, 153); fill-opacity: 1;"/><path class="point" transform="translate(229.58,195.86)" d="M-3.0000000000000004,-6.93L-2.9999999999999996,6.93L6,-3.6739403974420594e-16Z" style="opacity: 1; stroke-width: 0px; fill: rgb(10, 119, 175); fill-opacity: 1;"/><path class="point" transform="translate(312.72,195.86)" d="M-3.0000000000000004,-6.93L-2.9999999999999996,6.93L6,-3.6739403974420594e-16Z" style="opacity: 1; stroke-width: 0px; fill: rgb(56, 151, 160); fill-opacity: 1;"/><path class="point" transform="translate(395.86,195.86)" d="M-3.0000000000000004,-6.93L-2.9999999999999996,6.93L6,-3.6739403974420594e-16Z" style="opacity: 1; stroke-width: 0px; fill: rgb(149, 181, 108); fill-opacity: 1;"/><path class="point" transform="translate(479,195.86)" d="M-3.0000000000000004,-6.93L-2.9999999999999996,6.93L6,-3.6739403974420594e-16Z" style="opacity: 1; stroke-width: 0px; fill: rgb(242, 211, 56); fill-opacity: 1;"/><path class="point" transform="translate(562.14,195.86)" d="M-3.0000000000000004,-6.93L-2.9999999999999996,6.93L6,-3.6739403974420594e-16Z" style="opacity: 1; stroke-width: 0px; fill: rgb(242, 184, 56); fill-opacity: 1;"/><path class="point" transform="translate(645.28,195.86)" d="M-3.0000000000000004,-6.93L-2.9999999999999996,6.93L6,-3.6739403974420594e-16Z" style="opacity: 1; stroke-width: 0px; fill: rgb(242, 157, 56); fill-opacity: 1;"/><path class="point" transform="translate(728.42,195.86)" d="M-3.0000000000000004,-6.93L-2.9999999999999996,6.93L6,-3.6739403974420594e-16Z" style="opacity: 1; stroke-width: 0px; fill: rgb(237, 120, 51); fill-opacity: 1;"/><path class="point" transform="translate(811.56,195.86)" d="M-3.0000000000000004,-6.93L-2.9999999999999996,6.93L6,-3.6739403974420594e-16Z" style="opacity: 1; stroke-width: 0px; fill: rgb(227, 75, 40); fill-opacity: 1;"/><path class="point" transform="translate(894.7,195.86)" d="M-3.0000000000000004,-6.93L-2.9999999999999996,6.93L6,-3.6739403974420594e-16Z" style="opacity: 1; stroke-width: 0px; fill: rgb(217, 30, 30); fill-opacity: 1;"/></g><g class="text"/></g><g class="trace scatter trace3b5c86" style="stroke-miterlimit: 2; opacity: 1;"><g class="fills"/><g class="errorbars"/><g class="lines"><path class="js-line" d="M63.3,202.79L894.7,202.79" style="vector-effect: none; fill: none; stroke: rgb(0, 0, 0); stroke-opacity: 1; stroke-width: 2px; opacity: 1;"/></g><g class="points"/><g class="text"/></g><g class="trace scatter trace5aa053" style="stroke-miterlimit: 2; opacity: 1;"><g class="fills"/><g class="errorbars"/><g class="lines"><path class="js-line" d="M63.3,202.79L894.7,202.79" style="vector-effect: none; fill: none; stroke: rgb(100, 143, 255); stroke-opacity: 1; stroke-width: 2px; opacity: 1;"/></g><g class="points"/><g class="text"/></g><g class="trace scatter traced1b597" style="stroke-miterlimit: 2; opacity: 1;"><g class="fills"/><g class="errorbars"/><g class="lines"/><g class="points"><path class="point" transform="translate(63.3,202.79)" d="M0,0Z" style="opacity: 1; stroke-width: 0px; fill: rgb(12, 51, 131); fill-opacity: 1;"/><path class="point" transform="translate(146.44,202.79)" d="M-3.0000000000000004,-6.93L-2.9999999999999996,6.93L6,-3.6739403974420594e-16Z" style="opacity: 1; stroke-width: 0px; fill: rgb(11, 85, 153); fill-opacity: 1;"/><path class="point" transform="translate(229.58,202.79)" d="M-3.0000000000000004,-6.93L-2.9999999999999996,6.93L6,-3.6739403974420594e-16Z" style="opacity: 1; stroke-width: 0px; fill: rgb(10, 119, 175); fill-opacity: 1;"/><path class="point" transform="translate(312.72,202.79)" d="M-3.0000000000000004,-6.93L-2.9999999999999996,6.93L6,-3.6739403974420594e-16Z" style="opacity: 1; stroke-width: 0px; fill: rgb(56, 151, 160); fill-opacity: 1;"/><path class="point" transform="translate(395.86,202.79)" d="M-3.0000000000000004,-6.93L-2.9999999999999996,6.93L6,-3.6739403974420594e-16Z" style="opacity: 1; stroke-width: 0px; fill: rgb(149, 181, 108); fill-opacity: 1;"/><path class="point" transform="translate(479,202.79)" d="M-3.0000000000000004,-6.93L-2.9999999999999996,6.93L6,-3.6739403974420594e-16Z" style="opacity: 1; stroke-width: 0px; fill: rgb(242, 211, 56); fill-opacity: 1;"/><path class="point" transform="translate(562.14,202.79)" d="M-3.0000000000000004,-6.93L-2.9999999999999996,6.93L6,-3.6739403974420594e-16Z" style="opacity: 1; stroke-width: 0px; fill: rgb(242, 184, 56); fill-opacity: 1;"/><path class="point" transform="translate(645.28,202.79)" d="M-3.0000000000000004,-6.93L-2.9999999999999996,6.93L6,-3.6739403974420594e-16Z" style="opacity: 1; stroke-width: 0px; fill: rgb(242, 157, 56); fill-opacity: 1;"/><path class="point" transform="translate(728.42,202.79)" d="M-3.0000000000000004,-6.93L-2.9999999999999996,6.93L6,-3.6739403974420594e-16Z" style="opacity: 1; stroke-width: 0px; fill: rgb(237, 120, 51); fill-opacity: 1;"/><path class="point" transform="translate(811.56,202.79)" d="M-3.0000000000000004,-6.93L-2.9999999999999996,6.93L6,-3.6739403974420594e-16Z" style="opacity: 1; stroke-width: 0px; fill: rgb(227, 75, 40); fill-opacity: 1;"/><path class="point" transform="translate(894.7,202.79)" d="M-3.0000000000000004,-6.93L-2.9999999999999996,6.93L6,-3.6739403974420594e-16Z" style="opacity: 1; stroke-width: 0px; fill: rgb(217, 30, 30); fill-opacity: 1;"/></g><g class="text"/></g><g class="trace scatter trace6c76e2" style="stroke-miterlimit: 2; opacity: 1;"><g class="fills"/><g class="errorbars"/><g class="lines"><path class="js-line" d="M63.3,209.71L894.7,209.71" style="vector-effect: none; fill: none; stroke: rgb(0, 0, 0); stroke-opacity: 1; stroke-width: 2px; opacity: 1;"/></g><g class="points"/><g class="text"/></g><g class="trace scatter trace789f13" style="stroke-miterlimit: 2; opacity: 1;"><g class="fills"/><g class="errorbars"/><g class="lines"><path class="js-line" d="M63.3,209.71L894.7,209.71" style="vector-effect: none; fill: none; stroke: rgb(100, 143, 255); stroke-opacity: 1; stroke-width: 2px; opacity: 1;"/></g><g class="points"/><g class="text"/></g><g class="trace scatter tracef65091" style="stroke-miterlimit: 2; opacity: 1;"><g class="fills"/><g class="errorbars"/><g class="lines"/><g class="points"><path class="point" transform="translate(63.3,209.71)" d="M0,0Z" style="opacity: 1; stroke-width: 0px; fill: rgb(12, 51, 131); fill-opacity: 1;"/><path class="point" transform="translate(146.44,209.71)" d="M-3.0000000000000004,-6.93L-2.9999999999999996,6.93L6,-3.6739403974420594e-16Z" style="opacity: 1; stroke-width: 0px; fill: rgb(11, 85, 153); fill-opacity: 1;"/><path class="point" transform="translate(229.58,209.71)" d="M-3.0000000000000004,-6.93L-2.9999999999999996,6.93L6,-3.6739403974420594e-16Z" style="opacity: 1; stroke-width: 0px; fill: rgb(10, 119, 175); fill-opacity: 1;"/><path class="point" transform="translate(312.72,209.71)" d="M-3.0000000000000004,-6.93L-2.9999999999999996,6.93L6,-3.6739403974420594e-16Z" style="opacity: 1; stroke-width: 0px; fill: rgb(56, 151, 160); fill-opacity: 1;"/><path class="point" transform="translate(395.86,209.71)" d="M-3.0000000000000004,-6.93L-2.9999999999999996,6.93L6,-3.6739403974420594e-16Z" style="opacity: 1; stroke-width: 0px; fill: rgb(149, 181, 108); fill-opacity: 1;"/><path class="point" transform="translate(479,209.71)" d="M-3.0000000000000004,-6.93L-2.9999999999999996,6.93L6,-3.6739403974420594e-16Z" style="opacity: 1; stroke-width: 0px; fill: rgb(242, 211, 56); fill-opacity: 1;"/><path class="point" transform="translate(562.14,209.71)" d="M-3.0000000000000004,-6.93L-2.9999999999999996,6.93L6,-3.6739403974420594e-16Z" style="opacity: 1; stroke-width: 0px; fill: rgb(242, 184, 56); fill-opacity: 1;"/><path class="point" transform="translate(645.28,209.71)" d="M-3.0000000000000004,-6.93L-2.9999999999999996,6.93L6,-3.6739403974420594e-16Z" style="opacity: 1; stroke-width: 0px; fill: rgb(242, 157, 56); fill-opacity: 1;"/><path class="point" transform="translate(728.42,209.71)" d="M-3.0000000000000004,-6.93L-2.9999999999999996,6.93L6,-3.6739403974420594e-16Z" style="opacity: 1; stroke-width: 0px; fill: rgb(237, 120, 51); fill-opacity: 1;"/><path class="point" transform="translate(811.56,209.71)" d="M-3.0000000000000004,-6.93L-2.9999999999999996,6.93L6,-3.6739403974420594e-16Z" style="opacity: 1; stroke-width: 0px; fill: rgb(227, 75, 40); fill-opacity: 1;"/><path class="point" transform="translate(894.7,209.71)" d="M-3.0000000000000004,-6.93L-2.9999999999999996,6.93L6,-3.6739403974420594e-16Z" style="opacity: 1; stroke-width: 0px; fill: rgb(217, 30, 30); fill-opacity: 1;"/></g><g class="text"/></g><g class="trace scatter trace7e1d1d" style="stroke-miterlimit: 2; opacity: 1;"><g class="fills"/><g class="errorbars"/><g class="lines"><path class="js-line" d="M211.31,253.73L637.04,139.65L639.19,139.08L746.69,110.27" style="vector-effect: none; fill: none; stroke: rgb(220, 38, 127); stroke-opacity: 1; stroke-width: 2px; opacity: 1;"/></g><g class="points"/><g class="text"/></g><g class="trace scatter trace594fe6" style="stroke-miterlimit: 2; opacity: 1;"><g class="fills"/><g class="errorbars"/><g class="lines"/><g class="points"><path class="point" transform="translate(211.31,253.73)" d="M0,0Z" style="opacity: 1; stroke-width: 0px; fill: rgb(12, 51, 131); fill-opacity: 1;"/><path class="point" transform="translate(264.85,239.38)" d="M-4.691250849848337,-5.917521902265952L-1.104341531611137,7.470296498905433L5.795592381459474,-1.5527745966394808Z" style="opacity: 1; stroke-width: 0px; fill: rgb(11, 85, 153); fill-opacity: 1;"/><path class="point" transform="translate(318.38,225.04)" d="M-4.691250849848341,-5.917521902265948L-1.1043415316111318,7.470296498905434L5.795592381459473,-1.5527745966394848Z" style="opacity: 1; stroke-width: 0px; fill: rgb(10, 119, 175); fill-opacity: 1;"/><path class="point" transform="translate(371.92,210.69)" d="M-4.691250849848337,-5.917521902265952L-1.104341531611137,7.470296498905433L5.795592381459474,-1.5527745966394808Z" style="opacity: 1; stroke-width: 0px; fill: rgb(56, 151, 160); fill-opacity: 1;"/><path class="point" transform="translate(425.46,196.35)" d="M-4.691479441875098,-5.917340673517397L-1.10405295114278,7.470339154353899L5.7955323930178775,-1.5529984808365012Z" style="opacity: 1; stroke-width: 0px; fill: rgb(149, 181, 108); fill-opacity: 1;"/><path class="point" transform="translate(479,182)" d="M-4.691250849848338,-5.917521902265951L-1.104341531611135,7.470296498905433L5.795592381459473,-1.5527745966394821Z" style="opacity: 1; stroke-width: 0px; fill: rgb(242, 211, 56); fill-opacity: 1;"/><path class="point" transform="translate(532.54,167.65)" d="M-4.691250849848338,-5.917521902265951L-1.104341531611135,7.470296498905433L5.795592381459473,-1.5527745966394821Z" style="opacity: 1; stroke-width: 0px; fill: rgb(242, 184, 56); fill-opacity: 1;"/><path class="point" transform="translate(586.08,153.31)" d="M-4.6914794418751,-5.917340673517395L-1.1040529511427764,7.470339154353899L5.795532393017877,-1.5529984808365038Z" style="opacity: 1; stroke-width: 0px; fill: rgb(242, 157, 56); fill-opacity: 1;"/><path class="point" transform="translate(639.62,138.96)" d="M-4.691250849848338,-5.917521902265951L-1.104341531611135,7.470296498905433L5.795592381459473,-1.5527745966394821Z" style="opacity: 1; stroke-width: 0px; fill: rgb(237, 120, 51); fill-opacity: 1;"/><path class="point" transform="translate(693.15,124.62)" d="M-4.691250849848338,-5.917521902265951L-1.104341531611135,7.470296498905433L5.795592381459473,-1.5527745966394821Z" style="opacity: 1; stroke-width: 0px; fill: rgb(227, 75, 40); fill-opacity: 1;"/><path class="point" transform="translate(746.69,110.27)" d="M-4.691250849848336,-5.917521902265953L-1.1043415316111382,7.470296498905432L5.795592381459474,-1.5527745966394795Z" style="opacity: 1; stroke-width: 0px; fill: rgb(217, 30, 30); fill-opacity: 1;"/></g><g class="text"/></g></g></g></g><path class="xlines-above crisp" d="M0,0" style="fill: none;"/><path class="ylines-above crisp" d="M0,0" style="fill: none;"/><g class="overlines-above"/><g class="xaxislayer-above"><g class="xtick"><text text-anchor="middle" x="0" y="400" transform="translate(184.3,0)" style="font-family: 'Open Sans', verdana, arial, sans-serif; font-size: 28px; fill: rgb(0, 0, 0); fill-opacity: 1; white-space: pre; opacity: 1;">−1500</text></g><g class="xtick"><text text-anchor="middle" x="0" y="400" style="font-family: 'Open Sans', verdana, arial, sans-serif; font-size: 28px; fill: rgb(0, 0, 0); fill-opacity: 1; white-space: pre; opacity: 1;" transform="translate(322.86,0)">−1000</text></g><g class="xtick"><text text-anchor="middle" x="0" y="400" style="font-family: 'Open Sans', verdana, arial, sans-serif; font-size: 28px; fill: rgb(0, 0, 0); fill-opacity: 1; white-space: pre; opacity: 1;" transform="translate(461.43,0)">−500</text></g><g class="xtick"><text text-anchor="middle" x="0" y="400" style="font-family: 'Open Sans', verdana, arial, sans-serif; font-size: 28px; fill: rgb(0, 0, 0); fill-opacity: 1; white-space: pre; opacity: 1;" transform="translate(600,0)">0</text></g><g class="xtick"><text text-anchor="middle" x="0" y="400" style="font-family: 'Open Sans', verdana, arial, sans-serif; font-size: 28px; fill: rgb(0, 0, 0); fill-opacity: 1; white-space: pre; opacity: 1;" transform="translate(738.57,0)">500</text></g><g class="xtick"><text text-anchor="middle" x="0" y="400" style="font-family: 'Open Sans', verdana, arial, sans-serif; font-size: 28px; fill: rgb(0, 0, 0); fill-opacity: 1; white-space: pre; opacity: 1;" transform="translate(877.14,0)">1000</text></g><g class="xtick"><text text-anchor="middle" x="0" y="400" style="font-family: 'Open Sans', verdana, arial, sans-serif; font-size: 28px; fill: rgb(0, 0, 0); fill-opacity: 1; white-space: pre; opacity: 1;" transform="translate(1015.7,0)">1500</text></g></g><g class="yaxislayer-above"><g class="ytick"><text text-anchor="end" x="120" y="9.799999999999999" transform="translate(0,355.28)" style="font-family: 'Open Sans', verdana, arial, sans-serif; font-size: 28px; fill: rgb(0, 0, 0); fill-opacity: 1; white-space: pre; opacity: 1;">−600</text></g><g class="ytick"><text text-anchor="end" x="120" y="9.799999999999999" style="font-family: 'Open Sans', verdana, arial, sans-serif; font-size: 28px; fill: rgb(0, 0, 0); fill-opacity: 1; white-space: pre; opacity: 1;" transform="translate(0,299.85)">−400</text></g><g class="ytick"><text text-anchor="end" x="120" y="9.799999999999999" style="font-family: 'Open Sans', verdana, arial, sans-serif; font-size: 28px; fill: rgb(0, 0, 0); fill-opacity: 1; white-space: pre; opacity: 1;" transform="translate(0,244.43)">−200</text></g><g class="ytick"><text text-anchor="end" x="120" y="9.799999999999999" style="font-family: 'Open Sans', verdana, arial, sans-serif; font-size: 28px; fill: rgb(0, 0, 0); fill-opacity: 1; white-space: pre; opacity: 1;" transform="translate(0,189)">0</text></g><g class="ytick"><text text-anchor="end" x="120" y="9.799999999999999" style="font-family: 'Open Sans', verdana, arial, sans-serif; font-size: 28px; fill: rgb(0, 0, 0); fill-opacity: 1; white-space: pre; opacity: 1;" transform="translate(0,133.57)">200</text></g><g class="ytick"><text text-anchor="end" x="120" y="9.799999999999999" style="font-family: 'Open Sans', verdana, arial, sans-serif; font-size: 28px; fill: rgb(0, 0, 0); fill-opacity: 1; white-space: pre; opacity: 1;" transform="translate(0,78.15)">400</text></g><g class="ytick"><text text-anchor="end" x="120" y="9.799999999999999" style="font-family: 'Open Sans', verdana, arial, sans-serif; font-size: 28px; fill: rgb(0, 0, 0); fill-opacity: 1; white-space: pre; opacity: 1;" transform="translate(0,22.72)">600</text></g></g><g class="overaxes-above"/></g></g><g class="polarlayer"/><g class="smithlayer"/><g class="ternarylayer"/><g class="geolayer"/><g class="funnelarealayer"/><g class="pielayer"/><g class="iciclelayer"/><g class="treemaplayer"/><g class="sunburstlayer"/><g class="glimages"/><defs id="topdefs-dcbb52"><g class="clips"/><clipPath id="legenddcbb52"><rect width="93" height="225" x="2" y="2"/></clipPath></defs><g class="layer-above"><g class="imagelayer"/><g class="shapelayer"/></g><g class="infolayer"><g class="legend" pointer-events="all" transform="translate(1098.1599999999999,7)"><rect class="bg" shape-rendering="crispEdges" width="95" height="227" x="1" y="1" style="stroke: rgb(0, 0, 0); stroke-opacity: 1; fill: rgb(255, 255, 255); fill-opacity: 1; stroke-width: 2px;"/><g class="scrollbox" transform="" clip-path="url(#legenddcbb52)"><g class="groups" transform=""><g class="traces" transform="translate(2,28.650000000000002)" style="opacity: 1;"><text class="legendtext" text-anchor="start" x="5" y="12.090000000000002" style="font-family: 'Open Sans', verdana, arial, sans-serif; font-size: 31px; fill: rgb(0, 0, 0); fill-opacity: 1; white-space: pre;">OS</text><g class="layers"><g class="legendfill"/><g class="legendlines"/><g class="legendsymbols"><g class="legendpoints"/></g></g><rect class="legendtoggle" x="0" y="-21.650000000000002" width="87.796875" height="43.300000000000004" style="fill: rgb(0, 0, 0); fill-opacity: 0;"/></g><g class="traces" transform="translate(2,70)" style="opacity: 1;"><text class="legendtext" text-anchor="start" x="40" y="10.92" style="font-family: 'Open Sans', verdana, arial, sans-serif; font-size: 28px; fill: rgb(0, 0, 0); fill-opacity: 1; white-space: pre;">Ref</text><g class="layers" style="opacity: 1;"><g class="legendfill"/><g class="legendlines"><path class="js-line" d="M5,0h30" style="fill: none; stroke: rgb(0, 0, 0); stroke-opacity: 1; stroke-width: 2px;"/></g><g class="legendsymbols"><g class="legendpoints"/></g></g><rect class="legendtoggle" x="0" y="-19.7" width="87.796875" height="39.4" style="fill: rgb(0, 0, 0); fill-opacity: 0;"/></g><g class="traces" transform="translate(2,109.4)" style="opacity: 1;"><text class="legendtext" text-anchor="start" x="40" y="10.92" style="font-family: 'Open Sans', verdana, arial, sans-serif; font-size: 28px; fill: rgb(0, 0, 0); fill-opacity: 1; white-space: pre;">Pos</text><g class="layers" style="opacity: 1;"><g class="legendfill"/><g class="legendlines"><path class="js-line" d="M5,0h30" style="fill: none; stroke: rgb(100, 143, 255); stroke-opacity: 1; stroke-width: 2px;"/></g><g class="legendsymbols"><g class="legendpoints"/></g></g><rect class="legendtoggle" x="0" y="-19.7" width="87.796875" height="39.4" style="fill: rgb(0, 0, 0); fill-opacity: 0;"/></g></g><g class="groups" transform="translate(0,10)"><g class="traces" transform="translate(2,150.75)" style="opacity: 1;"><text class="legendtext" text-anchor="start" x="5" y="12.090000000000002" style="font-family: 'Open Sans', verdana, arial, sans-serif; font-size: 31px; fill: rgb(0, 0, 0); fill-opacity: 1; white-space: pre;">TS</text><g class="layers"><g class="legendfill"/><g class="legendlines"/><g class="legendsymbols"><g class="legendpoints"/></g></g><rect class="legendtoggle" x="0" y="-21.650000000000002" width="87.796875" height="43.300000000000004" style="fill: rgb(0, 0, 0); fill-opacity: 0;"/></g><g class="traces" transform="translate(2,192.1)" style="opacity: 1;"><text class="legendtext" text-anchor="start" x="40" y="10.92" style="font-family: 'Open Sans', verdana, arial, sans-serif; font-size: 28px; fill: rgb(0, 0, 0); fill-opacity: 1; white-space: pre;">Pos</text><g class="layers" style="opacity: 1;"><g class="legendfill"/><g class="legendlines"><path class="js-line" d="M5,0h30" style="fill: none; stroke: rgb(220, 38, 127); stroke-opacity: 1; stroke-width: 2px;"/></g><g class="legendsymbols"><g class="legendpoints"/></g></g><rect class="legendtoggle" x="0" y="-19.7" width="87.796875" height="39.4" style="fill: rgb(0, 0, 0); fill-opacity: 0;"/></g></g></g><rect class="scrollbar" rx="20" ry="3" width="0" height="0" x="0" y="0" style="fill: rgb(128, 139, 164); fill-opacity: 1;"/></g><g class="g-gtitle"/><g class="g-xtitle" transform="translate(0,-1.3000000000000114)"><text class="xtitle" x="600" y="444.3" text-anchor="middle" style="opacity: 1; font-family: 'Open Sans', verdana, arial, sans-serif; font-size: 34px; fill: rgb(0, 0, 0); fill-opacity: 1; white-space: pre;">East [m]</text></g><g class="g-ytitle" transform="translate(16.728515625,0)"><text class="ytitle" transform="rotate(-90,17.271874999999994,189)" x="17.271874999999994" y="189" text-anchor="middle" style="opacity: 1; font-family: 'Open Sans', verdana, arial, sans-serif; font-size: 34px; fill: rgb(0, 0, 0); fill-opacity: 1; white-space: pre;">North [m]</text></g></g></svg>