<svg class="main-svg" xmlns="http://www.w3.org/2000/svg" xmlns:xlink="http://www.w3.org/1999/xlink" width="1200" height="450" style="" viewBox="0 0 1200 450"><rect x="0" y="0" width="1200" height="450" style="fill: rgb(255, 255, 255); fill-opacity: 1;"/><defs id="defs-13b8b4"><g class="clips"><clipPath id="clip13b8b4xyplot" class="plotclip"><rect width="958" height="364"/></clipPath><clipPath class="axesclip" id="clip13b8b4x"><rect x="121" y="0" width="958" height="450"/></clipPath><clipPath class="axesclip" id="clip13b8b4y"><rect x="0" y="7" width="1200" height="364"/></clipPath><clipPath class="axesclip" id="clip13b8b4xy"><rect x="121" y="7" width="958" height="364"/></clipPath></g><g class="gradients"/><g class="patterns"/></defs><g class="bglayer"/><g class="layer-below"><g class="imagelayer"/><g class="shapelayer"/></g><g class="cartesianlayer"><g class="subplot xy"><g class="layer-subplot"><g class="shapelayer"/><g class="imagelayer"/></g><g class="minor-gridlayer"><g class="x"/><g class="y"/></g><g class="gridlayer"><g class="x"><path class="xgrid crisp" transform="translate(184.3,0)" d="M0,7v364" style="stroke: rgb(200, 200, 200); stroke-opacity: 1; stroke-width: 1px;"/><path class="xgrid crisp" transform="translate(322.86,0)" d="M0,7v364" style="stroke: rgb(200, 200, 200); stroke-opacity: 1; stroke-width: 1px;"/><path class="xgrid crisp" transform="translate(461.43,0)" d="M0,7v364" style="stroke: rgb(200, 200, 200); stroke-opacity: 1; stroke-width: 1px;"/><path class="xgrid crisp" transform="translate(738.57,0)" d="M0,7v364" style="stroke: rgb(200, 200, 200); stroke-opacity: 1; stroke-width: 1px;"/><path class="xgrid crisp" transform="translate(877.14,0)" d="M0,7v364" style="stroke: rgb(200, 200, 200); stroke-opacity: 1; stroke-width: 1px;"/><path class="xgrid crisp" transform="translate(1015.7,0)" d="M0,7v364" style="stroke: rgb(200, 200, 200); stroke-opacity: 1; stroke-width: 1px;"/></g><g class="y"><path class="ygrid crisp" transform="translate(0,355.28)" d="M121,0h958" style="stroke: rgb(200, 200, 200); stroke-opacity: 1; stroke-width: 1px;"/><path class="ygrid crisp" transform="translate(0,299.85)" d="M121,0h958" style="stroke: rgb(200, 200, 200); stroke-opacity: 1; stroke-width: 1px;"/><path class="ygrid crisp" transform="translate(0,244.43)" d="M121,0h958" style="stroke: rgb(200, 200, 200); stroke-opacity: 1; stroke-width: 1px;"/><path class="ygrid crisp" transform="translate(0,133.57)" d="M121,0h958" style="stroke: rgb(200, 200, 200); stroke-opacity: 1; stroke-width: 1px;"/><path class="ygrid crisp" transform="translate(0,78.15)" d="M121,0h958" style="stroke: rgb(200, 200, 200); stroke-opacity: 1; stroke-width: 1px;"/><path class="ygrid crisp" transform="translate(0,22.72)" d="M121,0h958" style="stroke: rgb(200, 200, 200); stroke-opacity: 1; stroke-width: 1px;"/></g></g><g class="zerolinelayer"><path class="xzl zl crisp" transform="translate(600,0)" d="M0,7v364" style="stroke: rgb(200, 200, 200); stroke-opacity: 1; stroke-width: 2px;"/><path class="yzl zl crisp" transform="translate(0,189)" d="M121,0h958" style="stroke: rgb(200, 200, 200); stroke-opacity: 1; stroke-width: 2px;"/></g><g class="layer-between"><g class="shapelayer"/><g class="imagelayer"/></g><path class="xlines-below"/><path class="ylines-below"/><g class="overlines-below"/><g class="xaxislayer-below"/><g class="yaxislayer-below"/><g class="overaxes-below"/><g class="overplot"><g class="xy" transform="translate(121,7)" clip-path="url(#clip13b8b4xyplot)"><g class="scatterlayer mlayer"><g class="trace scatter trace80baa4" style="stroke-miterlimit: 2; opacity: 1;"><g class="fills"/><g class="errorbars"/><g class="lines"><path class="js-line" d="M63.3,154.29L894.7,154.29" style="vector-effect: none; fill: none; stroke: rgb(0, 0, 0); stroke-opacity: 1; stroke-width: 2px; opacity: 1;"/></g><g class="points"/><g class="text"/></g><g class="trace scatter trace734d58" style="stroke-miterlimit: 2; opacity: 1;"><g class="fills"/><g class="errorbars"/><g class="lines"><path class="js-line" d="M63.3,154.29L894.7,154.29" style="vector-effect: none; fill: none; stroke: rgb(100, 143, 255); stroke-opacity: 1; stroke-width: 2px; opacity: 1;"/></g><g class="points"/><g class="text"/></g><g class="trace scatter trace7c2c40" style="stroke-miterlimit: 2; opacity: 1;"><g class="fills"/><g class="errorbars"/><g class="lines"/><g class="points"><path class="point" transform="translate(63.3,154.29)" d="M-4.000000000000001,-9.24L-3.9999999999999996,9.24L8,-4.898587196589413e-16Z" style="opacity: 1; stroke-width: 0px; fill: rgb(12, 51, 131); fill-opacity: 1;"/><path class="point" transform="translate(163.06,154.29)" d="M-4.000000000000001,-9.24L-3.9999999999999996,9.24L8,-4.898587196589413e-16Z" style="opacity: 1; stroke-width: 0px; fill: rgb(11, 94, 159); fill-opacity: 1;"/><path class="point" transform="translate(262.83,154.29)" d="M-4.0000000000112585,-9.239999999995126L-3.999999999988742,9.240000000004875L8,-9.747359836508833e-12Z" style="opacity: 1; stroke-width: 0px; fill: rgb(10, 136, 186); fill-opacity: 1;"/><path class="point" transform="translate(362.6,154.29)" d="M-4.000000000000001,-9.24L-3.9999999999999996,9.24L8,-4.898587196589413e-16Z" style="opacity: 1; stroke-width: 0px; fill: rgb(126, 174, 121); fill-opacity: 1;"/><path class="point" transform="translate(462.37,154.29)" d="M-4.000000000000001,-9.24L-3.9999999999999996,9.24L8,-4.898587196589413e-16Z" style="opacity: 1; stroke-width: 0px; fill: rgb(242, 211, 56); fill-opacity: 1;"/><path class="point" transform="translate(562.14,154.29)" d="M-4.000000000000001,-9.24L-3.9999999999999996,9.24L8,-4.898587196589413e-16Z" style="opacity: 1; stroke-width: 0px; fill: rgb(242, 177, 56); fill-opacity: 1;"/><path class="point" transform="translate(661.91,154.29)" d="M-3.9999999999918248,-9.240000000003539L-4.000000000008176,9.239999999996462L8,7.078292146290339e-12Z" style="opacity: 1; stroke-width: 0px; fill: rgb(242, 143, 56); fill-opacity: 1;"/><path class="point" transform="translate(761.68,154.29)" d="M-4.000000000000001,-9.24L-3.9999999999999996,9.24L8,-4.898587196589413e-16Z" style="opacity: 1; stroke-width: 0px; fill: rgb(230, 87, 43); fill-opacity: 1;"/><path class="point" transform="translate(861.45,154.29)" d="M-4.000000000000001,-9.24L-3.9999999999999996,9.24L8,-4.898587196589413e-16Z" style="opacity: 1; stroke-width: 0px; fill: rgb(217, 30, 30); fill-opacity: 1;"/></g><g class="text"/></g><g class="trace scatter traceb6fc51" style="stroke-miterlimit: 2; opacity: 1;"><g class="fills"/><g class="errorbars"/><g class="lines"><path class="js-line" d="M63.3,161.21L894.7,161.21" style="vector-effect: none; fill: none; stroke: rgb(0, 0, 0); stroke-opacity: 1; stroke-width: 2px; opacity: 1;"/></g><g class="points"/><g class="text"/></g><g class="trace scatter traced7ebd3" style="stroke-miterlimit: 2; opacity: 1;"><g class="fills"/><g class="errorbars"/><g class="lines"><path class="js-line" d="M63.3,161.21L894.7,161.21" style="vector-effect: none; fill: none; stroke: rgb(100, 143, 255); stroke-opacity: 1; stroke-width: 2px; opacity: 1;"/></g><g class="points"/><g class="text"/></g><g class="trace scatter trace7d7d30" style="stroke-miterlimit: 2; opacity: 1;"><g class="fills"/><g class="errorbars"/><g class="lines"/><g class="points"><path class="point" transform="translate(63.3,161.21)" d="M-4.000000000000001,-9.24L-3.9999999999999996,9.24L8,-4.898587196589413e-16Z" style="opacity: 1; stroke-width: 0px; fill: rgb(12, 51, 131); fill-opacity: 1;"/><path class="point" transform="translate(163.06,161.21)" d="M-4.000000000000001,-9.24L-3.9999999999999996,9.24L8,-4.898587196589413e-16Z" style="opacity: 1; stroke-width: 0px; fill: rgb(11, 94, 159); fill-opacity: 1;"/><path class="point" transform="translate(262.83,161.21)" d="M-4.000000000034744,-9.23999999998496L-3.9999999999652562,9.24000000001504L8,-3.00813165771235e-11Z" style="opacity: 1; stroke-width: 0px; fill: rgb(10, 136, 186); fill-opacity: 1;"/><path class="point" transform="translate(362.6,161.21)" d="M-4.000000000000001,-9.24L-3.9999999999999996,9.24L8,-4.898587196589413e-16Z" style="opacity: 1; stroke-width: 0px; fill: rgb(126, 174, 121); fill-opacity: 1;"/><path class="point" transform="translate(462.37,161.21)" d="M-4.000000000000001,-9.24L-3.9999999999999996,9.24L8,-4.898587196589413e-16Z" style="opacity: 1; stroke-width: 0px; fill: rgb(242, 211, 56); fill-opacity: 1;"/><path class="point" transform="translate(562.14,161.21)" d="M-4.000000000000001,-9.24L-3.9999999999999996,9.24L8,-4.898587196589413e-16Z" style="opacity: 1; stroke-width: 0px; fill: rgb(242, 177, 56); fill-opacity: 1;"/><path class="point" transform="translate(661.91,161.21)" d="M-3.999999999974738,-9.240000000010935L-4.000000000025262,9.239999999989065L8,2.1871791904815624e-11Z" style="opacity: 1; stroke-width: 0px; fill: rgb(242, 143, 56); fill-opacity: 1;"/><path class="point" transform="translate(761.68,161.21)" d="M-4.000000000000001,-9.24L-3.9999999999999996,9.24L8,-4.898587196589413e-16Z" style="opacity: 1; stroke-width: 0px; fill: rgb(230, 87, 43); fill-opacity: 1;"/><path class="point" transform="translate(861.45,161.21)" d="M-4.000000000000001,-9.24L-3.9999999999999996,9.24L8,-4.898587196589413e-16Z" style="opacity: 1; stroke-width: 0px; fill: rgb(217, 30, 30); fill-opacity: 1;"/></g><g class="text"/></g><g class="trace scatter tracec33024" style="stroke-miterlimit: 2; opacity: 1;"><g class="fills"/><g class="errorbars"/><g class="lines"><path class="js-line" d="M63.3,168.14L894.7,168.14" style="vector-effect: none; fill: none; stroke: rgb(0, 0, 0); stroke-opacity: 1; stroke-width: 2px; opacity: 1;"/></g><g class="points"/><g class="text"/></g><g class="trace scatter tracea8c517" style="stroke-miterlimit: 2; opacity: 1;"><g class="fills"/><g class="errorbars"/><g class="lines"><path class="js-line" d="M63.3,168.14L250.27,167.46L253.6,167.36L337.04,165.35L340.38,165.34L667.58,166.07L670.92,166.18L754.35,168.14L757.69,168.14L894.59,168.14" style="vector-effect: none; fill: none; stroke: rgb(100, 143, 255); stroke-opacity: 1; stroke-width: 2px; opacity: 1;"/></g><g class="points"/><g class="text"/></g><g class="trace scatter trace458470" style="stroke-miterlimit: 2; opacity: 1;"><g class="fills"/><g class="errorbars"/><g class="lines"/><g class="points"><path class="point" transform="translate(63.3,168.14)" d="M-4.000000000000001,-9.24L-3.9999999999999996,9.24L8,-4.898587196589413e-16Z" style="opacity: 1; stroke-width: 0px; fill: rgb(12, 51, 131); fill-opacity: 1;"/><path class="point" transform="translate(163.06,168.14)" d="M-4.000064302459137,-9.239972163171927L-3.9999356973471443,9.240027836380584L7.999999999806281,-0.00005567320865477895Z" style="opacity: 1; stroke-width: 0px; fill: rgb(11, 94, 159); fill-opacity: 1;"/><path class="point" transform="translate(262.81,167.06)" d="M-4.325797466969472,-9.09203367100895L-3.6691506073980884,9.376296380780113L7.99494807436756,-0.2842627097711616Z" style="opacity: 1; stroke-width: 0px; fill: rgb(10, 136, 186); fill-opacity: 1;"/><path class="point" transform="translate(362.55,165.34)" d="M-4.0000427633552205,-9.239981487607512L-3.9999572365591027,9.240018512194577L7.999999999914324,-0.00003702458706414077Z" style="opacity: 1; stroke-width: 0px; fill: rgb(126, 174, 121); fill-opacity: 1;"/><path class="point" transform="translate(462.32,165.34)" d="M-3.999998937668672,-9.240000459883618L-4.0000010623312745,9.239999540116258L7.999999999999947,9.197673604508213e-7Z" style="opacity: 1; stroke-width: 0px; fill: rgb(242, 211, 56); fill-opacity: 1;"/><path class="point" transform="translate(562.08,165.34)" d="M-3.999991368106176,-9.240003736745786L-4.000008631890334,9.23999626324615L7.9999999999965095,0.000007473499635543885Z" style="opacity: 1; stroke-width: 0px; fill: rgb(242, 177, 56); fill-opacity: 1;"/><path class="point" transform="translate(661.84,165.92)" d="M-3.760183872943355,-9.340161521175997L-4.237151076587084,9.133682212239318L7.9973349495304396,0.20647930893667935Z" style="opacity: 1; stroke-width: 0px; fill: rgb(242, 143, 56); fill-opacity: 1;"/><path class="point" transform="translate(761.57,168.14)" d="M-3.9998707054634877,-9.240055970586704L-4.000129293753311,9.239944027604098L7.999999999216798,0.00011194298260738075Z" style="opacity: 1; stroke-width: 0px; fill: rgb(230, 87, 43); fill-opacity: 1;"/><path class="point" transform="translate(861.34,168.14)" d="M-4.000004567929519,-9.239998022539993L-3.9999954320695035,9.240001977457748L7.999999999999022,-0.000003954917755556542Z" style="opacity: 1; stroke-width: 0px; fill: rgb(217, 30, 30); fill-opacity: 1;"/></g><g class="text"/></g><g class="trace scatter tracee94b75" style="stroke-miterlimit: 2; opacity: 1;"><g class="fills"/><g class="errorbars"/><g class="lines"><path class="js-line" d="M63.3,175.07L894.7,175.07" style="vector-effect: none; fill: none; stroke: rgb(0, 0, 0); stroke-opacity: 1; stroke-width: 2px; opacity: 1;"/></g><g class="points"/><g class="text"/></g><g class="trace scatter trace9d4a47" style="stroke-miterlimit: 2; opacity: 1;"><g class="fills"/><g class="errorbars"/><g class="lines"><path class="js-line" d="M63.3,175.07L226.86,174.38L230.18,174.19L256.73,171.86L260.04,171.47L303.08,166.44L306.4,166.19L333.03,165.08L336.37,165.04L593.47,165.02L596.81,165.02L643.51,165.76L646.83,165.95L673.38,168.32L676.69,168.72L719.75,173.58L723.07,173.81L749.71,174.82L753.05,174.85L893.29,174.87" style="vector-effect: none; fill: none; stroke: rgb(100, 143, 255); stroke-opacity: 1; stroke-width: 2px; opacity: 1;"/></g><g class="points"/><g class="text"/></g><g class="trace scatter traced80007" style="stroke-miterlimit: 2; opacity: 1;"><g class="fills"/><g class="errorbars"/><g class="lines"/><g class="points"><path class="point" transform="translate(63.3,175.07)" d="M-4.000000000000001,-9.24L-3.9999999999999996,9.24L8,-4.898587196589413e-16Z" style="opacity: 1; stroke-width: 0px; fill: rgb(12, 51, 131); fill-opacity: 1;"/><path class="point" transform="translate(163.06,175.07)" d="M-4.003265358580199,-9.238585739646073L-3.996734141794677,9.241413106219891L7.999999500374876,-0.002827366573819089Z" style="opacity: 1; stroke-width: 0px; fill: rgb(11, 94, 159); fill-opacity: 1;"/><path class="point" transform="translate(262.55,171.15)" d="M-5.140890203898369,-8.65730026691126L-2.7943550796241072,9.673116338025661L7.935245283522477,-1.0158160711143993Z" style="opacity: 1; stroke-width: 0px; fill: rgb(10, 136, 186); fill-opacity: 1;"/><path class="point" transform="translate(361.88,165.02)" d="M-4.00141799793346,-9.239386018876695L-3.998581907856735,9.240613763498656L7.999999905790196,-0.001227744621959195Z" style="opacity: 1; stroke-width: 0px; fill: rgb(126, 174, 121); fill-opacity: 1;"/><path class="point" transform="translate(461.65,165.02)" d="M-3.9999616507778453,-9.240016601300377L-4.000038349153253,9.239983398540462L7.999999999931099,0.00003320275991688706Z" style="opacity: 1; stroke-width: 0px; fill: rgb(242, 211, 56); fill-opacity: 1;"/><path class="point" transform="translate(561.42,165.02)" d="M-3.9997532069963726,-9.240106832884685L-4.000246790150135,9.23989316052375L7.9999999971465074,0.00021367236093614158Z" style="opacity: 1; stroke-width: 0px; fill: rgb(242, 177, 56); fill-opacity: 1;"/><path class="point" transform="translate(661.05,167.04)" d="M-3.145376413975203,-9.564737697104322L-4.82164446457349,8.839080532343159L7.967020878548693,0.7256571647611629Z" style="opacity: 1; stroke-width: 0px; fill: rgb(242, 143, 56); fill-opacity: 1;"/><path class="point" transform="translate(760.26,174.85)" d="M-3.9937345484245923,-9.242709795115273L-4.0062636129493985,9.237285957658647L7.999998161373991,0.0054238374566260685Z" style="opacity: 1; stroke-width: 0px; fill: rgb(230, 87, 43); fill-opacity: 1;"/><path class="point" transform="translate(860.03,174.87)" d="M-4.000218488157391,-9.239905413314782L-3.9997815096060703,9.240094581518816L7.999999997763462,-0.00018916820403509833Z" style="opacity: 1; stroke-width: 0px; fill: rgb(217, 30, 30); fill-opacity: 1;"/></g><g class="text"/></g><g class="trace scatter trace162f63" style="stroke-miterlimit: 2; opacity: 1;"><g class="fills"/><g class="errorbars"/><g class="lines"><path class="js-line" d="M63.3,182L894.7,182" style="vector-effect: none; fill: none; stroke: rgb(0, 0, 0); stroke-opacity: 1; stroke-width: 2px; opacity: 1;"/></g><g class="points"/><g class="text"/></g><g class="trace scatter tracebb1465" style="stroke-miterlimit: 2; opacity: 1;"><g class="fills"/><g class="errorbars"/><g class="lines"><path class="js-line" d="M63.3,182L220.17,182.65L223.48,182.87L246.56,185.43L249.85,185.94L272.7,190.49L275.96,191.2L295.6,194.67L298.88,195.13L322.01,197.29L325.33,197.45L352.01,197.76L355.35,197.76L635.76,197.12L639.07,196.89L662.17,194.35L665.46,193.85L688.36,189.45L691.62,188.8L714.61,185.17L717.9,184.78L741.09,183.06L744.42,182.94L787.82,182.75L791.16,182.74L891.33,182.74" style="vector-effect: none; fill: none; stroke: rgb(100, 143, 255); stroke-opacity: 1; stroke-width: 2px; opacity: 1;"/></g><g class="points"/><g class="text"/></g><g class="trace scatter trace198a94" style="stroke-miterlimit: 2; opacity: 1;"><g class="fills"/><g class="errorbars"/><g class="lines"/><g class="points"><path class="point" transform="translate(63.3,182)" d="M-4.000000000000001,-9.24L-3.9999999999999996,9.24L8,-4.898587196589413e-16Z" style="opacity: 1; stroke-width: 0px; fill: rgb(12, 51, 131); fill-opacity: 1;"/><path class="point" transform="translate(163.06,182)" d="M-3.9917321178420373,-9.24357477923927L-4.008264680783221,9.236417825585077L7.999996798625259,0.007156953654192145Z" style="opacity: 1; stroke-width: 0px; fill: rgb(11, 94, 159); fill-opacity: 1;"/><path class="point" transform="translate(262.15,188.18)" d="M-2.083638876276205,-9.850687744176568L-5.75674481884353,8.260598591550021L7.840383695119735,1.590089152626548Z" style="opacity: 1; stroke-width: 0px; fill: rgb(10, 136, 186); fill-opacity: 1;"/><path class="point" transform="translate(360.83,197.76)" d="M-3.9964555744158057,-9.241533576291374L-4.00354383709881,9.238465064307388L7.999999411514616,0.0030685119839848865Z" style="opacity: 1; stroke-width: 0px; fill: rgb(126, 174, 121); fill-opacity: 1;"/><path class="point" transform="translate(460.6,197.77)" d="M-4.000100682165956,-9.23995641399544L-3.9998993173591204,9.24004358490749L7.999999999525077,-0.00008717091205011351Z" style="opacity: 1; stroke-width: 0px; fill: rgb(242, 211, 56); fill-opacity: 1;"/><path class="point" transform="translate(560.36,197.77)" d="M-4.000875198757681,-9.239621076860548L-3.999124765354485,9.240378840238556L7.999999964112166,-0.0007577633780069617Z" style="opacity: 1; stroke-width: 0px; fill: rgb(242, 177, 56); fill-opacity: 1;"/><path class="point" transform="translate(659.81,194.69)" d="M-5.235271069619871,-8.600554448848122L-2.6883891776802136,9.703100722415073L7.923660247300084,-1.1025462735669513Z" style="opacity: 1; stroke-width: 0px; fill: rgb(242, 143, 56); fill-opacity: 1;"/><path class="point" transform="translate(758.3,182.8)" d="M-4.022802685454968,-9.230095262449694L-3.977172927844621,9.249848404272356L7.999975613299589,-0.019753141822660948Z" style="opacity: 1; stroke-width: 0px; fill: rgb(230, 87, 43); fill-opacity: 1;"/><path class="point" transform="translate(858.07,182.74)" d="M-3.999207783877545,-9.240342910378017L-4.0007921867197505,9.239657021701737L7.999999970597295,0.0006858886762793803Z" style="opacity: 1; stroke-width: 0px; fill: rgb(217, 30, 30); fill-opacity: 1;"/></g><g class="text"/></g><g class="trace scatter traced49d79" style="stroke-miterlimit: 2; opacity: 1;"><g class="fills"/><g class="errorbars"/><g class="lines"><path class="js-line" d="M63.3,188.93L894.7,188.93" style="vector-effect: none; fill: none; stroke: rgb(0, 0, 0); stroke-opacity: 1; stroke-width: 2px; opacity: 1;"/></g><g class="points"/><g class="text"/></g><g class="trace scatter trace3efdda" style="stroke-miterlimit: 2; opacity: 1;"><g class="fills"/><g class="errorbars"/><g class="lines"><path class="js-line" d="M63.3,188.93L226.86,189.57L230.19,189.74L256.76,191.92L260.07,192.29L306.48,197.23L309.81,197.43L336.46,198.31L339.8,198.32L643.6,197.63L646.93,197.45L673.49,195.23L676.81,194.86L719.91,190.3L723.24,190.09L749.89,189.14L753.22,189.11L893.46,189.09" style="vector-effect: none; fill: none; stroke: rgb(100, 143, 255); stroke-opacity: 1; stroke-width: 2px; opacity: 1;"/></g><g class="points"/><g class="text"/></g><g class="trace scatter tracecff2a9" style="stroke-miterlimit: 2; opacity: 1;"><g class="fills"/><g class="errorbars"/><g class="lines"/><g class="points"><path class="point" transform="translate(63.3,188.93)" d="M-4.000000000000001,-9.24L-3.9999999999999996,9.24L8,-4.898587196589413e-16Z" style="opacity: 1; stroke-width: 0px; fill: rgb(12, 51, 131); fill-opacity: 1;"/><path class="point" transform="translate(163.06,188.93)" d="M-3.998060268084858,-9.240839469050483L-4.001939555652607,9.23916012378306L7.999999823737465,0.0016793452674238234Z" style="opacity: 1; stroke-width: 0px; fill: rgb(11, 94, 159); fill-opacity: 1;"/><path class="point" transform="translate(262.59,192.58)" d="M-2.8726826706559123,-9.650144779935335L-5.070537010948399,8.698692684570624L7.943219681604312,0.9514520953647129Z" style="opacity: 1; stroke-width: 0px; fill: rgb(10, 136, 186); fill-opacity: 1;"/><path class="point" transform="translate(361.97,198.32)" d="M-3.999139517615431,-9.240372455623563L-4.00086044769631,9.239627464246558L7.999999965311741,0.0007449913770037803Z" style="opacity: 1; stroke-width: 0px; fill: rgb(126, 174, 121); fill-opacity: 1;"/><path class="point" transform="translate(461.74,198.32)" d="M-4.000025091094746,-9.23998913801377L-3.999974908875758,9.240010861918096L7.9999999999705045,-0.000021723904323886132Z" style="opacity: 1; stroke-width: 0px; fill: rgb(242, 211, 56); fill-opacity: 1;"/><path class="point" transform="translate(561.51,198.32)" d="M-4.000204290122834,-9.23991156003578L-3.999795707921859,9.24008843544746L7.999999998044693,-0.00017687541167739256Z" style="opacity: 1; stroke-width: 0px; fill: rgb(242, 177, 56); fill-opacity: 1;"/><path class="point" transform="translate(661.15,196.43)" d="M-4.771073519534726,-8.86647942935608L-3.199962607214307,9.546614023434184L7.971036126749032,-0.6801345940781032Z" style="opacity: 1; stroke-width: 0px; fill: rgb(242, 143, 56); fill-opacity: 1;"/><path class="point" transform="translate(760.43,189.11)" d="M-4.005148523700145,-9.23776949826648L-3.9948502341148244,9.242227632286099L7.99999875781497,-0.004458134019619237Z" style="opacity: 1; stroke-width: 0px; fill: rgb(230, 87, 43); fill-opacity: 1;"/><path class="point" transform="translate(860.2,189.09)" d="M-3.9998203286866767,-9.24007777771512L-4.000179669800912,9.23992221879121L7.9999999984875885,0.00015555892391142426Z" style="opacity: 1; stroke-width: 0px; fill: rgb(217, 30, 30); fill-opacity: 1;"/></g><g class="text"/></g><g class="trace scatter tracee909a5" style="stroke-miterlimit: 2; opacity: 1;"><g class="fills"/><g class="errorbars"/><g class="lines"><path class="js-line" d="M63.3,195.86L894.7,195.86" style="vector-effect: none; fill: none; stroke: rgb(0, 0, 0); stroke-opacity: 1; stroke-width: 2px; opacity: 1;"/></g><g class="points"/><g class="text"/></g><g class="trace scatter tracedca0b5" style="stroke-miterlimit: 2; opacity: 1;"><g class="fills"/><g class="errorbars"/><g class="lines"><path class="js-line" d="M63.3,195.86L250.27,196.53L253.6,196.62L333.7,198.59L337.04,198.6L667.58,197.89L670.92,197.79L747.68,195.88L751.02,195.87L894.6,195.86" style="vector-effect: none; fill: none; stroke: rgb(100, 143, 255); stroke-opacity: 1; stroke-width: 2px; opacity: 1;"/></g><g class="points"/><g class="text"/></g><g class="trace scatter trace6966cd" style="stroke-miterlimit: 2; opacity: 1;"><g class="fills"/><g class="errorbars"/><g class="lines"/><g class="points"><path class="point" transform="translate(63.3,195.86)" d="M-4.000000000000001,-9.24L-3.9999999999999996,9.24L8,-4.898587196589413e-16Z" style="opacity: 1; stroke-width: 0px; fill: rgb(12, 51, 131); fill-opacity: 1;"/><path class="point" transform="translate(163.06,195.86)" d="M-3.9999545985848224,-9.240019654159841L-4.000045401318605,9.239980345617077L7.9999999999034275,0.000039308542763257025Z" style="opacity: 1; stroke-width: 0px; fill: rgb(11, 94, 159); fill-opacity: 1;"/><path class="point" transform="translate(262.81,196.92)" d="M-3.675508537390359,-9.373805896836705L-4.319630478434248,9.09496522971814L7.995139015824607,0.2788406671185667Z" style="opacity: 1; stroke-width: 0px; fill: rgb(10, 136, 186); fill-opacity: 1;"/><path class="point" transform="translate(362.55,198.6)" d="M-3.999965384491241,-9.240014984991737L-4.000034615452621,9.239985014878586L7.999999999943862,0.000029970113151529124Z" style="opacity: 1; stroke-width: 0px; fill: rgb(126, 174, 121); fill-opacity: 1;"/><path class="point" transform="translate(462.32,198.6)" d="M-4.000000874572097,-9.239999621397311L-3.999999125427867,9.240000378602607L7.9999999999999645,-7.572052945117585e-7Z" style="opacity: 1; stroke-width: 0px; fill: rgb(242, 211, 56); fill-opacity: 1;"/><path class="point" transform="translate(562.09,198.6)" d="M-4.000008270307414,-9.239996419775945L-3.9999917296893814,9.240003580216651L7.9999999999967955,-0.000007160440706633202Z" style="opacity: 1; stroke-width: 0px; fill: rgb(242, 177, 56); fill-opacity: 1;"/><path class="point" transform="translate(661.84,198.04)" d="M-4.232640940453151,-9.135773129254027L-3.7647949803908856,9.338303847895698L7.997435920844036,-0.20253071864167313Z" style="opacity: 1; stroke-width: 0px; fill: rgb(242, 143, 56); fill-opacity: 1;"/><path class="point" transform="translate(761.57,195.86)" d="M-4.000121529261654,-9.239947388981035L-3.999878470046388,9.240052609420543L7.9999999993080415,-0.00010522043950901142Z" style="opacity: 1; stroke-width: 0px; fill: rgb(230, 87, 43); fill-opacity: 1;"/><path class="point" transform="translate(861.34,195.86)" d="M-3.9999957041468392,-9.240001859675507L-4.000004295852296,9.239998140322497L7.999999999999136,0.000003719353011753694Z" style="opacity: 1; stroke-width: 0px; fill: rgb(217, 30, 30); fill-opacity: 1;"/></g><g class="text"/></g><g class="trace scatter trace5bd1f9" style="stroke-miterlimit: 2; opacity: 1;"><g class="fills"/><g class="errorbars"/><g class="lines"><path class="js-line" d="M63.3,202.79L894.7,202.79" style="vector-effect: none; fill: none; stroke: rgb(0, 0, 0); stroke-opacity: 1; stroke-width: 2px; opacity: 1;"/></g><g class="points"/><g class="text"/></g><g class="trace scatter tracec477b9" style="stroke-miterlimit: 2; opacity: 1;"><g class="fills"/><g class="errorbars"/><g class="lines"><path class="js-line" d="M63.3,202.79L894.7,202.79" style="vector-effect: none; fill: none; stroke: rgb(100, 143, 255); stroke-opacity: 1; stroke-width: 2px; opacity: 1;"/></g><g class="points"/><g class="text"/></g><g class="trace scatter trace23d4d2" style="stroke-miterlimit: 2; opacity: 1;"><g class="fills"/><g class="errorbars"/><g class="lines"/><g class="points"><path class="point" transform="translate(63.3,202.79)" d="M-4.000000000000001,-9.24L-3.9999999999999996,9.24L8,-4.898587196589413e-16Z" style="opacity: 1; stroke-width: 0px; fill: rgb(12, 51, 131); fill-opacity: 1;"/><path class="point" transform="translate(163.06,202.79)" d="M-4.000000000000001,-9.24L-3.9999999999999996,9.24L8,-4.898587196589413e-16Z" style="opacity: 1; stroke-width: 0px; fill: rgb(11, 94, 159); fill-opacity: 1;"/><path class="point" transform="translate(262.83,202.79)" d="M-3.999999999972124,-9.240000000012067L-4.0000000000278755,9.239999999987933L8,2.4134870518211543e-11Z" style="opacity: 1; stroke-width: 0px; fill: rgb(10, 136, 186); fill-opacity: 1;"/><path class="point" transform="translate(362.6,202.79)" d="M-4.000000000000001,-9.24L-3.9999999999999996,9.24L8,-4.898587196589413e-16Z" style="opacity: 1; stroke-width: 0px; fill: rgb(126, 174, 121); fill-opacity: 1;"/><path class="point" transform="translate(462.37,202.79)" d="M-4.000000000000001,-9.24L-3.9999999999999996,9.24L8,-4.898587196589413e-16Z" style="opacity: 1; stroke-width: 0px; fill: rgb(242, 211, 56); fill-opacity: 1;"/><path class="point" transform="translate(562.14,202.79)" d="M-4.000000000000001,-9.24L-3.9999999999999996,9.24L8,-4.898587196589413e-16Z" style="opacity: 1; stroke-width: 0px; fill: rgb(242, 177, 56); fill-opacity: 1;"/><path class="point" transform="translate(661.91,202.79)" d="M-4.000000000020277,-9.239999999991221L-3.9999999999797224,9.240000000008779L8,-1.7556224502512335e-11Z" style="opacity: 1; stroke-width: 0px; fill: rgb(242, 143, 56); fill-opacity: 1;"/><path class="point" transform="translate(761.68,202.79)" d="M-4.000000000000001,-9.24L-3.9999999999999996,9.24L8,-4.898587196589413e-16Z" style="opacity: 1; stroke-width: 0px; fill: rgb(230, 87, 43); fill-opacity: 1;"/><path class="point" transform="translate(861.45,202.79)" d="M-4.000000000000001,-9.24L-3.9999999999999996,9.24L8,-4.898587196589413e-16Z" style="opacity: 1; stroke-width: 0px; fill: rgb(217, 30, 30); fill-opacity: 1;"/></g><g class="text"/></g><g class="trace scatter tracea95ecc" style="stroke-miterlimit: 2; opacity: 1;"><g class="fills"/><g class="errorbars"/><g class="lines"><path class="js-line" d="M63.3,209.71L894.7,209.71" style="vector-effect: none; fill: none; stroke: rgb(0, 0, 0); stroke-opacity: 1; stroke-width: 2px; opacity: 1;"/></g><g class="points"/><g class="text"/></g><g class="trace scatter trace7fc0a9" style="stroke-miterlimit: 2; opacity: 1;"><g class="fills"/><g class="errorbars"/><g class="lines"><path class="js-line" d="M63.3,209.71L894.7,209.71" style="vector-effect: none; fill: none; stroke: rgb(100, 143, 255); stroke-opacity: 1; stroke-width: 2px; opacity: 1;"/></g><g class="points"/><g class="text"/></g><g class="trace scatter tracee5129e" style="stroke-miterlimit: 2; opacity: 1;"><g class="fills"/><g class="errorbars"/><g class="lines"/><g class="points"><path class="point" transform="translate(63.3,209.71)" d="M-4.000000000000001,-9.24L-3.9999999999999996,9.24L8,-4.898587196589413e-16Z" style="opacity: 1; stroke-width: 0px; fill: rgb(12, 51, 131); fill-opacity: 1;"/><path class="point" transform="translate(163.06,209.71)" d="M-4.000000000000001,-9.24L-3.9999999999999996,9.24L8,-4.898587196589413e-16Z" style="opacity: 1; stroke-width: 0px; fill: rgb(11, 94, 159); fill-opacity: 1;"/><path class="point" transform="translate(262.83,209.71)" d="M-3.999999999986517,-9.240000000005837L-4.000000000013483,9.239999999994163L8,1.1673727289818788e-11Z" style="opacity: 1; stroke-width: 0px; fill: rgb(10, 136, 186); fill-opacity: 1;"/><path class="point" transform="translate(362.6,209.71)" d="M-4.000000000000001,-9.24L-3.9999999999999996,9.24L8,-4.898587196589413e-16Z" style="opacity: 1; stroke-width: 0px; fill: rgb(126, 174, 121); fill-opacity: 1;"/><path class="point" transform="translate(462.37,209.71)" d="M-4.000000000000001,-9.24L-3.9999999999999996,9.24L8,-4.898587196589413e-16Z" style="opacity: 1; stroke-width: 0px; fill: rgb(242, 211, 56); fill-opacity: 1;"/><path class="point" transform="translate(562.14,209.71)" d="M-4.000000000000001,-9.24L-3.9999999999999996,9.24L8,-4.898587196589413e-16Z" style="opacity: 1; stroke-width: 0px; fill: rgb(242, 177, 56); fill-opacity: 1;"/><path class="point" transform="translate(661.91,209.71)" d="M-4.00000000000981,-9.239999999995753L-3.9999999999901905,9.240000000004247L8,-8.493251907892256e-12Z" style="opacity: 1; stroke-width: 0px; fill: rgb(242, 143, 56); fill-opacity: 1;"/><path class="point" transform="translate(761.68,209.71)" d="M-4.000000000000001,-9.24L-3.9999999999999996,9.24L8,-4.898587196589413e-16Z" style="opacity: 1; stroke-width: 0px; fill: rgb(230, 87, 43); fill-opacity: 1;"/><path class="point" transform="translate(861.45,209.71)" d="M-4.000000000000001,-9.24L-3.9999999999999996,9.24L8,-4.898587196589413e-16Z" style="opacity: 1; stroke-width: 0px; fill: rgb(217, 30, 30); fill-opacity: 1;"/></g><g class="text"/></g><g class="trace scatter trace29acbf" style="stroke-miterlimit: 2; opacity: 1;"><g class="fills"/><g class="errorbars"/><g class="lines"><path class="js-line" d="M211.31,253.73L637.04,139.65L639.19,139.08L746.69,110.27" style="vector-effect: none; fill: none; stroke: rgb(220, 38, 127); stroke-opacity: 1; stroke-width: 2px; opacity: 1;"/></g><g class="points"/><g class="text"/></g><g class="trace scatter trace27f49f" style="stroke-miterlimit: 2; opacity: 1;"><g class="fills"/><g class="errorbars"/><g class="lines"/><g class="points"><path class="point" transform="translate(211.31,253.73)" d="M-6.255191281903565,-7.889878454500909L-1.4722153284089816,9.960430815321075L7.7274066103125465,-2.070552360820166Z" style="opacity: 1; stroke-width: 0px; fill: rgb(12, 51, 131); fill-opacity: 1;"/><path class="point" transform="translate(275.55,236.51)" d="M-6.255191281903565,-7.889878454500909L-1.4722153284089816,9.960430815321075L7.7274066103125465,-2.070552360820166Z" style="opacity: 1; stroke-width: 0px; fill: rgb(11, 94, 159); fill-opacity: 1;"/><path class="point" transform="translate(339.8,219.3)" d="M-6.255191281903565,-7.889878454500909L-1.4722153284089816,9.960430815321075L7.7274066103125465,-2.070552360820166Z" style="opacity: 1; stroke-width: 0px; fill: rgb(10, 136, 186); fill-opacity: 1;"/><path class="point" transform="translate(404.05,202.08)" d="M-6.255191281903565,-7.889878454500909L-1.4722153284089816,9.960430815321075L7.7274066103125465,-2.070552360820166Z" style="opacity: 1; stroke-width: 0px; fill: rgb(126, 174, 121); fill-opacity: 1;"/><path class="point" transform="translate(468.29,184.87)" d="M-6.255191281903565,-7.889878454500909L-1.4722153284089816,9.960430815321075L7.7274066103125465,-2.070552360820166Z" style="opacity: 1; stroke-width: 0px; fill: rgb(242, 211, 56); fill-opacity: 1;"/><path class="point" transform="translate(532.54,167.65)" d="M-6.255191281903565,-7.889878454500909L-1.4722153284089816,9.960430815321075L7.7274066103125465,-2.070552360820166Z" style="opacity: 1; stroke-width: 0px; fill: rgb(242, 177, 56); fill-opacity: 1;"/><path class="point" transform="translate(596.78,150.44)" d="M-6.255191281903565,-7.889878454500909L-1.4722153284089816,9.960430815321075L7.7274066103125465,-2.070552360820166Z" style="opacity: 1; stroke-width: 0px; fill: rgb(242, 143, 56); fill-opacity: 1;"/><path class="point" transform="translate(661.03,133.22)" d="M-6.255191281903565,-7.889878454500909L-1.4722153284089816,9.960430815321075L7.7274066103125465,-2.070552360820166Z" style="opacity: 1; stroke-width: 0px; fill: rgb(230, 87, 43); fill-opacity: 1;"/><path class="point" transform="translate(725.28,116.01)" d="M-6.255191281903565,-7.889878454500909L-1.4722153284089816,9.960430815321075L7.7274066103125465,-2.070552360820166Z" style="opacity: 1; stroke-width: 0px; fill: rgb(217, 30, 30); fill-opacity: 1;"/></g><g class="text"/></g></g></g></g><path class="xlines-above crisp" d="M0,0" style="fill: none;"/><path class="ylines-above crisp" d="M0,0" style="fill: none;"/><g class="overlines-above"/><g class="xaxislayer-above"><g class="xtick"><text text-anchor="middle" x="0" y="400" transform="translate(184.3,0)" style="font-family: 'Open Sans', verdana, arial, sans-serif; font-size: 28px; fill: rgb(0, 0, 0); fill-opacity: 1; white-space: pre; opacity: 1;">−1500</text></g><g class="xtick"><text text-anchor="middle" x="0" y="400" style="font-family: 'Open Sans', verdana, arial, sans-serif; font-size: 28px; fill: rgb(0, 0, 0); fill-opacity: 1; white-space: pre; opacity: 1;" transform="translate(322.86,0)">−1000</text></g><g class="xtick"><text text-anchor="middle" x="0" y="400" style="font-family: 'Open Sans', verdana, arial, sans-serif; font-size: 28px; fill: rgb(0, 0, 0); fill-opacity: 1; white-space: pre; opacity: 1;" transform="translate(461.43,0)">−500</text></g><g class="xtick"><text text-anchor="middle" x="0" y="400" style="font-family: 'Open Sans', verdana, arial, sans-serif; font-size: 28px; fill: rgb(0, 0, 0); fill-opacity: 1; white-space: pre; opacity: 1;" transform="translate(600,0)">0</text></g><g class="xtick"><text text-anchor="middle" x="0" y="400" style="font-family: 'Open Sans', verdana, arial, sans-serif; font-size: 28px; fill: rgb(0, 0, 0); fill-opacity: 1; white-space: pre; opacity: 1;" transform="translate(738.57,0)">500</text></g><g class="xtick"><text text-anchor="middle" x="0" y="400" style="font-family: 'Open Sans', verdana, arial, sans-serif; font-size: 28px; fill: rgb(0, 0, 0); fill-opacity: 1; white-space: pre; opacity: 1;" transform="translate(877.14,0)">1000</text></g><g class="xtick"><text text-anchor="middle" x="0" y="400" style="font-family: 'Open Sans', verdana, arial, sans-serif; font-size: 28px; fill: rgb(0, 0, 0); fill-opacity: 1; white-space: pre; opacity: 1;" transform="translate(1015.7,0)">1500</text></g></g><g class="yaxislayer-above"><g class="ytick"><text text-anchor="end" x="120" y="9.799999999999999" transform="translate(0,355.28)" style="font-family: 'Open Sans', verdana, arial, sans-serif; font-size: 28px; fill: rgb(0, 0, 0); fill-opacity: 1; white-space: pre; opacity: 1;">−600</text></g><g class="ytick"><text text-anchor="end" x="120" y="9.799999999999999" style="font-family: 'Open Sans', verdana, arial, sans-serif; font-size: 28px; fill: rgb(0, 0, 0); fill-opacity: 1; white-space: pre; opacity: 1;" transform="translate(0,299.85)">−400</text></g><g class="ytick"><text text-anchor="end" x="120" y="9.799999999999999" style="font-family: 'Open Sans', verdana, arial, sans-serif; font-size: 28px; fill: rgb(0, 0, 0); fill-opacity: 1; white-space: pre; opacity: 1;" transform="translate(0,244.43)">−200</text></g><g class="ytick"><text text-anchor="end" x="120" y="9.799999999999999" style="font-family: 'Open Sans', verdana, arial, sans-serif; font-size: 28px; fill: rgb(0, 0, 0); fill-opacity: 1; white-space: pre; opacity: 1;" transform="translate(0,189)">0</text></g><g class="ytick"><text text-anchor="end" x="120" y="9.799999999999999" style="font-family: 'Open Sans', verdana, arial, sans-serif; font-size: 28px; fill: rgb(0, 0, 0); fill-opacity: 1; white-space: pre; opacity: 1;" transform="translate(0,133.57)">200</text></g><g class="ytick"><text text-anchor="end" x="120" y="9.799999999999999" style="font-family: 'Open Sans', verdana, arial, sans-serif; font-size: 28px; fill: rgb(0, 0, 0); fill-opacity: 1; white-space: pre; opacity: 1;" transform="translate(0,78.15)">400</text></g><g class="ytick"><text text-anchor="end" x="120" y="9.799999999999999" style="font-family: 'Open Sans', verdana, arial, sans-serif; font-size: 28px; fill: rgb(0, 0, 0); fill-opacity: 1; white-space: pre; opacity: 1;" transform="translate(0,22.72)">600</text></g></g><g class="overaxes-above"/></g></g><g class="polarlayer"/><g class="smithlayer"/><g class="ternarylayer"/><g class="geolayer"/><g class="funnelarealayer"/><g class="pielayer"/><g class="iciclelayer"/><g class="treemaplayer"/><g class="sunburstlayer"/><g class="glimages"/><defs id="topdefs-13b8b4"><g class="clips"/><clipPath id="legend13b8b4"><rect width="93" height="225" x="2" y="2"/></clipPath></defs><g class="layer-above"><g class="imagelayer"/><g class="shapelayer"/></g><g class="infolayer"><g class="legend" pointer-events="all" transform="translate(1098.1599999999999,7)"><rect class="bg" shape-rendering="crispEdges" width="95" height="227" x="1" y="1" style="stroke: rgb(0, 0, 0); stroke-opacity: 1; fill: rgb(255, 255, 255); fill-opacity: 1; stroke-width: 2px;"/><g class="scrollbox" transform="" clip-path="url(#legend13b8b4)"><g class="groups" transform=""><g class="traces" transform="translate(2,28.650000000000002)" style="opacity: 1;"><text class="legendtext" text-anchor="start" x="5" y="12.090000000000002" style="font-family: 'Open Sans', verdana, arial, sans-serif; font-size: 31px; fill: rgb(0, 0, 0); fill-opacity: 1; white-space: pre;">OS</text><g class="layers"><g class="legendfill"/><g class="legendlines"/><g class="legendsymbols"><g class="legendpoints"/></g></g><rect class="legendtoggle" x="0" y="-21.650000000000002" width="87.796875" height="43.300000000000004" style="fill: rgb(0, 0, 0); fill-opacity: 0;"/></g><g class="traces" transform="translate(2,70)" style="opacity: 1;"><text class="legendtext" text-anchor="start" x="40" y="10.92" style="font-family: 'Open Sans', verdana, arial, sans-serif; font-size: 28px; fill: rgb(0, 0, 0); fill-opacity: 1; white-space: pre;">Ref</text><g class="layers" style="opacity: 1;"><g class="legendfill"/><g class="legendlines"><path class="js-line" d="M5,0h30" style="fill: none; stroke: rgb(0, 0, 0); stroke-opacity: 1; stroke-width: 2px;"/></g><g class="legendsymbols"><g class="legendpoints"/></g></g><rect class="legendtoggle" x="0" y="-19.7" width="87.796875" height="39.4" style="fill: rgb(0, 0, 0); fill-opacity: 0;"/></g><g class="traces" transform="translate(2,109.4)" style="opacity: 1;"><text class="legendtext" text-anchor="start" x="40" y="10.92" style="font-family: 'Open Sans', verdana, arial, sans-serif; font-size: 28px; fill: rgb(0, 0, 0); fill-opacity: 1; white-space: pre;">Pos</text><g class="layers" style="opacity: 1;"><g class="legendfill"/><g class="legendlines"><path class="js-line" d="M5,0h30" style="fill: none; stroke: rgb(100, 143, 255); stroke-opacity: 1; stroke-width: 2px;"/></g><g class="legendsymbols"><g class="legendpoints"/></g></g><rect class="legendtoggle" x="0" y="-19.7" width="87.796875" height="39.4" style="fill: rgb(0, 0, 0); fill-opacity: 0;"/></g></g><g class="groups" transform="translate(0,10)"><g class="traces" transform="translate(2,150.75)" style="opacity: 1;"><text class="legendtext" text-anchor="start" x="5" y="12.090000000000002" style="font-family: 'Open Sans', verdana, arial, sans-serif; font-size: 31px; fill: rgb(0, 0, 0); fill-opacity: 1; white-space: pre;">TS</text><g class="layers"><g class="legendfill"/><g class="legendlines"/><g class="legendsymbols"><g class="legendpoints"/></g></g><rect class="legendtoggle" x="0" y="-21.650000000000002" width="87.796875" height="43.300000000000004" style="fill: rgb(0, 0, 0); fill-opacity: 0;"/></g><g class="traces" transform="translate(2,192.1)" style="opacity: 1;"><text class="legendtext" text-anchor="start" x="40" y="10.92" style="font-family: 'Open Sans', verdana, arial, sans-serif; font-size: 28px; fill: rgb(0, 0, 0); fill-opacity: 1; white-space: pre;">Pos</text><g class="layers" style="opacity: 1;"><g class="legendfill"/><g class="legendlines"><path class="js-line" d="M5,0h30" style="fill: none; stroke: rgb(220, 38, 127); stroke-opacity: 1; stroke-width: 2px;"/></g><g class="legendsymbols"><g class="legendpoints"/></g></g><rect class="legendtoggle" x="0" y="-19.7" width="87.796875" height="39.4" style="fill: rgb(0, 0, 0); fill-opacity: 0;"/></g></g></g><rect class="scrollbar" rx="20" ry="3" width="0" height="0" x="0" y="0" style="fill: rgb(128, 139, 164); fill-opacity: 1;"/></g><g class="g-gtitle"/><g class="g-xtitle" transform="translate(0,-1.3000000000000114)"><text class="xtitle" x="600" y="444.3" text-anchor="middle" style="opacity: 1; font-family: 'Open Sans', verdana, arial, sans-serif; font-size: 34px; fill: rgb(0, 0, 0); fill-opacity: 1; white-space: pre;">East [m]</text></g><g class="g-ytitle" transform="translate(16.728515625,0)"><text class="ytitle" transform="rotate(-90,17.271874999999994,189)" x="17.271874999999994" y="189" text-anchor="middle" style="opacity: 1; font-family: 'Open Sans', verdana, arial, sans-serif; font-size: 34px; fill: rgb(0, 0, 0); fill-opacity: 1; white-space: pre;">North [m]</text></g></g></svg>